<?xml version="1.0" standalone="no"?>
<!DOCTYPE svg PUBLIC "-//W3C//DTD SVG 20010904//EN"
 "http://www.w3.org/TR/2001/REC-SVG-20010904/DTD/svg10.dtd">
<svg version="1.0" xmlns="http://www.w3.org/2000/svg"
 width="512.000000pt" height="512.000000pt" viewBox="0 0 512.000000 512.000000"
 preserveAspectRatio="xMidYMid meet">
<metadata>
Created by potrace 1.11, written by Peter Selinger 2001-2013
</metadata>
<g transform="translate(0.000000,512.000000) scale(0.100000,-0.100000)"
fill="#000000" stroke="none">
<path d="M0 2560 l0 -2560 2560 0 2560 0 0 2560 0 2560 -2560 0 -2560 0 0
-2560z m2960 2140 c41 -12 100 -31 130 -43 68 -26 203 -120 294 -205 108 -101
167 -124 432 -167 388 -63 591 -124 670 -200 38 -36 44 -47 44 -84 0 -23 -7
-55 -15 -71 -17 -33 -83 -81 -141 -104 -42 -17 -273 -66 -309 -66 -30 0 -49
24 -41 53 5 20 17 27 73 40 63 15 222 88 268 122 17 13 17 17 5 30 -8 7 -50
28 -93 45 -145 58 -398 114 -642 142 -149 17 -761 17 -920 0 -701 -76 -1859
-399 -1990 -554 -45 -53 -25 -60 172 -66 181 -5 677 10 996 30 l197 12 21 65
c12 40 18 78 14 97 -4 24 0 38 15 55 12 13 30 39 40 57 23 37 52 42 73 11 15
-20 16 -20 94 -5 159 32 414 66 514 68 118 3 107 11 153 -112 129 -344 172
-479 315 -980 77 -267 123 -402 172 -506 22 -45 39 -86 39 -91 0 -6 -9 -22
-21 -37 -25 -31 -77 -36 -102 -8 -24 26 -101 213 -141 342 -19 63 -62 216 -96
340 -146 539 -271 937 -298 947 -21 8 -373 -35 -576 -70 l-70 -12 -19 -73
c-11 -40 -18 -74 -16 -76 9 -9 487 25 580 41 74 12 100 13 117 4 26 -14 30
-62 8 -80 -28 -23 -349 -82 -551 -101 -110 -11 -201 -19 -202 -20 -1 0 -13
-35 -27 -77 -13 -43 -95 -301 -181 -573 -219 -695 -205 -654 -238 -658 -40 -5
-43 16 -19 137 28 139 74 294 225 766 69 214 124 392 121 394 -2 2 -191 -4
-420 -14 -574 -25 -861 -13 -963 40 -63 32 -83 137 -37 192 50 59 238 158 435
230 127 46 313 142 384 199 36 28 78 77 111 128 72 109 161 213 220 257 108
82 326 166 515 200 236 43 550 47 681 9z m-2383 -2793 c40 -27 43 -34 50 -119
9 -109 -35 -218 -89 -218 -23 0 -22 12 7 90 24 65 31 170 12 194 -20 27 -38
17 -91 -56 -63 -84 -121 -194 -159 -298 -29 -81 -31 -92 -31 -242 -1 -152 0
-157 23 -182 50 -53 126 -22 232 97 137 152 147 168 186 289 44 142 58 168 85
168 53 0 72 -55 42 -125 -8 -20 -14 -39 -12 -41 2 -2 41 23 86 56 50 35 105
65 138 75 103 30 109 -3 11 -59 -146 -83 -205 -147 -297 -325 -59 -114 -81
-131 -122 -94 -15 14 -19 26 -15 55 3 21 3 38 1 38 -2 0 -35 -43 -74 -95 -88
-118 -142 -157 -222 -163 -112 -8 -157 23 -189 131 -19 63 -21 88 -16 197 7
143 30 244 81 356 44 94 117 204 167 253 35 34 44 37 101 38 50 2 69 -2 95
-20z m2480 0 c18 -12 37 -35 43 -51 14 -40 13 -169 -2 -203 -17 -40 -59 -83
-81 -83 -21 0 -21 1 8 80 23 61 32 185 15 205 -22 26 -37 17 -89 -52 -132
-176 -201 -370 -200 -563 0 -159 32 -207 120 -181 35 10 63 32 142 114 90 94
100 109 133 193 37 96 85 164 135 189 25 13 32 13 62 -1 37 -18 72 -76 82
-136 l6 -37 83 41 84 41 21 74 c23 77 34 89 76 79 42 -11 50 -49 27 -136 -11
-41 -19 -76 -18 -78 2 -1 22 25 45 57 101 144 167 134 143 -22 -6 -39 -10 -73
-8 -74 1 -2 17 17 34 40 17 24 57 69 89 101 51 49 62 56 93 54 30 -3 38 -9 59
-49 l25 -47 -31 -63 c-17 -35 -46 -107 -64 -159 -17 -52 -40 -112 -50 -132
-11 -21 -19 -40 -19 -44 0 -11 37 25 92 89 39 45 54 72 68 125 25 96 69 185
138 282 65 90 94 113 155 124 31 6 41 3 62 -18 37 -37 26 -97 -37 -211 -51
-91 -178 -259 -204 -269 -10 -4 -14 -23 -14 -66 0 -53 2 -60 20 -60 11 0 38
16 60 37 42 37 158 177 167 200 3 7 -5 21 -17 31 -46 37 0 106 143 213 135
102 180 114 226 65 25 -27 20 -49 -16 -65 -14 -6 -62 -40 -106 -74 l-80 -62
59 -3 c52 -2 62 -6 85 -33 l26 -30 77 47 c42 26 79 45 82 41 3 -3 -33 -38 -81
-79 -77 -65 -90 -81 -125 -155 -22 -48 -58 -103 -85 -132 -43 -46 -52 -51 -91
-51 -35 0 -47 5 -60 24 -15 23 -14 27 11 70 15 25 61 78 103 117 69 64 104
110 84 109 -4 -1 -32 -9 -62 -20 -30 -11 -72 -19 -92 -20 -35 0 -40 -4 -62
-48 -13 -27 -41 -68 -61 -92 -20 -24 -42 -55 -50 -70 -20 -39 -95 -99 -133
-106 -56 -11 -120 46 -147 131 -6 18 -9 17 -37 -15 -16 -19 -41 -52 -54 -73
-27 -41 -82 -74 -108 -64 -9 4 -25 21 -35 38 -27 45 -19 102 40 276 27 78 49
145 49 149 0 23 -72 -67 -143 -179 -65 -102 -85 -127 -102 -125 -25 4 -25 2
20 177 20 79 34 145 32 148 -7 6 -128 -166 -163 -234 -18 -35 -36 -79 -40 -99
-7 -39 -26 -53 -49 -34 -8 7 -15 9 -15 4 0 -5 -5 -2 -10 6 -11 17 -8 48 21
198 11 56 19 107 17 113 -2 5 -38 -13 -80 -41 l-76 -52 -33 -103 c-53 -170
-102 -209 -198 -161 -50 26 -91 80 -91 121 0 29 -18 14 -74 -63 -77 -105 -141
-145 -228 -145 -50 1 -67 6 -102 31 -36 26 -44 39 -64 108 -21 70 -23 93 -18
197 4 90 2 116 -7 111 -7 -4 -41 -27 -77 -52 l-65 -44 -22 -80 c-30 -111 -61
-169 -104 -192 l-35 -19 -57 26 c-45 20 -60 34 -78 69 -29 57 -28 107 6 209
54 165 117 249 185 249 54 0 110 -74 110 -145 0 -19 2 -35 5 -35 3 0 41 18 85
40 73 38 80 44 86 78 16 93 144 322 216 388 39 35 49 39 102 41 48 2 66 -1 93
-20z m-774 -75 c19 -20 11 -64 -18 -108 l-15 -24 77 -1 c43 0 101 -7 128 -14
l50 -13 -53 -1 c-30 0 -77 -7 -105 -15 -29 -8 -68 -17 -88 -20 l-37 -6 -50
-133 c-70 -184 -80 -224 -88 -336 -7 -99 4 -148 29 -138 44 18 47 19 47 4 0
-22 -45 -47 -86 -47 -27 0 -43 7 -64 30 -43 46 -53 89 -47 199 4 79 12 117 47
216 23 66 46 124 51 130 23 24 6 30 -83 30 -104 0 -143 13 -167 57 -23 40 -6
51 49 32 33 -12 64 -14 120 -10 134 12 137 13 178 74 42 62 86 112 100 112 5
0 16 -8 25 -18z m-1039 -254 c8 -23 2 -45 -37 -136 -97 -224 -118 -292 -88
-292 39 0 203 287 224 391 15 76 39 89 77 42 21 -27 22 -34 18 -200 l-4 -171
36 18 c34 18 39 26 75 137 21 65 43 141 50 168 10 43 15 50 38 53 18 2 35 -5
53 -23 24 -24 26 -32 20 -73 l-6 -46 32 35 c45 49 97 65 137 45 16 -9 37 -26
45 -38 55 -79 -41 -391 -136 -440 -36 -19 -37 -19 -77 2 -45 22 -62 60 -40 86
11 13 15 12 36 -13 22 -27 23 -28 38 -9 49 63 107 331 76 351 -5 3 -25 -14
-44 -37 -70 -86 -127 -193 -158 -291 -17 -54 -59 -171 -94 -260 -98 -250 -94
-241 -111 -226 -26 21 -46 81 -40 119 3 19 28 103 55 185 73 225 75 247 17
186 -21 -22 -34 -55 -57 -152 -17 -68 -36 -133 -43 -144 -7 -11 -25 -54 -41
-95 -52 -141 -209 -352 -300 -405 -56 -33 -137 -43 -170 -21 -41 27 -59 74
-46 122 28 104 187 316 405 541 l100 103 18 102 c10 56 16 103 14 106 -3 2
-12 -11 -22 -30 -55 -109 -152 -208 -203 -208 -13 0 -38 15 -58 35 -34 34 -35
37 -28 87 14 103 98 318 156 399 28 39 69 37 83 -3z"/>
<path d="M4401 1476 c-34 -63 -61 -118 -61 -122 0 -9 91 122 125 181 29 48 30
55 11 55 -8 0 -41 -51 -75 -114z"/>
<path d="M2330 1398 c-47 -77 -87 -247 -61 -262 21 -13 51 44 76 144 27 113
31 150 15 150 -6 0 -19 -15 -30 -32z"/>
<path d="M3276 1382 c-57 -112 -81 -239 -49 -249 20 -7 50 53 72 147 35 147
24 195 -23 102z"/>
<path d="M1175 877 c-233 -259 -369 -497 -285 -497 28 0 121 90 172 167 74
111 194 366 186 396 -2 7 -34 -23 -73 -66z"/>
</g>
</svg>
