<svg width="300" height="250" viewBox="0 0 300 250" fill="none" xmlns="http://www.w3.org/2000/svg">
<rect width="300" height="250" fill="black"/>
<path d="M116.163 119L119.107 107.8H122.787L125.731 119H123.555L122.947 116.536H118.947L118.339 119H116.163ZM119.443 114.584H122.451L121.091 109.128H120.803L119.443 114.584ZM126.752 119V117.144H128.224V109.656H126.752V107.8H131.36C132.864 107.8 134.005 108.184 134.784 108.952C135.573 109.709 135.968 110.84 135.968 112.344V114.456C135.968 115.96 135.573 117.096 134.784 117.864C134.005 118.621 132.864 119 131.36 119H126.752ZM130.336 117.08H131.392C132.245 117.08 132.869 116.856 133.264 116.408C133.658 115.96 133.856 115.331 133.856 114.52V112.28C133.856 111.459 133.658 110.829 133.264 110.392C132.869 109.944 132.245 109.72 131.392 109.72H130.336V117.08ZM140.835 119L143.779 107.8H147.459L150.403 119H148.227L147.619 116.536H143.619L143.011 119H140.835ZM144.115 114.584H147.123L145.763 109.128H145.475L144.115 114.584ZM155.632 119.224C154.768 119.224 154.005 119.069 153.344 118.76C152.682 118.451 152.165 118.008 151.792 117.432C151.418 116.856 151.232 116.163 151.232 115.352V114.904H153.312V115.352C153.312 116.024 153.52 116.531 153.936 116.872C154.352 117.203 154.917 117.368 155.632 117.368C156.357 117.368 156.896 117.224 157.248 116.936C157.61 116.648 157.792 116.28 157.792 115.832C157.792 115.523 157.701 115.272 157.52 115.08C157.349 114.888 157.093 114.733 156.752 114.616C156.421 114.488 156.016 114.371 155.536 114.264L155.168 114.184C154.4 114.013 153.738 113.8 153.184 113.544C152.64 113.277 152.218 112.931 151.92 112.504C151.632 112.077 151.488 111.523 151.488 110.84C151.488 110.157 151.648 109.576 151.968 109.096C152.298 108.605 152.757 108.232 153.344 107.976C153.941 107.709 154.64 107.576 155.44 107.576C156.24 107.576 156.949 107.715 157.568 107.992C158.197 108.259 158.688 108.664 159.04 109.208C159.402 109.741 159.584 110.413 159.584 111.224V111.704H157.504V111.224C157.504 110.797 157.418 110.456 157.248 110.2C157.088 109.933 156.853 109.741 156.544 109.624C156.234 109.496 155.866 109.432 155.44 109.432C154.8 109.432 154.325 109.555 154.016 109.8C153.717 110.035 153.568 110.36 153.568 110.776C153.568 111.053 153.637 111.288 153.776 111.48C153.925 111.672 154.144 111.832 154.432 111.96C154.72 112.088 155.088 112.2 155.536 112.296L155.904 112.376C156.704 112.547 157.397 112.765 157.984 113.032C158.581 113.299 159.045 113.651 159.376 114.088C159.706 114.525 159.872 115.085 159.872 115.768C159.872 116.451 159.696 117.053 159.344 117.576C159.002 118.088 158.512 118.493 157.872 118.792C157.242 119.08 156.496 119.224 155.632 119.224ZM161.447 119V107.8H163.559V119H161.447ZM165.345 119V117.144H166.817V109.656H165.345V107.8H169.953C171.457 107.8 172.599 108.184 173.377 108.952C174.167 109.709 174.561 110.84 174.561 112.344V114.456C174.561 115.96 174.167 117.096 173.377 117.864C172.599 118.621 171.457 119 169.953 119H165.345ZM168.929 117.08H169.985C170.839 117.08 171.463 116.856 171.857 116.408C172.252 115.96 172.449 115.331 172.449 114.52V112.28C172.449 111.459 172.252 110.829 171.857 110.392C171.463 109.944 170.839 109.72 169.985 109.72H168.929V117.08ZM176.322 119V107.8H183.522V109.72H178.434V112.392H183.074V114.312H178.434V117.08H183.618V119H176.322ZM119.739 143.224C118.896 143.224 118.15 143.075 117.499 142.776C116.848 142.477 116.336 142.051 115.963 141.496C115.6 140.931 115.419 140.264 115.419 139.496V139.208H117.467V139.432C117.467 140.029 117.675 140.509 118.091 140.872C118.507 141.224 119.056 141.4 119.739 141.4C120.432 141.4 120.966 141.235 121.339 140.904C121.723 140.573 121.915 140.157 121.915 139.656V139.496C121.915 139.155 121.83 138.877 121.659 138.664C121.488 138.451 121.259 138.296 120.971 138.2C120.683 138.093 120.358 138.04 119.995 138.04H117.755V135.8L121.371 133.88V133.624H115.707V131.8H123.643V134.52L120.267 136.312V136.568H120.859C121.36 136.568 121.846 136.669 122.315 136.872C122.795 137.075 123.19 137.389 123.499 137.816C123.808 138.232 123.963 138.776 123.963 139.448V139.64C123.963 140.365 123.787 141 123.435 141.544C123.083 142.077 122.587 142.493 121.947 142.792C121.318 143.08 120.582 143.224 119.739 143.224ZM129.793 143.224C128.471 143.224 127.409 142.861 126.609 142.136C125.809 141.4 125.409 140.291 125.409 138.808V135.992C125.409 134.552 125.809 133.459 126.609 132.712C127.409 131.955 128.471 131.576 129.793 131.576C131.127 131.576 132.188 131.955 132.977 132.712C133.777 133.459 134.177 134.552 134.177 135.992V138.808C134.177 140.291 133.777 141.4 132.977 142.136C132.188 142.861 131.127 143.224 129.793 143.224ZM129.793 141.4C130.593 141.4 131.18 141.181 131.553 140.744C131.937 140.307 132.129 139.683 132.129 138.872V135.896C132.129 135.075 131.916 134.456 131.489 134.04C131.073 133.613 130.508 133.4 129.793 133.4C129.057 133.4 128.481 133.619 128.065 134.056C127.66 134.493 127.457 135.107 127.457 135.896V138.872C127.457 139.715 127.649 140.349 128.033 140.776C128.428 141.192 129.015 141.4 129.793 141.4ZM140.168 143.224C138.846 143.224 137.784 142.861 136.984 142.136C136.184 141.4 135.784 140.291 135.784 138.808V135.992C135.784 134.552 136.184 133.459 136.984 132.712C137.784 131.955 138.846 131.576 140.168 131.576C141.502 131.576 142.563 131.955 143.352 132.712C144.152 133.459 144.552 134.552 144.552 135.992V138.808C144.552 140.291 144.152 141.4 143.352 142.136C142.563 142.861 141.502 143.224 140.168 143.224ZM140.168 141.4C140.968 141.4 141.555 141.181 141.928 140.744C142.312 140.307 142.504 139.683 142.504 138.872V135.896C142.504 135.075 142.291 134.456 141.864 134.04C141.448 133.613 140.883 133.4 140.168 133.4C139.432 133.4 138.856 133.619 138.44 134.056C138.035 134.493 137.832 135.107 137.832 135.896V138.872C137.832 139.715 138.024 140.349 138.408 140.776C138.803 141.192 139.39 141.4 140.168 141.4ZM145.711 143L148.991 137.352L145.743 131.8H148.143L150.367 135.848H150.655L152.879 131.8H155.279L152.031 137.352L155.311 143H152.911L150.655 138.856H150.367L148.111 143H145.711ZM156.328 143V141.656C156.328 140.877 156.456 140.232 156.712 139.72C156.968 139.197 157.336 138.771 157.816 138.44C158.307 138.099 158.904 137.821 159.608 137.608L160.68 137.272C161.075 137.144 161.406 136.989 161.672 136.808C161.939 136.616 162.142 136.387 162.28 136.12C162.43 135.853 162.504 135.549 162.504 135.208V135.144C162.504 134.611 162.323 134.189 161.96 133.88C161.598 133.56 161.102 133.4 160.472 133.4C159.854 133.4 159.352 133.571 158.968 133.912C158.595 134.243 158.408 134.723 158.408 135.352V135.64H156.36V135.384C156.36 134.573 156.542 133.885 156.904 133.32C157.267 132.755 157.758 132.323 158.376 132.024C159.006 131.725 159.704 131.576 160.472 131.576C161.24 131.576 161.934 131.725 162.552 132.024C163.171 132.312 163.656 132.723 164.008 133.256C164.371 133.779 164.552 134.397 164.552 135.112V135.272C164.552 135.987 164.403 136.595 164.104 137.096C163.816 137.587 163.422 137.992 162.92 138.312C162.419 138.621 161.848 138.877 161.208 139.08L160.184 139.4C159.726 139.539 159.368 139.693 159.112 139.864C158.856 140.024 158.675 140.205 158.568 140.408C158.472 140.6 158.424 140.835 158.424 141.112V141.176H164.456V143H156.328ZM170.004 143.224C169.13 143.224 168.372 143.069 167.732 142.76C167.103 142.451 166.618 142.013 166.276 141.448C165.935 140.883 165.764 140.227 165.764 139.48V139.32H167.844V139.464C167.844 139.997 168.02 140.456 168.372 140.84C168.735 141.213 169.268 141.4 169.972 141.4C170.676 141.4 171.215 141.213 171.588 140.84C171.972 140.456 172.164 139.96 172.164 139.352V139.192C172.164 138.595 171.972 138.12 171.588 137.768C171.215 137.416 170.746 137.24 170.18 137.24C169.871 137.24 169.615 137.283 169.412 137.368C169.21 137.453 169.044 137.56 168.916 137.688C168.788 137.816 168.682 137.944 168.596 138.072H166.116V131.8H173.764V133.656H168.164V136.392H168.452C168.559 136.253 168.703 136.12 168.884 135.992C169.066 135.864 169.3 135.757 169.588 135.672C169.876 135.587 170.218 135.544 170.612 135.544C171.274 135.544 171.876 135.683 172.42 135.96C172.964 136.237 173.396 136.648 173.716 137.192C174.047 137.725 174.212 138.387 174.212 139.176V139.368C174.212 140.157 174.042 140.84 173.7 141.416C173.37 141.992 172.89 142.44 172.26 142.76C171.631 143.069 170.879 143.224 170.004 143.224ZM179.934 143.224C178.611 143.224 177.55 142.861 176.75 142.136C175.95 141.4 175.55 140.291 175.55 138.808V135.992C175.55 134.552 175.95 133.459 176.75 132.712C177.55 131.955 178.611 131.576 179.934 131.576C181.267 131.576 182.329 131.955 183.118 132.712C183.918 133.459 184.318 134.552 184.318 135.992V138.808C184.318 140.291 183.918 141.4 183.118 142.136C182.329 142.861 181.267 143.224 179.934 143.224ZM179.934 141.4C180.734 141.4 181.321 141.181 181.694 140.744C182.078 140.307 182.27 139.683 182.27 138.872V135.896C182.27 135.075 182.057 134.456 181.63 134.04C181.214 133.613 180.649 133.4 179.934 133.4C179.198 133.4 178.622 133.619 178.206 134.056C177.801 134.493 177.598 135.107 177.598 135.896V138.872C177.598 139.715 177.79 140.349 178.174 140.776C178.569 141.192 179.155 141.4 179.934 141.4Z" fill="white"/>
</svg>
