<svg width="300" height="250" viewBox="0 0 300 250" fill="none" xmlns="http://www.w3.org/2000/svg">
<rect width="300" height="250" fill="#ADFFE7"/>
<path d="M116.163 119L119.107 107.8H122.787L125.731 119H123.555L122.947 116.536H118.947L118.339 119H116.163ZM119.443 114.584H122.451L121.091 109.128H120.803L119.443 114.584ZM126.752 119V117.144H128.224V109.656H126.752V107.8H131.36C132.864 107.8 134.005 108.184 134.784 108.952C135.573 109.709 135.968 110.84 135.968 112.344V114.456C135.968 115.96 135.573 117.096 134.784 117.864C134.005 118.621 132.864 119 131.36 119H126.752ZM130.336 117.08H131.392C132.245 117.08 132.869 116.856 133.264 116.408C133.658 115.96 133.856 115.331 133.856 114.52V112.28C133.856 111.459 133.658 110.829 133.264 110.392C132.869 109.944 132.245 109.72 131.392 109.72H130.336V117.08ZM140.835 119L143.779 107.8H147.459L150.403 119H148.227L147.619 116.536H143.619L143.011 119H140.835ZM144.115 114.584H147.123L145.763 109.128H145.475L144.115 114.584ZM155.632 119.224C154.768 119.224 154.005 119.069 153.344 118.76C152.682 118.451 152.165 118.008 151.792 117.432C151.418 116.856 151.232 116.163 151.232 115.352V114.904H153.312V115.352C153.312 116.024 153.52 116.531 153.936 116.872C154.352 117.203 154.917 117.368 155.632 117.368C156.357 117.368 156.896 117.224 157.248 116.936C157.61 116.648 157.792 116.28 157.792 115.832C157.792 115.523 157.701 115.272 157.52 115.08C157.349 114.888 157.093 114.733 156.752 114.616C156.421 114.488 156.016 114.371 155.536 114.264L155.168 114.184C154.4 114.013 153.738 113.8 153.184 113.544C152.64 113.277 152.218 112.931 151.92 112.504C151.632 112.077 151.488 111.523 151.488 110.84C151.488 110.157 151.648 109.576 151.968 109.096C152.298 108.605 152.757 108.232 153.344 107.976C153.941 107.709 154.64 107.576 155.44 107.576C156.24 107.576 156.949 107.715 157.568 107.992C158.197 108.259 158.688 108.664 159.04 109.208C159.402 109.741 159.584 110.413 159.584 111.224V111.704H157.504V111.224C157.504 110.797 157.418 110.456 157.248 110.2C157.088 109.933 156.853 109.741 156.544 109.624C156.234 109.496 155.866 109.432 155.44 109.432C154.8 109.432 154.325 109.555 154.016 109.8C153.717 110.035 153.568 110.36 153.568 110.776C153.568 111.053 153.637 111.288 153.776 111.48C153.925 111.672 154.144 111.832 154.432 111.96C154.72 112.088 155.088 112.2 155.536 112.296L155.904 112.376C156.704 112.547 157.397 112.765 157.984 113.032C158.581 113.299 159.045 113.651 159.376 114.088C159.706 114.525 159.872 115.085 159.872 115.768C159.872 116.451 159.696 117.053 159.344 117.576C159.002 118.088 158.512 118.493 157.872 118.792C157.242 119.08 156.496 119.224 155.632 119.224ZM161.447 119V107.8H163.559V119H161.447ZM165.345 119V117.144H166.817V109.656H165.345V107.8H169.953C171.457 107.8 172.599 108.184 173.377 108.952C174.167 109.709 174.561 110.84 174.561 112.344V114.456C174.561 115.96 174.167 117.096 173.377 117.864C172.599 118.621 171.457 119 169.953 119H165.345ZM168.929 117.08H169.985C170.839 117.08 171.463 116.856 171.857 116.408C172.252 115.96 172.449 115.331 172.449 114.52V112.28C172.449 111.459 172.252 110.829 171.857 110.392C171.463 109.944 170.839 109.72 169.985 109.72H168.929V117.08ZM176.322 119V107.8H183.522V109.72H178.434V112.392H183.074V114.312H178.434V117.08H183.618V119H176.322ZM110.575 143.224C109.732 143.224 108.986 143.075 108.335 142.776C107.684 142.477 107.172 142.051 106.799 141.496C106.436 140.931 106.255 140.264 106.255 139.496V139.208H108.303V139.432C108.303 140.029 108.511 140.509 108.927 140.872C109.343 141.224 109.892 141.4 110.575 141.4C111.268 141.4 111.802 141.235 112.175 140.904C112.559 140.573 112.751 140.157 112.751 139.656V139.496C112.751 139.155 112.666 138.877 112.495 138.664C112.324 138.451 112.095 138.296 111.807 138.2C111.519 138.093 111.194 138.04 110.831 138.04H108.591V135.8L112.207 133.88V133.624H106.543V131.8H114.479V134.52L111.103 136.312V136.568H111.695C112.196 136.568 112.682 136.669 113.151 136.872C113.631 137.075 114.026 137.389 114.335 137.816C114.644 138.232 114.799 138.776 114.799 139.448V139.64C114.799 140.365 114.623 141 114.271 141.544C113.919 142.077 113.423 142.493 112.783 142.792C112.154 143.08 111.418 143.224 110.575 143.224ZM120.629 143.224C119.307 143.224 118.245 142.861 117.445 142.136C116.645 141.4 116.245 140.291 116.245 138.808V135.992C116.245 134.552 116.645 133.459 117.445 132.712C118.245 131.955 119.307 131.576 120.629 131.576C121.963 131.576 123.024 131.955 123.813 132.712C124.613 133.459 125.013 134.552 125.013 135.992V138.808C125.013 140.291 124.613 141.4 123.813 142.136C123.024 142.861 121.963 143.224 120.629 143.224ZM120.629 141.4C121.429 141.4 122.016 141.181 122.389 140.744C122.773 140.307 122.965 139.683 122.965 138.872V135.896C122.965 135.075 122.752 134.456 122.325 134.04C121.909 133.613 121.344 133.4 120.629 133.4C119.893 133.4 119.317 133.619 118.901 134.056C118.496 134.493 118.293 135.107 118.293 135.896V138.872C118.293 139.715 118.485 140.349 118.869 140.776C119.264 141.192 119.851 141.4 120.629 141.4ZM131.004 143.224C129.682 143.224 128.62 142.861 127.82 142.136C127.02 141.4 126.62 140.291 126.62 138.808V135.992C126.62 134.552 127.02 133.459 127.82 132.712C128.62 131.955 129.682 131.576 131.004 131.576C132.338 131.576 133.399 131.955 134.188 132.712C134.988 133.459 135.388 134.552 135.388 135.992V138.808C135.388 140.291 134.988 141.4 134.188 142.136C133.399 142.861 132.338 143.224 131.004 143.224ZM131.004 141.4C131.804 141.4 132.391 141.181 132.764 140.744C133.148 140.307 133.34 139.683 133.34 138.872V135.896C133.34 135.075 133.127 134.456 132.7 134.04C132.284 133.613 131.719 133.4 131.004 133.4C130.268 133.4 129.692 133.619 129.276 134.056C128.871 134.493 128.668 135.107 128.668 135.896V138.872C128.668 139.715 128.86 140.349 129.244 140.776C129.639 141.192 130.226 141.4 131.004 141.4ZM136.611 143L139.491 139L136.643 135.064H138.979L140.787 137.704H141.075L142.883 135.064H145.219L142.371 139L145.251 143H142.883L141.075 140.328H140.787L138.979 143H136.611ZM146.336 143V141.656C146.336 140.877 146.464 140.232 146.72 139.72C146.976 139.197 147.344 138.771 147.824 138.44C148.315 138.099 148.912 137.821 149.616 137.608L150.688 137.272C151.083 137.144 151.413 136.989 151.68 136.808C151.947 136.616 152.149 136.387 152.288 136.12C152.437 135.853 152.512 135.549 152.512 135.208V135.144C152.512 134.611 152.331 134.189 151.968 133.88C151.605 133.56 151.109 133.4 150.48 133.4C149.861 133.4 149.36 133.571 148.976 133.912C148.603 134.243 148.416 134.723 148.416 135.352V135.64H146.368V135.384C146.368 134.573 146.549 133.885 146.912 133.32C147.275 132.755 147.765 132.323 148.384 132.024C149.013 131.725 149.712 131.576 150.48 131.576C151.248 131.576 151.941 131.725 152.56 132.024C153.179 132.312 153.664 132.723 154.016 133.256C154.379 133.779 154.56 134.397 154.56 135.112V135.272C154.56 135.987 154.411 136.595 154.112 137.096C153.824 137.587 153.429 137.992 152.928 138.312C152.427 138.621 151.856 138.877 151.216 139.08L150.192 139.4C149.733 139.539 149.376 139.693 149.12 139.864C148.864 140.024 148.683 140.205 148.576 140.408C148.48 140.6 148.432 140.835 148.432 141.112V141.176H154.464V143H146.336ZM160.012 143.224C159.137 143.224 158.38 143.069 157.74 142.76C157.111 142.451 156.625 142.013 156.284 141.448C155.943 140.883 155.772 140.227 155.772 139.48V139.32H157.852V139.464C157.852 139.997 158.028 140.456 158.38 140.84C158.743 141.213 159.276 141.4 159.98 141.4C160.684 141.4 161.223 141.213 161.596 140.84C161.98 140.456 162.172 139.96 162.172 139.352V139.192C162.172 138.595 161.98 138.12 161.596 137.768C161.223 137.416 160.753 137.24 160.188 137.24C159.879 137.24 159.623 137.283 159.42 137.368C159.217 137.453 159.052 137.56 158.924 137.688C158.796 137.816 158.689 137.944 158.604 138.072H156.124V131.8H163.772V133.656H158.172V136.392H158.46C158.567 136.253 158.711 136.12 158.892 135.992C159.073 135.864 159.308 135.757 159.596 135.672C159.884 135.587 160.225 135.544 160.62 135.544C161.281 135.544 161.884 135.683 162.428 135.96C162.972 136.237 163.404 136.648 163.724 137.192C164.055 137.725 164.22 138.387 164.22 139.176V139.368C164.22 140.157 164.049 140.84 163.708 141.416C163.377 141.992 162.897 142.44 162.268 142.76C161.639 143.069 160.887 143.224 160.012 143.224ZM169.942 143.224C168.619 143.224 167.558 142.861 166.758 142.136C165.958 141.4 165.558 140.291 165.558 138.808V135.992C165.558 134.552 165.958 133.459 166.758 132.712C167.558 131.955 168.619 131.576 169.942 131.576C171.275 131.576 172.336 131.955 173.126 132.712C173.926 133.459 174.326 134.552 174.326 135.992V138.808C174.326 140.291 173.926 141.4 173.126 142.136C172.336 142.861 171.275 143.224 169.942 143.224ZM169.942 141.4C170.742 141.4 171.328 141.181 171.702 140.744C172.086 140.307 172.278 139.683 172.278 138.872V135.896C172.278 135.075 172.064 134.456 171.638 134.04C171.222 133.613 170.656 133.4 169.942 133.4C169.206 133.4 168.63 133.619 168.214 134.056C167.808 134.493 167.606 135.107 167.606 135.896V138.872C167.606 139.715 167.798 140.349 168.182 140.776C168.576 141.192 169.163 141.4 169.942 141.4ZM176.253 146.2V135.064H178.237V136.024H178.525C178.706 135.715 178.989 135.443 179.373 135.208C179.757 134.963 180.306 134.84 181.021 134.84C181.661 134.84 182.253 135 182.797 135.32C183.341 135.629 183.778 136.088 184.109 136.696C184.439 137.304 184.605 138.04 184.605 138.904V139.16C184.605 140.024 184.439 140.76 184.109 141.368C183.778 141.976 183.341 142.44 182.797 142.76C182.253 143.069 181.661 143.224 181.021 143.224C180.541 143.224 180.135 143.165 179.805 143.048C179.485 142.941 179.223 142.803 179.021 142.632C178.829 142.451 178.674 142.269 178.557 142.088H178.269V146.2H176.253ZM180.413 141.464C181.042 141.464 181.559 141.267 181.965 140.872C182.381 140.467 182.589 139.88 182.589 139.112V138.952C182.589 138.184 182.381 137.603 181.965 137.208C181.549 136.803 181.031 136.6 180.413 136.6C179.794 136.6 179.277 136.803 178.861 137.208C178.445 137.603 178.237 138.184 178.237 138.952V139.112C178.237 139.88 178.445 140.467 178.861 140.872C179.277 141.267 179.794 141.464 180.413 141.464ZM185.236 143L188.116 139L185.268 135.064H187.604L189.412 137.704H189.7L191.508 135.064H193.844L190.996 139L193.876 143H191.508L189.7 140.328H189.412L187.604 143H185.236Z" fill="black"/>
</svg>
