<svg width="968" height="250" viewBox="0 0 968 250" fill="none" xmlns="http://www.w3.org/2000/svg">
<g clip-path="url(#clip0_3606_3226)">
<path d="M968 0H0V250H968V0Z" fill="#F86F03"/>
<path d="M446.686 133.375L451.726 122.175H453.774L458.83 133.375H456.654L452.318 123.279H453.15L448.83 133.375H446.686ZM449.006 130.783L449.566 129.151H455.614L456.174 130.783H449.006ZM460.254 133.375V122.175H465.15C466.366 122.175 467.433 122.41 468.35 122.879C469.267 123.348 469.982 123.999 470.494 124.831C471.006 125.663 471.262 126.644 471.262 127.775C471.262 128.895 471.006 129.876 470.494 130.719C469.982 131.551 469.267 132.202 468.35 132.671C467.433 133.14 466.366 133.375 465.15 133.375H460.254ZM462.334 131.615H465.054C465.897 131.615 466.622 131.455 467.23 131.135C467.849 130.815 468.323 130.367 468.654 129.791C468.995 129.215 469.166 128.543 469.166 127.775C469.166 126.996 468.995 126.324 468.654 125.759C468.323 125.183 467.849 124.735 467.23 124.415C466.622 124.095 465.897 123.935 465.054 123.935H462.334V131.615ZM479.799 127.327H485.383V129.087H479.799V127.327ZM479.975 133.375H477.895V122.175H486.071V123.919H479.975V133.375ZM490.002 126.831H495.57V128.543H490.002V126.831ZM490.162 131.631H496.482V133.375H488.082V122.175H496.258V123.919H490.162V131.631ZM500.721 126.831H506.289V128.543H500.721V126.831ZM500.881 131.631H507.201V133.375H498.801V122.175H506.977V123.919H500.881V131.631ZM509.52 133.375V122.175H514.416C515.632 122.175 516.698 122.41 517.616 122.879C518.533 123.348 519.248 123.999 519.76 124.831C520.272 125.663 520.528 126.644 520.528 127.775C520.528 128.895 520.272 129.876 519.76 130.719C519.248 131.551 518.533 132.202 517.616 132.671C516.698 133.14 515.632 133.375 514.416 133.375H509.52ZM511.6 131.615H514.32C515.162 131.615 515.888 131.455 516.496 131.135C517.114 130.815 517.589 130.367 517.92 129.791C518.261 129.215 518.432 128.543 518.432 127.775C518.432 126.996 518.261 126.324 517.92 125.759C517.589 125.183 517.114 124.735 516.496 124.415C515.888 124.095 515.162 123.935 514.32 123.935H511.6V131.615ZM444.042 148.015C445.066 148.015 445.936 148.234 446.65 148.671C447.376 149.098 447.93 149.722 448.314 150.543C448.698 151.364 448.89 152.378 448.89 153.583C448.89 154.863 448.656 155.946 448.186 156.831C447.728 157.716 447.088 158.388 446.266 158.847C445.445 159.306 444.49 159.535 443.402 159.535C442.837 159.535 442.298 159.476 441.786 159.359C441.274 159.242 440.832 159.06 440.458 158.815L441.226 157.247C441.536 157.45 441.872 157.594 442.234 157.679C442.597 157.754 442.97 157.791 443.354 157.791C444.41 157.791 445.248 157.466 445.866 156.815C446.485 156.164 446.794 155.204 446.794 153.935C446.794 153.732 446.789 153.498 446.778 153.231C446.768 152.954 446.73 152.676 446.666 152.399L447.306 153.103C447.125 153.54 446.864 153.908 446.522 154.207C446.181 154.495 445.781 154.714 445.322 154.863C444.864 155.012 444.357 155.087 443.802 155.087C443.077 155.087 442.421 154.948 441.834 154.671C441.258 154.383 440.8 153.983 440.458 153.471C440.117 152.948 439.946 152.34 439.946 151.647C439.946 150.9 440.128 150.26 440.49 149.727C440.853 149.183 441.344 148.762 441.962 148.463C442.592 148.164 443.285 148.015 444.042 148.015ZM444.154 149.647C443.728 149.647 443.349 149.727 443.018 149.887C442.688 150.036 442.426 150.255 442.234 150.543C442.053 150.82 441.962 151.156 441.962 151.551C441.962 152.138 442.165 152.602 442.57 152.943C442.976 153.284 443.52 153.455 444.202 153.455C444.65 153.455 445.045 153.375 445.386 153.215C445.728 153.044 445.994 152.815 446.186 152.527C446.378 152.228 446.474 151.898 446.474 151.535C446.474 151.183 446.384 150.868 446.202 150.591C446.021 150.303 445.76 150.074 445.418 149.903C445.077 149.732 444.656 149.647 444.154 149.647ZM455.146 159.535C454.132 159.535 453.263 159.322 452.538 158.895C451.812 158.458 451.258 157.828 450.874 157.007C450.49 156.186 450.298 155.172 450.298 153.967C450.298 152.687 450.527 151.604 450.986 150.719C451.455 149.834 452.1 149.162 452.922 148.703C453.754 148.244 454.708 148.015 455.786 148.015C456.351 148.015 456.89 148.074 457.402 148.191C457.924 148.308 458.367 148.49 458.73 148.735L457.962 150.303C457.652 150.1 457.316 149.962 456.954 149.887C456.602 149.802 456.228 149.759 455.834 149.759C454.778 149.759 453.94 150.084 453.322 150.735C452.703 151.386 452.394 152.346 452.394 153.615C452.394 153.818 452.399 154.058 452.41 154.335C452.42 154.602 452.458 154.874 452.522 155.151L451.882 154.447C452.074 154.01 452.335 153.647 452.666 153.359C453.007 153.06 453.407 152.836 453.866 152.687C454.335 152.538 454.842 152.463 455.386 152.463C456.122 152.463 456.778 152.607 457.354 152.895C457.93 153.172 458.388 153.572 458.73 154.095C459.071 154.607 459.242 155.21 459.242 155.903C459.242 156.639 459.06 157.279 458.698 157.823C458.335 158.367 457.844 158.788 457.226 159.087C456.607 159.386 455.914 159.535 455.146 159.535ZM455.034 157.903C455.46 157.903 455.839 157.828 456.17 157.679C456.5 157.519 456.756 157.295 456.938 157.007C457.13 156.719 457.226 156.383 457.226 155.999C457.226 155.412 457.023 154.948 456.618 154.607C456.212 154.266 455.668 154.095 454.986 154.095C454.538 154.095 454.143 154.18 453.802 154.351C453.471 154.511 453.204 154.735 453.002 155.023C452.81 155.311 452.714 155.642 452.714 156.015C452.714 156.356 452.804 156.671 452.986 156.959C453.167 157.247 453.428 157.476 453.77 157.647C454.122 157.818 454.543 157.903 455.034 157.903ZM464.825 159.535C463.897 159.535 463.092 159.396 462.409 159.119C461.726 158.842 461.198 158.452 460.825 157.951C460.452 157.439 460.265 156.842 460.265 156.159C460.265 155.476 460.446 154.9 460.809 154.431C461.172 153.962 461.694 153.604 462.377 153.359C463.06 153.114 463.876 152.991 464.825 152.991C465.774 152.991 466.59 153.114 467.273 153.359C467.966 153.604 468.494 153.967 468.857 154.447C469.23 154.916 469.417 155.487 469.417 156.159C469.417 156.842 469.225 157.439 468.841 157.951C468.468 158.452 467.934 158.842 467.241 159.119C466.558 159.396 465.753 159.535 464.825 159.535ZM464.825 157.903C465.593 157.903 466.201 157.743 466.649 157.423C467.097 157.103 467.321 156.66 467.321 156.095C467.321 155.54 467.097 155.103 466.649 154.783C466.201 154.463 465.593 154.303 464.825 154.303C464.057 154.303 463.454 154.463 463.017 154.783C462.58 155.103 462.361 155.54 462.361 156.095C462.361 156.66 462.58 157.103 463.017 157.423C463.454 157.743 464.057 157.903 464.825 157.903ZM464.825 154.079C463.961 154.079 463.22 153.967 462.601 153.743C461.982 153.508 461.502 153.172 461.161 152.735C460.83 152.287 460.665 151.754 460.665 151.135C460.665 150.495 460.836 149.946 461.177 149.487C461.529 149.018 462.02 148.655 462.649 148.399C463.278 148.143 464.004 148.015 464.825 148.015C465.657 148.015 466.388 148.143 467.017 148.399C467.646 148.655 468.137 149.018 468.489 149.487C468.841 149.946 469.017 150.495 469.017 151.135C469.017 151.754 468.846 152.287 468.505 152.735C468.174 153.172 467.694 153.508 467.065 153.743C466.436 153.967 465.689 154.079 464.825 154.079ZM464.825 152.799C465.486 152.799 466.009 152.66 466.393 152.383C466.777 152.095 466.969 151.711 466.969 151.231C466.969 150.73 466.772 150.34 466.377 150.063C465.982 149.786 465.465 149.647 464.825 149.647C464.185 149.647 463.673 149.786 463.289 150.063C462.905 150.34 462.713 150.73 462.713 151.231C462.713 151.711 462.9 152.095 463.273 152.383C463.657 152.66 464.174 152.799 464.825 152.799ZM470.081 159.375L473.841 154.479L473.809 155.551L470.225 150.831H472.449L474.961 154.191H474.113L476.641 150.831H478.801L475.185 155.551L475.201 154.479L478.945 159.375H476.689L474.049 155.807L474.881 155.919L472.289 159.375H470.081ZM479.716 159.375V157.983L484.164 153.759C484.538 153.407 484.815 153.098 484.996 152.831C485.178 152.564 485.295 152.319 485.348 152.095C485.412 151.86 485.444 151.642 485.444 151.439C485.444 150.927 485.268 150.532 484.916 150.255C484.564 149.967 484.047 149.823 483.364 149.823C482.82 149.823 482.324 149.919 481.876 150.111C481.439 150.303 481.06 150.596 480.74 150.991L479.284 149.871C479.722 149.284 480.308 148.831 481.044 148.511C481.791 148.18 482.623 148.015 483.54 148.015C484.351 148.015 485.055 148.148 485.652 148.415C486.26 148.671 486.724 149.039 487.044 149.519C487.375 149.999 487.54 150.57 487.54 151.231C487.54 151.594 487.492 151.956 487.396 152.319C487.3 152.671 487.119 153.044 486.852 153.439C486.586 153.834 486.196 154.276 485.684 154.767L481.86 158.399L481.428 157.615H487.972V159.375H479.716ZM492.885 159.535C492.095 159.535 491.322 159.423 490.565 159.199C489.818 158.964 489.189 158.644 488.677 158.239L489.557 156.623C489.962 156.954 490.453 157.22 491.029 157.423C491.615 157.626 492.223 157.727 492.853 157.727C493.589 157.727 494.165 157.572 494.581 157.263C495.007 156.954 495.221 156.538 495.221 156.015C495.221 155.663 495.13 155.354 494.949 155.087C494.778 154.82 494.469 154.618 494.021 154.479C493.583 154.34 492.981 154.271 492.213 154.271H489.509L490.085 148.175H496.661V149.919H490.853L491.941 148.927L491.509 153.487L490.421 152.511H492.677C493.786 152.511 494.677 152.66 495.349 152.959C496.031 153.247 496.527 153.652 496.837 154.175C497.157 154.687 497.317 155.274 497.317 155.935C497.317 156.586 497.157 157.183 496.837 157.727C496.517 158.271 496.026 158.708 495.365 159.039C494.714 159.37 493.887 159.535 492.885 159.535ZM503.188 159.535C502.303 159.535 501.503 159.311 500.788 158.863C500.084 158.415 499.53 157.764 499.124 156.911C498.719 156.047 498.516 155.002 498.516 153.775C498.516 152.548 498.719 151.508 499.124 150.655C499.53 149.791 500.084 149.135 500.788 148.687C501.503 148.239 502.303 148.015 503.188 148.015C504.084 148.015 504.884 148.239 505.588 148.687C506.292 149.135 506.847 149.791 507.252 150.655C507.668 151.508 507.876 152.548 507.876 153.775C507.876 155.002 507.668 156.047 507.252 156.911C506.847 157.764 506.292 158.415 505.588 158.863C504.884 159.311 504.084 159.535 503.188 159.535ZM503.188 157.727C503.711 157.727 504.164 157.588 504.548 157.311C504.932 157.023 505.231 156.586 505.444 155.999C505.668 155.412 505.78 154.671 505.78 153.775C505.78 152.868 505.668 152.127 505.444 151.551C505.231 150.964 504.932 150.532 504.548 150.255C504.164 149.967 503.711 149.823 503.188 149.823C502.687 149.823 502.239 149.967 501.844 150.255C501.46 150.532 501.156 150.964 500.932 151.551C500.719 152.127 500.612 152.868 500.612 153.775C500.612 154.671 500.719 155.412 500.932 155.999C501.156 156.586 501.46 157.023 501.844 157.311C502.239 157.588 502.687 157.727 503.188 157.727ZM514.626 159.487C513.933 159.487 513.298 159.327 512.722 159.007C512.157 158.687 511.703 158.207 511.362 157.567C511.031 156.916 510.866 156.095 510.866 155.103C510.866 154.1 511.026 153.279 511.346 152.639C511.677 151.999 512.125 151.524 512.69 151.215C513.255 150.895 513.901 150.735 514.626 150.735C515.469 150.735 516.21 150.916 516.85 151.279C517.501 151.642 518.013 152.148 518.386 152.799C518.77 153.45 518.962 154.218 518.962 155.103C518.962 155.988 518.77 156.762 518.386 157.423C518.013 158.074 517.501 158.58 516.85 158.943C516.21 159.306 515.469 159.487 514.626 159.487ZM509.89 162.479V150.831H511.794V152.847L511.73 155.119L511.89 157.391V162.479H509.89ZM514.402 157.775C514.882 157.775 515.309 157.668 515.682 157.455C516.066 157.242 516.37 156.932 516.594 156.527C516.818 156.122 516.93 155.647 516.93 155.103C516.93 154.548 516.818 154.074 516.594 153.679C516.37 153.274 516.066 152.964 515.682 152.751C515.309 152.538 514.882 152.431 514.402 152.431C513.922 152.431 513.49 152.538 513.106 152.751C512.722 152.964 512.418 153.274 512.194 153.679C511.97 154.074 511.858 154.548 511.858 155.103C511.858 155.647 511.97 156.122 512.194 156.527C512.418 156.932 512.722 157.242 513.106 157.455C513.49 157.668 513.922 157.775 514.402 157.775ZM519.41 159.375L523.17 154.479L523.138 155.551L519.554 150.831H521.778L524.29 154.191H523.442L525.97 150.831H528.13L524.514 155.551L524.53 154.479L528.274 159.375H526.018L523.378 155.807L524.21 155.919L521.618 159.375H519.41Z" fill="white"/>
</g>
<defs>
<clipPath id="clip0_3606_3226">
<rect width="968" height="250" fill="white"/>
</clipPath>
</defs>
</svg>
