<svg width="344" height="600" viewBox="0 0 344 600" fill="none" xmlns="http://www.w3.org/2000/svg">
<rect width="344" height="600" fill="#AB2B9E"/>
<path d="M133.661 291L139.589 277.7H142.629L148.576 291H145.346L140.482 279.258H141.698L136.815 291H133.661ZM136.625 288.15L137.442 285.813H144.282L145.118 288.15H136.625ZM154.043 291.152C153.08 291.152 152.213 290.937 151.44 290.506C150.667 290.063 150.053 289.448 149.597 288.663C149.154 287.878 148.932 286.953 148.932 285.889C148.932 284.812 149.154 283.881 149.597 283.096C150.053 282.311 150.667 281.703 151.44 281.272C152.213 280.841 153.08 280.626 154.043 280.626C154.904 280.626 155.658 280.816 156.304 281.196C156.95 281.576 157.45 282.152 157.805 282.925C158.16 283.698 158.337 284.686 158.337 285.889C158.337 287.08 158.166 288.068 157.824 288.853C157.482 289.626 156.988 290.202 156.342 290.582C155.709 290.962 154.942 291.152 154.043 291.152ZM154.556 288.72C155.037 288.72 155.474 288.606 155.867 288.378C156.26 288.15 156.57 287.827 156.798 287.409C157.039 286.978 157.159 286.472 157.159 285.889C157.159 285.294 157.039 284.787 156.798 284.369C156.57 283.951 156.26 283.628 155.867 283.4C155.474 283.172 155.037 283.058 154.556 283.058C154.062 283.058 153.619 283.172 153.226 283.4C152.833 283.628 152.517 283.951 152.276 284.369C152.048 284.787 151.934 285.294 151.934 285.889C151.934 286.472 152.048 286.978 152.276 287.409C152.517 287.827 152.833 288.15 153.226 288.378C153.619 288.606 154.062 288.72 154.556 288.72ZM157.235 291V288.91L157.292 285.87L157.102 282.849V276.902H160.066V291H157.235ZM168.551 291V280.55C168.551 279.397 168.893 278.479 169.577 277.795C170.261 277.098 171.237 276.75 172.503 276.75C172.934 276.75 173.346 276.794 173.738 276.883C174.144 276.972 174.486 277.111 174.764 277.301L173.985 279.448C173.821 279.334 173.637 279.245 173.434 279.182C173.232 279.119 173.016 279.087 172.788 279.087C172.358 279.087 172.022 279.214 171.781 279.467C171.553 279.708 171.439 280.075 171.439 280.569V281.519L171.515 282.792V291H168.551ZM166.974 283.286V281.006H174.061V283.286H166.974ZM180.481 291.152C179.316 291.152 178.29 290.924 177.403 290.468C176.529 290.012 175.851 289.391 175.37 288.606C174.889 287.808 174.648 286.902 174.648 285.889C174.648 284.863 174.882 283.957 175.351 283.172C175.832 282.374 176.485 281.753 177.308 281.31C178.131 280.854 179.062 280.626 180.101 280.626C181.102 280.626 182.001 280.841 182.799 281.272C183.61 281.69 184.249 282.298 184.718 283.096C185.187 283.881 185.421 284.825 185.421 285.927C185.421 286.041 185.415 286.174 185.402 286.326C185.389 286.465 185.377 286.598 185.364 286.725H177.061V284.996H183.806L182.666 285.509C182.666 284.977 182.558 284.515 182.343 284.122C182.128 283.729 181.83 283.425 181.45 283.21C181.07 282.982 180.627 282.868 180.12 282.868C179.613 282.868 179.164 282.982 178.771 283.21C178.391 283.425 178.093 283.736 177.878 284.141C177.663 284.534 177.555 285.002 177.555 285.547V286.003C177.555 286.56 177.675 287.054 177.916 287.485C178.169 287.903 178.518 288.226 178.961 288.454C179.417 288.669 179.949 288.777 180.557 288.777C181.102 288.777 181.577 288.695 181.982 288.53C182.4 288.365 182.78 288.118 183.122 287.789L184.699 289.499C184.23 290.031 183.641 290.443 182.932 290.734C182.223 291.013 181.406 291.152 180.481 291.152ZM192.467 291.152C191.302 291.152 190.276 290.924 189.389 290.468C188.515 290.012 187.838 289.391 187.356 288.606C186.875 287.808 186.634 286.902 186.634 285.889C186.634 284.863 186.869 283.957 187.337 283.172C187.819 282.374 188.471 281.753 189.294 281.31C190.118 280.854 191.049 280.626 192.087 280.626C193.088 280.626 193.987 280.841 194.785 281.272C195.596 281.69 196.236 282.298 196.704 283.096C197.173 283.881 197.407 284.825 197.407 285.927C197.407 286.041 197.401 286.174 197.388 286.326C197.376 286.465 197.363 286.598 197.35 286.725H189.047V284.996H195.792L194.652 285.509C194.652 284.977 194.545 284.515 194.329 284.122C194.114 283.729 193.816 283.425 193.436 283.21C193.056 282.982 192.613 282.868 192.106 282.868C191.6 282.868 191.15 282.982 190.757 283.21C190.377 283.425 190.08 283.736 189.864 284.141C189.649 284.534 189.541 285.002 189.541 285.547V286.003C189.541 286.56 189.662 287.054 189.902 287.485C190.156 287.903 190.504 288.226 190.947 288.454C191.403 288.669 191.935 288.777 192.543 288.777C193.088 288.777 193.563 288.695 193.968 288.53C194.386 288.365 194.766 288.118 195.108 287.789L196.685 289.499C196.217 290.031 195.628 290.443 194.918 290.734C194.209 291.013 193.392 291.152 192.467 291.152ZM203.77 291.152C202.807 291.152 201.939 290.937 201.167 290.506C200.394 290.063 199.78 289.448 199.324 288.663C198.88 287.878 198.659 286.953 198.659 285.889C198.659 284.812 198.88 283.881 199.324 283.096C199.78 282.311 200.394 281.703 201.167 281.272C201.939 280.841 202.807 280.626 203.77 280.626C204.631 280.626 205.385 280.816 206.031 281.196C206.677 281.576 207.177 282.152 207.532 282.925C207.886 283.698 208.064 284.686 208.064 285.889C208.064 287.08 207.893 288.068 207.551 288.853C207.209 289.626 206.715 290.202 206.069 290.582C205.435 290.962 204.669 291.152 203.77 291.152ZM204.283 288.72C204.764 288.72 205.201 288.606 205.594 288.378C205.986 288.15 206.297 287.827 206.525 287.409C206.765 286.978 206.886 286.472 206.886 285.889C206.886 285.294 206.765 284.787 206.525 284.369C206.297 283.951 205.986 283.628 205.594 283.4C205.201 283.172 204.764 283.058 204.283 283.058C203.789 283.058 203.345 283.172 202.953 283.4C202.56 283.628 202.243 283.951 202.003 284.369C201.775 284.787 201.661 285.294 201.661 285.889C201.661 286.472 201.775 286.978 202.003 287.409C202.243 287.827 202.56 288.15 202.953 288.378C203.345 288.606 203.789 288.72 204.283 288.72ZM206.962 291V288.91L207.019 285.87L206.829 282.849V276.902H209.793V291H206.962ZM134.516 323.228C133.592 323.228 132.673 323.108 131.761 322.867C130.849 322.614 130.077 322.259 129.443 321.803L130.64 319.447C131.147 319.814 131.736 320.106 132.407 320.321C133.079 320.536 133.756 320.644 134.44 320.644C135.213 320.644 135.821 320.492 136.264 320.188C136.708 319.884 136.929 319.466 136.929 318.934C136.929 318.427 136.733 318.028 136.34 317.737C135.948 317.446 135.314 317.3 134.44 317.3H133.034V315.267L136.739 311.068L137.081 312.17H130.108V309.7H139.418V311.695L135.732 315.894L134.174 315.001H135.067C136.701 315.001 137.936 315.368 138.772 316.103C139.608 316.838 140.026 317.781 140.026 318.934C140.026 319.681 139.83 320.384 139.437 321.043C139.045 321.689 138.443 322.215 137.632 322.62C136.822 323.025 135.783 323.228 134.516 323.228ZM141.296 320.207V318.136L147.566 309.7H150.796L144.659 318.136L143.158 317.699H153.627V320.207H141.296ZM148.459 323V320.207L148.554 317.699V315.21H151.461V323H148.459ZM154.395 320.207V318.136L160.665 309.7H163.895L157.758 318.136L156.257 317.699H166.726V320.207H154.395ZM161.558 323V320.207L161.653 317.699V315.21H164.56V323H161.558ZM166.647 323L171.226 316.996L171.169 318.63L166.78 312.778H170.105L172.879 316.597L171.625 316.635L174.494 312.778H177.648L173.24 318.573V316.977L177.8 323H174.437L171.53 318.934L172.765 319.105L169.877 323H166.647ZM184.337 323.228C183.121 323.228 182.063 322.975 181.164 322.468C180.277 321.961 179.593 321.22 179.112 320.245C178.631 319.27 178.39 318.066 178.39 316.635C178.39 315.102 178.675 313.804 179.245 312.74C179.828 311.676 180.626 310.865 181.639 310.308C182.665 309.751 183.843 309.472 185.173 309.472C185.882 309.472 186.56 309.548 187.206 309.7C187.852 309.852 188.409 310.08 188.878 310.384L187.738 312.645C187.371 312.392 186.978 312.221 186.56 312.132C186.142 312.031 185.705 311.98 185.249 311.98C184.096 311.98 183.184 312.328 182.513 313.025C181.842 313.722 181.506 314.754 181.506 316.122C181.506 316.35 181.506 316.603 181.506 316.882C181.519 317.161 181.557 317.439 181.62 317.718L180.765 316.92C181.006 316.426 181.316 316.014 181.696 315.685C182.076 315.343 182.526 315.09 183.045 314.925C183.577 314.748 184.16 314.659 184.793 314.659C185.654 314.659 186.427 314.83 187.111 315.172C187.795 315.514 188.34 315.995 188.745 316.616C189.163 317.237 189.372 317.965 189.372 318.801C189.372 319.7 189.144 320.486 188.688 321.157C188.245 321.816 187.643 322.329 186.883 322.696C186.136 323.051 185.287 323.228 184.337 323.228ZM184.166 320.929C184.597 320.929 184.977 320.853 185.306 320.701C185.648 320.536 185.914 320.302 186.104 319.998C186.294 319.694 186.389 319.346 186.389 318.953C186.389 318.345 186.18 317.864 185.762 317.509C185.357 317.142 184.812 316.958 184.128 316.958C183.672 316.958 183.273 317.047 182.931 317.224C182.589 317.389 182.317 317.623 182.114 317.927C181.924 318.218 181.829 318.56 181.829 318.953C181.829 319.333 181.924 319.675 182.114 319.979C182.304 320.27 182.57 320.505 182.912 320.682C183.254 320.847 183.672 320.929 184.166 320.929ZM196.188 323.228C195.098 323.228 194.123 322.962 193.262 322.43C192.4 321.885 191.723 321.1 191.229 320.074C190.735 319.048 190.488 317.807 190.488 316.35C190.488 314.893 190.735 313.652 191.229 312.626C191.723 311.6 192.4 310.821 193.262 310.289C194.123 309.744 195.098 309.472 196.188 309.472C197.29 309.472 198.265 309.744 199.114 310.289C199.975 310.821 200.653 311.6 201.147 312.626C201.641 313.652 201.888 314.893 201.888 316.35C201.888 317.807 201.641 319.048 201.147 320.074C200.653 321.1 199.975 321.885 199.114 322.43C198.265 322.962 197.29 323.228 196.188 323.228ZM196.188 320.625C196.707 320.625 197.157 320.479 197.537 320.188C197.929 319.897 198.233 319.434 198.449 318.801C198.677 318.168 198.791 317.351 198.791 316.35C198.791 315.349 198.677 314.532 198.449 313.899C198.233 313.266 197.929 312.803 197.537 312.512C197.157 312.221 196.707 312.075 196.188 312.075C195.681 312.075 195.231 312.221 194.839 312.512C194.459 312.803 194.155 313.266 193.927 313.899C193.711 314.532 193.604 315.349 193.604 316.35C193.604 317.351 193.711 318.168 193.927 318.801C194.155 319.434 194.459 319.897 194.839 320.188C195.231 320.479 195.681 320.625 196.188 320.625ZM209.083 323.228C207.994 323.228 207.018 322.962 206.157 322.43C205.296 321.885 204.618 321.1 204.124 320.074C203.63 319.048 203.383 317.807 203.383 316.35C203.383 314.893 203.63 313.652 204.124 312.626C204.618 311.6 205.296 310.821 206.157 310.289C207.018 309.744 207.994 309.472 209.083 309.472C210.185 309.472 211.16 309.744 212.009 310.289C212.87 310.821 213.548 311.6 214.042 312.626C214.536 313.652 214.783 314.893 214.783 316.35C214.783 317.807 214.536 319.048 214.042 320.074C213.548 321.1 212.87 321.885 212.009 322.43C211.16 322.962 210.185 323.228 209.083 323.228ZM209.083 320.625C209.602 320.625 210.052 320.479 210.432 320.188C210.825 319.897 211.129 319.434 211.344 318.801C211.572 318.168 211.686 317.351 211.686 316.35C211.686 315.349 211.572 314.532 211.344 313.899C211.129 313.266 210.825 312.803 210.432 312.512C210.052 312.221 209.602 312.075 209.083 312.075C208.576 312.075 208.127 312.221 207.734 312.512C207.354 312.803 207.05 313.266 206.822 313.899C206.607 314.532 206.499 315.349 206.499 316.35C206.499 317.351 206.607 318.168 206.822 318.801C207.05 319.434 207.354 319.897 207.734 320.188C208.127 320.479 208.576 320.625 209.083 320.625Z" fill="white"/>
</svg>
