<svg width="300" height="600" viewBox="0 0 300 600" fill="none" xmlns="http://www.w3.org/2000/svg">
<rect width="300" height="600" fill="#20AAA4"/>
<path d="M111.161 291L117.089 277.7H120.129L126.076 291H122.846L117.982 279.258H119.198L114.315 291H111.161ZM114.125 288.15L114.942 285.813H121.782L122.618 288.15H114.125ZM131.543 291.152C130.58 291.152 129.713 290.937 128.94 290.506C128.167 290.063 127.553 289.448 127.097 288.663C126.654 287.878 126.432 286.953 126.432 285.889C126.432 284.812 126.654 283.881 127.097 283.096C127.553 282.311 128.167 281.703 128.94 281.272C129.713 280.841 130.58 280.626 131.543 280.626C132.404 280.626 133.158 280.816 133.804 281.196C134.45 281.576 134.95 282.152 135.305 282.925C135.66 283.698 135.837 284.686 135.837 285.889C135.837 287.08 135.666 288.068 135.324 288.853C134.982 289.626 134.488 290.202 133.842 290.582C133.209 290.962 132.442 291.152 131.543 291.152ZM132.056 288.72C132.537 288.72 132.974 288.606 133.367 288.378C133.76 288.15 134.07 287.827 134.298 287.409C134.539 286.978 134.659 286.472 134.659 285.889C134.659 285.294 134.539 284.787 134.298 284.369C134.07 283.951 133.76 283.628 133.367 283.4C132.974 283.172 132.537 283.058 132.056 283.058C131.562 283.058 131.119 283.172 130.726 283.4C130.333 283.628 130.017 283.951 129.776 284.369C129.548 284.787 129.434 285.294 129.434 285.889C129.434 286.472 129.548 286.978 129.776 287.409C130.017 287.827 130.333 288.15 130.726 288.378C131.119 288.606 131.562 288.72 132.056 288.72ZM134.735 291V288.91L134.792 285.87L134.602 282.849V276.902H137.566V291H134.735ZM146.051 291V280.55C146.051 279.397 146.393 278.479 147.077 277.795C147.761 277.098 148.737 276.75 150.003 276.75C150.434 276.75 150.846 276.794 151.238 276.883C151.644 276.972 151.986 277.111 152.264 277.301L151.485 279.448C151.321 279.334 151.137 279.245 150.934 279.182C150.732 279.119 150.516 279.087 150.288 279.087C149.858 279.087 149.522 279.214 149.281 279.467C149.053 279.708 148.939 280.075 148.939 280.569V281.519L149.015 282.792V291H146.051ZM144.474 283.286V281.006H151.561V283.286H144.474ZM157.981 291.152C156.816 291.152 155.79 290.924 154.903 290.468C154.029 290.012 153.351 289.391 152.87 288.606C152.389 287.808 152.148 286.902 152.148 285.889C152.148 284.863 152.382 283.957 152.851 283.172C153.332 282.374 153.985 281.753 154.808 281.31C155.631 280.854 156.562 280.626 157.601 280.626C158.602 280.626 159.501 280.841 160.299 281.272C161.11 281.69 161.749 282.298 162.218 283.096C162.687 283.881 162.921 284.825 162.921 285.927C162.921 286.041 162.915 286.174 162.902 286.326C162.889 286.465 162.877 286.598 162.864 286.725H154.561V284.996H161.306L160.166 285.509C160.166 284.977 160.058 284.515 159.843 284.122C159.628 283.729 159.33 283.425 158.95 283.21C158.57 282.982 158.127 282.868 157.62 282.868C157.113 282.868 156.664 282.982 156.271 283.21C155.891 283.425 155.593 283.736 155.378 284.141C155.163 284.534 155.055 285.002 155.055 285.547V286.003C155.055 286.56 155.175 287.054 155.416 287.485C155.669 287.903 156.018 288.226 156.461 288.454C156.917 288.669 157.449 288.777 158.057 288.777C158.602 288.777 159.077 288.695 159.482 288.53C159.9 288.365 160.28 288.118 160.622 287.789L162.199 289.499C161.73 290.031 161.141 290.443 160.432 290.734C159.723 291.013 158.906 291.152 157.981 291.152ZM169.967 291.152C168.802 291.152 167.776 290.924 166.889 290.468C166.015 290.012 165.338 289.391 164.856 288.606C164.375 287.808 164.134 286.902 164.134 285.889C164.134 284.863 164.369 283.957 164.837 283.172C165.319 282.374 165.971 281.753 166.794 281.31C167.618 280.854 168.549 280.626 169.587 280.626C170.588 280.626 171.487 280.841 172.285 281.272C173.096 281.69 173.736 282.298 174.204 283.096C174.673 283.881 174.907 284.825 174.907 285.927C174.907 286.041 174.901 286.174 174.888 286.326C174.876 286.465 174.863 286.598 174.85 286.725H166.547V284.996H173.292L172.152 285.509C172.152 284.977 172.045 284.515 171.829 284.122C171.614 283.729 171.316 283.425 170.936 283.21C170.556 282.982 170.113 282.868 169.606 282.868C169.1 282.868 168.65 282.982 168.257 283.21C167.877 283.425 167.58 283.736 167.364 284.141C167.149 284.534 167.041 285.002 167.041 285.547V286.003C167.041 286.56 167.162 287.054 167.402 287.485C167.656 287.903 168.004 288.226 168.447 288.454C168.903 288.669 169.435 288.777 170.043 288.777C170.588 288.777 171.063 288.695 171.468 288.53C171.886 288.365 172.266 288.118 172.608 287.789L174.185 289.499C173.717 290.031 173.128 290.443 172.418 290.734C171.709 291.013 170.892 291.152 169.967 291.152ZM181.27 291.152C180.307 291.152 179.439 290.937 178.667 290.506C177.894 290.063 177.28 289.448 176.824 288.663C176.38 287.878 176.159 286.953 176.159 285.889C176.159 284.812 176.38 283.881 176.824 283.096C177.28 282.311 177.894 281.703 178.667 281.272C179.439 280.841 180.307 280.626 181.27 280.626C182.131 280.626 182.885 280.816 183.531 281.196C184.177 281.576 184.677 282.152 185.032 282.925C185.386 283.698 185.564 284.686 185.564 285.889C185.564 287.08 185.393 288.068 185.051 288.853C184.709 289.626 184.215 290.202 183.569 290.582C182.935 290.962 182.169 291.152 181.27 291.152ZM181.783 288.72C182.264 288.72 182.701 288.606 183.094 288.378C183.486 288.15 183.797 287.827 184.025 287.409C184.265 286.978 184.386 286.472 184.386 285.889C184.386 285.294 184.265 284.787 184.025 284.369C183.797 283.951 183.486 283.628 183.094 283.4C182.701 283.172 182.264 283.058 181.783 283.058C181.289 283.058 180.845 283.172 180.453 283.4C180.06 283.628 179.743 283.951 179.503 284.369C179.275 284.787 179.161 285.294 179.161 285.889C179.161 286.472 179.275 286.978 179.503 287.409C179.743 287.827 180.06 288.15 180.453 288.378C180.845 288.606 181.289 288.72 181.783 288.72ZM184.462 291V288.91L184.519 285.87L184.329 282.849V276.902H187.293V291H184.462ZM97.386 323.228C96.4614 323.228 95.543 323.108 94.631 322.867C93.719 322.614 92.9464 322.259 92.313 321.803L93.51 319.447C94.0167 319.814 94.6057 320.106 95.277 320.321C95.9484 320.536 96.626 320.644 97.31 320.644C98.0827 320.644 98.6907 320.492 99.134 320.188C99.5774 319.884 99.799 319.466 99.799 318.934C99.799 318.427 99.6027 318.028 99.21 317.737C98.8174 317.446 98.184 317.3 97.31 317.3H95.904V315.267L99.609 311.068L99.951 312.17H92.978V309.7H102.288V311.695L98.602 315.894L97.044 315.001H97.937C99.571 315.001 100.806 315.368 101.642 316.103C102.478 316.838 102.896 317.781 102.896 318.934C102.896 319.681 102.7 320.384 102.307 321.043C101.914 321.689 101.313 322.215 100.502 322.62C99.6914 323.025 98.6527 323.228 97.386 323.228ZM110.017 323.228C108.928 323.228 107.953 322.962 107.091 322.43C106.23 321.885 105.552 321.1 105.058 320.074C104.564 319.048 104.317 317.807 104.317 316.35C104.317 314.893 104.564 313.652 105.058 312.626C105.552 311.6 106.23 310.821 107.091 310.289C107.953 309.744 108.928 309.472 110.017 309.472C111.119 309.472 112.095 309.744 112.943 310.289C113.805 310.821 114.482 311.6 114.976 312.626C115.47 313.652 115.717 314.893 115.717 316.35C115.717 317.807 115.47 319.048 114.976 320.074C114.482 321.1 113.805 321.885 112.943 322.43C112.095 322.962 111.119 323.228 110.017 323.228ZM110.017 320.625C110.537 320.625 110.986 320.479 111.366 320.188C111.759 319.897 112.063 319.434 112.278 318.801C112.506 318.168 112.62 317.351 112.62 316.35C112.62 315.349 112.506 314.532 112.278 313.899C112.063 313.266 111.759 312.803 111.366 312.512C110.986 312.221 110.537 312.075 110.017 312.075C109.511 312.075 109.061 312.221 108.668 312.512C108.288 312.803 107.984 313.266 107.756 313.899C107.541 314.532 107.433 315.349 107.433 316.35C107.433 317.351 107.541 318.168 107.756 318.801C107.984 319.434 108.288 319.897 108.668 320.188C109.061 320.479 109.511 320.625 110.017 320.625ZM122.913 323.228C121.823 323.228 120.848 322.962 119.987 322.43C119.125 321.885 118.448 321.1 117.954 320.074C117.46 319.048 117.213 317.807 117.213 316.35C117.213 314.893 117.46 313.652 117.954 312.626C118.448 311.6 119.125 310.821 119.987 310.289C120.848 309.744 121.823 309.472 122.913 309.472C124.015 309.472 124.99 309.744 125.839 310.289C126.7 310.821 127.378 311.6 127.872 312.626C128.366 313.652 128.613 314.893 128.613 316.35C128.613 317.807 128.366 319.048 127.872 320.074C127.378 321.1 126.7 321.885 125.839 322.43C124.99 322.962 124.015 323.228 122.913 323.228ZM122.913 320.625C123.432 320.625 123.882 320.479 124.262 320.188C124.654 319.897 124.958 319.434 125.174 318.801C125.402 318.168 125.516 317.351 125.516 316.35C125.516 315.349 125.402 314.532 125.174 313.899C124.958 313.266 124.654 312.803 124.262 312.512C123.882 312.221 123.432 312.075 122.913 312.075C122.406 312.075 121.956 312.221 121.564 312.512C121.184 312.803 120.88 313.266 120.652 313.899C120.436 314.532 120.329 315.349 120.329 316.35C120.329 317.351 120.436 318.168 120.652 318.801C120.88 319.434 121.184 319.897 121.564 320.188C121.956 320.479 122.406 320.625 122.913 320.625ZM129.258 323L133.837 316.996L133.78 318.63L129.391 312.778H132.716L135.49 316.597L134.236 316.635L137.105 312.778H140.259L135.851 318.573V316.977L140.411 323H137.048L134.141 318.934L135.376 319.105L132.488 323H129.258ZM146.984 323.228C145.768 323.228 144.71 322.975 143.811 322.468C142.924 321.961 142.24 321.22 141.759 320.245C141.278 319.27 141.037 318.066 141.037 316.635C141.037 315.102 141.322 313.804 141.892 312.74C142.475 311.676 143.273 310.865 144.286 310.308C145.312 309.751 146.49 309.472 147.82 309.472C148.529 309.472 149.207 309.548 149.853 309.7C150.499 309.852 151.056 310.08 151.525 310.384L150.385 312.645C150.018 312.392 149.625 312.221 149.207 312.132C148.789 312.031 148.352 311.98 147.896 311.98C146.743 311.98 145.831 312.328 145.16 313.025C144.489 313.722 144.153 314.754 144.153 316.122C144.153 316.35 144.153 316.603 144.153 316.882C144.166 317.161 144.204 317.439 144.267 317.718L143.412 316.92C143.653 316.426 143.963 316.014 144.343 315.685C144.723 315.343 145.173 315.09 145.692 314.925C146.224 314.748 146.807 314.659 147.44 314.659C148.301 314.659 149.074 314.83 149.758 315.172C150.442 315.514 150.987 315.995 151.392 316.616C151.81 317.237 152.019 317.965 152.019 318.801C152.019 319.7 151.791 320.486 151.335 321.157C150.892 321.816 150.29 322.329 149.53 322.696C148.783 323.051 147.934 323.228 146.984 323.228ZM146.813 320.929C147.244 320.929 147.624 320.853 147.953 320.701C148.295 320.536 148.561 320.302 148.751 319.998C148.941 319.694 149.036 319.346 149.036 318.953C149.036 318.345 148.827 317.864 148.409 317.509C148.004 317.142 147.459 316.958 146.775 316.958C146.319 316.958 145.92 317.047 145.578 317.224C145.236 317.389 144.964 317.623 144.761 317.927C144.571 318.218 144.476 318.56 144.476 318.953C144.476 319.333 144.571 319.675 144.761 319.979C144.951 320.27 145.217 320.505 145.559 320.682C145.901 320.847 146.319 320.929 146.813 320.929ZM158.835 323.228C157.745 323.228 156.77 322.962 155.909 322.43C155.047 321.885 154.37 321.1 153.876 320.074C153.382 319.048 153.135 317.807 153.135 316.35C153.135 314.893 153.382 313.652 153.876 312.626C154.37 311.6 155.047 310.821 155.909 310.289C156.77 309.744 157.745 309.472 158.835 309.472C159.937 309.472 160.912 309.744 161.761 310.289C162.622 310.821 163.3 311.6 163.794 312.626C164.288 313.652 164.535 314.893 164.535 316.35C164.535 317.807 164.288 319.048 163.794 320.074C163.3 321.1 162.622 321.885 161.761 322.43C160.912 322.962 159.937 323.228 158.835 323.228ZM158.835 320.625C159.354 320.625 159.804 320.479 160.184 320.188C160.576 319.897 160.88 319.434 161.096 318.801C161.324 318.168 161.438 317.351 161.438 316.35C161.438 315.349 161.324 314.532 161.096 313.899C160.88 313.266 160.576 312.803 160.184 312.512C159.804 312.221 159.354 312.075 158.835 312.075C158.328 312.075 157.878 312.221 157.486 312.512C157.106 312.803 156.802 313.266 156.574 313.899C156.358 314.532 156.251 315.349 156.251 316.35C156.251 317.351 156.358 318.168 156.574 318.801C156.802 319.434 157.106 319.897 157.486 320.188C157.878 320.479 158.328 320.625 158.835 320.625ZM171.73 323.228C170.641 323.228 169.665 322.962 168.804 322.43C167.943 321.885 167.265 321.1 166.771 320.074C166.277 319.048 166.03 317.807 166.03 316.35C166.03 314.893 166.277 313.652 166.771 312.626C167.265 311.6 167.943 310.821 168.804 310.289C169.665 309.744 170.641 309.472 171.73 309.472C172.832 309.472 173.807 309.744 174.656 310.289C175.517 310.821 176.195 311.6 176.689 312.626C177.183 313.652 177.43 314.893 177.43 316.35C177.43 317.807 177.183 319.048 176.689 320.074C176.195 321.1 175.517 321.885 174.656 322.43C173.807 322.962 172.832 323.228 171.73 323.228ZM171.73 320.625C172.249 320.625 172.699 320.479 173.079 320.188C173.472 319.897 173.776 319.434 173.991 318.801C174.219 318.168 174.333 317.351 174.333 316.35C174.333 315.349 174.219 314.532 173.991 313.899C173.776 313.266 173.472 312.803 173.079 312.512C172.699 312.221 172.249 312.075 171.73 312.075C171.223 312.075 170.774 312.221 170.381 312.512C170.001 312.803 169.697 313.266 169.469 313.899C169.254 314.532 169.146 315.349 169.146 316.35C169.146 317.351 169.254 318.168 169.469 318.801C169.697 319.434 170.001 319.897 170.381 320.188C170.774 320.479 171.223 320.625 171.73 320.625ZM190.975 323.152C190.114 323.152 189.36 322.962 188.714 322.582C188.068 322.202 187.562 321.626 187.194 320.853C186.84 320.068 186.662 319.08 186.662 317.889C186.662 316.686 186.833 315.698 187.175 314.925C187.517 314.152 188.011 313.576 188.657 313.196C189.303 312.816 190.076 312.626 190.975 312.626C191.938 312.626 192.799 312.848 193.559 313.291C194.332 313.722 194.94 314.33 195.383 315.115C195.839 315.9 196.067 316.825 196.067 317.889C196.067 318.966 195.839 319.897 195.383 320.682C194.94 321.467 194.332 322.075 193.559 322.506C192.799 322.937 191.938 323.152 190.975 323.152ZM184.933 326.686V312.778H187.764V314.868L187.707 317.908L187.897 320.929V326.686H184.933ZM190.462 320.72C190.956 320.72 191.393 320.606 191.773 320.378C192.166 320.15 192.476 319.827 192.704 319.409C192.945 318.978 193.065 318.472 193.065 317.889C193.065 317.294 192.945 316.787 192.704 316.369C192.476 315.951 192.166 315.628 191.773 315.4C191.393 315.172 190.956 315.058 190.462 315.058C189.968 315.058 189.525 315.172 189.132 315.4C188.74 315.628 188.429 315.951 188.201 316.369C187.973 316.787 187.859 317.294 187.859 317.889C187.859 318.472 187.973 318.978 188.201 319.409C188.429 319.827 188.74 320.15 189.132 320.378C189.525 320.606 189.968 320.72 190.462 320.72ZM196.444 323L201.023 316.996L200.966 318.63L196.577 312.778H199.902L202.676 316.597L201.422 316.635L204.291 312.778H207.445L203.037 318.573V316.977L207.597 323H204.234L201.327 318.934L202.562 319.105L199.674 323H196.444Z" fill="white"/>
</svg>
