<svg width="220" height="200" viewBox="0 0 220 200" fill="none" xmlns="http://www.w3.org/2000/svg">
<rect width="220" height="200" fill="#F86F03"/>
<path d="M72.6856 93L77.7256 81.8H79.7736L84.8296 93H82.6536L78.3176 82.904H79.1496L74.8296 93H72.6856ZM75.0056 90.408L75.5656 88.776H81.6136L82.1736 90.408H75.0056ZM86.254 93V81.8H91.15C92.366 81.8 93.4327 82.0347 94.35 82.504C95.2673 82.9733 95.982 83.624 96.494 84.456C97.006 85.288 97.262 86.2693 97.262 87.4C97.262 88.52 97.006 89.5013 96.494 90.344C95.982 91.176 95.2673 91.8267 94.35 92.296C93.4327 92.7653 92.366 93 91.15 93H86.254ZM88.334 91.24H91.054C91.8967 91.24 92.622 91.08 93.23 90.76C93.8487 90.44 94.3233 89.992 94.654 89.416C94.9953 88.84 95.166 88.168 95.166 87.4C95.166 86.6213 94.9953 85.9493 94.654 85.384C94.3233 84.808 93.8487 84.36 93.23 84.04C92.622 83.72 91.8967 83.56 91.054 83.56H88.334V91.24ZM105.799 86.952H111.383V88.712H105.799V86.952ZM105.975 93H103.895V81.8H112.071V83.544H105.975V93ZM116.002 86.456H121.57V88.168H116.002V86.456ZM116.162 91.256H122.482V93H114.082V81.8H122.258V83.544H116.162V91.256ZM126.721 86.456H132.289V88.168H126.721V86.456ZM126.881 91.256H133.201V93H124.801V81.8H132.977V83.544H126.881V91.256ZM135.52 93V81.8H140.416C141.632 81.8 142.698 82.0347 143.616 82.504C144.533 82.9733 145.248 83.624 145.76 84.456C146.272 85.288 146.528 86.2693 146.528 87.4C146.528 88.52 146.272 89.5013 145.76 90.344C145.248 91.176 144.533 91.8267 143.616 92.296C142.698 92.7653 141.632 93 140.416 93H135.52ZM137.6 91.24H140.32C141.162 91.24 141.888 91.08 142.496 90.76C143.114 90.44 143.589 89.992 143.92 89.416C144.261 88.84 144.432 88.168 144.432 87.4C144.432 86.6213 144.261 85.9493 143.92 85.384C143.589 84.808 143.114 84.36 142.496 84.04C141.888 83.72 141.162 83.56 140.32 83.56H137.6V91.24ZM65.9819 119V117.608L70.4299 113.384C70.8032 113.032 71.0805 112.723 71.2619 112.456C71.4432 112.189 71.5605 111.944 71.6139 111.72C71.6779 111.485 71.7099 111.267 71.7099 111.064C71.7099 110.552 71.5339 110.157 71.1819 109.88C70.8299 109.592 70.3125 109.448 69.6299 109.448C69.0859 109.448 68.5899 109.544 68.1419 109.736C67.7045 109.928 67.3259 110.221 67.0059 110.616L65.5499 109.496C65.9872 108.909 66.5739 108.456 67.3099 108.136C68.0565 107.805 68.8885 107.64 69.8059 107.64C70.6165 107.64 71.3205 107.773 71.9179 108.04C72.5259 108.296 72.9899 108.664 73.3099 109.144C73.6405 109.624 73.8059 110.195 73.8059 110.856C73.8059 111.219 73.7579 111.581 73.6619 111.944C73.5659 112.296 73.3845 112.669 73.1179 113.064C72.8512 113.459 72.4619 113.901 71.9499 114.392L68.1259 118.024L67.6939 117.24H74.2379V119H65.9819ZM75.2944 119V117.608L79.7424 113.384C80.1157 113.032 80.393 112.723 80.5744 112.456C80.7557 112.189 80.873 111.944 80.9264 111.72C80.9904 111.485 81.0224 111.267 81.0224 111.064C81.0224 110.552 80.8464 110.157 80.4944 109.88C80.1424 109.592 79.625 109.448 78.9424 109.448C78.3984 109.448 77.9024 109.544 77.4544 109.736C77.017 109.928 76.6384 110.221 76.3184 110.616L74.8624 109.496C75.2997 108.909 75.8864 108.456 76.6224 108.136C77.369 107.805 78.201 107.64 79.1184 107.64C79.929 107.64 80.633 107.773 81.2304 108.04C81.8384 108.296 82.3024 108.664 82.6224 109.144C82.953 109.624 83.1184 110.195 83.1184 110.856C83.1184 111.219 83.0704 111.581 82.9744 111.944C82.8784 112.296 82.697 112.669 82.4304 113.064C82.1637 113.459 81.7744 113.901 81.2624 114.392L77.4384 118.024L77.0064 117.24H83.5504V119H75.2944ZM89.4229 119.16C88.5375 119.16 87.7375 118.936 87.0229 118.488C86.3189 118.04 85.7642 117.389 85.3589 116.536C84.9535 115.672 84.7509 114.627 84.7509 113.4C84.7509 112.173 84.9535 111.133 85.3589 110.28C85.7642 109.416 86.3189 108.76 87.0229 108.312C87.7375 107.864 88.5375 107.64 89.4229 107.64C90.3189 107.64 91.1189 107.864 91.8229 108.312C92.5269 108.76 93.0815 109.416 93.4869 110.28C93.9029 111.133 94.1109 112.173 94.1109 113.4C94.1109 114.627 93.9029 115.672 93.4869 116.536C93.0815 117.389 92.5269 118.04 91.8229 118.488C91.1189 118.936 90.3189 119.16 89.4229 119.16ZM89.4229 117.352C89.9455 117.352 90.3989 117.213 90.7829 116.936C91.1669 116.648 91.4655 116.211 91.6789 115.624C91.9029 115.037 92.0149 114.296 92.0149 113.4C92.0149 112.493 91.9029 111.752 91.6789 111.176C91.4655 110.589 91.1669 110.157 90.7829 109.88C90.3989 109.592 89.9455 109.448 89.4229 109.448C88.9215 109.448 88.4735 109.592 88.0789 109.88C87.6949 110.157 87.3909 110.589 87.1669 111.176C86.9535 111.752 86.8469 112.493 86.8469 113.4C86.8469 114.296 86.9535 115.037 87.1669 115.624C87.3909 116.211 87.6949 116.648 88.0789 116.936C88.4735 117.213 88.9215 117.352 89.4229 117.352ZM94.8003 119L98.5603 114.104L98.5283 115.176L94.9443 110.456H97.1683L99.6803 113.816H98.8323L101.36 110.456H103.52L99.9043 115.176L99.9203 114.104L103.664 119H101.408L98.7682 115.432L99.6003 115.544L97.0082 119H94.8003ZM104.435 119V117.608L108.883 113.384C109.256 113.032 109.534 112.723 109.715 112.456C109.896 112.189 110.014 111.944 110.067 111.72C110.131 111.485 110.163 111.267 110.163 111.064C110.163 110.552 109.987 110.157 109.635 109.88C109.283 109.592 108.766 109.448 108.083 109.448C107.539 109.448 107.043 109.544 106.595 109.736C106.158 109.928 105.779 110.221 105.459 110.616L104.003 109.496C104.44 108.909 105.027 108.456 105.763 108.136C106.51 107.805 107.342 107.64 108.259 107.64C109.07 107.64 109.774 107.773 110.371 108.04C110.979 108.296 111.443 108.664 111.763 109.144C112.094 109.624 112.259 110.195 112.259 110.856C112.259 111.219 112.211 111.581 112.115 111.944C112.019 112.296 111.838 112.669 111.571 113.064C111.304 113.459 110.915 113.901 110.403 114.392L106.579 118.024L106.147 117.24H112.691V119H104.435ZM118.564 119.16C117.678 119.16 116.878 118.936 116.164 118.488C115.46 118.04 114.905 117.389 114.5 116.536C114.094 115.672 113.892 114.627 113.892 113.4C113.892 112.173 114.094 111.133 114.5 110.28C114.905 109.416 115.46 108.76 116.164 108.312C116.878 107.864 117.678 107.64 118.564 107.64C119.46 107.64 120.26 107.864 120.964 108.312C121.668 108.76 122.222 109.416 122.628 110.28C123.044 111.133 123.252 112.173 123.252 113.4C123.252 114.627 123.044 115.672 122.628 116.536C122.222 117.389 121.668 118.04 120.964 118.488C120.26 118.936 119.46 119.16 118.564 119.16ZM118.564 117.352C119.086 117.352 119.54 117.213 119.924 116.936C120.308 116.648 120.606 116.211 120.82 115.624C121.044 115.037 121.156 114.296 121.156 113.4C121.156 112.493 121.044 111.752 120.82 111.176C120.606 110.589 120.308 110.157 119.924 109.88C119.54 109.592 119.086 109.448 118.564 109.448C118.062 109.448 117.614 109.592 117.22 109.88C116.836 110.157 116.532 110.589 116.308 111.176C116.094 111.752 115.988 112.493 115.988 113.4C115.988 114.296 116.094 115.037 116.308 115.624C116.532 116.211 116.836 116.648 117.22 116.936C117.614 117.213 118.062 117.352 118.564 117.352ZM129.329 119.16C128.444 119.16 127.644 118.936 126.929 118.488C126.225 118.04 125.67 117.389 125.265 116.536C124.86 115.672 124.657 114.627 124.657 113.4C124.657 112.173 124.86 111.133 125.265 110.28C125.67 109.416 126.225 108.76 126.929 108.312C127.644 107.864 128.444 107.64 129.329 107.64C130.225 107.64 131.025 107.864 131.729 108.312C132.433 108.76 132.988 109.416 133.393 110.28C133.809 111.133 134.017 112.173 134.017 113.4C134.017 114.627 133.809 115.672 133.393 116.536C132.988 117.389 132.433 118.04 131.729 118.488C131.025 118.936 130.225 119.16 129.329 119.16ZM129.329 117.352C129.852 117.352 130.305 117.213 130.689 116.936C131.073 116.648 131.372 116.211 131.585 115.624C131.809 115.037 131.921 114.296 131.921 113.4C131.921 112.493 131.809 111.752 131.585 111.176C131.372 110.589 131.073 110.157 130.689 109.88C130.305 109.592 129.852 109.448 129.329 109.448C128.828 109.448 128.38 109.592 127.985 109.88C127.601 110.157 127.297 110.589 127.073 111.176C126.86 111.752 126.753 112.493 126.753 113.4C126.753 114.296 126.86 115.037 127.073 115.624C127.297 116.211 127.601 116.648 127.985 116.936C128.38 117.213 128.828 117.352 129.329 117.352ZM140.767 119.112C140.073 119.112 139.439 118.952 138.863 118.632C138.297 118.312 137.844 117.832 137.503 117.192C137.172 116.541 137.007 115.72 137.007 114.728C137.007 113.725 137.167 112.904 137.487 112.264C137.817 111.624 138.265 111.149 138.831 110.84C139.396 110.52 140.041 110.36 140.767 110.36C141.609 110.36 142.351 110.541 142.991 110.904C143.641 111.267 144.153 111.773 144.527 112.424C144.911 113.075 145.103 113.843 145.103 114.728C145.103 115.613 144.911 116.387 144.527 117.048C144.153 117.699 143.641 118.205 142.991 118.568C142.351 118.931 141.609 119.112 140.767 119.112ZM136.031 122.104V110.456H137.935V112.472L137.871 114.744L138.031 117.016V122.104H136.031ZM140.543 117.4C141.023 117.4 141.449 117.293 141.823 117.08C142.207 116.867 142.511 116.557 142.735 116.152C142.959 115.747 143.071 115.272 143.071 114.728C143.071 114.173 142.959 113.699 142.735 113.304C142.511 112.899 142.207 112.589 141.823 112.376C141.449 112.163 141.023 112.056 140.543 112.056C140.063 112.056 139.631 112.163 139.247 112.376C138.863 112.589 138.559 112.899 138.335 113.304C138.111 113.699 137.999 114.173 137.999 114.728C137.999 115.272 138.111 115.747 138.335 116.152C138.559 116.557 138.863 116.867 139.247 117.08C139.631 117.293 140.063 117.4 140.543 117.4ZM145.55 119L149.31 114.104L149.278 115.176L145.694 110.456H147.918L150.43 113.816H149.582L152.11 110.456H154.27L150.654 115.176L150.67 114.104L154.414 119H152.158L149.518 115.432L150.35 115.544L147.758 119H145.55Z" fill="white"/>
</svg>
