<svg width="328" height="200" viewBox="0 0 328 200" fill="none" xmlns="http://www.w3.org/2000/svg">
<rect width="328" height="200" fill="#F86F03"/>
<path d="M126.186 90L131.226 78.8H133.274L138.33 90H136.154L131.818 79.904H132.65L128.33 90H126.186ZM128.506 87.408L129.066 85.776H135.114L135.674 87.408H128.506ZM139.754 90V78.8H144.65C145.866 78.8 146.933 79.0347 147.85 79.504C148.767 79.9733 149.482 80.624 149.994 81.456C150.506 82.288 150.762 83.2693 150.762 84.4C150.762 85.52 150.506 86.5013 149.994 87.344C149.482 88.176 148.767 88.8267 147.85 89.296C146.933 89.7653 145.866 90 144.65 90H139.754ZM141.834 88.24H144.554C145.397 88.24 146.122 88.08 146.73 87.76C147.349 87.44 147.823 86.992 148.154 86.416C148.495 85.84 148.666 85.168 148.666 84.4C148.666 83.6213 148.495 82.9493 148.154 82.384C147.823 81.808 147.349 81.36 146.73 81.04C146.122 80.72 145.397 80.56 144.554 80.56H141.834V88.24ZM159.299 83.952H164.883V85.712H159.299V83.952ZM159.475 90H157.395V78.8H165.571V80.544H159.475V90ZM169.502 83.456H175.07V85.168H169.502V83.456ZM169.662 88.256H175.982V90H167.582V78.8H175.758V80.544H169.662V88.256ZM180.221 83.456H185.789V85.168H180.221V83.456ZM180.381 88.256H186.701V90H178.301V78.8H186.477V80.544H180.381V88.256ZM189.02 90V78.8H193.916C195.132 78.8 196.198 79.0347 197.116 79.504C198.033 79.9733 198.748 80.624 199.26 81.456C199.772 82.288 200.028 83.2693 200.028 84.4C200.028 85.52 199.772 86.5013 199.26 87.344C198.748 88.176 198.033 88.8267 197.116 89.296C196.198 89.7653 195.132 90 193.916 90H189.02ZM191.1 88.24H193.82C194.662 88.24 195.388 88.08 195.996 87.76C196.614 87.44 197.089 86.992 197.42 86.416C197.761 85.84 197.932 85.168 197.932 84.4C197.932 83.6213 197.761 82.9493 197.42 82.384C197.089 81.808 196.614 81.36 195.996 81.04C195.388 80.72 194.662 80.56 193.82 80.56H191.1V88.24ZM123.333 122.16C122.544 122.16 121.771 122.048 121.013 121.824C120.267 121.589 119.637 121.269 119.125 120.864L120.021 119.248C120.427 119.579 120.917 119.845 121.493 120.048C122.069 120.251 122.672 120.352 123.301 120.352C124.048 120.352 124.629 120.203 125.045 119.904C125.461 119.595 125.669 119.179 125.669 118.656C125.669 118.144 125.477 117.739 125.093 117.44C124.709 117.141 124.091 116.992 123.237 116.992H122.213V115.568L125.413 111.76L125.685 112.544H119.669V110.8H127.301V112.192L124.101 116L123.013 115.36H123.637C125.013 115.36 126.043 115.669 126.725 116.288C127.419 116.896 127.765 117.68 127.765 118.64C127.765 119.269 127.605 119.851 127.285 120.384C126.965 120.917 126.475 121.349 125.813 121.68C125.163 122 124.336 122.16 123.333 122.16ZM128.904 122V120.608L133.352 116.384C133.725 116.032 134.002 115.723 134.184 115.456C134.365 115.189 134.482 114.944 134.536 114.72C134.6 114.485 134.632 114.267 134.632 114.064C134.632 113.552 134.456 113.157 134.104 112.88C133.752 112.592 133.234 112.448 132.552 112.448C132.008 112.448 131.512 112.544 131.064 112.736C130.626 112.928 130.248 113.221 129.928 113.616L128.472 112.496C128.909 111.909 129.496 111.456 130.232 111.136C130.978 110.805 131.81 110.64 132.728 110.64C133.538 110.64 134.242 110.773 134.84 111.04C135.448 111.296 135.912 111.664 136.232 112.144C136.562 112.624 136.728 113.195 136.728 113.856C136.728 114.219 136.68 114.581 136.584 114.944C136.488 115.296 136.306 115.669 136.04 116.064C135.773 116.459 135.384 116.901 134.872 117.392L131.048 121.024L130.616 120.24H137.16V122H128.904ZM142.856 122.16C141.928 122.16 141.123 122.021 140.44 121.744C139.758 121.467 139.23 121.077 138.856 120.576C138.483 120.064 138.296 119.467 138.296 118.784C138.296 118.101 138.478 117.525 138.84 117.056C139.203 116.587 139.726 116.229 140.408 115.984C141.091 115.739 141.907 115.616 142.856 115.616C143.806 115.616 144.622 115.739 145.304 115.984C145.998 116.229 146.526 116.592 146.888 117.072C147.262 117.541 147.448 118.112 147.448 118.784C147.448 119.467 147.256 120.064 146.872 120.576C146.499 121.077 145.966 121.467 145.272 121.744C144.59 122.021 143.784 122.16 142.856 122.16ZM142.856 120.528C143.624 120.528 144.232 120.368 144.68 120.048C145.128 119.728 145.352 119.285 145.352 118.72C145.352 118.165 145.128 117.728 144.68 117.408C144.232 117.088 143.624 116.928 142.856 116.928C142.088 116.928 141.486 117.088 141.048 117.408C140.611 117.728 140.392 118.165 140.392 118.72C140.392 119.285 140.611 119.728 141.048 120.048C141.486 120.368 142.088 120.528 142.856 120.528ZM142.856 116.704C141.992 116.704 141.251 116.592 140.632 116.368C140.014 116.133 139.534 115.797 139.192 115.36C138.862 114.912 138.696 114.379 138.696 113.76C138.696 113.12 138.867 112.571 139.208 112.112C139.56 111.643 140.051 111.28 140.68 111.024C141.31 110.768 142.035 110.64 142.856 110.64C143.688 110.64 144.419 110.768 145.048 111.024C145.678 111.28 146.168 111.643 146.52 112.112C146.872 112.571 147.048 113.12 147.048 113.76C147.048 114.379 146.878 114.912 146.536 115.36C146.206 115.797 145.726 116.133 145.096 116.368C144.467 116.592 143.72 116.704 142.856 116.704ZM142.856 115.424C143.518 115.424 144.04 115.285 144.424 115.008C144.808 114.72 145 114.336 145 113.856C145 113.355 144.803 112.965 144.408 112.688C144.014 112.411 143.496 112.272 142.856 112.272C142.216 112.272 141.704 112.411 141.32 112.688C140.936 112.965 140.744 113.355 140.744 113.856C140.744 114.336 140.931 114.72 141.304 115.008C141.688 115.285 142.206 115.424 142.856 115.424ZM148.113 122L151.873 117.104L151.841 118.176L148.257 113.456H150.481L152.993 116.816H152.145L154.673 113.456H156.833L153.217 118.176L153.233 117.104L156.977 122H154.721L152.081 118.432L152.913 118.544L150.321 122H148.113ZM157.748 122V120.608L162.196 116.384C162.569 116.032 162.846 115.723 163.028 115.456C163.209 115.189 163.326 114.944 163.38 114.72C163.444 114.485 163.476 114.267 163.476 114.064C163.476 113.552 163.3 113.157 162.948 112.88C162.596 112.592 162.078 112.448 161.396 112.448C160.852 112.448 160.356 112.544 159.908 112.736C159.47 112.928 159.092 113.221 158.772 113.616L157.316 112.496C157.753 111.909 158.34 111.456 159.076 111.136C159.822 110.805 160.654 110.64 161.572 110.64C162.382 110.64 163.086 110.773 163.684 111.04C164.292 111.296 164.756 111.664 165.076 112.144C165.406 112.624 165.572 113.195 165.572 113.856C165.572 114.219 165.524 114.581 165.428 114.944C165.332 115.296 165.15 115.669 164.884 116.064C164.617 116.459 164.228 116.901 163.716 117.392L159.892 121.024L159.46 120.24H166.003V122H157.748ZM171.876 122.16C170.991 122.16 170.191 121.936 169.476 121.488C168.772 121.04 168.217 120.389 167.812 119.536C167.407 118.672 167.204 117.627 167.204 116.4C167.204 115.173 167.407 114.133 167.812 113.28C168.217 112.416 168.772 111.76 169.476 111.312C170.191 110.864 170.991 110.64 171.876 110.64C172.772 110.64 173.572 110.864 174.276 111.312C174.98 111.76 175.535 112.416 175.94 113.28C176.356 114.133 176.564 115.173 176.564 116.4C176.564 117.627 176.356 118.672 175.94 119.536C175.535 120.389 174.98 121.04 174.276 121.488C173.572 121.936 172.772 122.16 171.876 122.16ZM171.876 120.352C172.399 120.352 172.852 120.213 173.236 119.936C173.62 119.648 173.919 119.211 174.132 118.624C174.356 118.037 174.468 117.296 174.468 116.4C174.468 115.493 174.356 114.752 174.132 114.176C173.919 113.589 173.62 113.157 173.236 112.88C172.852 112.592 172.399 112.448 171.876 112.448C171.375 112.448 170.927 112.592 170.532 112.88C170.148 113.157 169.844 113.589 169.62 114.176C169.407 114.752 169.3 115.493 169.3 116.4C169.3 117.296 169.407 118.037 169.62 118.624C169.844 119.211 170.148 119.648 170.532 119.936C170.927 120.213 171.375 120.352 171.876 120.352ZM182.642 122.16C181.756 122.16 180.956 121.936 180.242 121.488C179.538 121.04 178.983 120.389 178.578 119.536C178.172 118.672 177.97 117.627 177.97 116.4C177.97 115.173 178.172 114.133 178.578 113.28C178.983 112.416 179.538 111.76 180.242 111.312C180.956 110.864 181.756 110.64 182.642 110.64C183.538 110.64 184.338 110.864 185.042 111.312C185.746 111.76 186.3 112.416 186.706 113.28C187.122 114.133 187.33 115.173 187.33 116.4C187.33 117.627 187.122 118.672 186.706 119.536C186.3 120.389 185.746 121.04 185.042 121.488C184.338 121.936 183.538 122.16 182.642 122.16ZM182.642 120.352C183.164 120.352 183.618 120.213 184.002 119.936C184.386 119.648 184.684 119.211 184.898 118.624C185.122 118.037 185.234 117.296 185.234 116.4C185.234 115.493 185.122 114.752 184.898 114.176C184.684 113.589 184.386 113.157 184.002 112.88C183.618 112.592 183.164 112.448 182.642 112.448C182.14 112.448 181.692 112.592 181.298 112.88C180.914 113.157 180.61 113.589 180.386 114.176C180.172 114.752 180.066 115.493 180.066 116.4C180.066 117.296 180.172 118.037 180.386 118.624C180.61 119.211 180.914 119.648 181.298 119.936C181.692 120.213 182.14 120.352 182.642 120.352ZM194.079 122.112C193.386 122.112 192.751 121.952 192.175 121.632C191.61 121.312 191.157 120.832 190.815 120.192C190.485 119.541 190.319 118.72 190.319 117.728C190.319 116.725 190.479 115.904 190.799 115.264C191.13 114.624 191.578 114.149 192.143 113.84C192.709 113.52 193.354 113.36 194.079 113.36C194.922 113.36 195.663 113.541 196.303 113.904C196.954 114.267 197.466 114.773 197.839 115.424C198.223 116.075 198.415 116.843 198.415 117.728C198.415 118.613 198.223 119.387 197.839 120.048C197.466 120.699 196.954 121.205 196.303 121.568C195.663 121.931 194.922 122.112 194.079 122.112ZM189.343 125.104V113.456H191.247V115.472L191.183 117.744L191.343 120.016V125.104H189.343ZM193.855 120.4C194.335 120.4 194.762 120.293 195.135 120.08C195.519 119.867 195.823 119.557 196.047 119.152C196.271 118.747 196.383 118.272 196.383 117.728C196.383 117.173 196.271 116.699 196.047 116.304C195.823 115.899 195.519 115.589 195.135 115.376C194.762 115.163 194.335 115.056 193.855 115.056C193.375 115.056 192.943 115.163 192.559 115.376C192.175 115.589 191.871 115.899 191.647 116.304C191.423 116.699 191.311 117.173 191.311 117.728C191.311 118.272 191.423 118.747 191.647 119.152C191.871 119.557 192.175 119.867 192.559 120.08C192.943 120.293 193.375 120.4 193.855 120.4ZM198.863 122L202.623 117.104L202.591 118.176L199.007 113.456H201.231L203.743 116.816H202.895L205.423 113.456H207.583L203.967 118.176L203.983 117.104L207.727 122H205.471L202.831 118.432L203.663 118.544L201.071 122H198.863Z" fill="white"/>
</svg>
