<svg width="592" height="90" viewBox="0 0 592 90" fill="none" xmlns="http://www.w3.org/2000/svg">
<rect width="592" height="90" fill="#0D0C22"/>
<path d="M257.161 36L263.089 22.7H266.129L272.076 36H268.846L263.982 24.258H265.198L260.315 36H257.161ZM260.125 33.15L260.942 30.813H267.782L268.618 33.15H260.125ZM277.543 36.152C276.58 36.152 275.713 35.9367 274.94 35.506C274.167 35.0627 273.553 34.4483 273.097 33.663C272.654 32.8777 272.432 31.953 272.432 30.889C272.432 29.8123 272.654 28.8813 273.097 28.096C273.553 27.3107 274.167 26.7027 274.94 26.272C275.713 25.8413 276.58 25.626 277.543 25.626C278.404 25.626 279.158 25.816 279.804 26.196C280.45 26.576 280.95 27.1523 281.305 27.925C281.66 28.6977 281.837 29.6857 281.837 30.889C281.837 32.0797 281.666 33.0677 281.324 33.853C280.982 34.6257 280.488 35.202 279.842 35.582C279.209 35.962 278.442 36.152 277.543 36.152ZM278.056 33.72C278.537 33.72 278.974 33.606 279.367 33.378C279.76 33.15 280.07 32.827 280.298 32.409C280.539 31.9783 280.659 31.4717 280.659 30.889C280.659 30.2937 280.539 29.787 280.298 29.369C280.07 28.951 279.76 28.628 279.367 28.4C278.974 28.172 278.537 28.058 278.056 28.058C277.562 28.058 277.119 28.172 276.726 28.4C276.333 28.628 276.017 28.951 275.776 29.369C275.548 29.787 275.434 30.2937 275.434 30.889C275.434 31.4717 275.548 31.9783 275.776 32.409C276.017 32.827 276.333 33.15 276.726 33.378C277.119 33.606 277.562 33.72 278.056 33.72ZM280.735 36V33.91L280.792 30.87L280.602 27.849V21.902H283.566V36H280.735ZM292.051 36V25.55C292.051 24.3973 292.393 23.479 293.077 22.795C293.761 22.0983 294.737 21.75 296.003 21.75C296.434 21.75 296.846 21.7943 297.238 21.883C297.644 21.9717 297.986 22.111 298.264 22.301L297.485 24.448C297.321 24.334 297.137 24.2453 296.934 24.182C296.732 24.1187 296.516 24.087 296.288 24.087C295.858 24.087 295.522 24.2137 295.281 24.467C295.053 24.7077 294.939 25.075 294.939 25.569V26.519L295.015 27.792V36H292.051ZM290.474 28.286V26.006H297.561V28.286H290.474ZM303.981 36.152C302.816 36.152 301.79 35.924 300.903 35.468C300.029 35.012 299.351 34.3913 298.87 33.606C298.389 32.808 298.148 31.9023 298.148 30.889C298.148 29.863 298.382 28.9573 298.851 28.172C299.332 27.374 299.985 26.7533 300.808 26.31C301.631 25.854 302.562 25.626 303.601 25.626C304.602 25.626 305.501 25.8413 306.299 26.272C307.11 26.69 307.749 27.298 308.218 28.096C308.687 28.8813 308.921 29.825 308.921 30.927C308.921 31.041 308.915 31.174 308.902 31.326C308.889 31.4653 308.877 31.5983 308.864 31.725H300.561V29.996H307.306L306.166 30.509C306.166 29.977 306.058 29.5147 305.843 29.122C305.628 28.7293 305.33 28.4253 304.95 28.21C304.57 27.982 304.127 27.868 303.62 27.868C303.113 27.868 302.664 27.982 302.271 28.21C301.891 28.4253 301.593 28.7357 301.378 29.141C301.163 29.5337 301.055 30.0023 301.055 30.547V31.003C301.055 31.5603 301.175 32.0543 301.416 32.485C301.669 32.903 302.018 33.226 302.461 33.454C302.917 33.6693 303.449 33.777 304.057 33.777C304.602 33.777 305.077 33.6947 305.482 33.53C305.9 33.3653 306.28 33.1183 306.622 32.789L308.199 34.499C307.73 35.031 307.141 35.4427 306.432 35.734C305.723 36.0127 304.906 36.152 303.981 36.152ZM315.967 36.152C314.802 36.152 313.776 35.924 312.889 35.468C312.015 35.012 311.338 34.3913 310.856 33.606C310.375 32.808 310.134 31.9023 310.134 30.889C310.134 29.863 310.369 28.9573 310.837 28.172C311.319 27.374 311.971 26.7533 312.794 26.31C313.618 25.854 314.549 25.626 315.587 25.626C316.588 25.626 317.487 25.8413 318.285 26.272C319.096 26.69 319.736 27.298 320.204 28.096C320.673 28.8813 320.907 29.825 320.907 30.927C320.907 31.041 320.901 31.174 320.888 31.326C320.876 31.4653 320.863 31.5983 320.85 31.725H312.547V29.996H319.292L318.152 30.509C318.152 29.977 318.045 29.5147 317.829 29.122C317.614 28.7293 317.316 28.4253 316.936 28.21C316.556 27.982 316.113 27.868 315.606 27.868C315.1 27.868 314.65 27.982 314.257 28.21C313.877 28.4253 313.58 28.7357 313.364 29.141C313.149 29.5337 313.041 30.0023 313.041 30.547V31.003C313.041 31.5603 313.162 32.0543 313.402 32.485C313.656 32.903 314.004 33.226 314.447 33.454C314.903 33.6693 315.435 33.777 316.043 33.777C316.588 33.777 317.063 33.6947 317.468 33.53C317.886 33.3653 318.266 33.1183 318.608 32.789L320.185 34.499C319.717 35.031 319.128 35.4427 318.418 35.734C317.709 36.0127 316.892 36.152 315.967 36.152ZM327.27 36.152C326.307 36.152 325.439 35.9367 324.667 35.506C323.894 35.0627 323.28 34.4483 322.824 33.663C322.38 32.8777 322.159 31.953 322.159 30.889C322.159 29.8123 322.38 28.8813 322.824 28.096C323.28 27.3107 323.894 26.7027 324.667 26.272C325.439 25.8413 326.307 25.626 327.27 25.626C328.131 25.626 328.885 25.816 329.531 26.196C330.177 26.576 330.677 27.1523 331.032 27.925C331.386 28.6977 331.564 29.6857 331.564 30.889C331.564 32.0797 331.393 33.0677 331.051 33.853C330.709 34.6257 330.215 35.202 329.569 35.582C328.935 35.962 328.169 36.152 327.27 36.152ZM327.783 33.72C328.264 33.72 328.701 33.606 329.094 33.378C329.486 33.15 329.797 32.827 330.025 32.409C330.265 31.9783 330.386 31.4717 330.386 30.889C330.386 30.2937 330.265 29.787 330.025 29.369C329.797 28.951 329.486 28.628 329.094 28.4C328.701 28.172 328.264 28.058 327.783 28.058C327.289 28.058 326.845 28.172 326.453 28.4C326.06 28.628 325.743 28.951 325.503 29.369C325.275 29.787 325.161 30.2937 325.161 30.889C325.161 31.4717 325.275 31.9783 325.503 32.409C325.743 32.827 326.06 33.15 326.453 33.378C326.845 33.606 327.289 33.72 327.783 33.72ZM330.462 36V33.91L330.519 30.87L330.329 27.849V21.902H333.293V36H330.462ZM248.382 68.228C247.457 68.228 246.539 68.1077 245.627 67.867C244.728 67.6137 243.955 67.259 243.309 66.803L244.525 64.447C245.032 64.8143 245.614 65.1057 246.273 65.321C246.944 65.5363 247.622 65.644 248.306 65.644C249.079 65.644 249.687 65.492 250.13 65.188C250.573 64.884 250.795 64.4597 250.795 63.915C250.795 63.573 250.706 63.269 250.529 63.003C250.352 62.737 250.035 62.5343 249.579 62.395C249.136 62.2557 248.509 62.186 247.698 62.186H244.297L244.981 54.7H253.094V57.17H246.083L247.679 55.764L247.204 61.103L245.608 59.697H248.42C249.737 59.697 250.795 59.8807 251.593 60.248C252.404 60.6027 252.993 61.0903 253.36 61.711C253.727 62.3317 253.911 63.0347 253.911 63.82C253.911 64.6053 253.715 65.3337 253.322 66.005C252.929 66.6637 252.321 67.202 251.498 67.62C250.687 68.0253 249.649 68.228 248.382 68.228ZM259.834 54.472C261.063 54.472 262.12 54.7253 263.007 55.232C263.894 55.7387 264.578 56.4797 265.059 57.455C265.54 58.4177 265.781 59.621 265.781 61.065C265.781 62.5977 265.49 63.896 264.907 64.96C264.337 66.024 263.545 66.8347 262.532 67.392C261.519 67.9493 260.341 68.228 258.998 68.228C258.301 68.228 257.63 68.152 256.984 68C256.338 67.848 255.781 67.62 255.312 67.316L256.452 65.055C256.819 65.3083 257.212 65.4857 257.63 65.587C258.048 65.6757 258.485 65.72 258.941 65.72C260.081 65.72 260.987 65.3717 261.658 64.675C262.342 63.9783 262.684 62.946 262.684 61.578C262.684 61.35 262.678 61.0967 262.665 60.818C262.652 60.5393 262.621 60.2607 262.57 59.982L263.406 60.78C263.191 61.274 262.887 61.692 262.494 62.034C262.101 62.3633 261.645 62.6167 261.126 62.794C260.607 62.9587 260.024 63.041 259.378 63.041C258.529 63.041 257.757 62.87 257.06 62.528C256.376 62.186 255.825 61.7047 255.407 61.084C255.002 60.4633 254.799 59.735 254.799 58.899C254.799 57.987 255.021 57.2017 255.464 56.543C255.92 55.8843 256.528 55.3777 257.288 55.023C258.061 54.6557 258.909 54.472 259.834 54.472ZM260.024 56.771C259.581 56.771 259.194 56.8533 258.865 57.018C258.536 57.17 258.276 57.398 258.086 57.702C257.896 57.9933 257.801 58.3417 257.801 58.747C257.801 59.355 258.004 59.8427 258.409 60.21C258.827 60.5647 259.378 60.742 260.062 60.742C260.505 60.742 260.898 60.6597 261.24 60.495C261.595 60.3177 261.867 60.077 262.057 59.773C262.247 59.469 262.342 59.127 262.342 58.747C262.342 58.367 262.247 58.0313 262.057 57.74C261.88 57.436 261.62 57.2017 261.278 57.037C260.936 56.8597 260.518 56.771 260.024 56.771ZM267.069 68V66.005L272.199 61.16C272.605 60.7927 272.902 60.4633 273.092 60.172C273.282 59.8807 273.409 59.6147 273.472 59.374C273.548 59.1333 273.586 58.9117 273.586 58.709C273.586 58.177 273.403 57.7717 273.035 57.493C272.681 57.2017 272.155 57.056 271.458 57.056C270.901 57.056 270.382 57.1637 269.9 57.379C269.432 57.5943 269.033 57.93 268.703 58.386L266.461 56.942C266.968 56.182 267.677 55.5803 268.589 55.137C269.501 54.6937 270.553 54.472 271.743 54.472C272.731 54.472 273.593 54.6367 274.327 54.966C275.075 55.2827 275.651 55.7323 276.056 56.315C276.474 56.8977 276.683 57.5943 276.683 58.405C276.683 58.8357 276.626 59.2663 276.512 59.697C276.411 60.115 276.196 60.5583 275.866 61.027C275.55 61.4957 275.081 62.0213 274.46 62.604L270.204 66.613L269.615 65.492H277.12V68H267.069ZM282.05 63.725L288.434 57.303L290.03 58.975L283.646 65.397L282.05 63.725ZM282.05 58.975L283.646 57.303L290.03 63.725L288.434 65.397L282.05 58.975ZM299.819 54.472C301.048 54.472 302.106 54.7253 302.992 55.232C303.879 55.7387 304.563 56.4797 305.044 57.455C305.526 58.4177 305.766 59.621 305.766 61.065C305.766 62.5977 305.475 63.896 304.892 64.96C304.322 66.024 303.531 66.8347 302.517 67.392C301.504 67.9493 300.326 68.228 298.983 68.228C298.287 68.228 297.615 68.152 296.969 68C296.323 67.848 295.766 67.62 295.297 67.316L296.437 65.055C296.805 65.3083 297.197 65.4857 297.615 65.587C298.033 65.6757 298.47 65.72 298.926 65.72C300.066 65.72 300.972 65.3717 301.643 64.675C302.327 63.9783 302.669 62.946 302.669 61.578C302.669 61.35 302.663 61.0967 302.65 60.818C302.638 60.5393 302.606 60.2607 302.555 59.982L303.391 60.78C303.176 61.274 302.872 61.692 302.479 62.034C302.087 62.3633 301.631 62.6167 301.111 62.794C300.592 62.9587 300.009 63.041 299.363 63.041C298.515 63.041 297.742 62.87 297.045 62.528C296.361 62.186 295.81 61.7047 295.392 61.084C294.987 60.4633 294.784 59.735 294.784 58.899C294.784 57.987 295.006 57.2017 295.449 56.543C295.905 55.8843 296.513 55.3777 297.273 55.023C298.046 54.6557 298.895 54.472 299.819 54.472ZM300.009 56.771C299.566 56.771 299.18 56.8533 298.85 57.018C298.521 57.17 298.261 57.398 298.071 57.702C297.881 57.9933 297.786 58.3417 297.786 58.747C297.786 59.355 297.989 59.8427 298.394 60.21C298.812 60.5647 299.363 60.742 300.047 60.742C300.491 60.742 300.883 60.6597 301.225 60.495C301.58 60.3177 301.852 60.077 302.042 59.773C302.232 59.469 302.327 59.127 302.327 58.747C302.327 58.367 302.232 58.0313 302.042 57.74C301.865 57.436 301.605 57.2017 301.263 57.037C300.921 56.8597 300.503 56.771 300.009 56.771ZM312.943 68.228C311.854 68.228 310.878 67.962 310.017 67.43C309.156 66.8853 308.478 66.1 307.984 65.074C307.49 64.048 307.243 62.8067 307.243 61.35C307.243 59.8933 307.49 58.652 307.984 57.626C308.478 56.6 309.156 55.821 310.017 55.289C310.878 54.7443 311.854 54.472 312.943 54.472C314.045 54.472 315.02 54.7443 315.869 55.289C316.73 55.821 317.408 56.6 317.902 57.626C318.396 58.652 318.643 59.8933 318.643 61.35C318.643 62.8067 318.396 64.048 317.902 65.074C317.408 66.1 316.73 66.8853 315.869 67.43C315.02 67.962 314.045 68.228 312.943 68.228ZM312.943 65.625C313.462 65.625 313.912 65.4793 314.292 65.188C314.685 64.8967 314.989 64.4343 315.204 63.801C315.432 63.1677 315.546 62.3507 315.546 61.35C315.546 60.3493 315.432 59.5323 315.204 58.899C314.989 58.2657 314.685 57.8033 314.292 57.512C313.912 57.2207 313.462 57.075 312.943 57.075C312.436 57.075 311.987 57.2207 311.594 57.512C311.214 57.8033 310.91 58.2657 310.682 58.899C310.467 59.5323 310.359 60.3493 310.359 61.35C310.359 62.3507 310.467 63.1677 310.682 63.801C310.91 64.4343 311.214 64.8967 311.594 65.188C311.987 65.4793 312.436 65.625 312.943 65.625ZM332.188 68.152C331.327 68.152 330.573 67.962 329.927 67.582C329.281 67.202 328.775 66.6257 328.407 65.853C328.053 65.0677 327.875 64.0797 327.875 62.889C327.875 61.6857 328.046 60.6977 328.388 59.925C328.73 59.1523 329.224 58.576 329.87 58.196C330.516 57.816 331.289 57.626 332.188 57.626C333.151 57.626 334.012 57.8477 334.772 58.291C335.545 58.7217 336.153 59.3297 336.596 60.115C337.052 60.9003 337.28 61.825 337.28 62.889C337.28 63.9657 337.052 64.8967 336.596 65.682C336.153 66.4673 335.545 67.0753 334.772 67.506C334.012 67.9367 333.151 68.152 332.188 68.152ZM326.146 71.686V57.778H328.977V59.868L328.92 62.908L329.11 65.929V71.686H326.146ZM331.675 65.72C332.169 65.72 332.606 65.606 332.986 65.378C333.379 65.15 333.689 64.827 333.917 64.409C334.158 63.9783 334.278 63.4717 334.278 62.889C334.278 62.2937 334.158 61.787 333.917 61.369C333.689 60.951 333.379 60.628 332.986 60.4C332.606 60.172 332.169 60.058 331.675 60.058C331.181 60.058 330.738 60.172 330.345 60.4C329.953 60.628 329.642 60.951 329.414 61.369C329.186 61.787 329.072 62.2937 329.072 62.889C329.072 63.4717 329.186 63.9783 329.414 64.409C329.642 64.827 329.953 65.15 330.345 65.378C330.738 65.606 331.181 65.72 331.675 65.72ZM337.657 68L342.236 61.996L342.179 63.63L337.79 57.778H341.115L343.889 61.597L342.635 61.635L345.504 57.778H348.658L344.25 63.573V61.977L348.81 68H345.447L342.54 63.934L343.775 64.105L340.887 68H337.657Z" fill="white"/>
</svg>
