<svg width="336" height="228" viewBox="0 0 336 228" fill="none" xmlns="http://www.w3.org/2000/svg">
<rect width="336" height="228" fill="#20AAA4"/>
<path d="M127.117 104L133.357 90H136.557L142.817 104H139.417L134.297 91.64H135.577L130.437 104H127.117ZM130.237 101L131.097 98.54H138.297L139.177 101H130.237ZM148.572 104.16C147.558 104.16 146.645 103.933 145.832 103.48C145.018 103.013 144.372 102.367 143.892 101.54C143.425 100.713 143.192 99.74 143.192 98.62C143.192 97.4867 143.425 96.5067 143.892 95.68C144.372 94.8533 145.018 94.2133 145.832 93.76C146.645 93.3067 147.558 93.08 148.572 93.08C149.478 93.08 150.272 93.28 150.952 93.68C151.632 94.08 152.158 94.6867 152.532 95.5C152.905 96.3133 153.092 97.3533 153.092 98.62C153.092 99.8733 152.912 100.913 152.552 101.74C152.192 102.553 151.672 103.16 150.992 103.56C150.325 103.96 149.518 104.16 148.572 104.16ZM149.112 101.6C149.618 101.6 150.078 101.48 150.492 101.24C150.905 101 151.232 100.66 151.472 100.22C151.725 99.7667 151.852 99.2333 151.852 98.62C151.852 97.9933 151.725 97.46 151.472 97.02C151.232 96.58 150.905 96.24 150.492 96C150.078 95.76 149.618 95.64 149.112 95.64C148.592 95.64 148.125 95.76 147.712 96C147.298 96.24 146.965 96.58 146.712 97.02C146.472 97.46 146.352 97.9933 146.352 98.62C146.352 99.2333 146.472 99.7667 146.712 100.22C146.965 100.66 147.298 101 147.712 101.24C148.125 101.48 148.592 101.6 149.112 101.6ZM151.932 104V101.8L151.992 98.6L151.792 95.42V89.16H154.912V104H151.932ZM163.843 104V93C163.843 91.7867 164.203 90.82 164.923 90.1C165.643 89.3667 166.67 89 168.003 89C168.457 89 168.89 89.0467 169.303 89.14C169.73 89.2333 170.09 89.38 170.383 89.58L169.563 91.84C169.39 91.72 169.197 91.6267 168.983 91.56C168.77 91.4933 168.543 91.46 168.303 91.46C167.85 91.46 167.497 91.5933 167.243 91.86C167.003 92.1133 166.883 92.5 166.883 93.02V94.02L166.963 95.36V104H163.843ZM162.183 95.88V93.48H169.643V95.88H162.183ZM176.401 104.16C175.174 104.16 174.094 103.92 173.161 103.44C172.241 102.96 171.528 102.307 171.021 101.48C170.514 100.64 170.261 99.6867 170.261 98.62C170.261 97.54 170.508 96.5867 171.001 95.76C171.508 94.92 172.194 94.2667 173.061 93.8C173.928 93.32 174.908 93.08 176.001 93.08C177.054 93.08 178.001 93.3067 178.841 93.76C179.694 94.2 180.368 94.84 180.861 95.68C181.354 96.5067 181.601 97.5 181.601 98.66C181.601 98.78 181.594 98.92 181.581 99.08C181.568 99.2267 181.554 99.3667 181.541 99.5H172.801V97.68H179.901L178.701 98.22C178.701 97.66 178.588 97.1733 178.361 96.76C178.134 96.3467 177.821 96.0267 177.421 95.8C177.021 95.56 176.554 95.44 176.021 95.44C175.488 95.44 175.014 95.56 174.601 95.8C174.201 96.0267 173.888 96.3533 173.661 96.78C173.434 97.1933 173.321 97.6867 173.321 98.26V98.74C173.321 99.3267 173.448 99.8467 173.701 100.3C173.968 100.74 174.334 101.08 174.801 101.32C175.281 101.547 175.841 101.66 176.481 101.66C177.054 101.66 177.554 101.573 177.981 101.4C178.421 101.227 178.821 100.967 179.181 100.62L180.841 102.42C180.348 102.98 179.728 103.413 178.981 103.72C178.234 104.013 177.374 104.16 176.401 104.16ZM189.018 104.16C187.792 104.16 186.712 103.92 185.778 103.44C184.858 102.96 184.145 102.307 183.638 101.48C183.132 100.64 182.878 99.6867 182.878 98.62C182.878 97.54 183.125 96.5867 183.618 95.76C184.125 94.92 184.812 94.2667 185.678 93.8C186.545 93.32 187.525 93.08 188.618 93.08C189.672 93.08 190.618 93.3067 191.458 93.76C192.312 94.2 192.985 94.84 193.478 95.68C193.972 96.5067 194.218 97.5 194.218 98.66C194.218 98.78 194.212 98.92 194.198 99.08C194.185 99.2267 194.172 99.3667 194.158 99.5H185.418V97.68H192.518L191.318 98.22C191.318 97.66 191.205 97.1733 190.978 96.76C190.752 96.3467 190.438 96.0267 190.038 95.8C189.638 95.56 189.172 95.44 188.638 95.44C188.105 95.44 187.632 95.56 187.218 95.8C186.818 96.0267 186.505 96.3533 186.278 96.78C186.052 97.1933 185.938 97.6867 185.938 98.26V98.74C185.938 99.3267 186.065 99.8467 186.318 100.3C186.585 100.74 186.952 101.08 187.418 101.32C187.898 101.547 188.458 101.66 189.098 101.66C189.672 101.66 190.172 101.573 190.598 101.4C191.038 101.227 191.438 100.967 191.798 100.62L193.458 102.42C192.965 102.98 192.345 103.413 191.598 103.72C190.852 104.013 189.992 104.16 189.018 104.16ZM200.915 104.16C199.902 104.16 198.989 103.933 198.175 103.48C197.362 103.013 196.715 102.367 196.235 101.54C195.769 100.713 195.535 99.74 195.535 98.62C195.535 97.4867 195.769 96.5067 196.235 95.68C196.715 94.8533 197.362 94.2133 198.175 93.76C198.989 93.3067 199.902 93.08 200.915 93.08C201.822 93.08 202.615 93.28 203.295 93.68C203.975 94.08 204.502 94.6867 204.875 95.5C205.249 96.3133 205.435 97.3533 205.435 98.62C205.435 99.8733 205.255 100.913 204.895 101.74C204.535 102.553 204.015 103.16 203.335 103.56C202.669 103.96 201.862 104.16 200.915 104.16ZM201.455 101.6C201.962 101.6 202.422 101.48 202.835 101.24C203.249 101 203.575 100.66 203.815 100.22C204.069 99.7667 204.195 99.2333 204.195 98.62C204.195 97.9933 204.069 97.46 203.815 97.02C203.575 96.58 203.249 96.24 202.835 96C202.422 95.76 201.962 95.64 201.455 95.64C200.935 95.64 200.469 95.76 200.055 96C199.642 96.24 199.309 96.58 199.055 97.02C198.815 97.46 198.695 97.9933 198.695 98.62C198.695 99.2333 198.815 99.7667 199.055 100.22C199.309 100.66 199.642 101 200.055 101.24C200.469 101.48 200.935 101.6 201.455 101.6ZM204.275 104V101.8L204.335 98.6L204.135 95.42V89.16H207.255V104H204.275ZM109.638 139.24C108.665 139.24 107.698 139.113 106.738 138.86C105.778 138.593 104.965 138.22 104.298 137.74L105.558 135.26C106.092 135.647 106.712 135.953 107.418 136.18C108.125 136.407 108.838 136.52 109.558 136.52C110.372 136.52 111.012 136.36 111.478 136.04C111.945 135.72 112.178 135.28 112.178 134.72C112.178 134.187 111.972 133.767 111.558 133.46C111.145 133.153 110.478 133 109.558 133H108.078V130.86L111.978 126.44L112.338 127.6H104.998V125H114.798V127.1L110.918 131.52L109.278 130.58H110.218C111.938 130.58 113.238 130.967 114.118 131.74C114.998 132.513 115.438 133.507 115.438 134.72C115.438 135.507 115.232 136.247 114.818 136.94C114.405 137.62 113.772 138.173 112.918 138.6C112.065 139.027 110.972 139.24 109.638 139.24ZM121.377 139.24C120.403 139.24 119.437 139.113 118.477 138.86C117.517 138.593 116.703 138.22 116.037 137.74L117.297 135.26C117.83 135.647 118.45 135.953 119.157 136.18C119.863 136.407 120.577 136.52 121.297 136.52C122.11 136.52 122.75 136.36 123.217 136.04C123.683 135.72 123.917 135.28 123.917 134.72C123.917 134.187 123.71 133.767 123.297 133.46C122.883 133.153 122.217 133 121.297 133H119.817V130.86L123.717 126.44L124.077 127.6H116.737V125H126.537V127.1L122.657 131.52L121.017 130.58H121.957C123.677 130.58 124.977 130.967 125.857 131.74C126.737 132.513 127.177 133.507 127.177 134.72C127.177 135.507 126.97 136.247 126.557 136.94C126.143 137.62 125.51 138.173 124.657 138.6C123.803 139.027 122.71 139.24 121.377 139.24ZM134.933 139.24C133.653 139.24 132.539 138.973 131.593 138.44C130.659 137.907 129.939 137.127 129.433 136.1C128.926 135.073 128.673 133.807 128.673 132.3C128.673 130.687 128.973 129.32 129.573 128.2C130.186 127.08 131.026 126.227 132.093 125.64C133.173 125.053 134.413 124.76 135.813 124.76C136.559 124.76 137.273 124.84 137.953 125C138.633 125.16 139.219 125.4 139.713 125.72L138.513 128.1C138.126 127.833 137.713 127.653 137.273 127.56C136.833 127.453 136.373 127.4 135.893 127.4C134.679 127.4 133.719 127.767 133.013 128.5C132.306 129.233 131.953 130.32 131.953 131.76C131.953 132 131.953 132.267 131.953 132.56C131.966 132.853 132.006 133.147 132.073 133.44L131.173 132.6C131.426 132.08 131.753 131.647 132.153 131.3C132.553 130.94 133.026 130.673 133.573 130.5C134.133 130.313 134.746 130.22 135.413 130.22C136.319 130.22 137.133 130.4 137.853 130.76C138.573 131.12 139.146 131.627 139.573 132.28C140.013 132.933 140.233 133.7 140.233 134.58C140.233 135.527 139.993 136.353 139.513 137.06C139.046 137.753 138.413 138.293 137.613 138.68C136.826 139.053 135.933 139.24 134.933 139.24ZM134.753 136.82C135.206 136.82 135.606 136.74 135.953 136.58C136.313 136.407 136.593 136.16 136.793 135.84C136.993 135.52 137.093 135.153 137.093 134.74C137.093 134.1 136.873 133.593 136.433 133.22C136.006 132.833 135.433 132.64 134.713 132.64C134.233 132.64 133.813 132.733 133.453 132.92C133.093 133.093 132.806 133.34 132.593 133.66C132.393 133.967 132.293 134.327 132.293 134.74C132.293 135.14 132.393 135.5 132.593 135.82C132.793 136.127 133.073 136.373 133.433 136.56C133.793 136.733 134.233 136.82 134.753 136.82ZM146.371 139L151.191 132.68L151.131 134.4L146.511 128.24H150.011L152.931 132.26L151.611 132.3L154.631 128.24H157.951L153.311 134.34V132.66L158.111 139H154.571L151.511 134.72L152.811 134.9L149.771 139H146.371ZM164.51 139V136.9L169.91 131.8C170.336 131.413 170.65 131.067 170.85 130.76C171.05 130.453 171.183 130.173 171.25 129.92C171.33 129.667 171.37 129.433 171.37 129.22C171.37 128.66 171.176 128.233 170.79 127.94C170.416 127.633 169.863 127.48 169.13 127.48C168.543 127.48 167.996 127.593 167.49 127.82C166.996 128.047 166.576 128.4 166.23 128.88L163.87 127.36C164.403 126.56 165.15 125.927 166.11 125.46C167.07 124.993 168.176 124.76 169.43 124.76C170.47 124.76 171.376 124.933 172.15 125.28C172.936 125.613 173.543 126.087 173.97 126.7C174.41 127.313 174.63 128.047 174.63 128.9C174.63 129.353 174.57 129.807 174.45 130.26C174.343 130.7 174.116 131.167 173.77 131.66C173.436 132.153 172.943 132.707 172.29 133.32L167.81 137.54L167.19 136.36H175.09V139H164.51ZM176.306 139V136.9L181.706 131.8C182.133 131.413 182.446 131.067 182.646 130.76C182.846 130.453 182.98 130.173 183.046 129.92C183.126 129.667 183.166 129.433 183.166 129.22C183.166 128.66 182.973 128.233 182.586 127.94C182.213 127.633 181.66 127.48 180.926 127.48C180.34 127.48 179.793 127.593 179.286 127.82C178.793 128.047 178.373 128.4 178.026 128.88L175.666 127.36C176.2 126.56 176.946 125.927 177.906 125.46C178.866 124.993 179.973 124.76 181.226 124.76C182.266 124.76 183.173 124.933 183.946 125.28C184.733 125.613 185.34 126.087 185.766 126.7C186.206 127.313 186.426 128.047 186.426 128.9C186.426 129.353 186.366 129.807 186.246 130.26C186.14 130.7 185.913 131.167 185.566 131.66C185.233 132.153 184.74 132.707 184.086 133.32L179.606 137.54L178.986 136.36H186.886V139H176.306ZM194.023 139.24C192.85 139.24 191.823 139.067 190.943 138.72C190.063 138.36 189.377 137.86 188.883 137.22C188.39 136.567 188.143 135.807 188.143 134.94C188.143 134.073 188.383 133.34 188.863 132.74C189.357 132.127 190.043 131.667 190.923 131.36C191.803 131.04 192.837 130.88 194.023 130.88C195.223 130.88 196.263 131.04 197.143 131.36C198.037 131.667 198.723 132.127 199.203 132.74C199.697 133.34 199.943 134.073 199.943 134.94C199.943 135.807 199.697 136.567 199.203 137.22C198.71 137.86 198.017 138.36 197.123 138.72C196.243 139.067 195.21 139.24 194.023 139.24ZM194.023 136.86C194.837 136.86 195.477 136.68 195.943 136.32C196.423 135.96 196.663 135.467 196.663 134.84C196.663 134.213 196.423 133.727 195.943 133.38C195.477 133.02 194.837 132.84 194.023 132.84C193.223 132.84 192.59 133.02 192.123 133.38C191.657 133.727 191.423 134.213 191.423 134.84C191.423 135.467 191.657 135.96 192.123 136.32C192.59 136.68 193.223 136.86 194.023 136.86ZM194.023 132.52C192.943 132.52 191.997 132.373 191.183 132.08C190.383 131.787 189.757 131.36 189.303 130.8C188.863 130.227 188.643 129.547 188.643 128.76C188.643 127.933 188.87 127.227 189.323 126.64C189.777 126.04 190.41 125.58 191.223 125.26C192.037 124.927 192.97 124.76 194.023 124.76C195.103 124.76 196.043 124.927 196.843 125.26C197.657 125.58 198.29 126.04 198.743 126.64C199.21 127.227 199.443 127.933 199.443 128.76C199.443 129.547 199.217 130.227 198.763 130.8C198.323 131.36 197.697 131.787 196.883 132.08C196.07 132.373 195.117 132.52 194.023 132.52ZM194.023 130.62C194.703 130.62 195.237 130.467 195.623 130.16C196.023 129.853 196.223 129.433 196.223 128.9C196.223 128.34 196.017 127.907 195.603 127.6C195.203 127.293 194.677 127.14 194.023 127.14C193.383 127.14 192.863 127.293 192.463 127.6C192.063 127.907 191.863 128.34 191.863 128.9C191.863 129.433 192.057 129.853 192.443 130.16C192.83 130.467 193.357 130.62 194.023 130.62ZM214.111 139.16C213.204 139.16 212.411 138.96 211.731 138.56C211.051 138.16 210.517 137.553 210.131 136.74C209.757 135.913 209.571 134.873 209.571 133.62C209.571 132.353 209.751 131.313 210.111 130.5C210.471 129.687 210.991 129.08 211.671 128.68C212.351 128.28 213.164 128.08 214.111 128.08C215.124 128.08 216.031 128.313 216.831 128.78C217.644 129.233 218.284 129.873 218.751 130.7C219.231 131.527 219.471 132.5 219.471 133.62C219.471 134.753 219.231 135.733 218.751 136.56C218.284 137.387 217.644 138.027 216.831 138.48C216.031 138.933 215.124 139.16 214.111 139.16ZM207.751 142.88V128.24H210.731V130.44L210.671 133.64L210.871 136.82V142.88H207.751ZM213.571 136.6C214.091 136.6 214.551 136.48 214.951 136.24C215.364 136 215.691 135.66 215.931 135.22C216.184 134.767 216.311 134.233 216.311 133.62C216.311 132.993 216.184 132.46 215.931 132.02C215.691 131.58 215.364 131.24 214.951 131C214.551 130.76 214.091 130.64 213.571 130.64C213.051 130.64 212.584 130.76 212.171 131C211.757 131.24 211.431 131.58 211.191 132.02C210.951 132.46 210.831 132.993 210.831 133.62C210.831 134.233 210.951 134.767 211.191 135.22C211.431 135.66 211.757 136 212.171 136.24C212.584 136.48 213.051 136.6 213.571 136.6ZM219.867 139L224.687 132.68L224.627 134.4L220.007 128.24H223.507L226.427 132.26L225.107 132.3L228.127 128.24H231.447L226.807 134.34V132.66L231.607 139H228.067L225.007 134.72L226.307 134.9L223.267 139H219.867Z" fill="white"/>
</svg>
