<svg width="592" height="140" viewBox="0 0 592 140" fill="none" xmlns="http://www.w3.org/2000/svg">
<rect width="592" height="140" fill="#0D0C22"/>
<path d="M257.161 61L263.089 47.7H266.129L272.076 61H268.846L263.982 49.258H265.198L260.315 61H257.161ZM260.125 58.15L260.942 55.813H267.782L268.618 58.15H260.125ZM277.543 61.152C276.58 61.152 275.713 60.9367 274.94 60.506C274.167 60.0627 273.553 59.4483 273.097 58.663C272.654 57.8777 272.432 56.953 272.432 55.889C272.432 54.8123 272.654 53.8813 273.097 53.096C273.553 52.3107 274.167 51.7027 274.94 51.272C275.713 50.8413 276.58 50.626 277.543 50.626C278.404 50.626 279.158 50.816 279.804 51.196C280.45 51.576 280.95 52.1523 281.305 52.925C281.66 53.6977 281.837 54.6857 281.837 55.889C281.837 57.0797 281.666 58.0677 281.324 58.853C280.982 59.6257 280.488 60.202 279.842 60.582C279.209 60.962 278.442 61.152 277.543 61.152ZM278.056 58.72C278.537 58.72 278.974 58.606 279.367 58.378C279.76 58.15 280.07 57.827 280.298 57.409C280.539 56.9783 280.659 56.4717 280.659 55.889C280.659 55.2937 280.539 54.787 280.298 54.369C280.07 53.951 279.76 53.628 279.367 53.4C278.974 53.172 278.537 53.058 278.056 53.058C277.562 53.058 277.119 53.172 276.726 53.4C276.333 53.628 276.017 53.951 275.776 54.369C275.548 54.787 275.434 55.2937 275.434 55.889C275.434 56.4717 275.548 56.9783 275.776 57.409C276.017 57.827 276.333 58.15 276.726 58.378C277.119 58.606 277.562 58.72 278.056 58.72ZM280.735 61V58.91L280.792 55.87L280.602 52.849V46.902H283.566V61H280.735ZM292.051 61V50.55C292.051 49.3973 292.393 48.479 293.077 47.795C293.761 47.0983 294.737 46.75 296.003 46.75C296.434 46.75 296.846 46.7943 297.238 46.883C297.644 46.9717 297.986 47.111 298.264 47.301L297.485 49.448C297.321 49.334 297.137 49.2453 296.934 49.182C296.732 49.1187 296.516 49.087 296.288 49.087C295.858 49.087 295.522 49.2137 295.281 49.467C295.053 49.7077 294.939 50.075 294.939 50.569V51.519L295.015 52.792V61H292.051ZM290.474 53.286V51.006H297.561V53.286H290.474ZM303.981 61.152C302.816 61.152 301.79 60.924 300.903 60.468C300.029 60.012 299.351 59.3913 298.87 58.606C298.389 57.808 298.148 56.9023 298.148 55.889C298.148 54.863 298.382 53.9573 298.851 53.172C299.332 52.374 299.985 51.7533 300.808 51.31C301.631 50.854 302.562 50.626 303.601 50.626C304.602 50.626 305.501 50.8413 306.299 51.272C307.11 51.69 307.749 52.298 308.218 53.096C308.687 53.8813 308.921 54.825 308.921 55.927C308.921 56.041 308.915 56.174 308.902 56.326C308.889 56.4653 308.877 56.5983 308.864 56.725H300.561V54.996H307.306L306.166 55.509C306.166 54.977 306.058 54.5147 305.843 54.122C305.628 53.7293 305.33 53.4253 304.95 53.21C304.57 52.982 304.127 52.868 303.62 52.868C303.113 52.868 302.664 52.982 302.271 53.21C301.891 53.4253 301.593 53.7357 301.378 54.141C301.163 54.5337 301.055 55.0023 301.055 55.547V56.003C301.055 56.5603 301.175 57.0543 301.416 57.485C301.669 57.903 302.018 58.226 302.461 58.454C302.917 58.6693 303.449 58.777 304.057 58.777C304.602 58.777 305.077 58.6947 305.482 58.53C305.9 58.3653 306.28 58.1183 306.622 57.789L308.199 59.499C307.73 60.031 307.141 60.4427 306.432 60.734C305.723 61.0127 304.906 61.152 303.981 61.152ZM315.967 61.152C314.802 61.152 313.776 60.924 312.889 60.468C312.015 60.012 311.338 59.3913 310.856 58.606C310.375 57.808 310.134 56.9023 310.134 55.889C310.134 54.863 310.369 53.9573 310.837 53.172C311.319 52.374 311.971 51.7533 312.794 51.31C313.618 50.854 314.549 50.626 315.587 50.626C316.588 50.626 317.487 50.8413 318.285 51.272C319.096 51.69 319.736 52.298 320.204 53.096C320.673 53.8813 320.907 54.825 320.907 55.927C320.907 56.041 320.901 56.174 320.888 56.326C320.876 56.4653 320.863 56.5983 320.85 56.725H312.547V54.996H319.292L318.152 55.509C318.152 54.977 318.045 54.5147 317.829 54.122C317.614 53.7293 317.316 53.4253 316.936 53.21C316.556 52.982 316.113 52.868 315.606 52.868C315.1 52.868 314.65 52.982 314.257 53.21C313.877 53.4253 313.58 53.7357 313.364 54.141C313.149 54.5337 313.041 55.0023 313.041 55.547V56.003C313.041 56.5603 313.162 57.0543 313.402 57.485C313.656 57.903 314.004 58.226 314.447 58.454C314.903 58.6693 315.435 58.777 316.043 58.777C316.588 58.777 317.063 58.6947 317.468 58.53C317.886 58.3653 318.266 58.1183 318.608 57.789L320.185 59.499C319.717 60.031 319.128 60.4427 318.418 60.734C317.709 61.0127 316.892 61.152 315.967 61.152ZM327.27 61.152C326.307 61.152 325.439 60.9367 324.667 60.506C323.894 60.0627 323.28 59.4483 322.824 58.663C322.38 57.8777 322.159 56.953 322.159 55.889C322.159 54.8123 322.38 53.8813 322.824 53.096C323.28 52.3107 323.894 51.7027 324.667 51.272C325.439 50.8413 326.307 50.626 327.27 50.626C328.131 50.626 328.885 50.816 329.531 51.196C330.177 51.576 330.677 52.1523 331.032 52.925C331.386 53.6977 331.564 54.6857 331.564 55.889C331.564 57.0797 331.393 58.0677 331.051 58.853C330.709 59.6257 330.215 60.202 329.569 60.582C328.935 60.962 328.169 61.152 327.27 61.152ZM327.783 58.72C328.264 58.72 328.701 58.606 329.094 58.378C329.486 58.15 329.797 57.827 330.025 57.409C330.265 56.9783 330.386 56.4717 330.386 55.889C330.386 55.2937 330.265 54.787 330.025 54.369C329.797 53.951 329.486 53.628 329.094 53.4C328.701 53.172 328.264 53.058 327.783 53.058C327.289 53.058 326.845 53.172 326.453 53.4C326.06 53.628 325.743 53.951 325.503 54.369C325.275 54.787 325.161 55.2937 325.161 55.889C325.161 56.4717 325.275 56.9783 325.503 57.409C325.743 57.827 326.06 58.15 326.453 58.378C326.845 58.606 327.289 58.72 327.783 58.72ZM330.462 61V58.91L330.519 55.87L330.329 52.849V46.902H333.293V61H330.462ZM176.548 93.228C175.623 93.228 174.705 93.1077 173.793 92.867C172.893 92.6137 172.121 92.259 171.475 91.803L172.691 89.447C173.197 89.8143 173.78 90.1057 174.439 90.321C175.11 90.5363 175.788 90.644 176.472 90.644C177.244 90.644 177.852 90.492 178.296 90.188C178.739 89.884 178.961 89.4597 178.961 88.915C178.961 88.573 178.872 88.269 178.695 88.003C178.517 87.737 178.201 87.5343 177.745 87.395C177.301 87.2557 176.674 87.186 175.864 87.186H172.463L173.147 79.7H181.26V82.17H174.249L175.845 80.764L175.37 86.103L173.774 84.697H176.586C177.903 84.697 178.961 84.8807 179.759 85.248C180.569 85.6027 181.158 86.0903 181.526 86.711C181.893 87.3317 182.077 88.0347 182.077 88.82C182.077 89.6053 181.88 90.3337 181.488 91.005C181.095 91.6637 180.487 92.202 179.664 92.62C178.853 93.0253 177.814 93.228 176.548 93.228ZM187.999 79.472C189.228 79.472 190.286 79.7253 191.172 80.232C192.059 80.7387 192.743 81.4797 193.224 82.455C193.706 83.4177 193.946 84.621 193.946 86.065C193.946 87.5977 193.655 88.896 193.072 89.96C192.502 91.024 191.711 91.8347 190.697 92.392C189.684 92.9493 188.506 93.228 187.163 93.228C186.467 93.228 185.795 93.152 185.149 93C184.503 92.848 183.946 92.62 183.477 92.316L184.617 90.055C184.985 90.3083 185.377 90.4857 185.795 90.587C186.213 90.6757 186.65 90.72 187.106 90.72C188.246 90.72 189.152 90.3717 189.823 89.675C190.507 88.9783 190.849 87.946 190.849 86.578C190.849 86.35 190.843 86.0967 190.83 85.818C190.818 85.5393 190.786 85.2607 190.735 84.982L191.571 85.78C191.356 86.274 191.052 86.692 190.659 87.034C190.267 87.3633 189.811 87.6167 189.291 87.794C188.772 87.9587 188.189 88.041 187.543 88.041C186.695 88.041 185.922 87.87 185.225 87.528C184.541 87.186 183.99 86.7047 183.572 86.084C183.167 85.4633 182.964 84.735 182.964 83.899C182.964 82.987 183.186 82.2017 183.629 81.543C184.085 80.8843 184.693 80.3777 185.453 80.023C186.226 79.6557 187.075 79.472 187.999 79.472ZM188.189 81.771C187.746 81.771 187.36 81.8533 187.03 82.018C186.701 82.17 186.441 82.398 186.251 82.702C186.061 82.9933 185.966 83.3417 185.966 83.747C185.966 84.355 186.169 84.8427 186.574 85.21C186.992 85.5647 187.543 85.742 188.227 85.742C188.671 85.742 189.063 85.6597 189.405 85.495C189.76 85.3177 190.032 85.077 190.222 84.773C190.412 84.469 190.507 84.127 190.507 83.747C190.507 83.367 190.412 83.0313 190.222 82.74C190.045 82.436 189.785 82.2017 189.443 82.037C189.101 81.8597 188.683 81.771 188.189 81.771ZM195.235 93V91.005L200.365 86.16C200.77 85.7927 201.068 85.4633 201.258 85.172C201.448 84.8807 201.575 84.6147 201.638 84.374C201.714 84.1333 201.752 83.9117 201.752 83.709C201.752 83.177 201.568 82.7717 201.201 82.493C200.846 82.2017 200.321 82.056 199.624 82.056C199.067 82.056 198.547 82.1637 198.066 82.379C197.597 82.5943 197.198 82.93 196.869 83.386L194.627 81.942C195.134 81.182 195.843 80.5803 196.755 80.137C197.667 79.6937 198.718 79.472 199.909 79.472C200.897 79.472 201.758 79.6367 202.493 79.966C203.24 80.2827 203.817 80.7323 204.222 81.315C204.64 81.8977 204.849 82.5943 204.849 83.405C204.849 83.8357 204.792 84.2663 204.678 84.697C204.577 85.115 204.361 85.5583 204.032 86.027C203.715 86.4957 203.247 87.0213 202.626 87.604L198.37 91.613L197.781 90.492H205.286V93H195.235ZM210.215 88.725L216.599 82.303L218.195 83.975L211.811 90.397L210.215 88.725ZM210.215 83.975L211.811 82.303L218.195 88.725L216.599 90.397L210.215 83.975ZM225.363 93V80.84L226.693 82.17H222.703V79.7H228.441V93H225.363ZM230.599 90.207V88.136L236.869 79.7H240.099L233.962 88.136L232.461 87.699H242.93V90.207H230.599ZM237.762 93V90.207L237.857 87.699V85.21H240.764V93H237.762ZM249.551 93.228C248.462 93.228 247.486 92.962 246.625 92.43C245.764 91.8853 245.086 91.1 244.592 90.074C244.098 89.048 243.851 87.8067 243.851 86.35C243.851 84.8933 244.098 83.652 244.592 82.626C245.086 81.6 245.764 80.821 246.625 80.289C247.486 79.7443 248.462 79.472 249.551 79.472C250.653 79.472 251.628 79.7443 252.477 80.289C253.338 80.821 254.016 81.6 254.51 82.626C255.004 83.652 255.251 84.8933 255.251 86.35C255.251 87.8067 255.004 89.048 254.51 90.074C254.016 91.1 253.338 91.8853 252.477 92.43C251.628 92.962 250.653 93.228 249.551 93.228ZM249.551 90.625C250.07 90.625 250.52 90.4793 250.9 90.188C251.293 89.8967 251.597 89.4343 251.812 88.801C252.04 88.1677 252.154 87.3507 252.154 86.35C252.154 85.3493 252.04 84.5323 251.812 83.899C251.597 83.2657 251.293 82.8033 250.9 82.512C250.52 82.2207 250.07 82.075 249.551 82.075C249.044 82.075 248.595 82.2207 248.202 82.512C247.822 82.8033 247.518 83.2657 247.29 83.899C247.075 84.5323 246.967 85.3493 246.967 86.35C246.967 87.3507 247.075 88.1677 247.29 88.801C247.518 89.4343 247.822 89.8967 248.202 90.188C248.595 90.4793 249.044 90.625 249.551 90.625ZM268.796 93.152C267.935 93.152 267.181 92.962 266.535 92.582C265.889 92.202 265.383 91.6257 265.015 90.853C264.661 90.0677 264.483 89.0797 264.483 87.889C264.483 86.6857 264.654 85.6977 264.996 84.925C265.338 84.1523 265.832 83.576 266.478 83.196C267.124 82.816 267.897 82.626 268.796 82.626C269.759 82.626 270.62 82.8477 271.38 83.291C272.153 83.7217 272.761 84.3297 273.204 85.115C273.66 85.9003 273.888 86.825 273.888 87.889C273.888 88.9657 273.66 89.8967 273.204 90.682C272.761 91.4673 272.153 92.0753 271.38 92.506C270.62 92.9367 269.759 93.152 268.796 93.152ZM262.754 96.686V82.778H265.585V84.868L265.528 87.908L265.718 90.929V96.686H262.754ZM268.283 90.72C268.777 90.72 269.214 90.606 269.594 90.378C269.987 90.15 270.297 89.827 270.525 89.409C270.766 88.9783 270.886 88.4717 270.886 87.889C270.886 87.2937 270.766 86.787 270.525 86.369C270.297 85.951 269.987 85.628 269.594 85.4C269.214 85.172 268.777 85.058 268.283 85.058C267.789 85.058 267.346 85.172 266.953 85.4C266.561 85.628 266.25 85.951 266.022 86.369C265.794 86.787 265.68 87.2937 265.68 87.889C265.68 88.4717 265.794 88.9783 266.022 89.409C266.25 89.827 266.561 90.15 266.953 90.378C267.346 90.606 267.789 90.72 268.283 90.72ZM274.265 93L278.844 86.996L278.787 88.63L274.398 82.778H277.723L280.497 86.597L279.243 86.635L282.112 82.778H285.266L280.858 88.573V86.977L285.418 93H282.055L279.148 88.934L280.383 89.105L277.495 93H274.265ZM291.858 88.839V86.464H297.235V88.839H291.858ZM299.377 91.024V88.649L307.528 85.685V87.015L299.377 84.051V81.676L308.421 85.115V87.585L299.377 91.024ZM320.217 93.228C319.292 93.228 318.374 93.1077 317.462 92.867C316.562 92.6137 315.79 92.259 315.144 91.803L316.36 89.447C316.866 89.8143 317.449 90.1057 318.108 90.321C318.779 90.5363 319.457 90.644 320.141 90.644C320.913 90.644 321.521 90.492 321.965 90.188C322.408 89.884 322.63 89.4597 322.63 88.915C322.63 88.573 322.541 88.269 322.364 88.003C322.186 87.737 321.87 87.5343 321.414 87.395C320.97 87.2557 320.343 87.186 319.533 87.186H316.132L316.816 79.7H324.929V82.17H317.918L319.514 80.764L319.039 86.103L317.443 84.697H320.255C321.572 84.697 322.63 84.8807 323.428 85.248C324.238 85.6027 324.827 86.0903 325.195 86.711C325.562 87.3317 325.746 88.0347 325.746 88.82C325.746 89.6053 325.549 90.3337 325.157 91.005C324.764 91.6637 324.156 92.202 323.333 92.62C322.522 93.0253 321.483 93.228 320.217 93.228ZM331.668 79.472C332.897 79.472 333.955 79.7253 334.841 80.232C335.728 80.7387 336.412 81.4797 336.893 82.455C337.375 83.4177 337.615 84.621 337.615 86.065C337.615 87.5977 337.324 88.896 336.741 89.96C336.171 91.024 335.38 91.8347 334.366 92.392C333.353 92.9493 332.175 93.228 330.832 93.228C330.136 93.228 329.464 93.152 328.818 93C328.172 92.848 327.615 92.62 327.146 92.316L328.286 90.055C328.654 90.3083 329.046 90.4857 329.464 90.587C329.882 90.6757 330.319 90.72 330.775 90.72C331.915 90.72 332.821 90.3717 333.492 89.675C334.176 88.9783 334.518 87.946 334.518 86.578C334.518 86.35 334.512 86.0967 334.499 85.818C334.487 85.5393 334.455 85.2607 334.404 84.982L335.24 85.78C335.025 86.274 334.721 86.692 334.328 87.034C333.936 87.3633 333.48 87.6167 332.96 87.794C332.441 87.9587 331.858 88.041 331.212 88.041C330.364 88.041 329.591 87.87 328.894 87.528C328.21 87.186 327.659 86.7047 327.241 86.084C326.836 85.4633 326.633 84.735 326.633 83.899C326.633 82.987 326.855 82.2017 327.298 81.543C327.754 80.8843 328.362 80.3777 329.122 80.023C329.895 79.6557 330.744 79.472 331.668 79.472ZM331.858 81.771C331.415 81.771 331.029 81.8533 330.699 82.018C330.37 82.17 330.11 82.398 329.92 82.702C329.73 82.9933 329.635 83.3417 329.635 83.747C329.635 84.355 329.838 84.8427 330.243 85.21C330.661 85.5647 331.212 85.742 331.896 85.742C332.34 85.742 332.732 85.6597 333.074 85.495C333.429 85.3177 333.701 85.077 333.891 84.773C334.081 84.469 334.176 84.127 334.176 83.747C334.176 83.367 334.081 83.0313 333.891 82.74C333.714 82.436 333.454 82.2017 333.112 82.037C332.77 81.8597 332.352 81.771 331.858 81.771ZM338.904 93V91.005L344.034 86.16C344.439 85.7927 344.737 85.4633 344.927 85.172C345.117 84.8807 345.244 84.6147 345.307 84.374C345.383 84.1333 345.421 83.9117 345.421 83.709C345.421 83.177 345.237 82.7717 344.87 82.493C344.515 82.2017 343.99 82.056 343.293 82.056C342.736 82.056 342.216 82.1637 341.735 82.379C341.266 82.5943 340.867 82.93 340.538 83.386L338.296 81.942C338.803 81.182 339.512 80.5803 340.424 80.137C341.336 79.6937 342.387 79.472 343.578 79.472C344.566 79.472 345.427 79.6367 346.162 79.966C346.909 80.2827 347.486 80.7323 347.891 81.315C348.309 81.8977 348.518 82.5943 348.518 83.405C348.518 83.8357 348.461 84.2663 348.347 84.697C348.246 85.115 348.03 85.5583 347.701 86.027C347.384 86.4957 346.916 87.0213 346.295 87.604L342.039 91.613L341.45 90.492H348.955V93H338.904ZM353.884 88.725L360.268 82.303L361.864 83.975L355.48 90.397L353.884 88.725ZM353.884 83.975L355.48 82.303L361.864 88.725L360.268 90.397L353.884 83.975ZM371.654 79.472C372.882 79.472 373.94 79.7253 374.827 80.232C375.713 80.7387 376.397 81.4797 376.879 82.455C377.36 83.4177 377.601 84.621 377.601 86.065C377.601 87.5977 377.309 88.896 376.727 89.96C376.157 91.024 375.365 91.8347 374.352 92.392C373.338 92.9493 372.16 93.228 370.818 93.228C370.121 93.228 369.45 93.152 368.804 93C368.158 92.848 367.6 92.62 367.132 92.316L368.272 90.055C368.639 90.3083 369.032 90.4857 369.45 90.587C369.868 90.6757 370.305 90.72 370.761 90.72C371.901 90.72 372.806 90.3717 373.478 89.675C374.162 88.9783 374.504 87.946 374.504 86.578C374.504 86.35 374.497 86.0967 374.485 85.818C374.472 85.5393 374.44 85.2607 374.39 84.982L375.226 85.78C375.01 86.274 374.706 86.692 374.314 87.034C373.921 87.3633 373.465 87.6167 372.946 87.794C372.426 87.9587 371.844 88.041 371.198 88.041C370.349 88.041 369.576 87.87 368.88 87.528C368.196 87.186 367.645 86.7047 367.227 86.084C366.821 85.4633 366.619 84.735 366.619 83.899C366.619 82.987 366.84 82.2017 367.284 81.543C367.74 80.8843 368.348 80.3777 369.108 80.023C369.88 79.6557 370.729 79.472 371.654 79.472ZM371.844 81.771C371.4 81.771 371.014 81.8533 370.685 82.018C370.355 82.17 370.096 82.398 369.906 82.702C369.716 82.9933 369.621 83.3417 369.621 83.747C369.621 84.355 369.823 84.8427 370.229 85.21C370.647 85.5647 371.198 85.742 371.882 85.742C372.325 85.742 372.718 85.6597 373.06 85.495C373.414 85.3177 373.687 85.077 373.877 84.773C374.067 84.469 374.162 84.127 374.162 83.747C374.162 83.367 374.067 83.0313 373.877 82.74C373.699 82.436 373.44 82.2017 373.098 82.037C372.756 81.8597 372.338 81.771 371.844 81.771ZM384.777 93.228C383.688 93.228 382.713 92.962 381.851 92.43C380.99 91.8853 380.312 91.1 379.818 90.074C379.324 89.048 379.077 87.8067 379.077 86.35C379.077 84.8933 379.324 83.652 379.818 82.626C380.312 81.6 380.99 80.821 381.851 80.289C382.713 79.7443 383.688 79.472 384.777 79.472C385.879 79.472 386.855 79.7443 387.703 80.289C388.565 80.821 389.242 81.6 389.736 82.626C390.23 83.652 390.477 84.8933 390.477 86.35C390.477 87.8067 390.23 89.048 389.736 90.074C389.242 91.1 388.565 91.8853 387.703 92.43C386.855 92.962 385.879 93.228 384.777 93.228ZM384.777 90.625C385.297 90.625 385.746 90.4793 386.126 90.188C386.519 89.8967 386.823 89.4343 387.038 88.801C387.266 88.1677 387.38 87.3507 387.38 86.35C387.38 85.3493 387.266 84.5323 387.038 83.899C386.823 83.2657 386.519 82.8033 386.126 82.512C385.746 82.2207 385.297 82.075 384.777 82.075C384.271 82.075 383.821 82.2207 383.428 82.512C383.048 82.8033 382.744 83.2657 382.516 83.899C382.301 84.5323 382.193 85.3493 382.193 86.35C382.193 87.3507 382.301 88.1677 382.516 88.801C382.744 89.4343 383.048 89.8967 383.428 90.188C383.821 90.4793 384.271 90.625 384.777 90.625ZM404.023 93.152C403.161 93.152 402.408 92.962 401.762 92.582C401.116 92.202 400.609 91.6257 400.242 90.853C399.887 90.0677 399.71 89.0797 399.71 87.889C399.71 86.6857 399.881 85.6977 400.223 84.925C400.565 84.1523 401.059 83.576 401.705 83.196C402.351 82.816 403.123 82.626 404.023 82.626C404.985 82.626 405.847 82.8477 406.607 83.291C407.379 83.7217 407.987 84.3297 408.431 85.115C408.887 85.9003 409.115 86.825 409.115 87.889C409.115 88.9657 408.887 89.8967 408.431 90.682C407.987 91.4673 407.379 92.0753 406.607 92.506C405.847 92.9367 404.985 93.152 404.023 93.152ZM397.981 96.686V82.778H400.812V84.868L400.755 87.908L400.945 90.929V96.686H397.981ZM403.51 90.72C404.004 90.72 404.441 90.606 404.821 90.378C405.213 90.15 405.524 89.827 405.752 89.409C405.992 88.9783 406.113 88.4717 406.113 87.889C406.113 87.2937 405.992 86.787 405.752 86.369C405.524 85.951 405.213 85.628 404.821 85.4C404.441 85.172 404.004 85.058 403.51 85.058C403.016 85.058 402.572 85.172 402.18 85.4C401.787 85.628 401.477 85.951 401.249 86.369C401.021 86.787 400.907 87.2937 400.907 87.889C400.907 88.4717 401.021 88.9783 401.249 89.409C401.477 89.827 401.787 90.15 402.18 90.378C402.572 90.606 403.016 90.72 403.51 90.72ZM409.492 93L414.071 86.996L414.014 88.63L409.625 82.778H412.95L415.724 86.597L414.47 86.635L417.339 82.778H420.493L416.085 88.573V86.977L420.645 93H417.282L414.375 88.934L415.61 89.105L412.722 93H409.492Z" fill="white"/>
</svg>
