<svg width="336" height="600" viewBox="0 0 336 600" fill="none" xmlns="http://www.w3.org/2000/svg">
<g clip-path="url(#clip0_3606_3226)">
<path d="M336 0H0V600H336V0Z" fill="#F86F03"/>
<path d="M130.686 293.5L135.726 282.3H137.774L142.83 293.5H140.654L136.318 283.404H137.15L132.83 293.5H130.686ZM133.006 290.908L133.566 289.276H139.614L140.174 290.908H133.006ZM144.254 293.5V282.3H149.15C150.366 282.3 151.433 282.535 152.35 283.004C153.267 283.473 153.982 284.124 154.494 284.956C155.006 285.788 155.262 286.769 155.262 287.9C155.262 289.02 155.006 290.001 154.494 290.844C153.982 291.676 153.267 292.327 152.35 292.796C151.433 293.265 150.366 293.5 149.15 293.5H144.254ZM146.334 291.74H149.054C149.897 291.74 150.622 291.58 151.23 291.26C151.849 290.94 152.323 290.492 152.654 289.916C152.995 289.34 153.166 288.668 153.166 287.9C153.166 287.121 152.995 286.449 152.654 285.884C152.323 285.308 151.849 284.86 151.23 284.54C150.622 284.22 149.897 284.06 149.054 284.06H146.334V291.74ZM163.799 287.452H169.383V289.212H163.799V287.452ZM163.975 293.5H161.895V282.3H170.071V284.044H163.975V293.5ZM174.002 286.956H179.57V288.668H174.002V286.956ZM174.162 291.756H180.482V293.5H172.082V282.3H180.258V284.044H174.162V291.756ZM184.721 286.956H190.289V288.668H184.721V286.956ZM184.881 291.756H191.201V293.5H182.801V282.3H190.977V284.044H184.881V291.756ZM193.52 293.5V282.3H198.416C199.632 282.3 200.698 282.535 201.616 283.004C202.533 283.473 203.248 284.124 203.76 284.956C204.272 285.788 204.528 286.769 204.528 287.9C204.528 289.02 204.272 290.001 203.76 290.844C203.248 291.676 202.533 292.327 201.616 292.796C200.698 293.265 199.632 293.5 198.416 293.5H193.52ZM195.6 291.74H198.32C199.162 291.74 199.888 291.58 200.496 291.26C201.114 290.94 201.589 290.492 201.92 289.916C202.261 289.34 202.432 288.668 202.432 287.9C202.432 287.121 202.261 286.449 201.92 285.884C201.589 285.308 201.114 284.86 200.496 284.54C199.888 284.22 199.162 284.06 198.32 284.06H195.6V291.74ZM127.833 319.66C127.044 319.66 126.271 319.548 125.513 319.324C124.767 319.089 124.137 318.769 123.625 318.364L124.521 316.748C124.927 317.079 125.417 317.345 125.993 317.548C126.569 317.751 127.172 317.852 127.801 317.852C128.548 317.852 129.129 317.703 129.545 317.404C129.961 317.095 130.169 316.679 130.169 316.156C130.169 315.644 129.977 315.239 129.593 314.94C129.209 314.641 128.591 314.492 127.737 314.492H126.713V313.068L129.913 309.26L130.185 310.044H124.169V308.3H131.801V309.692L128.601 313.5L127.513 312.86H128.137C129.513 312.86 130.543 313.169 131.225 313.788C131.919 314.396 132.265 315.18 132.265 316.14C132.265 316.769 132.105 317.351 131.785 317.884C131.465 318.417 130.975 318.849 130.313 319.18C129.663 319.5 128.836 319.66 127.833 319.66ZM137.068 319.66C136.278 319.66 135.505 319.548 134.748 319.324C134.001 319.089 133.372 318.769 132.86 318.364L133.756 316.748C134.161 317.079 134.652 317.345 135.228 317.548C135.804 317.751 136.406 317.852 137.036 317.852C137.782 317.852 138.364 317.703 138.78 317.404C139.196 317.095 139.404 316.679 139.404 316.156C139.404 315.644 139.212 315.239 138.828 314.94C138.444 314.641 137.825 314.492 136.972 314.492H135.948V313.068L139.148 309.26L139.42 310.044H133.404V308.3H141.036V309.692L137.836 313.5L136.748 312.86H137.372C138.748 312.86 139.777 313.169 140.46 313.788C141.153 314.396 141.5 315.18 141.5 316.14C141.5 316.769 141.34 317.351 141.02 317.884C140.7 318.417 140.209 318.849 139.548 319.18C138.897 319.5 138.07 319.66 137.068 319.66ZM147.708 319.66C146.695 319.66 145.826 319.447 145.1 319.02C144.375 318.583 143.82 317.953 143.436 317.132C143.052 316.311 142.86 315.297 142.86 314.092C142.86 312.812 143.09 311.729 143.548 310.844C144.018 309.959 144.663 309.287 145.484 308.828C146.316 308.369 147.271 308.14 148.348 308.14C148.914 308.14 149.452 308.199 149.964 308.316C150.487 308.433 150.93 308.615 151.292 308.86L150.524 310.428C150.215 310.225 149.879 310.087 149.516 310.012C149.164 309.927 148.791 309.884 148.396 309.884C147.34 309.884 146.503 310.209 145.884 310.86C145.266 311.511 144.956 312.471 144.956 313.74C144.956 313.943 144.962 314.183 144.972 314.46C144.983 314.727 145.02 314.999 145.084 315.276L144.444 314.572C144.636 314.135 144.898 313.772 145.228 313.484C145.57 313.185 145.97 312.961 146.428 312.812C146.898 312.663 147.404 312.588 147.948 312.588C148.684 312.588 149.34 312.732 149.916 313.02C150.492 313.297 150.951 313.697 151.292 314.22C151.634 314.732 151.804 315.335 151.804 316.028C151.804 316.764 151.623 317.404 151.26 317.948C150.898 318.492 150.407 318.913 149.788 319.212C149.17 319.511 148.476 319.66 147.708 319.66ZM147.596 318.028C148.023 318.028 148.402 317.953 148.732 317.804C149.063 317.644 149.319 317.42 149.5 317.132C149.692 316.844 149.788 316.508 149.788 316.124C149.788 315.537 149.586 315.073 149.18 314.732C148.775 314.391 148.231 314.22 147.548 314.22C147.1 314.22 146.706 314.305 146.364 314.476C146.034 314.636 145.767 314.86 145.564 315.148C145.372 315.436 145.276 315.767 145.276 316.14C145.276 316.481 145.367 316.796 145.548 317.084C145.73 317.372 145.991 317.601 146.332 317.772C146.684 317.943 147.106 318.028 147.596 318.028ZM152.097 319.5L155.857 314.604L155.825 315.676L152.241 310.956H154.465L156.977 314.316H156.129L158.657 310.956H160.817L157.201 315.676L157.217 314.604L160.961 319.5H158.705L156.065 315.932L156.897 316.044L154.305 319.5H152.097ZM166.521 319.66C165.507 319.66 164.638 319.447 163.913 319.02C163.187 318.583 162.633 317.953 162.249 317.132C161.865 316.311 161.673 315.297 161.673 314.092C161.673 312.812 161.902 311.729 162.361 310.844C162.83 309.959 163.475 309.287 164.297 308.828C165.129 308.369 166.083 308.14 167.161 308.14C167.726 308.14 168.265 308.199 168.777 308.316C169.299 308.433 169.742 308.615 170.105 308.86L169.337 310.428C169.027 310.225 168.691 310.087 168.329 310.012C167.977 309.927 167.603 309.884 167.209 309.884C166.153 309.884 165.315 310.209 164.697 310.86C164.078 311.511 163.769 312.471 163.769 313.74C163.769 313.943 163.774 314.183 163.785 314.46C163.795 314.727 163.833 314.999 163.897 315.276L163.257 314.572C163.449 314.135 163.71 313.772 164.041 313.484C164.382 313.185 164.782 312.961 165.241 312.812C165.71 312.663 166.217 312.588 166.761 312.588C167.497 312.588 168.153 312.732 168.729 313.02C169.305 313.297 169.763 313.697 170.105 314.22C170.446 314.732 170.617 315.335 170.617 316.028C170.617 316.764 170.435 317.404 170.073 317.948C169.71 318.492 169.219 318.913 168.601 319.212C167.982 319.511 167.289 319.66 166.521 319.66ZM166.409 318.028C166.835 318.028 167.214 317.953 167.545 317.804C167.875 317.644 168.131 317.42 168.313 317.132C168.505 316.844 168.601 316.508 168.601 316.124C168.601 315.537 168.398 315.073 167.993 314.732C167.587 314.391 167.043 314.22 166.361 314.22C165.913 314.22 165.518 314.305 165.177 314.476C164.846 314.636 164.579 314.86 164.377 315.148C164.185 315.436 164.089 315.767 164.089 316.14C164.089 316.481 164.179 316.796 164.361 317.084C164.542 317.372 164.803 317.601 165.145 317.772C165.497 317.943 165.918 318.028 166.409 318.028ZM176.376 319.66C175.491 319.66 174.691 319.436 173.976 318.988C173.272 318.54 172.717 317.889 172.312 317.036C171.907 316.172 171.704 315.127 171.704 313.9C171.704 312.673 171.907 311.633 172.312 310.78C172.717 309.916 173.272 309.26 173.976 308.812C174.691 308.364 175.491 308.14 176.376 308.14C177.272 308.14 178.072 308.364 178.776 308.812C179.48 309.26 180.035 309.916 180.44 310.78C180.856 311.633 181.064 312.673 181.064 313.9C181.064 315.127 180.856 316.172 180.44 317.036C180.035 317.889 179.48 318.54 178.776 318.988C178.072 319.436 177.272 319.66 176.376 319.66ZM176.376 317.852C176.899 317.852 177.352 317.713 177.736 317.436C178.12 317.148 178.419 316.711 178.632 316.124C178.856 315.537 178.968 314.796 178.968 313.9C178.968 312.993 178.856 312.252 178.632 311.676C178.419 311.089 178.12 310.657 177.736 310.38C177.352 310.092 176.899 309.948 176.376 309.948C175.875 309.948 175.427 310.092 175.032 310.38C174.648 310.657 174.344 311.089 174.12 311.676C173.907 312.252 173.8 312.993 173.8 313.9C173.8 314.796 173.907 315.537 174.12 316.124C174.344 316.711 174.648 317.148 175.032 317.436C175.427 317.713 175.875 317.852 176.376 317.852ZM187.142 319.66C186.256 319.66 185.456 319.436 184.742 318.988C184.038 318.54 183.483 317.889 183.078 317.036C182.672 316.172 182.47 315.127 182.47 313.9C182.47 312.673 182.672 311.633 183.078 310.78C183.483 309.916 184.038 309.26 184.742 308.812C185.456 308.364 186.256 308.14 187.142 308.14C188.038 308.14 188.838 308.364 189.542 308.812C190.246 309.26 190.8 309.916 191.206 310.78C191.622 311.633 191.83 312.673 191.83 313.9C191.83 315.127 191.622 316.172 191.206 317.036C190.8 317.889 190.246 318.54 189.542 318.988C188.838 319.436 188.038 319.66 187.142 319.66ZM187.142 317.852C187.664 317.852 188.118 317.713 188.502 317.436C188.886 317.148 189.184 316.711 189.398 316.124C189.622 315.537 189.734 314.796 189.734 313.9C189.734 312.993 189.622 312.252 189.398 311.676C189.184 311.089 188.886 310.657 188.502 310.38C188.118 310.092 187.664 309.948 187.142 309.948C186.64 309.948 186.192 310.092 185.798 310.38C185.414 310.657 185.11 311.089 184.886 311.676C184.672 312.252 184.566 312.993 184.566 313.9C184.566 314.796 184.672 315.537 184.886 316.124C185.11 316.711 185.414 317.148 185.798 317.436C186.192 317.713 186.64 317.852 187.142 317.852ZM198.579 319.612C197.886 319.612 197.251 319.452 196.675 319.132C196.11 318.812 195.657 318.332 195.315 317.692C194.985 317.041 194.819 316.22 194.819 315.228C194.819 314.225 194.979 313.404 195.299 312.764C195.63 312.124 196.078 311.649 196.643 311.34C197.209 311.02 197.854 310.86 198.579 310.86C199.422 310.86 200.163 311.041 200.803 311.404C201.454 311.767 201.966 312.273 202.339 312.924C202.723 313.575 202.915 314.343 202.915 315.228C202.915 316.113 202.723 316.887 202.339 317.548C201.966 318.199 201.454 318.705 200.803 319.068C200.163 319.431 199.422 319.612 198.579 319.612ZM193.843 322.604V310.956H195.747V312.972L195.683 315.244L195.843 317.516V322.604H193.843ZM198.355 317.9C198.835 317.9 199.262 317.793 199.635 317.58C200.019 317.367 200.323 317.057 200.547 316.652C200.771 316.247 200.883 315.772 200.883 315.228C200.883 314.673 200.771 314.199 200.547 313.804C200.323 313.399 200.019 313.089 199.635 312.876C199.262 312.663 198.835 312.556 198.355 312.556C197.875 312.556 197.443 312.663 197.059 312.876C196.675 313.089 196.371 313.399 196.147 313.804C195.923 314.199 195.811 314.673 195.811 315.228C195.811 315.772 195.923 316.247 196.147 316.652C196.371 317.057 196.675 317.367 197.059 317.58C197.443 317.793 197.875 317.9 198.355 317.9ZM203.363 319.5L207.123 314.604L207.091 315.676L203.507 310.956H205.731L208.243 314.316H207.395L209.923 310.956H212.083L208.467 315.676L208.483 314.604L212.227 319.5H209.971L207.331 315.932L208.163 316.044L205.571 319.5H203.363Z" fill="white"/>
</g>
<defs>
<clipPath id="clip0_3606_3226">
<rect width="336" height="600" fill="white"/>
</clipPath>
</defs>
</svg>
