<svg width="728" height="250" viewBox="0 0 728 250" fill="none" xmlns="http://www.w3.org/2000/svg">
<rect width="728" height="250" fill="#F86F03"/>
<path d="M327.186 119L332.226 107.8H334.274L339.33 119H337.154L332.818 108.904H333.65L329.33 119H327.186ZM329.506 116.408L330.066 114.776H336.114L336.674 116.408H329.506ZM340.754 119V107.8H345.65C346.866 107.8 347.933 108.035 348.85 108.504C349.767 108.973 350.482 109.624 350.994 110.456C351.506 111.288 351.762 112.269 351.762 113.4C351.762 114.52 351.506 115.501 350.994 116.344C350.482 117.176 349.767 117.827 348.85 118.296C347.933 118.765 346.866 119 345.65 119H340.754ZM342.834 117.24H345.554C346.397 117.24 347.122 117.08 347.73 116.76C348.349 116.44 348.823 115.992 349.154 115.416C349.495 114.84 349.666 114.168 349.666 113.4C349.666 112.621 349.495 111.949 349.154 111.384C348.823 110.808 348.349 110.36 347.73 110.04C347.122 109.72 346.397 109.56 345.554 109.56H342.834V117.24ZM360.299 112.952H365.883V114.712H360.299V112.952ZM360.475 119H358.395V107.8H366.571V109.544H360.475V119ZM370.502 112.456H376.07V114.168H370.502V112.456ZM370.662 117.256H376.982V119H368.582V107.8H376.758V109.544H370.662V117.256ZM381.221 112.456H386.789V114.168H381.221V112.456ZM381.381 117.256H387.701V119H379.301V107.8H387.477V109.544H381.381V117.256ZM390.02 119V107.8H394.916C396.132 107.8 397.198 108.035 398.116 108.504C399.033 108.973 399.748 109.624 400.26 110.456C400.772 111.288 401.028 112.269 401.028 113.4C401.028 114.52 400.772 115.501 400.26 116.344C399.748 117.176 399.033 117.827 398.116 118.296C397.198 118.765 396.132 119 394.916 119H390.02ZM392.1 117.24H394.82C395.662 117.24 396.388 117.08 396.996 116.76C397.614 116.44 398.089 115.992 398.42 115.416C398.761 114.84 398.932 114.168 398.932 113.4C398.932 112.621 398.761 111.949 398.42 111.384C398.089 110.808 397.614 110.36 396.996 110.04C396.388 109.72 395.662 109.56 394.82 109.56H392.1V117.24ZM276.889 143L281.513 132.632L282.057 133.56H275.705L276.697 132.552V135.464H274.761V131.8H283.465V133.192L279.113 143H276.889ZM284.607 143V141.608L289.055 137.384C289.428 137.032 289.706 136.723 289.887 136.456C290.068 136.189 290.186 135.944 290.239 135.72C290.303 135.485 290.335 135.267 290.335 135.064C290.335 134.552 290.159 134.157 289.807 133.88C289.455 133.592 288.938 133.448 288.255 133.448C287.711 133.448 287.215 133.544 286.767 133.736C286.33 133.928 285.951 134.221 285.631 134.616L284.175 133.496C284.612 132.909 285.199 132.456 285.935 132.136C286.682 131.805 287.514 131.64 288.431 131.64C289.242 131.64 289.946 131.773 290.543 132.04C291.151 132.296 291.615 132.664 291.935 133.144C292.266 133.624 292.431 134.195 292.431 134.856C292.431 135.219 292.383 135.581 292.287 135.944C292.191 136.296 292.01 136.669 291.743 137.064C291.476 137.459 291.087 137.901 290.575 138.392L286.751 142.024L286.319 141.24H292.863V143H284.607ZM298.559 143.16C297.631 143.16 296.826 143.021 296.143 142.744C295.461 142.467 294.933 142.077 294.559 141.576C294.186 141.064 293.999 140.467 293.999 139.784C293.999 139.101 294.181 138.525 294.543 138.056C294.906 137.587 295.429 137.229 296.111 136.984C296.794 136.739 297.61 136.616 298.559 136.616C299.509 136.616 300.325 136.739 301.007 136.984C301.701 137.229 302.229 137.592 302.591 138.072C302.965 138.541 303.151 139.112 303.151 139.784C303.151 140.467 302.959 141.064 302.575 141.576C302.202 142.077 301.669 142.467 300.975 142.744C300.293 143.021 299.487 143.16 298.559 143.16ZM298.559 141.528C299.327 141.528 299.935 141.368 300.383 141.048C300.831 140.728 301.055 140.285 301.055 139.72C301.055 139.165 300.831 138.728 300.383 138.408C299.935 138.088 299.327 137.928 298.559 137.928C297.791 137.928 297.189 138.088 296.751 138.408C296.314 138.728 296.095 139.165 296.095 139.72C296.095 140.285 296.314 140.728 296.751 141.048C297.189 141.368 297.791 141.528 298.559 141.528ZM298.559 137.704C297.695 137.704 296.954 137.592 296.335 137.368C295.717 137.133 295.237 136.797 294.895 136.36C294.565 135.912 294.399 135.379 294.399 134.76C294.399 134.12 294.57 133.571 294.911 133.112C295.263 132.643 295.754 132.28 296.383 132.024C297.013 131.768 297.738 131.64 298.559 131.64C299.391 131.64 300.122 131.768 300.751 132.024C301.381 132.28 301.871 132.643 302.223 133.112C302.575 133.571 302.751 134.12 302.751 134.76C302.751 135.379 302.581 135.912 302.239 136.36C301.909 136.797 301.429 137.133 300.799 137.368C300.17 137.592 299.423 137.704 298.559 137.704ZM298.559 136.424C299.221 136.424 299.743 136.285 300.127 136.008C300.511 135.72 300.703 135.336 300.703 134.856C300.703 134.355 300.506 133.965 300.111 133.688C299.717 133.411 299.199 133.272 298.559 133.272C297.919 133.272 297.407 133.411 297.023 133.688C296.639 133.965 296.447 134.355 296.447 134.856C296.447 135.336 296.634 135.72 297.007 136.008C297.391 136.285 297.909 136.424 298.559 136.424ZM303.816 143L307.576 138.104L307.544 139.176L303.96 134.456H306.184L308.696 137.816H307.848L310.376 134.456H312.536L308.92 139.176L308.936 138.104L312.68 143H310.424L307.784 139.432L308.616 139.544L306.024 143H303.816ZM313.451 143V141.608L317.899 137.384C318.272 137.032 318.549 136.723 318.731 136.456C318.912 136.189 319.029 135.944 319.083 135.72C319.147 135.485 319.179 135.267 319.179 135.064C319.179 134.552 319.003 134.157 318.651 133.88C318.299 133.592 317.781 133.448 317.099 133.448C316.555 133.448 316.059 133.544 315.611 133.736C315.173 133.928 314.795 134.221 314.475 134.616L313.019 133.496C313.456 132.909 314.043 132.456 314.779 132.136C315.525 131.805 316.357 131.64 317.275 131.64C318.085 131.64 318.789 131.773 319.387 132.04C319.995 132.296 320.459 132.664 320.779 133.144C321.109 133.624 321.275 134.195 321.275 134.856C321.275 135.219 321.227 135.581 321.131 135.944C321.035 136.296 320.853 136.669 320.587 137.064C320.32 137.459 319.931 137.901 319.419 138.392L315.595 142.024L315.163 141.24H321.707V143H313.451ZM326.619 143.16C325.83 143.16 325.056 143.048 324.299 142.824C323.552 142.589 322.923 142.269 322.411 141.864L323.291 140.248C323.696 140.579 324.187 140.845 324.763 141.048C325.35 141.251 325.958 141.352 326.587 141.352C327.323 141.352 327.899 141.197 328.315 140.888C328.742 140.579 328.955 140.163 328.955 139.64C328.955 139.288 328.864 138.979 328.683 138.712C328.512 138.445 328.203 138.243 327.755 138.104C327.318 137.965 326.715 137.896 325.947 137.896H323.243L323.819 131.8H330.395V133.544H324.587L325.675 132.552L325.243 137.112L324.155 136.136H326.411C327.52 136.136 328.411 136.285 329.083 136.584C329.766 136.872 330.262 137.277 330.571 137.8C330.891 138.312 331.051 138.899 331.051 139.56C331.051 140.211 330.891 140.808 330.571 141.352C330.251 141.896 329.76 142.333 329.099 142.664C328.448 142.995 327.622 143.16 326.619 143.16ZM336.923 143.16C336.038 143.16 335.238 142.936 334.523 142.488C333.819 142.04 333.264 141.389 332.859 140.536C332.454 139.672 332.251 138.627 332.251 137.4C332.251 136.173 332.454 135.133 332.859 134.28C333.264 133.416 333.819 132.76 334.523 132.312C335.238 131.864 336.038 131.64 336.923 131.64C337.819 131.64 338.619 131.864 339.323 132.312C340.027 132.76 340.582 133.416 340.987 134.28C341.403 135.133 341.611 136.173 341.611 137.4C341.611 138.627 341.403 139.672 340.987 140.536C340.582 141.389 340.027 142.04 339.323 142.488C338.619 142.936 337.819 143.16 336.923 143.16ZM336.923 141.352C337.446 141.352 337.899 141.213 338.283 140.936C338.667 140.648 338.966 140.211 339.179 139.624C339.403 139.037 339.515 138.296 339.515 137.4C339.515 136.493 339.403 135.752 339.179 135.176C338.966 134.589 338.667 134.157 338.283 133.88C337.899 133.592 337.446 133.448 336.923 133.448C336.422 133.448 335.974 133.592 335.579 133.88C335.195 134.157 334.891 134.589 334.667 135.176C334.454 135.752 334.347 136.493 334.347 137.4C334.347 138.296 334.454 139.037 334.667 139.624C334.891 140.211 335.195 140.648 335.579 140.936C335.974 141.213 336.422 141.352 336.923 141.352ZM348.361 143.112C347.667 143.112 347.033 142.952 346.457 142.632C345.891 142.312 345.438 141.832 345.097 141.192C344.766 140.541 344.601 139.72 344.601 138.728C344.601 137.725 344.761 136.904 345.081 136.264C345.411 135.624 345.859 135.149 346.424 134.84C346.99 134.52 347.635 134.36 348.361 134.36C349.203 134.36 349.945 134.541 350.585 134.904C351.235 135.267 351.747 135.773 352.121 136.424C352.505 137.075 352.697 137.843 352.697 138.728C352.697 139.613 352.505 140.387 352.121 141.048C351.747 141.699 351.235 142.205 350.585 142.568C349.945 142.931 349.203 143.112 348.361 143.112ZM343.625 146.104V134.456H345.529V136.472L345.465 138.744L345.625 141.016V146.104H343.625ZM348.137 141.4C348.617 141.4 349.043 141.293 349.417 141.08C349.801 140.867 350.105 140.557 350.329 140.152C350.553 139.747 350.665 139.272 350.665 138.728C350.665 138.173 350.553 137.699 350.329 137.304C350.105 136.899 349.801 136.589 349.417 136.376C349.043 136.163 348.617 136.056 348.137 136.056C347.657 136.056 347.225 136.163 346.841 136.376C346.457 136.589 346.153 136.899 345.929 137.304C345.705 137.699 345.593 138.173 345.593 138.728C345.593 139.272 345.705 139.747 345.929 140.152C346.153 140.557 346.457 140.867 346.841 141.08C347.225 141.293 347.657 141.4 348.137 141.4ZM353.144 143L356.904 138.104L356.872 139.176L353.288 134.456H355.512L358.024 137.816H357.176L359.704 134.456H361.864L358.248 139.176L358.264 138.104L362.008 143H359.752L357.112 139.432L357.944 139.544L355.352 143H353.144ZM367.474 139.384V137.72H371.874V139.384H367.474ZM373.79 141.128V139.464L380.542 136.936V137.864L373.79 135.336V133.672L381.166 136.536V138.264L373.79 141.128ZM390.833 143.16C390.044 143.16 389.271 143.048 388.513 142.824C387.767 142.589 387.137 142.269 386.625 141.864L387.521 140.248C387.927 140.579 388.417 140.845 388.993 141.048C389.569 141.251 390.172 141.352 390.801 141.352C391.548 141.352 392.129 141.203 392.545 140.904C392.961 140.595 393.169 140.179 393.169 139.656C393.169 139.144 392.977 138.739 392.593 138.44C392.209 138.141 391.591 137.992 390.737 137.992H389.713V136.568L392.913 132.76L393.185 133.544H387.169V131.8H394.801V133.192L391.601 137L390.513 136.36H391.137C392.513 136.36 393.543 136.669 394.225 137.288C394.919 137.896 395.265 138.68 395.265 139.64C395.265 140.269 395.105 140.851 394.785 141.384C394.465 141.917 393.975 142.349 393.313 142.68C392.663 143 391.836 143.16 390.833 143.16ZM400.068 143.16C399.278 143.16 398.505 143.048 397.748 142.824C397.001 142.589 396.372 142.269 395.86 141.864L396.756 140.248C397.161 140.579 397.652 140.845 398.228 141.048C398.804 141.251 399.406 141.352 400.036 141.352C400.782 141.352 401.364 141.203 401.78 140.904C402.196 140.595 402.404 140.179 402.404 139.656C402.404 139.144 402.212 138.739 401.828 138.44C401.444 138.141 400.825 137.992 399.972 137.992H398.948V136.568L402.148 132.76L402.42 133.544H396.404V131.8H404.036V133.192L400.836 137L399.748 136.36H400.372C401.748 136.36 402.777 136.669 403.46 137.288C404.153 137.896 404.5 138.68 404.5 139.64C404.5 140.269 404.34 140.851 404.02 141.384C403.7 141.917 403.209 142.349 402.548 142.68C401.897 143 401.07 143.16 400.068 143.16ZM410.708 143.16C409.695 143.16 408.826 142.947 408.1 142.52C407.375 142.083 406.82 141.453 406.436 140.632C406.052 139.811 405.86 138.797 405.86 137.592C405.86 136.312 406.09 135.229 406.548 134.344C407.018 133.459 407.663 132.787 408.484 132.328C409.316 131.869 410.271 131.64 411.348 131.64C411.914 131.64 412.452 131.699 412.964 131.816C413.487 131.933 413.93 132.115 414.292 132.36L413.524 133.928C413.215 133.725 412.879 133.587 412.516 133.512C412.164 133.427 411.791 133.384 411.396 133.384C410.34 133.384 409.503 133.709 408.884 134.36C408.266 135.011 407.956 135.971 407.956 137.24C407.956 137.443 407.962 137.683 407.972 137.96C407.983 138.227 408.02 138.499 408.084 138.776L407.444 138.072C407.636 137.635 407.898 137.272 408.228 136.984C408.57 136.685 408.97 136.461 409.428 136.312C409.898 136.163 410.404 136.088 410.948 136.088C411.684 136.088 412.34 136.232 412.916 136.52C413.492 136.797 413.951 137.197 414.292 137.72C414.634 138.232 414.804 138.835 414.804 139.528C414.804 140.264 414.623 140.904 414.26 141.448C413.898 141.992 413.407 142.413 412.788 142.712C412.17 143.011 411.476 143.16 410.708 143.16ZM410.596 141.528C411.023 141.528 411.402 141.453 411.732 141.304C412.063 141.144 412.319 140.92 412.5 140.632C412.692 140.344 412.788 140.008 412.788 139.624C412.788 139.037 412.586 138.573 412.18 138.232C411.775 137.891 411.231 137.72 410.548 137.72C410.1 137.72 409.706 137.805 409.364 137.976C409.034 138.136 408.767 138.36 408.564 138.648C408.372 138.936 408.276 139.267 408.276 139.64C408.276 139.981 408.367 140.296 408.548 140.584C408.73 140.872 408.991 141.101 409.332 141.272C409.684 141.443 410.106 141.528 410.596 141.528ZM415.097 143L418.857 138.104L418.825 139.176L415.241 134.456H417.465L419.977 137.816H419.129L421.657 134.456H423.817L420.201 139.176L420.217 138.104L423.961 143H421.705L419.065 139.432L419.897 139.544L417.305 143H415.097ZM424.732 143V141.608L429.18 137.384C429.553 137.032 429.831 136.723 430.012 136.456C430.193 136.189 430.311 135.944 430.364 135.72C430.428 135.485 430.46 135.267 430.46 135.064C430.46 134.552 430.284 134.157 429.932 133.88C429.58 133.592 429.063 133.448 428.38 133.448C427.836 133.448 427.34 133.544 426.892 133.736C426.455 133.928 426.076 134.221 425.756 134.616L424.3 133.496C424.737 132.909 425.324 132.456 426.06 132.136C426.807 131.805 427.639 131.64 428.556 131.64C429.367 131.64 430.071 131.773 430.668 132.04C431.276 132.296 431.74 132.664 432.06 133.144C432.391 133.624 432.556 134.195 432.556 134.856C432.556 135.219 432.508 135.581 432.412 135.944C432.316 136.296 432.135 136.669 431.868 137.064C431.601 137.459 431.212 137.901 430.7 138.392L426.876 142.024L426.444 141.24H432.988V143H424.732ZM438.684 143.16C437.756 143.16 436.951 143.021 436.268 142.744C435.586 142.467 435.058 142.077 434.684 141.576C434.311 141.064 434.124 140.467 434.124 139.784C434.124 139.101 434.306 138.525 434.668 138.056C435.031 137.587 435.554 137.229 436.236 136.984C436.919 136.739 437.735 136.616 438.684 136.616C439.634 136.616 440.45 136.739 441.132 136.984C441.826 137.229 442.354 137.592 442.716 138.072C443.09 138.541 443.276 139.112 443.276 139.784C443.276 140.467 443.084 141.064 442.7 141.576C442.327 142.077 441.794 142.467 441.1 142.744C440.418 143.021 439.612 143.16 438.684 143.16ZM438.684 141.528C439.452 141.528 440.06 141.368 440.508 141.048C440.956 140.728 441.18 140.285 441.18 139.72C441.18 139.165 440.956 138.728 440.508 138.408C440.06 138.088 439.452 137.928 438.684 137.928C437.916 137.928 437.314 138.088 436.876 138.408C436.439 138.728 436.22 139.165 436.22 139.72C436.22 140.285 436.439 140.728 436.876 141.048C437.314 141.368 437.916 141.528 438.684 141.528ZM438.684 137.704C437.82 137.704 437.079 137.592 436.46 137.368C435.842 137.133 435.362 136.797 435.02 136.36C434.69 135.912 434.524 135.379 434.524 134.76C434.524 134.12 434.695 133.571 435.036 133.112C435.388 132.643 435.879 132.28 436.508 132.024C437.138 131.768 437.863 131.64 438.684 131.64C439.516 131.64 440.247 131.768 440.876 132.024C441.506 132.28 441.996 132.643 442.348 133.112C442.7 133.571 442.876 134.12 442.876 134.76C442.876 135.379 442.706 135.912 442.364 136.36C442.034 136.797 441.554 137.133 440.924 137.368C440.295 137.592 439.548 137.704 438.684 137.704ZM438.684 136.424C439.346 136.424 439.868 136.285 440.252 136.008C440.636 135.72 440.828 135.336 440.828 134.856C440.828 134.355 440.631 133.965 440.236 133.688C439.842 133.411 439.324 133.272 438.684 133.272C438.044 133.272 437.532 133.411 437.148 133.688C436.764 133.965 436.572 134.355 436.572 134.856C436.572 135.336 436.759 135.72 437.132 136.008C437.516 136.285 438.034 136.424 438.684 136.424ZM449.298 143.16C448.413 143.16 447.613 142.936 446.898 142.488C446.194 142.04 445.639 141.389 445.234 140.536C444.829 139.672 444.626 138.627 444.626 137.4C444.626 136.173 444.829 135.133 445.234 134.28C445.639 133.416 446.194 132.76 446.898 132.312C447.613 131.864 448.413 131.64 449.298 131.64C450.194 131.64 450.994 131.864 451.698 132.312C452.402 132.76 452.957 133.416 453.362 134.28C453.778 135.133 453.986 136.173 453.986 137.4C453.986 138.627 453.778 139.672 453.362 140.536C452.957 141.389 452.402 142.04 451.698 142.488C450.994 142.936 450.194 143.16 449.298 143.16ZM449.298 141.352C449.821 141.352 450.274 141.213 450.658 140.936C451.042 140.648 451.341 140.211 451.554 139.624C451.778 139.037 451.89 138.296 451.89 137.4C451.89 136.493 451.778 135.752 451.554 135.176C451.341 134.589 451.042 134.157 450.658 133.88C450.274 133.592 449.821 133.448 449.298 133.448C448.797 133.448 448.349 133.592 447.954 133.88C447.57 134.157 447.266 134.589 447.042 135.176C446.829 135.752 446.722 136.493 446.722 137.4C446.722 138.296 446.829 139.037 447.042 139.624C447.266 140.211 447.57 140.648 447.954 140.936C448.349 141.213 448.797 141.352 449.298 141.352Z" fill="white"/>
</svg>
