<svg width="1150" height="90" viewBox="0 0 1150 90" fill="none" xmlns="http://www.w3.org/2000/svg">
<rect width="1150" height="90" fill="#000"/>
<path d="M495.451 38L500.491 26.8H502.539L507.595 38H505.419L501.083 27.904H501.915L497.595 38H495.451ZM497.771 35.408L498.331 33.776H504.379L504.939 35.408H497.771ZM509.02 38V26.8H513.916C515.132 26.8 516.198 27.0347 517.116 27.504C518.033 27.9733 518.748 28.624 519.26 29.456C519.772 30.288 520.028 31.2693 520.028 32.4C520.028 33.52 519.772 34.5013 519.26 35.344C518.748 36.176 518.033 36.8267 517.116 37.296C516.198 37.7653 515.132 38 513.916 38H509.02ZM511.1 36.24H513.82C514.662 36.24 515.388 36.08 515.996 35.76C516.614 35.44 517.089 34.992 517.42 34.416C517.761 33.84 517.932 33.168 517.932 32.4C517.932 31.6213 517.761 30.9493 517.42 30.384C517.089 29.808 516.614 29.36 515.996 29.04C515.388 28.72 514.662 28.56 513.82 28.56H511.1V36.24ZM526.66 38V26.8H528.74V36.24H534.596V38H526.66ZM538.158 31.456H543.726V33.168H538.158V31.456ZM538.318 36.256H544.638V38H536.238V26.8H544.414V28.544H538.318V36.256ZM545.373 38L550.413 26.8H552.461L557.517 38H555.341L551.005 27.904H551.837L547.517 38H545.373ZM547.693 35.408L548.253 33.776H554.301L554.861 35.408H547.693ZM558.942 38V26.8H563.838C565.054 26.8 566.12 27.0347 567.038 27.504C567.955 27.9733 568.67 28.624 569.182 29.456C569.694 30.288 569.95 31.2693 569.95 32.4C569.95 33.52 569.694 34.5013 569.182 35.344C568.67 36.176 567.955 36.8267 567.038 37.296C566.12 37.7653 565.054 38 563.838 38H558.942ZM561.022 36.24H563.742C564.584 36.24 565.31 36.08 565.918 35.76C566.536 35.44 567.011 34.992 567.342 34.416C567.683 33.84 567.854 33.168 567.854 32.4C567.854 31.6213 567.683 30.9493 567.342 30.384C567.011 29.808 566.536 29.36 565.918 29.04C565.31 28.72 564.584 28.56 563.742 28.56H561.022V36.24ZM574.08 31.456H579.648V33.168H574.08V31.456ZM574.24 36.256H580.56V38H572.16V26.8H580.336V28.544H574.24V36.256ZM582.879 38V26.8H587.487C588.479 26.8 589.327 26.96 590.031 27.28C590.746 27.6 591.295 28.0587 591.679 28.656C592.063 29.2533 592.255 29.9627 592.255 30.784C592.255 31.6053 592.063 32.3147 591.679 32.912C591.295 33.4987 590.746 33.952 590.031 34.272C589.327 34.5813 588.479 34.736 587.487 34.736H584.031L584.959 33.792V38H582.879ZM590.207 38L587.375 33.936H589.599L592.447 38H590.207ZM584.959 34.016L584.031 33.024H587.391C588.308 33.024 588.996 32.8267 589.455 32.432C589.924 32.0373 590.159 31.488 590.159 30.784C590.159 30.0693 589.924 29.52 589.455 29.136C588.996 28.752 588.308 28.56 587.391 28.56H584.031L584.959 27.536V34.016ZM594.582 38V26.8H599.83C601.174 26.8 602.198 27.0667 602.902 27.6C603.606 28.1227 603.958 28.8267 603.958 29.712C603.958 30.3093 603.819 30.8213 603.542 31.248C603.265 31.664 602.891 31.9893 602.422 32.224C601.963 32.448 601.462 32.56 600.918 32.56L601.206 31.984C601.835 31.984 602.401 32.1013 602.902 32.336C603.403 32.56 603.798 32.8907 604.086 33.328C604.385 33.7653 604.534 34.3093 604.534 34.96C604.534 35.92 604.166 36.6667 603.43 37.2C602.694 37.7333 601.601 38 600.15 38H594.582ZM596.662 36.368H600.022C600.801 36.368 601.398 36.24 601.814 35.984C602.23 35.728 602.438 35.3173 602.438 34.752C602.438 34.1973 602.23 33.792 601.814 33.536C601.398 33.2693 600.801 33.136 600.022 33.136H596.502V31.52H599.606C600.331 31.52 600.886 31.392 601.27 31.136C601.665 30.88 601.862 30.496 601.862 29.984C601.862 29.4613 601.665 29.072 601.27 28.816C600.886 28.56 600.331 28.432 599.606 28.432H596.662V36.368ZM612.002 38.16C611.127 38.16 610.322 38.016 609.586 37.728C608.85 37.44 608.21 37.04 607.666 36.528C607.122 36.0053 606.701 35.3973 606.402 34.704C606.103 34 605.954 33.232 605.954 32.4C605.954 31.568 606.103 30.8053 606.402 30.112C606.701 29.408 607.122 28.8 607.666 28.288C608.21 27.7653 608.85 27.36 609.586 27.072C610.322 26.784 611.122 26.64 611.986 26.64C612.861 26.64 613.661 26.784 614.386 27.072C615.122 27.36 615.762 27.7653 616.306 28.288C616.85 28.8 617.271 29.408 617.57 30.112C617.869 30.8053 618.018 31.568 618.018 32.4C618.018 33.232 617.869 34 617.57 34.704C617.271 35.408 616.85 36.016 616.306 36.528C615.762 37.04 615.122 37.44 614.386 37.728C613.661 38.016 612.866 38.16 612.002 38.16ZM611.986 36.336C612.551 36.336 613.074 36.24 613.554 36.048C614.034 35.856 614.45 35.584 614.802 35.232C615.154 34.8693 615.426 34.4533 615.618 33.984C615.821 33.504 615.922 32.976 615.922 32.4C615.922 31.824 615.821 31.3013 615.618 30.832C615.426 30.352 615.154 29.936 614.802 29.584C614.45 29.2213 614.034 28.944 613.554 28.752C613.074 28.56 612.551 28.464 611.986 28.464C611.421 28.464 610.898 28.56 610.418 28.752C609.949 28.944 609.533 29.2213 609.17 29.584C608.818 29.936 608.541 30.352 608.338 30.832C608.146 31.3013 608.05 31.824 608.05 32.4C608.05 32.9653 608.146 33.488 608.338 33.968C608.541 34.448 608.818 34.8693 609.17 35.232C609.522 35.584 609.938 35.856 610.418 36.048C610.898 36.24 611.421 36.336 611.986 36.336ZM618.482 38L623.523 26.8H625.571L630.627 38H628.451L624.115 27.904H624.947L620.627 38H618.482ZM620.803 35.408L621.363 33.776H627.411L627.97 35.408H620.803ZM632.051 38V26.8H636.659C637.651 26.8 638.499 26.96 639.203 27.28C639.918 27.6 640.467 28.0587 640.851 28.656C641.235 29.2533 641.427 29.9627 641.427 30.784C641.427 31.6053 641.235 32.3147 640.851 32.912C640.467 33.4987 639.918 33.952 639.203 34.272C638.499 34.5813 637.651 34.736 636.659 34.736H633.203L634.131 33.792V38H632.051ZM639.379 38L636.547 33.936H638.771L641.619 38H639.379ZM634.131 34.016L633.203 33.024H636.563C637.48 33.024 638.168 32.8267 638.627 32.432C639.096 32.0373 639.331 31.488 639.331 30.784C639.331 30.0693 639.096 29.52 638.627 29.136C638.168 28.752 637.48 28.56 636.563 28.56H633.203L634.131 27.536V34.016ZM643.754 38V26.8H648.65C649.866 26.8 650.933 27.0347 651.85 27.504C652.767 27.9733 653.482 28.624 653.994 29.456C654.506 30.288 654.762 31.2693 654.762 32.4C654.762 33.52 654.506 34.5013 653.994 35.344C653.482 36.176 652.767 36.8267 651.85 37.296C650.933 37.7653 649.866 38 648.65 38H643.754ZM645.834 36.24H648.554C649.397 36.24 650.122 36.08 650.73 35.76C651.349 35.44 651.823 34.992 652.154 34.416C652.495 33.84 652.666 33.168 652.666 32.4C652.666 31.6213 652.495 30.9493 652.154 30.384C651.823 29.808 651.349 29.36 650.73 29.04C650.122 28.72 649.397 28.56 648.554 28.56H645.834V36.24ZM485.785 64V53.6L486.697 54.544H483.417V52.8H487.865V64H485.785ZM491.879 64V53.6L492.791 54.544H489.511V52.8H493.959V64H491.879ZM499.893 64.16C499.103 64.16 498.33 64.048 497.573 63.824C496.826 63.5893 496.197 63.2693 495.685 62.864L496.565 61.248C496.97 61.5787 497.461 61.8453 498.037 62.048C498.623 62.2507 499.231 62.352 499.861 62.352C500.597 62.352 501.173 62.1973 501.589 61.888C502.015 61.5787 502.229 61.1627 502.229 60.64C502.229 60.288 502.138 59.9787 501.957 59.712C501.786 59.4453 501.477 59.2427 501.029 59.104C500.591 58.9653 499.989 58.896 499.221 58.896H496.517L497.093 52.8H503.669V54.544H497.861L498.949 53.552L498.517 58.112L497.429 57.136H499.685C500.794 57.136 501.685 57.2853 502.357 57.584C503.039 57.872 503.535 58.2773 503.845 58.8C504.165 59.312 504.325 59.8987 504.325 60.56C504.325 61.2107 504.165 61.808 503.845 62.352C503.525 62.896 503.034 63.3333 502.373 63.664C501.722 63.9947 500.895 64.16 499.893 64.16ZM510.196 64.16C509.311 64.16 508.511 63.936 507.796 63.488C507.092 63.04 506.538 62.3893 506.132 61.536C505.727 60.672 505.524 59.6267 505.524 58.4C505.524 57.1733 505.727 56.1333 506.132 55.28C506.538 54.416 507.092 53.76 507.796 53.312C508.511 52.864 509.311 52.64 510.196 52.64C511.092 52.64 511.892 52.864 512.596 53.312C513.3 53.76 513.855 54.416 514.26 55.28C514.676 56.1333 514.884 57.1733 514.884 58.4C514.884 59.6267 514.676 60.672 514.26 61.536C513.855 62.3893 513.3 63.04 512.596 63.488C511.892 63.936 511.092 64.16 510.196 64.16ZM510.196 62.352C510.719 62.352 511.172 62.2133 511.556 61.936C511.94 61.648 512.239 61.2107 512.452 60.624C512.676 60.0373 512.788 59.296 512.788 58.4C512.788 57.4933 512.676 56.752 512.452 56.176C512.239 55.5893 511.94 55.1573 511.556 54.88C511.172 54.592 510.719 54.448 510.196 54.448C509.695 54.448 509.247 54.592 508.852 54.88C508.468 55.1573 508.164 55.5893 507.94 56.176C507.727 56.752 507.62 57.4933 507.62 58.4C507.62 59.296 507.727 60.0373 507.94 60.624C508.164 61.2107 508.468 61.648 508.852 61.936C509.247 62.2133 509.695 62.352 510.196 62.352ZM515.574 64L519.334 59.104L519.302 60.176L515.718 55.456H517.942L520.454 58.816H519.606L522.134 55.456H524.294L520.678 60.176L520.694 59.104L524.438 64H522.182L519.542 60.432L520.374 60.544L517.782 64H515.574ZM529.082 52.64C530.106 52.64 530.975 52.8587 531.69 53.296C532.415 53.7227 532.97 54.3467 533.354 55.168C533.738 55.9893 533.93 57.0027 533.93 58.208C533.93 59.488 533.695 60.5707 533.226 61.456C532.767 62.3413 532.127 63.0133 531.306 63.472C530.484 63.9307 529.53 64.16 528.442 64.16C527.876 64.16 527.338 64.1013 526.826 63.984C526.314 63.8667 525.871 63.6853 525.498 63.44L526.266 61.872C526.575 62.0747 526.911 62.2187 527.274 62.304C527.636 62.3787 528.01 62.416 528.394 62.416C529.45 62.416 530.287 62.0907 530.906 61.44C531.524 60.7893 531.834 59.8293 531.834 58.56C531.834 58.3573 531.828 58.1227 531.818 57.856C531.807 57.5787 531.77 57.3013 531.706 57.024L532.346 57.728C532.164 58.1653 531.903 58.5333 531.562 58.832C531.22 59.12 530.82 59.3387 530.362 59.488C529.903 59.6373 529.396 59.712 528.842 59.712C528.116 59.712 527.46 59.5733 526.874 59.296C526.298 59.008 525.839 58.608 525.498 58.096C525.156 57.5733 524.986 56.9653 524.986 56.272C524.986 55.5253 525.167 54.8853 525.53 54.352C525.892 53.808 526.383 53.3867 527.002 53.088C527.631 52.7893 528.324 52.64 529.082 52.64ZM529.194 54.272C528.767 54.272 528.388 54.352 528.058 54.512C527.727 54.6613 527.466 54.88 527.274 55.168C527.092 55.4453 527.002 55.7813 527.002 56.176C527.002 56.7627 527.204 57.2267 527.61 57.568C528.015 57.9093 528.559 58.08 529.242 58.08C529.69 58.08 530.084 58 530.426 57.84C530.767 57.6693 531.034 57.44 531.226 57.152C531.418 56.8533 531.514 56.5227 531.514 56.16C531.514 55.808 531.423 55.4933 531.242 55.216C531.06 54.928 530.799 54.6987 530.458 54.528C530.116 54.3573 529.695 54.272 529.194 54.272ZM540.009 64.16C539.123 64.16 538.323 63.936 537.609 63.488C536.905 63.04 536.35 62.3893 535.945 61.536C535.539 60.672 535.337 59.6267 535.337 58.4C535.337 57.1733 535.539 56.1333 535.945 55.28C536.35 54.416 536.905 53.76 537.609 53.312C538.323 52.864 539.123 52.64 540.009 52.64C540.905 52.64 541.705 52.864 542.409 53.312C543.113 53.76 543.667 54.416 544.073 55.28C544.489 56.1333 544.697 57.1733 544.697 58.4C544.697 59.6267 544.489 60.672 544.073 61.536C543.667 62.3893 543.113 63.04 542.409 63.488C541.705 63.936 540.905 64.16 540.009 64.16ZM540.009 62.352C540.531 62.352 540.985 62.2133 541.369 61.936C541.753 61.648 542.051 61.2107 542.265 60.624C542.489 60.0373 542.601 59.296 542.601 58.4C542.601 57.4933 542.489 56.752 542.265 56.176C542.051 55.5893 541.753 55.1573 541.369 54.88C540.985 54.592 540.531 54.448 540.009 54.448C539.507 54.448 539.059 54.592 538.665 54.88C538.281 55.1573 537.977 55.5893 537.753 56.176C537.539 56.752 537.433 57.4933 537.433 58.4C537.433 59.296 537.539 60.0373 537.753 60.624C537.977 61.2107 538.281 61.648 538.665 61.936C539.059 62.2133 539.507 62.352 540.009 62.352ZM551.446 64.112C550.753 64.112 550.118 63.952 549.542 63.632C548.977 63.312 548.524 62.832 548.182 62.192C547.852 61.5413 547.686 60.72 547.686 59.728C547.686 58.7253 547.846 57.904 548.166 57.264C548.497 56.624 548.945 56.1493 549.51 55.84C550.076 55.52 550.721 55.36 551.446 55.36C552.289 55.36 553.03 55.5413 553.67 55.904C554.321 56.2667 554.833 56.7733 555.206 57.424C555.59 58.0747 555.782 58.8427 555.782 59.728C555.782 60.6133 555.59 61.3867 555.206 62.048C554.833 62.6987 554.321 63.2053 553.67 63.568C553.03 63.9307 552.289 64.112 551.446 64.112ZM546.71 67.104V55.456H548.614V57.472L548.55 59.744L548.71 62.016V67.104H546.71ZM551.222 62.4C551.702 62.4 552.129 62.2933 552.502 62.08C552.886 61.8667 553.19 61.5573 553.414 61.152C553.638 60.7467 553.75 60.272 553.75 59.728C553.75 59.1733 553.638 58.6987 553.414 58.304C553.19 57.8987 552.886 57.5893 552.502 57.376C552.129 57.1627 551.702 57.056 551.222 57.056C550.742 57.056 550.31 57.1627 549.926 57.376C549.542 57.5893 549.238 57.8987 549.014 58.304C548.79 58.6987 548.678 59.1733 548.678 59.728C548.678 60.272 548.79 60.7467 549.014 61.152C549.238 61.5573 549.542 61.8667 549.926 62.08C550.31 62.2933 550.742 62.4 551.222 62.4ZM556.23 64L559.99 59.104L559.958 60.176L556.374 55.456H558.598L561.11 58.816H560.262L562.79 55.456H564.95L561.334 60.176L561.35 59.104L565.094 64H562.838L560.198 60.432L561.03 60.544L558.438 64H556.23ZM570.56 60.384V58.72H574.96V60.384H570.56ZM576.876 62.128V60.464L583.628 57.936V58.864L576.876 56.336V54.672L584.252 57.536V59.264L576.876 62.128ZM593.919 64.16C593.13 64.16 592.357 64.048 591.599 63.824C590.853 63.5893 590.223 63.2693 589.711 62.864L590.607 61.248C591.013 61.5787 591.503 61.8453 592.079 62.048C592.655 62.2507 593.258 62.352 593.887 62.352C594.634 62.352 595.215 62.2027 595.631 61.904C596.047 61.5947 596.255 61.1787 596.255 60.656C596.255 60.144 596.063 59.7387 595.679 59.44C595.295 59.1413 594.677 58.992 593.823 58.992H592.799V57.568L595.999 53.76L596.271 54.544H590.255V52.8H597.887V54.192L594.687 58L593.599 57.36H594.223C595.599 57.36 596.629 57.6693 597.311 58.288C598.005 58.896 598.351 59.68 598.351 60.64C598.351 61.2693 598.191 61.8507 597.871 62.384C597.551 62.9173 597.061 63.3493 596.399 63.68C595.749 64 594.922 64.16 593.919 64.16ZM603.154 64.16C602.364 64.16 601.591 64.048 600.834 63.824C600.087 63.5893 599.458 63.2693 598.946 62.864L599.842 61.248C600.247 61.5787 600.738 61.8453 601.314 62.048C601.89 62.2507 602.492 62.352 603.122 62.352C603.868 62.352 604.45 62.2027 604.866 61.904C605.282 61.5947 605.49 61.1787 605.49 60.656C605.49 60.144 605.298 59.7387 604.914 59.44C604.53 59.1413 603.911 58.992 603.058 58.992H602.034V57.568L605.234 53.76L605.506 54.544H599.49V52.8H607.122V54.192L603.922 58L602.834 57.36H603.458C604.834 57.36 605.863 57.6693 606.546 58.288C607.239 58.896 607.586 59.68 607.586 60.64C607.586 61.2693 607.426 61.8507 607.106 62.384C606.786 62.9173 606.295 63.3493 605.634 63.68C604.983 64 604.156 64.16 603.154 64.16ZM613.794 64.16C612.781 64.16 611.912 63.9467 611.186 63.52C610.461 63.0827 609.906 62.4533 609.522 61.632C609.138 60.8107 608.946 59.7973 608.946 58.592C608.946 57.312 609.176 56.2293 609.634 55.344C610.104 54.4587 610.749 53.7867 611.57 53.328C612.402 52.8693 613.357 52.64 614.434 52.64C615 52.64 615.538 52.6987 616.05 52.816C616.573 52.9333 617.016 53.1147 617.378 53.36L616.61 54.928C616.301 54.7253 615.965 54.5867 615.602 54.512C615.25 54.4267 614.877 54.384 614.482 54.384C613.426 54.384 612.589 54.7093 611.97 55.36C611.352 56.0107 611.042 56.9707 611.042 58.24C611.042 58.4427 611.048 58.6827 611.058 58.96C611.069 59.2267 611.106 59.4987 611.17 59.776L610.53 59.072C610.722 58.6347 610.984 58.272 611.314 57.984C611.656 57.6853 612.056 57.4613 612.514 57.312C612.984 57.1627 613.49 57.088 614.034 57.088C614.77 57.088 615.426 57.232 616.002 57.52C616.578 57.7973 617.037 58.1973 617.378 58.72C617.72 59.232 617.89 59.8347 617.89 60.528C617.89 61.264 617.709 61.904 617.346 62.448C616.984 62.992 616.493 63.4133 615.874 63.712C615.256 64.0107 614.562 64.16 613.794 64.16ZM613.682 62.528C614.109 62.528 614.488 62.4533 614.818 62.304C615.149 62.144 615.405 61.92 615.586 61.632C615.778 61.344 615.874 61.008 615.874 60.624C615.874 60.0373 615.672 59.5733 615.266 59.232C614.861 58.8907 614.317 58.72 613.634 58.72C613.186 58.72 612.792 58.8053 612.45 58.976C612.12 59.136 611.853 59.36 611.65 59.648C611.458 59.936 611.362 60.2667 611.362 60.64C611.362 60.9813 611.453 61.296 611.634 61.584C611.816 61.872 612.077 62.1013 612.418 62.272C612.77 62.4427 613.192 62.528 613.682 62.528ZM618.183 64L621.943 59.104L621.911 60.176L618.327 55.456H620.551L623.063 58.816H622.215L624.743 55.456H626.903L623.287 60.176L623.303 59.104L627.047 64H624.791L622.151 60.432L622.983 60.544L620.391 64H618.183ZM632.607 64.16C631.593 64.16 630.724 63.9467 629.999 63.52C629.273 63.0827 628.719 62.4533 628.335 61.632C627.951 60.8107 627.759 59.7973 627.759 58.592C627.759 57.312 627.988 56.2293 628.447 55.344C628.916 54.4587 629.561 53.7867 630.383 53.328C631.215 52.8693 632.169 52.64 633.247 52.64C633.812 52.64 634.351 52.6987 634.863 52.816C635.385 52.9333 635.828 53.1147 636.191 53.36L635.423 54.928C635.113 54.7253 634.777 54.5867 634.415 54.512C634.063 54.4267 633.689 54.384 633.295 54.384C632.239 54.384 631.401 54.7093 630.783 55.36C630.164 56.0107 629.855 56.9707 629.855 58.24C629.855 58.4427 629.86 58.6827 629.871 58.96C629.881 59.2267 629.919 59.4987 629.983 59.776L629.343 59.072C629.535 58.6347 629.796 58.272 630.127 57.984C630.468 57.6853 630.868 57.4613 631.327 57.312C631.796 57.1627 632.303 57.088 632.847 57.088C633.583 57.088 634.239 57.232 634.815 57.52C635.391 57.7973 635.849 58.1973 636.191 58.72C636.532 59.232 636.703 59.8347 636.703 60.528C636.703 61.264 636.521 61.904 636.159 62.448C635.796 62.992 635.305 63.4133 634.687 63.712C634.068 64.0107 633.375 64.16 632.607 64.16ZM632.495 62.528C632.921 62.528 633.3 62.4533 633.631 62.304C633.961 62.144 634.217 61.92 634.399 61.632C634.591 61.344 634.687 61.008 634.687 60.624C634.687 60.0373 634.484 59.5733 634.079 59.232C633.673 58.8907 633.129 58.72 632.447 58.72C631.999 58.72 631.604 58.8053 631.263 58.976C630.932 59.136 630.665 59.36 630.463 59.648C630.271 59.936 630.175 60.2667 630.175 60.64C630.175 60.9813 630.265 61.296 630.447 61.584C630.628 61.872 630.889 62.1013 631.231 62.272C631.583 62.4427 632.004 62.528 632.495 62.528ZM642.462 64.16C641.577 64.16 640.777 63.936 640.062 63.488C639.358 63.04 638.803 62.3893 638.398 61.536C637.993 60.672 637.79 59.6267 637.79 58.4C637.79 57.1733 637.993 56.1333 638.398 55.28C638.803 54.416 639.358 53.76 640.062 53.312C640.777 52.864 641.577 52.64 642.462 52.64C643.358 52.64 644.158 52.864 644.862 53.312C645.566 53.76 646.121 54.416 646.526 55.28C646.942 56.1333 647.15 57.1733 647.15 58.4C647.15 59.6267 646.942 60.672 646.526 61.536C646.121 62.3893 645.566 63.04 644.862 63.488C644.158 63.936 643.358 64.16 642.462 64.16ZM642.462 62.352C642.985 62.352 643.438 62.2133 643.822 61.936C644.206 61.648 644.505 61.2107 644.718 60.624C644.942 60.0373 645.054 59.296 645.054 58.4C645.054 57.4933 644.942 56.752 644.718 56.176C644.505 55.5893 644.206 55.1573 643.822 54.88C643.438 54.592 642.985 54.448 642.462 54.448C641.961 54.448 641.513 54.592 641.118 54.88C640.734 55.1573 640.43 55.5893 640.206 56.176C639.993 56.752 639.886 57.4933 639.886 58.4C639.886 59.296 639.993 60.0373 640.206 60.624C640.43 61.2107 640.734 61.648 641.118 61.936C641.513 62.2133 641.961 62.352 642.462 62.352ZM653.9 64.112C653.206 64.112 652.572 63.952 651.996 63.632C651.43 63.312 650.977 62.832 650.636 62.192C650.305 61.5413 650.14 60.72 650.14 59.728C650.14 58.7253 650.3 57.904 650.62 57.264C650.95 56.624 651.398 56.1493 651.964 55.84C652.529 55.52 653.174 55.36 653.9 55.36C654.742 55.36 655.484 55.5413 656.124 55.904C656.774 56.2667 657.286 56.7733 657.66 57.424C658.044 58.0747 658.236 58.8427 658.236 59.728C658.236 60.6133 658.044 61.3867 657.66 62.048C657.286 62.6987 656.774 63.2053 656.124 63.568C655.484 63.9307 654.742 64.112 653.9 64.112ZM649.164 67.104V55.456H651.068V57.472L651.004 59.744L651.164 62.016V67.104H649.164ZM653.676 62.4C654.156 62.4 654.582 62.2933 654.956 62.08C655.34 61.8667 655.644 61.5573 655.868 61.152C656.092 60.7467 656.204 60.272 656.204 59.728C656.204 59.1733 656.092 58.6987 655.868 58.304C655.644 57.8987 655.34 57.5893 654.956 57.376C654.582 57.1627 654.156 57.056 653.676 57.056C653.196 57.056 652.764 57.1627 652.38 57.376C651.996 57.5893 651.692 57.8987 651.468 58.304C651.244 58.6987 651.132 59.1733 651.132 59.728C651.132 60.272 651.244 60.7467 651.468 61.152C651.692 61.5573 651.996 61.8667 652.38 62.08C652.764 62.2933 653.196 62.4 653.676 62.4ZM658.683 64L662.443 59.104L662.411 60.176L658.827 55.456H661.051L663.563 58.816H662.715L665.243 55.456H667.403L663.787 60.176L663.803 59.104L667.547 64H665.291L662.651 60.432L663.483 60.544L660.891 64H658.683Z" fill="#fff"/>
</svg>
