<svg width="336" height="60" viewBox="0 0 336 60" fill="none" xmlns="http://www.w3.org/2000/svg">
<rect width="336" height="60" fill="#000"/>
<path d="M87.9512 23L92.9913 11.8H95.0393L100.095 23H97.9193L93.5833 12.904H94.4153L90.0953 23H87.9512ZM90.2713 20.408L90.8313 18.776H96.8793L97.4392 20.408H90.2713ZM101.52 23V11.8H106.416C107.632 11.8 108.698 12.0347 109.616 12.504C110.533 12.9733 111.248 13.624 111.76 14.456C112.272 15.288 112.528 16.2693 112.528 17.4C112.528 18.52 112.272 19.5013 111.76 20.344C111.248 21.176 110.533 21.8267 109.616 22.296C108.698 22.7653 107.632 23 106.416 23H101.52ZM103.6 21.24H106.32C107.162 21.24 107.888 21.08 108.496 20.76C109.114 20.44 109.589 19.992 109.92 19.416C110.261 18.84 110.432 18.168 110.432 17.4C110.432 16.6213 110.261 15.9493 109.92 15.384C109.589 14.808 109.114 14.36 108.496 14.04C107.888 13.72 107.162 13.56 106.32 13.56H103.6V21.24ZM119.16 23V11.8H121.24V21.24H127.096V23H119.16ZM130.658 16.456H136.226V18.168H130.658V16.456ZM130.818 21.256H137.138V23H128.738V11.8H136.914V13.544H130.818V21.256ZM137.873 23L142.913 11.8H144.961L150.017 23H147.841L143.505 12.904H144.337L140.017 23H137.873ZM140.193 20.408L140.753 18.776H146.801L147.361 20.408H140.193ZM151.442 23V11.8H156.338C157.554 11.8 158.62 12.0347 159.538 12.504C160.455 12.9733 161.17 13.624 161.682 14.456C162.194 15.288 162.45 16.2693 162.45 17.4C162.45 18.52 162.194 19.5013 161.682 20.344C161.17 21.176 160.455 21.8267 159.538 22.296C158.62 22.7653 157.554 23 156.338 23H151.442ZM153.522 21.24H156.242C157.084 21.24 157.81 21.08 158.418 20.76C159.036 20.44 159.511 19.992 159.842 19.416C160.183 18.84 160.354 18.168 160.354 17.4C160.354 16.6213 160.183 15.9493 159.842 15.384C159.511 14.808 159.036 14.36 158.418 14.04C157.81 13.72 157.084 13.56 156.242 13.56H153.522V21.24ZM166.58 16.456H172.148V18.168H166.58V16.456ZM166.74 21.256H173.06V23H164.66V11.8H172.836V13.544H166.74V21.256ZM175.379 23V11.8H179.987C180.979 11.8 181.827 11.96 182.531 12.28C183.246 12.6 183.795 13.0587 184.179 13.656C184.563 14.2533 184.755 14.9627 184.755 15.784C184.755 16.6053 184.563 17.3147 184.179 17.912C183.795 18.4987 183.246 18.952 182.531 19.272C181.827 19.5813 180.979 19.736 179.987 19.736H176.531L177.459 18.792V23H175.379ZM182.707 23L179.875 18.936H182.099L184.947 23H182.707ZM177.459 19.016L176.531 18.024H179.891C180.808 18.024 181.496 17.8267 181.955 17.432C182.424 17.0373 182.659 16.488 182.659 15.784C182.659 15.0693 182.424 14.52 181.955 14.136C181.496 13.752 180.808 13.56 179.891 13.56H176.531L177.459 12.536V19.016ZM187.082 23V11.8H192.33C193.674 11.8 194.698 12.0667 195.402 12.6C196.106 13.1227 196.458 13.8267 196.458 14.712C196.458 15.3093 196.319 15.8213 196.042 16.248C195.765 16.664 195.391 16.9893 194.922 17.224C194.463 17.448 193.962 17.56 193.418 17.56L193.706 16.984C194.335 16.984 194.901 17.1013 195.402 17.336C195.903 17.56 196.298 17.8907 196.586 18.328C196.885 18.7653 197.034 19.3093 197.034 19.96C197.034 20.92 196.666 21.6667 195.93 22.2C195.194 22.7333 194.101 23 192.65 23H187.082ZM189.162 21.368H192.522C193.301 21.368 193.898 21.24 194.314 20.984C194.73 20.728 194.938 20.3173 194.938 19.752C194.938 19.1973 194.73 18.792 194.314 18.536C193.898 18.2693 193.301 18.136 192.522 18.136H189.002V16.52H192.106C192.831 16.52 193.386 16.392 193.77 16.136C194.165 15.88 194.362 15.496 194.362 14.984C194.362 14.4613 194.165 14.072 193.77 13.816C193.386 13.56 192.831 13.432 192.106 13.432H189.162V21.368ZM204.502 23.16C203.627 23.16 202.822 23.016 202.086 22.728C201.35 22.44 200.71 22.04 200.166 21.528C199.622 21.0053 199.201 20.3973 198.902 19.704C198.603 19 198.454 18.232 198.454 17.4C198.454 16.568 198.603 15.8053 198.902 15.112C199.201 14.408 199.622 13.8 200.166 13.288C200.71 12.7653 201.35 12.36 202.086 12.072C202.822 11.784 203.622 11.64 204.486 11.64C205.361 11.64 206.161 11.784 206.886 12.072C207.622 12.36 208.262 12.7653 208.806 13.288C209.35 13.8 209.771 14.408 210.07 15.112C210.369 15.8053 210.518 16.568 210.518 17.4C210.518 18.232 210.369 19 210.07 19.704C209.771 20.408 209.35 21.016 208.806 21.528C208.262 22.04 207.622 22.44 206.886 22.728C206.161 23.016 205.366 23.16 204.502 23.16ZM204.486 21.336C205.051 21.336 205.574 21.24 206.054 21.048C206.534 20.856 206.95 20.584 207.302 20.232C207.654 19.8693 207.926 19.4533 208.118 18.984C208.321 18.504 208.422 17.976 208.422 17.4C208.422 16.824 208.321 16.3013 208.118 15.832C207.926 15.352 207.654 14.936 207.302 14.584C206.95 14.2213 206.534 13.944 206.054 13.752C205.574 13.56 205.051 13.464 204.486 13.464C203.921 13.464 203.398 13.56 202.918 13.752C202.449 13.944 202.033 14.2213 201.67 14.584C201.318 14.936 201.041 15.352 200.838 15.832C200.646 16.3013 200.55 16.824 200.55 17.4C200.55 17.9653 200.646 18.488 200.838 18.968C201.041 19.448 201.318 19.8693 201.67 20.232C202.022 20.584 202.438 20.856 202.918 21.048C203.398 21.24 203.921 21.336 204.486 21.336ZM210.982 23L216.023 11.8H218.071L223.127 23H220.951L216.615 12.904H217.447L213.127 23H210.982ZM213.303 20.408L213.863 18.776H219.911L220.47 20.408H213.303ZM224.551 23V11.8H229.159C230.151 11.8 230.999 11.96 231.703 12.28C232.418 12.6 232.967 13.0587 233.351 13.656C233.735 14.2533 233.927 14.9627 233.927 15.784C233.927 16.6053 233.735 17.3147 233.351 17.912C232.967 18.4987 232.418 18.952 231.703 19.272C230.999 19.5813 230.151 19.736 229.159 19.736H225.703L226.631 18.792V23H224.551ZM231.879 23L229.047 18.936H231.271L234.119 23H231.879ZM226.631 19.016L225.703 18.024H229.063C229.98 18.024 230.668 17.8267 231.127 17.432C231.596 17.0373 231.831 16.488 231.831 15.784C231.831 15.0693 231.596 14.52 231.127 14.136C230.668 13.752 229.98 13.56 229.063 13.56H225.703L226.631 12.536V19.016ZM236.254 23V11.8H241.15C242.366 11.8 243.433 12.0347 244.35 12.504C245.267 12.9733 245.982 13.624 246.494 14.456C247.006 15.288 247.262 16.2693 247.262 17.4C247.262 18.52 247.006 19.5013 246.494 20.344C245.982 21.176 245.267 21.8267 244.35 22.296C243.433 22.7653 242.366 23 241.15 23H236.254ZM238.334 21.24H241.054C241.897 21.24 242.622 21.08 243.23 20.76C243.849 20.44 244.323 19.992 244.654 19.416C244.995 18.84 245.166 18.168 245.166 17.4C245.166 16.6213 244.995 15.9493 244.654 15.384C244.323 14.808 243.849 14.36 243.23 14.04C242.622 13.72 241.897 13.56 241.054 13.56H238.334V21.24ZM133.216 49.16C132.427 49.16 131.654 49.048 130.896 48.824C130.15 48.5893 129.52 48.2693 129.008 47.864L129.904 46.248C130.31 46.5787 130.8 46.8453 131.376 47.048C131.952 47.2507 132.555 47.352 133.184 47.352C133.931 47.352 134.512 47.2027 134.928 46.904C135.344 46.5947 135.552 46.1787 135.552 45.656C135.552 45.144 135.36 44.7387 134.976 44.44C134.592 44.1413 133.974 43.992 133.12 43.992H132.096V42.568L135.296 38.76L135.568 39.544H129.552V37.8H137.184V39.192L133.984 43L132.896 42.36H133.52C134.896 42.36 135.926 42.6693 136.608 43.288C137.302 43.896 137.648 44.68 137.648 45.64C137.648 46.2693 137.488 46.8507 137.168 47.384C136.848 47.9173 136.358 48.3493 135.696 48.68C135.046 49 134.219 49.16 133.216 49.16ZM142.451 49.16C141.661 49.16 140.888 49.048 140.131 48.824C139.384 48.5893 138.755 48.2693 138.243 47.864L139.139 46.248C139.544 46.5787 140.035 46.8453 140.611 47.048C141.187 47.2507 141.789 47.352 142.419 47.352C143.165 47.352 143.747 47.2027 144.163 46.904C144.579 46.5947 144.787 46.1787 144.787 45.656C144.787 45.144 144.595 44.7387 144.211 44.44C143.827 44.1413 143.208 43.992 142.355 43.992H141.331V42.568L144.531 38.76L144.803 39.544H138.787V37.8H146.419V39.192L143.219 43L142.131 42.36H142.755C144.131 42.36 145.16 42.6693 145.843 43.288C146.536 43.896 146.883 44.68 146.883 45.64C146.883 46.2693 146.723 46.8507 146.403 47.384C146.083 47.9173 145.592 48.3493 144.931 48.68C144.28 49 143.453 49.16 142.451 49.16ZM153.091 49.16C152.078 49.16 151.208 48.9467 150.483 48.52C149.758 48.0827 149.203 47.4533 148.819 46.632C148.435 45.8107 148.243 44.7973 148.243 43.592C148.243 42.312 148.472 41.2293 148.931 40.344C149.4 39.4587 150.046 38.7867 150.867 38.328C151.699 37.8693 152.654 37.64 153.731 37.64C154.296 37.64 154.835 37.6987 155.347 37.816C155.87 37.9333 156.312 38.1147 156.675 38.36L155.907 39.928C155.598 39.7253 155.262 39.5867 154.899 39.512C154.547 39.4267 154.174 39.384 153.779 39.384C152.723 39.384 151.886 39.7093 151.267 40.36C150.648 41.0107 150.339 41.9707 150.339 43.24C150.339 43.4427 150.344 43.6827 150.355 43.96C150.366 44.2267 150.403 44.4987 150.467 44.776L149.827 44.072C150.019 43.6347 150.28 43.272 150.611 42.984C150.952 42.6853 151.352 42.4613 151.811 42.312C152.28 42.1627 152.787 42.088 153.331 42.088C154.067 42.088 154.723 42.232 155.299 42.52C155.875 42.7973 156.334 43.1973 156.675 43.72C157.016 44.232 157.187 44.8347 157.187 45.528C157.187 46.264 157.006 46.904 156.643 47.448C156.28 47.992 155.79 48.4133 155.171 48.712C154.552 49.0107 153.859 49.16 153.091 49.16ZM152.979 47.528C153.406 47.528 153.784 47.4533 154.115 47.304C154.446 47.144 154.702 46.92 154.883 46.632C155.075 46.344 155.171 46.008 155.171 45.624C155.171 45.0373 154.968 44.5733 154.563 44.232C154.158 43.8907 153.614 43.72 152.931 43.72C152.483 43.72 152.088 43.8053 151.747 43.976C151.416 44.136 151.15 44.36 150.947 44.648C150.755 44.936 150.659 45.2667 150.659 45.64C150.659 45.9813 150.75 46.296 150.931 46.584C151.112 46.872 151.374 47.1013 151.715 47.272C152.067 47.4427 152.488 47.528 152.979 47.528ZM157.48 49L161.24 44.104L161.208 45.176L157.624 40.456H159.848L162.36 43.816H161.512L164.04 40.456H166.2L162.584 45.176L162.6 44.104L166.344 49H164.088L161.448 45.432L162.28 45.544L159.688 49H157.48ZM171.904 49.16C170.89 49.16 170.021 48.9467 169.296 48.52C168.57 48.0827 168.016 47.4533 167.632 46.632C167.248 45.8107 167.056 44.7973 167.056 43.592C167.056 42.312 167.285 41.2293 167.744 40.344C168.213 39.4587 168.858 38.7867 169.68 38.328C170.512 37.8693 171.466 37.64 172.544 37.64C173.109 37.64 173.648 37.6987 174.16 37.816C174.682 37.9333 175.125 38.1147 175.488 38.36L174.72 39.928C174.41 39.7253 174.074 39.5867 173.712 39.512C173.36 39.4267 172.986 39.384 172.592 39.384C171.536 39.384 170.698 39.7093 170.08 40.36C169.461 41.0107 169.152 41.9707 169.152 43.24C169.152 43.4427 169.157 43.6827 169.168 43.96C169.178 44.2267 169.216 44.4987 169.28 44.776L168.64 44.072C168.832 43.6347 169.093 43.272 169.424 42.984C169.765 42.6853 170.165 42.4613 170.624 42.312C171.093 42.1627 171.6 42.088 172.144 42.088C172.88 42.088 173.536 42.232 174.112 42.52C174.688 42.7973 175.146 43.1973 175.488 43.72C175.829 44.232 176 44.8347 176 45.528C176 46.264 175.818 46.904 175.456 47.448C175.093 47.992 174.602 48.4133 173.984 48.712C173.365 49.0107 172.672 49.16 171.904 49.16ZM171.792 47.528C172.218 47.528 172.597 47.4533 172.928 47.304C173.258 47.144 173.514 46.92 173.696 46.632C173.888 46.344 173.984 46.008 173.984 45.624C173.984 45.0373 173.781 44.5733 173.376 44.232C172.97 43.8907 172.426 43.72 171.744 43.72C171.296 43.72 170.901 43.8053 170.56 43.976C170.229 44.136 169.962 44.36 169.76 44.648C169.568 44.936 169.472 45.2667 169.472 45.64C169.472 45.9813 169.562 46.296 169.744 46.584C169.925 46.872 170.186 47.1013 170.528 47.272C170.88 47.4427 171.301 47.528 171.792 47.528ZM181.759 49.16C180.873 49.16 180.073 48.936 179.359 48.488C178.655 48.04 178.1 47.3893 177.695 46.536C177.289 45.672 177.087 44.6267 177.087 43.4C177.087 42.1733 177.289 41.1333 177.695 40.28C178.1 39.416 178.655 38.76 179.359 38.312C180.073 37.864 180.873 37.64 181.759 37.64C182.655 37.64 183.455 37.864 184.159 38.312C184.863 38.76 185.417 39.416 185.823 40.28C186.239 41.1333 186.447 42.1733 186.447 43.4C186.447 44.6267 186.239 45.672 185.823 46.536C185.417 47.3893 184.863 48.04 184.159 48.488C183.455 48.936 182.655 49.16 181.759 49.16ZM181.759 47.352C182.281 47.352 182.735 47.2133 183.119 46.936C183.503 46.648 183.801 46.2107 184.015 45.624C184.239 45.0373 184.351 44.296 184.351 43.4C184.351 42.4933 184.239 41.752 184.015 41.176C183.801 40.5893 183.503 40.1573 183.119 39.88C182.735 39.592 182.281 39.448 181.759 39.448C181.257 39.448 180.809 39.592 180.415 39.88C180.031 40.1573 179.727 40.5893 179.503 41.176C179.289 41.752 179.183 42.4933 179.183 43.4C179.183 44.296 179.289 45.0373 179.503 45.624C179.727 46.2107 180.031 46.648 180.415 46.936C180.809 47.2133 181.257 47.352 181.759 47.352ZM193.196 49.112C192.503 49.112 191.868 48.952 191.292 48.632C190.727 48.312 190.274 47.832 189.932 47.192C189.602 46.5413 189.436 45.72 189.436 44.728C189.436 43.7253 189.596 42.904 189.916 42.264C190.247 41.624 190.695 41.1493 191.26 40.84C191.826 40.52 192.471 40.36 193.196 40.36C194.039 40.36 194.78 40.5413 195.42 40.904C196.071 41.2667 196.583 41.7733 196.956 42.424C197.34 43.0747 197.532 43.8427 197.532 44.728C197.532 45.6133 197.34 46.3867 196.956 47.048C196.583 47.6987 196.071 48.2053 195.42 48.568C194.78 48.9307 194.039 49.112 193.196 49.112ZM188.46 52.104V40.456H190.364V42.472L190.3 44.744L190.46 47.016V52.104H188.46ZM192.972 47.4C193.452 47.4 193.879 47.2933 194.252 47.08C194.636 46.8667 194.94 46.5573 195.164 46.152C195.388 45.7467 195.5 45.272 195.5 44.728C195.5 44.1733 195.388 43.6987 195.164 43.304C194.94 42.8987 194.636 42.5893 194.252 42.376C193.879 42.1627 193.452 42.056 192.972 42.056C192.492 42.056 192.06 42.1627 191.676 42.376C191.292 42.5893 190.988 42.8987 190.764 43.304C190.54 43.6987 190.428 44.1733 190.428 44.728C190.428 45.272 190.54 45.7467 190.764 46.152C190.988 46.5573 191.292 46.8667 191.676 47.08C192.06 47.2933 192.492 47.4 192.972 47.4ZM197.98 49L201.74 44.104L201.708 45.176L198.124 40.456H200.348L202.86 43.816H202.012L204.54 40.456H206.7L203.084 45.176L203.1 44.104L206.844 49H204.588L201.948 45.432L202.78 45.544L200.188 49H197.98Z" fill="#fff"/>
</svg>
