<svg width="336" height="60" viewBox="0 0 336 60" fill="none" xmlns="http://www.w3.org/2000/svg">
<rect width="336" height="60" fill="#F86F03"/>
<path d="M88.0997 23L93.1397 11.8H95.1877L100.244 23H98.0677L93.7317 12.904H94.5637L90.2437 23H88.0997ZM90.4197 20.408L90.9797 18.776H97.0277L97.5877 20.408H90.4197ZM101.668 23V11.8H106.564C107.78 11.8 108.847 12.0347 109.764 12.504C110.681 12.9733 111.396 13.624 111.908 14.456C112.42 15.288 112.676 16.2693 112.676 17.4C112.676 18.52 112.42 19.5013 111.908 20.344C111.396 21.176 110.681 21.8267 109.764 22.296C108.847 22.7653 107.78 23 106.564 23H101.668ZM103.748 21.24H106.468C107.311 21.24 108.036 21.08 108.644 20.76C109.263 20.44 109.737 19.992 110.068 19.416C110.409 18.84 110.58 18.168 110.58 17.4C110.58 16.6213 110.409 15.9493 110.068 15.384C109.737 14.808 109.263 14.36 108.644 14.04C108.036 13.72 107.311 13.56 106.468 13.56H103.748V21.24ZM121.213 16.952H126.797V18.712H121.213V16.952ZM121.389 23H119.309V11.8H127.485V13.544H121.389V23ZM134.619 23.16C133.745 23.16 132.939 23.016 132.203 22.728C131.467 22.44 130.827 22.04 130.283 21.528C129.739 21.0053 129.318 20.3973 129.019 19.704C128.721 19 128.571 18.232 128.571 17.4C128.571 16.568 128.721 15.8053 129.019 15.112C129.318 14.408 129.739 13.8 130.283 13.288C130.827 12.7653 131.467 12.36 132.203 12.072C132.939 11.784 133.739 11.64 134.603 11.64C135.478 11.64 136.278 11.784 137.003 12.072C137.739 12.36 138.379 12.7653 138.923 13.288C139.467 13.8 139.889 14.408 140.187 15.112C140.486 15.8053 140.635 16.568 140.635 17.4C140.635 18.232 140.486 19 140.187 19.704C139.889 20.408 139.467 21.016 138.923 21.528C138.379 22.04 137.739 22.44 137.003 22.728C136.278 23.016 135.483 23.16 134.619 23.16ZM134.603 21.336C135.169 21.336 135.691 21.24 136.171 21.048C136.651 20.856 137.067 20.584 137.419 20.232C137.771 19.8693 138.043 19.4533 138.235 18.984C138.438 18.504 138.539 17.976 138.539 17.4C138.539 16.824 138.438 16.3013 138.235 15.832C138.043 15.352 137.771 14.936 137.419 14.584C137.067 14.2213 136.651 13.944 136.171 13.752C135.691 13.56 135.169 13.464 134.603 13.464C134.038 13.464 133.515 13.56 133.035 13.752C132.566 13.944 132.15 14.2213 131.787 14.584C131.435 14.936 131.158 15.352 130.955 15.832C130.763 16.3013 130.667 16.824 130.667 17.4C130.667 17.9653 130.763 18.488 130.955 18.968C131.158 19.448 131.435 19.8693 131.787 20.232C132.139 20.584 132.555 20.856 133.035 21.048C133.515 21.24 134.038 21.336 134.603 21.336ZM148.088 23.16C147.213 23.16 146.408 23.016 145.672 22.728C144.936 22.44 144.296 22.04 143.752 21.528C143.208 21.0053 142.787 20.3973 142.488 19.704C142.189 19 142.04 18.232 142.04 17.4C142.04 16.568 142.189 15.8053 142.488 15.112C142.787 14.408 143.208 13.8 143.752 13.288C144.296 12.7653 144.936 12.36 145.672 12.072C146.408 11.784 147.208 11.64 148.072 11.64C148.947 11.64 149.747 11.784 150.472 12.072C151.208 12.36 151.848 12.7653 152.392 13.288C152.936 13.8 153.357 14.408 153.656 15.112C153.955 15.8053 154.104 16.568 154.104 17.4C154.104 18.232 153.955 19 153.656 19.704C153.357 20.408 152.936 21.016 152.392 21.528C151.848 22.04 151.208 22.44 150.472 22.728C149.747 23.016 148.952 23.16 148.088 23.16ZM148.072 21.336C148.637 21.336 149.16 21.24 149.64 21.048C150.12 20.856 150.536 20.584 150.888 20.232C151.24 19.8693 151.512 19.4533 151.704 18.984C151.907 18.504 152.008 17.976 152.008 17.4C152.008 16.824 151.907 16.3013 151.704 15.832C151.512 15.352 151.24 14.936 150.888 14.584C150.536 14.2213 150.12 13.944 149.64 13.752C149.16 13.56 148.637 13.464 148.072 13.464C147.507 13.464 146.984 13.56 146.504 13.752C146.035 13.944 145.619 14.2213 145.256 14.584C144.904 14.936 144.627 15.352 144.424 15.832C144.232 16.3013 144.136 16.824 144.136 17.4C144.136 17.9653 144.232 18.488 144.424 18.968C144.627 19.448 144.904 19.8693 145.256 20.232C145.608 20.584 146.024 20.856 146.504 21.048C146.984 21.24 147.507 21.336 148.072 21.336ZM158.424 23V13.56H154.712V11.8H164.216V13.56H160.504V23H158.424ZM167.697 16.456H173.265V18.168H167.697V16.456ZM167.857 21.256H174.177V23H165.777V11.8H173.953V13.544H167.857V21.256ZM176.496 23V11.8H181.104C182.096 11.8 182.944 11.96 183.648 12.28C184.363 12.6 184.912 13.0587 185.296 13.656C185.68 14.2533 185.872 14.9627 185.872 15.784C185.872 16.6053 185.68 17.3147 185.296 17.912C184.912 18.4987 184.363 18.952 183.648 19.272C182.944 19.5813 182.096 19.736 181.104 19.736H177.648L178.576 18.792V23H176.496ZM183.824 23L180.992 18.936H183.216L186.064 23H183.824ZM178.576 19.016L177.648 18.024H181.008C181.926 18.024 182.614 17.8267 183.072 17.432C183.542 17.0373 183.776 16.488 183.776 15.784C183.776 15.0693 183.542 14.52 183.072 14.136C182.614 13.752 181.926 13.56 181.008 13.56H177.648L178.576 12.536V19.016ZM196.093 23.16C195.219 23.16 194.381 23.0373 193.581 22.792C192.781 22.536 192.147 22.2107 191.677 21.816L192.397 20.2C192.845 20.552 193.4 20.8453 194.061 21.08C194.723 21.3147 195.4 21.432 196.093 21.432C196.68 21.432 197.155 21.368 197.517 21.24C197.88 21.112 198.147 20.9413 198.317 20.728C198.488 20.504 198.573 20.2533 198.573 19.976C198.573 19.6347 198.451 19.3627 198.205 19.16C197.96 18.9467 197.64 18.7813 197.245 18.664C196.861 18.536 196.429 18.4187 195.949 18.312C195.48 18.2053 195.005 18.0827 194.525 17.944C194.056 17.7947 193.624 17.608 193.229 17.384C192.845 17.1493 192.531 16.84 192.285 16.456C192.04 16.072 191.917 15.5813 191.917 14.984C191.917 14.376 192.077 13.8213 192.397 13.32C192.728 12.808 193.224 12.4027 193.885 12.104C194.557 11.7947 195.405 11.64 196.429 11.64C197.101 11.64 197.768 11.7253 198.429 11.896C199.091 12.0667 199.667 12.312 200.157 12.632L199.501 14.248C199 13.9493 198.483 13.7307 197.949 13.592C197.416 13.4427 196.904 13.368 196.413 13.368C195.837 13.368 195.368 13.4373 195.005 13.576C194.653 13.7147 194.392 13.896 194.221 14.12C194.061 14.344 193.981 14.6 193.981 14.888C193.981 15.2293 194.099 15.5067 194.333 15.72C194.579 15.9227 194.893 16.0827 195.277 16.2C195.672 16.3173 196.109 16.4347 196.589 16.552C197.069 16.6587 197.544 16.7813 198.013 16.92C198.493 17.0587 198.925 17.24 199.309 17.464C199.704 17.688 200.019 17.992 200.253 18.376C200.499 18.76 200.621 19.2453 200.621 19.832C200.621 20.4293 200.456 20.984 200.125 21.496C199.805 21.9973 199.309 22.4027 198.637 22.712C197.965 23.0107 197.117 23.16 196.093 23.16ZM204.799 23V13.56H201.087V11.8H210.591V13.56H206.879V23H204.799ZM212.152 23V11.8H214.232V23H212.152ZM222.446 23.16C221.592 23.16 220.798 23.0213 220.062 22.744C219.336 22.456 218.702 22.056 218.158 21.544C217.624 21.0213 217.208 20.408 216.91 19.704C216.611 19 216.462 18.232 216.462 17.4C216.462 16.568 216.611 15.8 216.91 15.096C217.208 14.392 217.63 13.784 218.174 13.272C218.718 12.7493 219.352 12.3493 220.078 12.072C220.803 11.784 221.598 11.64 222.462 11.64C223.379 11.64 224.216 11.8 224.974 12.12C225.731 12.4293 226.371 12.8933 226.894 13.512L225.55 14.776C225.144 14.3387 224.691 14.0133 224.19 13.8C223.688 13.576 223.144 13.464 222.558 13.464C221.971 13.464 221.432 13.56 220.942 13.752C220.462 13.944 220.04 14.216 219.678 14.568C219.326 14.92 219.048 15.336 218.846 15.816C218.654 16.296 218.558 16.824 218.558 17.4C218.558 17.976 218.654 18.504 218.846 18.984C219.048 19.464 219.326 19.88 219.678 20.232C220.04 20.584 220.462 20.856 220.942 21.048C221.432 21.24 221.971 21.336 222.558 21.336C223.144 21.336 223.688 21.2293 224.19 21.016C224.691 20.792 225.144 20.456 225.55 20.008L226.894 21.288C226.371 21.896 225.731 22.36 224.974 22.68C224.216 23 223.374 23.16 222.446 23.16ZM230.743 20.36L230.631 17.896L236.503 11.8H238.839L233.959 16.984L232.807 18.248L230.743 20.36ZM228.887 23V11.8H230.967V23H228.887ZM236.695 23L232.407 17.896L233.783 16.376L239.127 23H236.695ZM242.498 23V18.568L242.962 19.848L238.098 11.8H240.322L244.226 18.28H242.978L246.914 11.8H248.962L244.098 19.848L244.578 18.568V23H242.498ZM133.716 49.16C132.927 49.16 132.154 49.048 131.396 48.824C130.65 48.5893 130.02 48.2693 129.508 47.864L130.404 46.248C130.81 46.5787 131.3 46.8453 131.876 47.048C132.452 47.2507 133.055 47.352 133.684 47.352C134.431 47.352 135.012 47.2027 135.428 46.904C135.844 46.5947 136.052 46.1787 136.052 45.656C136.052 45.144 135.86 44.7387 135.476 44.44C135.092 44.1413 134.474 43.992 133.62 43.992H132.596V42.568L135.796 38.76L136.068 39.544H130.052V37.8H137.684V39.192L134.484 43L133.396 42.36H134.02C135.396 42.36 136.426 42.6693 137.108 43.288C137.802 43.896 138.148 44.68 138.148 45.64C138.148 46.2693 137.988 46.8507 137.668 47.384C137.348 47.9173 136.858 48.3493 136.196 48.68C135.546 49 134.719 49.16 133.716 49.16ZM142.951 49.16C142.161 49.16 141.388 49.048 140.631 48.824C139.884 48.5893 139.255 48.2693 138.743 47.864L139.639 46.248C140.044 46.5787 140.535 46.8453 141.111 47.048C141.687 47.2507 142.289 47.352 142.919 47.352C143.665 47.352 144.247 47.2027 144.663 46.904C145.079 46.5947 145.287 46.1787 145.287 45.656C145.287 45.144 145.095 44.7387 144.711 44.44C144.327 44.1413 143.708 43.992 142.855 43.992H141.831V42.568L145.031 38.76L145.303 39.544H139.287V37.8H146.919V39.192L143.719 43L142.631 42.36H143.255C144.631 42.36 145.66 42.6693 146.343 43.288C147.036 43.896 147.383 44.68 147.383 45.64C147.383 46.2693 147.223 46.8507 146.903 47.384C146.583 47.9173 146.092 48.3493 145.431 48.68C144.78 49 143.953 49.16 142.951 49.16ZM153.591 49.16C152.578 49.16 151.708 48.9467 150.983 48.52C150.258 48.0827 149.703 47.4533 149.319 46.632C148.935 45.8107 148.743 44.7973 148.743 43.592C148.743 42.312 148.972 41.2293 149.431 40.344C149.9 39.4587 150.546 38.7867 151.367 38.328C152.199 37.8693 153.154 37.64 154.231 37.64C154.796 37.64 155.335 37.6987 155.847 37.816C156.37 37.9333 156.812 38.1147 157.175 38.36L156.407 39.928C156.098 39.7253 155.762 39.5867 155.399 39.512C155.047 39.4267 154.674 39.384 154.279 39.384C153.223 39.384 152.386 39.7093 151.767 40.36C151.148 41.0107 150.839 41.9707 150.839 43.24C150.839 43.4427 150.844 43.6827 150.855 43.96C150.866 44.2267 150.903 44.4987 150.967 44.776L150.327 44.072C150.519 43.6347 150.78 43.272 151.111 42.984C151.452 42.6853 151.852 42.4613 152.311 42.312C152.78 42.1627 153.287 42.088 153.831 42.088C154.567 42.088 155.223 42.232 155.799 42.52C156.375 42.7973 156.834 43.1973 157.175 43.72C157.516 44.232 157.687 44.8347 157.687 45.528C157.687 46.264 157.506 46.904 157.143 47.448C156.78 47.992 156.29 48.4133 155.671 48.712C155.052 49.0107 154.359 49.16 153.591 49.16ZM153.479 47.528C153.906 47.528 154.284 47.4533 154.615 47.304C154.946 47.144 155.202 46.92 155.383 46.632C155.575 46.344 155.671 46.008 155.671 45.624C155.671 45.0373 155.468 44.5733 155.063 44.232C154.658 43.8907 154.114 43.72 153.431 43.72C152.983 43.72 152.588 43.8053 152.247 43.976C151.916 44.136 151.65 44.36 151.447 44.648C151.255 44.936 151.159 45.2667 151.159 45.64C151.159 45.9813 151.25 46.296 151.431 46.584C151.612 46.872 151.874 47.1013 152.215 47.272C152.567 47.4427 152.988 47.528 153.479 47.528ZM157.98 49L161.74 44.104L161.708 45.176L158.124 40.456H160.348L162.86 43.816H162.012L164.54 40.456H166.7L163.084 45.176L163.1 44.104L166.844 49H164.588L161.948 45.432L162.78 45.544L160.188 49H157.98ZM172.404 49.16C171.39 49.16 170.521 48.9467 169.796 48.52C169.07 48.0827 168.516 47.4533 168.132 46.632C167.748 45.8107 167.556 44.7973 167.556 43.592C167.556 42.312 167.785 41.2293 168.244 40.344C168.713 39.4587 169.358 38.7867 170.18 38.328C171.012 37.8693 171.966 37.64 173.044 37.64C173.609 37.64 174.148 37.6987 174.66 37.816C175.182 37.9333 175.625 38.1147 175.988 38.36L175.22 39.928C174.91 39.7253 174.574 39.5867 174.212 39.512C173.86 39.4267 173.486 39.384 173.092 39.384C172.036 39.384 171.198 39.7093 170.58 40.36C169.961 41.0107 169.652 41.9707 169.652 43.24C169.652 43.4427 169.657 43.6827 169.668 43.96C169.678 44.2267 169.716 44.4987 169.78 44.776L169.14 44.072C169.332 43.6347 169.593 43.272 169.924 42.984C170.265 42.6853 170.665 42.4613 171.124 42.312C171.593 42.1627 172.1 42.088 172.644 42.088C173.38 42.088 174.036 42.232 174.612 42.52C175.188 42.7973 175.646 43.1973 175.988 43.72C176.329 44.232 176.5 44.8347 176.5 45.528C176.5 46.264 176.318 46.904 175.956 47.448C175.593 47.992 175.102 48.4133 174.484 48.712C173.865 49.0107 173.172 49.16 172.404 49.16ZM172.292 47.528C172.718 47.528 173.097 47.4533 173.428 47.304C173.758 47.144 174.014 46.92 174.196 46.632C174.388 46.344 174.484 46.008 174.484 45.624C174.484 45.0373 174.281 44.5733 173.876 44.232C173.47 43.8907 172.926 43.72 172.244 43.72C171.796 43.72 171.401 43.8053 171.06 43.976C170.729 44.136 170.462 44.36 170.26 44.648C170.068 44.936 169.972 45.2667 169.972 45.64C169.972 45.9813 170.062 46.296 170.244 46.584C170.425 46.872 170.686 47.1013 171.028 47.272C171.38 47.4427 171.801 47.528 172.292 47.528ZM182.259 49.16C181.373 49.16 180.573 48.936 179.859 48.488C179.155 48.04 178.6 47.3893 178.195 46.536C177.789 45.672 177.587 44.6267 177.587 43.4C177.587 42.1733 177.789 41.1333 178.195 40.28C178.6 39.416 179.155 38.76 179.859 38.312C180.573 37.864 181.373 37.64 182.259 37.64C183.155 37.64 183.955 37.864 184.659 38.312C185.363 38.76 185.917 39.416 186.323 40.28C186.739 41.1333 186.947 42.1733 186.947 43.4C186.947 44.6267 186.739 45.672 186.323 46.536C185.917 47.3893 185.363 48.04 184.659 48.488C183.955 48.936 183.155 49.16 182.259 49.16ZM182.259 47.352C182.781 47.352 183.235 47.2133 183.619 46.936C184.003 46.648 184.301 46.2107 184.515 45.624C184.739 45.0373 184.851 44.296 184.851 43.4C184.851 42.4933 184.739 41.752 184.515 41.176C184.301 40.5893 184.003 40.1573 183.619 39.88C183.235 39.592 182.781 39.448 182.259 39.448C181.757 39.448 181.309 39.592 180.915 39.88C180.531 40.1573 180.227 40.5893 180.003 41.176C179.789 41.752 179.683 42.4933 179.683 43.4C179.683 44.296 179.789 45.0373 180.003 45.624C180.227 46.2107 180.531 46.648 180.915 46.936C181.309 47.2133 181.757 47.352 182.259 47.352ZM193.696 49.112C193.003 49.112 192.368 48.952 191.792 48.632C191.227 48.312 190.774 47.832 190.432 47.192C190.102 46.5413 189.936 45.72 189.936 44.728C189.936 43.7253 190.096 42.904 190.416 42.264C190.747 41.624 191.195 41.1493 191.76 40.84C192.326 40.52 192.971 40.36 193.696 40.36C194.539 40.36 195.28 40.5413 195.92 40.904C196.571 41.2667 197.083 41.7733 197.456 42.424C197.84 43.0747 198.032 43.8427 198.032 44.728C198.032 45.6133 197.84 46.3867 197.456 47.048C197.083 47.6987 196.571 48.2053 195.92 48.568C195.28 48.9307 194.539 49.112 193.696 49.112ZM188.96 52.104V40.456H190.864V42.472L190.8 44.744L190.96 47.016V52.104H188.96ZM193.472 47.4C193.952 47.4 194.379 47.2933 194.752 47.08C195.136 46.8667 195.44 46.5573 195.664 46.152C195.888 45.7467 196 45.272 196 44.728C196 44.1733 195.888 43.6987 195.664 43.304C195.44 42.8987 195.136 42.5893 194.752 42.376C194.379 42.1627 193.952 42.056 193.472 42.056C192.992 42.056 192.56 42.1627 192.176 42.376C191.792 42.5893 191.488 42.8987 191.264 43.304C191.04 43.6987 190.928 44.1733 190.928 44.728C190.928 45.272 191.04 45.7467 191.264 46.152C191.488 46.5573 191.792 46.8667 192.176 47.08C192.56 47.2933 192.992 47.4 193.472 47.4ZM198.48 49L202.24 44.104L202.208 45.176L198.624 40.456H200.848L203.36 43.816H202.512L205.04 40.456H207.2L203.584 45.176L203.6 44.104L207.344 49H205.088L202.448 45.432L203.28 45.544L200.688 49H198.48Z" fill="white"/>
</svg>
