<svg width="336" height="60" viewBox="0 0 336 60" fill="none" xmlns="http://www.w3.org/2000/svg">
<rect width="336" height="60" fill="black"/>
<path d="M98.2724 24L101.216 12.8H104.896L107.84 24H105.664L105.056 21.536H101.056L100.448 24H98.2724ZM101.552 19.584H104.56L103.2 14.128H102.912L101.552 19.584ZM108.861 24V22.144H110.333V14.656H108.861V12.8H113.469C114.973 12.8 116.114 13.184 116.893 13.952C117.682 14.7093 118.077 15.84 118.077 17.344V19.456C118.077 20.96 117.682 22.096 116.893 22.864C116.114 23.6213 114.973 24 113.469 24H108.861ZM112.445 22.08H113.501C114.354 22.08 114.978 21.856 115.373 21.408C115.768 20.96 115.965 20.3307 115.965 19.52V17.28C115.965 16.4587 115.768 15.8293 115.373 15.392C114.978 14.944 114.354 14.72 113.501 14.72H112.445V22.08ZM127.788 24.224C126.924 24.224 126.161 24.0693 125.5 23.76C124.838 23.4507 124.321 23.008 123.948 22.432C123.574 21.856 123.388 21.1627 123.388 20.352V19.904H125.468V20.352C125.468 21.024 125.676 21.5307 126.092 21.872C126.508 22.2027 127.073 22.368 127.788 22.368C128.513 22.368 129.052 22.224 129.404 21.936C129.766 21.648 129.948 21.28 129.948 20.832C129.948 20.5227 129.857 20.272 129.676 20.08C129.505 19.888 129.249 19.7333 128.908 19.616C128.577 19.488 128.172 19.3707 127.692 19.264L127.324 19.184C126.556 19.0133 125.894 18.8 125.34 18.544C124.796 18.2773 124.374 17.9307 124.076 17.504C123.788 17.0773 123.644 16.5227 123.644 15.84C123.644 15.1573 123.804 14.576 124.124 14.096C124.454 13.6053 124.913 13.232 125.5 12.976C126.097 12.7093 126.796 12.576 127.596 12.576C128.396 12.576 129.105 12.7147 129.724 12.992C130.353 13.2587 130.844 13.664 131.196 14.208C131.558 14.7413 131.74 15.4133 131.74 16.224V16.704H129.66V16.224C129.66 15.7973 129.574 15.456 129.404 15.2C129.244 14.9333 129.009 14.7413 128.7 14.624C128.39 14.496 128.022 14.432 127.596 14.432C126.956 14.432 126.481 14.5547 126.172 14.8C125.873 15.0347 125.724 15.36 125.724 15.776C125.724 16.0533 125.793 16.288 125.932 16.48C126.081 16.672 126.3 16.832 126.588 16.96C126.876 17.088 127.244 17.2 127.692 17.296L128.06 17.376C128.86 17.5467 129.553 17.7653 130.14 18.032C130.737 18.2987 131.201 18.6507 131.532 19.088C131.862 19.5253 132.028 20.0853 132.028 20.768C132.028 21.4507 131.852 22.0533 131.5 22.576C131.158 23.088 130.668 23.4933 130.028 23.792C129.398 24.08 128.652 24.224 127.788 24.224ZM135.836 24V14.72H132.572V12.8H141.212V14.72H137.948V24H135.836ZM142.65 24V12.8H144.762V24H142.65ZM151.125 24.224C149.738 24.224 148.639 23.84 147.829 23.072C147.018 22.2933 146.613 21.184 146.613 19.744V17.056C146.613 15.616 147.018 14.512 147.829 13.744C148.639 12.9653 149.738 12.576 151.125 12.576C152.501 12.576 153.562 12.9547 154.309 13.712C155.066 14.4587 155.445 15.488 155.445 16.8V16.896H153.365V16.736C153.365 16.0747 153.178 15.5307 152.805 15.104C152.442 14.6773 151.882 14.464 151.125 14.464C150.378 14.464 149.791 14.6933 149.365 15.152C148.938 15.6107 148.725 16.2347 148.725 17.024V19.776C148.725 20.5547 148.938 21.1787 149.365 21.648C149.791 22.1067 150.378 22.336 151.125 22.336C151.882 22.336 152.442 22.1227 152.805 21.696C153.178 21.2587 153.365 20.7147 153.365 20.064V19.776H155.445V20C155.445 21.312 155.066 22.3467 154.309 23.104C153.562 23.8507 152.501 24.224 151.125 24.224ZM157.165 24V12.8H159.277V17.248H159.565L163.197 12.8H165.901L161.229 18.32L166.061 24H163.277L159.565 19.456H159.277V24H157.165ZM170.061 24V20.144L166.253 12.8H168.605L170.973 17.6H171.261L173.629 12.8H175.981L172.173 20.144V24H170.061ZM181.072 24V12.8H188.112V14.72H183.184V17.424H187.728V19.344H183.184V24H181.072ZM193.877 24.224C192.469 24.224 191.349 23.84 190.517 23.072C189.685 22.2933 189.269 21.184 189.269 19.744V17.056C189.269 15.616 189.685 14.512 190.517 13.744C191.349 12.9653 192.469 12.576 193.877 12.576C195.285 12.576 196.405 12.9653 197.237 13.744C198.069 14.512 198.485 15.616 198.485 17.056V19.744C198.485 21.184 198.069 22.2933 197.237 23.072C196.405 23.84 195.285 24.224 193.877 24.224ZM193.877 22.336C194.666 22.336 195.279 22.1067 195.717 21.648C196.154 21.1893 196.373 20.576 196.373 19.808V16.992C196.373 16.224 196.154 15.6107 195.717 15.152C195.279 14.6933 194.666 14.464 193.877 14.464C193.098 14.464 192.485 14.6933 192.037 15.152C191.599 15.6107 191.381 16.224 191.381 16.992V19.808C191.381 20.576 191.599 21.1893 192.037 21.648C192.485 22.1067 193.098 22.336 193.877 22.336ZM204.689 24.224C203.281 24.224 202.161 23.84 201.329 23.072C200.497 22.2933 200.081 21.184 200.081 19.744V17.056C200.081 15.616 200.497 14.512 201.329 13.744C202.161 12.9653 203.281 12.576 204.689 12.576C206.097 12.576 207.217 12.9653 208.049 13.744C208.881 14.512 209.297 15.616 209.297 17.056V19.744C209.297 21.184 208.881 22.2933 208.049 23.072C207.217 23.84 206.097 24.224 204.689 24.224ZM204.689 22.336C205.479 22.336 206.092 22.1067 206.529 21.648C206.967 21.1893 207.185 20.576 207.185 19.808V16.992C207.185 16.224 206.967 15.6107 206.529 15.152C206.092 14.6933 205.479 14.464 204.689 14.464C203.911 14.464 203.297 14.6933 202.849 15.152C202.412 15.6107 202.193 16.224 202.193 16.992V19.808C202.193 20.576 202.412 21.1893 202.849 21.648C203.297 22.1067 203.911 22.336 204.689 22.336ZM213.289 24V14.72H210.025V12.8H218.665V14.72H215.401V24H213.289ZM220.103 24V12.8H227.303V14.72H222.215V17.392H226.855V19.312H222.215V22.08H227.399V24H220.103ZM228.962 24V12.8H233.826C234.53 12.8 235.144 12.9227 235.666 13.168C236.189 13.4133 236.594 13.76 236.882 14.208C237.17 14.656 237.314 15.184 237.314 15.792V15.984C237.314 16.656 237.154 17.2 236.834 17.616C236.514 18.032 236.12 18.336 235.65 18.528V18.816C236.077 18.8373 236.408 18.9867 236.642 19.264C236.877 19.5307 236.994 19.888 236.994 20.336V24H234.882V20.64C234.882 20.384 234.813 20.176 234.674 20.016C234.546 19.856 234.328 19.776 234.018 19.776H231.074V24H228.962ZM231.074 17.856H233.602C234.104 17.856 234.493 17.7227 234.77 17.456C235.058 17.1787 235.202 16.816 235.202 16.368V16.208C235.202 15.76 235.064 15.4027 234.786 15.136C234.509 14.8587 234.114 14.72 233.602 14.72H231.074V17.856ZM142.903 48.224C142.06 48.224 141.314 48.0747 140.663 47.776C140.012 47.4773 139.5 47.0507 139.127 46.496C138.764 45.9307 138.583 45.264 138.583 44.496V44.208H140.631V44.432C140.631 45.0293 140.839 45.5093 141.255 45.872C141.671 46.224 142.22 46.4 142.903 46.4C143.596 46.4 144.13 46.2347 144.503 45.904C144.887 45.5733 145.079 45.1573 145.079 44.656V44.496C145.079 44.1547 144.994 43.8773 144.823 43.664C144.652 43.4507 144.423 43.296 144.135 43.2C143.847 43.0933 143.522 43.04 143.159 43.04H140.919V40.8L144.535 38.88V38.624H138.871V36.8H146.807V39.52L143.431 41.312V41.568H144.023C144.524 41.568 145.01 41.6693 145.479 41.872C145.959 42.0747 146.354 42.3893 146.663 42.816C146.972 43.232 147.127 43.776 147.127 44.448V44.64C147.127 45.3653 146.951 46 146.599 46.544C146.247 47.0773 145.751 47.4933 145.111 47.792C144.482 48.08 143.746 48.224 142.903 48.224ZM152.637 48.224C151.795 48.224 151.048 48.0747 150.397 47.776C149.747 47.4773 149.235 47.0507 148.861 46.496C148.499 45.9307 148.317 45.264 148.317 44.496V44.208H150.365V44.432C150.365 45.0293 150.573 45.5093 150.989 45.872C151.405 46.224 151.955 46.4 152.637 46.4C153.331 46.4 153.864 46.2347 154.237 45.904C154.621 45.5733 154.813 45.1573 154.813 44.656V44.496C154.813 44.1547 154.728 43.8773 154.557 43.664C154.387 43.4507 154.157 43.296 153.869 43.2C153.581 43.0933 153.256 43.04 152.893 43.04H150.653V40.8L154.269 38.88V38.624H148.605V36.8H156.541V39.52L153.165 41.312V41.568H153.757C154.259 41.568 154.744 41.6693 155.213 41.872C155.693 42.0747 156.088 42.3893 156.397 42.816C156.707 43.232 156.861 43.776 156.861 44.448V44.64C156.861 45.3653 156.685 46 156.333 46.544C155.981 47.0773 155.485 47.4933 154.845 47.792C154.216 48.08 153.48 48.224 152.637 48.224ZM162.5 48.224C161.646 48.224 160.905 48.064 160.276 47.744C159.646 47.424 159.161 46.9813 158.82 46.416C158.478 45.8507 158.308 45.2 158.308 44.464V40.64C158.308 39.7333 158.489 38.9813 158.852 38.384C159.225 37.776 159.732 37.3227 160.372 37.024C161.022 36.7253 161.764 36.576 162.596 36.576C163.428 36.576 164.148 36.7147 164.756 36.992C165.374 37.2693 165.849 37.6693 166.18 38.192C166.521 38.7147 166.692 39.3387 166.692 40.064H164.612C164.612 39.616 164.457 39.2267 164.148 38.896C163.838 38.5653 163.321 38.4 162.596 38.4C161.881 38.4 161.326 38.5867 160.932 38.96C160.548 39.3333 160.356 39.8507 160.356 40.512V41.664H160.644C160.825 41.4507 161.102 41.248 161.476 41.056C161.849 40.864 162.393 40.768 163.108 40.768C163.758 40.768 164.356 40.9067 164.9 41.184C165.454 41.4613 165.902 41.8667 166.244 42.4C166.585 42.9227 166.756 43.5573 166.756 44.304V44.496C166.756 45.232 166.58 45.8827 166.228 46.448C165.876 47.0027 165.38 47.44 164.74 47.76C164.1 48.0693 163.353 48.224 162.5 48.224ZM162.532 46.4C163.204 46.4 163.732 46.224 164.116 45.872C164.51 45.52 164.708 45.0507 164.708 44.464V44.336C164.708 43.9413 164.617 43.6 164.436 43.312C164.265 43.024 164.014 42.8 163.684 42.64C163.364 42.48 162.98 42.4 162.532 42.4C162.094 42.4 161.71 42.48 161.38 42.64C161.049 42.8 160.793 43.024 160.612 43.312C160.441 43.6 160.356 43.9413 160.356 44.336V44.464C160.356 45.0507 160.548 45.52 160.932 45.872C161.326 46.224 161.86 46.4 162.532 46.4ZM167.75 48L171.03 42.352L167.782 36.8H170.182L172.406 40.848H172.694L174.918 36.8H177.318L174.07 42.352L177.35 48H174.95L172.694 43.856H172.406L170.15 48H167.75ZM182.687 48.224C181.834 48.224 181.093 48.064 180.463 47.744C179.834 47.424 179.349 46.9813 179.007 46.416C178.666 45.8507 178.495 45.2 178.495 44.464V40.64C178.495 39.7333 178.677 38.9813 179.039 38.384C179.413 37.776 179.919 37.3227 180.559 37.024C181.21 36.7253 181.951 36.576 182.783 36.576C183.615 36.576 184.335 36.7147 184.943 36.992C185.562 37.2693 186.037 37.6693 186.367 38.192C186.709 38.7147 186.879 39.3387 186.879 40.064H184.799C184.799 39.616 184.645 39.2267 184.335 38.896C184.026 38.5653 183.509 38.4 182.783 38.4C182.069 38.4 181.514 38.5867 181.119 38.96C180.735 39.3333 180.543 39.8507 180.543 40.512V41.664H180.831C181.013 41.4507 181.29 41.248 181.663 41.056C182.037 40.864 182.581 40.768 183.295 40.768C183.946 40.768 184.543 40.9067 185.087 41.184C185.642 41.4613 186.09 41.8667 186.431 42.4C186.773 42.9227 186.943 43.5573 186.943 44.304V44.496C186.943 45.232 186.767 45.8827 186.415 46.448C186.063 47.0027 185.567 47.44 184.927 47.76C184.287 48.0693 183.541 48.224 182.687 48.224ZM182.719 46.4C183.391 46.4 183.919 46.224 184.303 45.872C184.698 45.52 184.895 45.0507 184.895 44.464V44.336C184.895 43.9413 184.805 43.6 184.623 43.312C184.453 43.024 184.202 42.8 183.871 42.64C183.551 42.48 183.167 42.4 182.719 42.4C182.282 42.4 181.898 42.48 181.567 42.64C181.237 42.8 180.981 43.024 180.799 43.312C180.629 43.6 180.543 43.9413 180.543 44.336V44.464C180.543 45.0507 180.735 45.52 181.119 45.872C181.514 46.224 182.047 46.4 182.719 46.4ZM192.77 48.224C191.447 48.224 190.386 47.8613 189.586 47.136C188.786 46.4 188.386 45.2907 188.386 43.808V40.992C188.386 39.552 188.786 38.4587 189.586 37.712C190.386 36.9547 191.447 36.576 192.77 36.576C194.103 36.576 195.165 36.9547 195.954 37.712C196.754 38.4587 197.154 39.552 197.154 40.992V43.808C197.154 45.2907 196.754 46.4 195.954 47.136C195.165 47.8613 194.103 48.224 192.77 48.224ZM192.77 46.4C193.57 46.4 194.157 46.1813 194.53 45.744C194.914 45.3067 195.106 44.6827 195.106 43.872V40.896C195.106 40.0747 194.893 39.456 194.466 39.04C194.05 38.6133 193.485 38.4 192.77 38.4C192.034 38.4 191.458 38.6187 191.042 39.056C190.637 39.4933 190.434 40.1067 190.434 40.896V43.872C190.434 44.7147 190.626 45.3493 191.01 45.776C191.405 46.192 191.991 46.4 192.77 46.4Z" fill="white"/>
</svg>
