<svg width="1150" height="60" viewBox="0 0 1150 60" fill="none" xmlns="http://www.w3.org/2000/svg">
<rect width="1150" height="60" fill="black"/>
<path d="M514.858 24L517.802 12.8H521.482L524.426 24H522.25L521.642 21.536H517.642L517.034 24H514.858ZM518.138 19.584H521.146L519.786 14.128H519.498L518.138 19.584ZM525.447 24V22.144H526.919V14.656H525.447V12.8H530.055C531.559 12.8 532.7 13.184 533.479 13.952C534.268 14.7093 534.663 15.84 534.663 17.344V19.456C534.663 20.96 534.268 22.096 533.479 22.864C532.7 23.6213 531.559 24 530.055 24H525.447ZM529.031 22.08H530.087C530.94 22.08 531.564 21.856 531.959 21.408C532.354 20.96 532.551 20.3307 532.551 19.52V17.28C532.551 16.4587 532.354 15.8293 531.959 15.392C531.564 14.944 530.94 14.72 530.087 14.72H529.031V22.08ZM544.374 24.224C543.51 24.224 542.747 24.0693 542.086 23.76C541.425 23.4507 540.907 23.008 540.534 22.432C540.161 21.856 539.974 21.1627 539.974 20.352V19.904H542.054V20.352C542.054 21.024 542.262 21.5307 542.678 21.872C543.094 22.2027 543.659 22.368 544.374 22.368C545.099 22.368 545.638 22.224 545.99 21.936C546.353 21.648 546.534 21.28 546.534 20.832C546.534 20.5227 546.443 20.272 546.262 20.08C546.091 19.888 545.835 19.7333 545.494 19.616C545.163 19.488 544.758 19.3707 544.278 19.264L543.91 19.184C543.142 19.0133 542.481 18.8 541.926 18.544C541.382 18.2773 540.961 17.9307 540.662 17.504C540.374 17.0773 540.23 16.5227 540.23 15.84C540.23 15.1573 540.39 14.576 540.71 14.096C541.041 13.6053 541.499 13.232 542.086 12.976C542.683 12.7093 543.382 12.576 544.182 12.576C544.982 12.576 545.691 12.7147 546.31 12.992C546.939 13.2587 547.43 13.664 547.782 14.208C548.145 14.7413 548.326 15.4133 548.326 16.224V16.704H546.246V16.224C546.246 15.7973 546.161 15.456 545.99 15.2C545.83 14.9333 545.595 14.7413 545.286 14.624C544.977 14.496 544.609 14.432 544.182 14.432C543.542 14.432 543.067 14.5547 542.758 14.8C542.459 15.0347 542.31 15.36 542.31 15.776C542.31 16.0533 542.379 16.288 542.518 16.48C542.667 16.672 542.886 16.832 543.174 16.96C543.462 17.088 543.83 17.2 544.278 17.296L544.646 17.376C545.446 17.5467 546.139 17.7653 546.726 18.032C547.323 18.2987 547.787 18.6507 548.118 19.088C548.449 19.5253 548.614 20.0853 548.614 20.768C548.614 21.4507 548.438 22.0533 548.086 22.576C547.745 23.088 547.254 23.4933 546.614 23.792C545.985 24.08 545.238 24.224 544.374 24.224ZM552.422 24V14.72H549.158V12.8H557.798V14.72H554.534V24H552.422ZM559.236 24V12.8H561.348V24H559.236ZM567.711 24.224C566.324 24.224 565.225 23.84 564.415 23.072C563.604 22.2933 563.199 21.184 563.199 19.744V17.056C563.199 15.616 563.604 14.512 564.415 13.744C565.225 12.9653 566.324 12.576 567.711 12.576C569.087 12.576 570.148 12.9547 570.895 13.712C571.652 14.4587 572.031 15.488 572.031 16.8V16.896H569.951V16.736C569.951 16.0747 569.764 15.5307 569.391 15.104C569.028 14.6773 568.468 14.464 567.711 14.464C566.964 14.464 566.377 14.6933 565.951 15.152C565.524 15.6107 565.311 16.2347 565.311 17.024V19.776C565.311 20.5547 565.524 21.1787 565.951 21.648C566.377 22.1067 566.964 22.336 567.711 22.336C568.468 22.336 569.028 22.1227 569.391 21.696C569.764 21.2587 569.951 20.7147 569.951 20.064V19.776H572.031V20C572.031 21.312 571.652 22.3467 570.895 23.104C570.148 23.8507 569.087 24.224 567.711 24.224ZM573.751 24V12.8H575.863V17.248H576.151L579.783 12.8H582.487L577.815 18.32L582.647 24H579.863L576.151 19.456H575.863V24H573.751ZM586.647 24V20.144L582.839 12.8H585.191L587.559 17.6H587.847L590.215 12.8H592.567L588.759 20.144V24H586.647ZM597.658 24V12.8H604.698V14.72H599.77V17.424H604.314V19.344H599.77V24H597.658ZM610.463 24.224C609.055 24.224 607.935 23.84 607.103 23.072C606.271 22.2933 605.855 21.184 605.855 19.744V17.056C605.855 15.616 606.271 14.512 607.103 13.744C607.935 12.9653 609.055 12.576 610.463 12.576C611.871 12.576 612.991 12.9653 613.823 13.744C614.655 14.512 615.071 15.616 615.071 17.056V19.744C615.071 21.184 614.655 22.2933 613.823 23.072C612.991 23.84 611.871 24.224 610.463 24.224ZM610.463 22.336C611.252 22.336 611.866 22.1067 612.303 21.648C612.74 21.1893 612.959 20.576 612.959 19.808V16.992C612.959 16.224 612.74 15.6107 612.303 15.152C611.866 14.6933 611.252 14.464 610.463 14.464C609.684 14.464 609.071 14.6933 608.623 15.152C608.186 15.6107 607.967 16.224 607.967 16.992V19.808C607.967 20.576 608.186 21.1893 608.623 21.648C609.071 22.1067 609.684 22.336 610.463 22.336ZM621.275 24.224C619.867 24.224 618.747 23.84 617.915 23.072C617.083 22.2933 616.667 21.184 616.667 19.744V17.056C616.667 15.616 617.083 14.512 617.915 13.744C618.747 12.9653 619.867 12.576 621.275 12.576C622.683 12.576 623.803 12.9653 624.635 13.744C625.467 14.512 625.883 15.616 625.883 17.056V19.744C625.883 21.184 625.467 22.2933 624.635 23.072C623.803 23.84 622.683 24.224 621.275 24.224ZM621.275 22.336C622.065 22.336 622.678 22.1067 623.115 21.648C623.553 21.1893 623.771 20.576 623.771 19.808V16.992C623.771 16.224 623.553 15.6107 623.115 15.152C622.678 14.6933 622.065 14.464 621.275 14.464C620.497 14.464 619.883 14.6933 619.435 15.152C618.998 15.6107 618.779 16.224 618.779 16.992V19.808C618.779 20.576 618.998 21.1893 619.435 21.648C619.883 22.1067 620.497 22.336 621.275 22.336ZM629.875 24V14.72H626.611V12.8H635.251V14.72H631.987V24H629.875ZM636.689 24V12.8H643.889V14.72H638.801V17.392H643.441V19.312H638.801V22.08H643.985V24H636.689ZM645.548 24V12.8H650.412C651.116 12.8 651.73 12.9227 652.252 13.168C652.775 13.4133 653.18 13.76 653.468 14.208C653.756 14.656 653.9 15.184 653.9 15.792V15.984C653.9 16.656 653.74 17.2 653.42 17.616C653.1 18.032 652.706 18.336 652.236 18.528V18.816C652.663 18.8373 652.994 18.9867 653.228 19.264C653.463 19.5307 653.58 19.888 653.58 20.336V24H651.468V20.64C651.468 20.384 651.399 20.176 651.26 20.016C651.132 19.856 650.914 19.776 650.604 19.776H647.66V24H645.548ZM647.66 17.856H650.188C650.69 17.856 651.079 17.7227 651.356 17.456C651.644 17.1787 651.788 16.816 651.788 16.368V16.208C651.788 15.76 651.65 15.4027 651.372 15.136C651.095 14.8587 650.7 14.72 650.188 14.72H647.66V17.856ZM515.792 48V38.304H515.504L514 41.856H511.856L514.144 36.8H517.84V48H515.792ZM523.027 48V38.304H522.739L521.235 41.856H519.091L521.379 36.8H525.075V48H523.027ZM530.981 48.224C530.106 48.224 529.349 48.0693 528.709 47.76C528.08 47.4507 527.594 47.0133 527.253 46.448C526.912 45.8827 526.741 45.2267 526.741 44.48V44.32H528.821V44.464C528.821 44.9973 528.997 45.456 529.349 45.84C529.712 46.2133 530.245 46.4 530.949 46.4C531.653 46.4 532.192 46.2133 532.565 45.84C532.949 45.456 533.141 44.96 533.141 44.352V44.192C533.141 43.5947 532.949 43.12 532.565 42.768C532.192 42.416 531.722 42.24 531.157 42.24C530.848 42.24 530.592 42.2827 530.389 42.368C530.186 42.4533 530.021 42.56 529.893 42.688C529.765 42.816 529.658 42.944 529.573 43.072H527.093V36.8H534.741V38.656H529.141V41.392H529.429C529.536 41.2533 529.68 41.12 529.861 40.992C530.042 40.864 530.277 40.7573 530.565 40.672C530.853 40.5867 531.194 40.544 531.589 40.544C532.25 40.544 532.853 40.6827 533.397 40.96C533.941 41.2373 534.373 41.648 534.693 42.192C535.024 42.7253 535.189 43.3867 535.189 44.176V44.368C535.189 45.1573 535.018 45.84 534.677 46.416C534.346 46.992 533.866 47.44 533.237 47.76C532.608 48.0693 531.856 48.224 530.981 48.224ZM540.911 48.224C539.588 48.224 538.527 47.8613 537.727 47.136C536.927 46.4 536.527 45.2907 536.527 43.808V40.992C536.527 39.552 536.927 38.4587 537.727 37.712C538.527 36.9547 539.588 36.576 540.911 36.576C542.244 36.576 543.305 36.9547 544.095 37.712C544.895 38.4587 545.295 39.552 545.295 40.992V43.808C545.295 45.2907 544.895 46.4 544.095 47.136C543.305 47.8613 542.244 48.224 540.911 48.224ZM540.911 46.4C541.711 46.4 542.297 46.1813 542.671 45.744C543.055 45.3067 543.247 44.6827 543.247 43.872V40.896C543.247 40.0747 543.033 39.456 542.607 39.04C542.191 38.6133 541.625 38.4 540.911 38.4C540.175 38.4 539.599 38.6187 539.183 39.056C538.777 39.4933 538.575 40.1067 538.575 40.896V43.872C538.575 44.7147 538.767 45.3493 539.151 45.776C539.545 46.192 540.132 46.4 540.911 46.4ZM546.454 48L549.734 42.352L546.486 36.8H548.886L551.11 40.848H551.398L553.622 36.8H556.022L552.774 42.352L556.054 48H553.654L551.398 43.856H551.11L548.854 48H546.454ZM561.391 48.224C560.537 48.224 559.796 48.064 559.167 47.744C558.537 47.424 558.052 46.9813 557.711 46.416C557.369 45.8507 557.199 45.2 557.199 44.464V40.64C557.199 39.7333 557.38 38.9813 557.743 38.384C558.116 37.776 558.623 37.3227 559.263 37.024C559.913 36.7253 560.655 36.576 561.487 36.576C562.319 36.576 563.039 36.7147 563.647 36.992C564.265 37.2693 564.74 37.6693 565.071 38.192C565.412 38.7147 565.583 39.3387 565.583 40.064H563.503C563.503 39.616 563.348 39.2267 563.039 38.896C562.729 38.5653 562.212 38.4 561.487 38.4C560.772 38.4 560.217 38.5867 559.823 38.96C559.439 39.3333 559.247 39.8507 559.247 40.512V41.664H559.535C559.716 41.4507 559.993 41.248 560.367 41.056C560.74 40.864 561.284 40.768 561.999 40.768C562.649 40.768 563.247 40.9067 563.791 41.184C564.345 41.4613 564.793 41.8667 565.135 42.4C565.476 42.9227 565.647 43.5573 565.647 44.304V44.496C565.647 45.232 565.471 45.8827 565.119 46.448C564.767 47.0027 564.271 47.44 563.631 47.76C562.991 48.0693 562.244 48.224 561.391 48.224ZM561.423 46.4C562.095 46.4 562.623 46.224 563.007 45.872C563.401 45.52 563.599 45.0507 563.599 44.464V44.336C563.599 43.9413 563.508 43.6 563.327 43.312C563.156 43.024 562.905 42.8 562.575 42.64C562.255 42.48 561.871 42.4 561.423 42.4C560.985 42.4 560.601 42.48 560.271 42.64C559.94 42.8 559.684 43.024 559.503 43.312C559.332 43.6 559.247 43.9413 559.247 44.336V44.464C559.247 45.0507 559.439 45.52 559.823 45.872C560.217 46.224 560.751 46.4 561.423 46.4ZM571.473 48.224C570.151 48.224 569.089 47.8613 568.289 47.136C567.489 46.4 567.089 45.2907 567.089 43.808V40.992C567.089 39.552 567.489 38.4587 568.289 37.712C569.089 36.9547 570.151 36.576 571.473 36.576C572.807 36.576 573.868 36.9547 574.657 37.712C575.457 38.4587 575.857 39.552 575.857 40.992V43.808C575.857 45.2907 575.457 46.4 574.657 47.136C573.868 47.8613 572.807 48.224 571.473 48.224ZM571.473 46.4C572.273 46.4 572.86 46.1813 573.233 45.744C573.617 45.3067 573.809 44.6827 573.809 43.872V40.896C573.809 40.0747 573.596 39.456 573.169 39.04C572.753 38.6133 572.188 38.4 571.473 38.4C570.737 38.4 570.161 38.6187 569.745 39.056C569.34 39.4933 569.137 40.1067 569.137 40.896V43.872C569.137 44.7147 569.329 45.3493 569.713 45.776C570.108 46.192 570.695 46.4 571.473 46.4ZM589.175 48.224L587.895 46.944L589.463 45.376L590.119 44.976L590.023 44.704L589.255 44.832H581.527V43.008H589.255L590.023 43.136L590.119 42.864L589.463 42.464L587.895 40.896L589.175 39.616L592.823 43.264V44.576L589.175 48.224ZM602.45 48.224C601.607 48.224 600.861 48.0747 600.21 47.776C599.559 47.4773 599.047 47.0507 598.674 46.496C598.311 45.9307 598.13 45.264 598.13 44.496V44.208H600.178V44.432C600.178 45.0293 600.386 45.5093 600.802 45.872C601.218 46.224 601.767 46.4 602.45 46.4C603.143 46.4 603.677 46.2347 604.05 45.904C604.434 45.5733 604.626 45.1573 604.626 44.656V44.496C604.626 44.1547 604.541 43.8773 604.37 43.664C604.199 43.4507 603.97 43.296 603.682 43.2C603.394 43.0933 603.069 43.04 602.706 43.04H600.466V40.8L604.082 38.88V38.624H598.418V36.8H606.354V39.52L602.978 41.312V41.568H603.57C604.071 41.568 604.557 41.6693 605.026 41.872C605.506 42.0747 605.901 42.3893 606.21 42.816C606.519 43.232 606.674 43.776 606.674 44.448V44.64C606.674 45.3653 606.498 46 606.146 46.544C605.794 47.0773 605.298 47.4933 604.658 47.792C604.029 48.08 603.293 48.224 602.45 48.224ZM612.184 48.224C611.342 48.224 610.595 48.0747 609.944 47.776C609.294 47.4773 608.782 47.0507 608.408 46.496C608.046 45.9307 607.864 45.264 607.864 44.496V44.208H609.912V44.432C609.912 45.0293 610.12 45.5093 610.536 45.872C610.952 46.224 611.502 46.4 612.184 46.4C612.878 46.4 613.411 46.2347 613.784 45.904C614.168 45.5733 614.36 45.1573 614.36 44.656V44.496C614.36 44.1547 614.275 43.8773 614.104 43.664C613.934 43.4507 613.704 43.296 613.416 43.2C613.128 43.0933 612.803 43.04 612.44 43.04H610.2V40.8L613.816 38.88V38.624H608.152V36.8H616.088V39.52L612.712 41.312V41.568H613.304C613.806 41.568 614.291 41.6693 614.76 41.872C615.24 42.0747 615.635 42.3893 615.944 42.816C616.254 43.232 616.408 43.776 616.408 44.448V44.64C616.408 45.3653 616.232 46 615.88 46.544C615.528 47.0773 615.032 47.4933 614.392 47.792C613.763 48.08 613.027 48.224 612.184 48.224ZM622.047 48.224C621.194 48.224 620.452 48.064 619.823 47.744C619.194 47.424 618.708 46.9813 618.367 46.416C618.026 45.8507 617.855 45.2 617.855 44.464V40.64C617.855 39.7333 618.036 38.9813 618.399 38.384C618.772 37.776 619.279 37.3227 619.919 37.024C620.57 36.7253 621.311 36.576 622.143 36.576C622.975 36.576 623.695 36.7147 624.303 36.992C624.922 37.2693 625.396 37.6693 625.727 38.192C626.068 38.7147 626.239 39.3387 626.239 40.064H624.159C624.159 39.616 624.004 39.2267 623.695 38.896C623.386 38.5653 622.868 38.4 622.143 38.4C621.428 38.4 620.874 38.5867 620.479 38.96C620.095 39.3333 619.903 39.8507 619.903 40.512V41.664H620.191C620.372 41.4507 620.65 41.248 621.023 41.056C621.396 40.864 621.94 40.768 622.655 40.768C623.306 40.768 623.903 40.9067 624.447 41.184C625.002 41.4613 625.45 41.8667 625.791 42.4C626.132 42.9227 626.303 43.5573 626.303 44.304V44.496C626.303 45.232 626.127 45.8827 625.775 46.448C625.423 47.0027 624.927 47.44 624.287 47.76C623.647 48.0693 622.9 48.224 622.047 48.224ZM622.079 46.4C622.751 46.4 623.279 46.224 623.663 45.872C624.058 45.52 624.255 45.0507 624.255 44.464V44.336C624.255 43.9413 624.164 43.6 623.983 43.312C623.812 43.024 623.562 42.8 623.231 42.64C622.911 42.48 622.527 42.4 622.079 42.4C621.642 42.4 621.258 42.48 620.927 42.64C620.596 42.8 620.34 43.024 620.159 43.312C619.988 43.6 619.903 43.9413 619.903 44.336V44.464C619.903 45.0507 620.095 45.52 620.479 45.872C620.874 46.224 621.407 46.4 622.079 46.4ZM627.297 48L630.577 42.352L627.329 36.8H629.729L631.953 40.848H632.241L634.465 36.8H636.865L633.617 42.352L636.897 48H634.497L632.241 43.856H631.953L629.697 48H627.297ZM642.234 48.224C641.381 48.224 640.64 48.064 640.01 47.744C639.381 47.424 638.896 46.9813 638.554 46.416C638.213 45.8507 638.042 45.2 638.042 44.464V40.64C638.042 39.7333 638.224 38.9813 638.586 38.384C638.96 37.776 639.466 37.3227 640.106 37.024C640.757 36.7253 641.498 36.576 642.33 36.576C643.162 36.576 643.882 36.7147 644.49 36.992C645.109 37.2693 645.584 37.6693 645.914 38.192C646.256 38.7147 646.426 39.3387 646.426 40.064H644.346C644.346 39.616 644.192 39.2267 643.882 38.896C643.573 38.5653 643.056 38.4 642.33 38.4C641.616 38.4 641.061 38.5867 640.666 38.96C640.282 39.3333 640.09 39.8507 640.09 40.512V41.664H640.378C640.56 41.4507 640.837 41.248 641.21 41.056C641.584 40.864 642.128 40.768 642.842 40.768C643.493 40.768 644.09 40.9067 644.634 41.184C645.189 41.4613 645.637 41.8667 645.978 42.4C646.32 42.9227 646.49 43.5573 646.49 44.304V44.496C646.49 45.232 646.314 45.8827 645.962 46.448C645.61 47.0027 645.114 47.44 644.474 47.76C643.834 48.0693 643.088 48.224 642.234 48.224ZM642.266 46.4C642.938 46.4 643.466 46.224 643.85 45.872C644.245 45.52 644.442 45.0507 644.442 44.464V44.336C644.442 43.9413 644.352 43.6 644.17 43.312C644 43.024 643.749 42.8 643.418 42.64C643.098 42.48 642.714 42.4 642.266 42.4C641.829 42.4 641.445 42.48 641.114 42.64C640.784 42.8 640.528 43.024 640.346 43.312C640.176 43.6 640.09 43.9413 640.09 44.336V44.464C640.09 45.0507 640.282 45.52 640.666 45.872C641.061 46.224 641.594 46.4 642.266 46.4ZM652.317 48.224C650.994 48.224 649.933 47.8613 649.133 47.136C648.333 46.4 647.933 45.2907 647.933 43.808V40.992C647.933 39.552 648.333 38.4587 649.133 37.712C649.933 36.9547 650.994 36.576 652.317 36.576C653.65 36.576 654.712 36.9547 655.501 37.712C656.301 38.4587 656.701 39.552 656.701 40.992V43.808C656.701 45.2907 656.301 46.4 655.501 47.136C654.712 47.8613 653.65 48.224 652.317 48.224ZM652.317 46.4C653.117 46.4 653.704 46.1813 654.077 45.744C654.461 45.3067 654.653 44.6827 654.653 43.872V40.896C654.653 40.0747 654.44 39.456 654.013 39.04C653.597 38.6133 653.032 38.4 652.317 38.4C651.581 38.4 651.005 38.6187 650.589 39.056C650.184 39.4933 649.981 40.1067 649.981 40.896V43.872C649.981 44.7147 650.173 45.3493 650.557 45.776C650.952 46.192 651.538 46.4 652.317 46.4Z" fill="white"/>
</svg>
