<svg width="336" height="90" viewBox="0 0 336 90" fill="none" xmlns="http://www.w3.org/2000/svg">
<rect width="336" height="90" fill="#000"/>
<path d="M87.0997 39L92.1397 27.8H94.1877L99.2437 39H97.0677L92.7317 28.904H93.5637L89.2437 39H87.0997ZM89.4197 36.408L89.9797 34.776H96.0277L96.5877 36.408H89.4197ZM100.668 39V27.8H105.564C106.78 27.8 107.847 28.0347 108.764 28.504C109.681 28.9733 110.396 29.624 110.908 30.456C111.42 31.288 111.676 32.2693 111.676 33.4C111.676 34.52 111.42 35.5013 110.908 36.344C110.396 37.176 109.681 37.8267 108.764 38.296C107.847 38.7653 106.78 39 105.564 39H100.668ZM102.748 37.24H105.468C106.311 37.24 107.036 37.08 107.644 36.76C108.263 36.44 108.737 35.992 109.068 35.416C109.409 34.84 109.58 34.168 109.58 33.4C109.58 32.6213 109.409 31.9493 109.068 31.384C108.737 30.808 108.263 30.36 107.644 30.04C107.036 29.72 106.311 29.56 105.468 29.56H102.748V37.24ZM120.213 32.952H125.797V34.712H120.213V32.952ZM120.389 39H118.309V27.8H126.485V29.544H120.389V39ZM133.619 39.16C132.745 39.16 131.939 39.016 131.203 38.728C130.467 38.44 129.827 38.04 129.283 37.528C128.739 37.0053 128.318 36.3973 128.019 35.704C127.721 35 127.571 34.232 127.571 33.4C127.571 32.568 127.721 31.8053 128.019 31.112C128.318 30.408 128.739 29.8 129.283 29.288C129.827 28.7653 130.467 28.36 131.203 28.072C131.939 27.784 132.739 27.64 133.603 27.64C134.478 27.64 135.278 27.784 136.003 28.072C136.739 28.36 137.379 28.7653 137.923 29.288C138.467 29.8 138.889 30.408 139.187 31.112C139.486 31.8053 139.635 32.568 139.635 33.4C139.635 34.232 139.486 35 139.187 35.704C138.889 36.408 138.467 37.016 137.923 37.528C137.379 38.04 136.739 38.44 136.003 38.728C135.278 39.016 134.483 39.16 133.619 39.16ZM133.603 37.336C134.169 37.336 134.691 37.24 135.171 37.048C135.651 36.856 136.067 36.584 136.419 36.232C136.771 35.8693 137.043 35.4533 137.235 34.984C137.438 34.504 137.539 33.976 137.539 33.4C137.539 32.824 137.438 32.3013 137.235 31.832C137.043 31.352 136.771 30.936 136.419 30.584C136.067 30.2213 135.651 29.944 135.171 29.752C134.691 29.56 134.169 29.464 133.603 29.464C133.038 29.464 132.515 29.56 132.035 29.752C131.566 29.944 131.15 30.2213 130.787 30.584C130.435 30.936 130.158 31.352 129.955 31.832C129.763 32.3013 129.667 32.824 129.667 33.4C129.667 33.9653 129.763 34.488 129.955 34.968C130.158 35.448 130.435 35.8693 130.787 36.232C131.139 36.584 131.555 36.856 132.035 37.048C132.515 37.24 133.038 37.336 133.603 37.336ZM147.088 39.16C146.213 39.16 145.408 39.016 144.672 38.728C143.936 38.44 143.296 38.04 142.752 37.528C142.208 37.0053 141.787 36.3973 141.488 35.704C141.189 35 141.04 34.232 141.04 33.4C141.04 32.568 141.189 31.8053 141.488 31.112C141.787 30.408 142.208 29.8 142.752 29.288C143.296 28.7653 143.936 28.36 144.672 28.072C145.408 27.784 146.208 27.64 147.072 27.64C147.947 27.64 148.747 27.784 149.472 28.072C150.208 28.36 150.848 28.7653 151.392 29.288C151.936 29.8 152.357 30.408 152.656 31.112C152.955 31.8053 153.104 32.568 153.104 33.4C153.104 34.232 152.955 35 152.656 35.704C152.357 36.408 151.936 37.016 151.392 37.528C150.848 38.04 150.208 38.44 149.472 38.728C148.747 39.016 147.952 39.16 147.088 39.16ZM147.072 37.336C147.637 37.336 148.16 37.24 148.64 37.048C149.12 36.856 149.536 36.584 149.888 36.232C150.24 35.8693 150.512 35.4533 150.704 34.984C150.907 34.504 151.008 33.976 151.008 33.4C151.008 32.824 150.907 32.3013 150.704 31.832C150.512 31.352 150.24 30.936 149.888 30.584C149.536 30.2213 149.12 29.944 148.64 29.752C148.16 29.56 147.637 29.464 147.072 29.464C146.507 29.464 145.984 29.56 145.504 29.752C145.035 29.944 144.619 30.2213 144.256 30.584C143.904 30.936 143.627 31.352 143.424 31.832C143.232 32.3013 143.136 32.824 143.136 33.4C143.136 33.9653 143.232 34.488 143.424 34.968C143.627 35.448 143.904 35.8693 144.256 36.232C144.608 36.584 145.024 36.856 145.504 37.048C145.984 37.24 146.507 37.336 147.072 37.336ZM157.424 39V29.56H153.712V27.8H163.216V29.56H159.504V39H157.424ZM166.697 32.456H172.265V34.168H166.697V32.456ZM166.857 37.256H173.177V39H164.777V27.8H172.953V29.544H166.857V37.256ZM175.496 39V27.8H180.104C181.096 27.8 181.944 27.96 182.648 28.28C183.363 28.6 183.912 29.0587 184.296 29.656C184.68 30.2533 184.872 30.9627 184.872 31.784C184.872 32.6053 184.68 33.3147 184.296 33.912C183.912 34.4987 183.363 34.952 182.648 35.272C181.944 35.5813 181.096 35.736 180.104 35.736H176.648L177.576 34.792V39H175.496ZM182.824 39L179.992 34.936H182.216L185.064 39H182.824ZM177.576 35.016L176.648 34.024H180.008C180.926 34.024 181.614 33.8267 182.072 33.432C182.542 33.0373 182.776 32.488 182.776 31.784C182.776 31.0693 182.542 30.52 182.072 30.136C181.614 29.752 180.926 29.56 180.008 29.56H176.648L177.576 28.536V35.016ZM195.093 39.16C194.219 39.16 193.381 39.0373 192.581 38.792C191.781 38.536 191.147 38.2107 190.677 37.816L191.397 36.2C191.845 36.552 192.4 36.8453 193.061 37.08C193.723 37.3147 194.4 37.432 195.093 37.432C195.68 37.432 196.155 37.368 196.517 37.24C196.88 37.112 197.147 36.9413 197.317 36.728C197.488 36.504 197.573 36.2533 197.573 35.976C197.573 35.6347 197.451 35.3627 197.205 35.16C196.96 34.9467 196.64 34.7813 196.245 34.664C195.861 34.536 195.429 34.4187 194.949 34.312C194.48 34.2053 194.005 34.0827 193.525 33.944C193.056 33.7947 192.624 33.608 192.229 33.384C191.845 33.1493 191.531 32.84 191.285 32.456C191.04 32.072 190.917 31.5813 190.917 30.984C190.917 30.376 191.077 29.8213 191.397 29.32C191.728 28.808 192.224 28.4027 192.885 28.104C193.557 27.7947 194.405 27.64 195.429 27.64C196.101 27.64 196.768 27.7253 197.429 27.896C198.091 28.0667 198.667 28.312 199.157 28.632L198.501 30.248C198 29.9493 197.483 29.7307 196.949 29.592C196.416 29.4427 195.904 29.368 195.413 29.368C194.837 29.368 194.368 29.4373 194.005 29.576C193.653 29.7147 193.392 29.896 193.221 30.12C193.061 30.344 192.981 30.6 192.981 30.888C192.981 31.2293 193.099 31.5067 193.333 31.72C193.579 31.9227 193.893 32.0827 194.277 32.2C194.672 32.3173 195.109 32.4347 195.589 32.552C196.069 32.6587 196.544 32.7813 197.013 32.92C197.493 33.0587 197.925 33.24 198.309 33.464C198.704 33.688 199.019 33.992 199.253 34.376C199.499 34.76 199.621 35.2453 199.621 35.832C199.621 36.4293 199.456 36.984 199.125 37.496C198.805 37.9973 198.309 38.4027 197.637 38.712C196.965 39.0107 196.117 39.16 195.093 39.16ZM203.799 39V29.56H200.087V27.8H209.591V29.56H205.879V39H203.799ZM211.152 39V27.8H213.232V39H211.152ZM221.446 39.16C220.592 39.16 219.798 39.0213 219.062 38.744C218.336 38.456 217.702 38.056 217.158 37.544C216.624 37.0213 216.208 36.408 215.91 35.704C215.611 35 215.462 34.232 215.462 33.4C215.462 32.568 215.611 31.8 215.91 31.096C216.208 30.392 216.63 29.784 217.174 29.272C217.718 28.7493 218.352 28.3493 219.078 28.072C219.803 27.784 220.598 27.64 221.462 27.64C222.379 27.64 223.216 27.8 223.974 28.12C224.731 28.4293 225.371 28.8933 225.894 29.512L224.55 30.776C224.144 30.3387 223.691 30.0133 223.19 29.8C222.688 29.576 222.144 29.464 221.558 29.464C220.971 29.464 220.432 29.56 219.942 29.752C219.462 29.944 219.04 30.216 218.678 30.568C218.326 30.92 218.048 31.336 217.846 31.816C217.654 32.296 217.558 32.824 217.558 33.4C217.558 33.976 217.654 34.504 217.846 34.984C218.048 35.464 218.326 35.88 218.678 36.232C219.04 36.584 219.462 36.856 219.942 37.048C220.432 37.24 220.971 37.336 221.558 37.336C222.144 37.336 222.688 37.2293 223.19 37.016C223.691 36.792 224.144 36.456 224.55 36.008L225.894 37.288C225.371 37.896 224.731 38.36 223.974 38.68C223.216 39 222.374 39.16 221.446 39.16ZM229.743 36.36L229.631 33.896L235.503 27.8H237.839L232.959 32.984L231.807 34.248L229.743 36.36ZM227.887 39V27.8H229.967V39H227.887ZM235.695 39L231.407 33.896L232.783 32.376L238.127 39H235.695ZM241.498 39V34.568L241.962 35.848L237.098 27.8H239.322L243.226 34.28H241.978L245.914 27.8H247.962L243.098 35.848L243.578 34.568V39H241.498ZM132.638 63.16C131.849 63.16 131.075 63.048 130.318 62.824C129.571 62.5893 128.942 62.2693 128.43 61.864L129.326 60.248C129.731 60.5787 130.222 60.8453 130.798 61.048C131.374 61.2507 131.977 61.352 132.606 61.352C133.353 61.352 133.934 61.2027 134.35 60.904C134.766 60.5947 134.974 60.1787 134.974 59.656C134.974 59.144 134.782 58.7387 134.398 58.44C134.014 58.1413 133.395 57.992 132.542 57.992H131.518V56.568L134.718 52.76L134.99 53.544H128.974V51.8H136.606V53.192L133.406 57L132.318 56.36H132.942C134.318 56.36 135.347 56.6693 136.03 57.288C136.723 57.896 137.07 58.68 137.07 59.64C137.07 60.2693 136.91 60.8507 136.59 61.384C136.27 61.9173 135.779 62.3493 135.118 62.68C134.467 63 133.641 63.16 132.638 63.16ZM141.872 63.16C141.083 63.16 140.31 63.048 139.552 62.824C138.806 62.5893 138.176 62.2693 137.664 61.864L138.56 60.248C138.966 60.5787 139.456 60.8453 140.032 61.048C140.608 61.2507 141.211 61.352 141.84 61.352C142.587 61.352 143.168 61.2027 143.584 60.904C144 60.5947 144.208 60.1787 144.208 59.656C144.208 59.144 144.016 58.7387 143.632 58.44C143.248 58.1413 142.63 57.992 141.776 57.992H140.752V56.568L143.952 52.76L144.224 53.544H138.208V51.8H145.84V53.192L142.64 57L141.552 56.36H142.176C143.552 56.36 144.582 56.6693 145.264 57.288C145.958 57.896 146.304 58.68 146.304 59.64C146.304 60.2693 146.144 60.8507 145.824 61.384C145.504 61.9173 145.014 62.3493 144.352 62.68C143.702 63 142.875 63.16 141.872 63.16ZM152.513 63.16C151.5 63.16 150.63 62.9467 149.905 62.52C149.18 62.0827 148.625 61.4533 148.241 60.632C147.857 59.8107 147.665 58.7973 147.665 57.592C147.665 56.312 147.894 55.2293 148.353 54.344C148.822 53.4587 149.468 52.7867 150.289 52.328C151.121 51.8693 152.076 51.64 153.153 51.64C153.718 51.64 154.257 51.6987 154.769 51.816C155.292 51.9333 155.734 52.1147 156.097 52.36L155.329 53.928C155.02 53.7253 154.684 53.5867 154.321 53.512C153.969 53.4267 153.596 53.384 153.201 53.384C152.145 53.384 151.308 53.7093 150.689 54.36C150.07 55.0107 149.761 55.9707 149.761 57.24C149.761 57.4427 149.766 57.6827 149.777 57.96C149.788 58.2267 149.825 58.4987 149.889 58.776L149.249 58.072C149.441 57.6347 149.702 57.272 150.033 56.984C150.374 56.6853 150.774 56.4613 151.233 56.312C151.702 56.1627 152.209 56.088 152.753 56.088C153.489 56.088 154.145 56.232 154.721 56.52C155.297 56.7973 155.756 57.1973 156.097 57.72C156.438 58.232 156.609 58.8347 156.609 59.528C156.609 60.264 156.428 60.904 156.065 61.448C155.702 61.992 155.212 62.4133 154.593 62.712C153.974 63.0107 153.281 63.16 152.513 63.16ZM152.401 61.528C152.828 61.528 153.206 61.4533 153.537 61.304C153.868 61.144 154.124 60.92 154.305 60.632C154.497 60.344 154.593 60.008 154.593 59.624C154.593 59.0373 154.39 58.5733 153.985 58.232C153.58 57.8907 153.036 57.72 152.353 57.72C151.905 57.72 151.51 57.8053 151.169 57.976C150.838 58.136 150.572 58.36 150.369 58.648C150.177 58.936 150.081 59.2667 150.081 59.64C150.081 59.9813 150.172 60.296 150.353 60.584C150.534 60.872 150.796 61.1013 151.137 61.272C151.489 61.4427 151.91 61.528 152.401 61.528ZM156.902 63L160.662 58.104L160.63 59.176L157.046 54.456H159.27L161.782 57.816H160.934L163.462 54.456H165.622L162.006 59.176L162.022 58.104L165.766 63H163.51L160.87 59.432L161.702 59.544L159.11 63H156.902ZM170.41 51.64C171.434 51.64 172.303 51.8587 173.018 52.296C173.743 52.7227 174.298 53.3467 174.682 54.168C175.066 54.9893 175.258 56.0027 175.258 57.208C175.258 58.488 175.023 59.5707 174.554 60.456C174.095 61.3413 173.455 62.0133 172.634 62.472C171.812 62.9307 170.858 63.16 169.77 63.16C169.204 63.16 168.666 63.1013 168.154 62.984C167.642 62.8667 167.199 62.6853 166.826 62.44L167.594 60.872C167.903 61.0747 168.239 61.2187 168.602 61.304C168.964 61.3787 169.338 61.416 169.722 61.416C170.778 61.416 171.615 61.0907 172.234 60.44C172.852 59.7893 173.162 58.8293 173.162 57.56C173.162 57.3573 173.156 57.1227 173.146 56.856C173.135 56.5787 173.098 56.3013 173.034 56.024L173.674 56.728C173.492 57.1653 173.231 57.5333 172.89 57.832C172.548 58.12 172.148 58.3387 171.69 58.488C171.231 58.6373 170.724 58.712 170.17 58.712C169.444 58.712 168.788 58.5733 168.202 58.296C167.626 58.008 167.167 57.608 166.826 57.096C166.484 56.5733 166.314 55.9653 166.314 55.272C166.314 54.5253 166.495 53.8853 166.858 53.352C167.22 52.808 167.711 52.3867 168.33 52.088C168.959 51.7893 169.652 51.64 170.41 51.64ZM170.522 53.272C170.095 53.272 169.716 53.352 169.386 53.512C169.055 53.6613 168.794 53.88 168.602 54.168C168.42 54.4453 168.33 54.7813 168.33 55.176C168.33 55.7627 168.532 56.2267 168.938 56.568C169.343 56.9093 169.887 57.08 170.57 57.08C171.018 57.08 171.412 57 171.754 56.84C172.095 56.6693 172.362 56.44 172.554 56.152C172.746 55.8533 172.842 55.5227 172.842 55.16C172.842 54.808 172.751 54.4933 172.57 54.216C172.388 53.928 172.127 53.6987 171.786 53.528C171.444 53.3573 171.023 53.272 170.522 53.272ZM181.337 63.16C180.452 63.16 179.652 62.936 178.937 62.488C178.233 62.04 177.678 61.3893 177.273 60.536C176.868 59.672 176.665 58.6267 176.665 57.4C176.665 56.1733 176.868 55.1333 177.273 54.28C177.678 53.416 178.233 52.76 178.937 52.312C179.652 51.864 180.452 51.64 181.337 51.64C182.233 51.64 183.033 51.864 183.737 52.312C184.441 52.76 184.996 53.416 185.401 54.28C185.817 55.1333 186.025 56.1733 186.025 57.4C186.025 58.6267 185.817 59.672 185.401 60.536C184.996 61.3893 184.441 62.04 183.737 62.488C183.033 62.936 182.233 63.16 181.337 63.16ZM181.337 61.352C181.86 61.352 182.313 61.2133 182.697 60.936C183.081 60.648 183.38 60.2107 183.593 59.624C183.817 59.0373 183.929 58.296 183.929 57.4C183.929 56.4933 183.817 55.752 183.593 55.176C183.38 54.5893 183.081 54.1573 182.697 53.88C182.313 53.592 181.86 53.448 181.337 53.448C180.836 53.448 180.388 53.592 179.993 53.88C179.609 54.1573 179.305 54.5893 179.081 55.176C178.868 55.752 178.761 56.4933 178.761 57.4C178.761 58.296 178.868 59.0373 179.081 59.624C179.305 60.2107 179.609 60.648 179.993 60.936C180.388 61.2133 180.836 61.352 181.337 61.352ZM192.775 63.112C192.081 63.112 191.447 62.952 190.871 62.632C190.305 62.312 189.852 61.832 189.511 61.192C189.18 60.5413 189.015 59.72 189.015 58.728C189.015 57.7253 189.175 56.904 189.495 56.264C189.825 55.624 190.273 55.1493 190.839 54.84C191.404 54.52 192.049 54.36 192.775 54.36C193.617 54.36 194.359 54.5413 194.999 54.904C195.649 55.2667 196.161 55.7733 196.535 56.424C196.919 57.0747 197.111 57.8427 197.111 58.728C197.111 59.6133 196.919 60.3867 196.535 61.048C196.161 61.6987 195.649 62.2053 194.999 62.568C194.359 62.9307 193.617 63.112 192.775 63.112ZM188.039 66.104V54.456H189.943V56.472L189.879 58.744L190.039 61.016V66.104H188.039ZM192.551 61.4C193.031 61.4 193.457 61.2933 193.831 61.08C194.215 60.8667 194.519 60.5573 194.743 60.152C194.967 59.7467 195.079 59.272 195.079 58.728C195.079 58.1733 194.967 57.6987 194.743 57.304C194.519 56.8987 194.215 56.5893 193.831 56.376C193.457 56.1627 193.031 56.056 192.551 56.056C192.071 56.056 191.639 56.1627 191.255 56.376C190.871 56.5893 190.567 56.8987 190.343 57.304C190.119 57.6987 190.007 58.1733 190.007 58.728C190.007 59.272 190.119 59.7467 190.343 60.152C190.567 60.5573 190.871 60.8667 191.255 61.08C191.639 61.2933 192.071 61.4 192.551 61.4ZM197.558 63L201.318 58.104L201.286 59.176L197.702 54.456H199.926L202.438 57.816H201.59L204.118 54.456H206.278L202.662 59.176L202.678 58.104L206.422 63H204.166L201.526 59.432L202.358 59.544L199.766 63H197.558Z" fill="white"/>
</svg>
