<svg width="1150" height="60" viewBox="0 0 1150 60" fill="none" xmlns="http://www.w3.org/2000/svg">
<rect width="1150" height="60" fill="black"/>
<path d="M514.296 24L517.24 12.8H520.92L523.864 24H521.688L521.08 21.536H517.08L516.472 24H514.296ZM517.576 19.584H520.584L519.224 14.128H518.936L517.576 19.584ZM524.885 24V22.144H526.357V14.656H524.885V12.8H529.493C530.997 12.8 532.138 13.184 532.917 13.952C533.706 14.7093 534.101 15.84 534.101 17.344V19.456C534.101 20.96 533.706 22.096 532.917 22.864C532.138 23.6213 530.997 24 529.493 24H524.885ZM528.469 22.08H529.525C530.378 22.08 531.002 21.856 531.397 21.408C531.791 20.96 531.989 20.3307 531.989 19.52V17.28C531.989 16.4587 531.791 15.8293 531.397 15.392C531.002 14.944 530.378 14.72 529.525 14.72H528.469V22.08ZM543.811 24.224C542.947 24.224 542.185 24.0693 541.523 23.76C540.862 23.4507 540.345 23.008 539.971 22.432C539.598 21.856 539.411 21.1627 539.411 20.352V19.904H541.491V20.352C541.491 21.024 541.699 21.5307 542.115 21.872C542.531 22.2027 543.097 22.368 543.811 22.368C544.537 22.368 545.075 22.224 545.427 21.936C545.79 21.648 545.971 21.28 545.971 20.832C545.971 20.5227 545.881 20.272 545.699 20.08C545.529 19.888 545.273 19.7333 544.931 19.616C544.601 19.488 544.195 19.3707 543.715 19.264L543.347 19.184C542.579 19.0133 541.918 18.8 541.363 18.544C540.819 18.2773 540.398 17.9307 540.099 17.504C539.811 17.0773 539.667 16.5227 539.667 15.84C539.667 15.1573 539.827 14.576 540.147 14.096C540.478 13.6053 540.937 13.232 541.523 12.976C542.121 12.7093 542.819 12.576 543.619 12.576C544.419 12.576 545.129 12.7147 545.747 12.992C546.377 13.2587 546.867 13.664 547.219 14.208C547.582 14.7413 547.763 15.4133 547.763 16.224V16.704H545.683V16.224C545.683 15.7973 545.598 15.456 545.427 15.2C545.267 14.9333 545.033 14.7413 544.723 14.624C544.414 14.496 544.046 14.432 543.619 14.432C542.979 14.432 542.505 14.5547 542.195 14.8C541.897 15.0347 541.747 15.36 541.747 15.776C541.747 16.0533 541.817 16.288 541.955 16.48C542.105 16.672 542.323 16.832 542.611 16.96C542.899 17.088 543.267 17.2 543.715 17.296L544.083 17.376C544.883 17.5467 545.577 17.7653 546.163 18.032C546.761 18.2987 547.225 18.6507 547.555 19.088C547.886 19.5253 548.051 20.0853 548.051 20.768C548.051 21.4507 547.875 22.0533 547.523 22.576C547.182 23.088 546.691 23.4933 546.051 23.792C545.422 24.08 544.675 24.224 543.811 24.224ZM551.859 24V14.72H548.595V12.8H557.235V14.72H553.971V24H551.859ZM558.673 24V12.8H560.785V24H558.673ZM567.148 24.224C565.761 24.224 564.663 23.84 563.852 23.072C563.041 22.2933 562.636 21.184 562.636 19.744V17.056C562.636 15.616 563.041 14.512 563.852 13.744C564.663 12.9653 565.761 12.576 567.148 12.576C568.524 12.576 569.585 12.9547 570.332 13.712C571.089 14.4587 571.468 15.488 571.468 16.8V16.896H569.388V16.736C569.388 16.0747 569.201 15.5307 568.828 15.104C568.465 14.6773 567.905 14.464 567.148 14.464C566.401 14.464 565.815 14.6933 565.388 15.152C564.961 15.6107 564.748 16.2347 564.748 17.024V19.776C564.748 20.5547 564.961 21.1787 565.388 21.648C565.815 22.1067 566.401 22.336 567.148 22.336C567.905 22.336 568.465 22.1227 568.828 21.696C569.201 21.2587 569.388 20.7147 569.388 20.064V19.776H571.468V20C571.468 21.312 571.089 22.3467 570.332 23.104C569.585 23.8507 568.524 24.224 567.148 24.224ZM573.189 24V12.8H575.301V17.248H575.589L579.221 12.8H581.925L577.253 18.32L582.085 24H579.301L575.589 19.456H575.301V24H573.189ZM586.085 24V20.144L582.277 12.8H584.629L586.997 17.6H587.285L589.653 12.8H592.005L588.197 20.144V24H586.085ZM597.095 24V12.8H599.207V17.424H603.367V12.8H605.479V24H603.367V19.344H599.207V24H597.095ZM607.595 24V12.8H614.795V14.72H609.707V17.392H614.347V19.312H609.707V22.08H614.891V24H607.595ZM615.687 24L618.631 12.8H622.311L625.255 24H623.079L622.471 21.536H618.471L617.863 24H615.687ZM618.967 19.584H621.975L620.615 14.128H620.327L618.967 19.584ZM626.275 24V22.144H627.747V14.656H626.275V12.8H630.883C632.387 12.8 633.529 13.184 634.307 13.952C635.097 14.7093 635.491 15.84 635.491 17.344V19.456C635.491 20.96 635.097 22.096 634.307 22.864C633.529 23.6213 632.387 24 630.883 24H626.275ZM629.859 22.08H630.915C631.769 22.08 632.393 21.856 632.787 21.408C633.182 20.96 633.379 20.3307 633.379 19.52V17.28C633.379 16.4587 633.182 15.8293 632.787 15.392C632.393 14.944 631.769 14.72 630.915 14.72H629.859V22.08ZM637.251 24V12.8H644.451V14.72H639.363V17.392H644.003V19.312H639.363V22.08H644.547V24H637.251ZM646.111 24V12.8H650.975C651.679 12.8 652.292 12.9227 652.815 13.168C653.338 13.4133 653.743 13.76 654.031 14.208C654.319 14.656 654.463 15.184 654.463 15.792V15.984C654.463 16.656 654.303 17.2 653.983 17.616C653.663 18.032 653.268 18.336 652.799 18.528V18.816C653.226 18.8373 653.556 18.9867 653.791 19.264C654.026 19.5307 654.143 19.888 654.143 20.336V24H652.031V20.64C652.031 20.384 651.962 20.176 651.823 20.016C651.695 19.856 651.476 19.776 651.167 19.776H648.223V24H646.111ZM648.223 17.856H650.751C651.252 17.856 651.642 17.7227 651.919 17.456C652.207 17.1787 652.351 16.816 652.351 16.368V16.208C652.351 15.76 652.212 15.4027 651.935 15.136C651.658 14.8587 651.263 14.72 650.751 14.72H648.223V17.856ZM515.792 48V38.304H515.504L514 41.856H511.856L514.144 36.8H517.84V48H515.792ZM523.027 48V38.304H522.739L521.235 41.856H519.091L521.379 36.8H525.075V48H523.027ZM530.981 48.224C530.106 48.224 529.349 48.0693 528.709 47.76C528.08 47.4507 527.594 47.0133 527.253 46.448C526.912 45.8827 526.741 45.2267 526.741 44.48V44.32H528.821V44.464C528.821 44.9973 528.997 45.456 529.349 45.84C529.712 46.2133 530.245 46.4 530.949 46.4C531.653 46.4 532.192 46.2133 532.565 45.84C532.949 45.456 533.141 44.96 533.141 44.352V44.192C533.141 43.5947 532.949 43.12 532.565 42.768C532.192 42.416 531.722 42.24 531.157 42.24C530.848 42.24 530.592 42.2827 530.389 42.368C530.186 42.4533 530.021 42.56 529.893 42.688C529.765 42.816 529.658 42.944 529.573 43.072H527.093V36.8H534.741V38.656H529.141V41.392H529.429C529.536 41.2533 529.68 41.12 529.861 40.992C530.042 40.864 530.277 40.7573 530.565 40.672C530.853 40.5867 531.194 40.544 531.589 40.544C532.25 40.544 532.853 40.6827 533.397 40.96C533.941 41.2373 534.373 41.648 534.693 42.192C535.024 42.7253 535.189 43.3867 535.189 44.176V44.368C535.189 45.1573 535.018 45.84 534.677 46.416C534.346 46.992 533.866 47.44 533.237 47.76C532.608 48.0693 531.856 48.224 530.981 48.224ZM540.911 48.224C539.588 48.224 538.527 47.8613 537.727 47.136C536.927 46.4 536.527 45.2907 536.527 43.808V40.992C536.527 39.552 536.927 38.4587 537.727 37.712C538.527 36.9547 539.588 36.576 540.911 36.576C542.244 36.576 543.305 36.9547 544.095 37.712C544.895 38.4587 545.295 39.552 545.295 40.992V43.808C545.295 45.2907 544.895 46.4 544.095 47.136C543.305 47.8613 542.244 48.224 540.911 48.224ZM540.911 46.4C541.711 46.4 542.297 46.1813 542.671 45.744C543.055 45.3067 543.247 44.6827 543.247 43.872V40.896C543.247 40.0747 543.033 39.456 542.607 39.04C542.191 38.6133 541.625 38.4 540.911 38.4C540.175 38.4 539.599 38.6187 539.183 39.056C538.777 39.4933 538.575 40.1067 538.575 40.896V43.872C538.575 44.7147 538.767 45.3493 539.151 45.776C539.545 46.192 540.132 46.4 540.911 46.4ZM546.454 48L549.734 42.352L546.486 36.8H548.886L551.11 40.848H551.398L553.622 36.8H556.022L552.774 42.352L556.054 48H553.654L551.398 43.856H551.11L548.854 48H546.454ZM561.391 48.224C560.537 48.224 559.796 48.064 559.167 47.744C558.537 47.424 558.052 46.9813 557.711 46.416C557.369 45.8507 557.199 45.2 557.199 44.464V40.64C557.199 39.7333 557.38 38.9813 557.743 38.384C558.116 37.776 558.623 37.3227 559.263 37.024C559.913 36.7253 560.655 36.576 561.487 36.576C562.319 36.576 563.039 36.7147 563.647 36.992C564.265 37.2693 564.74 37.6693 565.071 38.192C565.412 38.7147 565.583 39.3387 565.583 40.064H563.503C563.503 39.616 563.348 39.2267 563.039 38.896C562.729 38.5653 562.212 38.4 561.487 38.4C560.772 38.4 560.217 38.5867 559.823 38.96C559.439 39.3333 559.247 39.8507 559.247 40.512V41.664H559.535C559.716 41.4507 559.993 41.248 560.367 41.056C560.74 40.864 561.284 40.768 561.999 40.768C562.649 40.768 563.247 40.9067 563.791 41.184C564.345 41.4613 564.793 41.8667 565.135 42.4C565.476 42.9227 565.647 43.5573 565.647 44.304V44.496C565.647 45.232 565.471 45.8827 565.119 46.448C564.767 47.0027 564.271 47.44 563.631 47.76C562.991 48.0693 562.244 48.224 561.391 48.224ZM561.423 46.4C562.095 46.4 562.623 46.224 563.007 45.872C563.401 45.52 563.599 45.0507 563.599 44.464V44.336C563.599 43.9413 563.508 43.6 563.327 43.312C563.156 43.024 562.905 42.8 562.575 42.64C562.255 42.48 561.871 42.4 561.423 42.4C560.985 42.4 560.601 42.48 560.271 42.64C559.94 42.8 559.684 43.024 559.503 43.312C559.332 43.6 559.247 43.9413 559.247 44.336V44.464C559.247 45.0507 559.439 45.52 559.823 45.872C560.217 46.224 560.751 46.4 561.423 46.4ZM571.473 48.224C570.151 48.224 569.089 47.8613 568.289 47.136C567.489 46.4 567.089 45.2907 567.089 43.808V40.992C567.089 39.552 567.489 38.4587 568.289 37.712C569.089 36.9547 570.151 36.576 571.473 36.576C572.807 36.576 573.868 36.9547 574.657 37.712C575.457 38.4587 575.857 39.552 575.857 40.992V43.808C575.857 45.2907 575.457 46.4 574.657 47.136C573.868 47.8613 572.807 48.224 571.473 48.224ZM571.473 46.4C572.273 46.4 572.86 46.1813 573.233 45.744C573.617 45.3067 573.809 44.6827 573.809 43.872V40.896C573.809 40.0747 573.596 39.456 573.169 39.04C572.753 38.6133 572.188 38.4 571.473 38.4C570.737 38.4 570.161 38.6187 569.745 39.056C569.34 39.4933 569.137 40.1067 569.137 40.896V43.872C569.137 44.7147 569.329 45.3493 569.713 45.776C570.108 46.192 570.695 46.4 571.473 46.4ZM589.175 48.224L587.895 46.944L589.463 45.376L590.119 44.976L590.023 44.704L589.255 44.832H581.527V43.008H589.255L590.023 43.136L590.119 42.864L589.463 42.464L587.895 40.896L589.175 39.616L592.823 43.264V44.576L589.175 48.224ZM602.45 48.224C601.607 48.224 600.861 48.0747 600.21 47.776C599.559 47.4773 599.047 47.0507 598.674 46.496C598.311 45.9307 598.13 45.264 598.13 44.496V44.208H600.178V44.432C600.178 45.0293 600.386 45.5093 600.802 45.872C601.218 46.224 601.767 46.4 602.45 46.4C603.143 46.4 603.677 46.2347 604.05 45.904C604.434 45.5733 604.626 45.1573 604.626 44.656V44.496C604.626 44.1547 604.541 43.8773 604.37 43.664C604.199 43.4507 603.97 43.296 603.682 43.2C603.394 43.0933 603.069 43.04 602.706 43.04H600.466V40.8L604.082 38.88V38.624H598.418V36.8H606.354V39.52L602.978 41.312V41.568H603.57C604.071 41.568 604.557 41.6693 605.026 41.872C605.506 42.0747 605.901 42.3893 606.21 42.816C606.519 43.232 606.674 43.776 606.674 44.448V44.64C606.674 45.3653 606.498 46 606.146 46.544C605.794 47.0773 605.298 47.4933 604.658 47.792C604.029 48.08 603.293 48.224 602.45 48.224ZM612.184 48.224C611.342 48.224 610.595 48.0747 609.944 47.776C609.294 47.4773 608.782 47.0507 608.408 46.496C608.046 45.9307 607.864 45.264 607.864 44.496V44.208H609.912V44.432C609.912 45.0293 610.12 45.5093 610.536 45.872C610.952 46.224 611.502 46.4 612.184 46.4C612.878 46.4 613.411 46.2347 613.784 45.904C614.168 45.5733 614.36 45.1573 614.36 44.656V44.496C614.36 44.1547 614.275 43.8773 614.104 43.664C613.934 43.4507 613.704 43.296 613.416 43.2C613.128 43.0933 612.803 43.04 612.44 43.04H610.2V40.8L613.816 38.88V38.624H608.152V36.8H616.088V39.52L612.712 41.312V41.568H613.304C613.806 41.568 614.291 41.6693 614.76 41.872C615.24 42.0747 615.635 42.3893 615.944 42.816C616.254 43.232 616.408 43.776 616.408 44.448V44.64C616.408 45.3653 616.232 46 615.88 46.544C615.528 47.0773 615.032 47.4933 614.392 47.792C613.763 48.08 613.027 48.224 612.184 48.224ZM622.047 48.224C621.194 48.224 620.452 48.064 619.823 47.744C619.194 47.424 618.708 46.9813 618.367 46.416C618.026 45.8507 617.855 45.2 617.855 44.464V40.64C617.855 39.7333 618.036 38.9813 618.399 38.384C618.772 37.776 619.279 37.3227 619.919 37.024C620.57 36.7253 621.311 36.576 622.143 36.576C622.975 36.576 623.695 36.7147 624.303 36.992C624.922 37.2693 625.396 37.6693 625.727 38.192C626.068 38.7147 626.239 39.3387 626.239 40.064H624.159C624.159 39.616 624.004 39.2267 623.695 38.896C623.386 38.5653 622.868 38.4 622.143 38.4C621.428 38.4 620.874 38.5867 620.479 38.96C620.095 39.3333 619.903 39.8507 619.903 40.512V41.664H620.191C620.372 41.4507 620.65 41.248 621.023 41.056C621.396 40.864 621.94 40.768 622.655 40.768C623.306 40.768 623.903 40.9067 624.447 41.184C625.002 41.4613 625.45 41.8667 625.791 42.4C626.132 42.9227 626.303 43.5573 626.303 44.304V44.496C626.303 45.232 626.127 45.8827 625.775 46.448C625.423 47.0027 624.927 47.44 624.287 47.76C623.647 48.0693 622.9 48.224 622.047 48.224ZM622.079 46.4C622.751 46.4 623.279 46.224 623.663 45.872C624.058 45.52 624.255 45.0507 624.255 44.464V44.336C624.255 43.9413 624.164 43.6 623.983 43.312C623.812 43.024 623.562 42.8 623.231 42.64C622.911 42.48 622.527 42.4 622.079 42.4C621.642 42.4 621.258 42.48 620.927 42.64C620.596 42.8 620.34 43.024 620.159 43.312C619.988 43.6 619.903 43.9413 619.903 44.336V44.464C619.903 45.0507 620.095 45.52 620.479 45.872C620.874 46.224 621.407 46.4 622.079 46.4ZM627.297 48L630.577 42.352L627.329 36.8H629.729L631.953 40.848H632.241L634.465 36.8H636.865L633.617 42.352L636.897 48H634.497L632.241 43.856H631.953L629.697 48H627.297ZM642.234 48.224C641.381 48.224 640.64 48.064 640.01 47.744C639.381 47.424 638.896 46.9813 638.554 46.416C638.213 45.8507 638.042 45.2 638.042 44.464V40.64C638.042 39.7333 638.224 38.9813 638.586 38.384C638.96 37.776 639.466 37.3227 640.106 37.024C640.757 36.7253 641.498 36.576 642.33 36.576C643.162 36.576 643.882 36.7147 644.49 36.992C645.109 37.2693 645.584 37.6693 645.914 38.192C646.256 38.7147 646.426 39.3387 646.426 40.064H644.346C644.346 39.616 644.192 39.2267 643.882 38.896C643.573 38.5653 643.056 38.4 642.33 38.4C641.616 38.4 641.061 38.5867 640.666 38.96C640.282 39.3333 640.09 39.8507 640.09 40.512V41.664H640.378C640.56 41.4507 640.837 41.248 641.21 41.056C641.584 40.864 642.128 40.768 642.842 40.768C643.493 40.768 644.09 40.9067 644.634 41.184C645.189 41.4613 645.637 41.8667 645.978 42.4C646.32 42.9227 646.49 43.5573 646.49 44.304V44.496C646.49 45.232 646.314 45.8827 645.962 46.448C645.61 47.0027 645.114 47.44 644.474 47.76C643.834 48.0693 643.088 48.224 642.234 48.224ZM642.266 46.4C642.938 46.4 643.466 46.224 643.85 45.872C644.245 45.52 644.442 45.0507 644.442 44.464V44.336C644.442 43.9413 644.352 43.6 644.17 43.312C644 43.024 643.749 42.8 643.418 42.64C643.098 42.48 642.714 42.4 642.266 42.4C641.829 42.4 641.445 42.48 641.114 42.64C640.784 42.8 640.528 43.024 640.346 43.312C640.176 43.6 640.09 43.9413 640.09 44.336V44.464C640.09 45.0507 640.282 45.52 640.666 45.872C641.061 46.224 641.594 46.4 642.266 46.4ZM652.317 48.224C650.994 48.224 649.933 47.8613 649.133 47.136C648.333 46.4 647.933 45.2907 647.933 43.808V40.992C647.933 39.552 648.333 38.4587 649.133 37.712C649.933 36.9547 650.994 36.576 652.317 36.576C653.65 36.576 654.712 36.9547 655.501 37.712C656.301 38.4587 656.701 39.552 656.701 40.992V43.808C656.701 45.2907 656.301 46.4 655.501 47.136C654.712 47.8613 653.65 48.224 652.317 48.224ZM652.317 46.4C653.117 46.4 653.704 46.1813 654.077 45.744C654.461 45.3067 654.653 44.6827 654.653 43.872V40.896C654.653 40.0747 654.44 39.456 654.013 39.04C653.597 38.6133 653.032 38.4 652.317 38.4C651.581 38.4 651.005 38.6187 650.589 39.056C650.184 39.4933 649.981 40.1067 649.981 40.896V43.872C649.981 44.7147 650.173 45.3493 650.557 45.776C650.952 46.192 651.538 46.4 652.317 46.4Z" fill="white"/>
</svg>
