<svg width="105" height="106" viewBox="0 0 105 106" fill="none" xmlns="http://www.w3.org/2000/svg">
<path d="M80.4956 81L88.4956 73" stroke="#828282"/>
<path d="M88.4956 81L96.4956 73" stroke="#828282"/>
<path d="M96.4956 81L104.496 73" stroke="#828282"/>
<path d="M80.4956 89L88.4956 81" stroke="#828282"/>
<path d="M88.4956 89L96.4956 81" stroke="#828282"/>
<path d="M96.4956 89L104.496 81" stroke="#828282"/>
<path d="M80.4956 97L88.4956 89" stroke="#828282"/>
<path d="M88.4956 97L96.4956 89" stroke="#828282"/>
<path d="M96.4956 97L104.496 89" stroke="#828282"/>
<path d="M80.4956 105L88.4956 97" stroke="#828282"/>
<path d="M88.4956 105L96.4956 97" stroke="#828282"/>
<path d="M96.4956 105L104.496 97" stroke="#828282"/>
<path d="M72.4956 81L80.4956 73" stroke="#828282"/>
<path d="M72.4956 89L80.4956 81" stroke="#828282"/>
<path d="M72.4956 97L80.4956 89" stroke="#828282"/>
<path d="M72.4956 105L80.4956 97" stroke="#828282"/>
<path d="M64.4956 81L72.4956 73" stroke="#828282"/>
<path d="M64.4956 89L72.4956 81" stroke="#828282"/>
<path d="M64.4956 97L72.4956 89" stroke="#828282"/>
<path d="M64.4956 105L72.4956 97" stroke="#828282"/>
<path d="M56.4956 81L64.4956 73" stroke="#828282"/>
<path d="M56.4956 89L64.4956 81" stroke="#828282"/>
<path d="M56.4956 97L64.4956 89" stroke="#828282"/>
<path d="M56.4956 105L64.4956 97" stroke="#828282"/>
<path d="M48.4956 81L56.4956 73" stroke="#828282"/>
<path d="M48.4956 89L56.4956 81" stroke="#828282"/>
<path d="M48.4956 97L56.4956 89" stroke="#828282"/>
<path d="M48.4956 105L56.4956 97" stroke="#828282"/>
<path d="M40.4956 81L48.4956 73" stroke="#828282"/>
<path d="M40.4956 89L48.4956 81" stroke="#828282"/>
<path d="M40.4956 97L48.4956 89" stroke="#828282"/>
<path d="M40.4956 105L48.4956 97" stroke="#828282"/>
<path d="M32.4956 81L40.4956 73" stroke="#828282"/>
<path d="M32.4956 89L40.4956 81" stroke="#828282"/>
<path d="M32.4956 97L40.4956 89" stroke="#828282"/>
<path d="M32.4956 105L40.4956 97" stroke="#828282"/>
<path d="M24.4956 81L32.4956 73" stroke="#828282"/>
<path d="M24.4956 89L32.4956 81" stroke="#828282"/>
<path d="M24.4956 97L32.4956 89" stroke="#828282"/>
<path d="M24.4956 105L32.4956 97" stroke="#828282"/>
<path d="M16.4956 81L24.4956 73" stroke="#828282"/>
<path d="M16.4956 89L24.4956 81" stroke="#828282"/>
<path d="M16.4956 97L24.4956 89" stroke="#828282"/>
<path d="M16.4956 105L24.4956 97" stroke="#828282"/>
<path d="M8.49561 81L16.4956 73" stroke="#828282"/>
<path d="M8.49561 89L16.4956 81" stroke="#828282"/>
<path d="M8.49561 97L16.4956 89" stroke="#828282"/>
<path d="M8.49561 105L16.4956 97" stroke="#828282"/>
<path d="M0.495605 81L8.49558 73" stroke="#828282"/>
<path d="M0.495605 89L8.49558 81" stroke="#828282"/>
<path d="M0.495605 97L8.49558 89" stroke="#828282"/>
<path d="M0.495605 105L8.49558 97" stroke="#828282"/>
<path d="M80.4956 73L88.4956 65" stroke="#828282"/>
<path d="M88.4956 73L96.4956 65" stroke="#828282"/>
<path d="M96.4956 73L104.496 65" stroke="#828282"/>
<path d="M72.4956 73L80.4956 65" stroke="#828282"/>
<path d="M64.4956 73L72.4956 65" stroke="#828282"/>
<path d="M56.4956 73L64.4956 65" stroke="#828282"/>
<path d="M48.4956 73L56.4956 65" stroke="#828282"/>
<path d="M40.4956 73L48.4956 65" stroke="#828282"/>
<path d="M32.4956 73L40.4956 65" stroke="#828282"/>
<path d="M24.4956 73L32.4956 65" stroke="#828282"/>
<path d="M16.4956 73L24.4956 65" stroke="#828282"/>
<path d="M8.49561 73L16.4956 65" stroke="#828282"/>
<path d="M0.495605 73L8.49558 65" stroke="#828282"/>
<path d="M80.4956 65L88.4956 57" stroke="#828282"/>
<path d="M88.4956 65L96.4956 57" stroke="#828282"/>
<path d="M96.4956 65L104.496 57" stroke="#828282"/>
<path d="M72.4956 65L80.4956 57" stroke="#828282"/>
<path d="M64.4956 65L72.4956 57" stroke="#828282"/>
<path d="M56.4956 65L64.4956 57" stroke="#828282"/>
<path d="M48.4956 65L56.4956 57" stroke="#828282"/>
<path d="M40.4956 65L48.4956 57" stroke="#828282"/>
<path d="M32.4956 65L40.4956 57" stroke="#828282"/>
<path d="M24.4956 65L32.4956 57" stroke="#828282"/>
<path d="M16.4956 65L24.4956 57" stroke="#828282"/>
<path d="M8.49561 65L16.4956 57" stroke="#828282"/>
<path d="M0.495605 65L8.49558 57" stroke="#828282"/>
<path d="M80.4956 57L88.4956 49" stroke="#828282"/>
<path d="M88.4956 57L96.4956 49" stroke="#828282"/>
<path d="M96.4956 57L104.496 49" stroke="#828282"/>
<path d="M72.4956 57L80.4956 49" stroke="#828282"/>
<path d="M64.4956 57L72.4956 49" stroke="#828282"/>
<path d="M56.4956 57L64.4956 49" stroke="#828282"/>
<path d="M48.4956 57L56.4956 49" stroke="#828282"/>
<path d="M40.4956 57L48.4956 49" stroke="#828282"/>
<path d="M32.4956 57L40.4956 49" stroke="#828282"/>
<path d="M24.4956 57L32.4956 49" stroke="#828282"/>
<path d="M16.4956 57L24.4956 49" stroke="#828282"/>
<path d="M8.49561 57L16.4956 49" stroke="#828282"/>
<path d="M0.495605 57L8.49558 49" stroke="#828282"/>
<path d="M80.4956 49L88.4956 41" stroke="#828282"/>
<path d="M88.4956 49L96.4956 41" stroke="#828282"/>
<path d="M96.4956 49L104.496 41" stroke="#828282"/>
<path d="M72.4956 49L80.4956 41" stroke="#828282"/>
<path d="M64.4956 49L72.4956 41" stroke="#828282"/>
<path d="M56.4956 49L64.4956 41" stroke="#828282"/>
<path d="M48.4956 49L56.4956 41" stroke="#828282"/>
<path d="M40.4956 49L48.4956 41" stroke="#828282"/>
<path d="M32.4956 49L40.4956 41" stroke="#828282"/>
<path d="M24.4956 49L32.4956 41" stroke="#828282"/>
<path d="M16.4956 49L24.4956 41" stroke="#828282"/>
<path d="M8.49561 49L16.4956 41" stroke="#828282"/>
<path d="M0.495605 49L8.49558 41" stroke="#828282"/>
<path d="M80.4956 41L88.4956 33" stroke="#828282"/>
<path d="M88.4956 41L96.4956 33" stroke="#828282"/>
<path d="M96.4956 41L104.496 33" stroke="#828282"/>
<path d="M72.4956 41L80.4956 33" stroke="#828282"/>
<path d="M64.4956 41L72.4956 33" stroke="#828282"/>
<path d="M56.4956 41L64.4956 33" stroke="#828282"/>
<path d="M48.4956 41L56.4956 33" stroke="#828282"/>
<path d="M40.4956 41L48.4956 33" stroke="#828282"/>
<path d="M32.4956 41L40.4956 33" stroke="#828282"/>
<path d="M24.4956 41L32.4956 33" stroke="#828282"/>
<path d="M16.4956 41L24.4956 33" stroke="#828282"/>
<path d="M8.49561 41L16.4956 33" stroke="#828282"/>
<path d="M0.495605 41L8.49558 33" stroke="#828282"/>
<path d="M80.4956 33L88.4956 25" stroke="#828282"/>
<path d="M88.4956 33L96.4956 25" stroke="#828282"/>
<path d="M96.4956 33L104.496 25" stroke="#828282"/>
<path d="M72.4956 33L80.4956 25" stroke="#828282"/>
<path d="M64.4956 33L72.4956 25" stroke="#828282"/>
<path d="M56.4956 33L64.4956 25" stroke="#828282"/>
<path d="M48.4956 33L56.4956 25" stroke="#828282"/>
<path d="M40.4956 33L48.4956 25" stroke="#828282"/>
<path d="M32.4956 33L40.4956 25" stroke="#828282"/>
<path d="M24.4956 33L32.4956 25" stroke="#828282"/>
<path d="M16.4956 33L24.4956 25" stroke="#828282"/>
<path d="M8.49561 33L16.4956 25" stroke="#828282"/>
<path d="M0.495605 33L8.49558 25" stroke="#828282"/>
<path d="M80.4956 25L88.4956 17" stroke="#828282"/>
<path d="M88.4956 25L96.4956 17" stroke="#828282"/>
<path d="M96.4956 25L104.496 17" stroke="#828282"/>
<path d="M72.4956 25L80.4956 17" stroke="#828282"/>
<path d="M64.4956 25L72.4956 17" stroke="#828282"/>
<path d="M56.4956 25L64.4956 17" stroke="#828282"/>
<path d="M48.4956 25L56.4956 17" stroke="#828282"/>
<path d="M40.4956 25L48.4956 17" stroke="#828282"/>
<path d="M32.4956 25L40.4956 17" stroke="#828282"/>
<path d="M24.4956 25L32.4956 17" stroke="#828282"/>
<path d="M16.4956 25L24.4956 17" stroke="#828282"/>
<path d="M8.49561 25L16.4956 17" stroke="#828282"/>
<path d="M0.495605 25L8.49558 17" stroke="#828282"/>
<path d="M80.4956 17L88.4956 9" stroke="#828282"/>
<path d="M80.4956 9.00001L88.4956 0.999996" stroke="#828282"/>
<path d="M88.4956 17L96.4956 9" stroke="#828282"/>
<path d="M88.4956 9.00001L96.4956 0.999996" stroke="#828282"/>
<path d="M96.4956 17L104.496 9" stroke="#828282"/>
<path d="M96.4956 9.00001L104.496 0.999996" stroke="#828282"/>
<path d="M72.4956 17L80.4956 9" stroke="#828282"/>
<path d="M72.4956 9.00001L80.4956 0.999996" stroke="#828282"/>
<path d="M64.4956 17L72.4956 9" stroke="#828282"/>
<path d="M64.4956 9.00001L72.4956 0.999996" stroke="#828282"/>
<path d="M56.4956 17L64.4956 9" stroke="#828282"/>
<path d="M56.4956 9.00001L64.4956 0.999996" stroke="#828282"/>
<path d="M48.4956 17L56.4956 9" stroke="#828282"/>
<path d="M48.4956 9.00001L56.4956 0.999996" stroke="#828282"/>
<path d="M40.4956 17L48.4956 9" stroke="#828282"/>
<path d="M40.4956 9.00001L48.4956 0.999996" stroke="#828282"/>
<path d="M32.4956 17L40.4956 9" stroke="#828282"/>
<path d="M32.4956 9.00001L40.4956 0.999996" stroke="#828282"/>
<path d="M24.4956 17L32.4956 9" stroke="#828282"/>
<path d="M24.4956 9.00001L32.4956 0.999996" stroke="#828282"/>
<path d="M16.4956 17L24.4956 9" stroke="#828282"/>
<path d="M16.4956 9.00001L24.4956 0.999996" stroke="#828282"/>
<path d="M8.49561 17L16.4956 9" stroke="#828282"/>
<path d="M8.49561 9.00001L16.4956 0.999996" stroke="#828282"/>
<path d="M0.495605 17L8.49558 9" stroke="#828282"/>
<path d="M0.495605 9.00001L8.49558 0.999996" stroke="#828282"/>
</svg>
