<svg width="223" height="232" viewBox="0 0 223 232" fill="none" xmlns="http://www.w3.org/2000/svg">
<g clip-path="url(#clip0)">
<path d="M73.2598 201.758C73.1362 203.998 73.9585 206.131 72.394 208.479C68.6328 206.518 66.8311 203.355 64.276 201.305C65.2204 200.064 64.489 198.949 64.5256 197.791L65.6674 196.389L65.9513 196.78L66.434 196.678C67.2159 197.869 68.1468 198.324 68.3206 199.259C67.2348 199.405 65.7068 200.595 66.5456 201.831C67.2345 202.504 68.0917 200.878 67.8764 202.267C68.2467 201.742 68.7093 201.903 69.0976 201.615C70.2677 202.518 71.3535 202.372 72.4703 202.398C72.6554 202.135 72.4406 201.892 72.7591 201.623L72.9861 201.969L73.2598 201.758Z" fill="black"/>
<path d="M127.692 211.646C127.856 213.445 128.788 215.033 127.872 217.113C125.831 216.434 124.345 215.3 122.947 214.217C122.118 213.583 123.434 211.65 123.404 212.777C123.628 212.323 124.008 212.4 124.301 212.093C125.346 212.637 126.191 212.375 127.067 212.286C127.182 212.043 126.98 211.902 127.197 211.646L127.412 211.889L127.692 211.646Z" fill="black"/>
<path d="M106.239 174.652C118.174 183.999 124.234 178.029 125.706 177.928C127.179 177.826 132.597 178.123 132.646 178.533C132.695 178.943 131.369 183.539 131.369 183.539C131.369 183.539 125.752 186.832 125.175 189.681C124.598 192.529 100.892 186.063 96.9684 188.001C93.0449 189.938 99.3668 182.023 99.3668 182.023L103.535 174.638L106.587 174.723" fill="black"/>
<path d="M99.9698 181.979C102.358 184.528 101.006 184.521 104.289 184.119C107.571 183.718 107.156 185.766 109.165 186.439C111.174 187.113 114.958 188.145 117.635 186.822C120.319 185.466 123.296 185.269 123.296 185.269L120.249 188.417L110.955 189.5C110.955 189.5 101.47 188.912 100.456 188.707C99.4411 188.502 96.2623 188.391 96.2623 188.391L99.9698 181.979Z" fill="#FFD600"/>
<path d="M77.4111 180.443C79.8289 184.964 79.7391 186.711 82.3357 186.437C84.9323 186.164 85.6441 185.908 85.6441 185.908L83.1216 191.194C83.1216 191.194 81.66 193.197 81.1528 193.095C80.6456 192.992 79.692 190.367 79.692 190.367L77.1964 186.23L77.2318 180.84" fill="#FFD600"/>
<path d="M134.784 186.396C135.718 187.651 133.118 188.757 137.87 188.92C142.654 189.089 143.948 189.217 144.453 189.986C144.957 190.754 149.439 195.027 149.439 195.027C149.439 195.027 146.753 198.348 149.334 203.368C150.97 206.531 151.97 214.796 151.97 214.796L156.296 219.837L151.077 215.948L144.928 200.843L144.421 191.445L139.871 190.124L131.896 192.674L133.79 185.928L134.784 186.396Z" fill="black"/>
<path d="M83.6443 149.654C81.7161 153.962 81.3411 157.117 81.0782 157.764C80.8218 158.378 78.9648 166.898 78.3649 169.209C77.7651 171.519 74.1695 190.581 74.1695 190.581L73.8762 184.858L71.9756 196.201L71.6452 187.238L71.085 201.251L76.3227 188.585L78.7946 171.161L84.6645 149.994L83.6443 149.654Z" fill="black"/>
<path d="M125.215 190.788C123.402 196.485 121.512 197.834 122.771 200.255C124.03 202.675 122.347 203.001 122.347 203.001C122.347 203.001 122.73 202.412 120.657 204.825C118.553 207.23 124.377 191.018 124.377 191.018L125.215 190.788Z" fill="black"/>
<path d="M89.9562 180.418C90.657 178.261 93.6285 174.831 91.9216 179.35C90.2146 183.868 89.9813 185.02 88.7935 186.812C87.6373 188.61 85.424 188.296 86.1274 190.037C86.8243 191.811 88.0667 193.662 88.8506 194.353C89.6346 195.045 88.5099 199.948 88.544 202.387C88.5782 204.826 88.7336 208.623 88.7336 208.623L86.3185 208C86.3185 208 86.3861 196.42 85.7605 194.294C85.1348 192.168 84.8043 187.77 84.8043 187.77C84.8043 187.77 90.8028 175.258 88.8183 167.294C86.8273 159.361 90.8667 173.639 90.8667 173.639L89.9562 180.418Z" fill="black"/>
<path d="M150.91 152.879C150.607 152.418 150.253 152.213 150.025 152.034C149.443 151.649 148.581 151.341 148.091 151.642C147.48 152.051 147.618 153.978 146.454 153.21C145.618 152.774 145.37 151.391 144.509 150.917C144.982 148.58 143.46 146.806 141.924 145.263C140.685 144.212 139.31 143.667 137.711 143.743C137.711 143.743 137.633 144.127 137.607 144.255C137.956 145.792 139.5 146.804 139.57 148.417C139.751 152.086 132.653 148.35 132.425 148.17C132.097 147.837 131.975 146.48 131.78 146.14C131.109 144.239 127.215 143.584 125.44 143.224C124.933 143.122 124.599 144.12 124.589 144.818C124.613 145.356 124.941 145.689 124.964 146.226C124.457 146.124 123.849 145.867 123.67 146.098C123.365 146.302 123.362 146.968 123.258 147.48C122.624 147.352 121.838 147.326 121.224 146.935C120.085 146.038 119.094 144.904 117.731 144.462C116.388 143.924 114.987 143.507 113.642 143.634C112.27 143.889 113.068 145.817 113.877 146.38C114.915 147.124 116.137 147.771 116.684 148.981C117.364 150.185 116.413 151.625 116.154 152.905C114.684 152.341 113.228 152.846 111.808 152.691C110.476 154.054 109.245 155.404 107.786 156.741C107.176 157.151 106.487 157.944 106.731 158.693C106.982 159.41 107.945 159.872 108.815 159.648C109.348 159.623 109.933 159.342 110.417 158.907C110.775 158.446 110.625 157.882 111.115 157.415C111.294 157.185 111.599 156.98 111.853 157.032C112.36 157.134 112.666 156.93 113.046 157.007C114.599 157.321 116.176 156.707 117.101 155.396C118.333 153.879 120.926 154.271 121.445 156.275C121.67 157.12 120.753 157.734 120.363 158.355C119.487 160.077 121.239 165.929 122.259 164.802C123.553 164.931 124.827 165.322 126.124 164.785C126.017 165.963 125.423 166.942 124.708 167.864C124.325 168.453 124.602 169.042 125.184 169.426C126.248 170.041 127.369 170.535 128.588 170.382C129.527 170.305 130.294 169.128 130.767 168.258C131.534 167.08 130.886 165.716 130.612 164.461C130.211 163.181 131.707 163.617 132.447 164.033C133.156 164.444 133.972 165.142 134.477 165.91C134.779 166.371 134.422 166.832 134.217 167.19C133.984 168.343 133.237 169.424 133.004 170.576C132.978 170.704 132.698 170.781 132.672 170.909C132.595 171.293 132.364 171.779 132.413 172.189C132.436 172.727 132.993 173.239 132.56 173.418C131.212 174.211 129.506 173.999 128.352 175.132C127.894 175.439 128.119 176.284 127.856 176.93C127.294 177.749 126.228 177.8 125.628 178.645C125.397 179.131 125.394 179.797 125.902 179.9C128.037 180.598 130.147 179.959 132.269 179.423C133.539 179.014 133.704 177.548 133.938 176.396C133.94 175.73 134.981 175.807 135.03 176.217C135.307 176.806 134.745 177.625 134.862 178.349C134.836 178.477 135.597 178.631 135.623 178.503C136.49 177.479 136.883 176.193 137.523 174.989C137.727 174.631 138.693 174.427 138.822 173.787C139.335 172.558 139.727 171.271 140.822 170.427C141.128 170.222 141.203 170.504 141.482 170.427C141.223 171.707 141.084 173.045 140.698 174.3C140.237 175.273 139.34 175.791 138.879 176.763C139.133 176.815 139.488 177.02 139.64 176.917C140.557 176.303 140.796 175.119 141.257 174.146C141.335 173.762 142.021 173.635 142.479 173.328C142.811 172.995 142.635 172.56 142.787 172.457C143.499 172.202 144.056 172.714 144.364 173.31C144.514 173.873 145.07 174.385 144.56 174.948C143.387 176.177 142.816 177.694 141.283 178.583C140.825 178.89 140.796 179.684 140.306 180.151C140 180.355 139.822 180.586 139.516 180.79C139.337 181.021 139.234 181.533 139.436 181.84C139.562 181.866 139.689 181.892 139.816 181.917C140.274 181.61 140.631 181.149 140.894 180.503C141.491 178.858 143.402 178.712 144.927 178.354C145.359 178.175 145.589 177.689 145.794 177.331C146.503 177.741 147.293 178.567 147.358 179.546C147.433 179.828 147.967 179.803 148.22 179.854C148.117 180.366 148.14 180.904 147.935 181.262C146.499 183.137 144.837 184.666 142.92 186.31C142.588 186.643 142.891 187.104 143.119 187.284C145.202 188.239 147.488 188.035 149.597 188.862C150.206 189.118 149.949 189.733 150.125 190.168C150.174 190.578 150.756 190.962 151.111 191.167C152.048 191.757 153.298 191.61 154.339 191.688C154.085 191.636 153.958 191.611 153.705 191.559C154.212 191.662 154.693 191.893 155.125 191.714C155.278 191.611 155.128 191.048 155.307 190.818C156.071 190.306 157.194 190.134 158.033 189.904C158.998 189.699 160.047 189.245 161.062 189.451C161.189 189.476 161.52 189.144 161.419 188.99C160.586 187.888 159.16 187.6 158.486 186.364C158.31 185.928 157.855 185.57 157.805 185.16C157.506 184.033 158.253 182.952 157.8 181.927C157.448 181.056 152.972 158.994 152.799 157.893C152.577 156.382 153.301 154.762 152.519 153.405C152.331 153.033 151.206 153.372 150.91 152.879Z" fill="black"/>
<path d="M98.2331 131.719C99.9133 132.059 101.686 133.084 102.593 134.634C102.769 135.069 102.766 135.735 102.207 135.888C98.3563 137.141 97.2384 134.349 93.7796 135.948C91.1219 137.175 90.8257 136.682 90.3351 137.149C89.9028 137.328 90.2314 137.661 89.8741 138.122C89.7214 138.224 89.2086 139.453 89.0558 139.556C88.8226 140.708 89.7648 139.966 88.2894 140.733C87.8571 140.912 87.4508 140.963 87.3989 141.219C87.0037 143.171 87.4414 146.225 85.1532 147.095C83.7093 146.402 81.8995 146.702 80.5016 145.62C81.2311 142.669 81.3265 139.59 82.5891 136.614C82.7187 135.974 83.0501 135.641 83.5666 135.046C84.0248 134.739 84.0535 133.945 83.936 133.222C83.8379 132.402 82.6679 132.965 82.3594 132.369C82.0077 131.498 82.8297 130.699 83.5905 130.853C84.7837 130.828 85.8326 130.374 86.9739 130.605C89.0346 131.022 91.0404 130.895 93.1788 130.928C93.9655 130.954 94.7063 131.371 95.493 131.397C95.8994 131.346 96.2798 131.423 96.6861 131.372C97.1869 131.507 97.6941 131.609 98.2331 131.719Z" fill="black"/>
<path d="M80.8751 132.368C81.1287 132.42 81.4832 132.625 81.7628 132.548C82.3219 132.395 83.1346 132.293 83.1577 132.831C83.2558 133.65 83.0938 134.45 82.5837 135.013C81.7683 135.781 80.8028 135.985 79.8483 136.625C79.6955 136.727 79.6178 137.111 79.465 137.214C78.7356 140.164 78.6661 143.116 77.683 146.015C77.3747 146.885 76.8323 147.609 76.2704 148.428C76.0659 148.786 76.2417 149.221 76.0372 149.58C75.5271 150.143 75.5669 151.25 74.6015 151.455C74.4748 146.865 75.9281 142.295 76.9686 137.808C77.5685 135.497 78.6266 132.879 81.0991 131.914C81.0797 132.01 81.1547 132.292 80.8751 132.368Z" fill="black"/>
<path d="M96.0444 139.105C94.5227 138.797 93.0674 139.302 91.5947 139.403C91.2513 141.1 88.6408 140.138 87.3607 141.245C87.182 141.475 87.928 143.658 87.8503 144.042C87.6716 144.273 87.2653 144.324 87.0866 144.554C86.7006 145.809 86.8153 147.198 86.2766 148.555C85.5268 150.302 85.3166 151.992 85.4804 153.791C85.4545 153.919 85.7572 154.38 85.8321 154.662C86.1866 154.867 86.4143 155.046 86.6161 155.353C87.2353 157.511 88.0454 159.541 88.4109 161.647C88.46 162.057 88.1027 162.518 88.2785 162.953C88.858 164.003 88.3386 165.264 89.0708 166.212C89.1717 166.366 89.5521 166.443 89.7307 166.212C90.3445 165.137 90.077 163.85 90.5639 162.749C91.2295 161.418 92.2041 160.516 93.1291 159.371C93.8178 158.577 93.4985 157.547 92.6886 156.983C92.4609 156.803 92.0545 156.854 91.8009 156.803C91.7231 157.187 91.3918 157.52 91.4408 157.93C90.7059 157.647 89.3024 157.896 89.3571 156.975C89.5478 155.381 89.4525 153.895 89.484 152.436C90.5503 152.385 91.5705 152.725 92.6369 152.674C93.4236 152.7 94.418 153.168 95.003 152.887C95.4611 152.58 95.1937 151.293 95.7037 150.73C96.0092 150.525 96.3896 150.602 96.7959 150.551C97.2282 150.372 97.6633 149.528 98.1446 149.758C98.8536 150.168 99.0526 151.142 99.4036 152.179C99.5045 152.332 99.8849 152.41 100.038 152.307C101.513 151.54 102.672 150.542 103.591 149.262C103.923 148.929 104.078 148.161 103.877 147.854C102.035 145.049 100.32 142.436 97.7903 140.424C97.4617 140.091 97.0554 140.142 96.7527 139.681C96.6259 139.656 96.3723 139.604 96.2455 139.579" fill="black"/>
<path d="M163.236 190.124C162.928 190.995 163.045 191.718 163.143 192.537C163.492 194.074 162.667 195.54 162.509 196.973C161.748 196.819 161.039 196.409 160.422 196.684C160.143 196.761 159.558 197.042 159.48 197.426C159.221 198.706 158.802 200.121 158.797 201.453C158.742 202.374 159.341 203.329 159.413 204.276C159.281 205.582 158.762 206.843 158.629 208.149C158.626 208.814 159.436 209.378 159.427 210.076C159.208 212.464 158.354 214.723 158.674 217.053C158.772 217.873 160.176 217.624 160.911 217.906C161.747 213.777 162.615 209.489 163.451 205.36C165.114 203.665 165.506 201.079 165.725 198.691C165.867 196.687 166.383 194.793 167.058 192.764C167.083 192.636 166.83 192.584 166.882 192.328C166.475 192.379 166.02 192.02 165.792 191.841C165.187 190.919 164.767 189.734 163.62 189.369C163.594 189.497 163.594 189.497 163.568 189.625" fill="black"/>
<path d="M127.48 133.476C126.876 133.687 126.279 133.866 125.707 134.083C125.701 134.115 125.694 134.147 125.688 134.179C125.307 134.102 124.895 134.018 124.515 133.941C121.081 132.646 89.4624 128.91 87.1224 130.035C86.8105 130.272 86.4985 130.509 86.2248 130.72C96.9073 130.117 110.438 132.724 121.422 134.381C122.887 134.645 124.358 134.876 125.791 135.133C125.703 135.082 125.583 135.024 125.494 134.973C125.482 134.87 125.469 134.768 125.464 134.633C125.495 134.64 125.527 134.646 125.559 134.653C125.552 134.685 125.546 134.717 125.539 134.749C129.852 135.289 150.214 144.742 149.495 148.295C149.558 148.308 149.622 148.32 149.717 148.34C149.768 148.25 149.819 148.16 149.877 148.039C149.915 148.013 149.953 147.988 149.991 147.962C150.036 147.905 150.081 147.847 150.125 147.789C149.771 144.486 142.94 139.271 139.706 138.616C138.882 138.283 138.059 137.95 137.273 137.591C134.886 136.508 132.466 135.418 130.078 134.335C129.217 134.027 128.348 133.751 127.48 133.476Z" fill="black"/>
<path d="M84.8686 130.245C73.4114 129.458 74.251 153.183 72.3838 161.101C69.8729 166.656 67.3555 172.243 64.8447 177.799C62.9137 182.772 63.7216 189.865 62.5681 195.562C61.9444 197.501 61.3459 199.479 60.7223 201.418C65.9333 199.642 65.1437 183.656 65.9551 179.323C66.9552 173.895 71.2664 167.271 73.1548 161.857C75.5697 154.983 75.1198 130.637 84.724 131.449C85.1368 131.366 85.5813 131.289 85.9942 131.206C85.6339 130.867 85.2671 130.559 84.8686 130.245Z" fill="black"/>
<path d="M85.2324 132.851C84.8578 132.908 84.4766 132.998 84.0703 133.049C83.5739 133.381 79.8713 138.629 80.9175 138.84C80.5296 142.06 80.1352 145.312 79.7156 148.525C79.1094 152.334 78.4651 156.168 77.8272 159.971C77.2158 162.012 76.6296 164.093 76.0117 166.166C75.9353 166.217 75.8273 166.262 75.7509 166.313C74.3969 169.904 73.5443 173.463 72.7407 177.431C72.7724 177.438 72.8041 177.444 72.8358 177.451C72.9122 177.4 72.9886 177.348 73.0966 177.304C73.0882 179.301 72.494 180.28 72.1116 182.168C72.0799 182.162 72.0482 182.155 72.0165 182.149C72.023 182.117 72.0295 182.085 72.036 182.053C71.2024 182.584 69.5195 188.94 69.5195 188.94C69.5454 188.812 69.5713 188.684 69.6037 188.524C69.5281 188.408 69.4207 188.287 69.3515 188.14C68.7406 188.549 66.0756 194.539 66.0756 194.539C66.0821 194.507 66.0886 194.475 66.095 194.443C65.6227 196.613 65.1568 198.751 64.6845 200.921C64.7162 200.927 64.7479 200.934 64.7796 200.94C64.843 200.953 64.9064 200.966 65.0015 200.985C65.1211 201.209 65.2026 201.459 65.2905 201.677C65.462 201.645 65.6017 201.607 65.7415 201.568C65.8583 202.458 65.9687 203.38 66.0855 204.27C66.0473 204.295 66.0092 204.321 65.971 204.347C66.1151 204.776 66.2341 205.166 66.3782 205.595C66.5367 205.627 66.6635 205.653 66.7903 205.679C66.9243 205.506 67.0965 205.307 67.2305 205.135C67.614 201.448 67.8066 197.888 68.6167 193.888C68.6484 193.894 68.6801 193.901 68.7118 193.907C68.6988 193.971 68.6858 194.035 68.6729 194.099C69.0752 196.513 69.4776 198.926 69.8547 201.302C69.8036 201.391 69.7524 201.481 69.6948 201.602C69.8685 202.537 70.0358 203.504 70.2413 204.445C70.273 204.451 70.3047 204.458 70.3364 204.464C70.1671 199.432 70.9136 193.953 71.9504 188.832C71.9187 188.826 71.887 188.819 71.8553 188.813C71.9644 185.503 74.3164 183.015 75.1035 179.942C77.5586 166.513 80.0202 153.052 82.4753 139.622C83.0226 137.734 83.5382 135.839 84.0603 133.913C84.4868 133.599 84.8564 133.241 85.2324 132.851Z" fill="black"/>
<path d="M83.7227 132.645C83.3596 132.972 83.003 133.266 82.6399 133.592C82.6716 133.599 82.7033 133.605 82.735 133.611C83.0664 133.279 83.3913 132.978 83.7227 132.645Z" fill="black"/>
<path d="M151.184 148.104C151.152 148.097 151.121 148.091 151.089 148.084C151.694 152.105 152.324 156.164 152.929 160.184C153.884 164.109 155.899 179.91 156.85 180.102C156.924 180.55 156.973 180.96 157.016 181.402C157.122 181.69 157.191 182.004 157.266 182.285C157.329 182.465 157.416 182.682 157.479 182.862C157.511 182.868 157.543 182.874 157.574 182.881C157.619 182.823 157.664 182.766 157.708 182.708C157.902 183.38 158.096 184.053 158.29 184.725C158.283 184.757 158.277 184.789 158.271 184.821C158.334 184.834 158.397 184.847 158.492 184.866C158.518 184.738 158.544 184.61 158.577 184.45C158.59 184.386 158.603 184.322 158.616 184.258C158.628 184.36 158.64 184.463 158.646 184.597C158.639 184.629 158.633 184.661 158.626 184.693C158.69 184.706 158.753 184.719 158.848 184.738C158.855 184.706 158.861 184.674 158.868 184.642C158.856 184.54 158.843 184.437 158.837 184.303C158.869 184.309 158.901 184.315 158.933 184.322C159.159 184.834 159.385 185.346 159.618 185.827C159.606 185.724 159.593 185.622 159.588 185.487C159.515 184.706 159.474 183.932 159.407 183.119C158.514 179.706 157.627 176.262 156.766 172.855C155.274 165.39 155.738 154.623 151.184 148.104Z" fill="black"/>
<path d="M91.2951 136.81C88.8952 137.091 88.2724 140.33 88.2724 140.33C89.1369 139.972 92.1288 137.746 91.0502 137.694C90.86 137.655 90.6698 137.617 90.5048 137.617C90.4731 137.61 90.4414 137.604 90.4097 137.597C90.6647 137.316 90.9766 137.079 91.2951 136.81Z" fill="black"/>
<path d="M87.0527 143.581C84.0239 144.034 80.2251 163.122 79.3827 167.282C79.2322 168.351 79.0818 169.42 78.9695 170.464C78.9378 170.457 78.9061 170.451 78.8744 170.444C78.6749 171.104 78.4437 171.756 78.2442 172.416C78.2759 172.422 78.3077 172.428 78.3394 172.435C78.3912 172.179 78.4495 171.891 78.5014 171.635C78.5648 171.648 78.6282 171.66 78.7233 171.68C78.7168 171.712 78.7103 171.744 78.7038 171.776C78.7355 171.782 78.7672 171.789 78.7989 171.795C78.5418 172.576 78.2465 173.382 77.9894 174.163C78.1472 174.362 78.2669 174.586 78.4247 174.784C78.4564 174.791 78.4881 174.797 78.5198 174.804C81.3557 164.383 84.1916 153.963 87.0527 143.581Z" fill="black"/>
<path d="M85.7768 154.284C85.5484 154.271 85.3517 154.264 85.1233 154.251C84.4089 156.639 87.7481 171.441 87.7429 175.705C87.7472 180.736 84.6296 185.702 83.7612 189.991C83.5192 190.209 83.4687 190.132 82.79 190.061C82.4695 190.829 81.299 193.024 80.7737 192.685C80.1094 192.217 80.6373 190.425 80.5528 189.375C76.2038 188.361 77.4203 179.745 78.4248 174.784C78.3931 174.778 78.3614 174.771 78.3297 174.765C77.8117 175.693 77.3003 176.589 76.7824 177.517C76.8423 178.362 76.864 179.233 76.924 180.078C76.6318 183.15 76.3397 186.223 76.0476 189.295C75.9965 189.385 75.9453 189.475 75.8877 189.596C75.8488 189.788 75.8035 190.012 75.7646 190.204C75.8532 190.256 75.9735 190.313 76.0622 190.365C75.5739 191.798 74.4821 200.939 72.041 200.445C72.0598 200.515 72.0785 200.586 72.0972 200.656C72.1037 200.624 72.1102 200.592 72.1167 200.56C72.1102 200.592 72.1037 200.624 72.0972 200.656C72.0209 200.707 71.9128 200.752 71.8364 200.803C71.7853 200.893 71.7342 200.982 71.6765 201.104C71.7147 201.079 71.7529 201.053 71.7911 201.027C71.8545 201.04 71.9179 201.053 72.013 201.072C72.2199 201.681 72.4267 202.289 72.6336 202.897C72.9404 202.36 73.2156 201.816 73.5224 201.278C73.5477 201.316 73.5729 201.355 73.5981 201.393C74.1017 200.862 74.6369 200.338 75.1405 199.806C75.5286 198.053 75.9167 196.299 76.3048 194.545C76.343 194.519 76.3812 194.494 76.4193 194.468C76.6892 192.157 77.3222 189.52 78.1529 189.655C78.4433 190.014 78.9707 189.854 79.3375 190.161C79.3858 190.738 79.595 192.313 80.0547 193.139C81.9721 194.426 82.2585 191.219 83.7096 191.713C84.977 192.136 85.4899 202.968 85.5521 204.78C85.7446 205.785 85.9753 206.765 86.1678 207.77C85.7781 208.39 85.3884 209.011 85.0304 209.638C85.4115 209.549 85.7991 209.428 86.212 209.345C86.2437 209.351 86.2754 209.357 86.3071 209.364C86.3006 209.396 86.2941 209.428 86.2876 209.46C86.2416 209.85 86.202 210.209 86.1559 210.599C86.475 210.164 86.7625 209.723 87.0751 209.319C87.0816 209.287 87.0881 209.255 87.0945 209.223C86.828 209.236 86.5614 209.249 86.3265 209.268C86.333 209.236 86.3395 209.204 86.3459 209.172C90.6039 203.137 83.9555 193.595 85.1932 187.482C85.2566 187.495 85.32 187.508 85.4151 187.527C85.5038 187.579 85.6241 187.636 85.7127 187.688C86.7643 185.102 87.7777 182.542 88.8228 179.988C88.8545 179.994 88.8862 180.001 88.9179 180.007C90.7899 170.924 89.1518 162.064 85.7768 154.284Z" fill="black"/>
<path d="M72.6504 159.456C72.5675 159.539 72.453 159.615 72.3637 159.731C72.3954 159.737 72.4271 159.744 72.4588 159.75C72.497 159.724 72.5351 159.699 72.5733 159.673C72.6245 159.584 72.6374 159.52 72.6504 159.456Z" fill="black"/>
<path d="M109.228 171.626C107.228 171.887 103.77 171.853 103.271 174.318C99.3082 176.447 97.5093 183.213 95.7663 187.258C95.4155 187.687 95.0646 188.115 94.7455 188.55C94.8373 190.868 87.2486 208.788 92.955 209.944C92.6574 203.753 91.6684 194.457 96.5576 189.217C97.0994 188.66 115.831 189.055 117.846 189.696C119.861 190.337 120.054 191.176 121.019 192.771C121.106 192.988 121.201 193.174 121.321 193.398C121.352 193.405 121.384 193.411 121.416 193.417C121.435 193.321 121.455 193.225 121.48 193.097C121.455 193.059 121.43 193.02 121.405 192.982C121.436 192.988 121.468 192.995 121.5 193.001C121.493 193.033 121.487 193.065 121.48 193.097C121.169 197.732 120.642 202.29 118.758 206.706C117.928 208.037 117.09 209.4 116.26 210.731C115.906 211.992 117.424 211.5 117.424 211.5C118.588 209.337 120.842 201.464 123.629 192.266C123.984 189.373 123.605 190.429 124.605 188.099C125.874 185.091 129.95 181.585 130.466 180.99C130.434 180.984 130.403 180.977 130.371 180.971C130.378 180.939 130.384 180.907 130.391 180.875C130.2 180.837 130.042 180.804 129.852 180.766C128.966 181.553 128.056 182.301 127.17 183.088C127.087 183.171 126.973 183.248 126.884 183.363C126.865 183.293 126.846 183.223 126.827 183.152C126.699 183.459 126.546 183.728 126.417 184.035C126.386 184.029 126.354 184.022 126.322 184.016C126.31 183.914 126.298 183.811 126.292 183.677C126.26 183.67 126.229 183.664 126.197 183.657C125.719 184.061 125.21 184.457 124.739 184.828C124.732 184.86 124.726 184.892 124.719 184.924C124.688 184.918 124.656 184.911 124.624 184.905C124.554 184.924 124.453 184.937 124.383 184.956C124.255 185.097 124.09 185.263 123.962 185.404C123.931 185.397 123.899 185.391 123.867 185.385C123.874 185.353 123.88 185.321 123.887 185.289C122.443 186.062 120.967 186.83 119.524 187.604C116.436 188.511 112.185 188.317 108.698 187.611C108.704 187.579 108.711 187.547 108.717 187.515C108.692 187.476 108.667 187.438 108.641 187.399C108.578 187.386 108.483 187.367 108.419 187.354C108.413 187.386 108.406 187.418 108.4 187.45C105.187 186.367 103.242 188.638 100.199 188.022C99.9582 187.907 99.7175 187.791 99.5085 187.682C99.2427 187.529 98.9768 187.375 98.7174 187.189C99.3131 185.877 103.434 180.848 101.428 182.44C101.099 182.274 100.769 182.107 100.44 181.941C100.408 181.934 100.377 181.928 100.345 181.921C100.332 181.985 100.319 182.049 100.306 182.113C100.211 182.094 100.084 182.068 99.9891 182.049C99.9826 182.081 99.9761 182.113 99.9697 182.145C99.9379 182.139 99.9062 182.132 99.8745 182.126C103.496 175.163 102.64 176.456 108.767 172.599C108.876 172.221 109.068 171.927 109.228 171.626Z" fill="black"/>
<path d="M76.8008 165.693C76.6531 166.096 76.512 166.468 76.3326 166.864C76.3261 166.896 76.3196 166.928 76.3132 166.96C76.2815 166.954 76.2498 166.948 76.218 166.941C76.4356 166.519 76.6214 166.09 76.8008 165.693Z" fill="black"/>
<path d="M158.664 183.201C158.688 183.406 158.706 183.643 158.763 183.854C158.769 183.822 158.776 183.79 158.782 183.758C158.649 183.598 158.549 183.445 158.454 183.259C158.492 183.233 158.531 183.208 158.569 183.182C158.6 183.189 158.632 183.195 158.664 183.201Z" fill="black"/>
<path d="M112.03 173.759C111.447 173.708 110.863 173.656 110.279 173.605C110.266 173.669 110.253 173.733 110.24 173.797C110.272 173.803 110.304 173.809 110.336 173.816C110.329 173.848 110.323 173.88 110.316 173.912C111.4 174.098 112.453 174.278 113.537 174.464C113.018 174.259 112.511 173.99 112.03 173.759Z" fill="black"/>
<path d="M160.576 185.821C160.278 185.827 159.979 185.833 159.681 185.839C159.56 185.948 159.401 186.083 159.28 186.191C159.267 186.255 159.254 186.319 159.241 186.383C161.101 187.793 162.967 189.17 164.795 190.573C165.113 190.471 166.261 190.503 166.579 190.401C166.683 191.355 168.996 192.157 166.787 192.143C166.819 192.149 166.851 192.155 166.882 192.162C165.636 195.708 165.52 199.382 164.14 203.101C162.864 204.675 162.62 205.392 161.344 206.966C161.369 207.004 161.119 207.587 161.144 207.625C161.373 207.638 160.838 207.996 161.035 208.003C161.028 208.035 161.022 208.067 161.015 208.099C161.047 208.105 161.079 208.112 161.111 208.118C161.002 209.795 160.868 211.434 160.76 213.111C160.861 213.098 160.994 213.092 161.096 213.079C161.09 213.111 161.083 213.143 161.077 213.175C161.007 213.194 160.905 213.207 160.835 213.226C160.793 214.251 160.725 215.236 160.651 216.254C160.683 216.261 160.715 216.267 160.746 216.273C160.797 216.184 160.849 216.094 160.906 215.973C160.909 216.773 160.874 217.599 160.845 218.392C160.423 219.173 159.995 219.986 159.604 220.773C162.807 219.623 161.42 214.411 163.688 207.774C163.72 207.78 163.752 207.786 163.784 207.793C163.91 207.819 163.498 207.735 163.657 207.767C163.755 207.121 163.626 207.428 163.724 206.781C163.949 206.161 167.938 200.805 165.75 200.362C166.065 199.459 168.397 192.668 168.397 192.668C168.594 192.508 169.669 191.926 169.873 191.735C169.524 191.664 168.235 192.002 167.886 191.932C171.524 191.569 164.738 187.596 162.772 187.198C162.07 186.756 161.342 186.276 160.576 185.821Z" fill="black"/>
<path d="M76.2334 169.143C75.6898 171.665 75.1396 174.219 74.596 176.741C74.5189 176.959 74.4354 177.208 74.3583 177.426C74.3836 177.464 74.4088 177.503 74.434 177.541C74.2604 178.073 74.0869 178.604 73.8816 179.129C73.8881 179.097 73.8946 179.065 73.901 179.033C73.508 175.921 74.1544 171.588 76.2334 169.143Z" fill="black"/>
<path d="M79.0416 169.945C79.0539 170.048 79.0661 170.15 79.0719 170.284C79.0402 170.278 79.0085 170.272 78.9768 170.265C78.9833 170.233 78.9898 170.201 78.9963 170.169C79.0157 170.073 79.0287 170.009 79.0416 169.945Z" fill="black"/>
<path d="M78.1731 172.601C78.1919 172.672 78.2107 172.743 78.2295 172.813C78.2042 172.775 78.1854 172.704 78.1731 172.601Z" fill="black"/>
<path d="M133.848 184.007C132.952 184.192 123.663 205.133 123.042 207.873C122.487 210.293 123.37 212.937 123.001 214.761C123.033 214.768 123.064 214.774 123.096 214.78C123.814 211.561 124.538 208.309 125.288 205.096C125.32 205.102 125.351 205.109 125.383 205.115C125.37 205.179 125.357 205.243 125.344 205.307C125.352 208.041 125.353 210.806 125.329 213.533C125.481 213.597 125.601 213.655 125.721 213.713C125.964 213.329 126.169 212.97 126.38 212.58C126.411 212.586 126.443 212.593 126.475 212.599C126.994 212.804 127.514 213.01 127.995 213.24C127.526 211.48 127.083 209.757 126.615 207.997C126.541 202.818 127.786 197.972 130.995 194.024C130.995 194.024 142.233 189.536 143.162 190.491C145.083 192.412 143.197 197.328 143.466 199.748C143.583 200.638 146.389 204.704 146.389 204.704C146.757 204.845 147.156 204.993 147.523 205.134C147.555 205.14 148.157 205.262 148.189 205.268C143.714 198.032 145.728 197.374 144.799 193.488C144.812 193.424 144.825 193.36 144.838 193.296C144.901 193.308 144.965 193.321 145.06 193.341C145.825 195.428 146.559 197.509 147.325 199.596C147.376 199.507 147.87 202.772 147.921 202.682C147.923 202.183 147.482 198.329 147.484 197.829C147.434 196.12 146.837 193.367 144.713 192.937C144.719 192.905 144.726 192.873 144.732 192.841C144.342 192.162 144.522 191.599 144.163 190.927C144.156 190.959 144.15 190.991 144.143 191.023C143.966 190.92 143.82 190.824 143.643 190.721C143.681 190.696 143.72 190.67 143.758 190.645C143.866 190.6 144.006 190.562 144.114 190.517C144.101 190.414 144.089 190.312 144.083 190.178C142.058 187.469 132.106 192.45 132.073 192.61C132.041 192.604 132.01 192.597 131.978 192.591C132.943 191.087 133.901 189.615 134.865 188.111C134.465 188.13 134.034 188.143 133.627 188.194C133.078 189.115 132.535 190.005 131.953 190.92C131.947 190.952 131.94 190.984 131.934 191.016C131.902 191.01 131.87 191.003 131.839 190.997C132.646 189.128 133.492 187.233 134.299 185.365C134.268 185.358 134.236 185.352 134.204 185.345C134.116 185.294 133.995 185.236 133.907 185.185C133.748 185.153 133.621 185.127 133.494 185.102C133.623 184.794 133.744 184.519 133.904 184.218C133.886 184.148 133.867 184.078 133.848 184.007Z" fill="black"/>
<path d="M78.609 173.222C78.6342 173.261 78.6594 173.299 78.6847 173.338C78.6782 173.37 78.6717 173.402 78.6652 173.434C78.6083 173.389 78.5197 173.338 78.4627 173.293C78.5326 173.274 78.5708 173.248 78.609 173.222Z" fill="black"/>
<path d="M156.432 196.509C156.438 196.477 156.689 198.66 156.696 198.628C157.318 198.488 158.013 196.196 158.636 196.056C158.511 193.898 161.076 192.152 160.875 193.144C160.697 193.208 160.551 193.279 160.398 193.381C160.37 194.008 160.374 194.642 160.346 195.269C160.378 195.276 160.409 195.282 160.441 195.289C160.486 195.231 160.53 195.173 160.575 195.116C160.625 195.193 160.676 195.27 160.758 195.353C160.79 195.359 160.821 195.366 160.853 195.372C160.866 195.308 160.879 195.244 160.892 195.18C160.969 194.962 161.053 194.713 161.13 194.495C161.161 194.502 161.193 194.508 161.225 194.514C161.212 194.578 161.199 194.642 161.186 194.706C161.291 195.328 161.365 195.942 161.47 196.563C161.84 196.205 162.203 195.879 162.572 195.52C162.654 194.138 162.774 192.729 162.856 191.347C162.831 191.308 162.806 191.27 162.781 191.231C162.509 190.943 162.244 190.623 161.972 190.335C161.909 190.322 161.814 190.303 161.75 190.29C161.737 190.354 161.724 190.418 161.711 190.482C161.705 190.514 161.698 190.546 161.692 190.578C161.654 190.603 161.615 190.629 161.577 190.654C161.584 190.622 161.59 190.59 161.597 190.558C161.471 190.366 161.383 190.149 161.288 189.963C159.668 190.468 158.041 191.005 156.453 191.516C156.541 191.567 156.662 191.625 156.75 191.676C156.64 192.22 156.53 192.764 156.42 193.308C156.382 193.167 156.313 193.02 156.282 192.847" fill="black"/>
<path d="M78.7666 173.587C78.7155 173.677 78.6643 173.767 78.6067 173.888C78.6196 173.824 78.6326 173.76 78.6456 173.696C78.5692 173.747 78.4611 173.792 78.3848 173.843C78.5058 173.734 78.6204 173.658 78.7666 173.587Z" fill="black"/>
<path d="M78.1602 174.298C78.0773 174.381 77.9628 174.458 77.8734 174.573C77.9051 174.579 77.9368 174.586 77.9685 174.592C77.9815 174.528 77.9945 174.464 78.0074 174.4C78.0838 174.349 78.122 174.323 78.1602 174.298Z" fill="black"/>
<path d="M126.902 184.9C126.762 185.105 126.583 185.335 126.443 185.54C126.398 185.597 126.353 185.655 126.309 185.712C126.245 185.7 126.15 185.68 126.087 185.668C126.1 185.604 126.113 185.54 126.126 185.476C126.393 185.296 126.66 185.117 126.902 184.9Z" fill="black"/>
<path d="M167.975 193.449C167.968 193.648 167.954 193.878 167.947 194.076C167.961 193.846 167.968 193.648 167.975 193.449Z" fill="black"/>
<path d="M125.186 185.718C125.065 185.827 124.905 185.961 124.784 186.07C124.778 186.102 124.771 186.134 124.765 186.166C124.733 186.16 124.701 186.153 124.67 186.147C124.721 186.057 124.772 185.968 124.83 185.846C124.963 185.84 125.077 185.763 125.186 185.718Z" fill="black"/>
<path d="M122.577 187.189C122.45 187.33 122.284 187.496 122.156 187.637C122.061 187.618 121.935 187.592 121.839 187.573C122.094 187.458 122.316 187.336 122.577 187.189Z" fill="black"/>
<path d="M69.708 177.251C69.2743 177.763 68.8407 178.275 68.407 178.786C68.3688 178.812 68.3306 178.838 68.2925 178.863C68.1837 179.074 68.0367 179.311 67.928 179.522C67.9914 179.535 68.0548 179.548 68.1499 179.567C68.1758 179.439 68.2017 179.311 68.2341 179.151C68.2658 179.158 68.2975 179.164 68.3292 179.17C68.2767 179.593 68.2307 179.983 68.1781 180.406C68.1652 180.47 68.1522 180.534 68.1392 180.598C68.1709 180.604 68.2026 180.611 68.2343 180.617C68.7529 179.523 69.2146 178.384 69.708 177.251Z" fill="black"/>
<path d="M122.433 190.025C122.207 190.979 121.987 191.9 121.761 192.854C121.987 191.9 122.207 190.979 122.433 190.025Z" fill="black"/>
<path d="M97.9766 186.772C97.9254 186.862 97.8743 186.952 97.8167 187.073C97.785 187.067 97.7533 187.06 97.7216 187.054C97.8109 186.939 97.8937 186.856 97.9766 186.772Z" fill="black"/>
<path d="M97.1611 187.54C97.1035 187.662 97.0394 187.815 96.9818 187.937C96.9501 187.931 96.9184 187.924 96.8867 187.918C96.976 187.803 97.0653 187.687 97.1611 187.54Z" fill="black"/>
<path d="M88.2307 187.964C87.9174 188.534 87.6357 189.11 87.3224 189.679C87.2446 190.063 87.1734 190.415 87.0956 190.8C88.6937 191.056 88.6012 188.905 88.2307 187.964Z" fill="black"/>
<path d="M77.2937 185.75C77.1627 186.723 77.0382 187.664 76.9389 188.643C77.0382 187.664 77.1627 186.723 77.2937 185.75Z" fill="black"/>
<path d="M71.5358 184.684C71.561 184.722 71.5862 184.761 71.6114 184.799C71.6049 184.831 71.5985 184.863 71.592 184.895C71.535 184.85 71.4464 184.799 71.3895 184.754C71.4594 184.735 71.4976 184.709 71.5358 184.684Z" fill="black"/>
<path d="M74.517 189.519C73.4864 193.141 72.4559 196.764 71.4189 200.419C71.5205 200.406 71.6537 200.4 71.7553 200.387C73.2896 197.699 74.8776 192.79 74.517 189.519Z" fill="black"/>
<path d="M70.7923 189.497C70.7319 190.285 70.6967 191.111 70.6363 191.898C70.3202 193.133 69.9723 194.362 69.6562 195.598C70.0328 193.575 70.4093 191.552 70.7923 189.497Z" fill="black"/>
<path d="M69.4082 189.651C69.2275 190.38 69.0402 191.142 68.8595 191.872C68.6945 191.871 68.5612 191.878 68.4279 191.884C68.742 191.148 69.0942 190.387 69.4082 189.651Z" fill="black"/>
<path d="M148.168 206.03C143.32 207.481 150.974 214.661 150.592 216.55C151.076 217.581 151.228 217.645 152.211 217.844C152.218 217.812 152.224 217.78 152.231 217.748C152.287 217.959 152.368 218.209 152.425 218.42C153.048 218.113 153.094 217.722 153.717 217.416C153.654 217.403 153.558 217.383 153.495 217.371C153.343 217.307 153.223 217.249 153.102 217.191C153.109 217.159 153.115 217.127 153.122 217.095C149.957 215.122 148.509 209.398 148.168 206.03Z" fill="black"/>
<path d="M67.749 193.446C67.6014 193.849 67.4285 194.214 67.2809 194.617C67.4602 194.22 67.6079 193.817 67.749 193.446Z" fill="black"/>
<path d="M75.0449 198.488C74.8087 198.84 74.6106 199.166 74.406 199.524C74.3743 199.518 74.3426 199.512 74.3109 199.505C74.3174 199.473 74.3238 199.441 74.3303 199.409C74.5601 199.089 74.7834 198.801 75.0449 198.488Z" fill="black"/>
<path d="M124.255 214.115C124.467 216.324 125.62 218.29 124.467 220.888C120.443 219.574 118.183 216.718 115.303 215.135C116.045 213.752 115.154 212.773 114.987 211.639L115.902 210.059L116.224 210.424L116.688 210.251C117.667 211.282 118.655 211.616 118.937 212.506C117.882 212.825 116.569 214.258 117.574 215.328C118.384 215.892 118.968 214.145 118.95 215.54C119.232 214.964 119.707 215.06 120.045 214.696C121.356 215.394 122.379 215.068 123.496 214.928C123.656 214.627 123.397 214.441 123.658 214.128L123.923 214.448L124.255 214.115Z" fill="black"/>
<path d="M93.7696 210.975C93.646 213.215 94.4683 215.347 92.9037 217.696C89.1425 215.735 87.3409 212.572 84.7858 210.522C85.7302 209.28 84.9987 208.166 85.0353 207.007L86.1771 205.606L86.461 205.997L86.9438 205.895C87.7256 207.086 88.6566 207.541 88.8303 208.475C87.7446 208.622 86.2166 209.812 87.0554 211.048C87.7443 211.72 88.6014 210.095 88.3862 211.484C88.7564 210.959 89.219 211.12 89.6073 210.832C90.7775 211.735 91.8633 211.588 92.98 211.615C93.1652 211.352 92.9504 211.109 93.2688 210.84L93.3942 211.199L93.7696 210.975Z" fill="black"/>
</g>
<path d="M88.7806 47.8298C88.7359 47.8726 88.6464 47.8726 88.6016 47.9154C88.1093 48.172 87.7065 48.5141 87.3932 48.899C87.08 49.3266 86.8562 49.797 86.7667 50.3102C86.7667 50.3958 86.7219 50.524 86.7219 50.6096C86.7219 51.1655 86.9457 51.5932 87.1247 51.807C87.259 52.0208 87.3932 52.1491 87.5275 52.2774C86.6772 54.9716 85.7821 57.6659 84.9317 60.3601C76.3388 60.8305 67.8802 61.4292 59.332 61.7713C48.2329 62.199 37.089 62.4556 25.9898 62.7122C25.9898 62.7122 25.9898 62.7122 25.945 62.7122C20.4402 62.926 14.8906 62.7549 9.43055 62.199C8.66972 62.1134 7.90889 61.9851 7.14806 61.8141C7.05855 61.5575 6.87953 61.3009 6.56625 61.0443C6.56625 61.0443 6.5215 61.0443 6.5215 61.0015C6.56625 60.9588 6.56625 60.916 6.61101 60.8305C6.96904 59.9752 7.5061 59.2054 8.17742 58.5639C9.3858 57.5376 10.7284 56.6395 12.2053 55.9552C16.2333 54.1163 20.2612 52.363 24.4234 50.7806C33.5533 47.4449 42.8623 44.5797 52.3056 42.1848C57.8999 40.7308 63.539 39.5334 69.2676 38.2076C70.2969 37.951 71.3263 37.6517 72.3109 37.3951C73.2955 37.1385 74.2354 36.8819 75.1752 36.7109C84.1709 34.9575 93.0771 33.1186 102.028 31.579C108.159 30.5527 114.291 29.7401 120.467 29.1414C127.852 28.4571 135.281 28.1578 142.71 28.2006C153.093 28.2006 163.342 28.1578 173.546 29.2697C182.542 30.2105 191.448 31.7928 200.175 34.0594H200.22C204.472 35.0858 208.634 36.5826 212.617 38.4215C213.378 38.8064 214.049 39.2768 214.72 39.79C214.407 40.0465 214.049 40.3031 213.691 40.5597C208.141 44.0237 202.771 46.9745 196.46 47.7443C196.147 47.7871 195.431 47.8726 194.849 48.343C194.536 48.5996 194.223 48.9845 194.088 49.4549C193.954 49.9253 193.999 50.353 194.088 50.7379C194.178 51.1228 194.357 51.5504 194.715 51.8925C195.073 52.2347 195.521 52.4485 195.923 52.534C196.55 52.6623 197.221 52.534 197.4 52.4912L201.697 51.6787C204.427 51.1655 207.47 50.7379 210.379 50.0536C210.379 50.0536 210.379 50.0536 210.424 50.0536C214.094 49.2411 217.54 47.5732 220.359 45.1784C222.015 43.8954 223 41.971 223 39.9183C223 37.8655 222.015 35.8983 220.315 34.6154C220.315 34.6154 220.315 34.6154 220.27 34.5726C218.39 33.1186 216.242 31.9639 213.96 31.2369C205.411 28.115 196.55 26.3617 187.733 24.9076C185.317 24.5227 182.9 24.1806 180.528 23.7957C178.111 23.4536 175.739 23.1115 173.367 22.7266C173.322 22.7266 173.322 22.7266 173.278 22.7266C171.129 22.47 169.071 21.8713 167.146 20.9305C166.251 20.46 165.311 20.0324 164.506 19.6903C163.655 19.3054 162.939 19.006 162.357 18.5784C160.567 17.2526 158.822 15.8414 157.211 14.3018C156.405 13.5748 155.286 12.4202 154.122 11.6076C151.482 9.72595 148.618 7.84427 146.022 6.00536C146.022 6.00536 146.022 6.00536 145.977 6.00536C145.709 5.8343 145.485 5.70601 145.216 5.57771C145.216 5.57771 145.216 5.57771 145.172 5.57771C141.502 3.8671 137.742 2.58414 133.893 1.72883C130.492 0.916292 126.643 -0.152841 122.615 0.0182204C117.245 0.274812 111.829 0.574169 106.459 0.873527C99.5665 1.30118 92.719 2.41308 86.0506 4.29475H86.0058C82.2912 5.40665 78.6213 6.77514 75.0409 8.31469C71.1025 9.81148 67.4326 11.9925 64.2998 14.6867C64.2551 14.7295 64.2551 14.7295 64.2103 14.7723C60.8089 18.0652 57.7209 21.7002 55.0356 25.5491C54.5433 26.1906 54.0957 26.8748 53.693 27.5163C53.2454 28.2006 52.8426 28.7993 52.4398 29.4408C51.5895 30.6382 50.7391 31.6645 49.6203 32.4343C47.293 34.0594 45.5028 35.6417 43.3099 36.8819C40.6246 38.4215 37.805 39.5761 34.7617 41.0302C34.717 41.0302 34.717 41.0729 34.6722 41.0729C33.2401 41.8427 31.7631 42.4842 30.2862 43.0829C23.394 45.4777 16.3228 47.9154 9.69908 51.3366C8.62497 51.8925 7.59561 52.534 6.65576 53.1327C5.71591 53.7314 4.82082 54.3302 3.92572 54.8433C2.62784 55.4421 1.50897 56.4257 0.83765 57.6659C0.121575 58.9488 -0.146953 60.4028 0.0768201 61.8141C0.255839 63.1398 0.658631 64.4228 1.50897 65.5774C2.40406 66.7321 3.6572 67.5874 5.31312 67.9723C5.58165 68.0578 5.85018 68.1006 6.16346 68.2289C6.47674 68.3144 6.83478 68.4427 7.19282 68.5282H7.23757C11.3998 69.4691 15.6962 69.9395 19.9479 69.9395C26.9296 70.0678 33.9561 70.2816 40.9826 70.0678C54.2748 69.6401 67.5222 68.9559 80.7248 68.3999C81.1723 68.3999 81.6646 68.3572 82.1122 68.3144L70.5655 102.869C67.3879 112.363 63.9865 121.985 61.9278 131.949C61.5698 133.617 61.3908 135.413 61.1222 136.953C60.988 137.851 61.6145 138.706 62.5096 138.877L62.8229 138.963C63.6732 139.134 64.5683 138.706 64.8816 137.894C65.1054 137.295 65.5977 136.354 65.8662 135.541C68.6858 127.245 71.4606 118.949 74.1906 110.609C78.8898 96.4112 83.5891 82.1704 88.2883 67.9723C94.2855 67.5019 100.283 66.9887 106.28 66.4327C110.218 66.0479 114.067 65.3636 117.871 64.5938C121.675 63.8241 125.345 63.0115 129.105 62.4128C129.865 62.2845 130.671 61.9851 131.253 61.3437C131.879 60.6167 132.014 59.7614 131.835 58.9488C131.656 58.0935 131.074 57.3665 130.223 57.0244C129.463 56.6823 128.612 56.6823 127.896 56.8105C124.987 57.3237 122.526 57.9224 119.84 58.179C116.394 58.5212 113.082 58.5639 109.457 58.7777C104.176 59.0771 98.8504 59.3765 93.5694 59.7186L90.7051 59.8896C91.5107 57.0671 92.2715 54.3729 93.0771 51.6787C94.6883 51.3366 96.2547 50.9517 97.8211 50.7379C107.309 49.4549 116.752 48.172 126.24 46.9745C127.538 46.889 128.836 46.889 130.134 47.0173C130.223 47.2311 130.358 47.4449 130.403 47.7015C130.403 47.7443 130.403 47.7443 130.447 47.7871C131.611 50.9945 132.819 54.1163 133.849 57.281C136.221 64.5083 138.637 71.6929 140.786 78.963C143.516 88.1575 146.067 97.3948 148.752 106.632C149.647 109.711 150.542 112.748 151.527 115.784C152.467 118.649 153.317 121.857 154.66 124.85C154.66 124.893 154.704 124.936 154.704 124.978C154.704 125.021 154.749 125.064 154.749 125.107C156.092 128.015 157.434 130.966 158.867 133.874C159.046 134.344 159.359 134.729 159.717 135.114C160.12 135.499 160.612 135.798 161.149 136.012C161.686 136.226 162.268 136.268 162.805 136.268C163.387 136.226 163.924 136.097 164.416 135.841C165.445 135.328 166.162 134.472 166.385 133.36C166.609 132.334 166.385 131.265 165.848 130.367C165.266 129.298 164.685 128.314 164.192 127.331C161.507 121.6 159.314 115.698 157.613 109.668V109.626C153.72 97.0099 150.005 84.2659 145.977 71.6501C143.784 64.8077 140.965 58.1363 138.503 51.5076C138.458 51.4221 138.458 51.3366 138.369 51.08C138.324 50.8662 138.235 50.524 138.1 50.1392C137.877 49.5832 137.563 48.9417 137.384 48.5141C137.384 48.4713 137.339 48.4285 137.339 48.3858C136.668 47.1028 136.086 45.7343 135.639 44.3231C135.549 43.9382 135.46 43.5533 135.37 43.2112C135.236 42.8263 135.012 42.3131 134.609 41.8855C133.67 40.9446 132.372 40.9874 131.477 41.0302C127.583 41.2867 123.645 41.5861 119.751 42.0993C111.248 43.1684 102.699 44.4514 94.2407 46.2475L94.2855 45.8626C94.375 45.0929 93.9274 44.3231 93.1218 44.0237L92.7638 43.8954C92.1372 43.6816 91.3764 43.8099 90.8841 44.2803C90.5708 44.5797 90.3023 44.879 90.0338 45.2211C89.989 45.2639 89.989 45.3067 89.9443 45.3494C89.5862 45.9482 89.2729 46.5896 89.0492 47.2311C89.0492 47.2739 89.0044 47.3594 89.0044 47.4022C89.0044 47.4877 88.9597 47.5732 88.8701 47.6588C88.9149 47.7443 88.8254 47.7871 88.7806 47.8298Z" fill="black"/>
<defs>
<clipPath id="clip0">
<rect width="105.964" height="89.407" fill="white" transform="matrix(-0.980111 -0.198449 -0.198449 0.980111 179.599 144.028)"/>
</clipPath>
</defs>
</svg>
