<svg width="54" height="48" viewBox="0 0 54 48" fill="none" xmlns="http://www.w3.org/2000/svg">
<path d="M5.69541 48C4.31384 48 2.37416 47.2804 1.08409 45.2638C-0.654302 42.546 0.109676 40.7998 0.612896 39.6402C0.649493 39.5531 21.8579 3.15784 21.8579 3.15784C22.0775 2.73618 23.6192 0.0275048 26.762 5.57443e-06C26.8169 -0.00457764 26.8855 -0.00457764 26.9679 -0.00457764C27.6358 -0.00457764 29.9597 0.224583 31.785 3.14409C33.5463 5.96735 52.5223 38.9619 53.332 40.3643C53.3914 40.4698 54.8188 43.0043 53.3274 45.5342C51.9458 47.8762 49.3062 47.9954 48.7893 47.9954C48.7527 48 5.73658 48 5.69541 48Z" fill="black"/>
<path d="M2.91868 40.4101C2.89123 40.4789 2.85921 40.5476 2.82719 40.6164C2.39259 41.611 2.07693 42.3305 3.11997 43.9576C4.10811 45.4975 5.43935 45.5754 5.69554 45.5754C5.70011 45.5754 5.70011 45.5754 5.70469 45.5754L5.75501 45.5708L5.77788 45.5754H48.7665H48.7803C48.9541 45.5754 50.5049 45.5388 51.2323 44.3059C51.9917 43.0226 51.2689 41.6568 51.2232 41.5743C50.848 40.9235 31.4558 7.21395 29.7265 4.43653C28.5325 2.52533 27.215 2.4245 26.9634 2.4245C26.9543 2.4245 26.9497 2.4245 26.9451 2.4245L26.8536 2.44283L26.8033 2.43367C24.9871 2.43367 24.063 4.16612 24.0036 4.28528L23.9807 4.33112L23.9624 4.3632L2.91868 40.4101Z" fill="#FFD600"/>
<path d="M24.6666 40.4377C24.6666 40.4377 22.0498 40.8456 20.7781 39.8785C19.5063 38.9069 17.7359 37.0736 17.7816 33.485C17.7816 33.485 17.8137 31.7708 17.9326 30.5746C17.9326 30.5746 18.0378 29.6488 17.7816 28.5901C17.7816 28.5901 18.7377 28.9843 19.2638 29.9559C19.2638 29.9559 20.0827 26.4268 19.822 22.774C19.822 22.774 20.8055 23.4248 21.8486 25.6064C21.8486 25.6064 22.1642 24.4102 22.4844 22.8611C22.8001 21.3165 23.0151 19.8912 22.6811 17.2375C22.6811 17.2375 24.0719 17.98 24.7535 19.9507C24.7535 19.9507 25.2247 19.4512 25.3299 17.6912C25.4351 15.9313 25.1469 14.4921 26.071 13.0209C26.071 13.0209 26.3135 15.2942 27.6767 16.8112C29.04 18.3283 29.5524 19.9049 29.9915 21.4632C29.9915 21.4632 30.6274 20.5374 30.6411 18.4016C30.6411 18.4016 32.1554 18.6125 33.5598 26.2847C33.5598 26.2847 34.3604 26.3306 34.9048 23.6952C34.9048 23.6952 36.4327 24.7402 36.0073 29.5617C36.0073 29.5617 35.9021 30.2446 35.5086 31.3354C35.5086 31.3354 35.2204 32.2154 35.4492 33.0954C35.4492 33.0954 36.2223 32.9121 36.538 31.5188C36.538 31.5188 38.0979 36.6107 33.1023 39.521C33.1023 39.521 31.3365 40.841 27.2696 40.1581C27.2696 40.1581 32.4939 38.719 32.6449 33.2604C32.6449 33.2604 32.192 33.3796 31.5241 33.8654C31.5241 33.8654 32.4619 31.8488 31.3868 29.8642C31.3868 29.8642 31.2038 31.8946 29.4197 32.6371C29.4197 32.6371 30.417 28.668 27.7271 25.9364C27.7271 25.9364 28.5276 31.1659 26.5925 33.3933C26.5925 33.3933 25.5495 32.4079 24.8679 29.9238C24.8679 29.9238 23.3399 32.3025 24.9136 35.9278C24.9136 35.9278 23.2804 35.3824 22.6125 30.0338C22.6125 30.0338 21.9172 30.2309 21.8714 32.3529C21.8714 32.3529 21.9766 33.7004 21.4917 33.7325C21.0068 33.7645 20.7506 33.7783 20.3252 33.3383C20.3389 33.3291 20.2657 38.829 24.6666 40.4377Z" fill="black"/>
<path d="M33.5781 41.1205H20.1147V41.8173H33.5781V41.1205Z" fill="black"/>
</svg>
