<svg width="64" height="40" viewBox="0 0 64 40" fill="none" xmlns="http://www.w3.org/2000/svg">
<path d="M25.4796 13.764C25.4668 13.7763 25.4411 13.7763 25.4283 13.7886C25.287 13.8624 25.1714 13.9609 25.0815 14.0716C24.9916 14.1947 24.9273 14.3301 24.9016 14.4778C24.9016 14.5024 24.8888 14.5393 24.8888 14.5639C24.8888 14.7239 24.953 14.847 25.0044 14.9085C25.0429 14.97 25.0815 15.0069 25.12 15.0439C24.876 15.8192 24.6191 16.5945 24.375 17.3698C21.9089 17.5052 19.4813 17.6775 17.028 17.7759C13.8426 17.899 10.6444 17.9728 7.45895 18.0467C7.45895 18.0467 7.45895 18.0467 7.44611 18.0467C5.86625 18.1082 4.27354 18.059 2.70653 17.899C2.48817 17.8744 2.26982 17.8375 2.05146 17.7882C2.02577 17.7144 1.9744 17.6405 1.88448 17.5667C1.88448 17.5667 1.87164 17.5667 1.87164 17.5544C1.88448 17.5421 1.88448 17.5298 1.89733 17.5052C2.00008 17.259 2.15422 17.0375 2.34688 16.8529C2.69368 16.5576 3.07901 16.2991 3.50288 16.1022C4.65887 15.573 5.81487 15.0685 7.0094 14.6131C9.62966 13.6532 12.3013 12.8287 15.0115 12.1395C16.617 11.7211 18.2354 11.3765 19.8795 10.995C20.1749 10.9212 20.4703 10.835 20.7529 10.7612C21.0355 10.6873 21.3052 10.6135 21.5749 10.5643C24.1567 10.0597 26.7127 9.53052 29.2816 9.08749C31.0413 8.79213 32.801 8.5583 34.5735 8.38601C36.6928 8.18911 38.825 8.10296 40.9571 8.11527C43.937 8.11527 46.8784 8.10296 49.8069 8.42293C52.3887 8.69368 54.9447 9.14902 57.4494 9.80127H57.4622C58.6824 10.0966 59.8769 10.5274 61.0201 11.0565C61.2385 11.1673 61.4311 11.3027 61.6238 11.4503C61.5339 11.5242 61.4311 11.598 61.3284 11.6719C59.7357 12.6687 58.1943 13.5178 56.3833 13.7394C56.2934 13.7517 56.0878 13.7763 55.9209 13.9117C55.831 13.9855 55.7411 14.0963 55.7025 14.2316C55.664 14.367 55.6768 14.4901 55.7025 14.6008C55.7282 14.7116 55.7796 14.8347 55.8823 14.9331C55.9851 15.0316 56.1135 15.0931 56.2291 15.1177C56.409 15.1546 56.6016 15.1177 56.653 15.1054L57.8861 14.8716C58.6696 14.7239 59.543 14.6008 60.3779 14.4039C60.3779 14.4039 60.3779 14.4039 60.3907 14.4039C61.444 14.1701 62.433 13.6901 63.2422 13.001C63.7174 12.6318 64 12.078 64 11.4873C64 10.8966 63.7174 10.3305 63.2293 9.96125C63.2293 9.96125 63.2293 9.96125 63.2165 9.94895C62.677 9.53052 62.0605 9.19825 61.4054 8.98903C58.9521 8.09066 56.409 7.58609 53.8786 7.16766C53.185 7.0569 52.4914 6.95845 51.8107 6.84769C51.1171 6.74924 50.4363 6.65079 49.7556 6.54003C49.7427 6.54003 49.7427 6.54003 49.7299 6.54003C49.1133 6.46619 48.5225 6.2939 47.9702 6.02315C47.7133 5.88778 47.4436 5.76472 47.2124 5.66626C46.9683 5.5555 46.7628 5.46936 46.5958 5.34629C46.0821 4.96479 45.5811 4.55867 45.1187 4.11564C44.8875 3.90642 44.5664 3.57415 44.2325 3.34032C43.4746 2.79883 42.6526 2.25734 41.9076 1.72816C41.9076 1.72816 41.9076 1.72816 41.8948 1.72816C41.8177 1.67894 41.7535 1.64202 41.6764 1.6051C41.6764 1.6051 41.6764 1.6051 41.6636 1.6051C40.6103 1.11283 39.5314 0.743637 38.4268 0.497506C37.4506 0.263681 36.346 -0.043983 35.19 0.00524329C33.6487 0.0790827 32.0945 0.165229 30.5532 0.251375C28.5751 0.37444 26.61 0.694411 24.6961 1.2359H24.6833C23.6172 1.55587 22.564 1.94968 21.5364 2.39272C20.4061 2.82345 19.3529 3.45108 18.4538 4.22639C18.4409 4.2387 18.4409 4.2387 18.4281 4.25101C17.4519 5.19861 16.5656 6.24467 15.795 7.35226C15.6537 7.53686 15.5252 7.73377 15.4096 7.91836C15.2812 8.11527 15.1656 8.28756 15.05 8.47216C14.806 8.81674 14.5619 9.1121 14.2408 9.33362C13.5729 9.80127 13.0591 10.2566 12.4297 10.6135C11.6591 11.0565 10.8499 11.3888 9.97646 11.8072C9.96361 11.8072 9.96361 11.8195 9.95077 11.8195C9.53975 12.0411 9.11588 12.2257 8.69202 12.398C6.71398 13.0871 4.68456 13.7886 2.78359 14.7731C2.47533 14.9331 2.17991 15.1177 1.91017 15.29C1.64044 15.4623 1.38355 15.6346 1.12667 15.7823C0.754178 15.9545 0.433068 16.2376 0.240402 16.5945C0.0348914 16.9637 -0.042175 17.3821 0.022047 17.7882C0.0734246 18.1697 0.189024 18.5389 0.433068 18.8712C0.689956 19.2035 1.0496 19.4496 1.52484 19.5604C1.60191 19.585 1.67897 19.5973 1.76889 19.6342C1.8588 19.6588 1.96155 19.6957 2.06431 19.7204H2.07715C3.27168 19.9911 4.50474 20.1265 5.72496 20.1265C7.72869 20.1634 9.74526 20.2249 11.7618 20.1634C15.5766 20.0403 19.3786 19.8434 23.1677 19.6834C23.2961 19.6834 23.4374 19.6711 23.5658 19.6588L20.252 29.6025C19.34 32.3346 18.3638 35.1036 17.773 37.971C17.6702 38.4509 17.6189 38.9678 17.5418 39.4109C17.5033 39.6693 17.6831 39.9154 17.94 39.9647L18.0299 39.9893C18.2739 40.0385 18.5308 39.9154 18.6207 39.6816C18.685 39.5093 18.8262 39.2386 18.9033 39.0047C19.7125 36.6173 20.5089 34.2298 21.2924 31.83C22.641 27.7442 23.9897 23.6462 25.3384 19.5604C27.0595 19.425 28.7807 19.2773 30.5018 19.1173C31.6321 19.0066 32.7367 18.8097 33.8285 18.5882C34.9203 18.3666 35.9735 18.1328 37.0524 17.9605C37.2708 17.9236 37.502 17.8375 37.669 17.6529C37.8488 17.4436 37.8873 17.1975 37.836 16.9637C37.7846 16.7176 37.6176 16.5083 37.3736 16.4099C37.1552 16.3114 36.9112 16.3114 36.7057 16.3484C35.8708 16.496 35.1643 16.6683 34.3937 16.7422C33.4046 16.8406 32.4542 16.8529 31.4138 16.9145C29.8981 17.0006 28.3696 17.0868 26.854 17.1852L26.032 17.2344C26.2632 16.4222 26.4815 15.6469 26.7127 14.8716C27.1751 14.7731 27.6247 14.6624 28.0742 14.6008C30.7972 14.2316 33.5074 13.8624 36.2304 13.5178C36.6029 13.4932 36.9754 13.4932 37.3479 13.5302C37.3736 13.5917 37.4121 13.6532 37.4249 13.7271C37.4249 13.7394 37.4249 13.7394 37.4378 13.7517C37.7717 14.6747 38.1185 15.573 38.414 16.4837C39.0947 18.5635 39.7883 20.631 40.4048 22.7232C41.1883 25.3691 41.9205 28.0273 42.6911 30.6855C42.948 31.5716 43.2049 32.4453 43.4875 33.3191C43.7572 34.1437 44.0013 35.0666 44.3866 35.9281C44.3866 35.9404 44.3994 35.9527 44.3994 35.965C44.3994 35.9773 44.4123 35.9896 44.4123 36.0019C44.7976 36.8388 45.183 37.6879 45.594 38.5248C45.6454 38.6602 45.7353 38.7709 45.838 38.8817C45.9536 38.9924 46.0949 39.0786 46.249 39.1401C46.4032 39.2016 46.5701 39.214 46.7243 39.214C46.8913 39.2016 47.0454 39.1647 47.1867 39.0909C47.4821 38.9432 47.6876 38.6971 47.7518 38.3771C47.8161 38.0817 47.7518 37.7741 47.5977 37.5156C47.4307 37.208 47.2637 36.9249 47.1225 36.6419C46.3518 34.9928 45.7224 33.2945 45.2343 31.5593V31.547C44.1169 27.9165 43.0508 24.2492 41.8948 20.6187C41.2654 18.6497 40.4562 16.7299 39.7498 14.8223C39.7369 14.7977 39.7369 14.7731 39.7112 14.6993C39.6984 14.6377 39.6727 14.5393 39.6342 14.4285C39.57 14.2685 39.48 14.084 39.4287 13.9609C39.4287 13.9486 39.4158 13.9363 39.4158 13.924C39.2232 13.5548 39.0562 13.161 38.9277 12.7548C38.902 12.6441 38.8764 12.5333 38.8507 12.4349C38.8121 12.3241 38.7479 12.1764 38.6323 12.0534C38.3626 11.7826 37.9901 11.7949 37.7332 11.8072C36.6157 11.8811 35.4854 11.9672 34.368 12.1149C31.9275 12.4226 29.4743 12.7918 27.0467 13.3086L27.0595 13.1979C27.0852 12.9764 26.9568 12.7548 26.7256 12.6687L26.6228 12.6318C26.443 12.5702 26.2246 12.6072 26.0833 12.7425C25.9934 12.8287 25.9164 12.9148 25.8393 13.0133C25.8264 13.0256 25.8264 13.0379 25.8136 13.0502C25.7108 13.2225 25.6209 13.4071 25.5567 13.5917C25.5567 13.604 25.5439 13.6286 25.5439 13.6409C25.5439 13.6655 25.531 13.6901 25.5053 13.7148C25.5182 13.7394 25.4925 13.7517 25.4796 13.764Z" fill="black"/>
</svg>
