<svg width="24" height="16" viewBox="0 0 24 16" fill="none" xmlns="http://www.w3.org/2000/svg">
<path d="M9.55487 5.50559C9.55005 5.51052 9.54042 5.51052 9.5356 5.51544C9.48262 5.54497 9.43927 5.58435 9.40555 5.62866C9.37183 5.67788 9.34775 5.73203 9.33812 5.7911C9.33812 5.80095 9.3333 5.81572 9.3333 5.82556C9.3333 5.88956 9.35738 5.93878 9.37665 5.9634C9.3911 5.98801 9.40555 6.00278 9.42 6.01755C9.32848 6.32767 9.23215 6.6378 9.14063 6.94792C8.21584 7.00207 7.30549 7.07099 6.38551 7.11037C5.19098 7.15959 3.99164 7.18913 2.79711 7.21867C2.79711 7.21867 2.79711 7.21867 2.79229 7.21867C2.19984 7.24328 1.60258 7.22359 1.01495 7.15959C0.933064 7.14975 0.851181 7.13498 0.769298 7.11529C0.759665 7.08576 0.740398 7.05622 0.706682 7.02668C0.706682 7.02668 0.701865 7.02668 0.701865 7.02176C0.706682 7.01684 0.706682 7.01192 0.711498 7.00207C0.750032 6.90362 0.807832 6.81501 0.880081 6.74117C1.01013 6.62303 1.15463 6.51965 1.31358 6.44089C1.74708 6.22922 2.18058 6.02739 2.62853 5.84525C3.61112 5.46129 4.61298 5.13147 5.6293 4.85581C6.23138 4.68844 6.83828 4.5506 7.45481 4.398C7.56559 4.36847 7.67637 4.33401 7.78234 4.30447C7.88831 4.27494 7.98946 4.2454 8.0906 4.22571C9.05875 4.02388 10.0173 3.81221 10.9806 3.63499C11.6405 3.51685 12.3004 3.42332 12.9651 3.3544C13.7598 3.27564 14.5594 3.24118 15.3589 3.24611C16.4764 3.24611 17.5794 3.24118 18.6776 3.36917C19.6457 3.47747 20.6043 3.65961 21.5435 3.92051H21.5483C22.0059 4.03865 22.4539 4.21094 22.8825 4.42262C22.9644 4.46692 23.0367 4.52107 23.1089 4.58014C23.0752 4.60967 23.0367 4.63921 22.9981 4.66875C22.4009 5.06748 21.8229 5.40714 21.1437 5.49575C21.11 5.50067 21.0329 5.51052 20.9703 5.56466C20.9366 5.5942 20.9029 5.6385 20.8884 5.69265C20.874 5.7468 20.8788 5.79603 20.8884 5.84033C20.8981 5.88463 20.9173 5.93386 20.9559 5.97324C20.9944 6.01262 21.0426 6.03724 21.0859 6.04708C21.1534 6.06185 21.2256 6.04708 21.2449 6.04216L21.7073 5.94863C22.0011 5.88956 22.3286 5.84033 22.6417 5.76157C22.6417 5.76157 22.6417 5.76157 22.6465 5.76157C23.0415 5.66804 23.4124 5.47606 23.7158 5.20039C23.894 5.05271 24 4.83119 24 4.59491C24 4.35862 23.894 4.13218 23.711 3.9845C23.711 3.9845 23.711 3.9845 23.7062 3.97958C23.5039 3.81221 23.2727 3.6793 23.027 3.59561C22.1071 3.23626 21.1534 3.03443 20.2045 2.86707C19.9444 2.82276 19.6843 2.78338 19.429 2.73908C19.1689 2.6997 18.9136 2.66032 18.6583 2.61601C18.6535 2.61601 18.6535 2.61601 18.6487 2.61601C18.4175 2.58648 18.1959 2.51756 17.9888 2.40926C17.8925 2.35511 17.7913 2.30589 17.7046 2.26651C17.6131 2.2222 17.5361 2.18774 17.4734 2.13852C17.2808 1.98592 17.0929 1.82347 16.9195 1.64625C16.8328 1.56257 16.7124 1.42966 16.5872 1.33613C16.303 1.11953 15.9947 0.902938 15.7154 0.691265C15.7154 0.691265 15.7154 0.691265 15.7105 0.691265C15.6816 0.671574 15.6576 0.656806 15.6287 0.642039C15.6287 0.642039 15.6287 0.642039 15.6238 0.642039C15.2289 0.445134 14.8243 0.297455 14.4101 0.199002C14.044 0.105472 13.6298 -0.0175932 13.1963 0.00209732C12.6183 0.0316331 12.0354 0.0660914 11.4574 0.10055C10.7157 0.149776 9.97873 0.277764 9.26105 0.49436H9.25623C8.85645 0.622348 8.46149 0.779872 8.07616 0.957087C7.65229 1.12938 7.25733 1.38043 6.92016 1.69056C6.91534 1.69548 6.91534 1.69548 6.91053 1.7004C6.54446 2.07945 6.21211 2.49787 5.92311 2.9409C5.87013 3.01474 5.82196 3.09351 5.77861 3.16735C5.73045 3.24611 5.6871 3.31502 5.64375 3.38886C5.55223 3.5267 5.46071 3.64484 5.3403 3.73345C5.08983 3.92051 4.89717 4.10264 4.66115 4.2454C4.37215 4.42261 4.0687 4.55553 3.74117 4.7229C3.73635 4.7229 3.73635 4.72782 3.73154 4.72782C3.5774 4.81642 3.41846 4.89026 3.25951 4.95918C2.51774 5.23485 1.75671 5.51544 1.04385 5.90925C0.928248 5.97324 0.817465 6.04708 0.716315 6.116C0.615165 6.18491 0.518832 6.25383 0.422499 6.3129C0.282817 6.38182 0.1624 6.49504 0.0901507 6.6378C0.0130843 6.78548 -0.0158156 6.95284 0.00826764 7.11529C0.0275342 7.26789 0.0708841 7.41557 0.1624 7.54848C0.258733 7.68139 0.3936 7.77985 0.571816 7.82415C0.600716 7.83399 0.629615 7.83892 0.663332 7.85368C0.697048 7.86353 0.735582 7.8783 0.774115 7.88814H0.778932C1.22688 7.99644 1.68928 8.05059 2.14686 8.05059C2.89826 8.06536 3.65447 8.08997 4.41069 8.06536C5.84123 8.01613 7.26696 7.93737 8.68787 7.87337C8.73604 7.87337 8.78902 7.86845 8.83719 7.86353L7.59449 11.841C7.25251 12.9338 6.88644 14.0414 6.66488 15.1884C6.62634 15.3804 6.60708 15.5871 6.57818 15.7643C6.56373 15.8677 6.63116 15.9662 6.72749 15.9859L6.76121 15.9957C6.85273 16.0154 6.94906 15.9662 6.98278 15.8726C7.00686 15.8037 7.05984 15.6954 7.08874 15.6019C7.39219 14.6469 7.69082 13.6919 7.98464 12.732C8.49039 11.0977 8.99613 9.45846 9.50188 7.82415C10.1473 7.77 10.7927 7.71093 11.4382 7.64693C11.862 7.60263 12.2763 7.52387 12.6857 7.43526C13.0951 7.34665 13.4901 7.25312 13.8947 7.18421C13.9766 7.16944 14.0633 7.13498 14.1259 7.06114C14.1933 6.97746 14.2078 6.879 14.1885 6.78548C14.1692 6.68702 14.1066 6.60334 14.0151 6.56396C13.9332 6.52458 13.8417 6.52458 13.7646 6.53934C13.4515 6.59842 13.1866 6.66733 12.8976 6.69687C12.5267 6.73625 12.1703 6.74117 11.7802 6.76578C11.2118 6.80024 10.6386 6.8347 10.0702 6.87408L9.76198 6.89377C9.84868 6.56888 9.93056 6.25875 10.0173 5.94863C10.1907 5.90925 10.3592 5.86494 10.5278 5.84033C11.549 5.69265 12.5653 5.54497 13.5864 5.40714C13.7261 5.39729 13.8658 5.39729 14.0055 5.41206C14.0151 5.43668 14.0295 5.46129 14.0344 5.49082C14.0344 5.49575 14.0344 5.49575 14.0392 5.50067C14.1644 5.86987 14.2945 6.22922 14.4052 6.59349C14.6605 7.42542 14.9206 8.25242 15.1518 9.08926C15.4456 10.1476 15.7202 11.2109 16.0092 12.2742C16.1055 12.6286 16.2018 12.9781 16.3078 13.3276C16.409 13.6575 16.5005 14.0267 16.645 14.3712C16.645 14.3762 16.6498 14.3811 16.6498 14.386C16.6498 14.3909 16.6546 14.3959 16.6546 14.4008C16.7991 14.7355 16.9436 15.0752 17.0977 15.4099C17.117 15.4641 17.1507 15.5084 17.1893 15.5527C17.2326 15.597 17.2856 15.6314 17.3434 15.656C17.4012 15.6807 17.4638 15.6856 17.5216 15.6856C17.5842 15.6807 17.642 15.6659 17.695 15.6364C17.8058 15.5773 17.8829 15.4788 17.9069 15.3508C17.931 15.2327 17.9069 15.1096 17.8491 15.0063C17.7865 14.8832 17.7239 14.77 17.6709 14.6568C17.3819 13.9971 17.1459 13.3178 16.9629 12.6237V12.6188C16.5438 11.1666 16.144 9.69967 15.7105 8.24749C15.4745 7.45987 15.1711 6.69195 14.9062 5.92894C14.9013 5.91909 14.9013 5.90925 14.8917 5.87971C14.8869 5.8551 14.8773 5.81572 14.8628 5.77141C14.8387 5.70742 14.805 5.63358 14.7857 5.58435C14.7857 5.57943 14.7809 5.57451 14.7809 5.56959C14.7087 5.42191 14.6461 5.26438 14.5979 5.10194C14.5883 5.05763 14.5786 5.01333 14.569 4.97395C14.5545 4.92965 14.5305 4.87057 14.4871 4.82135C14.386 4.71305 14.2463 4.71797 14.15 4.7229C13.7309 4.75243 13.307 4.78689 12.888 4.84596C11.9728 4.96903 11.0528 5.1167 10.1425 5.32346L10.1473 5.27915C10.1569 5.19054 10.1088 5.10194 10.0221 5.06748L9.98355 5.05271C9.91611 5.0281 9.83423 5.04287 9.78125 5.09701C9.74753 5.13147 9.71863 5.16593 9.68973 5.20531C9.68492 5.21023 9.68492 5.21516 9.6801 5.22008C9.64157 5.289 9.60785 5.36284 9.58377 5.43668C9.58377 5.4416 9.57895 5.45144 9.57895 5.45637C9.57895 5.46621 9.57413 5.47606 9.5645 5.4859C9.56932 5.49575 9.55968 5.50067 9.55487 5.50559Z" fill="black"/>
</svg>
