<svg width="96" height="32" viewBox="0 0 96 32" fill="#fff" xmlns="http://www.w3.org/2000/svg">
<path d="M16.8928 12.7933L17.8535 12.7309C18.8036 12.6672 19.7531 12.6042 20.7049 12.5502C21.3314 12.5105 21.9574 12.4997 22.5834 12.4332C23.0774 12.3793 23.5636 12.2532 24.0537 12.1651C24.233 12.131 24.3561 12.1867 24.3867 12.327C24.4174 12.4673 24.3333 12.5718 24.1578 12.6008C22.7945 12.8348 21.4601 13.2256 20.0812 13.3608C18.9768 13.4687 17.873 13.5641 16.7675 13.6595C16.7299 13.6566 16.6926 13.6678 16.6626 13.691C16.6327 13.7143 16.6121 13.7479 16.6048 13.7856C15.7555 16.5256 14.9023 19.2668 14.0447 22.0102C13.5512 23.5967 13.0522 25.1819 12.5493 26.7655C12.5025 26.9132 12.4363 27.0552 12.3811 27.1995L12.3238 27.187C12.37 26.8751 12.4023 26.5599 12.463 26.2498C12.8317 24.372 13.4309 22.5578 14.0057 20.7374L16.1521 13.9225C16.1738 13.8544 16.191 13.7839 16.2167 13.6936C15.9677 13.7084 15.7405 13.7243 15.5116 13.7351C13.1324 13.8453 10.7549 13.9765 8.37351 14.0543C7.12155 14.0958 5.86903 14.0543 4.60815 14.027C3.86076 14.027 3.11615 13.9384 2.38937 13.764C2.27687 13.7334 2.16604 13.6919 2.05132 13.6618C1.58796 13.5385 1.40361 13.1943 1.34291 12.7558C1.31393 12.5516 1.35057 12.3433 1.44735 12.1621C1.54413 11.9808 1.69584 11.8365 1.87978 11.7505C2.23733 11.5437 2.55032 11.2808 2.90842 11.0842C4.07685 10.443 5.32324 9.98231 6.57019 9.52451C6.85289 9.40602 7.12882 9.27138 7.39667 9.12123C7.91739 8.85824 8.45427 8.62253 8.9516 8.32149C9.36094 8.07327 9.72461 7.74554 10.1106 7.45699C10.5951 7.09688 10.8262 6.54025 11.1609 6.06313C11.633 5.34258 12.1722 4.67017 12.771 4.05526C13.3112 3.55939 13.9349 3.16577 14.6138 2.8937C15.2432 2.60175 15.8892 2.35013 16.5491 2.13883C17.7209 1.79029 18.927 1.57578 20.1452 1.49927C21.1131 1.44417 22.0816 1.39021 23.0484 1.33739C23.714 1.30331 24.3472 1.49075 24.9826 1.65092C25.6537 1.8111 26.3053 2.04568 26.9252 2.35126C26.9603 2.36944 26.9937 2.38989 27.0254 2.41261C27.51 2.77272 28.0001 3.11295 28.4779 3.47703C28.6672 3.62301 28.836 3.80988 29.0059 3.97233C29.3103 4.27153 29.631 4.55295 29.9665 4.81524C30.24 5.0112 30.5786 5.114 30.8715 5.28667C31.2491 5.48434 31.659 5.61043 32.0812 5.65985C32.9416 5.80582 33.8076 5.92283 34.6664 6.07222C36.2459 6.34769 37.813 6.67373 39.3173 7.26104C39.7001 7.39106 40.0562 7.59189 40.3677 7.85346C40.5993 8.03692 40.7341 8.31694 40.7341 8.61344C40.7341 8.90993 40.5993 9.18996 40.3677 9.37342C39.895 9.79635 39.3262 10.0921 38.713 10.2339C38.2029 10.364 37.6827 10.4413 37.1653 10.5441L36.3912 10.6991C36.2993 10.7167 36.2013 10.7332 36.1723 10.6105C36.1439 10.4884 36.2336 10.452 36.33 10.4395C37.5463 10.2845 38.5677 9.68127 39.5646 9.02012C39.667 8.95196 39.7634 8.87415 39.8525 8.78781C39.9917 8.6549 40.0006 8.54357 39.8525 8.41521C39.696 8.27628 39.5249 8.1555 39.3424 8.0551C38.608 7.69058 37.8392 7.40321 37.0478 7.19742C35.4641 6.75916 33.8488 6.44958 32.2171 6.27158C30.3636 6.05234 28.503 6.05802 26.6423 6.06142C25.2974 6.05309 23.953 6.11318 22.614 6.24148C21.4949 6.3539 20.3803 6.50888 19.2725 6.7061C17.6619 6.99976 16.0518 7.34907 14.4417 7.6859C14.0842 7.76144 13.7261 7.88754 13.3686 7.97785C12.3488 8.23345 11.3219 8.46065 10.3094 8.74124C8.60054 9.20042 6.91713 9.75294 5.26644 10.3964C4.51125 10.7025 3.77611 11.0462 3.04988 11.3961C2.75972 11.5437 2.49073 11.7295 2.25014 11.9487C2.09681 12.1028 1.97508 12.2864 1.89204 12.4889C1.8559 12.5574 1.8449 12.6368 1.86103 12.7128C1.87717 12.7888 1.91936 12.8564 1.98003 12.9035C1.99952 12.9194 1.98003 12.9825 1.98003 13.0671C2.1911 13.1069 2.42334 13.1591 2.65781 13.1898C3.66121 13.3003 4.67129 13.3344 5.67967 13.292C7.67958 13.2455 9.68117 13.1966 11.68 13.112C13.2182 13.0495 14.757 12.9319 16.2952 12.8456C16.3601 12.8507 16.4245 12.8306 16.4754 12.7891C16.5263 12.7477 16.5598 12.6881 16.5692 12.6224C16.7279 12.064 16.9017 11.5114 17.0699 10.9547C17.081 10.9167 17.0877 10.8792 17.0877 10.8843C17.0108 10.7923 16.9089 10.7207 16.9089 10.6594C16.9173 10.6114 16.9363 10.566 16.9645 10.5266C16.9927 10.4873 17.0293 10.455 17.0715 10.4322C17.1352 10.4066 17.1918 10.3658 17.2367 10.3132C17.2816 10.2606 17.3134 10.1978 17.3294 10.13C17.3673 10.0232 17.414 9.9204 17.4686 9.82157C17.4998 9.77499 17.536 9.73126 17.5761 9.69207L17.6385 9.71535L17.5744 10.2254C17.6041 10.2288 17.6339 10.2288 17.6636 10.2254C19.2842 9.84145 20.9288 9.58585 22.5778 9.36206C23.2707 9.26891 23.9702 9.21324 24.6674 9.16099C24.9949 9.13543 25.0255 9.22574 25.0846 9.54268C25.1681 9.83236 25.2773 10.113 25.412 10.3816C25.4532 10.4827 25.4978 10.5804 25.5351 10.6827C25.573 10.7849 25.578 10.8627 25.607 10.9422C26.0542 12.2168 26.5515 13.4755 26.9436 14.7688C27.6715 17.1732 28.3348 19.5974 29.0365 22.0091C29.3509 23.1795 29.7533 24.3234 30.24 25.4307C30.3347 25.6341 30.4444 25.8323 30.5496 26.0305C30.6822 26.2804 30.6337 26.5167 30.421 26.632C30.3708 26.659 30.3155 26.6748 30.2589 26.6783C30.2022 26.6819 30.1455 26.6731 30.0924 26.6525C30.0398 26.6322 29.9921 26.6005 29.9525 26.5598C29.9129 26.519 29.8824 26.47 29.863 26.4162C29.6068 25.8652 29.3706 25.3046 29.1278 24.748C29.1278 24.7321 29.1167 24.7156 29.1094 24.7014C28.8811 24.1505 28.7341 23.5739 28.5603 23.0048C28.3869 22.4273 28.2216 21.8474 28.0647 21.265C27.5857 19.5042 27.1235 17.7389 26.6334 15.9826C26.2402 14.5962 25.8074 13.2205 25.3814 11.8408C25.192 11.2285 24.9737 10.623 24.766 10.0164C24.7395 9.92588 24.7029 9.83878 24.6568 9.75682C24.64 9.73185 24.6183 9.71065 24.5931 9.69454C24.5679 9.67842 24.5398 9.66772 24.5104 9.6631C24.234 9.63308 23.9555 9.62833 23.6783 9.6489C21.9697 9.88121 20.2616 10.1277 18.5546 10.3691C18.2344 10.4163 17.9158 10.4941 17.6012 10.5679C17.5719 10.5761 17.5447 10.5908 17.5216 10.6109C17.4985 10.631 17.48 10.6561 17.4675 10.6844C17.2648 11.3773 17.086 12.0691 16.8928 12.7933ZM90.0669 16.1701C90.2457 16.1502 90.4139 16.1286 90.5877 16.1127C90.7609 16.0962 90.9742 16.0928 91.1635 16.0605C91.3661 16.0172 91.5771 16.0444 91.7628 16.1377L91.7093 16.2189C92.01 16.378 92.2434 16.6427 92.3643 16.963C92.6572 16.7716 92.9379 16.5881 93.2208 16.4081C93.5037 16.228 93.7989 16.0298 94.0974 15.8588C94.2478 15.7844 94.4037 15.7242 94.5647 15.6788C94.5858 15.6788 94.6148 15.6788 94.6666 15.6947C94.6315 15.7515 94.5914 15.8043 94.5468 15.8537C94.201 16.1536 93.8524 16.4535 93.5021 16.754C93.384 16.8528 93.2531 16.934 93.1334 17.0363C92.9863 17.184 92.8248 17.3169 92.6522 17.4327C92.2512 17.6418 92.1153 18.0121 91.9883 18.3983C91.9306 18.5501 91.865 18.6985 91.7917 18.8431C91.638 19.1129 91.5044 19.394 91.3908 19.6837C91.3451 19.7894 91.2794 19.8842 91.1975 19.9649C90.9992 20.2063 90.7859 20.4386 90.5932 20.6851C90.3549 20.9895 90.1154 21.2957 89.6983 21.3536C89.3853 21.3968 89.0634 21.4144 88.7877 21.2128C88.7102 21.1415 88.6434 21.059 88.5894 20.968C88.5454 20.9127 88.508 20.8522 88.478 20.7879C88.4644 20.7602 88.4562 20.7301 88.4541 20.6991C88.452 20.6682 88.456 20.6372 88.4658 20.6078C88.5994 20.3295 88.747 20.0575 88.908 19.7939C89.0452 19.5773 89.2038 19.3755 89.3814 19.1918C89.736 18.8327 90.0994 18.4827 90.4713 18.1422C90.65 17.9763 90.8684 17.8525 91.0616 17.6974C91.1276 17.6444 91.1784 17.5741 91.2086 17.4941C91.2621 17.3407 91.2944 17.1805 91.3367 17.0096C91.1489 16.9979 90.963 17.0533 90.811 17.1663C90.5736 17.2954 90.3146 17.3779 90.0474 17.4095C89.8525 17.4435 89.6665 17.5316 89.471 17.5713C89.322 17.5946 89.1711 17.6024 89.0205 17.5946C88.9525 17.5916 88.8858 17.5752 88.8239 17.5463C88.7448 17.51 88.7058 17.5463 88.6735 17.6071C88.5304 17.8724 88.38 18.1314 88.253 18.4034C88.0397 18.8857 87.7359 19.3206 87.3586 19.6837C87.24 19.8144 87.1336 19.9552 87.0401 20.1052C86.9738 20.1955 86.8613 20.2642 86.9008 20.4022C86.9008 20.4136 86.888 20.4329 86.8786 20.4437C86.7716 20.5755 86.6697 20.7084 86.5555 20.8328C86.4834 20.9434 86.3815 21.0304 86.262 21.0833C86.1312 21.1264 86.0437 21.2974 85.9346 21.407C85.8845 21.4661 85.8232 21.5149 85.7558 21.5513C85.538 21.6524 85.3136 21.7387 85.0847 21.8109C84.8753 21.8597 84.6548 21.8222 84.4727 21.7064C84.0975 21.5007 83.7662 21.2209 83.498 20.8833C83.3152 20.6341 83.2037 20.3379 83.1761 20.0279C83.1617 19.9234 83.1511 19.8189 83.1366 19.7002C83.1185 19.7093 83.1017 19.7208 83.0865 19.7343C82.7557 20.1375 82.4209 20.5357 82.1007 20.9441C81.9593 21.1247 81.8646 21.3406 81.7231 21.5189C81.6245 21.6427 81.5031 21.7461 81.3656 21.8234C81.1562 21.9404 80.9289 22.025 80.7084 22.1221C80.6968 22.1238 80.6849 22.1238 80.6733 22.1221C80.5961 22.1269 80.5195 22.106 80.4549 22.0626C80.3904 22.0191 80.3413 21.9555 80.3152 21.8813C80.2885 21.7859 80.2489 21.7478 80.1559 21.7836C80.054 21.5893 79.9577 21.4002 79.8535 21.2167C79.8291 21.1799 79.8124 21.1384 79.8044 21.0947C79.7965 21.051 79.7975 21.0061 79.8073 20.9628C79.8121 20.88 79.8121 20.7969 79.8073 20.7141C79.8189 20.6614 79.8357 20.61 79.8574 20.5607C79.8574 20.534 79.8858 20.4999 79.8769 20.48C79.7588 20.2352 79.8769 20.0046 79.9398 19.7848C80.176 19.0322 80.4333 18.2881 80.6839 17.5412C80.802 17.1913 80.9217 16.842 81.0414 16.4944C81.0955 16.3433 81.1707 16.2008 81.2308 16.0514C81.2523 16.0027 81.2627 15.9497 81.2614 15.8963C81.2614 15.7992 81.1812 15.7651 81.1077 15.8264C81.0019 15.9122 80.9022 16.0054 80.8092 16.1053C80.2871 16.7191 79.8241 17.3825 79.4264 18.0865C79.1902 18.4716 78.938 18.8482 78.6929 19.2282C78.5442 19.4611 78.4011 19.6985 78.2435 19.9234C78.1471 20.0586 78.1326 20.0427 77.9984 19.9518C77.9572 19.9251 77.8714 19.9649 77.8052 19.974V20.008C77.7823 19.9757 77.7678 19.9268 77.7372 19.9143C77.6091 19.8587 77.6353 19.7666 77.6643 19.6661C77.7734 19.2878 77.8826 18.9095 77.9862 18.5295C78.0753 18.1961 78.1649 17.8633 78.2401 17.5282C78.3153 17.193 78.3816 16.9051 78.4601 16.5955C78.5214 16.3518 78.6032 16.1161 78.6639 15.8747C78.7068 15.7055 78.7341 15.5328 78.7681 15.3618L78.7235 15.338L78.5765 15.5487C78.1098 16.2042 77.6643 16.8778 77.1686 17.51C76.8834 17.9059 76.6367 18.3279 76.4312 18.7709C76.2146 19.1582 76.0441 19.5705 75.9233 19.999C75.9072 20.0949 75.901 20.1921 75.9038 20.2886C75.832 20.4005 75.7657 20.4999 75.7033 20.6044C75.641 20.7084 75.5441 20.6635 75.4694 20.6311C75.4018 20.5966 75.341 20.5496 75.2901 20.4925C75.269 20.4615 75.237 20.4399 75.2007 20.4322C75.1645 20.4245 75.1267 20.4313 75.0952 20.4511C75.0217 20.4925 74.9804 20.4676 74.9448 20.3897C74.854 20.2055 74.8269 19.9953 74.8679 19.7933C74.9181 19.5451 74.9326 19.2878 74.9699 19.0356C75.0077 18.7834 75.054 18.5329 75.1007 18.2825C75.147 18.0325 75.2093 17.7429 75.2667 17.4759C75.3525 17.0743 75.446 16.6745 75.5246 16.2746C75.5357 16.1928 75.5429 16.1104 75.5457 16.0281C75.3814 16.1161 75.2344 16.1775 75.1058 16.2655C74.6546 16.5682 74.2113 16.8818 73.7625 17.1879C73.6371 17.2726 73.4996 17.3413 73.3743 17.4254C73.3298 17.4564 73.2975 17.5025 73.2829 17.5554C73.1444 18.2125 72.9571 18.8579 72.7227 19.4861C72.6369 19.7161 72.564 19.9507 72.4865 20.1847C72.4548 20.2801 72.4331 20.3755 72.3083 20.4062C72.2918 20.4143 72.2771 20.4259 72.2653 20.4402C72.2535 20.4544 72.2448 20.4711 72.2398 20.4891C72.1318 20.7828 71.9057 21.0174 71.6172 21.1355C71.4459 21.221 71.257 21.2631 71.0665 21.2583C70.8759 21.2536 70.6892 21.2021 70.5223 21.1083C70.2973 21.002 70.0701 20.8981 69.8551 20.7754C69.6729 20.6767 69.5277 20.5196 69.4418 20.3284C69.331 20.0768 69.2007 19.8331 69.1055 19.5758C69.0503 19.3882 69.0085 19.1969 68.9802 19.0033C68.9457 19.0292 68.9144 19.0593 68.8871 19.093C68.773 19.2731 68.6638 19.4531 68.5491 19.6337C68.5181 19.6725 68.484 19.7086 68.4472 19.7417C68.2957 19.8796 68.1611 20.0356 68.0462 20.2063C67.9408 20.3851 67.8256 20.5577 67.7009 20.7231C67.5137 21.029 67.2574 21.2847 66.9535 21.4689C66.784 21.5696 66.6204 21.6802 66.4634 21.8001C66.1889 21.9885 65.8719 22.1025 65.5423 22.1312C65.4309 22.1539 65.3173 22.1693 65.2037 22.1767C65.011 22.1767 64.8177 22.1477 64.6245 22.1312C64.3279 22.1018 64.0402 22.0124 63.7779 21.8682C63.7082 21.8199 63.6478 21.7589 63.5997 21.6882C63.5491 21.6203 63.4778 21.5715 63.397 21.5496C63.3269 21.5321 63.2622 21.4971 63.2088 21.4477C63.1553 21.3983 63.1147 21.3361 63.0907 21.2667C63.05 21.1429 63.0233 21.0128 62.9871 20.8867C62.937 20.7067 62.8763 20.5266 62.8351 20.3471C62.7798 20.1344 62.7129 19.9251 62.6346 19.7201C62.5812 19.4706 62.5615 19.2149 62.5761 18.9601C62.5634 18.7008 62.5543 18.4414 62.5488 18.1819C62.5432 17.9224 62.5488 17.6253 62.5488 17.3481C62.5616 17.1885 62.5828 17.03 62.6134 16.8727C62.6513 16.633 62.6903 16.3956 62.7265 16.1525C62.7286 16.1169 62.7286 16.0812 62.7265 16.0457C62.5187 16.1667 62.3199 16.2655 62.1378 16.3899C61.7602 16.6472 61.3932 16.9193 61.0178 17.1823C60.8981 17.2675 60.7616 17.3299 60.6402 17.4112C60.5992 17.4398 60.5689 17.4819 60.5545 17.5304C60.4486 17.9439 60.3629 18.362 60.2448 18.7726C60.1446 19.122 60.007 19.4622 59.8873 19.8064C59.8371 19.9507 59.7943 20.0961 59.7352 20.2369C59.6993 20.2964 59.6546 20.3498 59.6027 20.3954C59.5759 20.4261 59.5292 20.4494 59.5202 20.4835C59.4437 20.7165 59.2813 20.9102 59.0675 21.0236C58.952 21.1171 58.818 21.1838 58.6746 21.219C58.5313 21.2542 58.3822 21.2571 58.2377 21.2275C58.0539 21.1837 57.8742 21.1235 57.7008 21.0475C57.4519 20.9247 57.2095 20.7888 56.9746 20.6402C56.8988 20.5907 56.8371 20.5218 56.7958 20.4403C56.6458 20.158 56.5108 19.8677 56.3915 19.5707C56.2588 19.1864 56.2526 18.7684 56.3736 18.3802C56.5686 17.6537 56.8008 16.9386 57.0698 16.2371C57.2807 15.6661 57.5829 15.1346 57.9642 14.6643C58.1964 14.3667 58.4972 14.1304 58.8408 13.9748C59.0474 13.86 59.3003 13.8668 59.5008 13.9929C59.5953 14.0515 59.6939 14.1027 59.7959 14.1463C59.9903 14.248 60.1423 14.4155 60.2248 14.6194C60.3774 14.933 60.5829 15.2215 60.6508 15.5737C60.6759 15.7492 60.6915 15.9253 60.6976 16.1019V16.4529C60.8034 16.3973 60.8958 16.3541 60.9816 16.2996C61.57 15.9411 62.1801 15.6213 62.8083 15.3419C62.842 15.3249 62.8678 15.2952 62.8802 15.259C62.932 15.0642 62.9871 14.8716 63.0216 14.674C63.0985 14.3126 63.2186 13.9621 63.3792 13.6306C63.6047 13.116 63.8409 12.6025 64.1071 12.1055C64.356 11.6409 64.644 11.1939 64.9285 10.7508C65.1413 10.4231 65.3774 10.1084 65.6191 9.79998C65.7155 9.69604 65.823 9.60232 65.9393 9.5211C66.0324 9.44385 66.1176 9.36603 66.2217 9.29219C66.3164 9.20586 66.4211 9.13259 66.5347 9.07465C66.6312 9.0412 66.7364 9.04566 66.8299 9.08715C66.902 9.11867 66.9803 9.1331 67.0587 9.12936C67.1371 9.12562 67.2137 9.10381 67.2827 9.06556C67.4676 8.97888 67.6738 8.95057 67.8746 8.98427C68.0755 9.01798 68.2619 9.11215 68.4099 9.25471C68.4973 9.33593 68.5948 9.40579 68.6995 9.46316C68.8788 9.55972 69.0091 9.72898 69.0576 9.92778C69.1478 10.2652 69.1974 10.6122 69.2057 10.9615C69.2057 11.1507 69.2397 11.3398 69.2525 11.5307C69.2552 11.8859 69.1946 12.2387 69.0737 12.5718C69.0303 12.7212 68.9751 12.8672 68.9306 13.0166C68.8693 13.2165 68.7034 13.3375 68.5725 13.4903C68.5335 13.5391 68.4778 13.5732 68.4438 13.6237C68.2918 13.8413 68.0679 13.8339 67.8446 13.818C67.7332 13.818 67.6886 13.7442 67.7265 13.6379C67.7878 13.4636 67.8591 13.2932 67.9393 13.1267C68.0891 12.8066 68.1957 12.4673 68.2561 12.118C68.3024 11.8806 68.3564 11.6443 68.3842 11.3978C68.4271 11.1035 68.4466 10.807 68.4422 10.51C68.4191 10.3254 68.358 10.1479 68.2628 9.98913C68.1487 9.7642 67.9053 9.76761 67.7137 9.92665C67.4921 10.1061 67.3796 10.3731 67.1952 10.5815C66.4796 11.3813 66.0056 12.3253 65.5367 13.2835C65.442 13.4744 65.329 13.6578 65.2432 13.8521C65.1574 14.0469 65.1001 14.2735 65.0305 14.4843C64.9191 14.8052 64.7966 15.1238 64.7119 15.4516C64.6083 15.8571 64.5331 16.2672 64.4546 16.6801C64.4134 16.9318 64.3889 17.1862 64.3811 17.4413C64.3855 17.5719 64.4011 17.7025 64.4273 17.8309C64.4303 17.8613 64.4303 17.8919 64.4273 17.9224C64.3774 18.2202 64.3738 18.5242 64.4167 18.8232C64.4234 18.9135 64.4173 19.0044 64.3989 19.093C64.3794 19.4139 64.5103 19.7053 64.5671 20.0097C64.6317 20.3466 64.9141 20.5016 65.134 20.6999C65.242 20.7645 65.3693 20.7867 65.4921 20.7623C65.7238 20.7257 65.9526 20.673 66.1772 20.6044C66.6639 20.4653 67.0125 20.1285 67.34 19.7632C67.5834 19.4912 67.8318 19.2231 68.0807 18.9601C68.3007 18.7238 68.5385 18.5023 68.7462 18.2558C68.9634 17.9968 69.1656 17.7247 69.3505 17.4418C69.4151 17.3049 69.4641 17.1607 69.4975 17.013C69.61 16.7017 69.7248 16.3899 69.8445 16.0803C70.0498 15.5383 70.3485 15.0381 70.7267 14.6035C70.9803 14.282 71.3195 14.0418 71.7035 13.9117C71.7827 13.8806 71.8679 13.8687 71.9523 13.8772C72.0367 13.8857 72.118 13.9143 72.1897 13.9606C72.2816 14.0162 72.3774 14.0651 72.476 14.1065C72.6726 14.1946 72.8307 14.3508 72.9215 14.5473C73.0774 14.8733 73.3008 15.1687 73.3704 15.5311C73.3988 15.7174 73.4149 15.906 73.4188 16.0945V16.4422C73.6154 16.3268 73.7875 16.2172 73.968 16.1235C74.4102 15.8906 74.8624 15.6657 75.3029 15.4408C75.4187 15.3811 75.5407 15.3346 75.6604 15.2749C75.6936 15.2546 75.7183 15.2227 75.7301 15.1852C75.8983 14.6291 76.0653 14.0719 76.2313 13.5136C76.3382 13.1534 76.6445 13.1012 76.938 13.175C77.1006 13.2119 77.2484 13.2983 77.3618 13.4228C77.4752 13.5472 77.5488 13.7039 77.5729 13.872C77.6008 14.0594 77.588 14.2502 77.5351 14.432C77.4081 14.9296 77.2599 15.4192 77.1168 15.9111C77.0951 15.9866 77.065 16.0588 77.0399 16.1326L77.0756 16.1542C77.1204 16.1104 77.1628 16.0642 77.2026 16.0156C77.5406 15.5561 77.8737 15.0932 78.2167 14.6376C78.4607 14.3349 78.7658 14.0892 79.1111 13.9174C79.1936 13.872 79.2582 13.906 79.3367 13.9498C79.8251 14.2128 79.7449 14.67 79.7126 15.0915C79.6836 15.4233 79.6413 15.7538 79.5856 16.082C79.5583 16.2479 79.5032 16.4081 79.4637 16.5705C79.4525 16.6148 79.4459 16.6614 79.4386 16.7085L79.5054 16.7608C79.511 16.7233 79.5221 16.687 79.5389 16.6529C79.873 16.2042 80.1938 15.7526 80.5497 15.3181C80.7814 15.0653 81.0264 14.8251 81.2831 14.5979C81.4335 14.4502 81.5872 14.3065 81.727 14.1474C81.7681 14.0988 81.8188 14.0595 81.8758 14.0322C81.9328 14.0049 81.9949 13.9902 82.0578 13.989C82.1778 13.9827 82.2973 13.9683 82.4154 13.9458C82.6381 13.9032 82.8665 13.9918 83.0024 14.1747C83.1544 14.4394 83.292 14.7149 83.4245 14.9852C83.5108 15.1943 83.4897 15.4328 83.3671 15.6225C83.1889 15.9826 82.9829 16.3144 82.8308 16.6745C82.6944 16.9806 82.6053 17.3066 82.4945 17.6236C82.2956 18.1978 82.1007 18.7709 81.9002 19.3452C81.7374 19.7898 81.5318 20.217 81.2865 20.6203C81.2742 20.6413 81.2641 20.6636 81.2564 20.6868C81.2534 20.7102 81.2534 20.7339 81.2564 20.7572C81.3778 20.655 81.4926 20.5772 81.5906 20.4744C81.8662 20.2006 82.1475 19.9342 82.4065 19.6405C82.666 19.3469 82.8358 19.0714 83.0831 18.8192C83.292 18.6051 83.317 18.3404 83.3744 18.0808C83.4663 17.6264 83.605 17.1834 83.7876 16.7574C83.9436 16.4081 84.0828 16.0514 84.2365 15.7038C84.452 15.2352 84.7171 14.7916 85.0273 14.3803C85.3314 13.9674 85.6216 13.5442 85.9329 13.1392C86.0853 12.9257 86.2805 12.7476 86.5054 12.6167C86.6081 12.5565 86.705 12.4867 86.795 12.4082C86.8377 12.3696 86.8895 12.3428 86.9453 12.3305C87.0011 12.3181 87.059 12.3207 87.1136 12.3378C87.1938 12.3645 87.2801 12.3645 87.3603 12.3378C87.4997 12.2761 87.6538 12.2574 87.8035 12.2839C87.9532 12.3105 88.0921 12.3811 88.2029 12.4872C88.4402 12.6542 88.5594 12.9444 88.5092 13.2313C88.4196 13.6487 88.487 14.1009 88.2491 14.4922C88.13 14.691 88.0108 14.8927 87.8916 15.0966C87.8131 15.2357 87.7485 15.3794 87.6699 15.518C87.548 15.7327 87.4177 15.9434 87.2979 16.1576C87.0473 16.5853 86.7588 16.9891 86.4352 17.364C86.0544 17.8281 85.6667 18.2863 85.2724 18.7386C85.1705 18.8539 85.029 18.9328 84.9148 19.0396C84.8677 19.0836 84.8364 19.1424 84.8257 19.2066C84.7923 19.4645 84.7745 19.7246 84.7717 19.9848C84.7901 20.1665 84.8185 20.3466 84.8575 20.5249C84.877 20.6783 84.99 20.6891 85.0953 20.6908C85.1724 20.6905 85.2477 20.6672 85.3119 20.6238C85.5069 20.4931 85.6934 20.3505 85.87 20.1955C86.0487 20.0279 86.2008 19.8263 86.3779 19.6553C86.9754 19.032 87.5273 18.3649 88.0292 17.6594C88.1071 17.5435 88.1795 17.4231 88.2441 17.2993L88.1244 17.2436C87.9119 17.1447 87.738 16.9762 87.6304 16.7648C87.6065 16.7078 87.6014 16.6444 87.6159 16.5842C87.7299 16.131 87.9802 15.7256 88.3316 15.4249C88.7368 15.0563 89.1545 14.7024 89.5841 14.3638C89.9166 14.1026 90.2747 13.8742 90.6144 13.6237C90.9855 13.3589 91.3816 13.1325 91.7968 12.9478C91.8395 12.9249 91.8871 12.913 91.9354 12.913C91.9837 12.913 92.0313 12.9249 92.0741 12.9478C92.132 12.9705 92.1922 12.9876 92.2529 12.9967C92.3247 13.0041 92.3949 13.0222 92.4606 13.0512C92.7001 13.2057 92.9618 13.3466 93.0565 13.647C93.0676 13.6845 93.0676 13.7248 93.0565 13.7623C93.0314 13.8362 92.9919 13.9043 92.9707 13.9782C92.9585 14.0263 92.9312 14.069 92.893 14.1C92.8548 14.1309 92.8079 14.1484 92.7591 14.1497C92.6544 14.1599 92.5536 14.1946 92.4639 14.2502C91.8975 14.6699 91.334 15.0939 90.7737 15.522C90.5409 15.702 90.312 15.8821 90.0814 16.0622C90.0652 16.0778 90.0508 16.0954 90.0385 16.1144L90.0669 16.1701ZM72.0287 15.6191C72.002 15.6191 71.9914 15.61 71.9859 15.6191C71.9636 15.6299 71.9424 15.6418 71.9213 15.6549C71.7373 15.7819 71.5898 15.9566 71.4941 16.161C71.1168 16.8933 70.817 17.6644 70.5997 18.4614C70.4947 18.8337 70.5027 19.2297 70.6225 19.5974C70.6765 19.7774 70.73 19.7865 70.8659 19.6553C71.1983 19.3669 71.4275 18.9742 71.5175 18.5386C71.5281 18.4705 71.5453 18.4017 71.5582 18.333C71.5693 18.2058 71.5905 18.0791 71.6211 17.9547C71.8578 17.3203 71.9931 16.6512 72.0221 15.9741C72.0304 15.8531 72.0287 15.7344 72.0287 15.6208V15.6191ZM85.557 16.8801L85.596 16.8943C85.6233 16.8545 85.6517 16.817 85.6767 16.775C85.7842 16.608 85.8883 16.4387 85.9986 16.2752C86.4052 15.6748 86.8217 15.0841 87.2138 14.4735C87.372 14.2037 87.5123 13.9231 87.6337 13.6345C87.6444 13.575 87.6444 13.514 87.6337 13.4545C87.5001 13.4959 87.382 13.53 87.2656 13.5715C87.2406 13.5806 87.2211 13.6181 87.2066 13.6453C87.0278 13.9748 86.863 14.3042 86.6892 14.6336C86.5516 14.8972 86.4107 15.1579 86.2693 15.4192C86.1958 15.5561 86.1222 15.6947 86.0454 15.8316C85.9969 15.9179 85.9379 15.9991 85.895 16.0872C85.7875 16.3109 85.6856 16.5376 85.5837 16.7648C85.5726 16.8017 85.5637 16.8397 85.557 16.8784V16.8801ZM45.2942 17.3157C45.2369 17.3427 45.1868 17.3832 45.148 17.4339C45.1091 17.4845 45.0827 17.5439 45.0709 17.6071C44.9993 17.8621 44.8775 18.0994 44.7128 18.3046C44.4911 18.6375 44.2656 18.9692 44.0261 19.2912C43.8598 19.5386 43.6679 19.7669 43.4536 19.9723C43.1681 20.2211 42.8568 20.4373 42.5252 20.6169C42.42 20.6584 42.3063 20.6729 42.1944 20.659C42.0824 20.6452 41.9755 20.6034 41.883 20.5374C41.5507 20.3538 41.2793 20.0737 41.1033 19.7326C41.0287 19.5429 41.0142 19.335 41.0599 19.1362C41.1011 18.8482 41.1568 18.5619 41.2248 18.2791C41.304 17.8974 41.4055 17.5209 41.5288 17.1516C41.7071 16.6472 41.9404 16.1576 42.1565 15.6657C42.3497 15.2317 42.543 14.7961 42.7596 14.3746C42.8989 14.0685 43.0799 13.7834 43.296 13.5266C43.4803 13.2869 43.8067 13.2114 44.0757 13.3466C44.1631 13.4124 44.226 13.5056 44.255 13.6112C44.3073 13.7436 44.3396 13.8833 44.3497 14.0253C44.3473 14.1359 44.3231 14.2449 44.2784 14.3457C44.167 14.641 44.0528 14.9364 43.9203 15.2261C43.6808 15.781 43.4229 16.3268 43.1907 16.8835C42.9707 17.406 42.7719 17.9354 42.5681 18.4648C42.5163 18.6011 42.4823 18.7477 42.4377 18.8879C42.3904 19.0487 42.4121 19.2219 42.4984 19.3651C42.5591 19.4804 42.6076 19.4861 42.7056 19.3974C43.0867 19.0375 43.42 18.6283 43.6969 18.1802C44.2088 17.3896 44.661 16.5592 45.092 15.7287C45.2034 15.5129 45.3304 15.3056 45.4251 15.0824C45.4782 14.9325 45.5159 14.7773 45.5376 14.6194C45.5699 14.4576 45.5949 14.2957 45.6183 14.1332C45.6362 13.9981 45.6484 13.8634 45.6573 13.7283C45.6762 13.566 45.7541 13.4168 45.8756 13.3102C45.9322 13.2591 46.0051 13.2309 46.0806 13.2309C46.1561 13.2309 46.229 13.2591 46.2855 13.3102C46.4655 13.4309 46.6176 13.5901 46.7313 13.7768C46.845 13.9634 46.9175 14.173 46.9438 14.3911C46.9694 14.7507 46.9694 15.1119 46.9438 15.4714C46.9438 15.7833 46.9438 16.0962 46.9349 16.4081C46.9115 16.8653 46.8831 17.3225 46.8363 17.7787C46.8062 18.0797 46.74 18.375 46.6843 18.7096C46.7884 18.6539 46.8636 18.6085 46.946 18.5676C47.141 18.4665 47.3376 18.3677 47.5341 18.27C47.7413 18.1603 47.8878 17.9615 47.9312 17.7304C48.0654 17.2527 48.2052 16.7773 48.3556 16.307C48.4804 15.9145 48.6274 15.5271 48.7566 15.1346C48.8546 14.8319 48.9348 14.524 49.0261 14.2162C49.0429 14.1349 49.0484 14.052 49.044 13.9697C49.0378 13.9141 49.0441 13.8578 49.0623 13.8051C49.0805 13.7524 49.1103 13.7045 49.1492 13.6652C49.1884 13.6257 49.2357 13.5955 49.2877 13.5768C49.3397 13.5582 49.3951 13.5515 49.45 13.5573C49.8398 13.5573 50.1032 13.7748 50.3338 14.0486C50.5649 14.3224 50.556 14.6427 50.4663 14.9727C50.4235 15.1295 50.3895 15.2897 50.3516 15.4482L50.3856 15.4697C50.4207 15.4419 50.4535 15.4118 50.4842 15.3794C50.6791 15.1147 50.9041 14.8728 51.1536 14.6592C51.417 14.4686 51.7178 14.3383 52.0352 14.2775C52.1659 14.2623 52.2983 14.2743 52.4243 14.3126C52.5504 14.351 52.6675 14.415 52.7687 14.5007C52.8299 14.5422 52.8867 14.5928 52.9474 14.6319C53.2287 14.8279 53.398 15.1488 53.4019 15.493C53.4325 15.6844 53.447 15.8776 53.4464 16.0712C53.427 16.37 53.3752 16.6676 53.3323 16.9715C53.2966 17.2186 53.2627 17.4651 53.2053 17.7082C53.145 17.9759 53.0642 18.2384 52.9636 18.4932C52.8065 18.8737 52.6294 19.2464 52.4379 19.6082C52.2958 19.8979 52.1232 20.1705 51.9227 20.4221C51.7456 20.6039 51.5423 20.7578 51.3196 20.8782C51.1904 20.9415 51.0548 20.9903 50.9152 21.0236C50.8007 20.9618 50.6811 20.9105 50.5577 20.8703C50.2897 20.7884 50.0517 20.6268 49.8743 20.4062C49.7846 20.2908 49.7322 20.1498 49.7242 20.0028C49.7162 19.8557 49.7531 19.7097 49.8298 19.5849C49.8536 19.5482 49.8852 19.5174 49.9224 19.495C49.9595 19.4725 50.0012 19.459 50.0442 19.4554C50.1333 19.4741 50.2074 19.5372 50.2408 19.6229C50.2837 19.9251 50.5382 20.0029 50.7559 20.1625C50.8813 19.9052 51.0082 19.6661 51.1141 19.4173C51.2605 19.0754 51.4053 18.7312 51.5234 18.3779C51.5941 18.1388 51.6498 17.8951 51.6905 17.6486C51.7384 17.4077 51.7907 17.1658 51.8225 16.9284C51.8848 16.4671 52.0012 16.0116 51.9639 15.5396C51.9639 15.5063 51.9602 15.4732 51.9528 15.4408C51.8692 15.1653 51.7189 15.1221 51.5451 15.3471C51.1571 15.8196 50.7986 16.3166 50.4719 16.8352C50.2157 17.2669 49.935 17.6832 49.6666 18.1098C49.6015 18.2246 49.5465 18.3451 49.5023 18.4699C49.4433 18.6216 49.3854 18.7744 49.3375 18.9311C49.2639 19.1685 49.1982 19.4099 49.1303 19.6513C48.9767 20.2553 48.783 20.848 48.5505 21.4252C48.4664 21.62 48.4057 21.8268 48.325 22.0233C48.1913 22.355 48.0409 22.6788 47.9117 23.0116C47.7079 23.5325 47.518 24.0584 47.3181 24.5793C47.2713 24.7014 47.1994 24.8133 47.1532 24.9394C47.0853 25.1195 47.0351 25.2995 46.9744 25.4887C46.942 25.5633 46.9042 25.6355 46.8614 25.7045C46.8363 25.7516 46.7901 25.7965 46.7862 25.8448C46.7604 25.9836 46.6822 26.1066 46.5684 26.1873C46.5518 26.1968 46.533 26.2018 46.5139 26.2018C46.4948 26.2018 46.476 26.1968 46.4593 26.1873C46.4013 26.1132 46.3497 26.0342 46.305 25.951C46.2516 25.8556 46.1853 25.8448 46.1101 25.9334C46.0706 25.8328 46.0471 25.7263 46.0405 25.6182C46.0622 25.3983 45.9135 25.258 45.8617 25.0632C45.8261 24.9635 45.8032 24.8594 45.7938 24.7537C45.7993 24.6741 45.8194 24.5969 45.8528 24.5248C45.9441 24.28 45.9313 24.0153 46.031 23.7722C46.1708 23.4228 46.2872 23.0644 46.4053 22.7077C46.5684 22.2124 46.7255 21.7154 46.8814 21.2184C46.9616 20.9606 47.0407 20.7016 47.1176 20.4437C47.2462 20.012 47.3737 19.5786 47.5002 19.1453C47.5032 19.1166 47.5032 19.0876 47.5002 19.0589L47.259 19.2083C46.8848 19.4202 46.5851 19.7422 46.398 20.1307C46.3448 20.2938 46.3082 20.4621 46.2889 20.6328C46.2209 20.9623 46.1569 21.2917 46.08 21.62C46.0188 21.8739 45.9118 22.1204 45.8756 22.3783C45.8206 22.706 45.7258 23.0254 45.5933 23.3291C45.5287 23.491 45.4145 23.6353 45.3499 23.7972C45.1711 24.2203 44.9923 24.6435 44.8436 25.0797C44.5719 25.9169 44.0695 26.6212 43.5911 27.3471C43.4391 27.5812 43.2442 27.7862 43.071 28.006C43.0238 28.0677 42.983 28.1341 42.949 28.2042C42.765 28.5335 42.5286 28.8293 42.2495 29.0795C42.1014 29.2272 41.9722 29.3931 41.8184 29.5351C41.6383 29.7092 41.4438 29.8671 41.237 30.0071C40.9696 30.2138 40.6712 30.375 40.3532 30.4842C40.0691 30.5546 39.7795 30.6012 39.4894 30.6432C39.3362 30.6716 39.1797 30.6739 39.026 30.6518C38.7591 30.5918 38.5236 30.4327 38.3655 30.2053C38.2318 30.0252 38.126 29.8304 38.008 29.643C37.8899 29.4556 37.9562 29.2738 37.9968 29.092C38.0358 28.9125 38.0893 28.7365 38.1583 28.5661C38.2519 28.3338 38.3599 28.1077 38.4819 27.889C38.7741 27.372 39.0765 26.861 39.3891 26.3566C39.797 25.7024 40.2773 25.0983 40.8204 24.556C41.1072 24.2534 41.3777 23.9352 41.6308 23.6029C42.4327 22.6229 43.2943 21.6952 44.2104 20.8254C44.3383 20.6963 44.4799 20.5822 44.6326 20.4852C44.6928 20.4465 44.743 20.3935 44.7789 20.3308C44.8147 20.2682 44.8352 20.1976 44.8386 20.125C44.8793 19.8621 44.9294 19.5991 44.974 19.3361C45.0185 19.0731 45.0653 18.7692 45.1104 18.4841C45.155 18.2001 45.1995 17.9082 45.2441 17.6179L45.2942 17.3157ZM44.4338 21.8682C44.409 21.8862 44.3858 21.9061 44.3641 21.9279C44.1943 22.1312 44.0317 22.3425 43.8579 22.5402C43.4625 22.9906 43.0637 23.4405 42.6594 23.8835C42.4806 24.0823 42.2751 24.2584 42.0924 24.4549C42.0206 24.5321 41.985 24.635 41.9131 24.7247C41.4982 25.2649 41.0655 25.8056 40.6701 26.3566C40.4233 26.7042 40.112 27.0069 39.9544 27.4227C39.8135 27.7408 39.6565 28.0503 39.4838 28.3519C39.4359 28.4462 39.3964 28.545 39.3641 28.6456C39.2922 28.8688 39.2265 29.0943 39.1602 29.3192C39.1502 29.3471 39.1502 29.3777 39.1602 29.4056C39.2031 29.4851 39.2549 29.5606 39.3034 29.6379C39.317 29.6678 39.3365 29.6945 39.3608 29.7162C39.3851 29.7379 39.4136 29.7542 39.4444 29.7641C39.4753 29.7739 39.5078 29.7771 39.5399 29.7733C39.572 29.7696 39.603 29.7591 39.6308 29.7424C39.839 29.6375 40.0393 29.5171 40.2301 29.3823C40.6925 28.9997 41.1027 28.5557 41.4498 28.0623C41.8892 27.5128 42.2695 26.9167 42.5842 26.2844C42.7468 25.9493 42.9418 25.6363 43.1211 25.3046C43.2603 25.0325 43.3784 24.748 43.5054 24.4708C43.8952 23.6387 44.2678 22.8049 44.4338 21.8682ZM38.7916 15.3039C38.8311 15.288 38.8695 15.2687 38.9063 15.2465C39.2638 14.9818 39.5985 14.7058 39.9578 14.4519C40.3066 14.2072 40.6648 13.9766 41.0315 13.7606C41.2821 13.5953 41.5717 13.4994 41.8702 13.4812C41.9605 13.4675 42.0484 13.4414 42.132 13.4039C42.2729 13.3625 42.4104 13.3159 42.5536 13.2835C42.602 13.2704 42.6534 13.2756 42.6984 13.298C42.7434 13.3204 42.779 13.3586 42.7986 13.4056C42.8343 13.4666 42.8482 13.5383 42.8381 13.6086C42.828 13.6788 42.7943 13.7434 42.7429 13.7913C42.5226 13.9404 42.2938 14.0762 42.0579 14.198C41.7431 14.3443 41.4435 14.5224 41.1635 14.7296C40.8399 14.9739 40.4913 15.1869 40.1672 15.43C39.9667 15.589 39.7745 15.7594 39.5913 15.9378C39.5541 15.9814 39.5216 16.029 39.4944 16.0798C39.3997 16.2189 39.3067 16.3575 39.2104 16.4944C39.031 16.7375 38.8829 16.9914 38.693 17.2146C38.4195 17.5424 38.3354 17.9621 38.1316 18.3205C37.8932 18.7295 37.6772 19.1509 37.4483 19.565C37.3658 19.7127 37.2689 19.857 37.1887 20.0007C37.1747 20.034 37.1536 20.0638 37.127 20.088C37.1004 20.1121 37.0689 20.1299 37.0348 20.1402C37.0007 20.1506 36.9647 20.1531 36.9295 20.1476C36.8943 20.1421 36.8608 20.1288 36.8312 20.1086C36.7883 20.0852 36.74 20.0742 36.6914 20.0768C36.4714 20.1165 36.3606 19.9723 36.257 19.8212C36.2082 19.755 36.1688 19.6822 36.14 19.6048C36.1102 19.5231 36.0969 19.4362 36.1011 19.3492C36.1261 19.0839 36.1634 18.8209 36.1974 18.5562L36.14 18.504C36.13 18.5478 36.1139 18.5899 36.0922 18.6289C35.9902 18.7619 35.8738 18.8862 35.7753 19.0209C35.6539 19.1907 35.5447 19.3725 35.4283 19.5451C35.3832 19.6133 35.3336 19.678 35.2796 19.7399C35.14 19.866 35.0157 20.0087 34.9092 20.1648C34.8001 20.3608 34.6753 20.5482 34.5372 20.7249C34.3781 20.9796 34.1701 21.1989 33.9257 21.3695C33.7074 21.503 33.5013 21.6541 33.2908 21.8001C33.0072 21.992 32.6784 22.1032 32.3385 22.1221C32.1322 22.1546 31.9234 22.1685 31.7147 22.1636C31.3299 22.1221 30.9295 22.0721 30.6104 21.8432C30.4121 21.7012 30.206 21.5587 30.02 21.3985C29.9348 21.3008 29.8774 21.1812 29.854 21.0526C29.7609 20.7053 29.6755 20.3559 29.5979 20.0046C29.5909 19.9722 29.5789 19.9411 29.5622 19.9126C29.4455 19.7043 29.3902 19.4661 29.4029 19.2265V18.5403C29.4029 18.3114 29.3656 18.0791 29.3584 17.8485C29.3546 17.6747 29.363 17.5008 29.3834 17.3282C29.4157 17.0471 29.457 16.7659 29.5032 16.4876C29.55 16.2081 29.6018 15.9037 29.6591 15.6134C29.7271 15.2772 29.7928 14.9381 29.8791 14.6052C29.9448 14.3559 30.0256 14.1111 30.1219 13.8725C30.2651 13.5118 30.4104 13.1517 30.5819 12.8098C30.803 12.344 31.0475 11.8914 31.3154 11.4517C31.673 10.8769 32.0884 10.3299 32.4783 9.77159C32.5568 9.65515 32.6648 9.56143 32.7913 9.50122C32.885 9.44585 32.9712 9.37805 33.0474 9.29958C33.151 9.20927 33.2257 9.06386 33.3783 9.05818C33.4986 9.04739 33.62 9.05988 33.7358 9.09396C33.8288 9.13827 33.9363 9.13827 34.0293 9.09396C34.1942 9.00536 34.3791 8.96105 34.5662 8.96616C34.8279 8.96162 35.0797 9.06386 35.2657 9.24903C35.347 9.33082 35.4417 9.39898 35.5441 9.45067C35.778 9.58358 35.9295 9.82498 35.949 10.0936C36.0153 10.5906 36.0688 11.0933 36.0938 11.5937C36.0949 11.8198 36.0621 12.0441 35.9969 12.2606C35.9223 12.5377 35.8326 12.8104 35.729 13.0785C35.6876 13.1674 35.6306 13.2478 35.5608 13.3159C35.4439 13.4454 35.3191 13.5658 35.2027 13.6919C35.1662 13.7305 35.1223 13.7612 35.0737 13.782C35.0252 13.8027 34.973 13.8133 34.9204 13.8129C34.4709 13.8362 34.5161 13.705 34.6642 13.3659C34.7678 13.1699 34.8569 12.9666 34.931 12.7575C35.049 12.327 35.1454 11.8891 35.2317 11.4512C35.2763 11.2296 35.2796 11.0013 35.303 10.7764C35.3218 10.4854 35.2493 10.1959 35.0958 9.94994C35.0679 9.91001 35.0319 9.87667 34.9903 9.85218C34.9486 9.82768 34.9023 9.81261 34.8545 9.80798C34.8066 9.80334 34.7583 9.80926 34.7129 9.82533C34.6675 9.84139 34.626 9.86723 34.5912 9.90109C34.3584 10.0919 34.2331 10.3657 34.0438 10.5815C33.5926 11.1058 33.2057 11.6841 32.8915 12.3037C32.593 12.8525 32.3085 13.4092 32.0383 13.9731C31.9483 14.1836 31.8723 14.4001 31.8111 14.6212C31.6964 14.9676 31.5733 15.3113 31.4803 15.664C31.4051 15.9452 31.3817 16.2388 31.3009 16.5217C31.2365 16.8749 31.2061 17.2337 31.2102 17.5929C31.2102 17.6832 31.2547 17.773 31.253 17.8701C31.253 18.0308 31.2191 18.1893 31.2135 18.3495C31.2079 18.5097 31.2258 18.6216 31.2313 18.7562C31.2358 18.8334 31.2358 18.9101 31.2313 18.9868C31.2269 19.4 31.3022 19.8102 31.453 20.1938C31.4663 20.2318 31.4881 20.267 31.5159 20.296C31.5839 20.3699 31.6624 20.4312 31.7253 20.509C31.8968 20.7232 32.1742 20.8203 32.441 20.7589C32.7392 20.7154 33.0293 20.6262 33.3014 20.4942C33.6079 20.3272 33.882 20.1045 34.1101 19.8371C34.5784 19.3327 35.0563 18.8391 35.5157 18.3296C35.6951 18.1263 35.8449 17.8866 36.017 17.6707C36.1601 17.477 36.3194 17.2959 36.4926 17.13C36.673 16.9454 36.7972 16.7131 36.8507 16.4598C36.9699 16.069 37.0929 15.6782 37.221 15.288C37.328 14.9472 37.4282 14.6052 37.5496 14.2701C37.6721 13.935 37.8041 13.6561 37.9328 13.3483C37.9578 13.2886 37.9773 13.2256 38.008 13.1682C38.0402 13.0987 38.0943 13.0422 38.1618 13.0079C38.2293 12.9736 38.3062 12.9634 38.38 12.9791C38.742 13.0154 39.0394 13.2801 39.1207 13.6362C39.1719 13.9066 39.1357 14.1855 39.0188 14.4343C38.9275 14.6757 38.8523 14.9239 38.7737 15.1704C38.7748 15.2158 38.781 15.2601 38.7916 15.3039ZM55.3701 13.584C55.1083 13.6164 54.88 13.6328 54.6544 13.6743C54.2578 13.7611 53.8498 13.7805 53.447 13.7317C53.3254 13.7002 53.2058 13.6611 53.0889 13.6147C52.9101 13.5607 52.7169 13.5209 52.5342 13.4636C52.3371 13.3999 52.1594 13.2855 52.0182 13.1315C51.877 12.9776 51.777 12.7891 51.7278 12.5843C51.7194 12.5341 51.7226 12.4827 51.7371 12.434C51.7516 12.3853 51.777 12.3407 51.8113 12.3037C51.8506 12.2729 51.8981 12.2546 51.9476 12.2514C51.9971 12.2482 52.0464 12.2601 52.0892 12.2855C52.4534 12.4908 52.8666 12.5882 53.2822 12.5667C53.486 12.5536 53.6937 12.5951 53.8975 12.5826C54.2105 12.5627 54.5235 12.5179 54.8371 12.4855C55.1501 12.4531 55.5043 12.4133 55.8384 12.3901C55.8803 12.3905 55.9215 12.3797 55.958 12.3588C55.9944 12.3379 56.0248 12.3075 56.0462 12.2708C56.3786 11.7778 56.7223 11.2915 57.0531 10.798C57.2146 10.5219 57.4435 10.293 57.7186 10.1334C57.7743 10.1044 57.8383 10.0988 57.8979 10.1169C58.065 10.1982 58.2087 10.3225 58.3128 10.4776C58.3808 10.5781 58.324 10.6827 58.2934 10.7855C58.2627 10.8877 58.2466 10.9996 58.2198 11.1058C58.205 11.1816 58.1816 11.2553 58.1502 11.3256C58.0299 11.5562 57.9029 11.7812 57.7815 12.0118C57.7632 12.0572 57.7492 12.1044 57.7403 12.1521H59.9212C59.9212 12.2316 59.9747 12.2407 60.0532 12.2424C60.2003 12.2424 60.3451 12.273 60.4915 12.2907L61.5653 12.4168C60.7412 12.3943 59.9172 12.4613 59.107 12.6167L59.2306 12.6581V12.6797C59.1087 12.6928 58.9856 12.6996 58.8726 12.7212C58.8247 12.7212 58.7834 12.7717 58.735 12.7825C58.6331 12.8075 58.5289 12.8257 58.4253 12.8422C58.1001 12.8944 57.7726 12.9427 57.4485 13.0007C57.4237 13.0087 57.4008 13.0223 57.3817 13.0404C57.3625 13.0584 57.3475 13.0805 57.3377 13.1052C57.1466 13.5766 56.959 14.0503 56.7724 14.524C56.6153 14.9239 56.4505 15.3221 56.3074 15.727C56.1295 16.2339 55.9596 16.7437 55.7978 17.2561C55.7254 17.4861 55.6658 17.7201 55.6184 17.957C55.5764 18.1666 55.549 18.379 55.5366 18.5926C55.5043 19.1129 55.4792 19.6354 55.4575 20.1557C55.4279 20.4611 55.4956 20.7681 55.6507 21.031C55.6647 21.0595 55.6845 21.0845 55.7089 21.1044C55.7333 21.1242 55.7617 21.1385 55.792 21.146C55.8223 21.1536 55.8538 21.1543 55.8845 21.1482C55.9151 21.1421 55.944 21.1292 55.9693 21.1105C56.0961 21.0292 56.2318 20.9632 56.3736 20.914C56.4327 20.9043 56.4934 20.9043 56.5524 20.914C56.5602 20.9816 56.5563 21.0497 56.5413 21.1156C56.4627 21.2747 56.338 21.4076 56.1837 21.4962C55.9364 21.6603 55.6469 21.7495 55.35 21.7529C55.0941 21.7463 54.849 21.6461 54.6594 21.4706C54.3203 21.1706 54.0722 20.7781 53.9443 20.3392C53.7875 19.7808 53.7383 19.1967 53.7995 18.6193C53.8346 18.057 53.9432 17.502 54.1226 16.9681C54.3147 16.3791 54.504 15.7901 54.7045 15.2051C54.817 14.8756 54.9423 14.5513 55.0766 14.2287C55.1412 14.0736 55.2381 13.9316 55.316 13.7822C55.3383 13.7175 55.3561 13.6516 55.3701 13.584ZM59.2752 15.6026C59.0719 15.7032 58.9076 15.8696 58.8085 16.0747C58.647 16.3729 58.5011 16.6796 58.3719 16.9931C58.1931 17.4975 58.0427 18.0161 57.8651 18.5239C57.7602 18.8844 57.776 19.2703 57.9102 19.6207C57.9531 19.7649 58.016 19.7814 58.1179 19.6678C58.2789 19.4878 58.4292 19.3077 58.5757 19.1129C58.6392 19.0413 58.6843 18.9555 58.7083 18.863C58.7456 18.6233 58.8709 18.4 58.8441 18.1422C58.8469 18.0797 58.862 18.0184 58.8887 17.9621C59.0914 17.4316 59.2223 16.8761 59.2769 16.3109C59.2858 16.0837 59.2752 15.8531 59.2752 15.6026Z"/>
</svg>
