<svg width="214" height="53" viewBox="0 0 214 53" fill="none" xmlns="http://www.w3.org/2000/svg">
  <path d="M28.6969 21.0665C28.686 21.0815 28.6594 21.086 28.6484 21.101C28.5158 21.2026 28.414 21.3253 28.341 21.4562C28.2699 21.6 28.2277 21.7521 28.2274 21.9101C28.2317 21.9359 28.225 21.9765 28.2293 22.0021C28.2576 22.1685 28.3457 22.2853 28.4094 22.3403C28.4601 22.3975 28.5063 22.4292 28.5526 22.4608C28.4381 23.3101 28.3103 24.1617 28.1958 25.0111C25.6777 25.5838 23.2059 26.1884 20.6946 26.7205C17.433 27.4066 14.1494 28.0437 10.879 28.6785C10.879 28.6785 10.879 28.6785 10.8658 28.6807C9.2482 29.0215 7.5978 29.2493 5.9543 29.3575C5.72486 29.37 5.49326 29.3698 5.25949 29.3569C5.21997 29.2846 5.15395 29.2169 5.0482 29.1557C5.0482 29.1557 5.03497 29.1579 5.03279 29.1451C5.04385 29.1301 5.04168 29.1173 5.05058 29.0895C5.11297 28.8154 5.23269 28.5581 5.39865 28.3322C5.7039 27.9642 6.0554 27.6279 6.45747 27.3487C7.55548 26.5957 8.65785 25.8684 9.80861 25.1854C12.3398 23.7277 14.9478 22.4021 17.6195 21.2103C19.2005 20.4939 20.8077 19.8518 22.435 19.1669C22.7264 19.0384 23.0157 18.8969 23.294 18.7707C23.5722 18.6444 23.8372 18.5204 24.1065 18.4219C26.6783 17.4448 29.2195 16.4465 31.7891 15.5355C33.5507 14.92 35.3231 14.3685 37.1198 13.8788C39.2695 13.3026 41.452 12.8396 43.652 12.4788C46.7236 11.9568 49.7532 11.4288 52.8284 11.2486C55.5375 11.078 58.2526 11.1038 60.9497 11.3436L60.9628 11.3414C62.2728 11.4349 63.5803 11.6736 64.8522 12.0239C65.0967 12.101 65.3193 12.2079 65.544 12.3279C65.4644 12.4204 65.3716 12.5152 65.2787 12.61C63.8133 13.926 62.3746 15.0794 60.5469 15.6272C60.4565 15.6557 60.249 15.7173 60.1008 15.8873C60.0211 15.98 59.9481 16.1109 59.9323 16.2585C59.9165 16.406 59.9515 16.5317 59.9976 16.6425C60.0436 16.7532 60.1184 16.8723 60.2417 16.9567C60.365 17.041 60.5083 17.0827 60.6318 17.088C60.8237 17.0949 61.0157 17.0228 61.0666 17.001L62.2962 16.5417C63.0777 16.2507 63.9562 15.9698 64.7819 15.6186C64.7819 15.6186 64.7819 15.6186 64.7952 15.6164C65.8394 15.1886 66.7741 14.5162 67.4864 13.6574C67.911 13.1901 68.1044 12.5645 67.9999 11.95C67.8955 11.3355 67.5041 10.7961 66.9357 10.4975C66.9357 10.4975 66.9357 10.4975 66.9202 10.4869C66.2903 10.1462 65.5961 9.90857 64.8839 9.80564C62.1962 9.3009 59.4856 9.22147 56.8034 9.22938C56.0689 9.23573 55.3366 9.25487 54.6152 9.25883C53.8829 9.27797 53.1638 9.29485 52.4426 9.29878C52.4293 9.30104 52.4293 9.30104 52.416 9.3033C51.7675 9.33453 51.128 9.25874 50.5108 9.07383C50.2222 8.97807 49.9223 8.89723 49.6666 8.83536C49.3955 8.76296 49.1684 8.70923 48.9746 8.61052C48.3776 8.30371 47.7893 7.96891 47.2345 7.5891C46.9591 7.41194 46.5693 7.12257 46.1838 6.93779C45.307 6.50723 44.3639 6.08792 43.5024 5.66792C43.5024 5.66792 43.5024 5.66792 43.4893 5.67015C43.4011 5.63248 43.3284 5.60534 43.2424 5.58046C43.2424 5.58046 43.2424 5.58046 43.2291 5.58272C42.0565 5.25508 40.8791 5.06007 39.697 4.99751C38.6494 4.92525 37.4565 4.79871 36.2735 5.05241C34.6979 5.39918 33.1111 5.76119 31.5376 6.12076C29.5204 6.59523 27.5514 7.27232 25.6744 8.1709L25.6611 8.17316C24.6188 8.69275 23.6028 9.28704 22.622 9.92783C21.5331 10.574 20.5584 11.4114 19.7687 12.3755C19.7576 12.3905 19.7576 12.3905 19.7466 12.4055C18.9079 13.5623 18.1794 14.8058 17.5808 16.093C17.4678 16.3098 17.3702 16.537 17.2837 16.7494C17.1861 16.9768 17.0974 17.1762 17.0108 17.3885C16.8202 17.7897 16.6209 18.1397 16.3291 18.4264C15.7233 19.03 15.2742 19.5936 14.6886 20.0752C13.9725 20.671 13.1972 21.1584 12.3709 21.7467C12.3576 21.749 12.3598 21.7618 12.3466 21.764C11.9621 22.0665 11.5578 22.3327 11.1514 22.5862C9.2343 23.6496 7.26647 24.7349 5.48107 26.0921C5.19162 26.3126 4.91975 26.5564 4.67217 26.7828C4.42461 27.0093 4.19029 27.2336 3.95159 27.4322C3.59812 27.6767 3.31717 28.0274 3.18167 28.4324C3.0351 28.8524 3.02965 29.3013 3.16764 29.7124C3.28807 30.1004 3.47249 30.4642 3.78278 30.767C4.10631 31.0677 4.52054 31.2607 5.02997 31.2926C5.11379 31.3049 5.1954 31.3042 5.2946 31.3268C5.39163 31.3367 5.50406 31.3571 5.61432 31.3646L5.62757 31.3624C6.90672 31.4348 8.20166 31.3597 9.45942 31.1459C11.5313 30.8333 13.6208 30.544 15.6885 30.1268C19.5989 29.3304 23.4829 28.4595 27.3604 27.6294C27.4927 27.6069 27.6362 27.5693 27.7665 27.534L26.1087 38.4587C25.6516 41.4607 25.1351 44.5122 25.033 47.5986C25.012 48.1159 25.0503 48.6625 25.0492 49.1369C25.0551 49.4126 25.284 49.6371 25.5576 49.6433L25.6545 49.6531C25.9148 49.6616 26.1579 49.4886 26.2092 49.2296C26.2449 49.0391 26.3427 48.7326 26.3808 48.476C26.7929 45.8505 27.1916 43.2275 27.5749 40.5937C28.2427 36.1072 28.9083 31.6077 29.576 27.121C31.3263 26.6787 33.0743 26.2235 34.82 25.7557C35.9656 25.4425 37.0694 25.0441 38.1555 24.6224C39.2418 24.2006 40.286 23.7729 41.3677 23.4047C41.5863 23.3281 41.8093 23.1979 41.9489 22.9767C42.0972 22.7275 42.0934 22.4647 41.9992 22.2304C41.9026 21.9833 41.6935 21.7951 41.4246 21.7353C41.182 21.6712 40.9305 21.7139 40.7252 21.7883C39.8907 22.0883 39.1931 22.3912 38.4117 22.6029C37.4098 22.8787 36.4322 23.058 35.3706 23.3043C33.8236 23.6593 32.2633 24.0168 30.7185 24.3847L29.8798 24.5799C29.9746 23.6944 30.0625 22.8497 30.1638 22.0026C30.6229 21.8191 31.0667 21.6252 31.5192 21.4825C34.2609 20.6214 36.9891 19.7625 39.7349 18.9271C40.1145 18.8362 40.4986 18.7709 40.889 18.7441C40.9263 18.8036 40.9769 18.8608 41.0033 18.9355C41.0055 18.9483 41.0055 18.9483 41.0208 18.9588C41.5283 19.8604 42.0446 20.7342 42.51 21.63C43.5794 23.6742 44.6598 25.7035 45.6654 27.7719C46.9407 30.3871 48.1653 33.0242 49.4297 35.6544C49.8511 36.5312 50.2704 37.3951 50.7162 38.2546C51.1399 39.0651 51.5547 39.9826 52.1042 40.8113C52.1064 40.824 52.1217 40.8346 52.1239 40.8474C52.1261 40.8602 52.1415 40.8707 52.1437 40.8835C52.6889 41.6866 53.2362 42.5024 53.8078 43.301C53.8846 43.4328 53.997 43.5323 54.1224 43.6295C54.2611 43.7246 54.422 43.7894 54.5918 43.8263C54.7614 43.8633 54.9359 43.8468 55.0946 43.8199C55.2646 43.7778 55.417 43.7124 55.5496 43.6109C55.8279 43.4054 55.9962 43.1135 56.006 42.7693C56.0199 42.4508 55.8993 42.142 55.6947 41.9001C55.4682 41.6093 55.2461 41.3441 55.0504 41.0744C53.9644 39.4939 53.0154 37.8375 52.2055 36.1179L52.2034 36.1051C50.4096 32.5242 48.6624 28.8958 46.8291 25.3216C45.8322 23.3835 44.6586 21.5281 43.5932 19.6676C43.5757 19.6443 43.5713 19.6185 43.5318 19.5463C43.5076 19.4845 43.4638 19.3867 43.4045 19.2781C43.31 19.123 43.1846 18.9467 43.11 18.8277C43.1078 18.8149 43.0923 18.8042 43.0901 18.7914C42.8263 18.4412 42.5846 18.0608 42.3803 17.6608C42.3343 17.5501 42.2883 17.4393 42.2443 17.3414C42.1851 17.233 42.0927 17.0906 41.9519 16.9828C41.626 16.7484 41.2441 16.8265 40.9816 16.8843C39.8428 17.1568 38.693 17.4444 37.5672 17.7939C35.106 18.5414 32.6426 19.3552 30.2317 20.3182L30.2254 20.2008C30.2127 19.9658 30.0411 19.7578 29.7875 19.7088L29.6751 19.6884C29.479 19.6559 29.2604 19.7325 29.1386 19.898C29.0611 20.0035 28.997 20.1066 28.935 20.2225C28.9238 20.2375 28.926 20.2503 28.915 20.2653C28.8396 20.4626 28.7795 20.6705 28.7459 20.8737C28.7481 20.8865 28.7391 20.9143 28.7413 20.9271C28.7457 20.9528 28.7369 20.9807 28.7148 21.0108C28.7323 21.0341 28.708 21.0514 28.6969 21.0665Z" fill="#5200FF" />
  <path d="M200.913 34.6324C201.66 34.6324 202.342 34.1844 202.961 33.2884C203.601 32.3711 204.049 31.4538 204.305 30.5364C204.561 29.5978 204.689 28.8511 204.689 28.2964C204.689 28.1471 204.572 28.0724 204.337 28.0724C204.124 28.0724 203.868 28.1898 203.569 28.4244L199.377 31.6564C199.078 31.8271 198.737 31.9124 198.353 31.9124C197.969 31.9124 197.777 31.7738 197.777 31.4964C197.777 31.3044 197.798 31.1764 197.841 31.1124C197.905 31.0484 198.065 30.9418 198.321 30.7924C199.9 29.7044 202.054 27.9338 204.785 25.4804C205.105 25.0538 205.393 24.8404 205.649 24.8404C205.905 24.8404 206.332 24.9258 206.929 25.0964C207.526 25.2458 207.825 25.4271 207.825 25.6404C207.825 26.9204 207.708 28.0831 207.473 29.1284C207.238 30.1738 206.993 30.9738 206.737 31.5284C206.502 32.0618 206.385 32.3498 206.385 32.3924C206.385 32.4351 206.406 32.4564 206.449 32.4564C206.492 32.4564 206.577 32.4244 206.705 32.3604C208.305 31.5498 210.342 30.2271 212.817 28.3924L213.585 27.8164C213.777 27.9658 213.873 28.1471 213.873 28.3604C213.873 28.5738 213.777 28.7658 213.585 28.9364C213.542 28.9364 212.988 29.3844 211.921 30.2804C210.876 31.1764 209.702 32.1578 208.401 33.2244C207.121 34.2698 205.745 35.2298 204.273 36.1044C202.801 36.9791 201.66 37.4164 200.849 37.4164C198.844 37.4164 197.841 36.2111 197.841 33.8004C197.841 33.6084 197.916 33.4378 198.065 33.2884C198.236 33.1178 198.449 33.0324 198.705 33.0324C198.705 33.1391 198.758 33.3098 198.865 33.5444C198.993 33.7578 199.121 33.9391 199.249 34.0884C199.633 34.4511 200.188 34.6324 200.913 34.6324Z" fill="#5200FF" />
  <path d="M194.713 27.3044C194.158 27.3044 193.22 27.8804 191.897 29.0324C190.574 30.1631 189.913 30.8564 189.913 31.1124C189.913 31.1551 189.945 31.1764 190.009 31.1764C190.478 31.1764 191.406 30.6538 192.793 29.6084C194.201 28.5631 194.905 27.8484 194.905 27.4644C194.905 27.3578 194.841 27.3044 194.713 27.3044ZM187.897 37.5444C186.254 37.5444 185.433 36.5418 185.433 34.5364C185.433 33.2778 185.977 31.9444 187.065 30.5364C188.174 29.1071 189.476 27.9444 190.969 27.0484C192.462 26.1311 193.785 25.6724 194.937 25.6724C195.449 25.6724 195.918 25.8751 196.345 26.2804C196.793 26.6858 197.017 27.0804 197.017 27.4644C197.017 28.1684 196.516 28.9684 195.513 29.8644C194.51 30.7391 193.454 31.4538 192.345 32.0084C191.257 32.5418 190.532 32.8084 190.169 32.8084C189.828 32.8084 189.572 32.6484 189.401 32.3284C189.316 32.2644 189.198 32.2324 189.049 32.2324C188.9 32.2324 188.654 32.5204 188.313 33.0964C187.972 33.6511 187.801 34.1098 187.801 34.4724C187.801 34.8138 187.929 35.0271 188.185 35.1124C189.806 35.1124 191.566 34.6431 193.465 33.7044C195.364 32.7444 197.988 31.0698 201.337 28.6804C201.572 28.5098 201.924 28.2538 202.393 27.9124C202.884 27.5711 203.172 27.3684 203.257 27.3044C203.449 27.4538 203.545 27.6351 203.545 27.8484C203.545 28.0618 203.449 28.2538 203.257 28.4244C202.19 29.4911 200.804 30.6858 199.097 32.0084C197.412 33.3311 195.47 34.5898 193.273 35.7844C191.076 36.9578 189.284 37.5444 187.897 37.5444Z" fill="#5200FF" />
  <path d="M178.439 34.9844C178.439 35.1764 178.556 35.2724 178.791 35.2724C179.047 35.2724 179.495 35.1231 180.135 34.8244C180.796 34.5258 181.575 34.0671 182.471 33.4484C183.388 32.8298 184.593 31.9551 186.087 30.8244C187.601 29.6724 188.924 28.7018 190.055 27.9124C190.247 28.0618 190.343 28.2431 190.343 28.4564C190.343 28.6698 190.247 28.8618 190.055 29.0324C189.372 29.6938 188.508 30.5258 187.463 31.5284C186.417 32.5098 184.817 33.8324 182.663 35.4964C180.529 37.1604 179.036 37.9924 178.183 37.9924C176.54 37.9924 175.719 37.1178 175.719 35.3684C175.719 34.7071 175.975 34.0138 176.487 33.2884L177.863 31.4004C177.991 31.2084 178.055 31.1018 178.055 31.0804C178.055 31.0378 177.991 31.0698 177.863 31.1764C174.151 34.2698 171.783 36.0831 170.759 36.6164C170.588 36.7231 170.375 36.7764 170.119 36.7764C169.415 36.7764 169.063 36.4564 169.063 35.8164C169.063 35.6031 169.116 35.4111 169.223 35.2404C170.46 33.4484 171.409 32.2431 172.071 31.6244L172.615 31.0804C172.657 31.0378 172.679 30.9951 172.679 30.9524C172.679 30.9098 172.657 30.8884 172.615 30.8884C172.572 30.8884 172.508 30.9311 172.423 31.0164L168.999 33.7044C167.015 35.2618 165.927 36.0938 165.735 36.2004C165.564 36.2858 165.404 36.3284 165.255 36.3284C165.105 36.3284 164.871 36.2431 164.551 36.0724C164.231 35.8804 164.071 35.6671 164.071 35.4324C164.071 35.3684 164.103 35.2831 164.167 35.1764C166.257 32.8724 167.783 30.9738 168.743 29.4804C169.148 28.8404 169.5 28.2751 169.799 27.7844C170.119 27.2724 170.364 26.9098 170.535 26.6964C170.727 26.4831 170.929 26.3764 171.143 26.3764C171.356 26.3764 171.591 26.5044 171.847 26.7604C172.124 26.9951 172.263 27.2404 172.263 27.4964C172.263 27.7524 172.177 28.0191 172.007 28.2964C171.281 29.5978 170.716 30.4404 170.311 30.8244C170.247 30.8884 170.215 30.9524 170.215 31.0164C170.215 31.0591 170.236 31.0804 170.279 31.0804L170.375 31.0484L174.663 28.0724C175.751 27.3258 176.401 26.9524 176.615 26.9524C176.828 26.9524 177.052 27.0271 177.287 27.1764C177.543 27.3044 177.671 27.4538 177.671 27.6244C177.671 27.7951 177.617 27.9658 177.511 28.1364L175.431 30.9844C175.153 31.3258 175.015 31.5178 175.015 31.5604C175.015 31.6031 175.025 31.6244 175.047 31.6244L175.207 31.5284C177.873 29.7151 179.676 28.4564 180.615 27.7524C181.575 27.0484 182.151 26.6004 182.343 26.4084C182.641 26.1951 182.887 26.0884 183.079 26.0884C183.292 26.0884 183.431 26.1098 183.495 26.1524L184.199 26.6964C184.412 26.8031 184.519 26.9418 184.519 27.1124C184.519 27.2831 184.476 27.4218 184.391 27.5284C183.132 28.8938 182.119 29.9818 181.351 30.7924C180.604 31.6031 180.06 32.2004 179.719 32.5844C179.164 33.2458 178.823 33.7791 178.695 34.1844C178.524 34.4831 178.439 34.7498 178.439 34.9844Z" fill="#5200FF" />
  <path d="M155.555 35.5604C156.237 35.5604 157.08 35.1124 158.083 34.2164C159.085 33.3204 159.608 32.7018 159.651 32.3604C159.395 32.1471 159.117 31.7631 158.819 31.2084C158.541 30.6324 158.392 30.3444 158.371 30.3444C157.709 30.9631 157.123 31.6778 156.611 32.4884C155.8 33.8538 155.395 34.7924 155.395 35.3044C155.395 35.4751 155.448 35.5604 155.555 35.5604ZM162.467 27.7204C162.253 27.7204 161.805 28.0511 161.123 28.7124C160.461 29.3738 160.131 29.8324 160.131 30.0884C160.131 30.1524 160.195 30.2804 160.323 30.4724C160.451 30.6644 160.547 30.7604 160.611 30.7604C160.973 30.7604 161.379 30.3231 161.827 29.4484C162.296 28.5738 162.531 28.0724 162.531 27.9444C162.531 27.7951 162.509 27.7204 162.467 27.7204ZM162.531 31.8484C163.128 31.8484 164.056 31.4858 165.315 30.7604C166.595 30.0351 167.715 29.3098 168.675 28.5844L170.115 27.4644C170.307 27.6138 170.403 27.7951 170.403 28.0084C170.403 28.2218 170.307 28.4138 170.115 28.5844C166.595 31.8484 163.928 33.4804 162.115 33.4804C161.987 33.4804 161.795 33.4591 161.539 33.4164C159.128 36.2111 157.059 37.6084 155.331 37.6084C154.179 37.4378 153.453 37.0324 153.155 36.3924C152.984 36.0724 152.899 35.6671 152.899 35.1764C152.899 33.7684 153.709 32.0938 155.331 30.1524C156.952 28.1898 158.989 26.7498 161.443 25.8324C161.656 25.8324 161.816 25.8858 161.923 25.9924C162.029 26.0778 162.125 26.1311 162.211 26.1524C162.296 26.1524 162.403 26.1098 162.531 26.0244C162.68 25.9178 162.872 25.8644 163.107 25.8644C163.341 25.8431 163.587 25.9711 163.843 26.2484C164.184 26.5258 164.355 26.8671 164.355 27.2724C164.355 28.4671 163.747 29.9924 162.531 31.8484Z" fill="#5200FF" />
  <path d="M137.419 32.4244C137.44 30.4404 138.133 28.4031 139.499 26.3124C140.885 24.2004 142.603 22.3551 144.651 20.7764C146.699 19.1764 148.971 17.8751 151.467 16.8724C153.963 15.8484 156.309 15.3364 158.507 15.3364C159.765 15.3364 160.928 15.6031 161.995 16.1364C163.083 16.6484 163.627 17.4378 163.627 18.5044C163.627 19.5498 163.019 20.6911 161.803 21.9284C160.608 23.1444 159.168 24.1898 157.483 25.0644C155.819 25.9178 154.357 26.3444 153.099 26.3444C152.523 26.3444 151.925 26.1844 151.307 25.8644C150.688 25.5444 150.379 25.0964 150.379 24.5204C150.379 24.2004 150.635 23.9231 151.147 23.6884C152.96 22.9631 154.325 22.2591 155.243 21.5764C155.435 21.3631 155.573 21.2564 155.659 21.2564C155.765 21.2564 155.819 21.3418 155.819 21.5124C155.819 21.8111 155.456 22.1631 154.731 22.5684C154.219 22.9524 153.963 23.1658 153.963 23.2084C153.963 23.2511 153.973 23.2724 153.995 23.2724C154.421 23.2724 155.723 22.4511 157.899 20.8084C160.075 19.1658 161.163 18.1098 161.163 17.6404C161.163 17.3418 160.875 17.1924 160.299 17.1924C158.251 17.1924 156.171 17.6831 154.059 18.6644C151.947 19.6244 150.069 20.8404 148.427 22.3124C146.805 23.7631 145.333 25.3098 144.011 26.9524C142.688 28.5738 141.675 30.0884 140.971 31.4964C140.267 32.8831 139.915 33.9604 139.915 34.7284C139.915 35.1978 140.139 35.4324 140.587 35.4324C140.971 35.4324 141.739 35.2618 142.891 34.9204C144.043 34.5791 145.707 33.8964 147.883 32.8724C150.08 31.8484 152.192 30.6218 154.219 29.1924C154.368 29.0644 154.464 29.0004 154.507 29.0004C154.571 29.0004 154.603 29.0431 154.603 29.1284C154.603 29.2138 154.411 29.5764 154.027 30.2164C153.664 30.8564 153.099 31.6351 152.331 32.5524C151.584 33.4698 150.731 34.3658 149.771 35.2404C148.811 36.0938 147.648 36.8298 146.283 37.4484C144.939 38.0671 143.691 38.3764 142.539 38.3764C141.408 38.3764 140.512 38.1738 139.851 37.7684C139.211 37.3631 138.741 36.8618 138.443 36.2644C137.824 35.0698 137.493 33.9924 137.451 33.0324L137.419 32.4244Z" fill="#5200FF" />
  <path d="M126.711 35.5604C127.393 35.5604 128.236 35.1124 129.239 34.2164C130.241 33.3204 130.764 32.7018 130.807 32.3604C130.551 32.1471 130.273 31.7631 129.975 31.2084C129.697 30.6324 129.548 30.3444 129.527 30.3444C128.865 30.9631 128.279 31.6778 127.767 32.4884C126.956 33.8538 126.551 34.7924 126.551 35.3044C126.551 35.4751 126.604 35.5604 126.711 35.5604ZM133.623 27.7204C133.409 27.7204 132.961 28.0511 132.279 28.7124C131.617 29.3738 131.287 29.8324 131.287 30.0884C131.287 30.1524 131.351 30.2804 131.479 30.4724C131.607 30.6644 131.703 30.7604 131.767 30.7604C132.129 30.7604 132.535 30.3231 132.983 29.4484C133.452 28.5738 133.687 28.0724 133.687 27.9444C133.687 27.7951 133.665 27.7204 133.623 27.7204ZM133.687 31.8484C134.284 31.8484 135.212 31.4858 136.471 30.7604C137.751 30.0351 138.871 29.3098 139.831 28.5844L141.271 27.4644C141.463 27.6138 141.559 27.7951 141.559 28.0084C141.559 28.2218 141.463 28.4138 141.271 28.5844C137.751 31.8484 135.084 33.4804 133.271 33.4804C133.143 33.4804 132.951 33.4591 132.695 33.4164C130.284 36.2111 128.215 37.6084 126.487 37.6084C125.335 37.4378 124.609 37.0324 124.311 36.3924C124.14 36.0724 124.055 35.6671 124.055 35.1764C124.055 33.7684 124.865 32.0938 126.487 30.1524C128.108 28.1898 130.145 26.7498 132.599 25.8324C132.812 25.8324 132.972 25.8858 133.079 25.9924C133.185 26.0778 133.281 26.1311 133.367 26.1524C133.452 26.1524 133.559 26.1098 133.687 26.0244C133.836 25.9178 134.028 25.8644 134.263 25.8644C134.497 25.8431 134.743 25.9711 134.999 26.2484C135.34 26.5258 135.511 26.8671 135.511 27.2724C135.511 28.4671 134.903 29.9924 133.687 31.8484Z" fill="#5200FF" />
  <path d="M129.544 22.1844L131.176 22.1524C133.288 22.1524 134.824 22.4511 135.784 23.0484C136.253 23.1978 136.488 23.3898 136.488 23.6244C136.488 23.7951 136.274 23.9124 135.848 23.9764C135.442 24.0404 134.002 24.2111 131.528 24.4884C129.074 24.7444 127.389 24.8938 126.472 24.9364C126.066 24.9578 125.128 25.6618 123.656 27.0484C122.205 28.4351 120.818 29.9604 119.496 31.6244C118.173 33.2884 117.512 34.4511 117.512 35.1124C117.512 35.2191 117.565 35.3151 117.672 35.4004C117.778 35.4644 117.906 35.4964 118.056 35.4964C118.226 35.4964 118.482 35.4324 118.824 35.3044C122.877 32.9151 126.813 30.3018 130.632 27.4644C130.824 27.6138 130.92 27.7951 130.92 28.0084C130.92 28.2218 130.813 28.4351 130.6 28.6484C130.386 28.8404 130.066 29.1284 129.64 29.5124C129.234 29.8964 128.466 30.5898 127.336 31.5924C126.205 32.5951 125.138 33.4911 124.136 34.2804C121.448 36.4564 119.57 37.7151 118.504 38.0564C118.12 38.1631 117.661 38.2164 117.128 38.2164C116.616 38.2164 116.136 37.9498 115.688 37.4164C115.261 36.8831 115.048 36.1578 115.048 35.2404C115.048 34.3231 115.634 33.0004 116.808 31.2724C118.002 29.5444 119.624 27.7738 121.672 25.9604C121.864 25.8111 121.96 25.6724 121.96 25.5444C121.96 25.4164 121.736 25.3524 121.288 25.3524L119.272 25.4164C116.434 25.4164 114.973 25.0964 114.888 24.4564C114.226 24.3284 113.896 24.1364 113.896 23.8804C113.896 23.7951 113.938 23.7524 114.024 23.7524C114.109 23.7311 114.184 23.7204 114.248 23.7204C114.312 23.6991 114.418 23.6778 114.568 23.6564C114.717 23.6351 115.89 23.4644 118.088 23.1444C120.306 22.8244 122.824 22.5578 125.64 22.3444L127.848 19.4004C127.976 19.1444 128.424 19.0164 129.192 19.0164C129.96 19.0164 130.344 19.1764 130.344 19.4964C130.344 19.6031 130.258 19.7951 130.088 20.0724L129.288 21.1924C129.181 21.5338 129.117 21.7898 129.096 21.9604C129.096 22.1098 129.245 22.1844 129.544 22.1844Z" fill="#5200FF" />
  <path d="M104.374 36.0084C105.078 36.0084 106.145 35.6031 107.574 34.7924C109.025 33.9604 110.315 33.0644 111.446 32.1044C112.598 31.1444 113.174 30.4724 113.174 30.0884C113.174 30.0244 113.142 29.9924 113.078 29.9924C112.609 29.9924 111.617 30.4724 110.102 31.4324C108.609 32.3711 107.222 33.3311 105.942 34.3124C104.662 35.2724 104.022 35.7951 104.022 35.8804C104.022 35.9658 104.139 36.0084 104.374 36.0084ZM112.502 22.5044C112.737 22.5044 112.993 22.6858 113.27 23.0484C113.547 23.3898 113.686 23.6458 113.686 23.8164C113.686 23.9871 113.654 24.1044 113.59 24.1684C112.118 25.4484 110.689 26.7924 109.302 28.2004C107.915 29.6084 106.891 30.6964 106.23 31.4644L105.27 32.6164C105.099 32.7871 105.014 32.9044 105.014 32.9684C105.014 33.0324 105.035 33.0644 105.078 33.0644C105.121 33.0644 105.174 33.0324 105.238 32.9684L105.526 32.7444C109.025 29.6298 111.745 28.0724 113.686 28.0724C113.942 28.0724 114.177 28.1471 114.39 28.2964C115.115 28.8938 115.478 29.5764 115.478 30.3444C115.478 31.0911 114.934 32.0511 113.846 33.2244C112.779 34.3978 111.457 35.4324 109.878 36.3284C108.299 37.2031 106.977 37.6404 105.91 37.6404C104.865 37.6404 104.171 37.3631 103.83 36.8084L103.478 36.2964C103.457 36.2751 103.425 36.2644 103.382 36.2644C102.913 36.2644 101.366 37.7578 98.742 40.7444C96.0967 43.7311 94.4007 45.8964 93.654 47.2404C93.5687 47.6244 93.398 47.8164 93.142 47.8164C93.014 47.8164 92.8967 47.7738 92.79 47.6884L91.35 46.5684C91.2647 46.5258 91.222 46.4298 91.222 46.2804C91.222 46.0244 92.8434 43.9231 96.086 39.9764C99.3074 36.0511 102.689 32.1578 106.23 28.2964C109.771 24.4351 111.862 22.5044 112.502 22.5044Z" fill="#5200FF" />
  <path d="M102.515 26.6324C103.517 26.7391 104.019 26.9631 104.019 27.3044C104.019 27.4538 103.933 27.6244 103.763 27.8164C100.755 31.1658 97.2988 35.4324 93.3948 40.6164C92.2641 42.1524 91.1121 43.6031 89.9388 44.9684C88.7655 46.3338 87.6668 47.3258 86.6428 47.9444C85.6188 48.5844 84.5521 48.9044 83.4428 48.9044C82.8881 48.9044 82.3975 48.7551 81.9708 48.4564C81.5441 48.1578 81.3308 47.7524 81.3308 47.2404C81.3308 46.0458 81.9068 44.8084 83.0588 43.5284C84.2108 42.2484 85.5015 41.2031 86.9308 40.3924C88.3601 39.6031 89.5975 39.1444 90.6428 39.0164L91.3148 39.1124C91.5281 39.0911 92.3068 38.2698 93.6508 36.6484C95.0161 35.0271 95.6988 34.1738 95.6988 34.0884C95.7201 33.9818 95.7095 33.9284 95.6668 33.9284L95.0588 34.4084C93.4588 35.9018 92.2108 36.6484 91.3148 36.6484C90.7388 36.6484 90.4508 36.2431 90.4508 35.4324C90.4508 34.3444 91.3361 32.6271 93.1068 30.2804C94.8775 27.9338 96.1788 26.7604 97.0108 26.7604C97.0748 26.7604 97.1495 26.7818 97.2348 26.8244C97.8321 26.9738 98.1308 27.1871 98.1308 27.4644C98.1308 27.5711 98.0988 27.6564 98.0348 27.7204C97.9921 27.7631 97.7788 27.9658 97.3948 28.3284C97.0321 28.6911 96.6695 29.0751 96.3068 29.4804C95.9441 29.8644 95.5601 30.2911 95.1548 30.7604C94.2375 31.8271 93.7788 32.6271 93.7788 33.1604C93.7788 33.2884 93.8428 33.3524 93.9708 33.3524C94.1201 33.3524 94.3868 33.2351 94.7708 33.0004C97.8001 30.9311 100.168 28.9578 101.875 27.0804C102.024 26.7818 102.237 26.6324 102.515 26.6324ZM82.9948 47.4964C83.7415 47.2618 84.7441 46.5258 86.0028 45.2884C87.2615 44.0724 88.3388 42.9204 89.2348 41.8324L90.5788 40.1684C90.7068 39.9978 90.7708 39.8911 90.7708 39.8484C90.7708 39.8058 90.7388 39.7844 90.6748 39.7844C89.9921 39.7844 89.0215 40.3071 87.7628 41.3524C86.4828 42.3978 85.3521 43.5391 84.3708 44.7764C83.3681 46.0138 82.8668 46.8884 82.8668 47.4004C82.8668 47.4644 82.9095 47.4964 82.9948 47.4964Z" fill="#5200FF" />
  <path d="M78.2896 30.9844C79.4629 30.1738 80.6896 29.2991 81.9696 28.3604C81.2869 27.8911 80.8496 27.4324 80.6576 26.9844C80.5936 26.8351 80.5616 26.7284 80.5616 26.6644C80.5616 26.2378 80.7003 25.9604 80.9776 25.8324C81.2549 25.6831 81.7029 25.6084 82.3216 25.6084C82.5563 25.6084 83.2496 25.8964 84.4016 26.4724C85.5536 27.0484 86.2789 27.3364 86.5776 27.3364C86.8976 27.3364 87.3349 27.2511 87.8896 27.0804C88.4443 26.8884 88.8816 26.7924 89.2016 26.7924C89.5429 26.7924 89.7883 26.8671 89.9376 27.0164C90.4709 27.7204 90.7376 28.1471 90.7376 28.2964C90.7376 28.4458 90.6629 28.5738 90.5136 28.6804C90.3856 28.7658 89.9483 29.0644 89.2016 29.5764C88.4763 30.0884 87.7616 30.6111 87.0576 31.1444C86.3536 31.6778 85.6923 32.2751 85.0736 32.9364C84.4549 33.5978 84.1456 34.1311 84.1456 34.5364C84.1456 34.6004 84.1989 34.6324 84.3056 34.6324C85.4576 34.6324 89.3403 32.2964 95.9536 27.6244C96.1029 27.6244 96.1776 27.7631 96.1776 28.0404C96.1776 28.2964 95.3349 29.2138 93.6496 30.7924C91.9643 32.3498 90.0549 33.8858 87.9216 35.4004C85.8096 36.8938 84.2736 37.6404 83.3136 37.6404C81.8203 37.6404 81.0736 36.8938 81.0736 35.4004C81.0736 34.5898 81.3403 33.8111 81.8736 33.0644C82.4283 32.2964 83.5803 31.2724 85.3296 29.9924C84.9669 29.9924 84.4763 29.9071 83.8576 29.7364C83.2389 29.5444 82.8443 29.3204 82.6736 29.0644C82.1189 29.5551 81.1589 30.3764 79.7936 31.5284C79.4736 31.7631 79.0576 31.8804 78.5456 31.8804C78.0336 31.8804 77.7776 31.8058 77.7776 31.6564C77.7776 31.4858 77.9483 31.2618 78.2896 30.9844Z" fill="#5200FF" />
  <path d="M60.7938 32.4244C60.8152 30.4404 61.5085 28.4031 62.8738 26.3124C64.2605 24.2004 65.9778 22.3551 68.0258 20.7764C70.0738 19.1764 72.3458 17.8751 74.8418 16.8724C77.3378 15.8484 79.6845 15.3364 81.8818 15.3364C83.1405 15.3364 84.3032 15.6031 85.3698 16.1364C86.4578 16.6484 87.0018 17.4378 87.0018 18.5044C87.0018 19.5498 86.3938 20.6911 85.1778 21.9284C83.9832 23.1444 82.5432 24.1898 80.8578 25.0644C79.1938 25.9178 77.7325 26.3444 76.4738 26.3444C75.8978 26.3444 75.3005 26.1844 74.6818 25.8644C74.0632 25.5444 73.7538 25.0964 73.7538 24.5204C73.7538 24.2004 74.0098 23.9231 74.5218 23.6884C76.3352 22.9631 77.7005 22.2591 78.6178 21.5764C78.8098 21.3631 78.9485 21.2564 79.0338 21.2564C79.1405 21.2564 79.1938 21.3418 79.1938 21.5124C79.1938 21.8111 78.8312 22.1631 78.1058 22.5684C77.5938 22.9524 77.3378 23.1658 77.3378 23.2084C77.3378 23.2511 77.3485 23.2724 77.3698 23.2724C77.7965 23.2724 79.0978 22.4511 81.2738 20.8084C83.4498 19.1658 84.5378 18.1098 84.5378 17.6404C84.5378 17.3418 84.2498 17.1924 83.6738 17.1924C81.6258 17.1924 79.5458 17.6831 77.4338 18.6644C75.3218 19.6244 73.4445 20.8404 71.8018 22.3124C70.1805 23.7631 68.7085 25.3098 67.3858 26.9524C66.0632 28.5738 65.0498 30.0884 64.3458 31.4964C63.6418 32.8831 63.2898 33.9604 63.2898 34.7284C63.2898 35.1978 63.5138 35.4324 63.9618 35.4324C64.3458 35.4324 65.1138 35.2618 66.2658 34.9204C67.4178 34.5791 69.0818 33.8964 71.2578 32.8724C73.4552 31.8484 75.5672 30.6218 77.5938 29.1924C77.7432 29.0644 77.8392 29.0004 77.8818 29.0004C77.9458 29.0004 77.9778 29.0431 77.9778 29.1284C77.9778 29.2138 77.7858 29.5764 77.4018 30.2164C77.0392 30.8564 76.4738 31.6351 75.7058 32.5524C74.9592 33.4698 74.1058 34.3658 73.1458 35.2404C72.1858 36.0938 71.0232 36.8298 69.6578 37.4484C68.3138 38.0671 67.0658 38.3764 65.9138 38.3764C64.7832 38.3764 63.8872 38.1738 63.2258 37.7684C62.5858 37.3631 62.1165 36.8618 61.8178 36.2644C61.1992 35.0698 60.8685 33.9924 60.8258 33.0324L60.7938 32.4244Z" fill="#5200FF" />
</svg>