<svg width="728" height="90" viewBox="0 0 728 90" fill="none" xmlns="http://www.w3.org/2000/svg">
<rect width="728" height="90" fill="black"/>
<path d="M333.397 39L336.341 27.8H340.021L342.965 39H340.789L340.181 36.536H336.181L335.573 39H333.397ZM336.677 34.584H339.685L338.325 29.128H338.037L336.677 34.584ZM343.986 39V37.144H345.458V29.656H343.986V27.8H348.594C350.098 27.8 351.239 28.184 352.018 28.952C352.807 29.7093 353.202 30.84 353.202 32.344V34.456C353.202 35.96 352.807 37.096 352.018 37.864C351.239 38.6213 350.098 39 348.594 39H343.986ZM347.57 37.08H348.626C349.479 37.08 350.103 36.856 350.498 36.408C350.893 35.96 351.09 35.3307 351.09 34.52V32.28C351.09 31.4587 350.893 30.8293 350.498 30.392C350.103 29.944 349.479 29.72 348.626 29.72H347.57V37.08ZM359.025 39V27.8H366.065V29.72H361.137V32.424H365.681V34.344H361.137V39H359.025ZM367.572 39V27.8H374.772V29.72H369.684V32.392H374.324V34.312H369.684V37.08H374.868V39H367.572ZM376.431 39V27.8H383.631V29.72H378.543V32.392H383.183V34.312H378.543V37.08H383.727V39H376.431ZM384.97 39V37.144H386.442V29.656H384.97V27.8H389.578C391.082 27.8 392.224 28.184 393.002 28.952C393.792 29.7093 394.186 30.84 394.186 32.344V34.456C394.186 35.96 393.792 37.096 393.002 37.864C392.224 38.6213 391.082 39 389.578 39H384.97ZM388.554 37.08H389.61C390.464 37.08 391.088 36.856 391.482 36.408C391.877 35.96 392.074 35.3307 392.074 34.52V32.28C392.074 31.4587 391.877 30.8293 391.482 30.392C391.088 29.944 390.464 29.72 389.61 29.72H388.554V37.08ZM291.284 63V62.584C291.284 62.168 291.316 61.816 291.38 61.528C291.444 61.2293 291.582 60.8933 291.796 60.52L295.556 53.88V53.624H289.604V51.8H297.668V54.232L293.7 61.32C293.561 61.5653 293.465 61.784 293.411 61.976C293.358 62.168 293.332 62.4027 293.332 62.68V63H291.284ZM298.656 63V61.656C298.656 60.8773 298.784 60.232 299.04 59.72C299.296 59.1973 299.664 58.7707 300.144 58.44C300.635 58.0987 301.232 57.8213 301.936 57.608L303.008 57.272C303.403 57.144 303.734 56.9893 304 56.808C304.267 56.616 304.47 56.3867 304.608 56.12C304.758 55.8533 304.832 55.5493 304.832 55.208V55.144C304.832 54.6107 304.651 54.1893 304.288 53.88C303.926 53.56 303.43 53.4 302.8 53.4C302.182 53.4 301.68 53.5707 301.296 53.912C300.923 54.2427 300.736 54.7227 300.736 55.352V55.64H298.688V55.384C298.688 54.5733 298.87 53.8853 299.232 53.32C299.595 52.7547 300.086 52.3227 300.704 52.024C301.334 51.7253 302.032 51.576 302.8 51.576C303.568 51.576 304.262 51.7253 304.88 52.024C305.499 52.312 305.984 52.7227 306.336 53.256C306.699 53.7787 306.88 54.3973 306.88 55.112V55.272C306.88 55.9867 306.731 56.5947 306.432 57.096C306.144 57.5867 305.75 57.992 305.248 58.312C304.747 58.6213 304.176 58.8773 303.536 59.08L302.512 59.4C302.054 59.5387 301.696 59.6933 301.44 59.864C301.184 60.024 301.003 60.2053 300.896 60.408C300.8 60.6 300.752 60.8347 300.752 61.112V61.176H306.784V63H298.656ZM312.284 63.224C311.431 63.224 310.674 63.096 310.012 62.84C309.362 62.584 308.85 62.216 308.476 61.736C308.114 61.2453 307.932 60.6693 307.932 60.008V59.816C307.932 59.304 308.023 58.8827 308.204 58.552C308.386 58.2107 308.61 57.944 308.876 57.752C309.154 57.56 309.415 57.4267 309.66 57.352V57.064C309.415 56.9787 309.17 56.84 308.924 56.648C308.679 56.456 308.476 56.2 308.316 55.88C308.167 55.56 308.092 55.176 308.092 54.728V54.536C308.092 53.9493 308.263 53.4373 308.604 53C308.956 52.552 309.447 52.2053 310.076 51.96C310.706 51.704 311.442 51.576 312.284 51.576C313.127 51.576 313.863 51.704 314.492 51.96C315.122 52.2053 315.607 52.552 315.948 53C316.3 53.4373 316.476 53.9493 316.476 54.536V54.728C316.476 55.176 316.396 55.56 316.236 55.88C316.087 56.2 315.89 56.456 315.644 56.648C315.41 56.84 315.164 56.9787 314.908 57.064V57.352C315.164 57.4267 315.426 57.56 315.692 57.752C315.959 57.944 316.183 58.2107 316.364 58.552C316.546 58.8827 316.636 59.304 316.636 59.816V60.008C316.636 60.6693 316.45 61.2453 316.076 61.736C315.714 62.216 315.202 62.584 314.54 62.84C313.89 63.096 313.138 63.224 312.284 63.224ZM312.284 61.4C313.02 61.4 313.586 61.2613 313.98 60.984C314.386 60.696 314.588 60.3173 314.588 59.848V59.72C314.588 59.2507 314.391 58.8773 313.996 58.6C313.612 58.312 313.042 58.168 312.284 58.168C311.538 58.168 310.967 58.312 310.572 58.6C310.178 58.8773 309.98 59.2507 309.98 59.72V59.848C309.98 60.3173 310.178 60.696 310.572 60.984C310.978 61.2613 311.548 61.4 312.284 61.4ZM312.284 56.344C312.967 56.344 313.495 56.2213 313.868 55.976C314.242 55.7307 314.428 55.384 314.428 54.936V54.808C314.428 54.36 314.236 54.0133 313.852 53.768C313.468 53.5227 312.946 53.4 312.284 53.4C311.623 53.4 311.1 53.5227 310.716 53.768C310.332 54.0133 310.14 54.36 310.14 54.808V54.936C310.14 55.384 310.327 55.7307 310.7 55.976C311.074 56.2213 311.602 56.344 312.284 56.344ZM317.43 63L320.71 57.352L317.462 51.8H319.862L322.086 55.848H322.374L324.598 51.8H326.998L323.75 57.352L327.03 63H324.63L322.374 58.856H322.086L319.83 63H317.43ZM332.175 63.224C331.343 63.224 330.618 63.0853 329.999 62.808C329.391 62.5307 328.916 62.1307 328.575 61.608C328.244 61.0853 328.079 60.4613 328.079 59.736H330.159C330.159 60.184 330.314 60.5733 330.623 60.904C330.943 61.2347 331.46 61.4 332.175 61.4C332.9 61.4 333.455 61.2133 333.839 60.84C334.223 60.456 334.415 59.9387 334.415 59.288V58.136H334.127C333.946 58.3493 333.668 58.552 333.295 58.744C332.932 58.936 332.388 59.032 331.663 59.032C331.023 59.032 330.426 58.8933 329.871 58.616C329.316 58.3387 328.868 57.9387 328.527 57.416C328.186 56.8827 328.015 56.2427 328.015 55.496V55.304C328.015 54.5573 328.191 53.9067 328.543 53.352C328.895 52.7973 329.391 52.3653 330.031 52.056C330.671 51.736 331.418 51.576 332.271 51.576C333.124 51.576 333.866 51.736 334.495 52.056C335.124 52.376 335.61 52.8187 335.951 53.384C336.292 53.9493 336.463 54.6 336.463 55.336V59.16C336.463 60.0667 336.276 60.824 335.903 61.432C335.54 62.0293 335.034 62.4773 334.383 62.776C333.743 63.0747 333.007 63.224 332.175 63.224ZM332.239 57.4C332.687 57.4 333.071 57.32 333.391 57.16C333.722 57 333.972 56.776 334.143 56.488C334.324 56.2 334.415 55.8587 334.415 55.464V55.336C334.415 54.7387 334.218 54.2693 333.823 53.928C333.439 53.576 332.911 53.4 332.239 53.4C331.567 53.4 331.034 53.576 330.639 53.928C330.255 54.2693 330.063 54.7387 330.063 55.336V55.464C330.063 55.8587 330.148 56.2 330.319 56.488C330.5 56.776 330.756 57 331.087 57.16C331.418 57.32 331.802 57.4 332.239 57.4ZM342.45 63.224C341.127 63.224 340.066 62.8613 339.266 62.136C338.466 61.4 338.066 60.2907 338.066 58.808V55.992C338.066 54.552 338.466 53.4587 339.266 52.712C340.066 51.9547 341.127 51.576 342.45 51.576C343.783 51.576 344.844 51.9547 345.634 52.712C346.434 53.4587 346.834 54.552 346.834 55.992V58.808C346.834 60.2907 346.434 61.4 345.634 62.136C344.844 62.8613 343.783 63.224 342.45 63.224ZM342.45 61.4C343.25 61.4 343.836 61.1813 344.21 60.744C344.594 60.3067 344.786 59.6827 344.786 58.872V55.896C344.786 55.0747 344.572 54.456 344.146 54.04C343.73 53.6133 343.164 53.4 342.45 53.4C341.714 53.4 341.138 53.6187 340.722 54.056C340.316 54.4933 340.114 55.1067 340.114 55.896V58.872C340.114 59.7147 340.306 60.3493 340.69 60.776C341.084 61.192 341.671 61.4 342.45 61.4ZM360.151 63.224L358.871 61.944L360.439 60.376L361.095 59.976L360.999 59.704L360.231 59.832H352.503V58.008H360.231L360.999 58.136L361.095 57.864L360.439 57.464L358.871 55.896L360.151 54.616L363.799 58.264V59.576L360.151 63.224ZM373.427 63.224C372.584 63.224 371.837 63.0747 371.187 62.776C370.536 62.4773 370.024 62.0507 369.651 61.496C369.288 60.9307 369.107 60.264 369.107 59.496V59.208H371.155V59.432C371.155 60.0293 371.363 60.5093 371.779 60.872C372.195 61.224 372.744 61.4 373.427 61.4C374.12 61.4 374.653 61.2347 375.027 60.904C375.411 60.5733 375.603 60.1573 375.603 59.656V59.496C375.603 59.1547 375.517 58.8773 375.347 58.664C375.176 58.4507 374.947 58.296 374.659 58.2C374.371 58.0933 374.045 58.04 373.683 58.04H371.443V55.8L375.059 53.88V53.624H369.395V51.8H377.331V54.52L373.955 56.312V56.568H374.547C375.048 56.568 375.533 56.6693 376.003 56.872C376.483 57.0747 376.877 57.3893 377.187 57.816C377.496 58.232 377.651 58.776 377.651 59.448V59.64C377.651 60.3653 377.475 61 377.123 61.544C376.771 62.0773 376.275 62.4933 375.635 62.792C375.005 63.08 374.269 63.224 373.427 63.224ZM383.481 63.224C382.158 63.224 381.097 62.8613 380.297 62.136C379.497 61.4 379.097 60.2907 379.097 58.808V55.992C379.097 54.552 379.497 53.4587 380.297 52.712C381.097 51.9547 382.158 51.576 383.481 51.576C384.814 51.576 385.876 51.9547 386.665 52.712C387.465 53.4587 387.865 54.552 387.865 55.992V58.808C387.865 60.2907 387.465 61.4 386.665 62.136C385.876 62.8613 384.814 63.224 383.481 63.224ZM383.481 61.4C384.281 61.4 384.868 61.1813 385.241 60.744C385.625 60.3067 385.817 59.6827 385.817 58.872V55.896C385.817 55.0747 385.604 54.456 385.177 54.04C384.761 53.6133 384.196 53.4 383.481 53.4C382.745 53.4 382.169 53.6187 381.753 54.056C381.348 54.4933 381.145 55.1067 381.145 55.896V58.872C381.145 59.7147 381.337 60.3493 381.721 60.776C382.116 61.192 382.702 61.4 383.481 61.4ZM393.856 63.224C392.533 63.224 391.472 62.8613 390.672 62.136C389.872 61.4 389.472 60.2907 389.472 58.808V55.992C389.472 54.552 389.872 53.4587 390.672 52.712C391.472 51.9547 392.533 51.576 393.856 51.576C395.189 51.576 396.251 51.9547 397.04 52.712C397.84 53.4587 398.24 54.552 398.24 55.992V58.808C398.24 60.2907 397.84 61.4 397.04 62.136C396.251 62.8613 395.189 63.224 393.856 63.224ZM393.856 61.4C394.656 61.4 395.243 61.1813 395.616 60.744C396 60.3067 396.192 59.6827 396.192 58.872V55.896C396.192 55.0747 395.979 54.456 395.552 54.04C395.136 53.6133 394.571 53.4 393.856 53.4C393.12 53.4 392.544 53.6187 392.128 54.056C391.723 54.4933 391.52 55.1067 391.52 55.896V58.872C391.52 59.7147 391.712 60.3493 392.096 60.776C392.491 61.192 393.077 61.4 393.856 61.4ZM399.399 63L402.679 57.352L399.431 51.8H401.831L404.055 55.848H404.343L406.567 51.8H408.967L405.719 57.352L408.999 63H406.599L404.343 58.856H404.055L401.799 63H399.399ZM410.016 63V61.656C410.016 60.8773 410.144 60.232 410.4 59.72C410.656 59.1973 411.024 58.7707 411.504 58.44C411.994 58.0987 412.592 57.8213 413.296 57.608L414.368 57.272C414.762 57.144 415.093 56.9893 415.36 56.808C415.626 56.616 415.829 56.3867 415.968 56.12C416.117 55.8533 416.192 55.5493 416.192 55.208V55.144C416.192 54.6107 416.01 54.1893 415.648 53.88C415.285 53.56 414.789 53.4 414.16 53.4C413.541 53.4 413.04 53.5707 412.656 53.912C412.282 54.2427 412.096 54.7227 412.096 55.352V55.64H410.048V55.384C410.048 54.5733 410.229 53.8853 410.592 53.32C410.954 52.7547 411.445 52.3227 412.064 52.024C412.693 51.7253 413.392 51.576 414.16 51.576C414.928 51.576 415.621 51.7253 416.24 52.024C416.858 52.312 417.344 52.7227 417.696 53.256C418.058 53.7787 418.24 54.3973 418.24 55.112V55.272C418.24 55.9867 418.09 56.5947 417.792 57.096C417.504 57.5867 417.109 57.992 416.608 58.312C416.106 58.6213 415.536 58.8773 414.896 59.08L413.872 59.4C413.413 59.5387 413.056 59.6933 412.8 59.864C412.544 60.024 412.362 60.2053 412.256 60.408C412.16 60.6 412.112 60.8347 412.112 61.112V61.176H418.144V63H410.016ZM423.692 63.224C422.817 63.224 422.06 63.0693 421.42 62.76C420.79 62.4507 420.305 62.0133 419.964 61.448C419.622 60.8827 419.452 60.2267 419.452 59.48V59.32H421.532V59.464C421.532 59.9973 421.708 60.456 422.06 60.84C422.422 61.2133 422.956 61.4 423.66 61.4C424.364 61.4 424.902 61.2133 425.276 60.84C425.66 60.456 425.852 59.96 425.852 59.352V59.192C425.852 58.5947 425.66 58.12 425.276 57.768C424.902 57.416 424.433 57.24 423.868 57.24C423.558 57.24 423.302 57.2827 423.1 57.368C422.897 57.4533 422.732 57.56 422.604 57.688C422.476 57.816 422.369 57.944 422.284 58.072H419.804V51.8H427.452V53.656H421.852V56.392H422.14C422.246 56.2533 422.39 56.12 422.572 55.992C422.753 55.864 422.988 55.7573 423.276 55.672C423.564 55.5867 423.905 55.544 424.3 55.544C424.961 55.544 425.564 55.6827 426.108 55.96C426.652 56.2373 427.084 56.648 427.404 57.192C427.734 57.7253 427.9 58.3867 427.9 59.176V59.368C427.9 60.1573 427.729 60.84 427.388 61.416C427.057 61.992 426.577 62.44 425.948 62.76C425.318 63.0693 424.566 63.224 423.692 63.224ZM433.622 63.224C432.299 63.224 431.238 62.8613 430.438 62.136C429.638 61.4 429.238 60.2907 429.238 58.808V55.992C429.238 54.552 429.638 53.4587 430.438 52.712C431.238 51.9547 432.299 51.576 433.622 51.576C434.955 51.576 436.016 51.9547 436.806 52.712C437.606 53.4587 438.006 54.552 438.006 55.992V58.808C438.006 60.2907 437.606 61.4 436.806 62.136C436.016 62.8613 434.955 63.224 433.622 63.224ZM433.622 61.4C434.422 61.4 435.008 61.1813 435.382 60.744C435.766 60.3067 435.958 59.6827 435.958 58.872V55.896C435.958 55.0747 435.744 54.456 435.318 54.04C434.902 53.6133 434.336 53.4 433.622 53.4C432.886 53.4 432.31 53.6187 431.894 54.056C431.488 54.4933 431.286 55.1067 431.286 55.896V58.872C431.286 59.7147 431.478 60.3493 431.862 60.776C432.256 61.192 432.843 61.4 433.622 61.4Z" fill="white"/>
</svg>
