<svg width="728" height="200" viewBox="0 0 728 200" fill="none" xmlns="http://www.w3.org/2000/svg">
<rect width="728" height="200" fill="#20AAA4"/>
<path d="M325.161 91L331.089 77.7H334.129L340.076 91H336.846L331.982 79.258H333.198L328.315 91H325.161ZM328.125 88.15L328.942 85.813H335.782L336.618 88.15H328.125ZM345.543 91.152C344.58 91.152 343.713 90.9367 342.94 90.506C342.167 90.0627 341.553 89.4483 341.097 88.663C340.654 87.8777 340.432 86.953 340.432 85.889C340.432 84.8123 340.654 83.8813 341.097 83.096C341.553 82.3107 342.167 81.7027 342.94 81.272C343.713 80.8413 344.58 80.626 345.543 80.626C346.404 80.626 347.158 80.816 347.804 81.196C348.45 81.576 348.95 82.1523 349.305 82.925C349.66 83.6977 349.837 84.6857 349.837 85.889C349.837 87.0797 349.666 88.0677 349.324 88.853C348.982 89.6257 348.488 90.202 347.842 90.582C347.209 90.962 346.442 91.152 345.543 91.152ZM346.056 88.72C346.537 88.72 346.974 88.606 347.367 88.378C347.76 88.15 348.07 87.827 348.298 87.409C348.539 86.9783 348.659 86.4717 348.659 85.889C348.659 85.2937 348.539 84.787 348.298 84.369C348.07 83.951 347.76 83.628 347.367 83.4C346.974 83.172 346.537 83.058 346.056 83.058C345.562 83.058 345.119 83.172 344.726 83.4C344.333 83.628 344.017 83.951 343.776 84.369C343.548 84.787 343.434 85.2937 343.434 85.889C343.434 86.4717 343.548 86.9783 343.776 87.409C344.017 87.827 344.333 88.15 344.726 88.378C345.119 88.606 345.562 88.72 346.056 88.72ZM348.735 91V88.91L348.792 85.87L348.602 82.849V76.902H351.566V91H348.735ZM360.051 91V80.55C360.051 79.3973 360.393 78.479 361.077 77.795C361.761 77.0983 362.737 76.75 364.003 76.75C364.434 76.75 364.846 76.7943 365.238 76.883C365.644 76.9717 365.986 77.111 366.264 77.301L365.485 79.448C365.321 79.334 365.137 79.2453 364.934 79.182C364.732 79.1187 364.516 79.087 364.288 79.087C363.858 79.087 363.522 79.2137 363.281 79.467C363.053 79.7077 362.939 80.075 362.939 80.569V81.519L363.015 82.792V91H360.051ZM358.474 83.286V81.006H365.561V83.286H358.474ZM371.981 91.152C370.816 91.152 369.79 90.924 368.903 90.468C368.029 90.012 367.351 89.3913 366.87 88.606C366.389 87.808 366.148 86.9023 366.148 85.889C366.148 84.863 366.382 83.9573 366.851 83.172C367.332 82.374 367.985 81.7533 368.808 81.31C369.631 80.854 370.562 80.626 371.601 80.626C372.602 80.626 373.501 80.8413 374.299 81.272C375.11 81.69 375.749 82.298 376.218 83.096C376.687 83.8813 376.921 84.825 376.921 85.927C376.921 86.041 376.915 86.174 376.902 86.326C376.889 86.4653 376.877 86.5983 376.864 86.725H368.561V84.996H375.306L374.166 85.509C374.166 84.977 374.058 84.5147 373.843 84.122C373.628 83.7293 373.33 83.4253 372.95 83.21C372.57 82.982 372.127 82.868 371.62 82.868C371.113 82.868 370.664 82.982 370.271 83.21C369.891 83.4253 369.593 83.7357 369.378 84.141C369.163 84.5337 369.055 85.0023 369.055 85.547V86.003C369.055 86.5603 369.175 87.0543 369.416 87.485C369.669 87.903 370.018 88.226 370.461 88.454C370.917 88.6693 371.449 88.777 372.057 88.777C372.602 88.777 373.077 88.6947 373.482 88.53C373.9 88.3653 374.28 88.1183 374.622 87.789L376.199 89.499C375.73 90.031 375.141 90.4427 374.432 90.734C373.723 91.0127 372.906 91.152 371.981 91.152ZM383.967 91.152C382.802 91.152 381.776 90.924 380.889 90.468C380.015 90.012 379.338 89.3913 378.856 88.606C378.375 87.808 378.134 86.9023 378.134 85.889C378.134 84.863 378.369 83.9573 378.837 83.172C379.319 82.374 379.971 81.7533 380.794 81.31C381.618 80.854 382.549 80.626 383.587 80.626C384.588 80.626 385.487 80.8413 386.285 81.272C387.096 81.69 387.736 82.298 388.204 83.096C388.673 83.8813 388.907 84.825 388.907 85.927C388.907 86.041 388.901 86.174 388.888 86.326C388.876 86.4653 388.863 86.5983 388.85 86.725H380.547V84.996H387.292L386.152 85.509C386.152 84.977 386.045 84.5147 385.829 84.122C385.614 83.7293 385.316 83.4253 384.936 83.21C384.556 82.982 384.113 82.868 383.606 82.868C383.1 82.868 382.65 82.982 382.257 83.21C381.877 83.4253 381.58 83.7357 381.364 84.141C381.149 84.5337 381.041 85.0023 381.041 85.547V86.003C381.041 86.5603 381.162 87.0543 381.402 87.485C381.656 87.903 382.004 88.226 382.447 88.454C382.903 88.6693 383.435 88.777 384.043 88.777C384.588 88.777 385.063 88.6947 385.468 88.53C385.886 88.3653 386.266 88.1183 386.608 87.789L388.185 89.499C387.717 90.031 387.128 90.4427 386.418 90.734C385.709 91.0127 384.892 91.152 383.967 91.152ZM395.27 91.152C394.307 91.152 393.439 90.9367 392.667 90.506C391.894 90.0627 391.28 89.4483 390.824 88.663C390.38 87.8777 390.159 86.953 390.159 85.889C390.159 84.8123 390.38 83.8813 390.824 83.096C391.28 82.3107 391.894 81.7027 392.667 81.272C393.439 80.8413 394.307 80.626 395.27 80.626C396.131 80.626 396.885 80.816 397.531 81.196C398.177 81.576 398.677 82.1523 399.032 82.925C399.386 83.6977 399.564 84.6857 399.564 85.889C399.564 87.0797 399.393 88.0677 399.051 88.853C398.709 89.6257 398.215 90.202 397.569 90.582C396.935 90.962 396.169 91.152 395.27 91.152ZM395.783 88.72C396.264 88.72 396.701 88.606 397.094 88.378C397.486 88.15 397.797 87.827 398.025 87.409C398.265 86.9783 398.386 86.4717 398.386 85.889C398.386 85.2937 398.265 84.787 398.025 84.369C397.797 83.951 397.486 83.628 397.094 83.4C396.701 83.172 396.264 83.058 395.783 83.058C395.289 83.058 394.845 83.172 394.453 83.4C394.06 83.628 393.743 83.951 393.503 84.369C393.275 84.787 393.161 85.2937 393.161 85.889C393.161 86.4717 393.275 86.9783 393.503 87.409C393.743 87.827 394.06 88.15 394.453 88.378C394.845 88.606 395.289 88.72 395.783 88.72ZM398.462 91V88.91L398.519 85.87L398.329 82.849V76.902H401.293V91H398.462ZM234.064 123L239.422 110.878L240.22 112.208H233.057L234.425 110.764V114.374H231.689V109.7H242.348V111.695L237.408 123H234.064ZM243.604 123V121.005L248.734 116.16C249.139 115.793 249.437 115.463 249.627 115.172C249.817 114.881 249.944 114.615 250.007 114.374C250.083 114.133 250.121 113.912 250.121 113.709C250.121 113.177 249.937 112.772 249.57 112.493C249.215 112.202 248.69 112.056 247.993 112.056C247.436 112.056 246.916 112.164 246.435 112.379C245.966 112.594 245.567 112.93 245.238 113.386L242.996 111.942C243.503 111.182 244.212 110.58 245.124 110.137C246.036 109.694 247.087 109.472 248.278 109.472C249.266 109.472 250.127 109.637 250.862 109.966C251.609 110.283 252.186 110.732 252.591 111.315C253.009 111.898 253.218 112.594 253.218 113.405C253.218 113.836 253.161 114.266 253.047 114.697C252.946 115.115 252.73 115.558 252.401 116.027C252.084 116.496 251.616 117.021 250.995 117.604L246.739 121.613L246.15 120.492H253.655V123H243.604ZM260.435 123.228C259.32 123.228 258.345 123.063 257.509 122.734C256.673 122.392 256.021 121.917 255.552 121.309C255.083 120.688 254.849 119.966 254.849 119.143C254.849 118.32 255.077 117.623 255.533 117.053C256.002 116.47 256.654 116.033 257.49 115.742C258.326 115.438 259.308 115.286 260.435 115.286C261.575 115.286 262.563 115.438 263.399 115.742C264.248 116.033 264.9 116.47 265.356 117.053C265.825 117.623 266.059 118.32 266.059 119.143C266.059 119.966 265.825 120.688 265.356 121.309C264.887 121.917 264.229 122.392 263.38 122.734C262.544 123.063 261.562 123.228 260.435 123.228ZM260.435 120.967C261.208 120.967 261.816 120.796 262.259 120.454C262.715 120.112 262.943 119.643 262.943 119.048C262.943 118.453 262.715 117.99 262.259 117.661C261.816 117.319 261.208 117.148 260.435 117.148C259.675 117.148 259.073 117.319 258.63 117.661C258.187 117.99 257.965 118.453 257.965 119.048C257.965 119.643 258.187 120.112 258.63 120.454C259.073 120.796 259.675 120.967 260.435 120.967ZM260.435 116.844C259.409 116.844 258.51 116.705 257.737 116.426C256.977 116.147 256.382 115.742 255.951 115.21C255.533 114.665 255.324 114.019 255.324 113.272C255.324 112.487 255.539 111.815 255.97 111.258C256.401 110.688 257.002 110.251 257.775 109.947C258.548 109.63 259.434 109.472 260.435 109.472C261.461 109.472 262.354 109.63 263.114 109.947C263.887 110.251 264.488 110.688 264.919 111.258C265.362 111.815 265.584 112.487 265.584 113.272C265.584 114.019 265.369 114.665 264.938 115.21C264.52 115.742 263.925 116.147 263.152 116.426C262.379 116.705 261.474 116.844 260.435 116.844ZM260.435 115.039C261.081 115.039 261.588 114.893 261.955 114.602C262.335 114.311 262.525 113.912 262.525 113.405C262.525 112.873 262.329 112.461 261.936 112.17C261.556 111.879 261.056 111.733 260.435 111.733C259.827 111.733 259.333 111.879 258.953 112.17C258.573 112.461 258.383 112.873 258.383 113.405C258.383 113.912 258.567 114.311 258.934 114.602C259.301 114.893 259.802 115.039 260.435 115.039ZM271.127 118.725L277.511 112.303L279.107 113.975L272.723 120.397L271.127 118.725ZM271.127 113.975L272.723 112.303L279.107 118.725L277.511 120.397L271.127 113.975ZM284.109 123V121.005L289.239 116.16C289.644 115.793 289.942 115.463 290.132 115.172C290.322 114.881 290.449 114.615 290.512 114.374C290.588 114.133 290.626 113.912 290.626 113.709C290.626 113.177 290.442 112.772 290.075 112.493C289.72 112.202 289.195 112.056 288.498 112.056C287.941 112.056 287.421 112.164 286.94 112.379C286.471 112.594 286.072 112.93 285.743 113.386L283.501 111.942C284.008 111.182 284.717 110.58 285.629 110.137C286.541 109.694 287.592 109.472 288.783 109.472C289.771 109.472 290.632 109.637 291.367 109.966C292.114 110.283 292.691 110.732 293.096 111.315C293.514 111.898 293.723 112.594 293.723 113.405C293.723 113.836 293.666 114.266 293.552 114.697C293.451 115.115 293.235 115.558 292.906 116.027C292.589 116.496 292.121 117.021 291.5 117.604L287.244 121.613L286.655 120.492H294.16V123H284.109ZM301.13 123.228C300.041 123.228 299.065 122.962 298.204 122.43C297.343 121.885 296.665 121.1 296.171 120.074C295.677 119.048 295.43 117.807 295.43 116.35C295.43 114.893 295.677 113.652 296.171 112.626C296.665 111.6 297.343 110.821 298.204 110.289C299.065 109.744 300.041 109.472 301.13 109.472C302.232 109.472 303.207 109.744 304.056 110.289C304.917 110.821 305.595 111.6 306.089 112.626C306.583 113.652 306.83 114.893 306.83 116.35C306.83 117.807 306.583 119.048 306.089 120.074C305.595 121.1 304.917 121.885 304.056 122.43C303.207 122.962 302.232 123.228 301.13 123.228ZM301.13 120.625C301.649 120.625 302.099 120.479 302.479 120.188C302.872 119.897 303.176 119.434 303.391 118.801C303.619 118.168 303.733 117.351 303.733 116.35C303.733 115.349 303.619 114.532 303.391 113.899C303.176 113.266 302.872 112.803 302.479 112.512C302.099 112.221 301.649 112.075 301.13 112.075C300.623 112.075 300.174 112.221 299.781 112.512C299.401 112.803 299.097 113.266 298.869 113.899C298.654 114.532 298.546 115.349 298.546 116.35C298.546 117.351 298.654 118.168 298.869 118.801C299.097 119.434 299.401 119.897 299.781 120.188C300.174 120.479 300.623 120.625 301.13 120.625ZM314.025 123.228C312.936 123.228 311.961 122.962 311.099 122.43C310.238 121.885 309.56 121.1 309.066 120.074C308.572 119.048 308.325 117.807 308.325 116.35C308.325 114.893 308.572 113.652 309.066 112.626C309.56 111.6 310.238 110.821 311.099 110.289C311.961 109.744 312.936 109.472 314.025 109.472C315.127 109.472 316.103 109.744 316.951 110.289C317.813 110.821 318.49 111.6 318.984 112.626C319.478 113.652 319.725 114.893 319.725 116.35C319.725 117.807 319.478 119.048 318.984 120.074C318.49 121.1 317.813 121.885 316.951 122.43C316.103 122.962 315.127 123.228 314.025 123.228ZM314.025 120.625C314.545 120.625 314.994 120.479 315.374 120.188C315.767 119.897 316.071 119.434 316.286 118.801C316.514 118.168 316.628 117.351 316.628 116.35C316.628 115.349 316.514 114.532 316.286 113.899C316.071 113.266 315.767 112.803 315.374 112.512C314.994 112.221 314.545 112.075 314.025 112.075C313.519 112.075 313.069 112.221 312.676 112.512C312.296 112.803 311.992 113.266 311.764 113.899C311.549 114.532 311.441 115.349 311.441 116.35C311.441 117.351 311.549 118.168 311.764 118.801C311.992 119.434 312.296 119.897 312.676 120.188C313.069 120.479 313.519 120.625 314.025 120.625ZM333.271 123.152C332.41 123.152 331.656 122.962 331.01 122.582C330.364 122.202 329.857 121.626 329.49 120.853C329.135 120.068 328.958 119.08 328.958 117.889C328.958 116.686 329.129 115.698 329.471 114.925C329.813 114.152 330.307 113.576 330.953 113.196C331.599 112.816 332.372 112.626 333.271 112.626C334.234 112.626 335.095 112.848 335.855 113.291C336.628 113.722 337.236 114.33 337.679 115.115C338.135 115.9 338.363 116.825 338.363 117.889C338.363 118.966 338.135 119.897 337.679 120.682C337.236 121.467 336.628 122.075 335.855 122.506C335.095 122.937 334.234 123.152 333.271 123.152ZM327.229 126.686V112.778H330.06V114.868L330.003 117.908L330.193 120.929V126.686H327.229ZM332.758 120.72C333.252 120.72 333.689 120.606 334.069 120.378C334.462 120.15 334.772 119.827 335 119.409C335.241 118.978 335.361 118.472 335.361 117.889C335.361 117.294 335.241 116.787 335 116.369C334.772 115.951 334.462 115.628 334.069 115.4C333.689 115.172 333.252 115.058 332.758 115.058C332.264 115.058 331.821 115.172 331.428 115.4C331.035 115.628 330.725 115.951 330.497 116.369C330.269 116.787 330.155 117.294 330.155 117.889C330.155 118.472 330.269 118.978 330.497 119.409C330.725 119.827 331.035 120.15 331.428 120.378C331.821 120.606 332.264 120.72 332.758 120.72ZM338.74 123L343.319 116.996L343.262 118.63L338.873 112.778H342.198L344.972 116.597L343.718 116.635L346.587 112.778H349.741L345.333 118.573V116.977L349.893 123H346.53L343.623 118.934L344.858 119.105L341.97 123H338.74ZM356.332 118.839V116.464H361.709V118.839H356.332ZM363.851 121.024V118.649L372.002 115.685V117.015L363.851 114.051V111.676L372.895 115.115V117.585L363.851 121.024ZM384.482 123.228C383.558 123.228 382.639 123.108 381.727 122.867C380.815 122.614 380.043 122.259 379.409 121.803L380.606 119.447C381.113 119.814 381.702 120.106 382.373 120.321C383.045 120.536 383.722 120.644 384.406 120.644C385.179 120.644 385.787 120.492 386.23 120.188C386.674 119.884 386.895 119.466 386.895 118.934C386.895 118.427 386.699 118.028 386.306 117.737C385.914 117.446 385.28 117.3 384.406 117.3H383V115.267L386.705 111.068L387.047 112.17H380.074V109.7H389.384V111.695L385.698 115.894L384.14 115.001H385.033C386.667 115.001 387.902 115.368 388.738 116.103C389.574 116.838 389.992 117.781 389.992 118.934C389.992 119.681 389.796 120.384 389.403 121.043C389.011 121.689 388.409 122.215 387.598 122.62C386.788 123.025 385.749 123.228 384.482 123.228ZM395.634 123.228C394.709 123.228 393.791 123.108 392.879 122.867C391.967 122.614 391.194 122.259 390.561 121.803L391.758 119.447C392.264 119.814 392.853 120.106 393.525 120.321C394.196 120.536 394.874 120.644 395.558 120.644C396.33 120.644 396.938 120.492 397.382 120.188C397.825 119.884 398.047 119.466 398.047 118.934C398.047 118.427 397.85 118.028 397.458 117.737C397.065 117.446 396.432 117.3 395.558 117.3H394.152V115.267L397.857 111.068L398.199 112.17H391.226V109.7H400.536V111.695L396.85 115.894L395.292 115.001H396.185C397.819 115.001 399.054 115.368 399.89 116.103C400.726 116.838 401.144 117.781 401.144 118.934C401.144 119.681 400.947 120.384 400.555 121.043C400.162 121.689 399.56 122.215 398.75 122.62C397.939 123.025 396.9 123.228 395.634 123.228ZM408.512 123.228C407.296 123.228 406.238 122.975 405.339 122.468C404.452 121.961 403.768 121.22 403.287 120.245C402.805 119.27 402.565 118.066 402.565 116.635C402.565 115.102 402.85 113.804 403.42 112.74C404.002 111.676 404.8 110.865 405.814 110.308C406.84 109.751 408.018 109.472 409.348 109.472C410.057 109.472 410.735 109.548 411.381 109.7C412.027 109.852 412.584 110.08 413.053 110.384L411.913 112.645C411.545 112.392 411.153 112.221 410.735 112.132C410.317 112.031 409.88 111.98 409.424 111.98C408.271 111.98 407.359 112.328 406.688 113.025C406.016 113.722 405.681 114.754 405.681 116.122C405.681 116.35 405.681 116.603 405.681 116.882C405.693 117.161 405.731 117.439 405.795 117.718L404.94 116.92C405.18 116.426 405.491 116.014 405.871 115.685C406.251 115.343 406.7 115.09 407.22 114.925C407.752 114.748 408.334 114.659 408.968 114.659C409.829 114.659 410.602 114.83 411.286 115.172C411.97 115.514 412.514 115.995 412.92 116.616C413.338 117.237 413.547 117.965 413.547 118.801C413.547 119.7 413.319 120.486 412.863 121.157C412.419 121.816 411.818 122.329 411.058 122.696C410.31 123.051 409.462 123.228 408.512 123.228ZM408.341 120.929C408.771 120.929 409.151 120.853 409.481 120.701C409.823 120.536 410.089 120.302 410.279 119.998C410.469 119.694 410.564 119.346 410.564 118.953C410.564 118.345 410.355 117.864 409.937 117.509C409.531 117.142 408.987 116.958 408.303 116.958C407.847 116.958 407.448 117.047 407.106 117.224C406.764 117.389 406.491 117.623 406.289 117.927C406.099 118.218 406.004 118.56 406.004 118.953C406.004 119.333 406.099 119.675 406.289 119.979C406.479 120.27 406.745 120.505 407.087 120.682C407.429 120.847 407.847 120.929 408.341 120.929ZM418.322 118.725L424.706 112.303L426.302 113.975L419.918 120.397L418.322 118.725ZM418.322 113.975L419.918 112.303L426.302 118.725L424.706 120.397L418.322 113.975ZM431.303 123V121.005L436.433 116.16C436.839 115.793 437.136 115.463 437.326 115.172C437.516 114.881 437.643 114.615 437.706 114.374C437.782 114.133 437.82 113.912 437.82 113.709C437.82 113.177 437.637 112.772 437.269 112.493C436.915 112.202 436.389 112.056 435.692 112.056C435.135 112.056 434.616 112.164 434.134 112.379C433.666 112.594 433.267 112.93 432.937 113.386L430.695 111.942C431.202 111.182 431.911 110.58 432.823 110.137C433.735 109.694 434.787 109.472 435.977 109.472C436.965 109.472 437.827 109.637 438.561 109.966C439.309 110.283 439.885 110.732 440.29 111.315C440.708 111.898 440.917 112.594 440.917 113.405C440.917 113.836 440.86 114.266 440.746 114.697C440.645 115.115 440.43 115.558 440.1 116.027C439.784 116.496 439.315 117.021 438.694 117.604L434.438 121.613L433.849 120.492H441.354V123H431.303ZM448.134 123.228C447.02 123.228 446.044 123.063 445.208 122.734C444.372 122.392 443.72 121.917 443.251 121.309C442.783 120.688 442.548 119.966 442.548 119.143C442.548 118.32 442.776 117.623 443.232 117.053C443.701 116.47 444.353 116.033 445.189 115.742C446.025 115.438 447.007 115.286 448.134 115.286C449.274 115.286 450.262 115.438 451.098 115.742C451.947 116.033 452.599 116.47 453.055 117.053C453.524 117.623 453.758 118.32 453.758 119.143C453.758 119.966 453.524 120.688 453.055 121.309C452.587 121.917 451.928 122.392 451.079 122.734C450.243 123.063 449.262 123.228 448.134 123.228ZM448.134 120.967C448.907 120.967 449.515 120.796 449.958 120.454C450.414 120.112 450.642 119.643 450.642 119.048C450.642 118.453 450.414 117.99 449.958 117.661C449.515 117.319 448.907 117.148 448.134 117.148C447.374 117.148 446.773 117.319 446.329 117.661C445.886 117.99 445.664 118.453 445.664 119.048C445.664 119.643 445.886 120.112 446.329 120.454C446.773 120.796 447.374 120.967 448.134 120.967ZM448.134 116.844C447.108 116.844 446.209 116.705 445.436 116.426C444.676 116.147 444.081 115.742 443.65 115.21C443.232 114.665 443.023 114.019 443.023 113.272C443.023 112.487 443.239 111.815 443.669 111.258C444.1 110.688 444.702 110.251 445.474 109.947C446.247 109.63 447.134 109.472 448.134 109.472C449.16 109.472 450.053 109.63 450.813 109.947C451.586 110.251 452.188 110.688 452.618 111.258C453.062 111.815 453.283 112.487 453.283 113.272C453.283 114.019 453.068 114.665 452.637 115.21C452.219 115.742 451.624 116.147 450.851 116.426C450.079 116.705 449.173 116.844 448.134 116.844ZM448.134 115.039C448.78 115.039 449.287 114.893 449.654 114.602C450.034 114.311 450.224 113.912 450.224 113.405C450.224 112.873 450.028 112.461 449.635 112.17C449.255 111.879 448.755 111.733 448.134 111.733C447.526 111.733 447.032 111.879 446.652 112.17C446.272 112.461 446.082 112.873 446.082 113.405C446.082 113.912 446.266 114.311 446.633 114.602C447.001 114.893 447.501 115.039 448.134 115.039ZM460.867 123.228C459.778 123.228 458.803 122.962 457.941 122.43C457.08 121.885 456.402 121.1 455.908 120.074C455.414 119.048 455.167 117.807 455.167 116.35C455.167 114.893 455.414 113.652 455.908 112.626C456.402 111.6 457.08 110.821 457.941 110.289C458.803 109.744 459.778 109.472 460.867 109.472C461.969 109.472 462.945 109.744 463.793 110.289C464.655 110.821 465.332 111.6 465.826 112.626C466.32 113.652 466.567 114.893 466.567 116.35C466.567 117.807 466.32 119.048 465.826 120.074C465.332 121.1 464.655 121.885 463.793 122.43C462.945 122.962 461.969 123.228 460.867 123.228ZM460.867 120.625C461.387 120.625 461.836 120.479 462.216 120.188C462.609 119.897 462.913 119.434 463.128 118.801C463.356 118.168 463.47 117.351 463.47 116.35C463.47 115.349 463.356 114.532 463.128 113.899C462.913 113.266 462.609 112.803 462.216 112.512C461.836 112.221 461.387 112.075 460.867 112.075C460.361 112.075 459.911 112.221 459.518 112.512C459.138 112.803 458.834 113.266 458.606 113.899C458.391 114.532 458.283 115.349 458.283 116.35C458.283 117.351 458.391 118.168 458.606 118.801C458.834 119.434 459.138 119.897 459.518 120.188C459.911 120.479 460.361 120.625 460.867 120.625ZM480.113 123.152C479.251 123.152 478.498 122.962 477.852 122.582C477.206 122.202 476.699 121.626 476.332 120.853C475.977 120.068 475.8 119.08 475.8 117.889C475.8 116.686 475.971 115.698 476.313 114.925C476.655 114.152 477.149 113.576 477.795 113.196C478.441 112.816 479.213 112.626 480.113 112.626C481.075 112.626 481.937 112.848 482.697 113.291C483.469 113.722 484.077 114.33 484.521 115.115C484.977 115.9 485.205 116.825 485.205 117.889C485.205 118.966 484.977 119.897 484.521 120.682C484.077 121.467 483.469 122.075 482.697 122.506C481.937 122.937 481.075 123.152 480.113 123.152ZM474.071 126.686V112.778H476.902V114.868L476.845 117.908L477.035 120.929V126.686H474.071ZM479.6 120.72C480.094 120.72 480.531 120.606 480.911 120.378C481.303 120.15 481.614 119.827 481.842 119.409C482.082 118.978 482.203 118.472 482.203 117.889C482.203 117.294 482.082 116.787 481.842 116.369C481.614 115.951 481.303 115.628 480.911 115.4C480.531 115.172 480.094 115.058 479.6 115.058C479.106 115.058 478.662 115.172 478.27 115.4C477.877 115.628 477.567 115.951 477.339 116.369C477.111 116.787 476.997 117.294 476.997 117.889C476.997 118.472 477.111 118.978 477.339 119.409C477.567 119.827 477.877 120.15 478.27 120.378C478.662 120.606 479.106 120.72 479.6 120.72ZM485.581 123L490.16 116.996L490.103 118.63L485.714 112.778H489.039L491.813 116.597L490.559 116.635L493.428 112.778H496.582L492.174 118.573V116.977L496.734 123H493.371L490.464 118.934L491.699 119.105L488.811 123H485.581Z" fill="white"/>
</svg>
