<svg width="728" height="90" viewBox="0 0 728 90" fill="none" xmlns="http://www.w3.org/2000/svg">
<rect width="728" height="90" fill="#0D0C22"/>
<path d="M325.661 36L331.589 22.7H334.629L340.576 36H337.346L332.482 24.258H333.698L328.815 36H325.661ZM328.625 33.15L329.442 30.813H336.282L337.118 33.15H328.625ZM346.043 36.152C345.08 36.152 344.213 35.9367 343.44 35.506C342.667 35.0627 342.053 34.4483 341.597 33.663C341.154 32.8777 340.932 31.953 340.932 30.889C340.932 29.8123 341.154 28.8813 341.597 28.096C342.053 27.3107 342.667 26.7027 343.44 26.272C344.213 25.8413 345.08 25.626 346.043 25.626C346.904 25.626 347.658 25.816 348.304 26.196C348.95 26.576 349.45 27.1523 349.805 27.925C350.16 28.6977 350.337 29.6857 350.337 30.889C350.337 32.0797 350.166 33.0677 349.824 33.853C349.482 34.6257 348.988 35.202 348.342 35.582C347.709 35.962 346.942 36.152 346.043 36.152ZM346.556 33.72C347.037 33.72 347.474 33.606 347.867 33.378C348.26 33.15 348.57 32.827 348.798 32.409C349.039 31.9783 349.159 31.4717 349.159 30.889C349.159 30.2937 349.039 29.787 348.798 29.369C348.57 28.951 348.26 28.628 347.867 28.4C347.474 28.172 347.037 28.058 346.556 28.058C346.062 28.058 345.619 28.172 345.226 28.4C344.833 28.628 344.517 28.951 344.276 29.369C344.048 29.787 343.934 30.2937 343.934 30.889C343.934 31.4717 344.048 31.9783 344.276 32.409C344.517 32.827 344.833 33.15 345.226 33.378C345.619 33.606 346.062 33.72 346.556 33.72ZM349.235 36V33.91L349.292 30.87L349.102 27.849V21.902H352.066V36H349.235ZM360.551 36V25.55C360.551 24.3973 360.893 23.479 361.577 22.795C362.261 22.0983 363.237 21.75 364.503 21.75C364.934 21.75 365.346 21.7943 365.738 21.883C366.144 21.9717 366.486 22.111 366.764 22.301L365.985 24.448C365.821 24.334 365.637 24.2453 365.434 24.182C365.232 24.1187 365.016 24.087 364.788 24.087C364.358 24.087 364.022 24.2137 363.781 24.467C363.553 24.7077 363.439 25.075 363.439 25.569V26.519L363.515 27.792V36H360.551ZM358.974 28.286V26.006H366.061V28.286H358.974ZM372.481 36.152C371.316 36.152 370.29 35.924 369.403 35.468C368.529 35.012 367.851 34.3913 367.37 33.606C366.889 32.808 366.648 31.9023 366.648 30.889C366.648 29.863 366.882 28.9573 367.351 28.172C367.832 27.374 368.485 26.7533 369.308 26.31C370.131 25.854 371.062 25.626 372.101 25.626C373.102 25.626 374.001 25.8413 374.799 26.272C375.61 26.69 376.249 27.298 376.718 28.096C377.187 28.8813 377.421 29.825 377.421 30.927C377.421 31.041 377.415 31.174 377.402 31.326C377.389 31.4653 377.377 31.5983 377.364 31.725H369.061V29.996H375.806L374.666 30.509C374.666 29.977 374.558 29.5147 374.343 29.122C374.128 28.7293 373.83 28.4253 373.45 28.21C373.07 27.982 372.627 27.868 372.12 27.868C371.613 27.868 371.164 27.982 370.771 28.21C370.391 28.4253 370.093 28.7357 369.878 29.141C369.663 29.5337 369.555 30.0023 369.555 30.547V31.003C369.555 31.5603 369.675 32.0543 369.916 32.485C370.169 32.903 370.518 33.226 370.961 33.454C371.417 33.6693 371.949 33.777 372.557 33.777C373.102 33.777 373.577 33.6947 373.982 33.53C374.4 33.3653 374.78 33.1183 375.122 32.789L376.699 34.499C376.23 35.031 375.641 35.4427 374.932 35.734C374.223 36.0127 373.406 36.152 372.481 36.152ZM384.467 36.152C383.302 36.152 382.276 35.924 381.389 35.468C380.515 35.012 379.838 34.3913 379.356 33.606C378.875 32.808 378.634 31.9023 378.634 30.889C378.634 29.863 378.869 28.9573 379.337 28.172C379.819 27.374 380.471 26.7533 381.294 26.31C382.118 25.854 383.049 25.626 384.087 25.626C385.088 25.626 385.987 25.8413 386.785 26.272C387.596 26.69 388.236 27.298 388.704 28.096C389.173 28.8813 389.407 29.825 389.407 30.927C389.407 31.041 389.401 31.174 389.388 31.326C389.376 31.4653 389.363 31.5983 389.35 31.725H381.047V29.996H387.792L386.652 30.509C386.652 29.977 386.545 29.5147 386.329 29.122C386.114 28.7293 385.816 28.4253 385.436 28.21C385.056 27.982 384.613 27.868 384.106 27.868C383.6 27.868 383.15 27.982 382.757 28.21C382.377 28.4253 382.08 28.7357 381.864 29.141C381.649 29.5337 381.541 30.0023 381.541 30.547V31.003C381.541 31.5603 381.662 32.0543 381.902 32.485C382.156 32.903 382.504 33.226 382.947 33.454C383.403 33.6693 383.935 33.777 384.543 33.777C385.088 33.777 385.563 33.6947 385.968 33.53C386.386 33.3653 386.766 33.1183 387.108 32.789L388.685 34.499C388.217 35.031 387.628 35.4427 386.918 35.734C386.209 36.0127 385.392 36.152 384.467 36.152ZM395.77 36.152C394.807 36.152 393.939 35.9367 393.167 35.506C392.394 35.0627 391.78 34.4483 391.324 33.663C390.88 32.8777 390.659 31.953 390.659 30.889C390.659 29.8123 390.88 28.8813 391.324 28.096C391.78 27.3107 392.394 26.7027 393.167 26.272C393.939 25.8413 394.807 25.626 395.77 25.626C396.631 25.626 397.385 25.816 398.031 26.196C398.677 26.576 399.177 27.1523 399.532 27.925C399.886 28.6977 400.064 29.6857 400.064 30.889C400.064 32.0797 399.893 33.0677 399.551 33.853C399.209 34.6257 398.715 35.202 398.069 35.582C397.435 35.962 396.669 36.152 395.77 36.152ZM396.283 33.72C396.764 33.72 397.201 33.606 397.594 33.378C397.986 33.15 398.297 32.827 398.525 32.409C398.765 31.9783 398.886 31.4717 398.886 30.889C398.886 30.2937 398.765 29.787 398.525 29.369C398.297 28.951 397.986 28.628 397.594 28.4C397.201 28.172 396.764 28.058 396.283 28.058C395.789 28.058 395.345 28.172 394.953 28.4C394.56 28.628 394.243 28.951 394.003 29.369C393.775 29.787 393.661 30.2937 393.661 30.889C393.661 31.4717 393.775 31.9783 394.003 32.409C394.243 32.827 394.56 33.15 394.953 33.378C395.345 33.606 395.789 33.72 396.283 33.72ZM398.962 36V33.91L399.019 30.87L398.829 27.849V21.902H401.793V36H398.962ZM242.509 54.472C243.738 54.472 244.796 54.7253 245.682 55.232C246.569 55.7387 247.253 56.4797 247.734 57.455C248.216 58.4177 248.456 59.621 248.456 61.065C248.456 62.5977 248.165 63.896 247.582 64.96C247.012 66.024 246.221 66.8347 245.207 67.392C244.194 67.9493 243.016 68.228 241.673 68.228C240.977 68.228 240.305 68.152 239.659 68C239.013 67.848 238.456 67.62 237.987 67.316L239.127 65.055C239.495 65.3083 239.887 65.4857 240.305 65.587C240.723 65.6757 241.16 65.72 241.616 65.72C242.756 65.72 243.662 65.3717 244.333 64.675C245.017 63.9783 245.359 62.946 245.359 61.578C245.359 61.35 245.353 61.0967 245.34 60.818C245.328 60.5393 245.296 60.2607 245.245 59.982L246.081 60.78C245.866 61.274 245.562 61.692 245.169 62.034C244.777 62.3633 244.321 62.6167 243.801 62.794C243.282 62.9587 242.699 63.041 242.053 63.041C241.205 63.041 240.432 62.87 239.735 62.528C239.051 62.186 238.5 61.7047 238.082 61.084C237.677 60.4633 237.474 59.735 237.474 58.899C237.474 57.987 237.696 57.2017 238.139 56.543C238.595 55.8843 239.203 55.3777 239.963 55.023C240.736 54.6557 241.585 54.472 242.509 54.472ZM242.699 56.771C242.256 56.771 241.87 56.8533 241.54 57.018C241.211 57.17 240.951 57.398 240.761 57.702C240.571 57.9933 240.476 58.3417 240.476 58.747C240.476 59.355 240.679 59.8427 241.084 60.21C241.502 60.5647 242.053 60.742 242.737 60.742C243.181 60.742 243.573 60.6597 243.915 60.495C244.27 60.3177 244.542 60.077 244.732 59.773C244.922 59.469 245.017 59.127 245.017 58.747C245.017 58.367 244.922 58.0313 244.732 57.74C244.555 57.436 244.295 57.2017 243.953 57.037C243.611 56.8597 243.193 56.771 242.699 56.771ZM252.005 68L257.363 55.878L258.161 57.208H250.998L252.366 55.764V59.374H249.63V54.7H260.289V56.695L255.349 68H252.005ZM266.988 68.228C265.899 68.228 264.924 67.962 264.062 67.43C263.201 66.8853 262.523 66.1 262.029 65.074C261.535 64.048 261.288 62.8067 261.288 61.35C261.288 59.8933 261.535 58.652 262.029 57.626C262.523 56.6 263.201 55.821 264.062 55.289C264.924 54.7443 265.899 54.472 266.988 54.472C268.09 54.472 269.066 54.7443 269.914 55.289C270.776 55.821 271.453 56.6 271.947 57.626C272.441 58.652 272.688 59.8933 272.688 61.35C272.688 62.8067 272.441 64.048 271.947 65.074C271.453 66.1 270.776 66.8853 269.914 67.43C269.066 67.962 268.09 68.228 266.988 68.228ZM266.988 65.625C267.508 65.625 267.957 65.4793 268.337 65.188C268.73 64.8967 269.034 64.4343 269.249 63.801C269.477 63.1677 269.591 62.3507 269.591 61.35C269.591 60.3493 269.477 59.5323 269.249 58.899C269.034 58.2657 268.73 57.8033 268.337 57.512C267.957 57.2207 267.508 57.075 266.988 57.075C266.482 57.075 266.032 57.2207 265.639 57.512C265.259 57.8033 264.955 58.2657 264.727 58.899C264.512 59.5323 264.404 60.3493 264.404 61.35C264.404 62.3507 264.512 63.1677 264.727 63.801C264.955 64.4343 265.259 64.8967 265.639 65.188C266.032 65.4793 266.482 65.625 266.988 65.625ZM277.843 63.725L284.227 57.303L285.823 58.975L279.439 65.397L277.843 63.725ZM277.843 58.975L279.439 57.303L285.823 63.725L284.227 65.397L277.843 58.975ZM295.613 54.472C296.841 54.472 297.899 54.7253 298.786 55.232C299.672 55.7387 300.356 56.4797 300.838 57.455C301.319 58.4177 301.56 59.621 301.56 61.065C301.56 62.5977 301.268 63.896 300.686 64.96C300.116 66.024 299.324 66.8347 298.311 67.392C297.297 67.9493 296.119 68.228 294.777 68.228C294.08 68.228 293.409 68.152 292.763 68C292.117 67.848 291.559 67.62 291.091 67.316L292.231 65.055C292.598 65.3083 292.991 65.4857 293.409 65.587C293.827 65.6757 294.264 65.72 294.72 65.72C295.86 65.72 296.765 65.3717 297.437 64.675C298.121 63.9783 298.463 62.946 298.463 61.578C298.463 61.35 298.456 61.0967 298.444 60.818C298.431 60.5393 298.399 60.2607 298.349 59.982L299.185 60.78C298.969 61.274 298.665 61.692 298.273 62.034C297.88 62.3633 297.424 62.6167 296.905 62.794C296.385 62.9587 295.803 63.041 295.157 63.041C294.308 63.041 293.535 62.87 292.839 62.528C292.155 62.186 291.604 61.7047 291.186 61.084C290.78 60.4633 290.578 59.735 290.578 58.899C290.578 57.987 290.799 57.2017 291.243 56.543C291.699 55.8843 292.307 55.3777 293.067 55.023C293.839 54.6557 294.688 54.472 295.613 54.472ZM295.803 56.771C295.359 56.771 294.973 56.8533 294.644 57.018C294.314 57.17 294.055 57.398 293.865 57.702C293.675 57.9933 293.58 58.3417 293.58 58.747C293.58 59.355 293.782 59.8427 294.188 60.21C294.606 60.5647 295.157 60.742 295.841 60.742C296.284 60.742 296.677 60.6597 297.019 60.495C297.373 60.3177 297.646 60.077 297.836 59.773C298.026 59.469 298.121 59.127 298.121 58.747C298.121 58.367 298.026 58.0313 297.836 57.74C297.658 57.436 297.399 57.2017 297.057 57.037C296.715 56.8597 296.297 56.771 295.803 56.771ZM308.736 68.228C307.647 68.228 306.672 67.962 305.81 67.43C304.949 66.8853 304.271 66.1 303.777 65.074C303.283 64.048 303.036 62.8067 303.036 61.35C303.036 59.8933 303.283 58.652 303.777 57.626C304.271 56.6 304.949 55.821 305.81 55.289C306.672 54.7443 307.647 54.472 308.736 54.472C309.838 54.472 310.814 54.7443 311.662 55.289C312.524 55.821 313.201 56.6 313.695 57.626C314.189 58.652 314.436 59.8933 314.436 61.35C314.436 62.8067 314.189 64.048 313.695 65.074C313.201 66.1 312.524 66.8853 311.662 67.43C310.814 67.962 309.838 68.228 308.736 68.228ZM308.736 65.625C309.256 65.625 309.705 65.4793 310.085 65.188C310.478 64.8967 310.782 64.4343 310.997 63.801C311.225 63.1677 311.339 62.3507 311.339 61.35C311.339 60.3493 311.225 59.5323 310.997 58.899C310.782 58.2657 310.478 57.8033 310.085 57.512C309.705 57.2207 309.256 57.075 308.736 57.075C308.23 57.075 307.78 57.2207 307.387 57.512C307.007 57.8033 306.703 58.2657 306.475 58.899C306.26 59.5323 306.152 60.3493 306.152 61.35C306.152 62.3507 306.26 63.1677 306.475 63.801C306.703 64.4343 307.007 64.8967 307.387 65.188C307.78 65.4793 308.23 65.625 308.736 65.625ZM327.982 68.152C327.12 68.152 326.367 67.962 325.721 67.582C325.075 67.202 324.568 66.6257 324.201 65.853C323.846 65.0677 323.669 64.0797 323.669 62.889C323.669 61.6857 323.84 60.6977 324.182 59.925C324.524 59.1523 325.018 58.576 325.664 58.196C326.31 57.816 327.082 57.626 327.982 57.626C328.944 57.626 329.806 57.8477 330.566 58.291C331.338 58.7217 331.946 59.3297 332.39 60.115C332.846 60.9003 333.074 61.825 333.074 62.889C333.074 63.9657 332.846 64.8967 332.39 65.682C331.946 66.4673 331.338 67.0753 330.566 67.506C329.806 67.9367 328.944 68.152 327.982 68.152ZM321.94 71.686V57.778H324.771V59.868L324.714 62.908L324.904 65.929V71.686H321.94ZM327.469 65.72C327.963 65.72 328.4 65.606 328.78 65.378C329.172 65.15 329.483 64.827 329.711 64.409C329.951 63.9783 330.072 63.4717 330.072 62.889C330.072 62.2937 329.951 61.787 329.711 61.369C329.483 60.951 329.172 60.628 328.78 60.4C328.4 60.172 327.963 60.058 327.469 60.058C326.975 60.058 326.531 60.172 326.139 60.4C325.746 60.628 325.436 60.951 325.208 61.369C324.98 61.787 324.866 62.2937 324.866 62.889C324.866 63.4717 324.98 63.9783 325.208 64.409C325.436 64.827 325.746 65.15 326.139 65.378C326.531 65.606 326.975 65.72 327.469 65.72ZM333.451 68L338.03 61.996L337.973 63.63L333.584 57.778H336.909L339.683 61.597L338.429 61.635L341.298 57.778H344.452L340.044 63.573V61.977L344.604 68H341.241L338.334 63.934L339.569 64.105L336.681 68H333.451ZM351.043 63.839V61.464H356.42V63.839H351.043ZM358.562 66.024V63.649L366.713 60.685V62.015L358.562 59.051V56.676L367.606 60.115V62.585L358.562 66.024ZM379.193 68.228C378.268 68.228 377.35 68.1077 376.438 67.867C375.526 67.6137 374.753 67.259 374.12 66.803L375.317 64.447C375.824 64.8143 376.413 65.1057 377.084 65.321C377.755 65.5363 378.433 65.644 379.117 65.644C379.89 65.644 380.498 65.492 380.941 65.188C381.384 64.884 381.606 64.466 381.606 63.934C381.606 63.4273 381.41 63.0283 381.017 62.737C380.624 62.4457 379.991 62.3 379.117 62.3H377.711V60.267L381.416 56.068L381.758 57.17H374.785V54.7H384.095V56.695L380.409 60.894L378.851 60.001H379.744C381.378 60.001 382.613 60.3683 383.449 61.103C384.285 61.8377 384.703 62.7813 384.703 63.934C384.703 64.6813 384.507 65.3843 384.114 66.043C383.721 66.689 383.12 67.2147 382.309 67.62C381.498 68.0253 380.46 68.228 379.193 68.228ZM390.345 68.228C389.42 68.228 388.502 68.1077 387.59 67.867C386.678 67.6137 385.905 67.259 385.272 66.803L386.469 64.447C386.975 64.8143 387.564 65.1057 388.236 65.321C388.907 65.5363 389.585 65.644 390.269 65.644C391.041 65.644 391.649 65.492 392.093 65.188C392.536 64.884 392.758 64.466 392.758 63.934C392.758 63.4273 392.561 63.0283 392.169 62.737C391.776 62.4457 391.143 62.3 390.269 62.3H388.863V60.267L392.568 56.068L392.91 57.17H385.937V54.7H395.247V56.695L391.561 60.894L390.003 60.001H390.896C392.53 60.001 393.765 60.3683 394.601 61.103C395.437 61.8377 395.855 62.7813 395.855 63.934C395.855 64.6813 395.658 65.3843 395.266 66.043C394.873 66.689 394.271 67.2147 393.461 67.62C392.65 68.0253 391.611 68.228 390.345 68.228ZM403.223 68.228C402.007 68.228 400.949 67.9747 400.05 67.468C399.163 66.9613 398.479 66.2203 397.998 65.245C397.516 64.2697 397.276 63.0663 397.276 61.635C397.276 60.1023 397.561 58.804 398.131 57.74C398.713 56.676 399.511 55.8653 400.525 55.308C401.551 54.7507 402.729 54.472 404.059 54.472C404.768 54.472 405.446 54.548 406.092 54.7C406.738 54.852 407.295 55.08 407.764 55.384L406.624 57.645C406.256 57.3917 405.864 57.2207 405.446 57.132C405.028 57.0307 404.591 56.98 404.135 56.98C402.982 56.98 402.07 57.3283 401.399 58.025C400.727 58.7217 400.392 59.754 400.392 61.122C400.392 61.35 400.392 61.6033 400.392 61.882C400.404 62.1607 400.442 62.4393 400.506 62.718L399.651 61.92C399.891 61.426 400.202 61.0143 400.582 60.685C400.962 60.343 401.411 60.0897 401.931 59.925C402.463 59.7477 403.045 59.659 403.679 59.659C404.54 59.659 405.313 59.83 405.997 60.172C406.681 60.514 407.225 60.9953 407.631 61.616C408.049 62.2367 408.258 62.965 408.258 63.801C408.258 64.7003 408.03 65.4857 407.574 66.157C407.13 66.8157 406.529 67.3287 405.769 67.696C405.021 68.0507 404.173 68.228 403.223 68.228ZM403.052 65.929C403.482 65.929 403.862 65.853 404.192 65.701C404.534 65.5363 404.8 65.302 404.99 64.998C405.18 64.694 405.275 64.3457 405.275 63.953C405.275 63.345 405.066 62.8637 404.648 62.509C404.242 62.1417 403.698 61.958 403.014 61.958C402.558 61.958 402.159 62.0467 401.817 62.224C401.475 62.3887 401.202 62.623 401 62.927C400.81 63.2183 400.715 63.5603 400.715 63.953C400.715 64.333 400.81 64.675 401 64.979C401.19 65.2703 401.456 65.5047 401.798 65.682C402.14 65.8467 402.558 65.929 403.052 65.929ZM413.033 63.725L419.417 57.303L421.013 58.975L414.629 65.397L413.033 63.725ZM413.033 58.975L414.629 57.303L421.013 63.725L419.417 65.397L413.033 58.975ZM430.441 68.228C429.517 68.228 428.598 68.1077 427.686 67.867C426.774 67.6137 426.002 67.259 425.368 66.803L426.565 64.447C427.072 64.8143 427.661 65.1057 428.332 65.321C429.004 65.5363 429.681 65.644 430.365 65.644C431.138 65.644 431.746 65.492 432.189 65.188C432.633 64.884 432.854 64.466 432.854 63.934C432.854 63.4273 432.658 63.0283 432.265 62.737C431.873 62.4457 431.239 62.3 430.365 62.3H428.959V60.267L432.664 56.068L433.006 57.17H426.033V54.7H435.343V56.695L431.657 60.894L430.099 60.001H430.992C432.626 60.001 433.861 60.3683 434.697 61.103C435.533 61.8377 435.951 62.7813 435.951 63.934C435.951 64.6813 435.755 65.3843 435.362 66.043C434.97 66.689 434.368 67.2147 433.557 67.62C432.747 68.0253 431.708 68.228 430.441 68.228ZM443.072 68.228C441.983 68.228 441.008 67.962 440.146 67.43C439.285 66.8853 438.607 66.1 438.113 65.074C437.619 64.048 437.372 62.8067 437.372 61.35C437.372 59.8933 437.619 58.652 438.113 57.626C438.607 56.6 439.285 55.821 440.146 55.289C441.008 54.7443 441.983 54.472 443.072 54.472C444.174 54.472 445.15 54.7443 445.998 55.289C446.86 55.821 447.537 56.6 448.031 57.626C448.525 58.652 448.772 59.8933 448.772 61.35C448.772 62.8067 448.525 64.048 448.031 65.074C447.537 66.1 446.86 66.8853 445.998 67.43C445.15 67.962 444.174 68.228 443.072 68.228ZM443.072 65.625C443.592 65.625 444.041 65.4793 444.421 65.188C444.814 64.8967 445.118 64.4343 445.333 63.801C445.561 63.1677 445.675 62.3507 445.675 61.35C445.675 60.3493 445.561 59.5323 445.333 58.899C445.118 58.2657 444.814 57.8033 444.421 57.512C444.041 57.2207 443.592 57.075 443.072 57.075C442.566 57.075 442.116 57.2207 441.723 57.512C441.343 57.8033 441.039 58.2657 440.811 58.899C440.596 59.5323 440.488 60.3493 440.488 61.35C440.488 62.3507 440.596 63.1677 440.811 63.801C441.039 64.4343 441.343 64.8967 441.723 65.188C442.116 65.4793 442.566 65.625 443.072 65.625ZM455.968 68.228C454.879 68.228 453.903 67.962 453.042 67.43C452.181 66.8853 451.503 66.1 451.009 65.074C450.515 64.048 450.268 62.8067 450.268 61.35C450.268 59.8933 450.515 58.652 451.009 57.626C451.503 56.6 452.181 55.821 453.042 55.289C453.903 54.7443 454.879 54.472 455.968 54.472C457.07 54.472 458.045 54.7443 458.894 55.289C459.755 55.821 460.433 56.6 460.927 57.626C461.421 58.652 461.668 59.8933 461.668 61.35C461.668 62.8067 461.421 64.048 460.927 65.074C460.433 66.1 459.755 66.8853 458.894 67.43C458.045 67.962 457.07 68.228 455.968 68.228ZM455.968 65.625C456.487 65.625 456.937 65.4793 457.317 65.188C457.71 64.8967 458.014 64.4343 458.229 63.801C458.457 63.1677 458.571 62.3507 458.571 61.35C458.571 60.3493 458.457 59.5323 458.229 58.899C458.014 58.2657 457.71 57.8033 457.317 57.512C456.937 57.2207 456.487 57.075 455.968 57.075C455.461 57.075 455.012 57.2207 454.619 57.512C454.239 57.8033 453.935 58.2657 453.707 58.899C453.492 59.5323 453.384 60.3493 453.384 61.35C453.384 62.3507 453.492 63.1677 453.707 63.801C453.935 64.4343 454.239 64.8967 454.619 65.188C455.012 65.4793 455.461 65.625 455.968 65.625ZM475.213 68.152C474.352 68.152 473.598 67.962 472.952 67.582C472.306 67.202 471.8 66.6257 471.432 65.853C471.078 65.0677 470.9 64.0797 470.9 62.889C470.9 61.6857 471.071 60.6977 471.413 59.925C471.755 59.1523 472.249 58.576 472.895 58.196C473.541 57.816 474.314 57.626 475.213 57.626C476.176 57.626 477.037 57.8477 477.797 58.291C478.57 58.7217 479.178 59.3297 479.621 60.115C480.077 60.9003 480.305 61.825 480.305 62.889C480.305 63.9657 480.077 64.8967 479.621 65.682C479.178 66.4673 478.57 67.0753 477.797 67.506C477.037 67.9367 476.176 68.152 475.213 68.152ZM469.171 71.686V57.778H472.002V59.868L471.945 62.908L472.135 65.929V71.686H469.171ZM474.7 65.72C475.194 65.72 475.631 65.606 476.011 65.378C476.404 65.15 476.714 64.827 476.942 64.409C477.183 63.9783 477.303 63.4717 477.303 62.889C477.303 62.2937 477.183 61.787 476.942 61.369C476.714 60.951 476.404 60.628 476.011 60.4C475.631 60.172 475.194 60.058 474.7 60.058C474.206 60.058 473.763 60.172 473.37 60.4C472.978 60.628 472.667 60.951 472.439 61.369C472.211 61.787 472.097 62.2937 472.097 62.889C472.097 63.4717 472.211 63.9783 472.439 64.409C472.667 64.827 472.978 65.15 473.37 65.378C473.763 65.606 474.206 65.72 474.7 65.72ZM480.682 68L485.261 61.996L485.204 63.63L480.815 57.778H484.14L486.914 61.597L485.66 61.635L488.529 57.778H491.683L487.275 63.573V61.977L491.835 68H488.472L485.565 63.934L486.8 64.105L483.912 68H480.682Z" fill="white"/>
</svg>
