<svg width="336" height="300" viewBox="0 0 336 300" fill="none" xmlns="http://www.w3.org/2000/svg">
<rect width="336" height="300" fill="#0D0C22"/>
<path d="M129.161 141L135.089 127.7H138.129L144.076 141H140.846L135.982 129.258H137.198L132.315 141H129.161ZM132.125 138.15L132.942 135.813H139.782L140.618 138.15H132.125ZM149.543 141.152C148.58 141.152 147.713 140.937 146.94 140.506C146.167 140.063 145.553 139.448 145.097 138.663C144.654 137.878 144.432 136.953 144.432 135.889C144.432 134.812 144.654 133.881 145.097 133.096C145.553 132.311 146.167 131.703 146.94 131.272C147.713 130.841 148.58 130.626 149.543 130.626C150.404 130.626 151.158 130.816 151.804 131.196C152.45 131.576 152.95 132.152 153.305 132.925C153.66 133.698 153.837 134.686 153.837 135.889C153.837 137.08 153.666 138.068 153.324 138.853C152.982 139.626 152.488 140.202 151.842 140.582C151.209 140.962 150.442 141.152 149.543 141.152ZM150.056 138.72C150.537 138.72 150.974 138.606 151.367 138.378C151.76 138.15 152.07 137.827 152.298 137.409C152.539 136.978 152.659 136.472 152.659 135.889C152.659 135.294 152.539 134.787 152.298 134.369C152.07 133.951 151.76 133.628 151.367 133.4C150.974 133.172 150.537 133.058 150.056 133.058C149.562 133.058 149.119 133.172 148.726 133.4C148.333 133.628 148.017 133.951 147.776 134.369C147.548 134.787 147.434 135.294 147.434 135.889C147.434 136.472 147.548 136.978 147.776 137.409C148.017 137.827 148.333 138.15 148.726 138.378C149.119 138.606 149.562 138.72 150.056 138.72ZM152.735 141V138.91L152.792 135.87L152.602 132.849V126.902H155.566V141H152.735ZM164.051 141V130.55C164.051 129.397 164.393 128.479 165.077 127.795C165.761 127.098 166.737 126.75 168.003 126.75C168.434 126.75 168.846 126.794 169.238 126.883C169.644 126.972 169.986 127.111 170.264 127.301L169.485 129.448C169.321 129.334 169.137 129.245 168.934 129.182C168.732 129.119 168.516 129.087 168.288 129.087C167.858 129.087 167.522 129.214 167.281 129.467C167.053 129.708 166.939 130.075 166.939 130.569V131.519L167.015 132.792V141H164.051ZM162.474 133.286V131.006H169.561V133.286H162.474ZM175.981 141.152C174.816 141.152 173.79 140.924 172.903 140.468C172.029 140.012 171.351 139.391 170.87 138.606C170.389 137.808 170.148 136.902 170.148 135.889C170.148 134.863 170.382 133.957 170.851 133.172C171.332 132.374 171.985 131.753 172.808 131.31C173.631 130.854 174.562 130.626 175.601 130.626C176.602 130.626 177.501 130.841 178.299 131.272C179.11 131.69 179.749 132.298 180.218 133.096C180.687 133.881 180.921 134.825 180.921 135.927C180.921 136.041 180.915 136.174 180.902 136.326C180.889 136.465 180.877 136.598 180.864 136.725H172.561V134.996H179.306L178.166 135.509C178.166 134.977 178.058 134.515 177.843 134.122C177.628 133.729 177.33 133.425 176.95 133.21C176.57 132.982 176.127 132.868 175.62 132.868C175.113 132.868 174.664 132.982 174.271 133.21C173.891 133.425 173.593 133.736 173.378 134.141C173.163 134.534 173.055 135.002 173.055 135.547V136.003C173.055 136.56 173.175 137.054 173.416 137.485C173.669 137.903 174.018 138.226 174.461 138.454C174.917 138.669 175.449 138.777 176.057 138.777C176.602 138.777 177.077 138.695 177.482 138.53C177.9 138.365 178.28 138.118 178.622 137.789L180.199 139.499C179.73 140.031 179.141 140.443 178.432 140.734C177.723 141.013 176.906 141.152 175.981 141.152ZM187.967 141.152C186.802 141.152 185.776 140.924 184.889 140.468C184.015 140.012 183.338 139.391 182.856 138.606C182.375 137.808 182.134 136.902 182.134 135.889C182.134 134.863 182.369 133.957 182.837 133.172C183.319 132.374 183.971 131.753 184.794 131.31C185.618 130.854 186.549 130.626 187.587 130.626C188.588 130.626 189.487 130.841 190.285 131.272C191.096 131.69 191.736 132.298 192.204 133.096C192.673 133.881 192.907 134.825 192.907 135.927C192.907 136.041 192.901 136.174 192.888 136.326C192.876 136.465 192.863 136.598 192.85 136.725H184.547V134.996H191.292L190.152 135.509C190.152 134.977 190.045 134.515 189.829 134.122C189.614 133.729 189.316 133.425 188.936 133.21C188.556 132.982 188.113 132.868 187.606 132.868C187.1 132.868 186.65 132.982 186.257 133.21C185.877 133.425 185.58 133.736 185.364 134.141C185.149 134.534 185.041 135.002 185.041 135.547V136.003C185.041 136.56 185.162 137.054 185.402 137.485C185.656 137.903 186.004 138.226 186.447 138.454C186.903 138.669 187.435 138.777 188.043 138.777C188.588 138.777 189.063 138.695 189.468 138.53C189.886 138.365 190.266 138.118 190.608 137.789L192.185 139.499C191.717 140.031 191.128 140.443 190.418 140.734C189.709 141.013 188.892 141.152 187.967 141.152ZM199.27 141.152C198.307 141.152 197.439 140.937 196.667 140.506C195.894 140.063 195.28 139.448 194.824 138.663C194.38 137.878 194.159 136.953 194.159 135.889C194.159 134.812 194.38 133.881 194.824 133.096C195.28 132.311 195.894 131.703 196.667 131.272C197.439 130.841 198.307 130.626 199.27 130.626C200.131 130.626 200.885 130.816 201.531 131.196C202.177 131.576 202.677 132.152 203.032 132.925C203.386 133.698 203.564 134.686 203.564 135.889C203.564 137.08 203.393 138.068 203.051 138.853C202.709 139.626 202.215 140.202 201.569 140.582C200.935 140.962 200.169 141.152 199.27 141.152ZM199.783 138.72C200.264 138.72 200.701 138.606 201.094 138.378C201.486 138.15 201.797 137.827 202.025 137.409C202.265 136.978 202.386 136.472 202.386 135.889C202.386 135.294 202.265 134.787 202.025 134.369C201.797 133.951 201.486 133.628 201.094 133.4C200.701 133.172 200.264 133.058 199.783 133.058C199.289 133.058 198.845 133.172 198.453 133.4C198.06 133.628 197.743 133.951 197.503 134.369C197.275 134.787 197.161 135.294 197.161 135.889C197.161 136.472 197.275 136.978 197.503 137.409C197.743 137.827 198.06 138.15 198.453 138.378C198.845 138.606 199.289 138.72 199.783 138.72ZM202.462 141V138.91L202.519 135.87L202.329 132.849V126.902H205.293V141H202.462ZM115.516 173.228C114.591 173.228 113.673 173.108 112.761 172.867C111.849 172.614 111.076 172.259 110.443 171.803L111.64 169.447C112.147 169.814 112.736 170.106 113.407 170.321C114.078 170.536 114.756 170.644 115.44 170.644C116.213 170.644 116.821 170.492 117.264 170.188C117.707 169.884 117.929 169.466 117.929 168.934C117.929 168.427 117.733 168.028 117.34 167.737C116.947 167.446 116.314 167.3 115.44 167.3H114.034V165.267L117.739 161.068L118.081 162.17H111.108V159.7H120.418V161.695L116.732 165.894L115.174 165.001H116.067C117.701 165.001 118.936 165.368 119.772 166.103C120.608 166.838 121.026 167.781 121.026 168.934C121.026 169.681 120.83 170.384 120.437 171.043C120.044 171.689 119.443 172.215 118.632 172.62C117.821 173.025 116.783 173.228 115.516 173.228ZM126.667 173.228C125.743 173.228 124.824 173.108 123.912 172.867C123 172.614 122.228 172.259 121.594 171.803L122.791 169.447C123.298 169.814 123.887 170.106 124.558 170.321C125.23 170.536 125.907 170.644 126.591 170.644C127.364 170.644 127.972 170.492 128.415 170.188C128.859 169.884 129.08 169.466 129.08 168.934C129.08 168.427 128.884 168.028 128.491 167.737C128.099 167.446 127.465 167.3 126.591 167.3H125.185V165.267L128.89 161.068L129.232 162.17H122.259V159.7H131.569V161.695L127.883 165.894L126.325 165.001H127.218C128.852 165.001 130.087 165.368 130.923 166.103C131.759 166.838 132.177 167.781 132.177 168.934C132.177 169.681 131.981 170.384 131.588 171.043C131.196 171.689 130.594 172.215 129.783 172.62C128.973 173.025 127.934 173.228 126.667 173.228ZM139.545 173.228C138.329 173.228 137.272 172.975 136.372 172.468C135.486 171.961 134.802 171.22 134.32 170.245C133.839 169.27 133.598 168.066 133.598 166.635C133.598 165.102 133.883 163.804 134.453 162.74C135.036 161.676 135.834 160.865 136.847 160.308C137.873 159.751 139.051 159.472 140.381 159.472C141.091 159.472 141.768 159.548 142.414 159.7C143.06 159.852 143.618 160.08 144.086 160.384L142.946 162.645C142.579 162.392 142.186 162.221 141.768 162.132C141.35 162.031 140.913 161.98 140.457 161.98C139.305 161.98 138.393 162.328 137.721 163.025C137.05 163.722 136.714 164.754 136.714 166.122C136.714 166.35 136.714 166.603 136.714 166.882C136.727 167.161 136.765 167.439 136.828 167.718L135.973 166.92C136.214 166.426 136.524 166.014 136.904 165.685C137.284 165.343 137.734 165.09 138.253 164.925C138.785 164.748 139.368 164.659 140.001 164.659C140.863 164.659 141.635 164.83 142.319 165.172C143.003 165.514 143.548 165.995 143.953 166.616C144.371 167.237 144.58 167.965 144.58 168.801C144.58 169.7 144.352 170.486 143.896 171.157C143.453 171.816 142.851 172.329 142.091 172.696C141.344 173.051 140.495 173.228 139.545 173.228ZM139.374 170.929C139.805 170.929 140.185 170.853 140.514 170.701C140.856 170.536 141.122 170.302 141.312 169.998C141.502 169.694 141.597 169.346 141.597 168.953C141.597 168.345 141.388 167.864 140.97 167.509C140.565 167.142 140.02 166.958 139.336 166.958C138.88 166.958 138.481 167.047 138.139 167.224C137.797 167.389 137.525 167.623 137.322 167.927C137.132 168.218 137.037 168.56 137.037 168.953C137.037 169.333 137.132 169.675 137.322 169.979C137.512 170.27 137.778 170.505 138.12 170.682C138.462 170.847 138.88 170.929 139.374 170.929ZM146.665 168.725L153.049 162.303L154.645 163.975L148.261 170.397L146.665 168.725ZM146.665 163.975L148.261 162.303L154.645 168.725L153.049 170.397L146.665 163.975ZM164.074 173.228C163.149 173.228 162.231 173.108 161.319 172.867C160.407 172.614 159.634 172.259 159.001 171.803L160.198 169.447C160.704 169.814 161.293 170.106 161.965 170.321C162.636 170.536 163.314 170.644 163.998 170.644C164.77 170.644 165.378 170.492 165.822 170.188C166.265 169.884 166.487 169.466 166.487 168.934C166.487 168.427 166.29 168.028 165.898 167.737C165.505 167.446 164.872 167.3 163.998 167.3H162.592V165.267L166.297 161.068L166.639 162.17H159.666V159.7H168.976V161.695L165.29 165.894L163.732 165.001H164.625C166.259 165.001 167.494 165.368 168.33 166.103C169.166 166.838 169.584 167.781 169.584 168.934C169.584 169.681 169.387 170.384 168.995 171.043C168.602 171.689 168 172.215 167.19 172.62C166.379 173.025 165.34 173.228 164.074 173.228ZM176.705 173.228C175.615 173.228 174.64 172.962 173.779 172.43C172.917 171.885 172.24 171.1 171.746 170.074C171.252 169.048 171.005 167.807 171.005 166.35C171.005 164.893 171.252 163.652 171.746 162.626C172.24 161.6 172.917 160.821 173.779 160.289C174.64 159.744 175.615 159.472 176.705 159.472C177.807 159.472 178.782 159.744 179.631 160.289C180.492 160.821 181.17 161.6 181.664 162.626C182.158 163.652 182.405 164.893 182.405 166.35C182.405 167.807 182.158 169.048 181.664 170.074C181.17 171.1 180.492 171.885 179.631 172.43C178.782 172.962 177.807 173.228 176.705 173.228ZM176.705 170.625C177.224 170.625 177.674 170.479 178.054 170.188C178.446 169.897 178.75 169.434 178.966 168.801C179.194 168.168 179.308 167.351 179.308 166.35C179.308 165.349 179.194 164.532 178.966 163.899C178.75 163.266 178.446 162.803 178.054 162.512C177.674 162.221 177.224 162.075 176.705 162.075C176.198 162.075 175.748 162.221 175.356 162.512C174.976 162.803 174.672 163.266 174.444 163.899C174.228 164.532 174.121 165.349 174.121 166.35C174.121 167.351 174.228 168.168 174.444 168.801C174.672 169.434 174.976 169.897 175.356 170.188C175.748 170.479 176.198 170.625 176.705 170.625ZM189.6 173.228C188.511 173.228 187.536 172.962 186.674 172.43C185.813 171.885 185.135 171.1 184.641 170.074C184.147 169.048 183.9 167.807 183.9 166.35C183.9 164.893 184.147 163.652 184.641 162.626C185.135 161.6 185.813 160.821 186.674 160.289C187.536 159.744 188.511 159.472 189.6 159.472C190.702 159.472 191.678 159.744 192.526 160.289C193.388 160.821 194.065 161.6 194.559 162.626C195.053 163.652 195.3 164.893 195.3 166.35C195.3 167.807 195.053 169.048 194.559 170.074C194.065 171.1 193.388 171.885 192.526 172.43C191.678 172.962 190.702 173.228 189.6 173.228ZM189.6 170.625C190.12 170.625 190.569 170.479 190.949 170.188C191.342 169.897 191.646 169.434 191.861 168.801C192.089 168.168 192.203 167.351 192.203 166.35C192.203 165.349 192.089 164.532 191.861 163.899C191.646 163.266 191.342 162.803 190.949 162.512C190.569 162.221 190.12 162.075 189.6 162.075C189.094 162.075 188.644 162.221 188.251 162.512C187.871 162.803 187.567 163.266 187.339 163.899C187.124 164.532 187.016 165.349 187.016 166.35C187.016 167.351 187.124 168.168 187.339 168.801C187.567 169.434 187.871 169.897 188.251 170.188C188.644 170.479 189.094 170.625 189.6 170.625ZM208.846 173.152C207.984 173.152 207.231 172.962 206.585 172.582C205.939 172.202 205.432 171.626 205.065 170.853C204.71 170.068 204.533 169.08 204.533 167.889C204.533 166.686 204.704 165.698 205.046 164.925C205.388 164.152 205.882 163.576 206.528 163.196C207.174 162.816 207.946 162.626 208.846 162.626C209.808 162.626 210.67 162.848 211.43 163.291C212.202 163.722 212.81 164.33 213.254 165.115C213.71 165.9 213.938 166.825 213.938 167.889C213.938 168.966 213.71 169.897 213.254 170.682C212.81 171.467 212.202 172.075 211.43 172.506C210.67 172.937 209.808 173.152 208.846 173.152ZM202.804 176.686V162.778H205.635V164.868L205.578 167.908L205.768 170.929V176.686H202.804ZM208.333 170.72C208.827 170.72 209.264 170.606 209.644 170.378C210.036 170.15 210.347 169.827 210.575 169.409C210.815 168.978 210.936 168.472 210.936 167.889C210.936 167.294 210.815 166.787 210.575 166.369C210.347 165.951 210.036 165.628 209.644 165.4C209.264 165.172 208.827 165.058 208.333 165.058C207.839 165.058 207.395 165.172 207.003 165.4C206.61 165.628 206.3 165.951 206.072 166.369C205.844 166.787 205.73 167.294 205.73 167.889C205.73 168.472 205.844 168.978 206.072 169.409C206.3 169.827 206.61 170.15 207.003 170.378C207.395 170.606 207.839 170.72 208.333 170.72ZM214.314 173L218.893 166.996L218.836 168.63L214.447 162.778H217.772L220.546 166.597L219.292 166.635L222.161 162.778H225.315L220.907 168.573V166.977L225.467 173H222.104L219.197 168.934L220.432 169.105L217.544 173H214.314Z" fill="white"/>
</svg>
