<svg width="728" height="90" viewBox="0 0 728 90" fill="none" xmlns="http://www.w3.org/2000/svg">
<g clip-path="url(#clip0_2601_15002)">
<path d="M728 0H0V90H728V0Z" fill="#F86F03"/>
<path d="M329.825 40L334.817 28.8H337.377L342.385 40H339.665L335.569 30.112H336.593L332.481 40H329.825ZM332.321 37.6L333.009 35.632H338.769L339.473 37.6H332.321ZM346.989 40.128C346.178 40.128 345.447 39.9467 344.797 39.584C344.146 39.2107 343.629 38.6933 343.245 38.032C342.871 37.3707 342.685 36.592 342.685 35.696C342.685 34.7893 342.871 34.0053 343.245 33.344C343.629 32.6827 344.146 32.1707 344.797 31.808C345.447 31.4453 346.178 31.264 346.989 31.264C347.714 31.264 348.349 31.424 348.893 31.744C349.437 32.064 349.858 32.5493 350.157 33.2C350.455 33.8507 350.605 34.6827 350.605 35.696C350.605 36.6987 350.461 37.5307 350.173 38.192C349.885 38.8427 349.469 39.328 348.925 39.648C348.391 39.968 347.746 40.128 346.989 40.128ZM347.421 38.08C347.826 38.08 348.194 37.984 348.525 37.792C348.855 37.6 349.117 37.328 349.309 36.976C349.511 36.6133 349.613 36.1867 349.613 35.696C349.613 35.1947 349.511 34.768 349.309 34.416C349.117 34.064 348.855 33.792 348.525 33.6C348.194 33.408 347.826 33.312 347.421 33.312C347.005 33.312 346.631 33.408 346.301 33.6C345.97 33.792 345.703 34.064 345.501 34.416C345.309 34.768 345.213 35.1947 345.213 35.696C345.213 36.1867 345.309 36.6133 345.501 36.976C345.703 37.328 345.97 37.6 346.301 37.792C346.631 37.984 347.005 38.08 347.421 38.08ZM349.677 40V38.24L349.725 35.68L349.565 33.136V28.128H352.061V40H349.677ZM361.478 33.84H366.854V35.92H361.478V33.84ZM361.67 40H359.078V28.8H367.542V30.88H361.67V40ZM373.19 40.128C372.208 40.128 371.344 39.936 370.598 39.552C369.862 39.168 369.291 38.6453 368.886 37.984C368.48 37.312 368.278 36.5493 368.278 35.696C368.278 34.832 368.475 34.0693 368.87 33.408C369.275 32.736 369.824 32.2133 370.518 31.84C371.211 31.456 371.995 31.264 372.87 31.264C373.712 31.264 374.47 31.4453 375.142 31.808C375.824 32.16 376.363 32.672 376.758 33.344C377.152 34.0053 377.35 34.8 377.35 35.728C377.35 35.824 377.344 35.936 377.334 36.064C377.323 36.1813 377.312 36.2933 377.302 36.4H370.31V34.944H375.99L375.03 35.376C375.03 34.928 374.939 34.5387 374.758 34.208C374.576 33.8773 374.326 33.6213 374.006 33.44C373.686 33.248 373.312 33.152 372.886 33.152C372.459 33.152 372.08 33.248 371.75 33.44C371.43 33.6213 371.179 33.8827 370.998 34.224C370.816 34.5547 370.726 34.9493 370.726 35.408V35.792C370.726 36.2613 370.827 36.6773 371.03 37.04C371.243 37.392 371.536 37.664 371.91 37.856C372.294 38.0373 372.742 38.128 373.254 38.128C373.712 38.128 374.112 38.0587 374.454 37.92C374.806 37.7813 375.126 37.5733 375.414 37.296L376.742 38.736C376.347 39.184 375.851 39.5307 375.254 39.776C374.656 40.0107 373.968 40.128 373.19 40.128ZM383.283 40.128C382.302 40.128 381.438 39.936 380.691 39.552C379.955 39.168 379.385 38.6453 378.979 37.984C378.574 37.312 378.371 36.5493 378.371 35.696C378.371 34.832 378.569 34.0693 378.963 33.408C379.369 32.736 379.918 32.2133 380.611 31.84C381.305 31.456 382.089 31.264 382.963 31.264C383.806 31.264 384.563 31.4453 385.235 31.808C385.918 32.16 386.457 32.672 386.851 33.344C387.246 34.0053 387.443 34.8 387.443 35.728C387.443 35.824 387.438 35.936 387.427 36.064C387.417 36.1813 387.406 36.2933 387.395 36.4H380.403V34.944H386.083L385.123 35.376C385.123 34.928 385.033 34.5387 384.851 34.208C384.67 33.8773 384.419 33.6213 384.099 33.44C383.779 33.248 383.406 33.152 382.979 33.152C382.553 33.152 382.174 33.248 381.843 33.44C381.523 33.6213 381.273 33.8827 381.091 34.224C380.91 34.5547 380.819 34.9493 380.819 35.408V35.792C380.819 36.2613 380.921 36.6773 381.123 37.04C381.337 37.392 381.63 37.664 382.003 37.856C382.387 38.0373 382.835 38.128 383.347 38.128C383.806 38.128 384.206 38.0587 384.547 37.92C384.899 37.7813 385.219 37.5733 385.507 37.296L386.835 38.736C386.441 39.184 385.945 39.5307 385.347 39.776C384.75 40.0107 384.062 40.128 383.283 40.128ZM392.801 40.128C391.99 40.128 391.26 39.9467 390.609 39.584C389.958 39.2107 389.441 38.6933 389.057 38.032C388.684 37.3707 388.497 36.592 388.497 35.696C388.497 34.7893 388.684 34.0053 389.057 33.344C389.441 32.6827 389.958 32.1707 390.609 31.808C391.26 31.4453 391.99 31.264 392.801 31.264C393.526 31.264 394.161 31.424 394.705 31.744C395.249 32.064 395.67 32.5493 395.969 33.2C396.268 33.8507 396.417 34.6827 396.417 35.696C396.417 36.6987 396.273 37.5307 395.985 38.192C395.697 38.8427 395.281 39.328 394.737 39.648C394.204 39.968 393.558 40.128 392.801 40.128ZM393.233 38.08C393.638 38.08 394.006 37.984 394.337 37.792C394.668 37.6 394.929 37.328 395.121 36.976C395.324 36.6133 395.425 36.1867 395.425 35.696C395.425 35.1947 395.324 34.768 395.121 34.416C394.929 34.064 394.668 33.792 394.337 33.6C394.006 33.408 393.638 33.312 393.233 33.312C392.817 33.312 392.444 33.408 392.113 33.6C391.782 33.792 391.516 34.064 391.313 34.416C391.121 34.768 391.025 35.1947 391.025 35.696C391.025 36.1867 391.121 36.6133 391.313 36.976C391.516 37.328 391.782 37.6 392.113 37.792C392.444 37.984 392.817 38.08 393.233 38.08ZM395.489 40V38.24L395.537 35.68L395.377 33.136V28.128H397.873V40H395.489ZM267.127 64L271.639 53.792L272.311 54.912H266.279L267.431 53.696V56.736H265.127V52.8H274.103V54.48L269.943 64H267.127ZM275.161 64V62.32L279.481 58.24C279.822 57.9307 280.073 57.6533 280.233 57.408C280.393 57.1627 280.499 56.9387 280.553 56.736C280.617 56.5333 280.649 56.3467 280.649 56.176C280.649 55.728 280.494 55.3867 280.185 55.152C279.886 54.9067 279.443 54.784 278.857 54.784C278.387 54.784 277.95 54.8747 277.545 55.056C277.15 55.2373 276.814 55.52 276.537 55.904L274.649 54.688C275.075 54.048 275.673 53.5413 276.441 53.168C277.209 52.7947 278.094 52.608 279.097 52.608C279.929 52.608 280.654 52.7467 281.273 53.024C281.902 53.2907 282.387 53.6693 282.729 54.16C283.081 54.6507 283.257 55.2373 283.257 55.92C283.257 56.2827 283.209 56.6453 283.113 57.008C283.027 57.36 282.846 57.7333 282.569 58.128C282.302 58.5227 281.907 58.9653 281.385 59.456L277.801 62.832L277.305 61.888H283.625V64H275.161ZM289.334 64.192C288.396 64.192 287.574 64.0533 286.87 63.776C286.166 63.488 285.617 63.088 285.222 62.576C284.828 62.0533 284.63 61.4453 284.63 60.752C284.63 60.0587 284.822 59.472 285.206 58.992C285.601 58.5013 286.15 58.1333 286.854 57.888C287.558 57.632 288.385 57.504 289.334 57.504C290.294 57.504 291.126 57.632 291.83 57.888C292.545 58.1333 293.094 58.5013 293.478 58.992C293.873 59.472 294.07 60.0587 294.07 60.752C294.07 61.4453 293.873 62.0533 293.478 62.576C293.084 63.088 292.529 63.488 291.814 63.776C291.11 64.0533 290.284 64.192 289.334 64.192ZM289.334 62.288C289.985 62.288 290.497 62.144 290.87 61.856C291.254 61.568 291.446 61.1733 291.446 60.672C291.446 60.1707 291.254 59.7813 290.87 59.504C290.497 59.216 289.985 59.072 289.334 59.072C288.694 59.072 288.188 59.216 287.814 59.504C287.441 59.7813 287.254 60.1707 287.254 60.672C287.254 61.1733 287.441 61.568 287.814 61.856C288.188 62.144 288.694 62.288 289.334 62.288ZM289.334 58.816C288.47 58.816 287.713 58.6987 287.062 58.464C286.422 58.2293 285.921 57.888 285.558 57.44C285.206 56.9813 285.03 56.4373 285.03 55.808C285.03 55.1467 285.212 54.5813 285.574 54.112C285.937 53.632 286.444 53.264 287.094 53.008C287.745 52.7413 288.492 52.608 289.334 52.608C290.198 52.608 290.95 52.7413 291.59 53.008C292.241 53.264 292.748 53.632 293.11 54.112C293.484 54.5813 293.67 55.1467 293.67 55.808C293.67 56.4373 293.489 56.9813 293.126 57.44C292.774 57.888 292.273 58.2293 291.622 58.464C290.972 58.6987 290.209 58.816 289.334 58.816ZM289.334 57.296C289.878 57.296 290.305 57.1733 290.614 56.928C290.934 56.6827 291.094 56.3467 291.094 55.92C291.094 55.472 290.929 55.1253 290.598 54.88C290.278 54.6347 289.857 54.512 289.334 54.512C288.822 54.512 288.406 54.6347 288.086 54.88C287.766 55.1253 287.606 55.472 287.606 55.92C287.606 56.3467 287.761 56.6827 288.07 56.928C288.38 57.1733 288.801 57.296 289.334 57.296ZM294.541 64L298.397 58.944L298.349 60.32L294.653 55.392H297.453L299.789 58.608L298.733 58.64L301.149 55.392H303.805L300.093 60.272V58.928L303.933 64H301.101L298.653 60.576L299.693 60.72L297.261 64H294.541ZM308.552 52.608C309.587 52.608 310.478 52.8213 311.224 53.248C311.971 53.6747 312.547 54.2987 312.952 55.12C313.358 55.9307 313.56 56.944 313.56 58.16C313.56 59.4507 313.315 60.544 312.824 61.44C312.344 62.336 311.678 63.0187 310.824 63.488C309.971 63.9573 308.979 64.192 307.848 64.192C307.262 64.192 306.696 64.128 306.152 64C305.608 63.872 305.139 63.68 304.744 63.424L305.704 61.52C306.014 61.7333 306.344 61.8827 306.696 61.968C307.048 62.0427 307.416 62.08 307.8 62.08C308.76 62.08 309.523 61.7867 310.088 61.2C310.664 60.6133 310.952 59.744 310.952 58.592C310.952 58.4 310.947 58.1867 310.936 57.952C310.926 57.7173 310.899 57.4827 310.856 57.248L311.56 57.92C311.379 58.336 311.123 58.688 310.792 58.976C310.462 59.2533 310.078 59.4667 309.64 59.616C309.203 59.7547 308.712 59.824 308.168 59.824C307.454 59.824 306.803 59.68 306.216 59.392C305.64 59.104 305.176 58.6987 304.824 58.176C304.483 57.6533 304.312 57.04 304.312 56.336C304.312 55.568 304.499 54.9067 304.872 54.352C305.256 53.7973 305.768 53.3707 306.408 53.072C307.059 52.7627 307.774 52.608 308.552 52.608ZM308.712 54.544C308.339 54.544 308.014 54.6133 307.736 54.752C307.459 54.88 307.24 55.072 307.08 55.328C306.92 55.5733 306.84 55.8667 306.84 56.208C306.84 56.72 307.011 57.1307 307.352 57.44C307.704 57.7387 308.168 57.888 308.744 57.888C309.118 57.888 309.448 57.8187 309.736 57.68C310.035 57.5307 310.264 57.328 310.424 57.072C310.584 56.816 310.664 56.528 310.664 56.208C310.664 55.888 310.584 55.6053 310.424 55.36C310.275 55.104 310.056 54.9067 309.768 54.768C309.48 54.6187 309.128 54.544 308.712 54.544ZM319.604 64.192C318.686 64.192 317.865 63.968 317.14 63.52C316.414 63.0613 315.844 62.4 315.428 61.536C315.012 60.672 314.804 59.6267 314.804 58.4C314.804 57.1733 315.012 56.128 315.428 55.264C315.844 54.4 316.414 53.744 317.14 53.296C317.865 52.8373 318.686 52.608 319.604 52.608C320.532 52.608 321.353 52.8373 322.068 53.296C322.793 53.744 323.364 54.4 323.78 55.264C324.196 56.128 324.404 57.1733 324.404 58.4C324.404 59.6267 324.196 60.672 323.78 61.536C323.364 62.4 322.793 63.0613 322.068 63.52C321.353 63.968 320.532 64.192 319.604 64.192ZM319.604 62C320.041 62 320.42 61.8773 320.74 61.632C321.07 61.3867 321.326 60.9973 321.508 60.464C321.7 59.9307 321.796 59.2427 321.796 58.4C321.796 57.5573 321.7 56.8693 321.508 56.336C321.326 55.8027 321.07 55.4133 320.74 55.168C320.42 54.9227 320.041 54.8 319.604 54.8C319.177 54.8 318.798 54.9227 318.468 55.168C318.148 55.4133 317.892 55.8027 317.7 56.336C317.518 56.8693 317.428 57.5573 317.428 58.4C317.428 59.2427 317.518 59.9307 317.7 60.464C317.892 60.9973 318.148 61.3867 318.468 61.632C318.798 61.8773 319.177 62 319.604 62ZM331.279 64.128C330.554 64.128 329.919 63.968 329.375 63.648C328.831 63.328 328.404 62.8427 328.095 62.192C327.796 61.5307 327.647 60.6987 327.647 59.696C327.647 58.6827 327.791 57.8507 328.079 57.2C328.367 56.5493 328.783 56.064 329.327 55.744C329.871 55.424 330.522 55.264 331.279 55.264C332.09 55.264 332.815 55.4507 333.455 55.824C334.106 56.1867 334.618 56.6987 334.991 57.36C335.375 58.0213 335.567 58.8 335.567 59.696C335.567 60.6027 335.375 61.3867 334.991 62.048C334.618 62.7093 334.106 63.2213 333.455 63.584C332.815 63.9467 332.09 64.128 331.279 64.128ZM326.191 67.104V55.392H328.575V57.152L328.527 59.712L328.687 62.256V67.104H326.191ZM330.847 62.08C331.263 62.08 331.631 61.984 331.951 61.792C332.282 61.6 332.543 61.328 332.735 60.976C332.938 60.6133 333.039 60.1867 333.039 59.696C333.039 59.1947 332.938 58.768 332.735 58.416C332.543 58.064 332.282 57.792 331.951 57.6C331.631 57.408 331.263 57.312 330.847 57.312C330.431 57.312 330.058 57.408 329.727 57.6C329.396 57.792 329.135 58.064 328.943 58.416C328.751 58.768 328.655 59.1947 328.655 59.696C328.655 60.1867 328.751 60.6133 328.943 60.976C329.135 61.328 329.396 61.6 329.727 61.792C330.058 61.984 330.431 62.08 330.847 62.08ZM335.884 64L339.74 58.944L339.692 60.32L335.996 55.392H338.796L341.132 58.608L340.076 58.64L342.492 55.392H345.148L341.436 60.272V58.928L345.276 64H342.444L339.996 60.576L341.036 60.72L338.604 64H335.884ZM355.23 60.496V58.496H359.758V60.496H355.23ZM361.562 62.336V60.336L368.426 57.84V58.96L361.562 56.464V54.464L369.178 57.36V59.44L361.562 62.336ZM378.936 64.192C378.157 64.192 377.384 64.0907 376.616 63.888C375.848 63.6747 375.197 63.376 374.664 62.992L375.672 61.008C376.098 61.3173 376.594 61.5627 377.16 61.744C377.725 61.9253 378.296 62.016 378.872 62.016C379.522 62.016 380.034 61.888 380.408 61.632C380.781 61.376 380.968 61.024 380.968 60.576C380.968 60.1493 380.802 59.8133 380.472 59.568C380.141 59.3227 379.608 59.2 378.872 59.2H377.688V57.488L380.808 53.952L381.096 54.88H375.224V52.8H383.064V54.48L379.96 58.016L378.648 57.264H379.4C380.776 57.264 381.816 57.5733 382.52 58.192C383.224 58.8107 383.576 59.6053 383.576 60.576C383.576 61.2053 383.41 61.7973 383.08 62.352C382.749 62.896 382.242 63.3387 381.56 63.68C380.877 64.0213 380.002 64.192 378.936 64.192ZM388.326 64.192C387.548 64.192 386.774 64.0907 386.006 63.888C385.238 63.6747 384.588 63.376 384.054 62.992L385.062 61.008C385.489 61.3173 385.985 61.5627 386.55 61.744C387.116 61.9253 387.686 62.016 388.262 62.016C388.913 62.016 389.425 61.888 389.798 61.632C390.172 61.376 390.358 61.024 390.358 60.576C390.358 60.1493 390.193 59.8133 389.862 59.568C389.532 59.3227 388.998 59.2 388.262 59.2H387.078V57.488L390.198 53.952L390.486 54.88H384.614V52.8H392.454V54.48L389.35 58.016L388.038 57.264H388.79C390.166 57.264 391.206 57.5733 391.91 58.192C392.614 58.8107 392.966 59.6053 392.966 60.576C392.966 61.2053 392.801 61.7973 392.47 62.352C392.14 62.896 391.633 63.3387 390.95 63.68C390.268 64.0213 389.393 64.192 388.326 64.192ZM399.171 64.192C398.147 64.192 397.256 63.9787 396.499 63.552C395.752 63.1253 395.176 62.5013 394.771 61.68C394.366 60.8587 394.163 59.8453 394.163 58.64C394.163 57.3493 394.403 56.256 394.883 55.36C395.374 54.464 396.046 53.7813 396.899 53.312C397.763 52.8427 398.755 52.608 399.875 52.608C400.472 52.608 401.043 52.672 401.587 52.8C402.131 52.928 402.6 53.12 402.995 53.376L402.035 55.28C401.726 55.0667 401.395 54.9227 401.043 54.848C400.691 54.7627 400.323 54.72 399.939 54.72C398.968 54.72 398.2 55.0133 397.635 55.6C397.07 56.1867 396.787 57.056 396.787 58.208C396.787 58.4 396.787 58.6133 396.787 58.848C396.798 59.0827 396.83 59.3173 396.883 59.552L396.163 58.88C396.366 58.464 396.627 58.1173 396.947 57.84C397.267 57.552 397.646 57.3387 398.083 57.2C398.531 57.0507 399.022 56.976 399.555 56.976C400.28 56.976 400.931 57.12 401.507 57.408C402.083 57.696 402.542 58.1013 402.883 58.624C403.235 59.1467 403.411 59.76 403.411 60.464C403.411 61.2213 403.219 61.8827 402.835 62.448C402.462 63.0027 401.955 63.4347 401.315 63.744C400.686 64.0427 399.971 64.192 399.171 64.192ZM399.027 62.256C399.39 62.256 399.71 62.192 399.987 62.064C400.275 61.9253 400.499 61.728 400.659 61.472C400.819 61.216 400.899 60.9227 400.899 60.592C400.899 60.08 400.723 59.6747 400.371 59.376C400.03 59.0667 399.571 58.912 398.995 58.912C398.611 58.912 398.275 58.9867 397.987 59.136C397.699 59.2747 397.47 59.472 397.299 59.728C397.139 59.9733 397.059 60.2613 397.059 60.592C397.059 60.912 397.139 61.2 397.299 61.456C397.459 61.7013 397.683 61.8987 397.971 62.048C398.259 62.1867 398.611 62.256 399.027 62.256ZM403.556 64L407.412 58.944L407.364 60.32L403.668 55.392H406.468L408.804 58.608L407.748 58.64L410.164 55.392H412.82L409.108 60.272V58.928L412.948 64H410.116L407.668 60.576L408.708 60.72L406.276 64H403.556ZM413.661 64V62.32L417.981 58.24C418.322 57.9307 418.573 57.6533 418.733 57.408C418.893 57.1627 418.999 56.9387 419.053 56.736C419.117 56.5333 419.149 56.3467 419.149 56.176C419.149 55.728 418.994 55.3867 418.685 55.152C418.386 54.9067 417.943 54.784 417.357 54.784C416.887 54.784 416.45 54.8747 416.045 55.056C415.65 55.2373 415.314 55.52 415.037 55.904L413.149 54.688C413.575 54.048 414.173 53.5413 414.941 53.168C415.709 52.7947 416.594 52.608 417.597 52.608C418.429 52.608 419.154 52.7467 419.773 53.024C420.402 53.2907 420.887 53.6693 421.229 54.16C421.581 54.6507 421.757 55.2373 421.757 55.92C421.757 56.2827 421.709 56.6453 421.613 57.008C421.527 57.36 421.346 57.7333 421.069 58.128C420.802 58.5227 420.407 58.9653 419.885 59.456L416.301 62.832L415.805 61.888H422.125V64H413.661ZM427.834 64.192C426.896 64.192 426.074 64.0533 425.37 63.776C424.666 63.488 424.117 63.088 423.722 62.576C423.328 62.0533 423.13 61.4453 423.13 60.752C423.13 60.0587 423.322 59.472 423.706 58.992C424.101 58.5013 424.65 58.1333 425.354 57.888C426.058 57.632 426.885 57.504 427.834 57.504C428.794 57.504 429.626 57.632 430.33 57.888C431.045 58.1333 431.594 58.5013 431.978 58.992C432.373 59.472 432.57 60.0587 432.57 60.752C432.57 61.4453 432.373 62.0533 431.978 62.576C431.584 63.088 431.029 63.488 430.314 63.776C429.61 64.0533 428.784 64.192 427.834 64.192ZM427.834 62.288C428.485 62.288 428.997 62.144 429.37 61.856C429.754 61.568 429.946 61.1733 429.946 60.672C429.946 60.1707 429.754 59.7813 429.37 59.504C428.997 59.216 428.485 59.072 427.834 59.072C427.194 59.072 426.688 59.216 426.314 59.504C425.941 59.7813 425.754 60.1707 425.754 60.672C425.754 61.1733 425.941 61.568 426.314 61.856C426.688 62.144 427.194 62.288 427.834 62.288ZM427.834 58.816C426.97 58.816 426.213 58.6987 425.562 58.464C424.922 58.2293 424.421 57.888 424.058 57.44C423.706 56.9813 423.53 56.4373 423.53 55.808C423.53 55.1467 423.712 54.5813 424.074 54.112C424.437 53.632 424.944 53.264 425.594 53.008C426.245 52.7413 426.992 52.608 427.834 52.608C428.698 52.608 429.45 52.7413 430.09 53.008C430.741 53.264 431.248 53.632 431.61 54.112C431.984 54.5813 432.17 55.1467 432.17 55.808C432.17 56.4373 431.989 56.9813 431.626 57.44C431.274 57.888 430.773 58.2293 430.122 58.464C429.472 58.6987 428.709 58.816 427.834 58.816ZM427.834 57.296C428.378 57.296 428.805 57.1733 429.114 56.928C429.434 56.6827 429.594 56.3467 429.594 55.92C429.594 55.472 429.429 55.1253 429.098 54.88C428.778 54.6347 428.357 54.512 427.834 54.512C427.322 54.512 426.906 54.6347 426.586 54.88C426.266 55.1253 426.106 55.472 426.106 55.92C426.106 56.3467 426.261 56.6827 426.57 56.928C426.88 57.1733 427.301 57.296 427.834 57.296ZM438.557 64.192C437.639 64.192 436.818 63.968 436.093 63.52C435.367 63.0613 434.797 62.4 434.381 61.536C433.965 60.672 433.757 59.6267 433.757 58.4C433.757 57.1733 433.965 56.128 434.381 55.264C434.797 54.4 435.367 53.744 436.093 53.296C436.818 52.8373 437.639 52.608 438.557 52.608C439.485 52.608 440.306 52.8373 441.021 53.296C441.746 53.744 442.317 54.4 442.733 55.264C443.149 56.128 443.357 57.1733 443.357 58.4C443.357 59.6267 443.149 60.672 442.733 61.536C442.317 62.4 441.746 63.0613 441.021 63.52C440.306 63.968 439.485 64.192 438.557 64.192ZM438.557 62C438.994 62 439.373 61.8773 439.693 61.632C440.023 61.3867 440.279 60.9973 440.461 60.464C440.653 59.9307 440.749 59.2427 440.749 58.4C440.749 57.5573 440.653 56.8693 440.461 56.336C440.279 55.8027 440.023 55.4133 439.693 55.168C439.373 54.9227 438.994 54.8 438.557 54.8C438.13 54.8 437.751 54.9227 437.421 55.168C437.101 55.4133 436.845 55.8027 436.653 56.336C436.471 56.8693 436.381 57.5573 436.381 58.4C436.381 59.2427 436.471 59.9307 436.653 60.464C436.845 60.9973 437.101 61.3867 437.421 61.632C437.751 61.8773 438.13 62 438.557 62ZM450.232 64.128C449.507 64.128 448.872 63.968 448.328 63.648C447.784 63.328 447.358 62.8427 447.048 62.192C446.75 61.5307 446.6 60.6987 446.6 59.696C446.6 58.6827 446.744 57.8507 447.032 57.2C447.32 56.5493 447.736 56.064 448.28 55.744C448.824 55.424 449.475 55.264 450.232 55.264C451.043 55.264 451.768 55.4507 452.408 55.824C453.059 56.1867 453.571 56.6987 453.944 57.36C454.328 58.0213 454.52 58.8 454.52 59.696C454.52 60.6027 454.328 61.3867 453.944 62.048C453.571 62.7093 453.059 63.2213 452.408 63.584C451.768 63.9467 451.043 64.128 450.232 64.128ZM445.144 67.104V55.392H447.528V57.152L447.48 59.712L447.64 62.256V67.104H445.144ZM449.8 62.08C450.216 62.08 450.584 61.984 450.904 61.792C451.235 61.6 451.496 61.328 451.688 60.976C451.891 60.6133 451.992 60.1867 451.992 59.696C451.992 59.1947 451.891 58.768 451.688 58.416C451.496 58.064 451.235 57.792 450.904 57.6C450.584 57.408 450.216 57.312 449.8 57.312C449.384 57.312 449.011 57.408 448.68 57.6C448.35 57.792 448.088 58.064 447.896 58.416C447.704 58.768 447.608 59.1947 447.608 59.696C447.608 60.1867 447.704 60.6133 447.896 60.976C448.088 61.328 448.35 61.6 448.68 61.792C449.011 61.984 449.384 62.08 449.8 62.08ZM454.837 64L458.693 58.944L458.645 60.32L454.949 55.392H457.749L460.085 58.608L459.029 58.64L461.445 55.392H464.101L460.389 60.272V58.928L464.229 64H461.397L458.949 60.576L459.989 60.72L457.557 64H454.837Z" fill="white"/>
</g>
<defs>
<clipPath id="clip0_2601_15002">
<rect width="728" height="90" fill="white"/>
</clipPath>
</defs>
</svg>
