<svg width="300" height="280" viewBox="0 0 300 280" fill="none" xmlns="http://www.w3.org/2000/svg">
<rect width="300" height="280" fill="#AB2B9E"/>
<path d="M111.661 131L117.589 117.7H120.629L126.576 131H123.346L118.482 119.258H119.698L114.815 131H111.661ZM114.625 128.15L115.442 125.813H122.282L123.118 128.15H114.625ZM132.043 131.152C131.08 131.152 130.213 130.937 129.44 130.506C128.667 130.063 128.053 129.448 127.597 128.663C127.154 127.878 126.932 126.953 126.932 125.889C126.932 124.812 127.154 123.881 127.597 123.096C128.053 122.311 128.667 121.703 129.44 121.272C130.213 120.841 131.08 120.626 132.043 120.626C132.904 120.626 133.658 120.816 134.304 121.196C134.95 121.576 135.45 122.152 135.805 122.925C136.16 123.698 136.337 124.686 136.337 125.889C136.337 127.08 136.166 128.068 135.824 128.853C135.482 129.626 134.988 130.202 134.342 130.582C133.709 130.962 132.942 131.152 132.043 131.152ZM132.556 128.72C133.037 128.72 133.474 128.606 133.867 128.378C134.26 128.15 134.57 127.827 134.798 127.409C135.039 126.978 135.159 126.472 135.159 125.889C135.159 125.294 135.039 124.787 134.798 124.369C134.57 123.951 134.26 123.628 133.867 123.4C133.474 123.172 133.037 123.058 132.556 123.058C132.062 123.058 131.619 123.172 131.226 123.4C130.833 123.628 130.517 123.951 130.276 124.369C130.048 124.787 129.934 125.294 129.934 125.889C129.934 126.472 130.048 126.978 130.276 127.409C130.517 127.827 130.833 128.15 131.226 128.378C131.619 128.606 132.062 128.72 132.556 128.72ZM135.235 131V128.91L135.292 125.87L135.102 122.849V116.902H138.066V131H135.235ZM146.551 131V120.55C146.551 119.397 146.893 118.479 147.577 117.795C148.261 117.098 149.237 116.75 150.503 116.75C150.934 116.75 151.346 116.794 151.738 116.883C152.144 116.972 152.486 117.111 152.764 117.301L151.985 119.448C151.821 119.334 151.637 119.245 151.434 119.182C151.232 119.119 151.016 119.087 150.788 119.087C150.358 119.087 150.022 119.214 149.781 119.467C149.553 119.708 149.439 120.075 149.439 120.569V121.519L149.515 122.792V131H146.551ZM144.974 123.286V121.006H152.061V123.286H144.974ZM158.481 131.152C157.316 131.152 156.29 130.924 155.403 130.468C154.529 130.012 153.851 129.391 153.37 128.606C152.889 127.808 152.648 126.902 152.648 125.889C152.648 124.863 152.882 123.957 153.351 123.172C153.832 122.374 154.485 121.753 155.308 121.31C156.131 120.854 157.062 120.626 158.101 120.626C159.102 120.626 160.001 120.841 160.799 121.272C161.61 121.69 162.249 122.298 162.718 123.096C163.187 123.881 163.421 124.825 163.421 125.927C163.421 126.041 163.415 126.174 163.402 126.326C163.389 126.465 163.377 126.598 163.364 126.725H155.061V124.996H161.806L160.666 125.509C160.666 124.977 160.558 124.515 160.343 124.122C160.128 123.729 159.83 123.425 159.45 123.21C159.07 122.982 158.627 122.868 158.12 122.868C157.613 122.868 157.164 122.982 156.771 123.21C156.391 123.425 156.093 123.736 155.878 124.141C155.663 124.534 155.555 125.002 155.555 125.547V126.003C155.555 126.56 155.675 127.054 155.916 127.485C156.169 127.903 156.518 128.226 156.961 128.454C157.417 128.669 157.949 128.777 158.557 128.777C159.102 128.777 159.577 128.695 159.982 128.53C160.4 128.365 160.78 128.118 161.122 127.789L162.699 129.499C162.23 130.031 161.641 130.443 160.932 130.734C160.223 131.013 159.406 131.152 158.481 131.152ZM170.467 131.152C169.302 131.152 168.276 130.924 167.389 130.468C166.515 130.012 165.838 129.391 165.356 128.606C164.875 127.808 164.634 126.902 164.634 125.889C164.634 124.863 164.869 123.957 165.337 123.172C165.819 122.374 166.471 121.753 167.294 121.31C168.118 120.854 169.049 120.626 170.087 120.626C171.088 120.626 171.987 120.841 172.785 121.272C173.596 121.69 174.236 122.298 174.704 123.096C175.173 123.881 175.407 124.825 175.407 125.927C175.407 126.041 175.401 126.174 175.388 126.326C175.376 126.465 175.363 126.598 175.35 126.725H167.047V124.996H173.792L172.652 125.509C172.652 124.977 172.545 124.515 172.329 124.122C172.114 123.729 171.816 123.425 171.436 123.21C171.056 122.982 170.613 122.868 170.106 122.868C169.6 122.868 169.15 122.982 168.757 123.21C168.377 123.425 168.08 123.736 167.864 124.141C167.649 124.534 167.541 125.002 167.541 125.547V126.003C167.541 126.56 167.662 127.054 167.902 127.485C168.156 127.903 168.504 128.226 168.947 128.454C169.403 128.669 169.935 128.777 170.543 128.777C171.088 128.777 171.563 128.695 171.968 128.53C172.386 128.365 172.766 128.118 173.108 127.789L174.685 129.499C174.217 130.031 173.628 130.443 172.918 130.734C172.209 131.013 171.392 131.152 170.467 131.152ZM181.77 131.152C180.807 131.152 179.939 130.937 179.167 130.506C178.394 130.063 177.78 129.448 177.324 128.663C176.88 127.878 176.659 126.953 176.659 125.889C176.659 124.812 176.88 123.881 177.324 123.096C177.78 122.311 178.394 121.703 179.167 121.272C179.939 120.841 180.807 120.626 181.77 120.626C182.631 120.626 183.385 120.816 184.031 121.196C184.677 121.576 185.177 122.152 185.532 122.925C185.886 123.698 186.064 124.686 186.064 125.889C186.064 127.08 185.893 128.068 185.551 128.853C185.209 129.626 184.715 130.202 184.069 130.582C183.435 130.962 182.669 131.152 181.77 131.152ZM182.283 128.72C182.764 128.72 183.201 128.606 183.594 128.378C183.986 128.15 184.297 127.827 184.525 127.409C184.765 126.978 184.886 126.472 184.886 125.889C184.886 125.294 184.765 124.787 184.525 124.369C184.297 123.951 183.986 123.628 183.594 123.4C183.201 123.172 182.764 123.058 182.283 123.058C181.789 123.058 181.345 123.172 180.953 123.4C180.56 123.628 180.243 123.951 180.003 124.369C179.775 124.787 179.661 125.294 179.661 125.889C179.661 126.472 179.775 126.978 180.003 127.409C180.243 127.827 180.56 128.15 180.953 128.378C181.345 128.606 181.789 128.72 182.283 128.72ZM184.962 131V128.91L185.019 125.87L184.829 122.849V116.902H187.793V131H184.962ZM113.11 163.228C112.185 163.228 111.267 163.108 110.355 162.867C109.443 162.614 108.67 162.259 108.037 161.803L109.234 159.447C109.741 159.814 110.33 160.106 111.001 160.321C111.672 160.536 112.35 160.644 113.034 160.644C113.807 160.644 114.415 160.492 114.858 160.188C115.301 159.884 115.523 159.466 115.523 158.934C115.523 158.427 115.327 158.028 114.934 157.737C114.541 157.446 113.908 157.3 113.034 157.3H111.628V155.267L115.333 151.068L115.675 152.17H108.702V149.7H118.012V151.695L114.326 155.894L112.768 155.001H113.661C115.295 155.001 116.53 155.368 117.366 156.103C118.202 156.838 118.62 157.781 118.62 158.934C118.62 159.681 118.424 160.384 118.031 161.043C117.638 161.689 117.037 162.215 116.226 162.62C115.415 163.025 114.377 163.228 113.11 163.228ZM125.741 163.228C124.652 163.228 123.677 162.962 122.815 162.43C121.954 161.885 121.276 161.1 120.782 160.074C120.288 159.048 120.041 157.807 120.041 156.35C120.041 154.893 120.288 153.652 120.782 152.626C121.276 151.6 121.954 150.821 122.815 150.289C123.677 149.744 124.652 149.472 125.741 149.472C126.843 149.472 127.819 149.744 128.667 150.289C129.529 150.821 130.206 151.6 130.7 152.626C131.194 153.652 131.441 154.893 131.441 156.35C131.441 157.807 131.194 159.048 130.7 160.074C130.206 161.1 129.529 161.885 128.667 162.43C127.819 162.962 126.843 163.228 125.741 163.228ZM125.741 160.625C126.261 160.625 126.71 160.479 127.09 160.188C127.483 159.897 127.787 159.434 128.002 158.801C128.23 158.168 128.344 157.351 128.344 156.35C128.344 155.349 128.23 154.532 128.002 153.899C127.787 153.266 127.483 152.803 127.09 152.512C126.71 152.221 126.261 152.075 125.741 152.075C125.235 152.075 124.785 152.221 124.392 152.512C124.012 152.803 123.708 153.266 123.48 153.899C123.265 154.532 123.157 155.349 123.157 156.35C123.157 157.351 123.265 158.168 123.48 158.801C123.708 159.434 124.012 159.897 124.392 160.188C124.785 160.479 125.235 160.625 125.741 160.625ZM138.637 163.228C137.547 163.228 136.572 162.962 135.711 162.43C134.849 161.885 134.172 161.1 133.678 160.074C133.184 159.048 132.937 157.807 132.937 156.35C132.937 154.893 133.184 153.652 133.678 152.626C134.172 151.6 134.849 150.821 135.711 150.289C136.572 149.744 137.547 149.472 138.637 149.472C139.739 149.472 140.714 149.744 141.563 150.289C142.424 150.821 143.102 151.6 143.596 152.626C144.09 153.652 144.337 154.893 144.337 156.35C144.337 157.807 144.09 159.048 143.596 160.074C143.102 161.1 142.424 161.885 141.563 162.43C140.714 162.962 139.739 163.228 138.637 163.228ZM138.637 160.625C139.156 160.625 139.606 160.479 139.986 160.188C140.378 159.897 140.682 159.434 140.898 158.801C141.126 158.168 141.24 157.351 141.24 156.35C141.24 155.349 141.126 154.532 140.898 153.899C140.682 153.266 140.378 152.803 139.986 152.512C139.606 152.221 139.156 152.075 138.637 152.075C138.13 152.075 137.68 152.221 137.288 152.512C136.908 152.803 136.604 153.266 136.376 153.899C136.16 154.532 136.053 155.349 136.053 156.35C136.053 157.351 136.16 158.168 136.376 158.801C136.604 159.434 136.908 159.897 137.288 160.188C137.68 160.479 138.13 160.625 138.637 160.625ZM144.963 163L149.542 156.996L149.485 158.63L145.096 152.778H148.421L151.195 156.597L149.941 156.635L152.81 152.778H155.964L151.556 158.573V156.977L156.116 163H152.753L149.846 158.934L151.081 159.105L148.193 163H144.963ZM156.925 163V161.005L162.055 156.16C162.461 155.793 162.758 155.463 162.948 155.172C163.138 154.881 163.265 154.615 163.328 154.374C163.404 154.133 163.442 153.912 163.442 153.709C163.442 153.177 163.259 152.772 162.891 152.493C162.537 152.202 162.011 152.056 161.314 152.056C160.757 152.056 160.238 152.164 159.756 152.379C159.288 152.594 158.889 152.93 158.559 153.386L156.317 151.942C156.824 151.182 157.533 150.58 158.445 150.137C159.357 149.694 160.409 149.472 161.599 149.472C162.587 149.472 163.449 149.637 164.183 149.966C164.931 150.283 165.507 150.732 165.912 151.315C166.33 151.898 166.539 152.594 166.539 153.405C166.539 153.836 166.482 154.266 166.368 154.697C166.267 155.115 166.052 155.558 165.722 156.027C165.406 156.496 164.937 157.021 164.316 157.604L160.06 161.613L159.471 160.492H166.976V163H156.925ZM173.756 163.228C172.642 163.228 171.666 163.063 170.83 162.734C169.994 162.392 169.342 161.917 168.873 161.309C168.405 160.688 168.17 159.966 168.17 159.143C168.17 158.32 168.398 157.623 168.854 157.053C169.323 156.47 169.975 156.033 170.811 155.742C171.647 155.438 172.629 155.286 173.756 155.286C174.896 155.286 175.884 155.438 176.72 155.742C177.569 156.033 178.221 156.47 178.677 157.053C179.146 157.623 179.38 158.32 179.38 159.143C179.38 159.966 179.146 160.688 178.677 161.309C178.209 161.917 177.55 162.392 176.701 162.734C175.865 163.063 174.884 163.228 173.756 163.228ZM173.756 160.967C174.529 160.967 175.137 160.796 175.58 160.454C176.036 160.112 176.264 159.643 176.264 159.048C176.264 158.453 176.036 157.99 175.58 157.661C175.137 157.319 174.529 157.148 173.756 157.148C172.996 157.148 172.395 157.319 171.951 157.661C171.508 157.99 171.286 158.453 171.286 159.048C171.286 159.643 171.508 160.112 171.951 160.454C172.395 160.796 172.996 160.967 173.756 160.967ZM173.756 156.844C172.73 156.844 171.831 156.705 171.058 156.426C170.298 156.147 169.703 155.742 169.272 155.21C168.854 154.665 168.645 154.019 168.645 153.272C168.645 152.487 168.861 151.815 169.291 151.258C169.722 150.688 170.324 150.251 171.096 149.947C171.869 149.63 172.756 149.472 173.756 149.472C174.782 149.472 175.675 149.63 176.435 149.947C177.208 150.251 177.81 150.688 178.24 151.258C178.684 151.815 178.905 152.487 178.905 153.272C178.905 154.019 178.69 154.665 178.259 155.21C177.841 155.742 177.246 156.147 176.473 156.426C175.701 156.705 174.795 156.844 173.756 156.844ZM173.756 155.039C174.402 155.039 174.909 154.893 175.276 154.602C175.656 154.311 175.846 153.912 175.846 153.405C175.846 152.873 175.65 152.461 175.257 152.17C174.877 151.879 174.377 151.733 173.756 151.733C173.148 151.733 172.654 151.879 172.274 152.17C171.894 152.461 171.704 152.873 171.704 153.405C171.704 153.912 171.888 154.311 172.255 154.602C172.623 154.893 173.123 155.039 173.756 155.039ZM186.489 163.228C185.4 163.228 184.425 162.962 183.563 162.43C182.702 161.885 182.024 161.1 181.53 160.074C181.036 159.048 180.789 157.807 180.789 156.35C180.789 154.893 181.036 153.652 181.53 152.626C182.024 151.6 182.702 150.821 183.563 150.289C184.425 149.744 185.4 149.472 186.489 149.472C187.591 149.472 188.567 149.744 189.415 150.289C190.277 150.821 190.954 151.6 191.448 152.626C191.942 153.652 192.189 154.893 192.189 156.35C192.189 157.807 191.942 159.048 191.448 160.074C190.954 161.1 190.277 161.885 189.415 162.43C188.567 162.962 187.591 163.228 186.489 163.228ZM186.489 160.625C187.009 160.625 187.458 160.479 187.838 160.188C188.231 159.897 188.535 159.434 188.75 158.801C188.978 158.168 189.092 157.351 189.092 156.35C189.092 155.349 188.978 154.532 188.75 153.899C188.535 153.266 188.231 152.803 187.838 152.512C187.458 152.221 187.009 152.075 186.489 152.075C185.983 152.075 185.533 152.221 185.14 152.512C184.76 152.803 184.456 153.266 184.228 153.899C184.013 154.532 183.905 155.349 183.905 156.35C183.905 157.351 184.013 158.168 184.228 158.801C184.456 159.434 184.76 159.897 185.14 160.188C185.533 160.479 185.983 160.625 186.489 160.625Z" fill="white"/>
</svg>
