<svg width="1150" height="90" viewBox="0 0 1150 90" fill="none" xmlns="http://www.w3.org/2000/svg">
<rect width="1150" height="90" fill="#0D0C22"/>
<path d="M536.161 36L542.089 22.7H545.129L551.076 36H547.846L542.982 24.258H544.198L539.315 36H536.161ZM539.125 33.15L539.942 30.813H546.782L547.618 33.15H539.125ZM556.543 36.152C555.58 36.152 554.713 35.9367 553.94 35.506C553.167 35.0627 552.553 34.4483 552.097 33.663C551.654 32.8777 551.432 31.953 551.432 30.889C551.432 29.8123 551.654 28.8813 552.097 28.096C552.553 27.3107 553.167 26.7027 553.94 26.272C554.713 25.8413 555.58 25.626 556.543 25.626C557.404 25.626 558.158 25.816 558.804 26.196C559.45 26.576 559.95 27.1523 560.305 27.925C560.66 28.6977 560.837 29.6857 560.837 30.889C560.837 32.0797 560.666 33.0677 560.324 33.853C559.982 34.6257 559.488 35.202 558.842 35.582C558.209 35.962 557.442 36.152 556.543 36.152ZM557.056 33.72C557.537 33.72 557.974 33.606 558.367 33.378C558.76 33.15 559.07 32.827 559.298 32.409C559.539 31.9783 559.659 31.4717 559.659 30.889C559.659 30.2937 559.539 29.787 559.298 29.369C559.07 28.951 558.76 28.628 558.367 28.4C557.974 28.172 557.537 28.058 557.056 28.058C556.562 28.058 556.119 28.172 555.726 28.4C555.333 28.628 555.017 28.951 554.776 29.369C554.548 29.787 554.434 30.2937 554.434 30.889C554.434 31.4717 554.548 31.9783 554.776 32.409C555.017 32.827 555.333 33.15 555.726 33.378C556.119 33.606 556.562 33.72 557.056 33.72ZM559.735 36V33.91L559.792 30.87L559.602 27.849V21.902H562.566V36H559.735ZM571.051 36V25.55C571.051 24.3973 571.393 23.479 572.077 22.795C572.761 22.0983 573.737 21.75 575.003 21.75C575.434 21.75 575.846 21.7943 576.238 21.883C576.644 21.9717 576.986 22.111 577.264 22.301L576.485 24.448C576.321 24.334 576.137 24.2453 575.934 24.182C575.732 24.1187 575.516 24.087 575.288 24.087C574.858 24.087 574.522 24.2137 574.281 24.467C574.053 24.7077 573.939 25.075 573.939 25.569V26.519L574.015 27.792V36H571.051ZM569.474 28.286V26.006H576.561V28.286H569.474ZM582.981 36.152C581.816 36.152 580.79 35.924 579.903 35.468C579.029 35.012 578.351 34.3913 577.87 33.606C577.389 32.808 577.148 31.9023 577.148 30.889C577.148 29.863 577.382 28.9573 577.851 28.172C578.332 27.374 578.985 26.7533 579.808 26.31C580.631 25.854 581.562 25.626 582.601 25.626C583.602 25.626 584.501 25.8413 585.299 26.272C586.11 26.69 586.749 27.298 587.218 28.096C587.687 28.8813 587.921 29.825 587.921 30.927C587.921 31.041 587.915 31.174 587.902 31.326C587.889 31.4653 587.877 31.5983 587.864 31.725H579.561V29.996H586.306L585.166 30.509C585.166 29.977 585.058 29.5147 584.843 29.122C584.628 28.7293 584.33 28.4253 583.95 28.21C583.57 27.982 583.127 27.868 582.62 27.868C582.113 27.868 581.664 27.982 581.271 28.21C580.891 28.4253 580.593 28.7357 580.378 29.141C580.163 29.5337 580.055 30.0023 580.055 30.547V31.003C580.055 31.5603 580.175 32.0543 580.416 32.485C580.669 32.903 581.018 33.226 581.461 33.454C581.917 33.6693 582.449 33.777 583.057 33.777C583.602 33.777 584.077 33.6947 584.482 33.53C584.9 33.3653 585.28 33.1183 585.622 32.789L587.199 34.499C586.73 35.031 586.141 35.4427 585.432 35.734C584.723 36.0127 583.906 36.152 582.981 36.152ZM594.967 36.152C593.802 36.152 592.776 35.924 591.889 35.468C591.015 35.012 590.338 34.3913 589.856 33.606C589.375 32.808 589.134 31.9023 589.134 30.889C589.134 29.863 589.369 28.9573 589.837 28.172C590.319 27.374 590.971 26.7533 591.794 26.31C592.618 25.854 593.549 25.626 594.587 25.626C595.588 25.626 596.487 25.8413 597.285 26.272C598.096 26.69 598.736 27.298 599.204 28.096C599.673 28.8813 599.907 29.825 599.907 30.927C599.907 31.041 599.901 31.174 599.888 31.326C599.876 31.4653 599.863 31.5983 599.85 31.725H591.547V29.996H598.292L597.152 30.509C597.152 29.977 597.045 29.5147 596.829 29.122C596.614 28.7293 596.316 28.4253 595.936 28.21C595.556 27.982 595.113 27.868 594.606 27.868C594.1 27.868 593.65 27.982 593.257 28.21C592.877 28.4253 592.58 28.7357 592.364 29.141C592.149 29.5337 592.041 30.0023 592.041 30.547V31.003C592.041 31.5603 592.162 32.0543 592.402 32.485C592.656 32.903 593.004 33.226 593.447 33.454C593.903 33.6693 594.435 33.777 595.043 33.777C595.588 33.777 596.063 33.6947 596.468 33.53C596.886 33.3653 597.266 33.1183 597.608 32.789L599.185 34.499C598.717 35.031 598.128 35.4427 597.418 35.734C596.709 36.0127 595.892 36.152 594.967 36.152ZM606.27 36.152C605.307 36.152 604.439 35.9367 603.667 35.506C602.894 35.0627 602.28 34.4483 601.824 33.663C601.38 32.8777 601.159 31.953 601.159 30.889C601.159 29.8123 601.38 28.8813 601.824 28.096C602.28 27.3107 602.894 26.7027 603.667 26.272C604.439 25.8413 605.307 25.626 606.27 25.626C607.131 25.626 607.885 25.816 608.531 26.196C609.177 26.576 609.677 27.1523 610.032 27.925C610.386 28.6977 610.564 29.6857 610.564 30.889C610.564 32.0797 610.393 33.0677 610.051 33.853C609.709 34.6257 609.215 35.202 608.569 35.582C607.935 35.962 607.169 36.152 606.27 36.152ZM606.783 33.72C607.264 33.72 607.701 33.606 608.094 33.378C608.486 33.15 608.797 32.827 609.025 32.409C609.265 31.9783 609.386 31.4717 609.386 30.889C609.386 30.2937 609.265 29.787 609.025 29.369C608.797 28.951 608.486 28.628 608.094 28.4C607.701 28.172 607.264 28.058 606.783 28.058C606.289 28.058 605.845 28.172 605.453 28.4C605.06 28.628 604.743 28.951 604.503 29.369C604.275 29.787 604.161 30.2937 604.161 30.889C604.161 31.4717 604.275 31.9783 604.503 32.409C604.743 32.827 605.06 33.15 605.453 33.378C605.845 33.606 606.289 33.72 606.783 33.72ZM609.462 36V33.91L609.519 30.87L609.329 27.849V21.902H612.293V36H609.462ZM467.801 68V55.84L469.131 57.17H465.141V54.7H470.879V68H467.801ZM475.241 68V55.84L476.571 57.17H472.581V54.7H478.319V68H475.241ZM485.152 68.228C484.227 68.228 483.309 68.1077 482.397 67.867C481.497 67.6137 480.725 67.259 480.079 66.803L481.295 64.447C481.801 64.8143 482.384 65.1057 483.043 65.321C483.714 65.5363 484.392 65.644 485.076 65.644C485.848 65.644 486.456 65.492 486.9 65.188C487.343 64.884 487.565 64.4597 487.565 63.915C487.565 63.573 487.476 63.269 487.299 63.003C487.121 62.737 486.805 62.5343 486.349 62.395C485.905 62.2557 485.278 62.186 484.468 62.186H481.067L481.751 54.7H489.864V57.17H482.853L484.449 55.764L483.974 61.103L482.378 59.697H485.19C486.507 59.697 487.565 59.8807 488.363 60.248C489.173 60.6027 489.762 61.0903 490.13 61.711C490.497 62.3317 490.681 63.0347 490.681 63.82C490.681 64.6053 490.484 65.3337 490.092 66.005C489.699 66.6637 489.091 67.202 488.268 67.62C487.457 68.0253 486.418 68.228 485.152 68.228ZM497.629 68.228C496.54 68.228 495.565 67.962 494.703 67.43C493.842 66.8853 493.164 66.1 492.67 65.074C492.176 64.048 491.929 62.8067 491.929 61.35C491.929 59.8933 492.176 58.652 492.67 57.626C493.164 56.6 493.842 55.821 494.703 55.289C495.565 54.7443 496.54 54.472 497.629 54.472C498.731 54.472 499.707 54.7443 500.555 55.289C501.417 55.821 502.094 56.6 502.588 57.626C503.082 58.652 503.329 59.8933 503.329 61.35C503.329 62.8067 503.082 64.048 502.588 65.074C502.094 66.1 501.417 66.8853 500.555 67.43C499.707 67.962 498.731 68.228 497.629 68.228ZM497.629 65.625C498.149 65.625 498.598 65.4793 498.978 65.188C499.371 64.8967 499.675 64.4343 499.89 63.801C500.118 63.1677 500.232 62.3507 500.232 61.35C500.232 60.3493 500.118 59.5323 499.89 58.899C499.675 58.2657 499.371 57.8033 498.978 57.512C498.598 57.2207 498.149 57.075 497.629 57.075C497.123 57.075 496.673 57.2207 496.28 57.512C495.9 57.8033 495.596 58.2657 495.368 58.899C495.153 59.5323 495.045 60.3493 495.045 61.35C495.045 62.3507 495.153 63.1677 495.368 63.801C495.596 64.4343 495.9 64.8967 496.28 65.188C496.673 65.4793 497.123 65.625 497.629 65.625ZM505.794 63.725L512.178 57.303L513.774 58.975L507.39 65.397L505.794 63.725ZM505.794 58.975L507.39 57.303L513.774 63.725L512.178 65.397L505.794 58.975ZM520.873 54.472C522.102 54.472 523.159 54.7253 524.046 55.232C524.933 55.7387 525.617 56.4797 526.098 57.455C526.579 58.4177 526.82 59.621 526.82 61.065C526.82 62.5977 526.529 63.896 525.946 64.96C525.376 66.024 524.584 66.8347 523.571 67.392C522.558 67.9493 521.38 68.228 520.037 68.228C519.34 68.228 518.669 68.152 518.023 68C517.377 67.848 516.82 67.62 516.351 67.316L517.491 65.055C517.858 65.3083 518.251 65.4857 518.669 65.587C519.087 65.6757 519.524 65.72 519.98 65.72C521.12 65.72 522.026 65.3717 522.697 64.675C523.381 63.9783 523.723 62.946 523.723 61.578C523.723 61.35 523.717 61.0967 523.704 60.818C523.691 60.5393 523.66 60.2607 523.609 59.982L524.445 60.78C524.23 61.274 523.926 61.692 523.533 62.034C523.14 62.3633 522.684 62.6167 522.165 62.794C521.646 62.9587 521.063 63.041 520.417 63.041C519.568 63.041 518.796 62.87 518.099 62.528C517.415 62.186 516.864 61.7047 516.446 61.084C516.041 60.4633 515.838 59.735 515.838 58.899C515.838 57.987 516.06 57.2017 516.503 56.543C516.959 55.8843 517.567 55.3777 518.327 55.023C519.1 54.6557 519.948 54.472 520.873 54.472ZM521.063 56.771C520.62 56.771 520.233 56.8533 519.904 57.018C519.575 57.17 519.315 57.398 519.125 57.702C518.935 57.9933 518.84 58.3417 518.84 58.747C518.84 59.355 519.043 59.8427 519.448 60.21C519.866 60.5647 520.417 60.742 521.101 60.742C521.544 60.742 521.937 60.6597 522.279 60.495C522.634 60.3177 522.906 60.077 523.096 59.773C523.286 59.469 523.381 59.127 523.381 58.747C523.381 58.367 523.286 58.0313 523.096 57.74C522.919 57.436 522.659 57.2017 522.317 57.037C521.975 56.8597 521.557 56.771 521.063 56.771ZM533.997 68.228C532.907 68.228 531.932 67.962 531.071 67.43C530.209 66.8853 529.532 66.1 529.038 65.074C528.544 64.048 528.297 62.8067 528.297 61.35C528.297 59.8933 528.544 58.652 529.038 57.626C529.532 56.6 530.209 55.821 531.071 55.289C531.932 54.7443 532.907 54.472 533.997 54.472C535.099 54.472 536.074 54.7443 536.923 55.289C537.784 55.821 538.462 56.6 538.956 57.626C539.45 58.652 539.697 59.8933 539.697 61.35C539.697 62.8067 539.45 64.048 538.956 65.074C538.462 66.1 537.784 66.8853 536.923 67.43C536.074 67.962 535.099 68.228 533.997 68.228ZM533.997 65.625C534.516 65.625 534.966 65.4793 535.346 65.188C535.738 64.8967 536.042 64.4343 536.258 63.801C536.486 63.1677 536.6 62.3507 536.6 61.35C536.6 60.3493 536.486 59.5323 536.258 58.899C536.042 58.2657 535.738 57.8033 535.346 57.512C534.966 57.2207 534.516 57.075 533.997 57.075C533.49 57.075 533.04 57.2207 532.648 57.512C532.268 57.8033 531.964 58.2657 531.736 58.899C531.52 59.5323 531.413 60.3493 531.413 61.35C531.413 62.3507 531.52 63.1677 531.736 63.801C531.964 64.4343 532.268 64.8967 532.648 65.188C533.04 65.4793 533.49 65.625 533.997 65.625ZM546.82 63.839V61.464H552.197V63.839H546.82ZM554.339 66.024V63.649L562.49 60.685V62.015L554.339 59.051V56.676L563.383 60.115V62.585L554.339 66.024ZM574.97 68.228C574.045 68.228 573.127 68.1077 572.215 67.867C571.303 67.6137 570.53 67.259 569.897 66.803L571.094 64.447C571.601 64.8143 572.19 65.1057 572.861 65.321C573.532 65.5363 574.21 65.644 574.894 65.644C575.667 65.644 576.275 65.492 576.718 65.188C577.161 64.884 577.383 64.466 577.383 63.934C577.383 63.4273 577.187 63.0283 576.794 62.737C576.401 62.4457 575.768 62.3 574.894 62.3H573.488V60.267L577.193 56.068L577.535 57.17H570.562V54.7H579.872V56.695L576.186 60.894L574.628 60.001H575.521C577.155 60.001 578.39 60.3683 579.226 61.103C580.062 61.8377 580.48 62.7813 580.48 63.934C580.48 64.6813 580.284 65.3843 579.891 66.043C579.498 66.689 578.897 67.2147 578.086 67.62C577.275 68.0253 576.237 68.228 574.97 68.228ZM586.121 68.228C585.197 68.228 584.278 68.1077 583.366 67.867C582.454 67.6137 581.682 67.259 581.048 66.803L582.245 64.447C582.752 64.8143 583.341 65.1057 584.012 65.321C584.684 65.5363 585.361 65.644 586.045 65.644C586.818 65.644 587.426 65.492 587.869 65.188C588.313 64.884 588.534 64.466 588.534 63.934C588.534 63.4273 588.338 63.0283 587.945 62.737C587.553 62.4457 586.919 62.3 586.045 62.3H584.639V60.267L588.344 56.068L588.686 57.17H581.713V54.7H591.023V56.695L587.337 60.894L585.779 60.001H586.672C588.306 60.001 589.541 60.3683 590.377 61.103C591.213 61.8377 591.631 62.7813 591.631 63.934C591.631 64.6813 591.435 65.3843 591.042 66.043C590.65 66.689 590.048 67.2147 589.237 67.62C588.427 68.0253 587.388 68.228 586.121 68.228ZM599 68.228C597.784 68.228 596.726 67.9747 595.827 67.468C594.94 66.9613 594.256 66.2203 593.775 65.245C593.293 64.2697 593.053 63.0663 593.053 61.635C593.053 60.1023 593.338 58.804 593.908 57.74C594.49 56.676 595.288 55.8653 596.302 55.308C597.328 54.7507 598.506 54.472 599.836 54.472C600.545 54.472 601.223 54.548 601.869 54.7C602.515 54.852 603.072 55.08 603.541 55.384L602.401 57.645C602.033 57.3917 601.641 57.2207 601.223 57.132C600.805 57.0307 600.368 56.98 599.912 56.98C598.759 56.98 597.847 57.3283 597.176 58.025C596.504 58.7217 596.169 59.754 596.169 61.122C596.169 61.35 596.169 61.6033 596.169 61.882C596.181 62.1607 596.219 62.4393 596.283 62.718L595.428 61.92C595.668 61.426 595.979 61.0143 596.359 60.685C596.739 60.343 597.188 60.0897 597.708 59.925C598.24 59.7477 598.822 59.659 599.456 59.659C600.317 59.659 601.09 59.83 601.774 60.172C602.458 60.514 603.002 60.9953 603.408 61.616C603.826 62.2367 604.035 62.965 604.035 63.801C604.035 64.7003 603.807 65.4857 603.351 66.157C602.907 66.8157 602.306 67.3287 601.546 67.696C600.798 68.0507 599.95 68.228 599 68.228ZM598.829 65.929C599.259 65.929 599.639 65.853 599.969 65.701C600.311 65.5363 600.577 65.302 600.767 64.998C600.957 64.694 601.052 64.3457 601.052 63.953C601.052 63.345 600.843 62.8637 600.425 62.509C600.019 62.1417 599.475 61.958 598.791 61.958C598.335 61.958 597.936 62.0467 597.594 62.224C597.252 62.3887 596.979 62.623 596.777 62.927C596.587 63.2183 596.492 63.5603 596.492 63.953C596.492 64.333 596.587 64.675 596.777 64.979C596.967 65.2703 597.233 65.5047 597.575 65.682C597.917 65.8467 598.335 65.929 598.829 65.929ZM606.119 63.725L612.503 57.303L614.099 58.975L607.715 65.397L606.119 63.725ZM606.119 58.975L607.715 57.303L614.099 63.725L612.503 65.397L606.119 58.975ZM623.528 68.228C622.603 68.228 621.685 68.1077 620.773 67.867C619.861 67.6137 619.088 67.259 618.455 66.803L619.652 64.447C620.158 64.8143 620.747 65.1057 621.419 65.321C622.09 65.5363 622.768 65.644 623.452 65.644C624.224 65.644 624.832 65.492 625.276 65.188C625.719 64.884 625.941 64.466 625.941 63.934C625.941 63.4273 625.744 63.0283 625.352 62.737C624.959 62.4457 624.326 62.3 623.452 62.3H622.046V60.267L625.751 56.068L626.093 57.17H619.12V54.7H628.43V56.695L624.744 60.894L623.186 60.001H624.079C625.713 60.001 626.948 60.3683 627.784 61.103C628.62 61.8377 629.038 62.7813 629.038 63.934C629.038 64.6813 628.841 65.3843 628.449 66.043C628.056 66.689 627.454 67.2147 626.644 67.62C625.833 68.0253 624.794 68.228 623.528 68.228ZM636.159 68.228C635.069 68.228 634.094 67.962 633.233 67.43C632.371 66.8853 631.694 66.1 631.2 65.074C630.706 64.048 630.459 62.8067 630.459 61.35C630.459 59.8933 630.706 58.652 631.2 57.626C631.694 56.6 632.371 55.821 633.233 55.289C634.094 54.7443 635.069 54.472 636.159 54.472C637.261 54.472 638.236 54.7443 639.085 55.289C639.946 55.821 640.624 56.6 641.118 57.626C641.612 58.652 641.859 59.8933 641.859 61.35C641.859 62.8067 641.612 64.048 641.118 65.074C640.624 66.1 639.946 66.8853 639.085 67.43C638.236 67.962 637.261 68.228 636.159 68.228ZM636.159 65.625C636.678 65.625 637.128 65.4793 637.508 65.188C637.9 64.8967 638.204 64.4343 638.42 63.801C638.648 63.1677 638.762 62.3507 638.762 61.35C638.762 60.3493 638.648 59.5323 638.42 58.899C638.204 58.2657 637.9 57.8033 637.508 57.512C637.128 57.2207 636.678 57.075 636.159 57.075C635.652 57.075 635.202 57.2207 634.81 57.512C634.43 57.8033 634.126 58.2657 633.898 58.899C633.682 59.5323 633.575 60.3493 633.575 61.35C633.575 62.3507 633.682 63.1677 633.898 63.801C634.126 64.4343 634.43 64.8967 634.81 65.188C635.202 65.4793 635.652 65.625 636.159 65.625ZM649.054 68.228C647.965 68.228 646.99 67.962 646.128 67.43C645.267 66.8853 644.589 66.1 644.095 65.074C643.601 64.048 643.354 62.8067 643.354 61.35C643.354 59.8933 643.601 58.652 644.095 57.626C644.589 56.6 645.267 55.821 646.128 55.289C646.99 54.7443 647.965 54.472 649.054 54.472C650.156 54.472 651.132 54.7443 651.98 55.289C652.842 55.821 653.519 56.6 654.013 57.626C654.507 58.652 654.754 59.8933 654.754 61.35C654.754 62.8067 654.507 64.048 654.013 65.074C653.519 66.1 652.842 66.8853 651.98 67.43C651.132 67.962 650.156 68.228 649.054 68.228ZM649.054 65.625C649.574 65.625 650.023 65.4793 650.403 65.188C650.796 64.8967 651.1 64.4343 651.315 63.801C651.543 63.1677 651.657 62.3507 651.657 61.35C651.657 60.3493 651.543 59.5323 651.315 58.899C651.1 58.2657 650.796 57.8033 650.403 57.512C650.023 57.2207 649.574 57.075 649.054 57.075C648.548 57.075 648.098 57.2207 647.705 57.512C647.325 57.8033 647.021 58.2657 646.793 58.899C646.578 59.5323 646.47 60.3493 646.47 61.35C646.47 62.3507 646.578 63.1677 646.793 63.801C647.021 64.4343 647.325 64.8967 647.705 65.188C648.098 65.4793 648.548 65.625 649.054 65.625ZM668.3 68.152C667.438 68.152 666.685 67.962 666.039 67.582C665.393 67.202 664.886 66.6257 664.519 65.853C664.164 65.0677 663.987 64.0797 663.987 62.889C663.987 61.6857 664.158 60.6977 664.5 59.925C664.842 59.1523 665.336 58.576 665.982 58.196C666.628 57.816 667.4 57.626 668.3 57.626C669.262 57.626 670.124 57.8477 670.884 58.291C671.656 58.7217 672.264 59.3297 672.708 60.115C673.164 60.9003 673.392 61.825 673.392 62.889C673.392 63.9657 673.164 64.8967 672.708 65.682C672.264 66.4673 671.656 67.0753 670.884 67.506C670.124 67.9367 669.262 68.152 668.3 68.152ZM662.258 71.686V57.778H665.089V59.868L665.032 62.908L665.222 65.929V71.686H662.258ZM667.787 65.72C668.281 65.72 668.718 65.606 669.098 65.378C669.49 65.15 669.801 64.827 670.029 64.409C670.269 63.9783 670.39 63.4717 670.39 62.889C670.39 62.2937 670.269 61.787 670.029 61.369C669.801 60.951 669.49 60.628 669.098 60.4C668.718 60.172 668.281 60.058 667.787 60.058C667.293 60.058 666.849 60.172 666.457 60.4C666.064 60.628 665.754 60.951 665.526 61.369C665.298 61.787 665.184 62.2937 665.184 62.889C665.184 63.4717 665.298 63.9783 665.526 64.409C665.754 64.827 666.064 65.15 666.457 65.378C666.849 65.606 667.293 65.72 667.787 65.72ZM673.768 68L678.347 61.996L678.29 63.63L673.901 57.778H677.226L680 61.597L678.746 61.635L681.615 57.778H684.769L680.361 63.573V61.977L684.921 68H681.558L678.651 63.934L679.886 64.105L676.998 68H673.768Z" fill="white"/>
</svg>
