<svg width="336" height="280" viewBox="0 0 336 280" fill="none" xmlns="http://www.w3.org/2000/svg">
<rect width="336" height="280" fill="#F86F03"/>
<path d="M130.686 133L135.726 121.8H137.774L142.83 133H140.654L136.318 122.904H137.15L132.83 133H130.686ZM133.006 130.408L133.566 128.776H139.614L140.174 130.408H133.006ZM144.254 133V121.8H149.15C150.366 121.8 151.433 122.035 152.35 122.504C153.267 122.973 153.982 123.624 154.494 124.456C155.006 125.288 155.262 126.269 155.262 127.4C155.262 128.52 155.006 129.501 154.494 130.344C153.982 131.176 153.267 131.827 152.35 132.296C151.433 132.765 150.366 133 149.15 133H144.254ZM146.334 131.24H149.054C149.897 131.24 150.622 131.08 151.23 130.76C151.849 130.44 152.323 129.992 152.654 129.416C152.995 128.84 153.166 128.168 153.166 127.4C153.166 126.621 152.995 125.949 152.654 125.384C152.323 124.808 151.849 124.36 151.23 124.04C150.622 123.72 149.897 123.56 149.054 123.56H146.334V131.24ZM163.799 126.952H169.383V128.712H163.799V126.952ZM163.975 133H161.895V121.8H170.071V123.544H163.975V133ZM174.002 126.456H179.57V128.168H174.002V126.456ZM174.162 131.256H180.482V133H172.082V121.8H180.258V123.544H174.162V131.256ZM184.721 126.456H190.289V128.168H184.721V126.456ZM184.881 131.256H191.201V133H182.801V121.8H190.977V123.544H184.881V131.256ZM193.52 133V121.8H198.416C199.632 121.8 200.698 122.035 201.616 122.504C202.533 122.973 203.248 123.624 203.76 124.456C204.272 125.288 204.528 126.269 204.528 127.4C204.528 128.52 204.272 129.501 203.76 130.344C203.248 131.176 202.533 131.827 201.616 132.296C200.698 132.765 199.632 133 198.416 133H193.52ZM195.6 131.24H198.32C199.162 131.24 199.888 131.08 200.496 130.76C201.114 130.44 201.589 129.992 201.92 129.416C202.261 128.84 202.432 128.168 202.432 127.4C202.432 126.621 202.261 125.949 201.92 125.384C201.589 124.808 201.114 124.36 200.496 124.04C199.888 123.72 199.162 123.56 198.32 123.56H195.6V131.24ZM128.255 159.16C127.466 159.16 126.693 159.048 125.935 158.824C125.189 158.589 124.559 158.269 124.047 157.864L124.943 156.248C125.349 156.579 125.839 156.845 126.415 157.048C126.991 157.251 127.594 157.352 128.223 157.352C128.97 157.352 129.551 157.203 129.967 156.904C130.383 156.595 130.591 156.179 130.591 155.656C130.591 155.144 130.399 154.739 130.015 154.44C129.631 154.141 129.013 153.992 128.159 153.992H127.135V152.568L130.335 148.76L130.607 149.544H124.591V147.8H132.223V149.192L129.023 153L127.935 152.36H128.559C129.935 152.36 130.965 152.669 131.647 153.288C132.341 153.896 132.687 154.68 132.687 155.64C132.687 156.269 132.527 156.851 132.207 157.384C131.887 157.917 131.397 158.349 130.735 158.68C130.085 159 129.258 159.16 128.255 159.16ZM137.49 159.16C136.7 159.16 135.927 159.048 135.17 158.824C134.423 158.589 133.794 158.269 133.282 157.864L134.178 156.248C134.583 156.579 135.074 156.845 135.65 157.048C136.226 157.251 136.828 157.352 137.458 157.352C138.204 157.352 138.786 157.203 139.202 156.904C139.618 156.595 139.826 156.179 139.826 155.656C139.826 155.144 139.634 154.739 139.25 154.44C138.866 154.141 138.247 153.992 137.394 153.992H136.37V152.568L139.57 148.76L139.842 149.544H133.826V147.8H141.458V149.192L138.258 153L137.17 152.36H137.794C139.17 152.36 140.199 152.669 140.882 153.288C141.575 153.896 141.922 154.68 141.922 155.64C141.922 156.269 141.762 156.851 141.442 157.384C141.122 157.917 140.631 158.349 139.97 158.68C139.319 159 138.492 159.16 137.49 159.16ZM148.13 159.16C147.117 159.16 146.247 158.947 145.522 158.52C144.797 158.083 144.242 157.453 143.858 156.632C143.474 155.811 143.282 154.797 143.282 153.592C143.282 152.312 143.511 151.229 143.97 150.344C144.439 149.459 145.085 148.787 145.906 148.328C146.738 147.869 147.693 147.64 148.77 147.64C149.335 147.64 149.874 147.699 150.386 147.816C150.909 147.933 151.351 148.115 151.714 148.36L150.946 149.928C150.637 149.725 150.301 149.587 149.938 149.512C149.586 149.427 149.213 149.384 148.818 149.384C147.762 149.384 146.925 149.709 146.306 150.36C145.687 151.011 145.378 151.971 145.378 153.24C145.378 153.443 145.383 153.683 145.394 153.96C145.405 154.227 145.442 154.499 145.506 154.776L144.866 154.072C145.058 153.635 145.319 153.272 145.65 152.984C145.991 152.685 146.391 152.461 146.85 152.312C147.319 152.163 147.826 152.088 148.37 152.088C149.106 152.088 149.762 152.232 150.338 152.52C150.914 152.797 151.373 153.197 151.714 153.72C152.055 154.232 152.226 154.835 152.226 155.528C152.226 156.264 152.045 156.904 151.682 157.448C151.319 157.992 150.829 158.413 150.21 158.712C149.591 159.011 148.898 159.16 148.13 159.16ZM148.018 157.528C148.445 157.528 148.823 157.453 149.154 157.304C149.485 157.144 149.741 156.92 149.922 156.632C150.114 156.344 150.21 156.008 150.21 155.624C150.21 155.037 150.007 154.573 149.602 154.232C149.197 153.891 148.653 153.72 147.97 153.72C147.522 153.72 147.127 153.805 146.786 153.976C146.455 154.136 146.189 154.36 145.986 154.648C145.794 154.936 145.698 155.267 145.698 155.64C145.698 155.981 145.789 156.296 145.97 156.584C146.151 156.872 146.413 157.101 146.754 157.272C147.106 157.443 147.527 157.528 148.018 157.528ZM152.519 159L156.279 154.104L156.247 155.176L152.663 150.456H154.887L157.399 153.816H156.551L159.079 150.456H161.239L157.623 155.176L157.639 154.104L161.383 159H159.127L156.487 155.432L157.319 155.544L154.727 159H152.519ZM162.154 159V157.608L166.602 153.384C166.975 153.032 167.252 152.723 167.434 152.456C167.615 152.189 167.732 151.944 167.786 151.72C167.85 151.485 167.882 151.267 167.882 151.064C167.882 150.552 167.706 150.157 167.354 149.88C167.002 149.592 166.484 149.448 165.802 149.448C165.258 149.448 164.762 149.544 164.314 149.736C163.876 149.928 163.498 150.221 163.178 150.616L161.722 149.496C162.159 148.909 162.746 148.456 163.482 148.136C164.228 147.805 165.06 147.64 165.978 147.64C166.788 147.64 167.492 147.773 168.09 148.04C168.698 148.296 169.162 148.664 169.482 149.144C169.812 149.624 169.978 150.195 169.978 150.856C169.978 151.219 169.93 151.581 169.834 151.944C169.738 152.296 169.556 152.669 169.29 153.064C169.023 153.459 168.634 153.901 168.122 154.392L164.298 158.024L163.866 157.24H170.41V159H162.154ZM176.106 159.16C175.178 159.16 174.373 159.021 173.69 158.744C173.008 158.467 172.48 158.077 172.106 157.576C171.733 157.064 171.546 156.467 171.546 155.784C171.546 155.101 171.728 154.525 172.09 154.056C172.453 153.587 172.976 153.229 173.658 152.984C174.341 152.739 175.157 152.616 176.106 152.616C177.056 152.616 177.872 152.739 178.554 152.984C179.248 153.229 179.776 153.592 180.138 154.072C180.512 154.541 180.698 155.112 180.698 155.784C180.698 156.467 180.506 157.064 180.122 157.576C179.749 158.077 179.216 158.467 178.522 158.744C177.84 159.021 177.034 159.16 176.106 159.16ZM176.106 157.528C176.874 157.528 177.482 157.368 177.93 157.048C178.378 156.728 178.602 156.285 178.602 155.72C178.602 155.165 178.378 154.728 177.93 154.408C177.482 154.088 176.874 153.928 176.106 153.928C175.338 153.928 174.736 154.088 174.298 154.408C173.861 154.728 173.642 155.165 173.642 155.72C173.642 156.285 173.861 156.728 174.298 157.048C174.736 157.368 175.338 157.528 176.106 157.528ZM176.106 153.704C175.242 153.704 174.501 153.592 173.882 153.368C173.264 153.133 172.784 152.797 172.442 152.36C172.112 151.912 171.946 151.379 171.946 150.76C171.946 150.12 172.117 149.571 172.458 149.112C172.81 148.643 173.301 148.28 173.93 148.024C174.56 147.768 175.285 147.64 176.106 147.64C176.938 147.64 177.669 147.768 178.298 148.024C178.928 148.28 179.418 148.643 179.77 149.112C180.122 149.571 180.298 150.12 180.298 150.76C180.298 151.379 180.128 151.912 179.786 152.36C179.456 152.797 178.976 153.133 178.346 153.368C177.717 153.592 176.97 153.704 176.106 153.704ZM176.106 152.424C176.768 152.424 177.29 152.285 177.674 152.008C178.058 151.72 178.25 151.336 178.25 150.856C178.25 150.355 178.053 149.965 177.658 149.688C177.264 149.411 176.746 149.272 176.106 149.272C175.466 149.272 174.954 149.411 174.57 149.688C174.186 149.965 173.994 150.355 173.994 150.856C173.994 151.336 174.181 151.72 174.554 152.008C174.938 152.285 175.456 152.424 176.106 152.424ZM186.72 159.16C185.834 159.16 185.034 158.936 184.32 158.488C183.616 158.04 183.061 157.389 182.656 156.536C182.25 155.672 182.048 154.627 182.048 153.4C182.048 152.173 182.25 151.133 182.656 150.28C183.061 149.416 183.616 148.76 184.32 148.312C185.034 147.864 185.834 147.64 186.72 147.64C187.616 147.64 188.416 147.864 189.12 148.312C189.824 148.76 190.378 149.416 190.784 150.28C191.2 151.133 191.408 152.173 191.408 153.4C191.408 154.627 191.2 155.672 190.784 156.536C190.378 157.389 189.824 158.04 189.12 158.488C188.416 158.936 187.616 159.16 186.72 159.16ZM186.72 157.352C187.242 157.352 187.696 157.213 188.08 156.936C188.464 156.648 188.762 156.211 188.976 155.624C189.2 155.037 189.312 154.296 189.312 153.4C189.312 152.493 189.2 151.752 188.976 151.176C188.762 150.589 188.464 150.157 188.08 149.88C187.696 149.592 187.242 149.448 186.72 149.448C186.218 149.448 185.77 149.592 185.376 149.88C184.992 150.157 184.688 150.589 184.464 151.176C184.25 151.752 184.144 152.493 184.144 153.4C184.144 154.296 184.25 155.037 184.464 155.624C184.688 156.211 184.992 156.648 185.376 156.936C185.77 157.213 186.218 157.352 186.72 157.352ZM198.157 159.112C197.464 159.112 196.829 158.952 196.253 158.632C195.688 158.312 195.235 157.832 194.893 157.192C194.563 156.541 194.397 155.72 194.397 154.728C194.397 153.725 194.557 152.904 194.877 152.264C195.208 151.624 195.656 151.149 196.221 150.84C196.787 150.52 197.432 150.36 198.157 150.36C199 150.36 199.741 150.541 200.381 150.904C201.032 151.267 201.544 151.773 201.917 152.424C202.301 153.075 202.493 153.843 202.493 154.728C202.493 155.613 202.301 156.387 201.917 157.048C201.544 157.699 201.032 158.205 200.381 158.568C199.741 158.931 199 159.112 198.157 159.112ZM193.421 162.104V150.456H195.325V152.472L195.261 154.744L195.421 157.016V162.104H193.421ZM197.933 157.4C198.413 157.4 198.84 157.293 199.213 157.08C199.597 156.867 199.901 156.557 200.125 156.152C200.349 155.747 200.461 155.272 200.461 154.728C200.461 154.173 200.349 153.699 200.125 153.304C199.901 152.899 199.597 152.589 199.213 152.376C198.84 152.163 198.413 152.056 197.933 152.056C197.453 152.056 197.021 152.163 196.637 152.376C196.253 152.589 195.949 152.899 195.725 153.304C195.501 153.699 195.389 154.173 195.389 154.728C195.389 155.272 195.501 155.747 195.725 156.152C195.949 156.557 196.253 156.867 196.637 157.08C197.021 157.293 197.453 157.4 197.933 157.4ZM202.941 159L206.701 154.104L206.669 155.176L203.085 150.456H205.309L207.821 153.816H206.973L209.501 150.456H211.661L208.045 155.176L208.061 154.104L211.805 159H209.549L206.909 155.432L207.741 155.544L205.149 159H202.941Z" fill="white"/>
</svg>
