<svg width="280" height="200" viewBox="0 0 280 200" fill="none" xmlns="http://www.w3.org/2000/svg">
<rect width="280" height="200" fill="#F86F03"/>
<path d="M102.186 90L107.226 78.8H109.274L114.33 90H112.154L107.818 79.904H108.65L104.33 90H102.186ZM104.506 87.408L105.066 85.776H111.114L111.674 87.408H104.506ZM115.754 90V78.8H120.65C121.866 78.8 122.933 79.0347 123.85 79.504C124.767 79.9733 125.482 80.624 125.994 81.456C126.506 82.288 126.762 83.2693 126.762 84.4C126.762 85.52 126.506 86.5013 125.994 87.344C125.482 88.176 124.767 88.8267 123.85 89.296C122.933 89.7653 121.866 90 120.65 90H115.754ZM117.834 88.24H120.554C121.397 88.24 122.122 88.08 122.73 87.76C123.349 87.44 123.823 86.992 124.154 86.416C124.495 85.84 124.666 85.168 124.666 84.4C124.666 83.6213 124.495 82.9493 124.154 82.384C123.823 81.808 123.349 81.36 122.73 81.04C122.122 80.72 121.397 80.56 120.554 80.56H117.834V88.24ZM135.299 83.952H140.883V85.712H135.299V83.952ZM135.475 90H133.395V78.8H141.571V80.544H135.475V90ZM145.502 83.456H151.07V85.168H145.502V83.456ZM145.662 88.256H151.982V90H143.582V78.8H151.758V80.544H145.662V88.256ZM156.221 83.456H161.789V85.168H156.221V83.456ZM156.381 88.256H162.701V90H154.301V78.8H162.477V80.544H156.381V88.256ZM165.02 90V78.8H169.916C171.132 78.8 172.198 79.0347 173.116 79.504C174.033 79.9733 174.748 80.624 175.26 81.456C175.772 82.288 176.028 83.2693 176.028 84.4C176.028 85.52 175.772 86.5013 175.26 87.344C174.748 88.176 174.033 88.8267 173.116 89.296C172.198 89.7653 171.132 90 169.916 90H165.02ZM167.1 88.24H169.82C170.662 88.24 171.388 88.08 171.996 87.76C172.614 87.44 173.089 86.992 173.42 86.416C173.761 85.84 173.932 85.168 173.932 84.4C173.932 83.6213 173.761 82.9493 173.42 82.384C173.089 81.808 172.614 81.36 171.996 81.04C171.388 80.72 170.662 80.56 169.82 80.56H167.1V88.24ZM94.9194 122V120.608L99.3674 116.384C99.7407 116.032 100.018 115.723 100.199 115.456C100.381 115.189 100.498 114.944 100.551 114.72C100.615 114.485 100.647 114.267 100.647 114.064C100.647 113.552 100.471 113.157 100.119 112.88C99.7674 112.592 99.25 112.448 98.5674 112.448C98.0234 112.448 97.5274 112.544 97.0794 112.736C96.642 112.928 96.2634 113.221 95.9434 113.616L94.4874 112.496C94.9247 111.909 95.5114 111.456 96.2474 111.136C96.994 110.805 97.826 110.64 98.7434 110.64C99.554 110.64 100.258 110.773 100.855 111.04C101.463 111.296 101.927 111.664 102.247 112.144C102.578 112.624 102.743 113.195 102.743 113.856C102.743 114.219 102.695 114.581 102.599 114.944C102.503 115.296 102.322 115.669 102.055 116.064C101.789 116.459 101.399 116.901 100.887 117.392L97.0634 121.024L96.6314 120.24H103.175V122H94.9194ZM108.872 122.16C107.944 122.16 107.139 122.021 106.456 121.744C105.773 121.467 105.245 121.077 104.872 120.576C104.499 120.064 104.312 119.467 104.312 118.784C104.312 118.101 104.493 117.525 104.856 117.056C105.219 116.587 105.741 116.229 106.424 115.984C107.107 115.739 107.923 115.616 108.872 115.616C109.821 115.616 110.637 115.739 111.32 115.984C112.013 116.229 112.541 116.592 112.904 117.072C113.277 117.541 113.464 118.112 113.464 118.784C113.464 119.467 113.272 120.064 112.888 120.576C112.515 121.077 111.981 121.467 111.288 121.744C110.605 122.021 109.8 122.16 108.872 122.16ZM108.872 120.528C109.64 120.528 110.248 120.368 110.696 120.048C111.144 119.728 111.368 119.285 111.368 118.72C111.368 118.165 111.144 117.728 110.696 117.408C110.248 117.088 109.64 116.928 108.872 116.928C108.104 116.928 107.501 117.088 107.064 117.408C106.627 117.728 106.408 118.165 106.408 118.72C106.408 119.285 106.627 119.728 107.064 120.048C107.501 120.368 108.104 120.528 108.872 120.528ZM108.872 116.704C108.008 116.704 107.267 116.592 106.648 116.368C106.029 116.133 105.549 115.797 105.208 115.36C104.877 114.912 104.712 114.379 104.712 113.76C104.712 113.12 104.883 112.571 105.224 112.112C105.576 111.643 106.067 111.28 106.696 111.024C107.325 110.768 108.051 110.64 108.872 110.64C109.704 110.64 110.435 110.768 111.064 111.024C111.693 111.28 112.184 111.643 112.536 112.112C112.888 112.571 113.064 113.12 113.064 113.76C113.064 114.379 112.893 114.912 112.552 115.36C112.221 115.797 111.741 116.133 111.112 116.368C110.483 116.592 109.736 116.704 108.872 116.704ZM108.872 115.424C109.533 115.424 110.056 115.285 110.44 115.008C110.824 114.72 111.016 114.336 111.016 113.856C111.016 113.355 110.819 112.965 110.424 112.688C110.029 112.411 109.512 112.272 108.872 112.272C108.232 112.272 107.72 112.411 107.336 112.688C106.952 112.965 106.76 113.355 106.76 113.856C106.76 114.336 106.947 114.72 107.32 115.008C107.704 115.285 108.221 115.424 108.872 115.424ZM119.485 122.16C118.6 122.16 117.8 121.936 117.085 121.488C116.381 121.04 115.827 120.389 115.421 119.536C115.016 118.672 114.813 117.627 114.813 116.4C114.813 115.173 115.016 114.133 115.421 113.28C115.827 112.416 116.381 111.76 117.085 111.312C117.8 110.864 118.6 110.64 119.485 110.64C120.381 110.64 121.181 110.864 121.885 111.312C122.589 111.76 123.144 112.416 123.549 113.28C123.965 114.133 124.173 115.173 124.173 116.4C124.173 117.627 123.965 118.672 123.549 119.536C123.144 120.389 122.589 121.04 121.885 121.488C121.181 121.936 120.381 122.16 119.485 122.16ZM119.485 120.352C120.008 120.352 120.461 120.213 120.845 119.936C121.229 119.648 121.528 119.211 121.741 118.624C121.965 118.037 122.077 117.296 122.077 116.4C122.077 115.493 121.965 114.752 121.741 114.176C121.528 113.589 121.229 113.157 120.845 112.88C120.461 112.592 120.008 112.448 119.485 112.448C118.984 112.448 118.536 112.592 118.141 112.88C117.757 113.157 117.453 113.589 117.229 114.176C117.016 114.752 116.909 115.493 116.909 116.4C116.909 117.296 117.016 118.037 117.229 118.624C117.453 119.211 117.757 119.648 118.141 119.936C118.536 120.213 118.984 120.352 119.485 120.352ZM124.863 122L128.623 117.104L128.591 118.176L125.007 113.456H127.231L129.743 116.816H128.895L131.423 113.456H133.583L129.967 118.176L129.983 117.104L133.727 122H131.471L128.831 118.432L129.663 118.544L127.071 122H124.863ZM134.498 122V120.608L138.946 116.384C139.319 116.032 139.596 115.723 139.778 115.456C139.959 115.189 140.076 114.944 140.13 114.72C140.194 114.485 140.226 114.267 140.226 114.064C140.226 113.552 140.05 113.157 139.698 112.88C139.346 112.592 138.828 112.448 138.146 112.448C137.602 112.448 137.106 112.544 136.658 112.736C136.22 112.928 135.842 113.221 135.522 113.616L134.066 112.496C134.503 111.909 135.09 111.456 135.826 111.136C136.572 110.805 137.404 110.64 138.322 110.64C139.132 110.64 139.836 110.773 140.434 111.04C141.042 111.296 141.506 111.664 141.826 112.144C142.156 112.624 142.322 113.195 142.322 113.856C142.322 114.219 142.274 114.581 142.178 114.944C142.082 115.296 141.9 115.669 141.634 116.064C141.367 116.459 140.978 116.901 140.466 117.392L136.642 121.024L136.21 120.24H142.753V122H134.498ZM148.626 122.16C147.741 122.16 146.941 121.936 146.226 121.488C145.522 121.04 144.967 120.389 144.562 119.536C144.157 118.672 143.954 117.627 143.954 116.4C143.954 115.173 144.157 114.133 144.562 113.28C144.967 112.416 145.522 111.76 146.226 111.312C146.941 110.864 147.741 110.64 148.626 110.64C149.522 110.64 150.322 110.864 151.026 111.312C151.73 111.76 152.285 112.416 152.69 113.28C153.106 114.133 153.314 115.173 153.314 116.4C153.314 117.627 153.106 118.672 152.69 119.536C152.285 120.389 151.73 121.04 151.026 121.488C150.322 121.936 149.522 122.16 148.626 122.16ZM148.626 120.352C149.149 120.352 149.602 120.213 149.986 119.936C150.37 119.648 150.669 119.211 150.882 118.624C151.106 118.037 151.218 117.296 151.218 116.4C151.218 115.493 151.106 114.752 150.882 114.176C150.669 113.589 150.37 113.157 149.986 112.88C149.602 112.592 149.149 112.448 148.626 112.448C148.125 112.448 147.677 112.592 147.282 112.88C146.898 113.157 146.594 113.589 146.37 114.176C146.157 114.752 146.05 115.493 146.05 116.4C146.05 117.296 146.157 118.037 146.37 118.624C146.594 119.211 146.898 119.648 147.282 119.936C147.677 120.213 148.125 120.352 148.626 120.352ZM159.392 122.16C158.506 122.16 157.706 121.936 156.992 121.488C156.288 121.04 155.733 120.389 155.328 119.536C154.922 118.672 154.72 117.627 154.72 116.4C154.72 115.173 154.922 114.133 155.328 113.28C155.733 112.416 156.288 111.76 156.992 111.312C157.706 110.864 158.506 110.64 159.392 110.64C160.288 110.64 161.088 110.864 161.792 111.312C162.496 111.76 163.05 112.416 163.456 113.28C163.872 114.133 164.08 115.173 164.08 116.4C164.08 117.627 163.872 118.672 163.456 119.536C163.05 120.389 162.496 121.04 161.792 121.488C161.088 121.936 160.288 122.16 159.392 122.16ZM159.392 120.352C159.914 120.352 160.368 120.213 160.752 119.936C161.136 119.648 161.434 119.211 161.648 118.624C161.872 118.037 161.984 117.296 161.984 116.4C161.984 115.493 161.872 114.752 161.648 114.176C161.434 113.589 161.136 113.157 160.752 112.88C160.368 112.592 159.914 112.448 159.392 112.448C158.89 112.448 158.442 112.592 158.048 112.88C157.664 113.157 157.36 113.589 157.136 114.176C156.922 114.752 156.816 115.493 156.816 116.4C156.816 117.296 156.922 118.037 157.136 118.624C157.36 119.211 157.664 119.648 158.048 119.936C158.442 120.213 158.89 120.352 159.392 120.352ZM170.829 122.112C170.136 122.112 169.501 121.952 168.925 121.632C168.36 121.312 167.907 120.832 167.565 120.192C167.235 119.541 167.069 118.72 167.069 117.728C167.069 116.725 167.229 115.904 167.549 115.264C167.88 114.624 168.328 114.149 168.893 113.84C169.459 113.52 170.104 113.36 170.829 113.36C171.672 113.36 172.413 113.541 173.053 113.904C173.704 114.267 174.216 114.773 174.589 115.424C174.973 116.075 175.165 116.843 175.165 117.728C175.165 118.613 174.973 119.387 174.589 120.048C174.216 120.699 173.704 121.205 173.053 121.568C172.413 121.931 171.672 122.112 170.829 122.112ZM166.093 125.104V113.456H167.997V115.472L167.933 117.744L168.093 120.016V125.104H166.093ZM170.605 120.4C171.085 120.4 171.512 120.293 171.885 120.08C172.269 119.867 172.573 119.557 172.797 119.152C173.021 118.747 173.133 118.272 173.133 117.728C173.133 117.173 173.021 116.699 172.797 116.304C172.573 115.899 172.269 115.589 171.885 115.376C171.512 115.163 171.085 115.056 170.605 115.056C170.125 115.056 169.693 115.163 169.309 115.376C168.925 115.589 168.621 115.899 168.397 116.304C168.173 116.699 168.061 117.173 168.061 117.728C168.061 118.272 168.173 118.747 168.397 119.152C168.621 119.557 168.925 119.867 169.309 120.08C169.693 120.293 170.125 120.4 170.605 120.4ZM175.613 122L179.373 117.104L179.341 118.176L175.757 113.456H177.981L180.493 116.816H179.645L182.173 113.456H184.333L180.717 118.176L180.733 117.104L184.477 122H182.221L179.581 118.432L180.413 118.544L177.821 122H175.613Z" fill="white"/>
</svg>
