<svg width="320" height="100" viewBox="0 0 320 100" fill="none" xmlns="http://www.w3.org/2000/svg">
<rect width="320" height="100" fill="#0D0C22"/>
<path d="M121.661 41L127.589 27.7H130.629L136.576 41H133.346L128.482 29.258H129.698L124.815 41H121.661ZM124.625 38.15L125.442 35.813H132.282L133.118 38.15H124.625ZM142.043 41.152C141.08 41.152 140.213 40.9367 139.44 40.506C138.667 40.0627 138.053 39.4483 137.597 38.663C137.154 37.8777 136.932 36.953 136.932 35.889C136.932 34.8123 137.154 33.8813 137.597 33.096C138.053 32.3107 138.667 31.7027 139.44 31.272C140.213 30.8413 141.08 30.626 142.043 30.626C142.904 30.626 143.658 30.816 144.304 31.196C144.95 31.576 145.45 32.1523 145.805 32.925C146.16 33.6977 146.337 34.6857 146.337 35.889C146.337 37.0797 146.166 38.0677 145.824 38.853C145.482 39.6257 144.988 40.202 144.342 40.582C143.709 40.962 142.942 41.152 142.043 41.152ZM142.556 38.72C143.037 38.72 143.474 38.606 143.867 38.378C144.26 38.15 144.57 37.827 144.798 37.409C145.039 36.9783 145.159 36.4717 145.159 35.889C145.159 35.2937 145.039 34.787 144.798 34.369C144.57 33.951 144.26 33.628 143.867 33.4C143.474 33.172 143.037 33.058 142.556 33.058C142.062 33.058 141.619 33.172 141.226 33.4C140.833 33.628 140.517 33.951 140.276 34.369C140.048 34.787 139.934 35.2937 139.934 35.889C139.934 36.4717 140.048 36.9783 140.276 37.409C140.517 37.827 140.833 38.15 141.226 38.378C141.619 38.606 142.062 38.72 142.556 38.72ZM145.235 41V38.91L145.292 35.87L145.102 32.849V26.902H148.066V41H145.235ZM156.551 41V30.55C156.551 29.3973 156.893 28.479 157.577 27.795C158.261 27.0983 159.237 26.75 160.503 26.75C160.934 26.75 161.346 26.7943 161.738 26.883C162.144 26.9717 162.486 27.111 162.764 27.301L161.985 29.448C161.821 29.334 161.637 29.2453 161.434 29.182C161.232 29.1187 161.016 29.087 160.788 29.087C160.358 29.087 160.022 29.2137 159.781 29.467C159.553 29.7077 159.439 30.075 159.439 30.569V31.519L159.515 32.792V41H156.551ZM154.974 33.286V31.006H162.061V33.286H154.974ZM168.481 41.152C167.316 41.152 166.29 40.924 165.403 40.468C164.529 40.012 163.851 39.3913 163.37 38.606C162.889 37.808 162.648 36.9023 162.648 35.889C162.648 34.863 162.882 33.9573 163.351 33.172C163.832 32.374 164.485 31.7533 165.308 31.31C166.131 30.854 167.062 30.626 168.101 30.626C169.102 30.626 170.001 30.8413 170.799 31.272C171.61 31.69 172.249 32.298 172.718 33.096C173.187 33.8813 173.421 34.825 173.421 35.927C173.421 36.041 173.415 36.174 173.402 36.326C173.389 36.4653 173.377 36.5983 173.364 36.725H165.061V34.996H171.806L170.666 35.509C170.666 34.977 170.558 34.5147 170.343 34.122C170.128 33.7293 169.83 33.4253 169.45 33.21C169.07 32.982 168.627 32.868 168.12 32.868C167.613 32.868 167.164 32.982 166.771 33.21C166.391 33.4253 166.093 33.7357 165.878 34.141C165.663 34.5337 165.555 35.0023 165.555 35.547V36.003C165.555 36.5603 165.675 37.0543 165.916 37.485C166.169 37.903 166.518 38.226 166.961 38.454C167.417 38.6693 167.949 38.777 168.557 38.777C169.102 38.777 169.577 38.6947 169.982 38.53C170.4 38.3653 170.78 38.1183 171.122 37.789L172.699 39.499C172.23 40.031 171.641 40.4427 170.932 40.734C170.223 41.0127 169.406 41.152 168.481 41.152ZM180.467 41.152C179.302 41.152 178.276 40.924 177.389 40.468C176.515 40.012 175.838 39.3913 175.356 38.606C174.875 37.808 174.634 36.9023 174.634 35.889C174.634 34.863 174.869 33.9573 175.337 33.172C175.819 32.374 176.471 31.7533 177.294 31.31C178.118 30.854 179.049 30.626 180.087 30.626C181.088 30.626 181.987 30.8413 182.785 31.272C183.596 31.69 184.236 32.298 184.704 33.096C185.173 33.8813 185.407 34.825 185.407 35.927C185.407 36.041 185.401 36.174 185.388 36.326C185.376 36.4653 185.363 36.5983 185.35 36.725H177.047V34.996H183.792L182.652 35.509C182.652 34.977 182.545 34.5147 182.329 34.122C182.114 33.7293 181.816 33.4253 181.436 33.21C181.056 32.982 180.613 32.868 180.106 32.868C179.6 32.868 179.15 32.982 178.757 33.21C178.377 33.4253 178.08 33.7357 177.864 34.141C177.649 34.5337 177.541 35.0023 177.541 35.547V36.003C177.541 36.5603 177.662 37.0543 177.902 37.485C178.156 37.903 178.504 38.226 178.947 38.454C179.403 38.6693 179.935 38.777 180.543 38.777C181.088 38.777 181.563 38.6947 181.968 38.53C182.386 38.3653 182.766 38.1183 183.108 37.789L184.685 39.499C184.217 40.031 183.628 40.4427 182.918 40.734C182.209 41.0127 181.392 41.152 180.467 41.152ZM191.77 41.152C190.807 41.152 189.939 40.9367 189.167 40.506C188.394 40.0627 187.78 39.4483 187.324 38.663C186.88 37.8777 186.659 36.953 186.659 35.889C186.659 34.8123 186.88 33.8813 187.324 33.096C187.78 32.3107 188.394 31.7027 189.167 31.272C189.939 30.8413 190.807 30.626 191.77 30.626C192.631 30.626 193.385 30.816 194.031 31.196C194.677 31.576 195.177 32.1523 195.532 32.925C195.886 33.6977 196.064 34.6857 196.064 35.889C196.064 37.0797 195.893 38.0677 195.551 38.853C195.209 39.6257 194.715 40.202 194.069 40.582C193.435 40.962 192.669 41.152 191.77 41.152ZM192.283 38.72C192.764 38.72 193.201 38.606 193.594 38.378C193.986 38.15 194.297 37.827 194.525 37.409C194.765 36.9783 194.886 36.4717 194.886 35.889C194.886 35.2937 194.765 34.787 194.525 34.369C194.297 33.951 193.986 33.628 193.594 33.4C193.201 33.172 192.764 33.058 192.283 33.058C191.789 33.058 191.345 33.172 190.953 33.4C190.56 33.628 190.243 33.951 190.003 34.369C189.775 34.787 189.661 35.2937 189.661 35.889C189.661 36.4717 189.775 36.9783 190.003 37.409C190.243 37.827 190.56 38.15 190.953 38.378C191.345 38.606 191.789 38.72 192.283 38.72ZM194.962 41V38.91L195.019 35.87L194.829 32.849V26.902H197.793V41H194.962ZM109.537 73.228C108.613 73.228 107.694 73.1077 106.782 72.867C105.87 72.6137 105.098 72.259 104.464 71.803L105.661 69.447C106.168 69.8143 106.757 70.1057 107.428 70.321C108.1 70.5363 108.777 70.644 109.461 70.644C110.234 70.644 110.842 70.492 111.285 70.188C111.729 69.884 111.95 69.466 111.95 68.934C111.95 68.4273 111.754 68.0283 111.361 67.737C110.969 67.4457 110.335 67.3 109.461 67.3H108.055V65.267L111.76 61.068L112.102 62.17H105.129V59.7H114.439V61.695L110.753 65.894L109.195 65.001H110.088C111.722 65.001 112.957 65.3683 113.793 66.103C114.629 66.8377 115.047 67.7813 115.047 68.934C115.047 69.6813 114.851 70.3843 114.458 71.043C114.066 71.689 113.464 72.2147 112.653 72.62C111.843 73.0253 110.804 73.228 109.537 73.228ZM116.262 73V71.005L121.392 66.16C121.797 65.7927 122.095 65.4633 122.285 65.172C122.475 64.8807 122.601 64.6147 122.665 64.374C122.741 64.1333 122.779 63.9117 122.779 63.709C122.779 63.177 122.595 62.7717 122.228 62.493C121.873 62.2017 121.347 62.056 120.651 62.056C120.093 62.056 119.574 62.1637 119.093 62.379C118.624 62.5943 118.225 62.93 117.896 63.386L115.654 61.942C116.16 61.182 116.87 60.5803 117.782 60.137C118.694 59.6937 119.745 59.472 120.936 59.472C121.924 59.472 122.785 59.6367 123.52 59.966C124.267 60.2827 124.843 60.7323 125.249 61.315C125.667 61.8977 125.876 62.5943 125.876 63.405C125.876 63.8357 125.819 64.2663 125.705 64.697C125.603 65.115 125.388 65.5583 125.059 66.027C124.742 66.4957 124.273 67.0213 123.653 67.604L119.397 71.613L118.808 70.492H126.313V73H116.262ZM133.283 73.228C132.193 73.228 131.218 72.962 130.357 72.43C129.495 71.8853 128.818 71.1 128.324 70.074C127.83 69.048 127.583 67.8067 127.583 66.35C127.583 64.8933 127.83 63.652 128.324 62.626C128.818 61.6 129.495 60.821 130.357 60.289C131.218 59.7443 132.193 59.472 133.283 59.472C134.385 59.472 135.36 59.7443 136.209 60.289C137.07 60.821 137.748 61.6 138.242 62.626C138.736 63.652 138.983 64.8933 138.983 66.35C138.983 67.8067 138.736 69.048 138.242 70.074C137.748 71.1 137.07 71.8853 136.209 72.43C135.36 72.962 134.385 73.228 133.283 73.228ZM133.283 70.625C133.802 70.625 134.252 70.4793 134.632 70.188C135.024 69.8967 135.328 69.4343 135.544 68.801C135.772 68.1677 135.886 67.3507 135.886 66.35C135.886 65.3493 135.772 64.5323 135.544 63.899C135.328 63.2657 135.024 62.8033 134.632 62.512C134.252 62.2207 133.802 62.075 133.283 62.075C132.776 62.075 132.326 62.2207 131.934 62.512C131.554 62.8033 131.25 63.2657 131.022 63.899C130.806 64.5323 130.699 65.3493 130.699 66.35C130.699 67.3507 130.806 68.1677 131.022 68.801C131.25 69.4343 131.554 69.8967 131.934 70.188C132.326 70.4793 132.776 70.625 133.283 70.625ZM141.447 68.725L147.831 62.303L149.427 63.975L143.043 70.397L141.447 68.725ZM141.447 63.975L143.043 62.303L149.427 68.725L147.831 70.397L141.447 63.975ZM156.595 73V60.84L157.925 62.17H153.935V59.7H159.673V73H156.595ZM167.683 73.228C166.594 73.228 165.619 72.962 164.757 72.43C163.896 71.8853 163.218 71.1 162.724 70.074C162.23 69.048 161.983 67.8067 161.983 66.35C161.983 64.8933 162.23 63.652 162.724 62.626C163.218 61.6 163.896 60.821 164.757 60.289C165.619 59.7443 166.594 59.472 167.683 59.472C168.785 59.472 169.761 59.7443 170.609 60.289C171.471 60.821 172.148 61.6 172.642 62.626C173.136 63.652 173.383 64.8933 173.383 66.35C173.383 67.8067 173.136 69.048 172.642 70.074C172.148 71.1 171.471 71.8853 170.609 72.43C169.761 72.962 168.785 73.228 167.683 73.228ZM167.683 70.625C168.203 70.625 168.652 70.4793 169.032 70.188C169.425 69.8967 169.729 69.4343 169.944 68.801C170.172 68.1677 170.286 67.3507 170.286 66.35C170.286 65.3493 170.172 64.5323 169.944 63.899C169.729 63.2657 169.425 62.8033 169.032 62.512C168.652 62.2207 168.203 62.075 167.683 62.075C167.177 62.075 166.727 62.2207 166.334 62.512C165.954 62.8033 165.65 63.2657 165.422 63.899C165.207 64.5323 165.099 65.3493 165.099 66.35C165.099 67.3507 165.207 68.1677 165.422 68.801C165.65 69.4343 165.954 69.8967 166.334 70.188C166.727 70.4793 167.177 70.625 167.683 70.625ZM180.579 73.228C179.489 73.228 178.514 72.962 177.653 72.43C176.791 71.8853 176.114 71.1 175.62 70.074C175.126 69.048 174.879 67.8067 174.879 66.35C174.879 64.8933 175.126 63.652 175.62 62.626C176.114 61.6 176.791 60.821 177.653 60.289C178.514 59.7443 179.489 59.472 180.579 59.472C181.681 59.472 182.656 59.7443 183.505 60.289C184.366 60.821 185.044 61.6 185.538 62.626C186.032 63.652 186.279 64.8933 186.279 66.35C186.279 67.8067 186.032 69.048 185.538 70.074C185.044 71.1 184.366 71.8853 183.505 72.43C182.656 72.962 181.681 73.228 180.579 73.228ZM180.579 70.625C181.098 70.625 181.548 70.4793 181.928 70.188C182.32 69.8967 182.624 69.4343 182.84 68.801C183.068 68.1677 183.182 67.3507 183.182 66.35C183.182 65.3493 183.068 64.5323 182.84 63.899C182.624 63.2657 182.32 62.8033 181.928 62.512C181.548 62.2207 181.098 62.075 180.579 62.075C180.072 62.075 179.622 62.2207 179.23 62.512C178.85 62.8033 178.546 63.2657 178.318 63.899C178.102 64.5323 177.995 65.3493 177.995 66.35C177.995 67.3507 178.102 68.1677 178.318 68.801C178.546 69.4343 178.85 69.8967 179.23 70.188C179.622 70.4793 180.072 70.625 180.579 70.625ZM199.824 73.152C198.963 73.152 198.209 72.962 197.563 72.582C196.917 72.202 196.41 71.6257 196.043 70.853C195.688 70.0677 195.511 69.0797 195.511 67.889C195.511 66.6857 195.682 65.6977 196.024 64.925C196.366 64.1523 196.86 63.576 197.506 63.196C198.152 62.816 198.925 62.626 199.824 62.626C200.787 62.626 201.648 62.8477 202.408 63.291C203.181 63.7217 203.789 64.3297 204.232 65.115C204.688 65.9003 204.916 66.825 204.916 67.889C204.916 68.9657 204.688 69.8967 204.232 70.682C203.789 71.4673 203.181 72.0753 202.408 72.506C201.648 72.9367 200.787 73.152 199.824 73.152ZM193.782 76.686V62.778H196.613V64.868L196.556 67.908L196.746 70.929V76.686H193.782ZM199.311 70.72C199.805 70.72 200.242 70.606 200.622 70.378C201.015 70.15 201.325 69.827 201.553 69.409C201.794 68.9783 201.914 68.4717 201.914 67.889C201.914 67.2937 201.794 66.787 201.553 66.369C201.325 65.951 201.015 65.628 200.622 65.4C200.242 65.172 199.805 65.058 199.311 65.058C198.817 65.058 198.374 65.172 197.981 65.4C197.588 65.628 197.278 65.951 197.05 66.369C196.822 66.787 196.708 67.2937 196.708 67.889C196.708 68.4717 196.822 68.9783 197.05 69.409C197.278 69.827 197.588 70.15 197.981 70.378C198.374 70.606 198.817 70.72 199.311 70.72ZM205.293 73L209.872 66.996L209.815 68.63L205.426 62.778H208.751L211.525 66.597L210.271 66.635L213.14 62.778H216.294L211.886 68.573V66.977L216.446 73H213.083L210.176 68.934L211.411 69.105L208.523 73H205.293Z" fill="white"/>
</svg>
