<svg width="1150" height="60" viewBox="0 0 1150 60" fill="none" xmlns="http://www.w3.org/2000/svg">
<rect width="1150" height="60" fill="#F86F03"/>
<path d="M495.1 23L500.14 11.8H502.188L507.244 23H505.068L500.732 12.904H501.564L497.244 23H495.1ZM497.42 20.408L497.98 18.776H504.028L504.588 20.408H497.42ZM508.668 23V11.8H513.564C514.78 11.8 515.847 12.0347 516.764 12.504C517.681 12.9733 518.396 13.624 518.908 14.456C519.42 15.288 519.676 16.2693 519.676 17.4C519.676 18.52 519.42 19.5013 518.908 20.344C518.396 21.176 517.681 21.8267 516.764 22.296C515.847 22.7653 514.78 23 513.564 23H508.668ZM510.748 21.24H513.468C514.311 21.24 515.036 21.08 515.644 20.76C516.263 20.44 516.737 19.992 517.068 19.416C517.409 18.84 517.58 18.168 517.58 17.4C517.58 16.6213 517.409 15.9493 517.068 15.384C516.737 14.808 516.263 14.36 515.644 14.04C515.036 13.72 514.311 13.56 513.468 13.56H510.748V21.24ZM529.781 23.16C528.906 23.16 528.069 23.0373 527.269 22.792C526.469 22.536 525.834 22.2107 525.365 21.816L526.085 20.2C526.533 20.552 527.087 20.8453 527.749 21.08C528.41 21.3147 529.087 21.432 529.781 21.432C530.367 21.432 530.842 21.368 531.205 21.24C531.567 21.112 531.834 20.9413 532.005 20.728C532.175 20.504 532.261 20.2533 532.261 19.976C532.261 19.6347 532.138 19.3627 531.893 19.16C531.647 18.9467 531.327 18.7813 530.933 18.664C530.549 18.536 530.117 18.4187 529.637 18.312C529.167 18.2053 528.693 18.0827 528.213 17.944C527.743 17.7947 527.311 17.608 526.917 17.384C526.533 17.1493 526.218 16.84 525.973 16.456C525.727 16.072 525.605 15.5813 525.605 14.984C525.605 14.376 525.765 13.8213 526.085 13.32C526.415 12.808 526.911 12.4027 527.573 12.104C528.245 11.7947 529.093 11.64 530.117 11.64C530.789 11.64 531.455 11.7253 532.117 11.896C532.778 12.0667 533.354 12.312 533.845 12.632L533.189 14.248C532.687 13.9493 532.17 13.7307 531.637 13.592C531.103 13.4427 530.591 13.368 530.101 13.368C529.525 13.368 529.055 13.4373 528.693 13.576C528.341 13.7147 528.079 13.896 527.909 14.12C527.749 14.344 527.669 14.6 527.669 14.888C527.669 15.2293 527.786 15.5067 528.021 15.72C528.266 15.9227 528.581 16.0827 528.965 16.2C529.359 16.3173 529.797 16.4347 530.277 16.552C530.757 16.6587 531.231 16.7813 531.701 16.92C532.181 17.0587 532.613 17.24 532.997 17.464C533.391 17.688 533.706 17.992 533.941 18.376C534.186 18.76 534.309 19.2453 534.309 19.832C534.309 20.4293 534.143 20.984 533.813 21.496C533.493 21.9973 532.997 22.4027 532.325 22.712C531.653 23.0107 530.805 23.16 529.781 23.16ZM538.487 23V13.56H534.775V11.8H544.279V13.56H540.567V23H538.487ZM545.84 23V11.8H547.92V23H545.84ZM556.133 23.16C555.28 23.16 554.485 23.0213 553.749 22.744C553.024 22.456 552.389 22.056 551.845 21.544C551.312 21.0213 550.896 20.408 550.597 19.704C550.299 19 550.149 18.232 550.149 17.4C550.149 16.568 550.299 15.8 550.597 15.096C550.896 14.392 551.317 13.784 551.861 13.272C552.405 12.7493 553.04 12.3493 553.765 12.072C554.491 11.784 555.285 11.64 556.149 11.64C557.067 11.64 557.904 11.8 558.661 12.12C559.419 12.4293 560.059 12.8933 560.581 13.512L559.237 14.776C558.832 14.3387 558.379 14.0133 557.877 13.8C557.376 13.576 556.832 13.464 556.245 13.464C555.659 13.464 555.12 13.56 554.629 13.752C554.149 13.944 553.728 14.216 553.365 14.568C553.013 14.92 552.736 15.336 552.533 15.816C552.341 16.296 552.245 16.824 552.245 17.4C552.245 17.976 552.341 18.504 552.533 18.984C552.736 19.464 553.013 19.88 553.365 20.232C553.728 20.584 554.149 20.856 554.629 21.048C555.12 21.24 555.659 21.336 556.245 21.336C556.832 21.336 557.376 21.2293 557.877 21.016C558.379 20.792 558.832 20.456 559.237 20.008L560.581 21.288C560.059 21.896 559.419 22.36 558.661 22.68C557.904 23 557.061 23.16 556.133 23.16ZM564.43 20.36L564.318 17.896L570.19 11.8H572.526L567.646 16.984L566.494 18.248L564.43 20.36ZM562.574 23V11.8H564.654V23H562.574ZM570.382 23L566.094 17.896L567.47 16.376L572.814 23H570.382ZM576.186 23V18.568L576.65 19.848L571.786 11.8H574.01L577.914 18.28H576.666L580.602 11.8H582.65L577.786 19.848L578.266 18.568V23H576.186ZM590.338 16.952H595.922V18.712H590.338V16.952ZM590.514 23H588.434V11.8H596.61V13.544H590.514V23ZM603.744 23.16C602.87 23.16 602.064 23.016 601.328 22.728C600.592 22.44 599.952 22.04 599.408 21.528C598.864 21.0053 598.443 20.3973 598.144 19.704C597.846 19 597.696 18.232 597.696 17.4C597.696 16.568 597.846 15.8053 598.144 15.112C598.443 14.408 598.864 13.8 599.408 13.288C599.952 12.7653 600.592 12.36 601.328 12.072C602.064 11.784 602.864 11.64 603.728 11.64C604.603 11.64 605.403 11.784 606.128 12.072C606.864 12.36 607.504 12.7653 608.048 13.288C608.592 13.8 609.014 14.408 609.312 15.112C609.611 15.8053 609.76 16.568 609.76 17.4C609.76 18.232 609.611 19 609.312 19.704C609.014 20.408 608.592 21.016 608.048 21.528C607.504 22.04 606.864 22.44 606.128 22.728C605.403 23.016 604.608 23.16 603.744 23.16ZM603.728 21.336C604.294 21.336 604.816 21.24 605.296 21.048C605.776 20.856 606.192 20.584 606.544 20.232C606.896 19.8693 607.168 19.4533 607.36 18.984C607.563 18.504 607.664 17.976 607.664 17.4C607.664 16.824 607.563 16.3013 607.36 15.832C607.168 15.352 606.896 14.936 606.544 14.584C606.192 14.2213 605.776 13.944 605.296 13.752C604.816 13.56 604.294 13.464 603.728 13.464C603.163 13.464 602.64 13.56 602.16 13.752C601.691 13.944 601.275 14.2213 600.912 14.584C600.56 14.936 600.283 15.352 600.08 15.832C599.888 16.3013 599.792 16.824 599.792 17.4C599.792 17.9653 599.888 18.488 600.08 18.968C600.283 19.448 600.56 19.8693 600.912 20.232C601.264 20.584 601.68 20.856 602.16 21.048C602.64 21.24 603.163 21.336 603.728 21.336ZM617.213 23.16C616.338 23.16 615.533 23.016 614.797 22.728C614.061 22.44 613.421 22.04 612.877 21.528C612.333 21.0053 611.912 20.3973 611.613 19.704C611.314 19 611.165 18.232 611.165 17.4C611.165 16.568 611.314 15.8053 611.613 15.112C611.912 14.408 612.333 13.8 612.877 13.288C613.421 12.7653 614.061 12.36 614.797 12.072C615.533 11.784 616.333 11.64 617.197 11.64C618.072 11.64 618.872 11.784 619.597 12.072C620.333 12.36 620.973 12.7653 621.517 13.288C622.061 13.8 622.482 14.408 622.781 15.112C623.08 15.8053 623.229 16.568 623.229 17.4C623.229 18.232 623.08 19 622.781 19.704C622.482 20.408 622.061 21.016 621.517 21.528C620.973 22.04 620.333 22.44 619.597 22.728C618.872 23.016 618.077 23.16 617.213 23.16ZM617.197 21.336C617.762 21.336 618.285 21.24 618.765 21.048C619.245 20.856 619.661 20.584 620.013 20.232C620.365 19.8693 620.637 19.4533 620.829 18.984C621.032 18.504 621.133 17.976 621.133 17.4C621.133 16.824 621.032 16.3013 620.829 15.832C620.637 15.352 620.365 14.936 620.013 14.584C619.661 14.2213 619.245 13.944 618.765 13.752C618.285 13.56 617.762 13.464 617.197 13.464C616.632 13.464 616.109 13.56 615.629 13.752C615.16 13.944 614.744 14.2213 614.381 14.584C614.029 14.936 613.752 15.352 613.549 15.832C613.357 16.3013 613.261 16.824 613.261 17.4C613.261 17.9653 613.357 18.488 613.549 18.968C613.752 19.448 614.029 19.8693 614.381 20.232C614.733 20.584 615.149 20.856 615.629 21.048C616.109 21.24 616.632 21.336 617.197 21.336ZM627.549 23V13.56H623.837V11.8H633.341V13.56H629.629V23H627.549ZM636.822 16.456H642.39V18.168H636.822V16.456ZM636.982 21.256H643.302V23H634.902V11.8H643.078V13.544H636.982V21.256ZM645.621 23V11.8H650.229C651.221 11.8 652.069 11.96 652.773 12.28C653.488 12.6 654.037 13.0587 654.421 13.656C654.805 14.2533 654.997 14.9627 654.997 15.784C654.997 16.6053 654.805 17.3147 654.421 17.912C654.037 18.4987 653.488 18.952 652.773 19.272C652.069 19.5813 651.221 19.736 650.229 19.736H646.773L647.701 18.792V23H645.621ZM652.949 23L650.117 18.936H652.341L655.189 23H652.949ZM647.701 19.016L646.773 18.024H650.133C651.051 18.024 651.739 17.8267 652.197 17.432C652.667 17.0373 652.901 16.488 652.901 15.784C652.901 15.0693 652.667 14.52 652.197 14.136C651.739 13.752 651.051 13.56 650.133 13.56H646.773L647.701 12.536V19.016ZM485.863 49V38.6L486.775 39.544H483.495V37.8H487.943V49H485.863ZM491.957 49V38.6L492.869 39.544H489.589V37.8H494.037V49H491.957ZM499.971 49.16C499.181 49.16 498.408 49.048 497.651 48.824C496.904 48.5893 496.275 48.2693 495.763 47.864L496.643 46.248C497.048 46.5787 497.539 46.8453 498.115 47.048C498.701 47.2507 499.309 47.352 499.939 47.352C500.675 47.352 501.251 47.1973 501.667 46.888C502.093 46.5787 502.307 46.1627 502.307 45.64C502.307 45.288 502.216 44.9787 502.035 44.712C501.864 44.4453 501.555 44.2427 501.107 44.104C500.669 43.9653 500.067 43.896 499.299 43.896H496.595L497.171 37.8H503.747V39.544H497.939L499.027 38.552L498.595 43.112L497.507 42.136H499.763C500.872 42.136 501.763 42.2853 502.435 42.584C503.117 42.872 503.613 43.2773 503.923 43.8C504.243 44.312 504.403 44.8987 504.403 45.56C504.403 46.2107 504.243 46.808 503.923 47.352C503.603 47.896 503.112 48.3333 502.451 48.664C501.8 48.9947 500.973 49.16 499.971 49.16ZM510.274 49.16C509.389 49.16 508.589 48.936 507.874 48.488C507.17 48.04 506.616 47.3893 506.21 46.536C505.805 45.672 505.602 44.6267 505.602 43.4C505.602 42.1733 505.805 41.1333 506.21 40.28C506.616 39.416 507.17 38.76 507.874 38.312C508.589 37.864 509.389 37.64 510.274 37.64C511.17 37.64 511.97 37.864 512.674 38.312C513.378 38.76 513.933 39.416 514.338 40.28C514.754 41.1333 514.962 42.1733 514.962 43.4C514.962 44.6267 514.754 45.672 514.338 46.536C513.933 47.3893 513.378 48.04 512.674 48.488C511.97 48.936 511.17 49.16 510.274 49.16ZM510.274 47.352C510.797 47.352 511.25 47.2133 511.634 46.936C512.018 46.648 512.317 46.2107 512.53 45.624C512.754 45.0373 512.866 44.296 512.866 43.4C512.866 42.4933 512.754 41.752 512.53 41.176C512.317 40.5893 512.018 40.1573 511.634 39.88C511.25 39.592 510.797 39.448 510.274 39.448C509.773 39.448 509.325 39.592 508.93 39.88C508.546 40.1573 508.242 40.5893 508.018 41.176C507.805 41.752 507.698 42.4933 507.698 43.4C507.698 44.296 507.805 45.0373 508.018 45.624C508.242 46.2107 508.546 46.648 508.93 46.936C509.325 47.2133 509.773 47.352 510.274 47.352ZM515.652 49L519.412 44.104L519.38 45.176L515.796 40.456H518.02L520.532 43.816H519.684L522.212 40.456H524.372L520.756 45.176L520.772 44.104L524.516 49H522.26L519.62 45.432L520.452 45.544L517.86 49H515.652ZM530.075 49.16C529.062 49.16 528.193 48.9467 527.467 48.52C526.742 48.0827 526.187 47.4533 525.803 46.632C525.419 45.8107 525.227 44.7973 525.227 43.592C525.227 42.312 525.457 41.2293 525.915 40.344C526.385 39.4587 527.03 38.7867 527.851 38.328C528.683 37.8693 529.638 37.64 530.715 37.64C531.281 37.64 531.819 37.6987 532.331 37.816C532.854 37.9333 533.297 38.1147 533.659 38.36L532.891 39.928C532.582 39.7253 532.246 39.5867 531.883 39.512C531.531 39.4267 531.158 39.384 530.763 39.384C529.707 39.384 528.87 39.7093 528.251 40.36C527.633 41.0107 527.323 41.9707 527.323 43.24C527.323 43.4427 527.329 43.6827 527.339 43.96C527.35 44.2267 527.387 44.4987 527.451 44.776L526.811 44.072C527.003 43.6347 527.265 43.272 527.595 42.984C527.937 42.6853 528.337 42.4613 528.795 42.312C529.265 42.1627 529.771 42.088 530.315 42.088C531.051 42.088 531.707 42.232 532.283 42.52C532.859 42.7973 533.318 43.1973 533.659 43.72C534.001 44.232 534.171 44.8347 534.171 45.528C534.171 46.264 533.99 46.904 533.627 47.448C533.265 47.992 532.774 48.4133 532.155 48.712C531.537 49.0107 530.843 49.16 530.075 49.16ZM529.963 47.528C530.39 47.528 530.769 47.4533 531.099 47.304C531.43 47.144 531.686 46.92 531.867 46.632C532.059 46.344 532.155 46.008 532.155 45.624C532.155 45.0373 531.953 44.5733 531.547 44.232C531.142 43.8907 530.598 43.72 529.915 43.72C529.467 43.72 529.073 43.8053 528.731 43.976C528.401 44.136 528.134 44.36 527.931 44.648C527.739 44.936 527.643 45.2667 527.643 45.64C527.643 45.9813 527.734 46.296 527.915 46.584C528.097 46.872 528.358 47.1013 528.699 47.272C529.051 47.4427 529.473 47.528 529.963 47.528ZM539.931 49.16C539.045 49.16 538.245 48.936 537.531 48.488C536.827 48.04 536.272 47.3893 535.867 46.536C535.461 45.672 535.259 44.6267 535.259 43.4C535.259 42.1733 535.461 41.1333 535.867 40.28C536.272 39.416 536.827 38.76 537.531 38.312C538.245 37.864 539.045 37.64 539.931 37.64C540.827 37.64 541.627 37.864 542.331 38.312C543.035 38.76 543.589 39.416 543.995 40.28C544.411 41.1333 544.619 42.1733 544.619 43.4C544.619 44.6267 544.411 45.672 543.995 46.536C543.589 47.3893 543.035 48.04 542.331 48.488C541.627 48.936 540.827 49.16 539.931 49.16ZM539.931 47.352C540.453 47.352 540.907 47.2133 541.291 46.936C541.675 46.648 541.973 46.2107 542.187 45.624C542.411 45.0373 542.523 44.296 542.523 43.4C542.523 42.4933 542.411 41.752 542.187 41.176C541.973 40.5893 541.675 40.1573 541.291 39.88C540.907 39.592 540.453 39.448 539.931 39.448C539.429 39.448 538.981 39.592 538.587 39.88C538.203 40.1573 537.899 40.5893 537.675 41.176C537.461 41.752 537.355 42.4933 537.355 43.4C537.355 44.296 537.461 45.0373 537.675 45.624C537.899 46.2107 538.203 46.648 538.587 46.936C538.981 47.2133 539.429 47.352 539.931 47.352ZM551.368 49.112C550.675 49.112 550.04 48.952 549.464 48.632C548.899 48.312 548.446 47.832 548.104 47.192C547.774 46.5413 547.608 45.72 547.608 44.728C547.608 43.7253 547.768 42.904 548.088 42.264C548.419 41.624 548.867 41.1493 549.432 40.84C549.998 40.52 550.643 40.36 551.368 40.36C552.211 40.36 552.952 40.5413 553.592 40.904C554.243 41.2667 554.755 41.7733 555.128 42.424C555.512 43.0747 555.704 43.8427 555.704 44.728C555.704 45.6133 555.512 46.3867 555.128 47.048C554.755 47.6987 554.243 48.2053 553.592 48.568C552.952 48.9307 552.211 49.112 551.368 49.112ZM546.632 52.104V40.456H548.536V42.472L548.472 44.744L548.632 47.016V52.104H546.632ZM551.144 47.4C551.624 47.4 552.051 47.2933 552.424 47.08C552.808 46.8667 553.112 46.5573 553.336 46.152C553.56 45.7467 553.672 45.272 553.672 44.728C553.672 44.1733 553.56 43.6987 553.336 43.304C553.112 42.8987 552.808 42.5893 552.424 42.376C552.051 42.1627 551.624 42.056 551.144 42.056C550.664 42.056 550.232 42.1627 549.848 42.376C549.464 42.5893 549.16 42.8987 548.936 43.304C548.712 43.6987 548.6 44.1733 548.6 44.728C548.6 45.272 548.712 45.7467 548.936 46.152C549.16 46.5573 549.464 46.8667 549.848 47.08C550.232 47.2933 550.664 47.4 551.144 47.4ZM556.152 49L559.912 44.104L559.88 45.176L556.296 40.456H558.52L561.032 43.816H560.184L562.712 40.456H564.872L561.256 45.176L561.272 44.104L565.016 49H562.76L560.12 45.432L560.952 45.544L558.36 49H556.152ZM570.482 45.384V43.72H574.882V45.384H570.482ZM576.798 47.128V45.464L583.55 42.936V43.864L576.798 41.336V39.672L584.174 42.536V44.264L576.798 47.128ZM593.841 49.16C593.052 49.16 592.279 49.048 591.521 48.824C590.775 48.5893 590.145 48.2693 589.633 47.864L590.529 46.248C590.935 46.5787 591.425 46.8453 592.001 47.048C592.577 47.2507 593.18 47.352 593.809 47.352C594.556 47.352 595.137 47.2027 595.553 46.904C595.969 46.5947 596.177 46.1787 596.177 45.656C596.177 45.144 595.985 44.7387 595.601 44.44C595.217 44.1413 594.599 43.992 593.745 43.992H592.721V42.568L595.921 38.76L596.193 39.544H590.177V37.8H597.809V39.192L594.609 43L593.521 42.36H594.145C595.521 42.36 596.551 42.6693 597.233 43.288C597.927 43.896 598.273 44.68 598.273 45.64C598.273 46.2693 598.113 46.8507 597.793 47.384C597.473 47.9173 596.983 48.3493 596.321 48.68C595.671 49 594.844 49.16 593.841 49.16ZM603.076 49.16C602.286 49.16 601.513 49.048 600.756 48.824C600.009 48.5893 599.38 48.2693 598.868 47.864L599.764 46.248C600.169 46.5787 600.66 46.8453 601.236 47.048C601.812 47.2507 602.414 47.352 603.044 47.352C603.79 47.352 604.372 47.2027 604.788 46.904C605.204 46.5947 605.412 46.1787 605.412 45.656C605.412 45.144 605.22 44.7387 604.836 44.44C604.452 44.1413 603.833 43.992 602.98 43.992H601.956V42.568L605.156 38.76L605.428 39.544H599.412V37.8H607.044V39.192L603.844 43L602.756 42.36H603.38C604.756 42.36 605.785 42.6693 606.468 43.288C607.161 43.896 607.508 44.68 607.508 45.64C607.508 46.2693 607.348 46.8507 607.028 47.384C606.708 47.9173 606.217 48.3493 605.556 48.68C604.905 49 604.078 49.16 603.076 49.16ZM613.716 49.16C612.703 49.16 611.833 48.9467 611.108 48.52C610.383 48.0827 609.828 47.4533 609.444 46.632C609.06 45.8107 608.868 44.7973 608.868 43.592C608.868 42.312 609.097 41.2293 609.556 40.344C610.025 39.4587 610.671 38.7867 611.492 38.328C612.324 37.8693 613.279 37.64 614.356 37.64C614.921 37.64 615.46 37.6987 615.972 37.816C616.495 37.9333 616.937 38.1147 617.3 38.36L616.532 39.928C616.223 39.7253 615.887 39.5867 615.524 39.512C615.172 39.4267 614.799 39.384 614.404 39.384C613.348 39.384 612.511 39.7093 611.892 40.36C611.273 41.0107 610.964 41.9707 610.964 43.24C610.964 43.4427 610.969 43.6827 610.98 43.96C610.991 44.2267 611.028 44.4987 611.092 44.776L610.452 44.072C610.644 43.6347 610.905 43.272 611.236 42.984C611.577 42.6853 611.977 42.4613 612.436 42.312C612.905 42.1627 613.412 42.088 613.956 42.088C614.692 42.088 615.348 42.232 615.924 42.52C616.5 42.7973 616.959 43.1973 617.3 43.72C617.641 44.232 617.812 44.8347 617.812 45.528C617.812 46.264 617.631 46.904 617.268 47.448C616.905 47.992 616.415 48.4133 615.796 48.712C615.177 49.0107 614.484 49.16 613.716 49.16ZM613.604 47.528C614.031 47.528 614.409 47.4533 614.74 47.304C615.071 47.144 615.327 46.92 615.508 46.632C615.7 46.344 615.796 46.008 615.796 45.624C615.796 45.0373 615.593 44.5733 615.188 44.232C614.783 43.8907 614.239 43.72 613.556 43.72C613.108 43.72 612.713 43.8053 612.372 43.976C612.041 44.136 611.775 44.36 611.572 44.648C611.38 44.936 611.284 45.2667 611.284 45.64C611.284 45.9813 611.375 46.296 611.556 46.584C611.737 46.872 611.999 47.1013 612.34 47.272C612.692 47.4427 613.113 47.528 613.604 47.528ZM618.105 49L621.865 44.104L621.833 45.176L618.249 40.456H620.473L622.985 43.816H622.137L624.665 40.456H626.825L623.209 45.176L623.225 44.104L626.969 49H624.713L622.073 45.432L622.905 45.544L620.313 49H618.105ZM632.529 49.16C631.515 49.16 630.646 48.9467 629.921 48.52C629.195 48.0827 628.641 47.4533 628.257 46.632C627.873 45.8107 627.681 44.7973 627.681 43.592C627.681 42.312 627.91 41.2293 628.369 40.344C628.838 39.4587 629.483 38.7867 630.305 38.328C631.137 37.8693 632.091 37.64 633.169 37.64C633.734 37.64 634.273 37.6987 634.785 37.816C635.307 37.9333 635.75 38.1147 636.113 38.36L635.345 39.928C635.035 39.7253 634.699 39.5867 634.337 39.512C633.985 39.4267 633.611 39.384 633.217 39.384C632.161 39.384 631.323 39.7093 630.705 40.36C630.086 41.0107 629.777 41.9707 629.777 43.24C629.777 43.4427 629.782 43.6827 629.793 43.96C629.803 44.2267 629.841 44.4987 629.905 44.776L629.265 44.072C629.457 43.6347 629.718 43.272 630.049 42.984C630.39 42.6853 630.79 42.4613 631.249 42.312C631.718 42.1627 632.225 42.088 632.769 42.088C633.505 42.088 634.161 42.232 634.737 42.52C635.313 42.7973 635.771 43.1973 636.113 43.72C636.454 44.232 636.625 44.8347 636.625 45.528C636.625 46.264 636.443 46.904 636.081 47.448C635.718 47.992 635.227 48.4133 634.609 48.712C633.99 49.0107 633.297 49.16 632.529 49.16ZM632.417 47.528C632.843 47.528 633.222 47.4533 633.553 47.304C633.883 47.144 634.139 46.92 634.321 46.632C634.513 46.344 634.609 46.008 634.609 45.624C634.609 45.0373 634.406 44.5733 634.001 44.232C633.595 43.8907 633.051 43.72 632.369 43.72C631.921 43.72 631.526 43.8053 631.185 43.976C630.854 44.136 630.587 44.36 630.385 44.648C630.193 44.936 630.097 45.2667 630.097 45.64C630.097 45.9813 630.187 46.296 630.369 46.584C630.55 46.872 630.811 47.1013 631.153 47.272C631.505 47.4427 631.926 47.528 632.417 47.528ZM642.384 49.16C641.498 49.16 640.698 48.936 639.984 48.488C639.28 48.04 638.725 47.3893 638.32 46.536C637.914 45.672 637.712 44.6267 637.712 43.4C637.712 42.1733 637.914 41.1333 638.32 40.28C638.725 39.416 639.28 38.76 639.984 38.312C640.698 37.864 641.498 37.64 642.384 37.64C643.28 37.64 644.08 37.864 644.784 38.312C645.488 38.76 646.042 39.416 646.448 40.28C646.864 41.1333 647.072 42.1733 647.072 43.4C647.072 44.6267 646.864 45.672 646.448 46.536C646.042 47.3893 645.488 48.04 644.784 48.488C644.08 48.936 643.28 49.16 642.384 49.16ZM642.384 47.352C642.906 47.352 643.36 47.2133 643.744 46.936C644.128 46.648 644.426 46.2107 644.64 45.624C644.864 45.0373 644.976 44.296 644.976 43.4C644.976 42.4933 644.864 41.752 644.64 41.176C644.426 40.5893 644.128 40.1573 643.744 39.88C643.36 39.592 642.906 39.448 642.384 39.448C641.882 39.448 641.434 39.592 641.04 39.88C640.656 40.1573 640.352 40.5893 640.128 41.176C639.914 41.752 639.808 42.4933 639.808 43.4C639.808 44.296 639.914 45.0373 640.128 45.624C640.352 46.2107 640.656 46.648 641.04 46.936C641.434 47.2133 641.882 47.352 642.384 47.352ZM653.821 49.112C653.128 49.112 652.493 48.952 651.917 48.632C651.352 48.312 650.899 47.832 650.557 47.192C650.227 46.5413 650.061 45.72 650.061 44.728C650.061 43.7253 650.221 42.904 650.541 42.264C650.872 41.624 651.32 41.1493 651.885 40.84C652.451 40.52 653.096 40.36 653.821 40.36C654.664 40.36 655.405 40.5413 656.045 40.904C656.696 41.2667 657.208 41.7733 657.581 42.424C657.965 43.0747 658.157 43.8427 658.157 44.728C658.157 45.6133 657.965 46.3867 657.581 47.048C657.208 47.6987 656.696 48.2053 656.045 48.568C655.405 48.9307 654.664 49.112 653.821 49.112ZM649.085 52.104V40.456H650.989V42.472L650.925 44.744L651.085 47.016V52.104H649.085ZM653.597 47.4C654.077 47.4 654.504 47.2933 654.877 47.08C655.261 46.8667 655.565 46.5573 655.789 46.152C656.013 45.7467 656.125 45.272 656.125 44.728C656.125 44.1733 656.013 43.6987 655.789 43.304C655.565 42.8987 655.261 42.5893 654.877 42.376C654.504 42.1627 654.077 42.056 653.597 42.056C653.117 42.056 652.685 42.1627 652.301 42.376C651.917 42.5893 651.613 42.8987 651.389 43.304C651.165 43.6987 651.053 44.1733 651.053 44.728C651.053 45.272 651.165 45.7467 651.389 46.152C651.613 46.5573 651.917 46.8667 652.301 47.08C652.685 47.2933 653.117 47.4 653.597 47.4ZM658.605 49L662.365 44.104L662.333 45.176L658.749 40.456H660.973L663.485 43.816H662.637L665.165 40.456H667.325L663.709 45.176L663.725 44.104L667.469 49H665.213L662.573 45.432L663.405 45.544L660.813 49H658.605Z" fill="white"/>
</svg>
