<svg width="336" height="280" viewBox="0 0 336 280" fill="none" xmlns="http://www.w3.org/2000/svg">
<rect width="336" height="280" fill="#F86F03"/>
<path d="M116.123 133L121.163 121.8H123.211L128.267 133H126.091L121.755 122.904H122.587L118.267 133H116.123ZM118.443 130.408L119.003 128.776H125.051L125.611 130.408H118.443ZM129.692 133V121.8H134.588C135.804 121.8 136.87 122.035 137.788 122.504C138.705 122.973 139.42 123.624 139.932 124.456C140.444 125.288 140.7 126.269 140.7 127.4C140.7 128.52 140.444 129.501 139.932 130.344C139.42 131.176 138.705 131.827 137.788 132.296C136.87 132.765 135.804 133 134.588 133H129.692ZM131.772 131.24H134.492C135.334 131.24 136.06 131.08 136.668 130.76C137.286 130.44 137.761 129.992 138.092 129.416C138.433 128.84 138.604 128.168 138.604 127.4C138.604 126.621 138.433 125.949 138.092 125.384C137.761 124.808 137.286 124.36 136.668 124.04C136.06 123.72 135.334 123.56 134.492 123.56H131.772V131.24ZM150.804 133.16C149.929 133.16 149.092 133.037 148.292 132.792C147.492 132.536 146.857 132.211 146.388 131.816L147.108 130.2C147.556 130.552 148.111 130.845 148.772 131.08C149.433 131.315 150.111 131.432 150.804 131.432C151.391 131.432 151.865 131.368 152.228 131.24C152.591 131.112 152.857 130.941 153.028 130.728C153.199 130.504 153.284 130.253 153.284 129.976C153.284 129.635 153.161 129.363 152.916 129.16C152.671 128.947 152.351 128.781 151.956 128.664C151.572 128.536 151.14 128.419 150.66 128.312C150.191 128.205 149.716 128.083 149.236 127.944C148.767 127.795 148.335 127.608 147.94 127.384C147.556 127.149 147.241 126.84 146.996 126.456C146.751 126.072 146.628 125.581 146.628 124.984C146.628 124.376 146.788 123.821 147.108 123.32C147.439 122.808 147.935 122.403 148.596 122.104C149.268 121.795 150.116 121.64 151.14 121.64C151.812 121.64 152.479 121.725 153.14 121.896C153.801 122.067 154.377 122.312 154.868 122.632L154.212 124.248C153.711 123.949 153.193 123.731 152.66 123.592C152.127 123.443 151.615 123.368 151.124 123.368C150.548 123.368 150.079 123.437 149.716 123.576C149.364 123.715 149.103 123.896 148.932 124.12C148.772 124.344 148.692 124.6 148.692 124.888C148.692 125.229 148.809 125.507 149.044 125.72C149.289 125.923 149.604 126.083 149.988 126.2C150.383 126.317 150.82 126.435 151.3 126.552C151.78 126.659 152.255 126.781 152.724 126.92C153.204 127.059 153.636 127.24 154.02 127.464C154.415 127.688 154.729 127.992 154.964 128.376C155.209 128.76 155.332 129.245 155.332 129.832C155.332 130.429 155.167 130.984 154.836 131.496C154.516 131.997 154.02 132.403 153.348 132.712C152.676 133.011 151.828 133.16 150.804 133.16ZM157.395 133V121.8H159.475V133H157.395ZM162.504 133V121.8H167.4C168.616 121.8 169.683 122.035 170.6 122.504C171.517 122.973 172.232 123.624 172.744 124.456C173.256 125.288 173.512 126.269 173.512 127.4C173.512 128.52 173.256 129.501 172.744 130.344C172.232 131.176 171.517 131.827 170.6 132.296C169.683 132.765 168.616 133 167.4 133H162.504ZM164.584 131.24H167.304C168.147 131.24 168.872 131.08 169.48 130.76C170.099 130.44 170.573 129.992 170.904 129.416C171.245 128.84 171.416 128.168 171.416 127.4C171.416 126.621 171.245 125.949 170.904 125.384C170.573 124.808 170.099 124.36 169.48 124.04C168.872 123.72 168.147 123.56 167.304 123.56H164.584V131.24ZM177.643 126.456H183.211V128.168H177.643V126.456ZM177.803 131.256H184.123V133H175.723V121.8H183.899V123.544H177.803V131.256ZM186.442 133V121.8H191.69C193.034 121.8 194.058 122.067 194.762 122.6C195.466 123.123 195.818 123.827 195.818 124.712C195.818 125.309 195.679 125.821 195.402 126.248C195.124 126.664 194.751 126.989 194.282 127.224C193.823 127.448 193.322 127.56 192.778 127.56L193.066 126.984C193.695 126.984 194.26 127.101 194.762 127.336C195.263 127.56 195.658 127.891 195.946 128.328C196.244 128.765 196.394 129.309 196.394 129.96C196.394 130.92 196.026 131.667 195.29 132.2C194.554 132.733 193.46 133 192.01 133H186.442ZM188.522 131.368H191.882C192.66 131.368 193.258 131.24 193.674 130.984C194.09 130.728 194.298 130.317 194.298 129.752C194.298 129.197 194.09 128.792 193.674 128.536C193.258 128.269 192.66 128.136 191.882 128.136H188.362V126.52H191.466C192.191 126.52 192.746 126.392 193.13 126.136C193.524 125.88 193.722 125.496 193.722 124.984C193.722 124.461 193.524 124.072 193.13 123.816C192.746 123.56 192.191 123.432 191.466 123.432H188.522V131.368ZM197.029 133L202.069 121.8H204.117L209.173 133H206.997L202.661 122.904H203.493L199.173 133H197.029ZM199.349 130.408L199.909 128.776H205.957L206.517 130.408H199.349ZM210.598 133V121.8H215.206C216.198 121.8 217.046 121.96 217.75 122.28C218.464 122.6 219.014 123.059 219.398 123.656C219.782 124.253 219.974 124.963 219.974 125.784C219.974 126.605 219.782 127.315 219.398 127.912C219.014 128.499 218.464 128.952 217.75 129.272C217.046 129.581 216.198 129.736 215.206 129.736H211.75L212.678 128.792V133H210.598ZM217.926 133L215.094 128.936H217.318L220.166 133H217.926ZM212.678 129.016L211.75 128.024H215.11C216.027 128.024 216.715 127.827 217.174 127.432C217.643 127.037 217.878 126.488 217.878 125.784C217.878 125.069 217.643 124.52 217.174 124.136C216.715 123.752 216.027 123.56 215.11 123.56H211.75L212.678 122.536V129.016ZM128.755 159.16C127.966 159.16 127.193 159.048 126.435 158.824C125.689 158.589 125.059 158.269 124.547 157.864L125.443 156.248C125.849 156.579 126.339 156.845 126.915 157.048C127.491 157.251 128.094 157.352 128.723 157.352C129.47 157.352 130.051 157.203 130.467 156.904C130.883 156.595 131.091 156.179 131.091 155.656C131.091 155.144 130.899 154.739 130.515 154.44C130.131 154.141 129.513 153.992 128.659 153.992H127.635V152.568L130.835 148.76L131.107 149.544H125.091V147.8H132.723V149.192L129.523 153L128.435 152.36H129.059C130.435 152.36 131.465 152.669 132.147 153.288C132.841 153.896 133.187 154.68 133.187 155.64C133.187 156.269 133.027 156.851 132.707 157.384C132.387 157.917 131.897 158.349 131.235 158.68C130.585 159 129.758 159.16 128.755 159.16ZM137.99 159.16C137.2 159.16 136.427 159.048 135.67 158.824C134.923 158.589 134.294 158.269 133.782 157.864L134.678 156.248C135.083 156.579 135.574 156.845 136.15 157.048C136.726 157.251 137.328 157.352 137.958 157.352C138.704 157.352 139.286 157.203 139.702 156.904C140.118 156.595 140.326 156.179 140.326 155.656C140.326 155.144 140.134 154.739 139.75 154.44C139.366 154.141 138.747 153.992 137.894 153.992H136.87V152.568L140.07 148.76L140.342 149.544H134.326V147.8H141.958V149.192L138.758 153L137.67 152.36H138.294C139.67 152.36 140.699 152.669 141.382 153.288C142.075 153.896 142.422 154.68 142.422 155.64C142.422 156.269 142.262 156.851 141.942 157.384C141.622 157.917 141.131 158.349 140.47 158.68C139.819 159 138.992 159.16 137.99 159.16ZM148.63 159.16C147.617 159.16 146.747 158.947 146.022 158.52C145.297 158.083 144.742 157.453 144.358 156.632C143.974 155.811 143.782 154.797 143.782 153.592C143.782 152.312 144.011 151.229 144.47 150.344C144.939 149.459 145.585 148.787 146.406 148.328C147.238 147.869 148.193 147.64 149.27 147.64C149.835 147.64 150.374 147.699 150.886 147.816C151.409 147.933 151.851 148.115 152.214 148.36L151.446 149.928C151.137 149.725 150.801 149.587 150.438 149.512C150.086 149.427 149.713 149.384 149.318 149.384C148.262 149.384 147.425 149.709 146.806 150.36C146.187 151.011 145.878 151.971 145.878 153.24C145.878 153.443 145.883 153.683 145.894 153.96C145.905 154.227 145.942 154.499 146.006 154.776L145.366 154.072C145.558 153.635 145.819 153.272 146.15 152.984C146.491 152.685 146.891 152.461 147.35 152.312C147.819 152.163 148.326 152.088 148.87 152.088C149.606 152.088 150.262 152.232 150.838 152.52C151.414 152.797 151.873 153.197 152.214 153.72C152.555 154.232 152.726 154.835 152.726 155.528C152.726 156.264 152.545 156.904 152.182 157.448C151.819 157.992 151.329 158.413 150.71 158.712C150.091 159.011 149.398 159.16 148.63 159.16ZM148.518 157.528C148.945 157.528 149.323 157.453 149.654 157.304C149.985 157.144 150.241 156.92 150.422 156.632C150.614 156.344 150.71 156.008 150.71 155.624C150.71 155.037 150.507 154.573 150.102 154.232C149.697 153.891 149.153 153.72 148.47 153.72C148.022 153.72 147.627 153.805 147.286 153.976C146.955 154.136 146.689 154.36 146.486 154.648C146.294 154.936 146.198 155.267 146.198 155.64C146.198 155.981 146.289 156.296 146.47 156.584C146.651 156.872 146.913 157.101 147.254 157.272C147.606 157.443 148.027 157.528 148.518 157.528ZM153.019 159L156.779 154.104L156.747 155.176L153.163 150.456H155.387L157.899 153.816H157.051L159.579 150.456H161.739L158.123 155.176L158.139 154.104L161.883 159H159.627L156.987 155.432L157.819 155.544L155.227 159H153.019ZM162.654 159V157.608L167.102 153.384C167.475 153.032 167.752 152.723 167.934 152.456C168.115 152.189 168.232 151.944 168.286 151.72C168.35 151.485 168.382 151.267 168.382 151.064C168.382 150.552 168.206 150.157 167.854 149.88C167.502 149.592 166.984 149.448 166.302 149.448C165.758 149.448 165.262 149.544 164.814 149.736C164.376 149.928 163.998 150.221 163.678 150.616L162.222 149.496C162.659 148.909 163.246 148.456 163.982 148.136C164.728 147.805 165.56 147.64 166.478 147.64C167.288 147.64 167.992 147.773 168.59 148.04C169.198 148.296 169.662 148.664 169.982 149.144C170.312 149.624 170.478 150.195 170.478 150.856C170.478 151.219 170.43 151.581 170.334 151.944C170.238 152.296 170.056 152.669 169.79 153.064C169.523 153.459 169.134 153.901 168.622 154.392L164.798 158.024L164.366 157.24H170.91V159H162.654ZM176.606 159.16C175.678 159.16 174.873 159.021 174.19 158.744C173.508 158.467 172.98 158.077 172.606 157.576C172.233 157.064 172.046 156.467 172.046 155.784C172.046 155.101 172.228 154.525 172.59 154.056C172.953 153.587 173.476 153.229 174.158 152.984C174.841 152.739 175.657 152.616 176.606 152.616C177.556 152.616 178.372 152.739 179.054 152.984C179.748 153.229 180.276 153.592 180.638 154.072C181.012 154.541 181.198 155.112 181.198 155.784C181.198 156.467 181.006 157.064 180.622 157.576C180.249 158.077 179.716 158.467 179.022 158.744C178.34 159.021 177.534 159.16 176.606 159.16ZM176.606 157.528C177.374 157.528 177.982 157.368 178.43 157.048C178.878 156.728 179.102 156.285 179.102 155.72C179.102 155.165 178.878 154.728 178.43 154.408C177.982 154.088 177.374 153.928 176.606 153.928C175.838 153.928 175.236 154.088 174.798 154.408C174.361 154.728 174.142 155.165 174.142 155.72C174.142 156.285 174.361 156.728 174.798 157.048C175.236 157.368 175.838 157.528 176.606 157.528ZM176.606 153.704C175.742 153.704 175.001 153.592 174.382 153.368C173.764 153.133 173.284 152.797 172.942 152.36C172.612 151.912 172.446 151.379 172.446 150.76C172.446 150.12 172.617 149.571 172.958 149.112C173.31 148.643 173.801 148.28 174.43 148.024C175.06 147.768 175.785 147.64 176.606 147.64C177.438 147.64 178.169 147.768 178.798 148.024C179.428 148.28 179.918 148.643 180.27 149.112C180.622 149.571 180.798 150.12 180.798 150.76C180.798 151.379 180.628 151.912 180.286 152.36C179.956 152.797 179.476 153.133 178.846 153.368C178.217 153.592 177.47 153.704 176.606 153.704ZM176.606 152.424C177.268 152.424 177.79 152.285 178.174 152.008C178.558 151.72 178.75 151.336 178.75 150.856C178.75 150.355 178.553 149.965 178.158 149.688C177.764 149.411 177.246 149.272 176.606 149.272C175.966 149.272 175.454 149.411 175.07 149.688C174.686 149.965 174.494 150.355 174.494 150.856C174.494 151.336 174.681 151.72 175.054 152.008C175.438 152.285 175.956 152.424 176.606 152.424ZM187.22 159.16C186.334 159.16 185.534 158.936 184.82 158.488C184.116 158.04 183.561 157.389 183.156 156.536C182.75 155.672 182.548 154.627 182.548 153.4C182.548 152.173 182.75 151.133 183.156 150.28C183.561 149.416 184.116 148.76 184.82 148.312C185.534 147.864 186.334 147.64 187.22 147.64C188.116 147.64 188.916 147.864 189.62 148.312C190.324 148.76 190.878 149.416 191.284 150.28C191.7 151.133 191.908 152.173 191.908 153.4C191.908 154.627 191.7 155.672 191.284 156.536C190.878 157.389 190.324 158.04 189.62 158.488C188.916 158.936 188.116 159.16 187.22 159.16ZM187.22 157.352C187.742 157.352 188.196 157.213 188.58 156.936C188.964 156.648 189.262 156.211 189.476 155.624C189.7 155.037 189.812 154.296 189.812 153.4C189.812 152.493 189.7 151.752 189.476 151.176C189.262 150.589 188.964 150.157 188.58 149.88C188.196 149.592 187.742 149.448 187.22 149.448C186.718 149.448 186.27 149.592 185.876 149.88C185.492 150.157 185.188 150.589 184.964 151.176C184.75 151.752 184.644 152.493 184.644 153.4C184.644 154.296 184.75 155.037 184.964 155.624C185.188 156.211 185.492 156.648 185.876 156.936C186.27 157.213 186.718 157.352 187.22 157.352ZM198.657 159.112C197.964 159.112 197.329 158.952 196.753 158.632C196.188 158.312 195.735 157.832 195.393 157.192C195.063 156.541 194.897 155.72 194.897 154.728C194.897 153.725 195.057 152.904 195.377 152.264C195.708 151.624 196.156 151.149 196.721 150.84C197.287 150.52 197.932 150.36 198.657 150.36C199.5 150.36 200.241 150.541 200.881 150.904C201.532 151.267 202.044 151.773 202.417 152.424C202.801 153.075 202.993 153.843 202.993 154.728C202.993 155.613 202.801 156.387 202.417 157.048C202.044 157.699 201.532 158.205 200.881 158.568C200.241 158.931 199.5 159.112 198.657 159.112ZM193.921 162.104V150.456H195.825V152.472L195.761 154.744L195.921 157.016V162.104H193.921ZM198.433 157.4C198.913 157.4 199.34 157.293 199.713 157.08C200.097 156.867 200.401 156.557 200.625 156.152C200.849 155.747 200.961 155.272 200.961 154.728C200.961 154.173 200.849 153.699 200.625 153.304C200.401 152.899 200.097 152.589 199.713 152.376C199.34 152.163 198.913 152.056 198.433 152.056C197.953 152.056 197.521 152.163 197.137 152.376C196.753 152.589 196.449 152.899 196.225 153.304C196.001 153.699 195.889 154.173 195.889 154.728C195.889 155.272 196.001 155.747 196.225 156.152C196.449 156.557 196.753 156.867 197.137 157.08C197.521 157.293 197.953 157.4 198.433 157.4ZM203.441 159L207.201 154.104L207.169 155.176L203.585 150.456H205.809L208.321 153.816H207.473L210.001 150.456H212.161L208.545 155.176L208.561 154.104L212.305 159H210.049L207.409 155.432L208.241 155.544L205.649 159H203.441Z" fill="white"/>
</svg>
