<svg width="336" height="600" viewBox="0 0 336 600" fill="none" xmlns="http://www.w3.org/2000/svg">
<rect width="336" height="600" fill="#AB2B9E"/>
<path d="M112.238 291L118.166 277.7H121.206L127.153 291H123.923L119.059 279.258H120.275L115.392 291H112.238ZM115.202 288.15L116.019 285.813H122.859L123.695 288.15H115.202ZM132.62 291.152C131.658 291.152 130.79 290.937 130.017 290.506C129.245 290.063 128.63 289.448 128.174 288.663C127.731 287.878 127.509 286.953 127.509 285.889C127.509 284.812 127.731 283.881 128.174 283.096C128.63 282.311 129.245 281.703 130.017 281.272C130.79 280.841 131.658 280.626 132.62 280.626C133.482 280.626 134.235 280.816 134.881 281.196C135.527 281.576 136.028 282.152 136.382 282.925C136.737 283.698 136.914 284.686 136.914 285.889C136.914 287.08 136.743 288.068 136.401 288.853C136.059 289.626 135.565 290.202 134.919 290.582C134.286 290.962 133.52 291.152 132.62 291.152ZM133.133 288.72C133.615 288.72 134.052 288.606 134.444 288.378C134.837 288.15 135.147 287.827 135.375 287.409C135.616 286.978 135.736 286.472 135.736 285.889C135.736 285.294 135.616 284.787 135.375 284.369C135.147 283.951 134.837 283.628 134.444 283.4C134.052 283.172 133.615 283.058 133.133 283.058C132.639 283.058 132.196 283.172 131.803 283.4C131.411 283.628 131.094 283.951 130.853 284.369C130.625 284.787 130.511 285.294 130.511 285.889C130.511 286.472 130.625 286.978 130.853 287.409C131.094 287.827 131.411 288.15 131.803 288.378C132.196 288.606 132.639 288.72 133.133 288.72ZM135.812 291V288.91L135.869 285.87L135.679 282.849V276.902H138.643V291H135.812ZM150.206 291.152C149.332 291.152 148.49 291.051 147.679 290.848C146.881 290.633 146.248 290.367 145.779 290.05L146.767 287.922C147.236 288.213 147.787 288.454 148.42 288.644C149.066 288.821 149.7 288.91 150.32 288.91C151.004 288.91 151.486 288.828 151.764 288.663C152.056 288.498 152.201 288.27 152.201 287.979C152.201 287.738 152.087 287.561 151.859 287.447C151.644 287.32 151.353 287.225 150.985 287.162C150.618 287.099 150.213 287.035 149.769 286.972C149.339 286.909 148.902 286.826 148.458 286.725C148.015 286.611 147.61 286.446 147.242 286.231C146.875 286.016 146.577 285.724 146.349 285.357C146.134 284.99 146.026 284.515 146.026 283.932C146.026 283.286 146.21 282.716 146.577 282.222C146.957 281.728 147.502 281.342 148.211 281.063C148.921 280.772 149.769 280.626 150.757 280.626C151.454 280.626 152.163 280.702 152.885 280.854C153.607 281.006 154.209 281.228 154.69 281.519L153.702 283.628C153.208 283.337 152.708 283.14 152.201 283.039C151.707 282.925 151.226 282.868 150.757 282.868C150.099 282.868 149.617 282.957 149.313 283.134C149.009 283.311 148.857 283.539 148.857 283.818C148.857 284.071 148.965 284.261 149.18 284.388C149.408 284.515 149.706 284.616 150.073 284.692C150.441 284.768 150.84 284.838 151.27 284.901C151.714 284.952 152.157 285.034 152.6 285.148C153.044 285.262 153.443 285.427 153.797 285.642C154.165 285.845 154.462 286.13 154.69 286.497C154.918 286.852 155.032 287.32 155.032 287.903C155.032 288.536 154.842 289.1 154.462 289.594C154.082 290.075 153.531 290.455 152.809 290.734C152.1 291.013 151.232 291.152 150.206 291.152ZM156.861 291V280.778H159.825V291H156.861ZM158.343 279.353C157.798 279.353 157.355 279.195 157.013 278.878C156.671 278.561 156.5 278.169 156.5 277.7C156.5 277.231 156.671 276.839 157.013 276.522C157.355 276.205 157.798 276.047 158.343 276.047C158.888 276.047 159.331 276.199 159.673 276.503C160.015 276.794 160.186 277.174 160.186 277.643C160.186 278.137 160.015 278.549 159.673 278.878C159.344 279.195 158.9 279.353 158.343 279.353ZM166.965 291.152C166.002 291.152 165.135 290.937 164.362 290.506C163.589 290.063 162.975 289.448 162.519 288.663C162.076 287.878 161.854 286.953 161.854 285.889C161.854 284.812 162.076 283.881 162.519 283.096C162.975 282.311 163.589 281.703 164.362 281.272C165.135 280.841 166.002 280.626 166.965 280.626C167.826 280.626 168.58 280.816 169.226 281.196C169.872 281.576 170.372 282.152 170.727 282.925C171.082 283.698 171.259 284.686 171.259 285.889C171.259 287.08 171.088 288.068 170.746 288.853C170.404 289.626 169.91 290.202 169.264 290.582C168.631 290.962 167.864 291.152 166.965 291.152ZM167.478 288.72C167.959 288.72 168.396 288.606 168.789 288.378C169.182 288.15 169.492 287.827 169.72 287.409C169.961 286.978 170.081 286.472 170.081 285.889C170.081 285.294 169.961 284.787 169.72 284.369C169.492 283.951 169.182 283.628 168.789 283.4C168.396 283.172 167.959 283.058 167.478 283.058C166.984 283.058 166.541 283.172 166.148 283.4C165.755 283.628 165.439 283.951 165.198 284.369C164.97 284.787 164.856 285.294 164.856 285.889C164.856 286.472 164.97 286.978 165.198 287.409C165.439 287.827 165.755 288.15 166.148 288.378C166.541 288.606 166.984 288.72 167.478 288.72ZM170.157 291V288.91L170.214 285.87L170.024 282.849V276.902H172.988V291H170.157ZM180.804 291.152C179.639 291.152 178.613 290.924 177.726 290.468C176.852 290.012 176.175 289.391 175.693 288.606C175.212 287.808 174.971 286.902 174.971 285.889C174.971 284.863 175.206 283.957 175.674 283.172C176.156 282.374 176.808 281.753 177.631 281.31C178.455 280.854 179.386 280.626 180.424 280.626C181.425 280.626 182.324 280.841 183.122 281.272C183.933 281.69 184.573 282.298 185.041 283.096C185.51 283.881 185.744 284.825 185.744 285.927C185.744 286.041 185.738 286.174 185.725 286.326C185.713 286.465 185.7 286.598 185.687 286.725H177.384V284.996H184.129L182.989 285.509C182.989 284.977 182.882 284.515 182.666 284.122C182.451 283.729 182.153 283.425 181.773 283.21C181.393 282.982 180.95 282.868 180.443 282.868C179.937 282.868 179.487 282.982 179.094 283.21C178.714 283.425 178.417 283.736 178.201 284.141C177.986 284.534 177.878 285.002 177.878 285.547V286.003C177.878 286.56 177.999 287.054 178.239 287.485C178.493 287.903 178.841 288.226 179.284 288.454C179.74 288.669 180.272 288.777 180.88 288.777C181.425 288.777 181.9 288.695 182.305 288.53C182.723 288.365 183.103 288.118 183.445 287.789L185.022 289.499C184.554 290.031 183.965 290.443 183.255 290.734C182.546 291.013 181.729 291.152 180.804 291.152ZM193.76 291.152C192.86 291.152 192.088 290.962 191.442 290.582C190.796 290.202 190.302 289.626 189.96 288.853C189.618 288.068 189.447 287.08 189.447 285.889C189.447 284.686 189.624 283.698 189.979 282.925C190.346 282.152 190.853 281.576 191.499 281.196C192.145 280.816 192.898 280.626 193.76 280.626C194.722 280.626 195.584 280.841 196.344 281.272C197.116 281.703 197.724 282.311 198.168 283.096C198.624 283.881 198.852 284.812 198.852 285.889C198.852 286.953 198.624 287.878 198.168 288.663C197.724 289.448 197.116 290.063 196.344 290.506C195.584 290.937 194.722 291.152 193.76 291.152ZM187.718 291V276.902H190.682V282.849L190.492 285.87L190.549 288.91V291H187.718ZM193.247 288.72C193.741 288.72 194.178 288.606 194.558 288.378C194.95 288.15 195.261 287.827 195.489 287.409C195.729 286.978 195.85 286.472 195.85 285.889C195.85 285.294 195.729 284.787 195.489 284.369C195.261 283.951 194.95 283.628 194.558 283.4C194.178 283.172 193.741 283.058 193.247 283.058C192.753 283.058 192.309 283.172 191.917 283.4C191.524 283.628 191.214 283.951 190.986 284.369C190.758 284.787 190.644 285.294 190.644 285.889C190.644 286.472 190.758 286.978 190.986 287.409C191.214 287.827 191.524 288.15 191.917 288.378C192.309 288.606 192.753 288.72 193.247 288.72ZM206.939 291V289.005L206.749 288.568V284.996C206.749 284.363 206.552 283.869 206.16 283.514C205.78 283.159 205.191 282.982 204.393 282.982C203.848 282.982 203.31 283.071 202.778 283.248C202.258 283.413 201.815 283.641 201.448 283.932L200.384 281.861C200.941 281.468 201.612 281.164 202.398 280.949C203.183 280.734 203.981 280.626 204.792 280.626C206.35 280.626 207.559 280.993 208.421 281.728C209.282 282.463 209.713 283.609 209.713 285.167V291H206.939ZM203.823 291.152C203.025 291.152 202.341 291.019 201.771 290.753C201.201 290.474 200.764 290.101 200.46 289.632C200.156 289.163 200.004 288.638 200.004 288.055C200.004 287.447 200.149 286.915 200.441 286.459C200.745 286.003 201.22 285.648 201.866 285.395C202.512 285.129 203.354 284.996 204.393 284.996H207.11V286.725H204.716C204.019 286.725 203.538 286.839 203.272 287.067C203.018 287.295 202.892 287.58 202.892 287.922C202.892 288.302 203.037 288.606 203.329 288.834C203.633 289.049 204.044 289.157 204.564 289.157C205.058 289.157 205.501 289.043 205.894 288.815C206.286 288.574 206.571 288.226 206.749 287.77L207.205 289.138C206.989 289.797 206.597 290.297 206.027 290.639C205.457 290.981 204.722 291.152 203.823 291.152ZM212.395 291V280.778H215.226V283.666L214.827 282.83C215.131 282.108 215.619 281.563 216.29 281.196C216.962 280.816 217.779 280.626 218.741 280.626V283.362C218.615 283.349 218.501 283.343 218.399 283.343C218.298 283.33 218.19 283.324 218.076 283.324C217.266 283.324 216.607 283.558 216.1 284.027C215.606 284.483 215.359 285.199 215.359 286.174V291H212.395ZM131.973 323.228C131.048 323.228 130.13 323.108 129.218 322.867C128.306 322.614 127.533 322.259 126.9 321.803L128.097 319.447C128.604 319.814 129.193 320.106 129.864 320.321C130.535 320.536 131.213 320.644 131.897 320.644C132.67 320.644 133.278 320.492 133.721 320.188C134.164 319.884 134.386 319.466 134.386 318.934C134.386 318.427 134.19 318.028 133.797 317.737C133.404 317.446 132.771 317.3 131.897 317.3H130.491V315.267L134.196 311.068L134.538 312.17H127.565V309.7H136.875V311.695L133.189 315.894L131.631 315.001H132.524C134.158 315.001 135.393 315.368 136.229 316.103C137.065 316.838 137.483 317.781 137.483 318.934C137.483 319.681 137.287 320.384 136.894 321.043C136.501 321.689 135.9 322.215 135.089 322.62C134.278 323.025 133.24 323.228 131.973 323.228ZM143.124 323.228C142.2 323.228 141.281 323.108 140.369 322.867C139.457 322.614 138.685 322.259 138.051 321.803L139.248 319.447C139.755 319.814 140.344 320.106 141.015 320.321C141.687 320.536 142.364 320.644 143.048 320.644C143.821 320.644 144.429 320.492 144.872 320.188C145.316 319.884 145.537 319.466 145.537 318.934C145.537 318.427 145.341 318.028 144.948 317.737C144.556 317.446 143.922 317.3 143.048 317.3H141.642V315.267L145.347 311.068L145.689 312.17H138.716V309.7H148.026V311.695L144.34 315.894L142.782 315.001H143.675C145.309 315.001 146.544 315.368 147.38 316.103C148.216 316.838 148.634 317.781 148.634 318.934C148.634 319.681 148.438 320.384 148.045 321.043C147.653 321.689 147.051 322.215 146.24 322.62C145.43 323.025 144.391 323.228 143.124 323.228ZM156.002 323.228C154.786 323.228 153.729 322.975 152.829 322.468C151.943 321.961 151.259 321.22 150.777 320.245C150.296 319.27 150.055 318.066 150.055 316.635C150.055 315.102 150.34 313.804 150.91 312.74C151.493 311.676 152.291 310.865 153.304 310.308C154.33 309.751 155.508 309.472 156.838 309.472C157.548 309.472 158.225 309.548 158.871 309.7C159.517 309.852 160.075 310.08 160.543 310.384L159.403 312.645C159.036 312.392 158.643 312.221 158.225 312.132C157.807 312.031 157.37 311.98 156.914 311.98C155.762 311.98 154.85 312.328 154.178 313.025C153.507 313.722 153.171 314.754 153.171 316.122C153.171 316.35 153.171 316.603 153.171 316.882C153.184 317.161 153.222 317.439 153.285 317.718L152.43 316.92C152.671 316.426 152.981 316.014 153.361 315.685C153.741 315.343 154.191 315.09 154.71 314.925C155.242 314.748 155.825 314.659 156.458 314.659C157.32 314.659 158.092 314.83 158.776 315.172C159.46 315.514 160.005 315.995 160.41 316.616C160.828 317.237 161.037 317.965 161.037 318.801C161.037 319.7 160.809 320.486 160.353 321.157C159.91 321.816 159.308 322.329 158.548 322.696C157.801 323.051 156.952 323.228 156.002 323.228ZM155.831 320.929C156.262 320.929 156.642 320.853 156.971 320.701C157.313 320.536 157.579 320.302 157.769 319.998C157.959 319.694 158.054 319.346 158.054 318.953C158.054 318.345 157.845 317.864 157.427 317.509C157.022 317.142 156.477 316.958 155.793 316.958C155.337 316.958 154.938 317.047 154.596 317.224C154.254 317.389 153.982 317.623 153.779 317.927C153.589 318.218 153.494 318.56 153.494 318.953C153.494 319.333 153.589 319.675 153.779 319.979C153.969 320.27 154.235 320.505 154.577 320.682C154.919 320.847 155.337 320.929 155.831 320.929ZM161.191 323L165.77 316.996L165.713 318.63L161.324 312.778H164.649L167.423 316.597L166.169 316.635L169.038 312.778H172.192L167.784 318.573V316.977L172.344 323H168.981L166.074 318.934L167.309 319.105L164.421 323H161.191ZM178.88 323.228C177.664 323.228 176.607 322.975 175.707 322.468C174.821 321.961 174.137 321.22 173.655 320.245C173.174 319.27 172.933 318.066 172.933 316.635C172.933 315.102 173.218 313.804 173.788 312.74C174.371 311.676 175.169 310.865 176.182 310.308C177.208 309.751 178.386 309.472 179.716 309.472C180.426 309.472 181.103 309.548 181.749 309.7C182.395 309.852 182.953 310.08 183.421 310.384L182.281 312.645C181.914 312.392 181.521 312.221 181.103 312.132C180.685 312.031 180.248 311.98 179.792 311.98C178.64 311.98 177.728 312.328 177.056 313.025C176.385 313.722 176.049 314.754 176.049 316.122C176.049 316.35 176.049 316.603 176.049 316.882C176.062 317.161 176.1 317.439 176.163 317.718L175.308 316.92C175.549 316.426 175.859 316.014 176.239 315.685C176.619 315.343 177.069 315.09 177.588 314.925C178.12 314.748 178.703 314.659 179.336 314.659C180.198 314.659 180.97 314.83 181.654 315.172C182.338 315.514 182.883 315.995 183.288 316.616C183.706 317.237 183.915 317.965 183.915 318.801C183.915 319.7 183.687 320.486 183.231 321.157C182.788 321.816 182.186 322.329 181.426 322.696C180.679 323.051 179.83 323.228 178.88 323.228ZM178.709 320.929C179.14 320.929 179.52 320.853 179.849 320.701C180.191 320.536 180.457 320.302 180.647 319.998C180.837 319.694 180.932 319.346 180.932 318.953C180.932 318.345 180.723 317.864 180.305 317.509C179.9 317.142 179.355 316.958 178.671 316.958C178.215 316.958 177.816 317.047 177.474 317.224C177.132 317.389 176.86 317.623 176.657 317.927C176.467 318.218 176.372 318.56 176.372 318.953C176.372 319.333 176.467 319.675 176.657 319.979C176.847 320.27 177.113 320.505 177.455 320.682C177.797 320.847 178.215 320.929 178.709 320.929ZM190.731 323.228C189.642 323.228 188.666 322.962 187.805 322.43C186.944 321.885 186.266 321.1 185.772 320.074C185.278 319.048 185.031 317.807 185.031 316.35C185.031 314.893 185.278 313.652 185.772 312.626C186.266 311.6 186.944 310.821 187.805 310.289C188.666 309.744 189.642 309.472 190.731 309.472C191.833 309.472 192.808 309.744 193.657 310.289C194.518 310.821 195.196 311.6 195.69 312.626C196.184 313.652 196.431 314.893 196.431 316.35C196.431 317.807 196.184 319.048 195.69 320.074C195.196 321.1 194.518 321.885 193.657 322.43C192.808 322.962 191.833 323.228 190.731 323.228ZM190.731 320.625C191.25 320.625 191.7 320.479 192.08 320.188C192.473 319.897 192.777 319.434 192.992 318.801C193.22 318.168 193.334 317.351 193.334 316.35C193.334 315.349 193.22 314.532 192.992 313.899C192.777 313.266 192.473 312.803 192.08 312.512C191.7 312.221 191.25 312.075 190.731 312.075C190.224 312.075 189.775 312.221 189.382 312.512C189.002 312.803 188.698 313.266 188.47 313.899C188.255 314.532 188.147 315.349 188.147 316.35C188.147 317.351 188.255 318.168 188.47 318.801C188.698 319.434 189.002 319.897 189.382 320.188C189.775 320.479 190.224 320.625 190.731 320.625ZM203.627 323.228C202.537 323.228 201.562 322.962 200.701 322.43C199.839 321.885 199.162 321.1 198.668 320.074C198.174 319.048 197.927 317.807 197.927 316.35C197.927 314.893 198.174 313.652 198.668 312.626C199.162 311.6 199.839 310.821 200.701 310.289C201.562 309.744 202.537 309.472 203.627 309.472C204.729 309.472 205.704 309.744 206.553 310.289C207.414 310.821 208.092 311.6 208.586 312.626C209.08 313.652 209.327 314.893 209.327 316.35C209.327 317.807 209.08 319.048 208.586 320.074C208.092 321.1 207.414 321.885 206.553 322.43C205.704 322.962 204.729 323.228 203.627 323.228ZM203.627 320.625C204.146 320.625 204.596 320.479 204.976 320.188C205.368 319.897 205.672 319.434 205.888 318.801C206.116 318.168 206.23 317.351 206.23 316.35C206.23 315.349 206.116 314.532 205.888 313.899C205.672 313.266 205.368 312.803 204.976 312.512C204.596 312.221 204.146 312.075 203.627 312.075C203.12 312.075 202.67 312.221 202.278 312.512C201.898 312.803 201.594 313.266 201.366 313.899C201.15 314.532 201.043 315.349 201.043 316.35C201.043 317.351 201.15 318.168 201.366 318.801C201.594 319.434 201.898 319.897 202.278 320.188C202.67 320.479 203.12 320.625 203.627 320.625Z" fill="white"/>
</svg>
