<svg width="336" height="60" viewBox="0 0 336 60" fill="none" xmlns="http://www.w3.org/2000/svg">
<rect width="336" height="60" fill="black"/>
<path d="M97.7099 24L100.654 12.8H104.334L107.278 24H105.102L104.494 21.536H100.494L99.8859 24H97.7099ZM100.99 19.584H103.998L102.638 14.128H102.35L100.99 19.584ZM108.299 24V22.144H109.771V14.656H108.299V12.8H112.907C114.411 12.8 115.552 13.184 116.331 13.952C117.12 14.7093 117.515 15.84 117.515 17.344V19.456C117.515 20.96 117.12 22.096 116.331 22.864C115.552 23.6213 114.411 24 112.907 24H108.299ZM111.883 22.08H112.939C113.792 22.08 114.416 21.856 114.811 21.408C115.205 20.96 115.403 20.3307 115.403 19.52V17.28C115.403 16.4587 115.205 15.8293 114.811 15.392C114.416 14.944 113.792 14.72 112.939 14.72H111.883V22.08ZM127.225 24.224C126.361 24.224 125.599 24.0693 124.937 23.76C124.276 23.4507 123.759 23.008 123.385 22.432C123.012 21.856 122.825 21.1627 122.825 20.352V19.904H124.905V20.352C124.905 21.024 125.113 21.5307 125.529 21.872C125.945 22.2027 126.511 22.368 127.225 22.368C127.951 22.368 128.489 22.224 128.841 21.936C129.204 21.648 129.385 21.28 129.385 20.832C129.385 20.5227 129.295 20.272 129.113 20.08C128.943 19.888 128.687 19.7333 128.345 19.616C128.015 19.488 127.609 19.3707 127.129 19.264L126.761 19.184C125.993 19.0133 125.332 18.8 124.777 18.544C124.233 18.2773 123.812 17.9307 123.513 17.504C123.225 17.0773 123.081 16.5227 123.081 15.84C123.081 15.1573 123.241 14.576 123.561 14.096C123.892 13.6053 124.351 13.232 124.937 12.976C125.535 12.7093 126.233 12.576 127.033 12.576C127.833 12.576 128.543 12.7147 129.161 12.992C129.791 13.2587 130.281 13.664 130.633 14.208C130.996 14.7413 131.177 15.4133 131.177 16.224V16.704H129.097V16.224C129.097 15.7973 129.012 15.456 128.841 15.2C128.681 14.9333 128.447 14.7413 128.137 14.624C127.828 14.496 127.46 14.432 127.033 14.432C126.393 14.432 125.919 14.5547 125.609 14.8C125.311 15.0347 125.161 15.36 125.161 15.776C125.161 16.0533 125.231 16.288 125.369 16.48C125.519 16.672 125.737 16.832 126.025 16.96C126.313 17.088 126.681 17.2 127.129 17.296L127.497 17.376C128.297 17.5467 128.991 17.7653 129.577 18.032C130.175 18.2987 130.639 18.6507 130.969 19.088C131.3 19.5253 131.465 20.0853 131.465 20.768C131.465 21.4507 131.289 22.0533 130.937 22.576C130.596 23.088 130.105 23.4933 129.465 23.792C128.836 24.08 128.089 24.224 127.225 24.224ZM135.273 24V14.72H132.009V12.8H140.649V14.72H137.385V24H135.273ZM142.087 24V12.8H144.199V24H142.087ZM150.562 24.224C149.175 24.224 148.077 23.84 147.266 23.072C146.455 22.2933 146.05 21.184 146.05 19.744V17.056C146.05 15.616 146.455 14.512 147.266 13.744C148.077 12.9653 149.175 12.576 150.562 12.576C151.938 12.576 152.999 12.9547 153.746 13.712C154.503 14.4587 154.882 15.488 154.882 16.8V16.896H152.802V16.736C152.802 16.0747 152.615 15.5307 152.242 15.104C151.879 14.6773 151.319 14.464 150.562 14.464C149.815 14.464 149.229 14.6933 148.802 15.152C148.375 15.6107 148.162 16.2347 148.162 17.024V19.776C148.162 20.5547 148.375 21.1787 148.802 21.648C149.229 22.1067 149.815 22.336 150.562 22.336C151.319 22.336 151.879 22.1227 152.242 21.696C152.615 21.2587 152.802 20.7147 152.802 20.064V19.776H154.882V20C154.882 21.312 154.503 22.3467 153.746 23.104C152.999 23.8507 151.938 24.224 150.562 24.224ZM156.603 24V12.8H158.715V17.248H159.003L162.635 12.8H165.339L160.667 18.32L165.499 24H162.715L159.003 19.456H158.715V24H156.603ZM169.499 24V20.144L165.691 12.8H168.043L170.411 17.6H170.699L173.067 12.8H175.419L171.611 20.144V24H169.499ZM180.509 24V12.8H182.621V17.424H186.781V12.8H188.893V24H186.781V19.344H182.621V24H180.509ZM191.009 24V12.8H198.209V14.72H193.121V17.392H197.761V19.312H193.121V22.08H198.305V24H191.009ZM199.101 24L202.045 12.8H205.725L208.669 24H206.493L205.885 21.536H201.885L201.277 24H199.101ZM202.381 19.584H205.389L204.029 14.128H203.741L202.381 19.584ZM209.689 24V22.144H211.161V14.656H209.689V12.8H214.297C215.801 12.8 216.942 13.184 217.721 13.952C218.51 14.7093 218.905 15.84 218.905 17.344V19.456C218.905 20.96 218.51 22.096 217.721 22.864C216.942 23.6213 215.801 24 214.297 24H209.689ZM213.273 22.08H214.329C215.182 22.08 215.806 21.856 216.201 21.408C216.596 20.96 216.793 20.3307 216.793 19.52V17.28C216.793 16.4587 216.596 15.8293 216.201 15.392C215.806 14.944 215.182 14.72 214.329 14.72H213.273V22.08ZM220.665 24V12.8H227.865V14.72H222.777V17.392H227.417V19.312H222.777V22.08H227.961V24H220.665ZM229.525 24V12.8H234.389C235.093 12.8 235.706 12.9227 236.229 13.168C236.751 13.4133 237.157 13.76 237.445 14.208C237.733 14.656 237.877 15.184 237.877 15.792V15.984C237.877 16.656 237.717 17.2 237.397 17.616C237.077 18.032 236.682 18.336 236.213 18.528V18.816C236.639 18.8373 236.97 18.9867 237.205 19.264C237.439 19.5307 237.557 19.888 237.557 20.336V24H235.445V20.64C235.445 20.384 235.375 20.176 235.237 20.016C235.109 19.856 234.89 19.776 234.581 19.776H231.637V24H229.525ZM231.637 17.856H234.165C234.666 17.856 235.055 17.7227 235.333 17.456C235.621 17.1787 235.765 16.816 235.765 16.368V16.208C235.765 15.76 235.626 15.4027 235.349 15.136C235.071 14.8587 234.677 14.72 234.165 14.72H231.637V17.856ZM142.903 48.224C142.06 48.224 141.314 48.0747 140.663 47.776C140.012 47.4773 139.5 47.0507 139.127 46.496C138.764 45.9307 138.583 45.264 138.583 44.496V44.208H140.631V44.432C140.631 45.0293 140.839 45.5093 141.255 45.872C141.671 46.224 142.22 46.4 142.903 46.4C143.596 46.4 144.13 46.2347 144.503 45.904C144.887 45.5733 145.079 45.1573 145.079 44.656V44.496C145.079 44.1547 144.994 43.8773 144.823 43.664C144.652 43.4507 144.423 43.296 144.135 43.2C143.847 43.0933 143.522 43.04 143.159 43.04H140.919V40.8L144.535 38.88V38.624H138.871V36.8H146.807V39.52L143.431 41.312V41.568H144.023C144.524 41.568 145.01 41.6693 145.479 41.872C145.959 42.0747 146.354 42.3893 146.663 42.816C146.972 43.232 147.127 43.776 147.127 44.448V44.64C147.127 45.3653 146.951 46 146.599 46.544C146.247 47.0773 145.751 47.4933 145.111 47.792C144.482 48.08 143.746 48.224 142.903 48.224ZM152.637 48.224C151.795 48.224 151.048 48.0747 150.397 47.776C149.747 47.4773 149.235 47.0507 148.861 46.496C148.499 45.9307 148.317 45.264 148.317 44.496V44.208H150.365V44.432C150.365 45.0293 150.573 45.5093 150.989 45.872C151.405 46.224 151.955 46.4 152.637 46.4C153.331 46.4 153.864 46.2347 154.237 45.904C154.621 45.5733 154.813 45.1573 154.813 44.656V44.496C154.813 44.1547 154.728 43.8773 154.557 43.664C154.387 43.4507 154.157 43.296 153.869 43.2C153.581 43.0933 153.256 43.04 152.893 43.04H150.653V40.8L154.269 38.88V38.624H148.605V36.8H156.541V39.52L153.165 41.312V41.568H153.757C154.259 41.568 154.744 41.6693 155.213 41.872C155.693 42.0747 156.088 42.3893 156.397 42.816C156.707 43.232 156.861 43.776 156.861 44.448V44.64C156.861 45.3653 156.685 46 156.333 46.544C155.981 47.0773 155.485 47.4933 154.845 47.792C154.216 48.08 153.48 48.224 152.637 48.224ZM162.5 48.224C161.646 48.224 160.905 48.064 160.276 47.744C159.646 47.424 159.161 46.9813 158.82 46.416C158.478 45.8507 158.308 45.2 158.308 44.464V40.64C158.308 39.7333 158.489 38.9813 158.852 38.384C159.225 37.776 159.732 37.3227 160.372 37.024C161.022 36.7253 161.764 36.576 162.596 36.576C163.428 36.576 164.148 36.7147 164.756 36.992C165.374 37.2693 165.849 37.6693 166.18 38.192C166.521 38.7147 166.692 39.3387 166.692 40.064H164.612C164.612 39.616 164.457 39.2267 164.148 38.896C163.838 38.5653 163.321 38.4 162.596 38.4C161.881 38.4 161.326 38.5867 160.932 38.96C160.548 39.3333 160.356 39.8507 160.356 40.512V41.664H160.644C160.825 41.4507 161.102 41.248 161.476 41.056C161.849 40.864 162.393 40.768 163.108 40.768C163.758 40.768 164.356 40.9067 164.9 41.184C165.454 41.4613 165.902 41.8667 166.244 42.4C166.585 42.9227 166.756 43.5573 166.756 44.304V44.496C166.756 45.232 166.58 45.8827 166.228 46.448C165.876 47.0027 165.38 47.44 164.74 47.76C164.1 48.0693 163.353 48.224 162.5 48.224ZM162.532 46.4C163.204 46.4 163.732 46.224 164.116 45.872C164.51 45.52 164.708 45.0507 164.708 44.464V44.336C164.708 43.9413 164.617 43.6 164.436 43.312C164.265 43.024 164.014 42.8 163.684 42.64C163.364 42.48 162.98 42.4 162.532 42.4C162.094 42.4 161.71 42.48 161.38 42.64C161.049 42.8 160.793 43.024 160.612 43.312C160.441 43.6 160.356 43.9413 160.356 44.336V44.464C160.356 45.0507 160.548 45.52 160.932 45.872C161.326 46.224 161.86 46.4 162.532 46.4ZM167.75 48L171.03 42.352L167.782 36.8H170.182L172.406 40.848H172.694L174.918 36.8H177.318L174.07 42.352L177.35 48H174.95L172.694 43.856H172.406L170.15 48H167.75ZM182.687 48.224C181.834 48.224 181.093 48.064 180.463 47.744C179.834 47.424 179.349 46.9813 179.007 46.416C178.666 45.8507 178.495 45.2 178.495 44.464V40.64C178.495 39.7333 178.677 38.9813 179.039 38.384C179.413 37.776 179.919 37.3227 180.559 37.024C181.21 36.7253 181.951 36.576 182.783 36.576C183.615 36.576 184.335 36.7147 184.943 36.992C185.562 37.2693 186.037 37.6693 186.367 38.192C186.709 38.7147 186.879 39.3387 186.879 40.064H184.799C184.799 39.616 184.645 39.2267 184.335 38.896C184.026 38.5653 183.509 38.4 182.783 38.4C182.069 38.4 181.514 38.5867 181.119 38.96C180.735 39.3333 180.543 39.8507 180.543 40.512V41.664H180.831C181.013 41.4507 181.29 41.248 181.663 41.056C182.037 40.864 182.581 40.768 183.295 40.768C183.946 40.768 184.543 40.9067 185.087 41.184C185.642 41.4613 186.09 41.8667 186.431 42.4C186.773 42.9227 186.943 43.5573 186.943 44.304V44.496C186.943 45.232 186.767 45.8827 186.415 46.448C186.063 47.0027 185.567 47.44 184.927 47.76C184.287 48.0693 183.541 48.224 182.687 48.224ZM182.719 46.4C183.391 46.4 183.919 46.224 184.303 45.872C184.698 45.52 184.895 45.0507 184.895 44.464V44.336C184.895 43.9413 184.805 43.6 184.623 43.312C184.453 43.024 184.202 42.8 183.871 42.64C183.551 42.48 183.167 42.4 182.719 42.4C182.282 42.4 181.898 42.48 181.567 42.64C181.237 42.8 180.981 43.024 180.799 43.312C180.629 43.6 180.543 43.9413 180.543 44.336V44.464C180.543 45.0507 180.735 45.52 181.119 45.872C181.514 46.224 182.047 46.4 182.719 46.4ZM192.77 48.224C191.447 48.224 190.386 47.8613 189.586 47.136C188.786 46.4 188.386 45.2907 188.386 43.808V40.992C188.386 39.552 188.786 38.4587 189.586 37.712C190.386 36.9547 191.447 36.576 192.77 36.576C194.103 36.576 195.165 36.9547 195.954 37.712C196.754 38.4587 197.154 39.552 197.154 40.992V43.808C197.154 45.2907 196.754 46.4 195.954 47.136C195.165 47.8613 194.103 48.224 192.77 48.224ZM192.77 46.4C193.57 46.4 194.157 46.1813 194.53 45.744C194.914 45.3067 195.106 44.6827 195.106 43.872V40.896C195.106 40.0747 194.893 39.456 194.466 39.04C194.05 38.6133 193.485 38.4 192.77 38.4C192.034 38.4 191.458 38.6187 191.042 39.056C190.637 39.4933 190.434 40.1067 190.434 40.896V43.872C190.434 44.7147 190.626 45.3493 191.01 45.776C191.405 46.192 191.991 46.4 192.77 46.4Z" fill="white"/>
</svg>
