<svg width="1150" height="60" viewBox="0 0 1150 60" fill="none" xmlns="http://www.w3.org/2000/svg">
<rect width="1150" height="60" fill="#F86F03"/>
<path d="M493.897 23L498.937 11.8H500.985L506.041 23H503.865L499.529 12.904H500.361L496.041 23H493.897ZM496.217 20.408L496.777 18.776H502.825L503.385 20.408H496.217ZM507.465 23V11.8H512.361C513.577 11.8 514.644 12.0347 515.561 12.504C516.478 12.9733 517.193 13.624 517.705 14.456C518.217 15.288 518.473 16.2693 518.473 17.4C518.473 18.52 518.217 19.5013 517.705 20.344C517.193 21.176 516.478 21.8267 515.561 22.296C514.644 22.7653 513.577 23 512.361 23H507.465ZM509.545 21.24H512.265C513.108 21.24 513.833 21.08 514.441 20.76C515.06 20.44 515.534 19.992 515.865 19.416C516.206 18.84 516.377 18.168 516.377 17.4C516.377 16.6213 516.206 15.9493 515.865 15.384C515.534 14.808 515.06 14.36 514.441 14.04C513.833 13.72 513.108 13.56 512.265 13.56H509.545V21.24ZM528.578 23.16C527.703 23.16 526.866 23.0373 526.066 22.792C525.266 22.536 524.631 22.2107 524.162 21.816L524.882 20.2C525.33 20.552 525.884 20.8453 526.546 21.08C527.207 21.3147 527.884 21.432 528.578 21.432C529.164 21.432 529.639 21.368 530.002 21.24C530.364 21.112 530.631 20.9413 530.802 20.728C530.972 20.504 531.058 20.2533 531.058 19.976C531.058 19.6347 530.935 19.3627 530.69 19.16C530.444 18.9467 530.124 18.7813 529.73 18.664C529.346 18.536 528.914 18.4187 528.434 18.312C527.964 18.2053 527.49 18.0827 527.01 17.944C526.54 17.7947 526.108 17.608 525.714 17.384C525.33 17.1493 525.015 16.84 524.77 16.456C524.524 16.072 524.402 15.5813 524.402 14.984C524.402 14.376 524.562 13.8213 524.882 13.32C525.212 12.808 525.708 12.4027 526.37 12.104C527.042 11.7947 527.89 11.64 528.914 11.64C529.586 11.64 530.252 11.7253 530.914 11.896C531.575 12.0667 532.151 12.312 532.642 12.632L531.986 14.248C531.484 13.9493 530.967 13.7307 530.434 13.592C529.9 13.4427 529.388 13.368 528.898 13.368C528.322 13.368 527.852 13.4373 527.49 13.576C527.138 13.7147 526.876 13.896 526.706 14.12C526.546 14.344 526.466 14.6 526.466 14.888C526.466 15.2293 526.583 15.5067 526.818 15.72C527.063 15.9227 527.378 16.0827 527.762 16.2C528.156 16.3173 528.594 16.4347 529.074 16.552C529.554 16.6587 530.028 16.7813 530.498 16.92C530.978 17.0587 531.41 17.24 531.794 17.464C532.188 17.688 532.503 17.992 532.738 18.376C532.983 18.76 533.106 19.2453 533.106 19.832C533.106 20.4293 532.94 20.984 532.61 21.496C532.29 21.9973 531.794 22.4027 531.122 22.712C530.45 23.0107 529.602 23.16 528.578 23.16ZM537.284 23V13.56H533.572V11.8H543.076V13.56H539.364V23H537.284ZM544.637 23V11.8H546.717V23H544.637ZM554.93 23.16C554.077 23.16 553.282 23.0213 552.546 22.744C551.821 22.456 551.186 22.056 550.642 21.544C550.109 21.0213 549.693 20.408 549.394 19.704C549.096 19 548.946 18.232 548.946 17.4C548.946 16.568 549.096 15.8 549.394 15.096C549.693 14.392 550.114 13.784 550.658 13.272C551.202 12.7493 551.837 12.3493 552.562 12.072C553.288 11.784 554.082 11.64 554.946 11.64C555.864 11.64 556.701 11.8 557.458 12.12C558.216 12.4293 558.856 12.8933 559.378 13.512L558.034 14.776C557.629 14.3387 557.176 14.0133 556.674 13.8C556.173 13.576 555.629 13.464 555.042 13.464C554.456 13.464 553.917 13.56 553.426 13.752C552.946 13.944 552.525 14.216 552.162 14.568C551.81 14.92 551.533 15.336 551.33 15.816C551.138 16.296 551.042 16.824 551.042 17.4C551.042 17.976 551.138 18.504 551.33 18.984C551.533 19.464 551.81 19.88 552.162 20.232C552.525 20.584 552.946 20.856 553.426 21.048C553.917 21.24 554.456 21.336 555.042 21.336C555.629 21.336 556.173 21.2293 556.674 21.016C557.176 20.792 557.629 20.456 558.034 20.008L559.378 21.288C558.856 21.896 558.216 22.36 557.458 22.68C556.701 23 555.858 23.16 554.93 23.16ZM563.227 20.36L563.115 17.896L568.987 11.8H571.323L566.443 16.984L565.291 18.248L563.227 20.36ZM561.371 23V11.8H563.451V23H561.371ZM569.179 23L564.891 17.896L566.267 16.376L571.611 23H569.179ZM574.983 23V18.568L575.447 19.848L570.583 11.8H572.807L576.711 18.28H575.463L579.399 11.8H581.447L576.583 19.848L577.063 18.568V23H574.983ZM595.103 11.8H597.183V23H595.103V11.8ZM589.311 23H587.231V11.8H589.311V23ZM595.263 18.2H589.135V16.424H595.263V18.2ZM602.104 16.456H607.672V18.168H602.104V16.456ZM602.264 21.256H608.584V23H600.184V11.8H608.36V13.544H602.264V21.256ZM609.318 23L614.358 11.8H616.406L621.462 23H619.286L614.95 12.904H615.782L611.462 23H609.318ZM611.638 20.408L612.198 18.776H618.246L618.806 20.408H611.638ZM622.887 23V11.8H627.783C628.999 11.8 630.065 12.0347 630.983 12.504C631.9 12.9733 632.615 13.624 633.127 14.456C633.639 15.288 633.895 16.2693 633.895 17.4C633.895 18.52 633.639 19.5013 633.127 20.344C632.615 21.176 631.9 21.8267 630.983 22.296C630.065 22.7653 628.999 23 627.783 23H622.887ZM624.967 21.24H627.687C628.529 21.24 629.255 21.08 629.863 20.76C630.481 20.44 630.956 19.992 631.287 19.416C631.628 18.84 631.799 18.168 631.799 17.4C631.799 16.6213 631.628 15.9493 631.287 15.384C630.956 14.808 630.481 14.36 629.863 14.04C629.255 13.72 628.529 13.56 627.687 13.56H624.967V21.24ZM638.026 16.456H643.594V18.168H638.026V16.456ZM638.186 21.256H644.506V23H636.106V11.8H644.282V13.544H638.186V21.256ZM646.824 23V11.8H651.432C652.424 11.8 653.272 11.96 653.976 12.28C654.691 12.6 655.24 13.0587 655.624 13.656C656.008 14.2533 656.2 14.9627 656.2 15.784C656.2 16.6053 656.008 17.3147 655.624 17.912C655.24 18.4987 654.691 18.952 653.976 19.272C653.272 19.5813 652.424 19.736 651.432 19.736H647.976L648.904 18.792V23H646.824ZM654.152 23L651.32 18.936H653.544L656.392 23H654.152ZM648.904 19.016L647.976 18.024H651.336C652.254 18.024 652.942 17.8267 653.4 17.432C653.87 17.0373 654.104 16.488 654.104 15.784C654.104 15.0693 653.87 14.52 653.4 14.136C652.942 13.752 652.254 13.56 651.336 13.56H647.976L648.904 12.536V19.016ZM485.863 49V38.6L486.775 39.544H483.495V37.8H487.943V49H485.863ZM491.957 49V38.6L492.869 39.544H489.589V37.8H494.037V49H491.957ZM499.971 49.16C499.181 49.16 498.408 49.048 497.651 48.824C496.904 48.5893 496.275 48.2693 495.763 47.864L496.643 46.248C497.048 46.5787 497.539 46.8453 498.115 47.048C498.701 47.2507 499.309 47.352 499.939 47.352C500.675 47.352 501.251 47.1973 501.667 46.888C502.093 46.5787 502.307 46.1627 502.307 45.64C502.307 45.288 502.216 44.9787 502.035 44.712C501.864 44.4453 501.555 44.2427 501.107 44.104C500.669 43.9653 500.067 43.896 499.299 43.896H496.595L497.171 37.8H503.747V39.544H497.939L499.027 38.552L498.595 43.112L497.507 42.136H499.763C500.872 42.136 501.763 42.2853 502.435 42.584C503.117 42.872 503.613 43.2773 503.923 43.8C504.243 44.312 504.403 44.8987 504.403 45.56C504.403 46.2107 504.243 46.808 503.923 47.352C503.603 47.896 503.112 48.3333 502.451 48.664C501.8 48.9947 500.973 49.16 499.971 49.16ZM510.274 49.16C509.389 49.16 508.589 48.936 507.874 48.488C507.17 48.04 506.616 47.3893 506.21 46.536C505.805 45.672 505.602 44.6267 505.602 43.4C505.602 42.1733 505.805 41.1333 506.21 40.28C506.616 39.416 507.17 38.76 507.874 38.312C508.589 37.864 509.389 37.64 510.274 37.64C511.17 37.64 511.97 37.864 512.674 38.312C513.378 38.76 513.933 39.416 514.338 40.28C514.754 41.1333 514.962 42.1733 514.962 43.4C514.962 44.6267 514.754 45.672 514.338 46.536C513.933 47.3893 513.378 48.04 512.674 48.488C511.97 48.936 511.17 49.16 510.274 49.16ZM510.274 47.352C510.797 47.352 511.25 47.2133 511.634 46.936C512.018 46.648 512.317 46.2107 512.53 45.624C512.754 45.0373 512.866 44.296 512.866 43.4C512.866 42.4933 512.754 41.752 512.53 41.176C512.317 40.5893 512.018 40.1573 511.634 39.88C511.25 39.592 510.797 39.448 510.274 39.448C509.773 39.448 509.325 39.592 508.93 39.88C508.546 40.1573 508.242 40.5893 508.018 41.176C507.805 41.752 507.698 42.4933 507.698 43.4C507.698 44.296 507.805 45.0373 508.018 45.624C508.242 46.2107 508.546 46.648 508.93 46.936C509.325 47.2133 509.773 47.352 510.274 47.352ZM515.652 49L519.412 44.104L519.38 45.176L515.796 40.456H518.02L520.532 43.816H519.684L522.212 40.456H524.372L520.756 45.176L520.772 44.104L524.516 49H522.26L519.62 45.432L520.452 45.544L517.86 49H515.652ZM530.075 49.16C529.062 49.16 528.193 48.9467 527.467 48.52C526.742 48.0827 526.187 47.4533 525.803 46.632C525.419 45.8107 525.227 44.7973 525.227 43.592C525.227 42.312 525.457 41.2293 525.915 40.344C526.385 39.4587 527.03 38.7867 527.851 38.328C528.683 37.8693 529.638 37.64 530.715 37.64C531.281 37.64 531.819 37.6987 532.331 37.816C532.854 37.9333 533.297 38.1147 533.659 38.36L532.891 39.928C532.582 39.7253 532.246 39.5867 531.883 39.512C531.531 39.4267 531.158 39.384 530.763 39.384C529.707 39.384 528.87 39.7093 528.251 40.36C527.633 41.0107 527.323 41.9707 527.323 43.24C527.323 43.4427 527.329 43.6827 527.339 43.96C527.35 44.2267 527.387 44.4987 527.451 44.776L526.811 44.072C527.003 43.6347 527.265 43.272 527.595 42.984C527.937 42.6853 528.337 42.4613 528.795 42.312C529.265 42.1627 529.771 42.088 530.315 42.088C531.051 42.088 531.707 42.232 532.283 42.52C532.859 42.7973 533.318 43.1973 533.659 43.72C534.001 44.232 534.171 44.8347 534.171 45.528C534.171 46.264 533.99 46.904 533.627 47.448C533.265 47.992 532.774 48.4133 532.155 48.712C531.537 49.0107 530.843 49.16 530.075 49.16ZM529.963 47.528C530.39 47.528 530.769 47.4533 531.099 47.304C531.43 47.144 531.686 46.92 531.867 46.632C532.059 46.344 532.155 46.008 532.155 45.624C532.155 45.0373 531.953 44.5733 531.547 44.232C531.142 43.8907 530.598 43.72 529.915 43.72C529.467 43.72 529.073 43.8053 528.731 43.976C528.401 44.136 528.134 44.36 527.931 44.648C527.739 44.936 527.643 45.2667 527.643 45.64C527.643 45.9813 527.734 46.296 527.915 46.584C528.097 46.872 528.358 47.1013 528.699 47.272C529.051 47.4427 529.473 47.528 529.963 47.528ZM539.931 49.16C539.045 49.16 538.245 48.936 537.531 48.488C536.827 48.04 536.272 47.3893 535.867 46.536C535.461 45.672 535.259 44.6267 535.259 43.4C535.259 42.1733 535.461 41.1333 535.867 40.28C536.272 39.416 536.827 38.76 537.531 38.312C538.245 37.864 539.045 37.64 539.931 37.64C540.827 37.64 541.627 37.864 542.331 38.312C543.035 38.76 543.589 39.416 543.995 40.28C544.411 41.1333 544.619 42.1733 544.619 43.4C544.619 44.6267 544.411 45.672 543.995 46.536C543.589 47.3893 543.035 48.04 542.331 48.488C541.627 48.936 540.827 49.16 539.931 49.16ZM539.931 47.352C540.453 47.352 540.907 47.2133 541.291 46.936C541.675 46.648 541.973 46.2107 542.187 45.624C542.411 45.0373 542.523 44.296 542.523 43.4C542.523 42.4933 542.411 41.752 542.187 41.176C541.973 40.5893 541.675 40.1573 541.291 39.88C540.907 39.592 540.453 39.448 539.931 39.448C539.429 39.448 538.981 39.592 538.587 39.88C538.203 40.1573 537.899 40.5893 537.675 41.176C537.461 41.752 537.355 42.4933 537.355 43.4C537.355 44.296 537.461 45.0373 537.675 45.624C537.899 46.2107 538.203 46.648 538.587 46.936C538.981 47.2133 539.429 47.352 539.931 47.352ZM551.368 49.112C550.675 49.112 550.04 48.952 549.464 48.632C548.899 48.312 548.446 47.832 548.104 47.192C547.774 46.5413 547.608 45.72 547.608 44.728C547.608 43.7253 547.768 42.904 548.088 42.264C548.419 41.624 548.867 41.1493 549.432 40.84C549.998 40.52 550.643 40.36 551.368 40.36C552.211 40.36 552.952 40.5413 553.592 40.904C554.243 41.2667 554.755 41.7733 555.128 42.424C555.512 43.0747 555.704 43.8427 555.704 44.728C555.704 45.6133 555.512 46.3867 555.128 47.048C554.755 47.6987 554.243 48.2053 553.592 48.568C552.952 48.9307 552.211 49.112 551.368 49.112ZM546.632 52.104V40.456H548.536V42.472L548.472 44.744L548.632 47.016V52.104H546.632ZM551.144 47.4C551.624 47.4 552.051 47.2933 552.424 47.08C552.808 46.8667 553.112 46.5573 553.336 46.152C553.56 45.7467 553.672 45.272 553.672 44.728C553.672 44.1733 553.56 43.6987 553.336 43.304C553.112 42.8987 552.808 42.5893 552.424 42.376C552.051 42.1627 551.624 42.056 551.144 42.056C550.664 42.056 550.232 42.1627 549.848 42.376C549.464 42.5893 549.16 42.8987 548.936 43.304C548.712 43.6987 548.6 44.1733 548.6 44.728C548.6 45.272 548.712 45.7467 548.936 46.152C549.16 46.5573 549.464 46.8667 549.848 47.08C550.232 47.2933 550.664 47.4 551.144 47.4ZM556.152 49L559.912 44.104L559.88 45.176L556.296 40.456H558.52L561.032 43.816H560.184L562.712 40.456H564.872L561.256 45.176L561.272 44.104L565.016 49H562.76L560.12 45.432L560.952 45.544L558.36 49H556.152ZM570.482 45.384V43.72H574.882V45.384H570.482ZM576.798 47.128V45.464L583.55 42.936V43.864L576.798 41.336V39.672L584.174 42.536V44.264L576.798 47.128ZM593.841 49.16C593.052 49.16 592.279 49.048 591.521 48.824C590.775 48.5893 590.145 48.2693 589.633 47.864L590.529 46.248C590.935 46.5787 591.425 46.8453 592.001 47.048C592.577 47.2507 593.18 47.352 593.809 47.352C594.556 47.352 595.137 47.2027 595.553 46.904C595.969 46.5947 596.177 46.1787 596.177 45.656C596.177 45.144 595.985 44.7387 595.601 44.44C595.217 44.1413 594.599 43.992 593.745 43.992H592.721V42.568L595.921 38.76L596.193 39.544H590.177V37.8H597.809V39.192L594.609 43L593.521 42.36H594.145C595.521 42.36 596.551 42.6693 597.233 43.288C597.927 43.896 598.273 44.68 598.273 45.64C598.273 46.2693 598.113 46.8507 597.793 47.384C597.473 47.9173 596.983 48.3493 596.321 48.68C595.671 49 594.844 49.16 593.841 49.16ZM603.076 49.16C602.286 49.16 601.513 49.048 600.756 48.824C600.009 48.5893 599.38 48.2693 598.868 47.864L599.764 46.248C600.169 46.5787 600.66 46.8453 601.236 47.048C601.812 47.2507 602.414 47.352 603.044 47.352C603.79 47.352 604.372 47.2027 604.788 46.904C605.204 46.5947 605.412 46.1787 605.412 45.656C605.412 45.144 605.22 44.7387 604.836 44.44C604.452 44.1413 603.833 43.992 602.98 43.992H601.956V42.568L605.156 38.76L605.428 39.544H599.412V37.8H607.044V39.192L603.844 43L602.756 42.36H603.38C604.756 42.36 605.785 42.6693 606.468 43.288C607.161 43.896 607.508 44.68 607.508 45.64C607.508 46.2693 607.348 46.8507 607.028 47.384C606.708 47.9173 606.217 48.3493 605.556 48.68C604.905 49 604.078 49.16 603.076 49.16ZM613.716 49.16C612.703 49.16 611.833 48.9467 611.108 48.52C610.383 48.0827 609.828 47.4533 609.444 46.632C609.06 45.8107 608.868 44.7973 608.868 43.592C608.868 42.312 609.097 41.2293 609.556 40.344C610.025 39.4587 610.671 38.7867 611.492 38.328C612.324 37.8693 613.279 37.64 614.356 37.64C614.921 37.64 615.46 37.6987 615.972 37.816C616.495 37.9333 616.937 38.1147 617.3 38.36L616.532 39.928C616.223 39.7253 615.887 39.5867 615.524 39.512C615.172 39.4267 614.799 39.384 614.404 39.384C613.348 39.384 612.511 39.7093 611.892 40.36C611.273 41.0107 610.964 41.9707 610.964 43.24C610.964 43.4427 610.969 43.6827 610.98 43.96C610.991 44.2267 611.028 44.4987 611.092 44.776L610.452 44.072C610.644 43.6347 610.905 43.272 611.236 42.984C611.577 42.6853 611.977 42.4613 612.436 42.312C612.905 42.1627 613.412 42.088 613.956 42.088C614.692 42.088 615.348 42.232 615.924 42.52C616.5 42.7973 616.959 43.1973 617.3 43.72C617.641 44.232 617.812 44.8347 617.812 45.528C617.812 46.264 617.631 46.904 617.268 47.448C616.905 47.992 616.415 48.4133 615.796 48.712C615.177 49.0107 614.484 49.16 613.716 49.16ZM613.604 47.528C614.031 47.528 614.409 47.4533 614.74 47.304C615.071 47.144 615.327 46.92 615.508 46.632C615.7 46.344 615.796 46.008 615.796 45.624C615.796 45.0373 615.593 44.5733 615.188 44.232C614.783 43.8907 614.239 43.72 613.556 43.72C613.108 43.72 612.713 43.8053 612.372 43.976C612.041 44.136 611.775 44.36 611.572 44.648C611.38 44.936 611.284 45.2667 611.284 45.64C611.284 45.9813 611.375 46.296 611.556 46.584C611.737 46.872 611.999 47.1013 612.34 47.272C612.692 47.4427 613.113 47.528 613.604 47.528ZM618.105 49L621.865 44.104L621.833 45.176L618.249 40.456H620.473L622.985 43.816H622.137L624.665 40.456H626.825L623.209 45.176L623.225 44.104L626.969 49H624.713L622.073 45.432L622.905 45.544L620.313 49H618.105ZM632.529 49.16C631.515 49.16 630.646 48.9467 629.921 48.52C629.195 48.0827 628.641 47.4533 628.257 46.632C627.873 45.8107 627.681 44.7973 627.681 43.592C627.681 42.312 627.91 41.2293 628.369 40.344C628.838 39.4587 629.483 38.7867 630.305 38.328C631.137 37.8693 632.091 37.64 633.169 37.64C633.734 37.64 634.273 37.6987 634.785 37.816C635.307 37.9333 635.75 38.1147 636.113 38.36L635.345 39.928C635.035 39.7253 634.699 39.5867 634.337 39.512C633.985 39.4267 633.611 39.384 633.217 39.384C632.161 39.384 631.323 39.7093 630.705 40.36C630.086 41.0107 629.777 41.9707 629.777 43.24C629.777 43.4427 629.782 43.6827 629.793 43.96C629.803 44.2267 629.841 44.4987 629.905 44.776L629.265 44.072C629.457 43.6347 629.718 43.272 630.049 42.984C630.39 42.6853 630.79 42.4613 631.249 42.312C631.718 42.1627 632.225 42.088 632.769 42.088C633.505 42.088 634.161 42.232 634.737 42.52C635.313 42.7973 635.771 43.1973 636.113 43.72C636.454 44.232 636.625 44.8347 636.625 45.528C636.625 46.264 636.443 46.904 636.081 47.448C635.718 47.992 635.227 48.4133 634.609 48.712C633.99 49.0107 633.297 49.16 632.529 49.16ZM632.417 47.528C632.843 47.528 633.222 47.4533 633.553 47.304C633.883 47.144 634.139 46.92 634.321 46.632C634.513 46.344 634.609 46.008 634.609 45.624C634.609 45.0373 634.406 44.5733 634.001 44.232C633.595 43.8907 633.051 43.72 632.369 43.72C631.921 43.72 631.526 43.8053 631.185 43.976C630.854 44.136 630.587 44.36 630.385 44.648C630.193 44.936 630.097 45.2667 630.097 45.64C630.097 45.9813 630.187 46.296 630.369 46.584C630.55 46.872 630.811 47.1013 631.153 47.272C631.505 47.4427 631.926 47.528 632.417 47.528ZM642.384 49.16C641.498 49.16 640.698 48.936 639.984 48.488C639.28 48.04 638.725 47.3893 638.32 46.536C637.914 45.672 637.712 44.6267 637.712 43.4C637.712 42.1733 637.914 41.1333 638.32 40.28C638.725 39.416 639.28 38.76 639.984 38.312C640.698 37.864 641.498 37.64 642.384 37.64C643.28 37.64 644.08 37.864 644.784 38.312C645.488 38.76 646.042 39.416 646.448 40.28C646.864 41.1333 647.072 42.1733 647.072 43.4C647.072 44.6267 646.864 45.672 646.448 46.536C646.042 47.3893 645.488 48.04 644.784 48.488C644.08 48.936 643.28 49.16 642.384 49.16ZM642.384 47.352C642.906 47.352 643.36 47.2133 643.744 46.936C644.128 46.648 644.426 46.2107 644.64 45.624C644.864 45.0373 644.976 44.296 644.976 43.4C644.976 42.4933 644.864 41.752 644.64 41.176C644.426 40.5893 644.128 40.1573 643.744 39.88C643.36 39.592 642.906 39.448 642.384 39.448C641.882 39.448 641.434 39.592 641.04 39.88C640.656 40.1573 640.352 40.5893 640.128 41.176C639.914 41.752 639.808 42.4933 639.808 43.4C639.808 44.296 639.914 45.0373 640.128 45.624C640.352 46.2107 640.656 46.648 641.04 46.936C641.434 47.2133 641.882 47.352 642.384 47.352ZM653.821 49.112C653.128 49.112 652.493 48.952 651.917 48.632C651.352 48.312 650.899 47.832 650.557 47.192C650.227 46.5413 650.061 45.72 650.061 44.728C650.061 43.7253 650.221 42.904 650.541 42.264C650.872 41.624 651.32 41.1493 651.885 40.84C652.451 40.52 653.096 40.36 653.821 40.36C654.664 40.36 655.405 40.5413 656.045 40.904C656.696 41.2667 657.208 41.7733 657.581 42.424C657.965 43.0747 658.157 43.8427 658.157 44.728C658.157 45.6133 657.965 46.3867 657.581 47.048C657.208 47.6987 656.696 48.2053 656.045 48.568C655.405 48.9307 654.664 49.112 653.821 49.112ZM649.085 52.104V40.456H650.989V42.472L650.925 44.744L651.085 47.016V52.104H649.085ZM653.597 47.4C654.077 47.4 654.504 47.2933 654.877 47.08C655.261 46.8667 655.565 46.5573 655.789 46.152C656.013 45.7467 656.125 45.272 656.125 44.728C656.125 44.1733 656.013 43.6987 655.789 43.304C655.565 42.8987 655.261 42.5893 654.877 42.376C654.504 42.1627 654.077 42.056 653.597 42.056C653.117 42.056 652.685 42.1627 652.301 42.376C651.917 42.5893 651.613 42.8987 651.389 43.304C651.165 43.6987 651.053 44.1733 651.053 44.728C651.053 45.272 651.165 45.7467 651.389 46.152C651.613 46.5573 651.917 46.8667 652.301 47.08C652.685 47.2933 653.117 47.4 653.597 47.4ZM658.605 49L662.365 44.104L662.333 45.176L658.749 40.456H660.973L663.485 43.816H662.637L665.165 40.456H667.325L663.709 45.176L663.725 44.104L667.469 49H665.213L662.573 45.432L663.405 45.544L660.813 49H658.605Z" fill="white"/>
</svg>
