<svg width="336" height="60" viewBox="0 0 336 60" fill="none" xmlns="http://www.w3.org/2000/svg">
<rect width="336" height="60" fill="#F86F03"/>
<path d="M86.3966 23L91.4366 11.8H93.4846L98.5406 23H96.3646L92.0286 12.904H92.8606L88.5406 23H86.3966ZM88.7166 20.408L89.2766 18.776H95.3246L95.8846 20.408H88.7166ZM99.9649 23V11.8H104.861C106.077 11.8 107.144 12.0347 108.061 12.504C108.978 12.9733 109.693 13.624 110.205 14.456C110.717 15.288 110.973 16.2693 110.973 17.4C110.973 18.52 110.717 19.5013 110.205 20.344C109.693 21.176 108.978 21.8267 108.061 22.296C107.144 22.7653 106.077 23 104.861 23H99.9649ZM102.045 21.24H104.765C105.608 21.24 106.333 21.08 106.941 20.76C107.56 20.44 108.034 19.992 108.365 19.416C108.706 18.84 108.877 18.168 108.877 17.4C108.877 16.6213 108.706 15.9493 108.365 15.384C108.034 14.808 107.56 14.36 106.941 14.04C106.333 13.72 105.608 13.56 104.765 13.56H102.045V21.24ZM125.478 11.8H127.558V23H125.478V11.8ZM119.686 23H117.606V11.8H119.686V23ZM125.638 18.2H119.51V16.424H125.638V18.2ZM132.479 16.456H138.047V18.168H132.479V16.456ZM132.639 21.256H138.959V23H130.559V11.8H138.735V13.544H132.639V21.256ZM139.693 23L144.733 11.8H146.781L151.837 23H149.661L145.325 12.904H146.157L141.837 23H139.693ZM142.013 20.408L142.573 18.776H148.621L149.181 20.408H142.013ZM153.262 23V11.8H158.158C159.374 11.8 160.44 12.0347 161.358 12.504C162.275 12.9733 162.99 13.624 163.502 14.456C164.014 15.288 164.27 16.2693 164.27 17.4C164.27 18.52 164.014 19.5013 163.502 20.344C162.99 21.176 162.275 21.8267 161.358 22.296C160.44 22.7653 159.374 23 158.158 23H153.262ZM155.342 21.24H158.062C158.904 21.24 159.63 21.08 160.238 20.76C160.856 20.44 161.331 19.992 161.662 19.416C162.003 18.84 162.174 18.168 162.174 17.4C162.174 16.6213 162.003 15.9493 161.662 15.384C161.331 14.808 160.856 14.36 160.238 14.04C159.63 13.72 158.904 13.56 158.062 13.56H155.342V21.24ZM168.401 16.456H173.969V18.168H168.401V16.456ZM168.561 21.256H174.881V23H166.481V11.8H174.657V13.544H168.561V21.256ZM177.199 23V11.8H181.807C182.799 11.8 183.647 11.96 184.351 12.28C185.066 12.6 185.615 13.0587 185.999 13.656C186.383 14.2533 186.575 14.9627 186.575 15.784C186.575 16.6053 186.383 17.3147 185.999 17.912C185.615 18.4987 185.066 18.952 184.351 19.272C183.647 19.5813 182.799 19.736 181.807 19.736H178.351L179.279 18.792V23H177.199ZM184.527 23L181.695 18.936H183.919L186.767 23H184.527ZM179.279 19.016L178.351 18.024H181.711C182.629 18.024 183.317 17.8267 183.775 17.432C184.245 17.0373 184.479 16.488 184.479 15.784C184.479 15.0693 184.245 14.52 183.775 14.136C183.317 13.752 182.629 13.56 181.711 13.56H178.351L179.279 12.536V19.016ZM196.796 23.16C195.922 23.16 195.084 23.0373 194.284 22.792C193.484 22.536 192.85 22.2107 192.38 21.816L193.1 20.2C193.548 20.552 194.103 20.8453 194.764 21.08C195.426 21.3147 196.103 21.432 196.796 21.432C197.383 21.432 197.858 21.368 198.22 21.24C198.583 21.112 198.85 20.9413 199.02 20.728C199.191 20.504 199.276 20.2533 199.276 19.976C199.276 19.6347 199.154 19.3627 198.908 19.16C198.663 18.9467 198.343 18.7813 197.948 18.664C197.564 18.536 197.132 18.4187 196.652 18.312C196.183 18.2053 195.708 18.0827 195.228 17.944C194.759 17.7947 194.327 17.608 193.932 17.384C193.548 17.1493 193.234 16.84 192.988 16.456C192.743 16.072 192.62 15.5813 192.62 14.984C192.62 14.376 192.78 13.8213 193.1 13.32C193.431 12.808 193.927 12.4027 194.588 12.104C195.26 11.7947 196.108 11.64 197.132 11.64C197.804 11.64 198.471 11.7253 199.132 11.896C199.794 12.0667 200.37 12.312 200.86 12.632L200.204 14.248C199.703 13.9493 199.186 13.7307 198.652 13.592C198.119 13.4427 197.607 13.368 197.116 13.368C196.54 13.368 196.071 13.4373 195.708 13.576C195.356 13.7147 195.095 13.896 194.924 14.12C194.764 14.344 194.684 14.6 194.684 14.888C194.684 15.2293 194.802 15.5067 195.036 15.72C195.282 15.9227 195.596 16.0827 195.98 16.2C196.375 16.3173 196.812 16.4347 197.292 16.552C197.772 16.6587 198.247 16.7813 198.716 16.92C199.196 17.0587 199.628 17.24 200.012 17.464C200.407 17.688 200.722 17.992 200.956 18.376C201.202 18.76 201.324 19.2453 201.324 19.832C201.324 20.4293 201.159 20.984 200.828 21.496C200.508 21.9973 200.012 22.4027 199.34 22.712C198.668 23.0107 197.82 23.16 196.796 23.16ZM205.503 23V13.56H201.791V11.8H211.295V13.56H207.583V23H205.503ZM212.856 23V11.8H214.936V23H212.856ZM223.149 23.16C222.296 23.16 221.501 23.0213 220.765 22.744C220.04 22.456 219.405 22.056 218.861 21.544C218.328 21.0213 217.912 20.408 217.613 19.704C217.314 19 217.165 18.232 217.165 17.4C217.165 16.568 217.314 15.8 217.613 15.096C217.912 14.392 218.333 13.784 218.877 13.272C219.421 12.7493 220.056 12.3493 220.781 12.072C221.506 11.784 222.301 11.64 223.165 11.64C224.082 11.64 224.92 11.8 225.677 12.12C226.434 12.4293 227.074 12.8933 227.597 13.512L226.253 14.776C225.848 14.3387 225.394 14.0133 224.893 13.8C224.392 13.576 223.848 13.464 223.261 13.464C222.674 13.464 222.136 13.56 221.645 13.752C221.165 13.944 220.744 14.216 220.381 14.568C220.029 14.92 219.752 15.336 219.549 15.816C219.357 16.296 219.261 16.824 219.261 17.4C219.261 17.976 219.357 18.504 219.549 18.984C219.752 19.464 220.029 19.88 220.381 20.232C220.744 20.584 221.165 20.856 221.645 21.048C222.136 21.24 222.674 21.336 223.261 21.336C223.848 21.336 224.392 21.2293 224.893 21.016C225.394 20.792 225.848 20.456 226.253 20.008L227.597 21.288C227.074 21.896 226.434 22.36 225.677 22.68C224.92 23 224.077 23.16 223.149 23.16ZM231.446 20.36L231.334 17.896L237.206 11.8H239.542L234.662 16.984L233.51 18.248L231.446 20.36ZM229.59 23V11.8H231.67V23H229.59ZM237.398 23L233.11 17.896L234.486 16.376L239.83 23H237.398ZM243.201 23V18.568L243.665 19.848L238.801 11.8H241.025L244.929 18.28H243.681L247.617 11.8H249.665L244.801 19.848L245.281 18.568V23H243.201ZM133.216 49.16C132.427 49.16 131.654 49.048 130.896 48.824C130.15 48.5893 129.52 48.2693 129.008 47.864L129.904 46.248C130.31 46.5787 130.8 46.8453 131.376 47.048C131.952 47.2507 132.555 47.352 133.184 47.352C133.931 47.352 134.512 47.2027 134.928 46.904C135.344 46.5947 135.552 46.1787 135.552 45.656C135.552 45.144 135.36 44.7387 134.976 44.44C134.592 44.1413 133.974 43.992 133.12 43.992H132.096V42.568L135.296 38.76L135.568 39.544H129.552V37.8H137.184V39.192L133.984 43L132.896 42.36H133.52C134.896 42.36 135.926 42.6693 136.608 43.288C137.302 43.896 137.648 44.68 137.648 45.64C137.648 46.2693 137.488 46.8507 137.168 47.384C136.848 47.9173 136.358 48.3493 135.696 48.68C135.046 49 134.219 49.16 133.216 49.16ZM142.451 49.16C141.661 49.16 140.888 49.048 140.131 48.824C139.384 48.5893 138.755 48.2693 138.243 47.864L139.139 46.248C139.544 46.5787 140.035 46.8453 140.611 47.048C141.187 47.2507 141.789 47.352 142.419 47.352C143.165 47.352 143.747 47.2027 144.163 46.904C144.579 46.5947 144.787 46.1787 144.787 45.656C144.787 45.144 144.595 44.7387 144.211 44.44C143.827 44.1413 143.208 43.992 142.355 43.992H141.331V42.568L144.531 38.76L144.803 39.544H138.787V37.8H146.419V39.192L143.219 43L142.131 42.36H142.755C144.131 42.36 145.16 42.6693 145.843 43.288C146.536 43.896 146.883 44.68 146.883 45.64C146.883 46.2693 146.723 46.8507 146.403 47.384C146.083 47.9173 145.592 48.3493 144.931 48.68C144.28 49 143.453 49.16 142.451 49.16ZM153.091 49.16C152.078 49.16 151.208 48.9467 150.483 48.52C149.758 48.0827 149.203 47.4533 148.819 46.632C148.435 45.8107 148.243 44.7973 148.243 43.592C148.243 42.312 148.472 41.2293 148.931 40.344C149.4 39.4587 150.046 38.7867 150.867 38.328C151.699 37.8693 152.654 37.64 153.731 37.64C154.296 37.64 154.835 37.6987 155.347 37.816C155.87 37.9333 156.312 38.1147 156.675 38.36L155.907 39.928C155.598 39.7253 155.262 39.5867 154.899 39.512C154.547 39.4267 154.174 39.384 153.779 39.384C152.723 39.384 151.886 39.7093 151.267 40.36C150.648 41.0107 150.339 41.9707 150.339 43.24C150.339 43.4427 150.344 43.6827 150.355 43.96C150.366 44.2267 150.403 44.4987 150.467 44.776L149.827 44.072C150.019 43.6347 150.28 43.272 150.611 42.984C150.952 42.6853 151.352 42.4613 151.811 42.312C152.28 42.1627 152.787 42.088 153.331 42.088C154.067 42.088 154.723 42.232 155.299 42.52C155.875 42.7973 156.334 43.1973 156.675 43.72C157.016 44.232 157.187 44.8347 157.187 45.528C157.187 46.264 157.006 46.904 156.643 47.448C156.28 47.992 155.79 48.4133 155.171 48.712C154.552 49.0107 153.859 49.16 153.091 49.16ZM152.979 47.528C153.406 47.528 153.784 47.4533 154.115 47.304C154.446 47.144 154.702 46.92 154.883 46.632C155.075 46.344 155.171 46.008 155.171 45.624C155.171 45.0373 154.968 44.5733 154.563 44.232C154.158 43.8907 153.614 43.72 152.931 43.72C152.483 43.72 152.088 43.8053 151.747 43.976C151.416 44.136 151.15 44.36 150.947 44.648C150.755 44.936 150.659 45.2667 150.659 45.64C150.659 45.9813 150.75 46.296 150.931 46.584C151.112 46.872 151.374 47.1013 151.715 47.272C152.067 47.4427 152.488 47.528 152.979 47.528ZM157.48 49L161.24 44.104L161.208 45.176L157.624 40.456H159.848L162.36 43.816H161.512L164.04 40.456H166.2L162.584 45.176L162.6 44.104L166.344 49H164.088L161.448 45.432L162.28 45.544L159.688 49H157.48ZM171.904 49.16C170.89 49.16 170.021 48.9467 169.296 48.52C168.57 48.0827 168.016 47.4533 167.632 46.632C167.248 45.8107 167.056 44.7973 167.056 43.592C167.056 42.312 167.285 41.2293 167.744 40.344C168.213 39.4587 168.858 38.7867 169.68 38.328C170.512 37.8693 171.466 37.64 172.544 37.64C173.109 37.64 173.648 37.6987 174.16 37.816C174.682 37.9333 175.125 38.1147 175.488 38.36L174.72 39.928C174.41 39.7253 174.074 39.5867 173.712 39.512C173.36 39.4267 172.986 39.384 172.592 39.384C171.536 39.384 170.698 39.7093 170.08 40.36C169.461 41.0107 169.152 41.9707 169.152 43.24C169.152 43.4427 169.157 43.6827 169.168 43.96C169.178 44.2267 169.216 44.4987 169.28 44.776L168.64 44.072C168.832 43.6347 169.093 43.272 169.424 42.984C169.765 42.6853 170.165 42.4613 170.624 42.312C171.093 42.1627 171.6 42.088 172.144 42.088C172.88 42.088 173.536 42.232 174.112 42.52C174.688 42.7973 175.146 43.1973 175.488 43.72C175.829 44.232 176 44.8347 176 45.528C176 46.264 175.818 46.904 175.456 47.448C175.093 47.992 174.602 48.4133 173.984 48.712C173.365 49.0107 172.672 49.16 171.904 49.16ZM171.792 47.528C172.218 47.528 172.597 47.4533 172.928 47.304C173.258 47.144 173.514 46.92 173.696 46.632C173.888 46.344 173.984 46.008 173.984 45.624C173.984 45.0373 173.781 44.5733 173.376 44.232C172.97 43.8907 172.426 43.72 171.744 43.72C171.296 43.72 170.901 43.8053 170.56 43.976C170.229 44.136 169.962 44.36 169.76 44.648C169.568 44.936 169.472 45.2667 169.472 45.64C169.472 45.9813 169.562 46.296 169.744 46.584C169.925 46.872 170.186 47.1013 170.528 47.272C170.88 47.4427 171.301 47.528 171.792 47.528ZM181.759 49.16C180.873 49.16 180.073 48.936 179.359 48.488C178.655 48.04 178.1 47.3893 177.695 46.536C177.289 45.672 177.087 44.6267 177.087 43.4C177.087 42.1733 177.289 41.1333 177.695 40.28C178.1 39.416 178.655 38.76 179.359 38.312C180.073 37.864 180.873 37.64 181.759 37.64C182.655 37.64 183.455 37.864 184.159 38.312C184.863 38.76 185.417 39.416 185.823 40.28C186.239 41.1333 186.447 42.1733 186.447 43.4C186.447 44.6267 186.239 45.672 185.823 46.536C185.417 47.3893 184.863 48.04 184.159 48.488C183.455 48.936 182.655 49.16 181.759 49.16ZM181.759 47.352C182.281 47.352 182.735 47.2133 183.119 46.936C183.503 46.648 183.801 46.2107 184.015 45.624C184.239 45.0373 184.351 44.296 184.351 43.4C184.351 42.4933 184.239 41.752 184.015 41.176C183.801 40.5893 183.503 40.1573 183.119 39.88C182.735 39.592 182.281 39.448 181.759 39.448C181.257 39.448 180.809 39.592 180.415 39.88C180.031 40.1573 179.727 40.5893 179.503 41.176C179.289 41.752 179.183 42.4933 179.183 43.4C179.183 44.296 179.289 45.0373 179.503 45.624C179.727 46.2107 180.031 46.648 180.415 46.936C180.809 47.2133 181.257 47.352 181.759 47.352ZM193.196 49.112C192.503 49.112 191.868 48.952 191.292 48.632C190.727 48.312 190.274 47.832 189.932 47.192C189.602 46.5413 189.436 45.72 189.436 44.728C189.436 43.7253 189.596 42.904 189.916 42.264C190.247 41.624 190.695 41.1493 191.26 40.84C191.826 40.52 192.471 40.36 193.196 40.36C194.039 40.36 194.78 40.5413 195.42 40.904C196.071 41.2667 196.583 41.7733 196.956 42.424C197.34 43.0747 197.532 43.8427 197.532 44.728C197.532 45.6133 197.34 46.3867 196.956 47.048C196.583 47.6987 196.071 48.2053 195.42 48.568C194.78 48.9307 194.039 49.112 193.196 49.112ZM188.46 52.104V40.456H190.364V42.472L190.3 44.744L190.46 47.016V52.104H188.46ZM192.972 47.4C193.452 47.4 193.879 47.2933 194.252 47.08C194.636 46.8667 194.94 46.5573 195.164 46.152C195.388 45.7467 195.5 45.272 195.5 44.728C195.5 44.1733 195.388 43.6987 195.164 43.304C194.94 42.8987 194.636 42.5893 194.252 42.376C193.879 42.1627 193.452 42.056 192.972 42.056C192.492 42.056 192.06 42.1627 191.676 42.376C191.292 42.5893 190.988 42.8987 190.764 43.304C190.54 43.6987 190.428 44.1733 190.428 44.728C190.428 45.272 190.54 45.7467 190.764 46.152C190.988 46.5573 191.292 46.8667 191.676 47.08C192.06 47.2933 192.492 47.4 192.972 47.4ZM197.98 49L201.74 44.104L201.708 45.176L198.124 40.456H200.348L202.86 43.816H202.012L204.54 40.456H206.7L203.084 45.176L203.1 44.104L206.844 49H204.588L201.948 45.432L202.78 45.544L200.188 49H197.98Z" fill="white"/>
</svg>
