<svg width="24" height="24" viewBox="0 0 24 24" fill="none" xmlns="http://www.w3.org/2000/svg">
  <path d="M4.04797 3H20.9513C21.5302 2.9999 21.9997 3.46903 22 4.04797V20.9513C22 21.089 21.9729 21.2254 21.9202 21.3526C21.8675 21.4799 21.7903 21.5955 21.6929 21.6929C21.5955 21.7903 21.4799 21.8675 21.3526 21.9202C21.2254 21.9729 21.089 22 20.9513 22H16.1182L16.1182 14.6523H18.5952L18.9663 11.7764L16.1182 11.7764V9.94465C16.1182 9.11396 16.3488 8.54785 17.54 8.54785L19.0498 8.54785L19.0498 5.98248C18.7871 5.9476 17.8859 5.86948 16.8373 5.86948C16.6834 5.86948 16.533 5.87609 16.3862 5.88922C14.5753 6.0512 13.3265 7.2066 13.1668 9.21285C13.1553 9.35745 13.1494 9.50646 13.1494 9.65984V11.7764H10.6816V14.6523H13.1494V22H4.04871C3.46977 22.0001 3.00031 21.531 3 20.952V4.04871C2.9999 3.46977 3.46903 3.00031 4.04797 3Z" fill="#5200FF" />
</svg>