<svg width="24" height="24" viewBox="0 0 24 24" fill="none" xmlns="http://www.w3.org/2000/svg">
  <path fill-rule="evenodd" clip-rule="evenodd" d="M4.30615 10.7785C9.40641 8.55638 12.8074 7.09143 14.5091 6.38364C19.3677 4.36276 20.3773 4.01172 21.0354 4.00012C21.1801 3.99757 21.5037 4.03344 21.7133 4.20353C21.8903 4.34715 21.939 4.54116 21.9623 4.67733C21.9856 4.81349 22.0146 5.12369 21.9916 5.36606C21.7283 8.13249 20.589 14.8459 20.0094 17.9443C19.7642 19.2554 19.2813 19.695 18.8138 19.738C17.7978 19.8315 17.0263 19.0666 16.0422 18.4215C14.5024 17.4122 13.6325 16.7838 12.1378 15.7989C10.4105 14.6606 11.5303 14.035 12.5147 13.0125C12.7723 12.7449 17.2488 8.67324 17.3354 8.30387C17.3463 8.25768 17.3563 8.08548 17.254 7.99456C17.1517 7.90363 17.0007 7.93473 16.8918 7.95945C16.7373 7.99451 14.2775 9.6204 9.51212 12.8371C8.81389 13.3166 8.18145 13.5502 7.61481 13.538C6.99014 13.5245 5.78851 13.1848 4.89523 12.8944C3.79958 12.5382 2.92878 12.3499 3.0046 11.7451C3.0441 11.43 3.47795 11.1078 4.30615 10.7785Z" fill="#5200FF" />
</svg>